<svg width="56" height="61" viewBox="0 0 561 613" fill="none" xmlns="http://www.w3.org/2000/svg">
<path fill-rule="evenodd" clip-rule="evenodd" d="M221.91 132.6L179.28 80.2417H147.234L108.252 21.7677H131.67L124.915 13.4717L140.812 0.528259L158.105 21.7677H222.044C293.485 21.7677 343.867 22.1185 408.369 59.3581C460.315 89.3488 487.023 115.942 517.846 167.953C548.105 219.01 561 254.535 561 314.138C561 373.74 548.105 409.265 517.846 460.323C487.023 512.333 459.954 538.291 408.369 568.917C332.688 613.849 273.812 618.783 187 606.508C146.494 600.78 123.414 594.743 86.3077 577.271C62.4691 566.046 47.4254 554.39 30.6003 541.354L30.599 541.352L30.5981 541.352C21.4825 534.289 11.8437 526.821 0 518.797V125.123H0.00796496V125.103H147.638L206.69 198.919H71.9231V272.737H295.274L354.327 346.553H71.9231V435.133H221.458L280.511 508.949H82.1865C96.6807 515.557 123.632 527.365 143.846 533.415C171.323 541.64 187.189 546.097 215.769 548.034C272.93 551.906 323.573 534.947 359.615 518.797C395.657 502.09 420.2 481.825 445.923 445.704C477.168 401.83 489.077 368.297 489.077 314.138C489.077 259.979 477.168 226.446 445.923 182.571C420.2 146.451 398.537 130.057 359.615 109.479C308.794 82.6085 215.769 80.2417 215.769 80.2417H205.715L234.794 115.956C285.653 117.093 328.318 128.213 362.321 150.664C397.517 173.902 422.494 208.663 437.851 254.732L437.945 255.014L438.022 255.3C466.263 359.808 415.546 467.107 307.023 496.433L301.675 476.643C397.706 450.693 443.84 355.943 418.309 260.933C404.134 218.57 381.679 188.01 351.026 167.771C320.183 147.407 280.104 136.876 229.757 136.377L224.947 136.33L221.91 132.6Z" fill="#F07049" fill-opacity="1"/>
</svg>
