<?xml version="1.0" encoding="UTF-8"?>
<svg width="2500px" height="800px" viewBox="0 0 2432 800" version="1.1" xmlns="http://www.w3.org/2000/svg" xmlns:xlink="http://www.w3.org/1999/xlink">
    <title>Combined Shape</title>
    <defs>
        <linearGradient x1="121.665541%" y1="42.0740036%" x2="-1.1044896%" y2="54.353867%" id="linearGradient-1">
            <stop stop-color="#FAD961" offset="0%"></stop>
            <stop stop-color="#F76B1C" offset="100%"></stop>
        </linearGradient>
    </defs>
    <g id="Logotype" stroke="none" stroke-width="1" fill="none" fill-rule="evenodd">
        <g id="02-Logo-DistroEnergy-Copy-6" transform="translate(-213.000000, -100.000000)" fill="url(#linearGradient-1)">
            <path d="M1299.22,523 L1299.22,467.056 L1355.164,467.056 L1355.164,268.144 L1299.22,268.144 L1299.22,212.2 L1474.6,212.2 L1474.6,268.144 L1418.656,268.144 L1418.656,467.056 L1474.6,467.056 L1474.6,523 L1299.22,523 Z M1522.324,523 L1522.324,467.056 L1655.524,467.056 C1662.03603,467.056 1667.95597,465.428016 1673.284,462.172 C1678.61203,458.915984 1682.90398,454.550027 1686.16,449.074 C1689.41602,443.597973 1691.044,437.604033 1691.044,431.092 C1691.044,424.283966 1689.41602,418.142027 1686.16,412.666 C1682.90398,407.189973 1678.61203,402.824016 1673.284,399.568 C1667.95597,396.311984 1662.03603,394.684 1655.524,394.684 L1603.576,394.684 C1586.11191,394.684 1570.27607,391.132036 1556.068,384.028 C1541.85993,376.923964 1530.53804,366.638067 1522.102,353.17 C1513.66596,339.701933 1509.448,323.496095 1509.448,304.552 C1509.448,285.903907 1513.44396,269.698069 1521.436,255.934 C1529.42804,242.169931 1540.23193,231.440038 1553.848,223.744 C1567.46407,216.047962 1582.55992,212.2 1599.136,212.2 L1734.112,212.2 L1734.112,268.144 L1605.352,268.144 C1599.43197,268.144 1593.95603,269.697984 1588.924,272.806 C1583.89197,275.914016 1579.97001,279.983975 1577.158,285.016 C1574.34599,290.048025 1572.94,295.671969 1572.94,301.888 C1572.94,308.104031 1574.34599,313.727975 1577.158,318.76 C1579.97001,323.792025 1583.89197,327.787985 1588.924,330.748 C1593.95603,333.708015 1599.43197,335.188 1605.352,335.188 L1659.076,335.188 C1678.3161,335.188 1695.03993,338.887963 1709.248,346.288 C1723.45607,353.688037 1734.48196,364.047933 1742.326,377.368 C1750.17004,390.688067 1754.092,406.227911 1754.092,423.988 C1754.092,445.004105 1750.02204,462.911926 1741.882,477.712 C1733.74196,492.512074 1722.79007,503.759962 1709.026,511.456 C1695.26193,519.152038 1680.09208,523 1663.516,523 L1522.324,523 Z M1949.224,523 C1930.87191,523 1914.74007,518.782042 1900.828,510.346 C1886.91593,501.909958 1876.11204,490.66207 1868.416,476.602 C1860.71996,462.54193 1856.872,447.076084 1856.872,430.204 L1856.872,268.144 L1770.292,268.144 L1770.292,212.2 L2006.944,212.2 L2006.944,268.144 L1920.364,268.144 L1920.364,437.752 C1920.364,445.74404 1923.17597,452.625971 1928.8,458.398 C1934.42403,464.170029 1941.23196,467.056 1949.224,467.056 L1971.424,467.056 L1971.424,523 L1949.224,523 Z M2038.684,523 L2038.684,212.2 L2177.656,212.2 C2198.0801,212.2 2216.65392,216.713955 2233.378,225.742 C2250.10208,234.770045 2263.42195,247.27592 2273.338,263.26 C2283.25405,279.24408 2288.212,297.891893 2288.212,319.204 C2288.212,339.924104 2283.32805,358.201921 2273.56,374.038 C2263.79195,389.874079 2250.91608,402.379954 2234.932,411.556 L2263.348,461.284 C2264.53201,463.060009 2266.01199,464.465995 2267.788,465.502 C2269.56401,466.538005 2271.63599,467.056 2274.004,467.056 L2304.196,467.056 L2304.196,523 L2264.236,523 C2251.80394,523 2240.48205,519.892031 2230.27,513.676 C2220.05795,507.459969 2211.99203,499.32005 2206.072,489.256 L2170.996,426.208 L2102.176,426.208 L2102.176,523 L2038.684,523 Z M2102.176,370.264 L2170.108,370.264 C2180.17205,370.264 2189.34796,368.26602 2197.636,364.27 C2205.92404,360.27398 2212.50998,354.428038 2217.394,346.732 C2222.27802,339.035962 2224.72,329.860053 2224.72,319.204 C2224.72,308.547947 2222.20403,299.372038 2217.172,291.676 C2212.13997,283.979962 2205.55404,278.13402 2197.414,274.138 C2189.27396,270.14198 2180.17205,268.144 2170.108,268.144 L2102.176,268.144 L2102.176,370.264 Z M2481.124,528.772 C2456.25988,528.772 2433.8381,524.554042 2413.858,516.118 C2393.8779,507.681958 2376.78407,496.064074 2362.576,481.264 C2348.36793,466.463926 2337.41604,449.296098 2329.72,429.76 C2322.02396,410.223902 2318.176,389.356111 2318.176,367.156 C2318.176,344.955889 2322.02396,324.162097 2329.72,304.774 C2337.41604,285.385903 2348.36793,268.292074 2362.576,253.492 C2376.78407,238.691926 2393.8779,227.148041 2413.858,218.86 C2433.8381,210.571959 2456.25988,206.428 2481.124,206.428 C2505.98812,206.428 2528.4099,210.571959 2548.39,218.86 C2568.3701,227.148041 2585.46393,238.691926 2599.672,253.492 C2613.88007,268.292074 2624.83196,285.385903 2632.528,304.774 C2640.22404,324.162097 2644.072,344.955889 2644.072,367.156 C2644.072,389.356111 2640.22404,410.223902 2632.528,429.76 C2624.83196,449.296098 2613.88007,466.463926 2599.672,481.264 C2585.46393,496.064074 2568.3701,507.681958 2548.39,516.118 C2528.4099,524.554042 2505.98812,528.772 2481.124,528.772 Z M2481.124,472.384 C2495.33207,472.384 2508.50394,469.794026 2520.64,464.614 C2532.77606,459.433974 2543.35795,452.034048 2552.386,442.414 C2561.41405,432.793952 2568.36998,421.620064 2573.254,408.892 C2578.13802,396.163936 2580.58,382.252075 2580.58,367.156 C2580.58,352.059925 2578.13802,338.148064 2573.254,325.42 C2568.36998,312.691936 2561.41405,301.592047 2552.386,292.12 C2543.35795,282.647953 2532.77606,275.322026 2520.64,270.142 C2508.50394,264.961974 2495.33207,262.372 2481.124,262.372 C2466.91593,262.372 2453.74406,264.961974 2441.608,270.142 C2429.47194,275.322026 2418.89005,282.647953 2409.862,292.12 C2400.83395,301.592047 2393.87802,312.691936 2388.994,325.42 C2384.10998,338.148064 2381.668,352.059925 2381.668,367.156 C2381.668,382.252075 2384.10998,396.163936 2388.994,408.892 C2393.87802,421.620064 2400.83395,432.793952 2409.862,442.414 C2418.89005,452.034048 2429.47194,459.433974 2441.608,464.614 C2453.74406,469.794026 2466.91593,472.384 2481.124,472.384 Z M500,100 C720.9139,100 900,279.0861 900,500 C900,720.9139 720.9139,900 500,900 C398.399426,900 299.65515,859.954848 225.83134,791.635245 L213,779.760593 L213,258.214891 L368.479322,258.214891 L449.073156,338.214891 L293,338.214891 L293,460 L571,460 L651,540 L293,540 L293,662.999 L467.889709,663 L548,743 L293,742.999 L293,744.181673 C350.658434,792.16288 424.614311,820 500,820 C676.73112,820 820,676.73112 820,500 C820,323.26888 676.73112,180 500,180 C475.071575,180 450.580855,182.848936 426.888007,188.380978 L496.520962,258.013441 C497.379004,258.004488 498.238117,258 499.098279,258 C632.751188,258 741.098279,366.347091 741.098279,500 C741.098279,589.726736 692.266318,668.048157 619.728455,709.838204 L607.896953,698.135998 C677.758656,659.692454 725.098279,585.374608 725.098279,500 C725.098279,375.183647 623.914632,274 499.098279,274 C496.374439,274 493.199173,274.048187 490.471713,274.143755 L490.249783,274.370528 L408.993232,193.113328 C408.969578,193.120328 408.945924,193.127331 408.922272,193.134336 L400.302,184.422 L346,130.120744 L354.207252,127.407715 C400.099345,109.438945 449.373335,100 500,100 Z M1796.8,629.7 C1812.20008,629.7 1825.74994,633.099966 1837.45,639.9 C1849.15006,646.700034 1858.29997,656.04994 1864.9,667.95 C1871.50003,679.850059 1874.8,693.599922 1874.8,709.2 L1874.8,799.8 C1874.8,814.200072 1870.60004,825.649957 1862.2,834.15 C1853.79996,842.650042 1842.30007,846.9 1827.7,846.9 L1750.6,846.9 L1750.6,828.6 L1823.5,828.6 C1833.30005,828.6 1840.79997,825.800028 1846,820.2 C1851.20003,814.599972 1853.8,807.000048 1853.8,797.4 L1853.8,753.6 L1853.2,753.6 C1849.59998,759.400029 1845.00003,764.999973 1839.4,770.4 C1833.79997,775.800027 1827.15004,780.199983 1819.45,783.6 C1811.74996,787.000017 1802.90005,788.7 1792.9,788.7 C1778.09993,788.7 1765.15006,785.250034 1754.05,778.35 C1742.94994,771.449965 1734.35003,762.00006 1728.25,750 C1722.14997,737.99994 1719.1,724.300077 1719.1,708.9 C1719.1,693.899925 1722.19997,680.450059 1728.4,668.55 C1734.60003,656.64994 1743.49994,647.200035 1755.1,640.2 C1766.70006,633.199965 1780.59992,629.7 1796.8,629.7 Z M1964.4,633 L1964.4,721.2 C1964.4,731.800053 1966.74998,740.899962 1971.45,748.5 C1976.15002,756.100038 1982.19996,761.84998 1989.6,765.75 C1997.00004,769.650019 2004.89996,771.6 2013.3,771.6 C2021.90004,771.6 2029.94996,769.60002 2037.45,765.6 C2044.95004,761.59998 2051.04998,755.850037 2055.75,748.35 C2060.45002,740.849962 2062.8,731.800053 2062.8,721.2 L2062.8,633 L2083.5,633 L2083.5,722.1 C2083.5,734.900064 2080.85003,746.049952 2075.55,755.55 C2070.24997,765.050047 2063.10004,772.649971 2054.1,778.35 C2045.09995,784.050028 2035.10005,787.5 2024.1,788.7 L2024.1,846.9 L2003.1,846.9 L2003.1,789 C1991.89994,787.599993 1981.80004,784.050028 1972.8,778.35 C1963.79995,772.649971 1956.65003,765.000048 1951.35,755.4 C1946.04997,745.799952 1943.4,734.700063 1943.4,722.1 L1943.4,633 L1964.4,633 Z M1073.6,629.4 C1088.60007,629.4 1101.29995,632.699967 1111.7,639.3 C1122.10005,645.900033 1129.99997,654.799944 1135.4,666 C1140.80003,677.200056 1143.5,689.79993 1143.5,703.8 C1143.5,705.80001 1143.4,707.999988 1143.2,710.4 C1143,712.800012 1142.7,714.9 1142.3,716.7 L1023.2,716.7 C1023.8,727.900056 1026.99997,737.299962 1032.8,744.9 C1038.60003,752.500038 1046.14995,758.199981 1055.45,762 C1064.75005,765.800019 1074.79995,767.7 1085.6,767.7 L1124.3,767.7 L1124.3,786 L1086.8,786 C1070.39992,786 1055.75006,782.95003 1042.85,776.85 C1029.94994,770.749969 1019.75004,762.000057 1012.25,750.6 C1004.74996,739.199943 1001,725.50008 1001,709.5 C1001,694.699926 1003.99997,681.25006 1010,669.15 C1016.00003,657.049939 1024.44995,647.400036 1035.35,640.2 C1046.25005,632.999964 1058.99993,629.4 1073.6,629.4 Z M1273.9,629.1 C1286.90006,629.1 1298.64995,631.849972 1309.15,637.35 C1319.65005,642.850027 1328.04997,650.649949 1334.35,660.75 C1340.65003,670.85005 1343.8,682.89993 1343.8,696.9 L1343.8,786 L1322.8,786 L1322.8,697.8 C1322.8,687.199947 1320.50002,678.150037 1315.9,670.65 C1311.29998,663.149962 1305.25004,657.40002 1297.75,653.4 C1290.24996,649.39998 1282.20004,647.4 1273.6,647.4 C1265.19996,647.4 1257.30004,649.34998 1249.9,653.25 C1242.49996,657.150019 1236.50002,662.849962 1231.9,670.35 C1227.29998,677.850037 1225,686.999946 1225,697.8 L1225,786 L1204,786 L1204,696.9 C1204,682.89993 1207.14997,670.85005 1213.45,660.75 C1219.75003,650.649949 1228.19995,642.850027 1238.8,637.35 C1249.40005,631.849972 1261.09994,629.1 1273.9,629.1 Z M1477.5,629.4 C1492.50007,629.4 1505.19995,632.699967 1515.6,639.3 C1526.00005,645.900033 1533.89997,654.799944 1539.3,666 C1544.70003,677.200056 1547.4,689.79993 1547.4,703.8 C1547.4,705.80001 1547.3,707.999988 1547.1,710.4 C1546.9,712.800012 1546.6,714.9 1546.2,716.7 L1427.1,716.7 C1427.7,727.900056 1430.89997,737.299962 1436.7,744.9 C1442.50003,752.500038 1450.04995,758.199981 1459.35,762 C1468.65005,765.800019 1478.69995,767.7 1489.5,767.7 L1528.2,767.7 L1528.2,786 L1490.7,786 C1474.29992,786 1459.65006,782.95003 1446.75,776.85 C1433.84994,770.749969 1423.65004,762.000057 1416.15,750.6 C1408.64996,739.199943 1404.9,725.50008 1404.9,709.5 C1404.9,694.699926 1407.89997,681.25006 1413.9,669.15 C1419.90003,657.049939 1428.34995,647.400036 1439.25,640.2 C1450.15005,632.999964 1462.89993,629.4 1477.5,629.4 Z M1677.2,633 L1677.2,651.3 L1655,651.3 C1646.19996,651.3 1639.55002,653.699976 1635.05,658.5 C1630.54998,663.300024 1628.3,670.099956 1628.3,678.9 L1628.3,786 L1607.3,786 L1607.3,676.5 C1607.3,662.899932 1611.14996,652.250038 1618.85,644.55 C1626.55004,636.849961 1637.19993,633 1650.8,633 L1677.2,633 Z M1796.5,647.7 C1784.89994,647.7 1774.85004,650.449972 1766.35,655.95 C1757.84996,661.450027 1751.40002,668.849953 1747,678.15 C1742.59998,687.450046 1740.4,698.09994 1740.4,710.1 C1740.4,721.300056 1742.59998,731.449954 1747,740.55 C1751.40002,749.650045 1757.79996,756.899973 1766.2,762.3 C1774.60004,767.700027 1784.59994,770.4 1796.2,770.4 C1807.40006,770.4 1817.29996,767.700027 1825.9,762.3 C1834.50004,756.899973 1841.24998,749.650045 1846.15,740.55 C1851.05002,731.449954 1853.5,721.000059 1853.5,709.2 C1853.5,697.399941 1851.15002,686.900046 1846.45,677.7 C1841.74998,668.499954 1835.10004,661.200027 1826.5,655.8 C1817.89996,650.399973 1807.90006,647.7 1796.5,647.7 Z M1073,647.1 C1065.39996,647.1 1058.50003,648.699984 1052.3,651.9 C1046.09997,655.100016 1040.90002,659.349973 1036.7,664.65 C1032.49998,669.950026 1029.25001,675.799968 1026.95,682.2 C1024.64999,688.600032 1023.4,695.099967 1023.2,701.7 L1122.2,701.7 C1122.2,697.69998 1121.8,693.250024 1121,688.35 C1120.2,683.449975 1118.75001,678.600024 1116.65,673.8 C1114.54999,668.999976 1111.65002,664.60002 1107.95,660.6 C1104.24998,656.59998 1099.55003,653.350012 1093.85,650.85 C1088.14997,648.349987 1081.20004,647.1 1073,647.1 Z M1476.9,647.1 C1469.29996,647.1 1462.40003,648.699984 1456.2,651.9 C1449.99997,655.100016 1444.80002,659.349973 1440.6,664.65 C1436.39998,669.950026 1433.15001,675.799968 1430.85,682.2 C1428.54999,688.600032 1427.3,695.099967 1427.1,701.7 L1526.1,701.7 C1526.1,697.69998 1525.7,693.250024 1524.9,688.35 C1524.1,683.449975 1522.65001,678.600024 1520.55,673.8 C1518.44999,668.999976 1515.55002,664.60002 1511.85,660.6 C1508.14998,656.59998 1503.45003,653.350012 1497.75,650.85 C1492.04997,648.349987 1485.10004,647.1 1476.9,647.1 Z M1105.864,212 C1139.01617,212 1167.72788,218.859933 1192,232.18 C1216.27212,245.500067 1235.14193,263.851883 1248.61,287.236 C1262.07807,310.620117 1268.812,337.407849 1268.812,367.6 C1268.812,397.792151 1262.07807,424.579883 1248.61,447.964 C1235.14193,471.348117 1216.27212,489.699933 1192,503.02 C1167.72788,516.340067 1139.01617,523 1105.864,523 L1001.08,523 L1001.08,212 L1064.5,275.494884 L1064.5,460 L1098.372,460 C1122.50551,460 1156.16624,456.810555 1178.59117,432.015001 C1201.01609,407.219448 1205.32,388.254438 1205.32,367.6 C1205.32,346.945562 1201.01609,328.223135 1178.59117,303.184999 C1161.08531,283.639154 1136.73231,277.555807 1115.4097,275.827455 L1051.27049,212 L1105.864,212 L1105.864,212 Z" id="Combined-Shape"></path>
        </g>
    </g>
</svg>
