<svg width="138" height="138" viewBox="0 0 138 138" fill="none" xmlns="http://www.w3.org/2000/svg">
<g clip-path="url(#clip0)">
<path d="M66.9321 41.7216L50.277 72.6527C49.8796 73.3904 49.8994 74.2815 50.3292 75.0006C50.7579 75.7198 51.5328 76.1601 52.3705 76.1601H66.6463V95.1945C66.6452 96.2843 67.3864 97.2358 68.4424 97.503C68.633 97.5495 68.8293 97.5739 69.0256 97.5739C69.9004 97.5739 70.7044 97.0929 71.1192 96.3226L87.7743 65.3916C88.1716 64.6539 88.1519 63.7628 87.722 63.0437C87.2933 62.3245 86.5184 61.8842 85.6808 61.8842H71.4049V42.8497C71.4038 41.7611 70.6637 40.8108 69.6077 40.5448C68.5516 40.2787 67.4491 40.7632 66.9321 41.7216ZM81.6982 66.6428L71.4049 85.7563V73.7808C71.4049 72.4668 70.3396 71.4014 69.0256 71.4014H56.353L66.6463 52.2856V64.2635C66.6463 65.5775 67.7117 66.6428 69.0256 66.6428H81.6982Z" fill="#00B956"/>
<path d="M21.4394 69.0221C21.4394 95.3037 42.744 116.608 69.0256 116.608C95.3072 116.608 116.612 95.3037 116.612 69.0221C116.612 42.7404 95.3072 21.4359 69.0256 21.4359C42.7568 21.4661 21.4696 42.7532 21.4394 69.0221ZM111.853 69.0221C111.853 92.6746 92.6781 111.85 69.0256 111.85C45.3719 111.85 26.198 92.6746 26.198 69.0221C26.198 45.3695 45.3719 26.1945 69.0256 26.1945C92.6677 26.2224 111.825 45.38 111.853 69.0221Z" fill="#00B956"/>
<path d="M59.8848 125.392C30.4989 120.639 9.69386 94.1083 12.0836 64.4366C14.4746 34.7649 39.2575 11.9071 69.0256 11.9187C70.0944 11.9187 71.032 11.2053 71.3178 10.1749C71.6036 9.14552 71.1667 8.05113 70.2513 7.50045L58.3547 0.362522C57.6251 -0.094055 56.7062 -0.120776 55.951 0.291653C55.1958 0.704083 54.723 1.49176 54.7125 2.35148C54.7033 3.21235 55.1587 4.01049 55.9034 4.44034L61.2452 7.648C30.7266 11.5039 7.67818 37.1977 7.14725 67.9544C6.61632 98.7112 28.7655 125.186 59.1319 130.092C59.2562 130.113 59.3829 130.123 59.5083 130.123C60.7514 130.126 61.7889 129.171 61.8865 127.931C61.9841 126.691 61.1104 125.585 59.8813 125.392H59.8848Z" fill="#00B956"/>
<path d="M130.888 69.022C131.024 38.6242 108.946 12.6807 78.9193 7.95227C77.6425 7.78613 76.4656 8.6656 76.2623 9.93541C76.059 11.2064 76.9024 12.4088 78.1664 12.6493C107.559 17.3963 128.372 43.93 125.982 73.6075C123.591 103.285 98.7995 126.145 69.0256 126.125C67.9568 126.125 67.0192 126.839 66.7334 127.869C66.4476 128.899 66.8845 129.993 67.7999 130.544L79.6965 137.682C80.8211 138.33 82.2559 137.958 82.9251 136.846C83.5931 135.735 83.2469 134.292 82.1478 133.604L76.806 130.408C107.701 126.45 130.854 100.169 130.888 69.022Z" fill="#00B956"/>
</g>
<defs>
<clipPath id="clip0">
<rect width="138" height="138" fill="white"/>
</clipPath>
</defs>
</svg>
