<svg width="138" height="138" viewBox="0 0 138 138" fill="none" xmlns="http://www.w3.org/2000/svg">
<g clip-path="url(#clip0)">
<path d="M21.4395 69.0221C21.4395 95.3037 42.744 116.608 69.0257 116.608C95.3073 116.608 116.612 95.3037 116.612 69.0221C116.612 42.7404 95.3073 21.4359 69.0257 21.4359C42.7568 21.4661 21.4697 42.7532 21.4395 69.0221ZM111.853 69.0221C111.853 92.6746 92.6782 111.85 69.0257 111.85C45.372 111.85 26.1981 92.6746 26.1981 69.0221C26.1981 45.3695 45.372 26.1945 69.0257 26.1945C92.6677 26.2224 111.825 45.38 111.853 69.0221Z" fill="#00B956"/>
<path d="M59.8845 125.392C30.4987 120.639 9.69365 94.1083 12.0834 64.4366C14.4743 34.7649 39.2573 11.9071 69.0254 11.9187C70.0942 11.9187 71.0318 11.2053 71.3176 10.1749C71.6033 9.14552 71.1665 8.05113 70.251 7.50045L58.3545 0.362522C57.6249 -0.094055 56.7059 -0.120776 55.9508 0.291653C55.1956 0.704083 54.7228 1.49176 54.7123 2.35148C54.703 3.21235 55.1585 4.01049 55.9032 4.44034L61.245 7.648C30.7264 11.5039 7.67797 37.1977 7.14704 67.9544C6.61611 98.7112 28.7653 125.186 59.1317 130.092C59.256 130.113 59.3827 130.123 59.5081 130.123C60.7512 130.126 61.7887 129.171 61.8863 127.931C61.9839 126.691 61.1102 125.585 59.8811 125.392H59.8845Z" fill="#00B956"/>
<path d="M130.887 69.022C131.023 38.6242 108.946 12.6807 78.9191 7.95227C77.6423 7.78613 76.4654 8.6656 76.2621 9.93541C76.0588 11.2064 76.9022 12.4088 78.1663 12.6493C107.559 17.3963 128.372 43.93 125.981 73.6075C123.59 103.285 98.7993 126.145 69.0254 126.125C67.9566 126.125 67.019 126.839 66.7332 127.869C66.4475 128.899 66.8843 129.993 67.7998 130.544L79.6963 137.682C80.8209 138.33 82.2557 137.958 82.9249 136.846C83.5929 135.735 83.2467 134.292 82.1476 133.604L76.8058 130.408C107.7 126.45 130.853 100.169 130.887 69.022Z" fill="#00B956"/>
<path d="M49.9909 52.3668H42.8529C41.539 52.3668 40.4736 53.4322 40.4736 54.7461C40.4864 66.5672 50.0664 76.1471 61.8874 76.1599H64.0739L57.6493 84.1901C57.0777 84.9046 56.9662 85.8828 57.3623 86.7077C57.7585 87.5325 58.5926 88.0565 59.5081 88.0565H68.8325L62.4079 96.0866C61.5877 97.1125 61.7538 98.6112 62.7797 99.4325C63.8055 100.253 65.303 100.087 66.1244 99.0608L75.6417 87.1642C76.2144 86.4497 76.3259 85.4715 75.9298 84.6467C75.5324 83.8218 74.6983 83.2979 73.784 83.2979H64.4596L70.1697 76.1599H76.1633C87.9843 76.1471 97.5643 66.5672 97.5771 54.7461C97.5771 53.4322 96.5117 52.3668 95.1978 52.3668H88.0598C80.0308 52.3773 72.6826 56.878 69.0254 64.0252C65.3681 56.878 58.0199 52.3773 49.9909 52.3668ZM45.4007 57.1254H49.9909C57.0847 57.1347 63.3966 61.6308 65.7248 68.3319L60.9359 64.7397C59.8845 63.9509 58.3928 64.1635 57.6051 65.2149C56.8163 66.2663 57.0289 67.758 58.0803 68.5457L61.8874 71.4013C53.611 71.3908 46.595 65.3148 45.4007 57.1254ZM88.0598 57.1254H92.65C91.4557 65.3148 84.4386 71.3908 76.1633 71.4013L79.9704 68.5457C81.0218 67.758 81.2344 66.2663 80.4456 65.2149C79.6579 64.1635 78.1662 63.9509 77.1148 64.7397L72.3248 68.3319C74.6541 61.6308 80.9661 57.1347 88.0598 57.1254Z" fill="#00B956"/>
</g>
<defs>
<clipPath id="clip0">
<rect width="138" height="138" fill="white"/>
</clipPath>
</defs>
</svg>
