<svg width="200" height="195" viewBox="0 0 170 177" fill="none" xmlns="http://www.w3.org/2000/svg" xmlns:xlink="http://www.w3.org/1999/xlink">
<g clip-path="url(#clip0)">
<rect width="170" height="177" rx="4" fill="#2A3040"/>
<path d="M78 2.38419e-05C78 11.1624 75.8014 22.2154 71.5298 32.5281C67.2581 42.8408 60.9971 52.2111 53.1041 60.1041C45.2111 67.9971 35.8408 74.2581 25.5281 78.5298C15.2154 82.8014 4.16235 85 -7.00001 85L-7.00001 76.5C3.04611 76.5 12.9939 74.5213 22.2753 70.6768C31.5567 66.8323 39.99 61.1974 47.0937 54.0937C54.1973 46.99 59.8323 38.5567 63.6768 29.2753C67.5213 19.9939 69.5 10.0461 69.5 2.19345e-05L78 2.38419e-05Z" fill="url(#paint0_linear)"/>
<path d="M62 -7.99999C62 2.1118 60.0084 12.1246 56.1387 21.4666C52.2691 30.8087 46.5973 39.2971 39.4472 46.4472C32.2971 53.5973 23.8087 59.2691 14.4666 63.1387C5.12456 67.0083 -4.88822 69 -15 69L-15 -8L62 -7.99999Z" fill="url(#paint1_linear)"/>
<path d="M16.1274 32.175C16.1274 32.175 16.107 32.6891 16.6092 32.6891C17.234 32.6891 22.4068 32.6823 22.4068 32.6823L22.4154 27.9317C22.4154 27.9317 22.3336 27.1485 23.0938 27.1485H25.4993C26.3982 27.1485 26.3429 27.9317 26.3429 27.9317L26.3327 32.667C26.3327 32.667 31.2374 32.667 32.0078 32.667C32.6453 32.667 32.6164 32.0269 32.6164 32.0269V23.2687L24.6183 16.1542L16.1274 23.2687V32.175Z" fill="#FAD961"/>
<path d="M13 22.6064C13 22.6064 13.721 23.9351 15.2932 22.6064L24.689 14.6577L33.4983 22.557C35.3182 23.8696 36 22.557 36 22.557L24.689 12.3109L13 22.6064Z" fill="#FAD961"/>
<path d="M33.2846 14.6389H31.0187L31.028 17.3866L33.2846 19.301V14.6389Z" fill="#FAD961"/>
<path d="M158 22C158.53 22 159.039 22.2107 159.414 22.5858C159.789 22.9609 160 23.4696 160 24C160 24.5304 159.789 25.0391 159.414 25.4142C159.039 25.7893 158.53 26 158 26C157.47 26 156.961 25.7893 156.586 25.4142C156.211 25.0391 156 24.5304 156 24C156 23.4696 156.211 22.9609 156.586 22.5858C156.961 22.2107 157.47 22 158 22ZM158 16C158.53 16 159.039 16.2107 159.414 16.5858C159.789 16.9609 160 17.4696 160 18C160 18.5304 159.789 19.0391 159.414 19.4142C159.039 19.7893 158.53 20 158 20C157.47 20 156.961 19.7893 156.586 19.4142C156.211 19.0391 156 18.5304 156 18C156 17.4696 156.211 16.9609 156.586 16.5858C156.961 16.2107 157.47 16 158 16ZM158 10C158.53 10 159.039 10.2107 159.414 10.5858C159.789 10.9609 160 11.4696 160 12C160 12.5304 159.789 13.0391 159.414 13.4142C159.039 13.7893 158.53 14 158 14C157.47 14 156.961 13.7893 156.586 13.4142C156.211 13.0391 156 12.5304 156 12C156 11.4696 156.211 10.9609 156.586 10.5858C156.961 10.2107 157.47 10 158 10Z" fill="#707687"/>
<path d="M45.6416 136.708C45.2816 137.177 44.7826 137.533 44.1445 137.774C43.5065 138.016 42.7819 138.137 41.9707 138.137C41.1367 138.137 40.3984 137.948 39.7559 137.569C39.1133 137.191 38.6165 136.651 38.2656 135.949C37.9193 135.243 37.7393 134.42 37.7256 133.481V132.702C37.7256 131.198 38.0856 130.025 38.8057 129.182C39.5257 128.334 40.5306 127.91 41.8203 127.91C42.9277 127.91 43.8073 128.184 44.459 128.73C45.1107 129.277 45.5026 130.066 45.6348 131.096H43.9395C43.748 129.897 43.0531 129.298 41.8545 129.298C41.0798 129.298 40.4896 129.578 40.084 130.139C39.6829 130.695 39.4756 131.513 39.4619 132.593V133.358C39.4619 134.434 39.6875 135.27 40.1387 135.867C40.5944 136.46 41.2256 136.756 42.0322 136.756C42.9163 136.756 43.5452 136.555 43.9189 136.154V134.206H41.8682V132.894H45.6416V136.708ZM51.5039 132.121C51.2852 132.085 51.0596 132.066 50.8271 132.066C50.0661 132.066 49.5534 132.358 49.2891 132.941V138H47.6279V130.604H49.2139L49.2549 131.431C49.6559 130.788 50.2119 130.467 50.9229 130.467C51.1598 130.467 51.3558 130.499 51.5107 130.562L51.5039 132.121ZM55.9238 138.137C54.8711 138.137 54.0166 137.806 53.3604 137.146C52.7087 136.48 52.3828 135.596 52.3828 134.493V134.288C52.3828 133.55 52.5241 132.891 52.8066 132.312C53.0938 131.729 53.4948 131.276 54.0098 130.952C54.5247 130.629 55.099 130.467 55.7324 130.467C56.7396 130.467 57.5166 130.788 58.0635 131.431C58.6149 132.073 58.8906 132.982 58.8906 134.158V134.828H54.0576C54.1077 135.439 54.3105 135.922 54.666 136.277C55.026 136.633 55.4772 136.811 56.0195 136.811C56.7806 136.811 57.4004 136.503 57.8789 135.888L58.7744 136.742C58.4782 137.184 58.0817 137.528 57.585 137.774C57.0928 138.016 56.5391 138.137 55.9238 138.137ZM55.7256 131.8C55.2699 131.8 54.9007 131.959 54.6182 132.278C54.3402 132.597 54.1624 133.042 54.085 133.611H57.25V133.488C57.2135 132.932 57.0654 132.513 56.8057 132.23C56.5459 131.943 56.1859 131.8 55.7256 131.8ZM60.1455 134.247C60.1455 133.099 60.4144 132.183 60.9521 131.499C61.4945 130.811 62.2122 130.467 63.1055 130.467C63.9486 130.467 64.6117 130.761 65.0947 131.349L65.1699 130.604H66.667V137.774C66.667 138.745 66.3639 139.511 65.7578 140.071C65.1562 140.632 64.3428 140.912 63.3174 140.912C62.7751 140.912 62.2441 140.798 61.7246 140.57C61.2096 140.347 60.8177 140.053 60.5488 139.688L61.335 138.69C61.8454 139.297 62.4743 139.6 63.2217 139.6C63.7731 139.6 64.2083 139.449 64.5273 139.148C64.8464 138.852 65.0059 138.415 65.0059 137.836V137.337C64.5273 137.87 63.8893 138.137 63.0918 138.137C62.2259 138.137 61.5173 137.793 60.9658 137.104C60.4189 136.416 60.1455 135.464 60.1455 134.247ZM61.7998 134.391C61.7998 135.133 61.9502 135.719 62.251 136.147C62.5563 136.571 62.9779 136.783 63.5156 136.783C64.1855 136.783 64.6823 136.496 65.0059 135.922V132.668C64.6914 132.107 64.1992 131.827 63.5293 131.827C62.9824 131.827 62.5563 132.044 62.251 132.477C61.9502 132.91 61.7998 133.548 61.7998 134.391ZM74.2559 136.619H78.7744V138H72.5264V128.047H74.2559V136.619ZM79.8789 134.233C79.8789 133.509 80.0225 132.857 80.3096 132.278C80.5967 131.695 81 131.248 81.5195 130.938C82.0391 130.624 82.6361 130.467 83.3105 130.467C84.3086 130.467 85.1175 130.788 85.7373 131.431C86.3617 132.073 86.6989 132.925 86.749 133.987L86.7559 134.377C86.7559 135.106 86.6146 135.758 86.332 136.332C86.054 136.906 85.653 137.351 85.1289 137.665C84.6094 137.979 84.0078 138.137 83.3242 138.137C82.2806 138.137 81.4443 137.79 80.8154 137.098C80.1911 136.4 79.8789 135.473 79.8789 134.315V134.233ZM81.54 134.377C81.54 135.138 81.6973 135.735 82.0117 136.168C82.3262 136.596 82.7637 136.811 83.3242 136.811C83.8848 136.811 84.32 136.592 84.6299 136.154C84.9443 135.717 85.1016 135.076 85.1016 134.233C85.1016 133.486 84.9398 132.894 84.6162 132.456C84.2972 132.019 83.862 131.8 83.3105 131.8C82.7682 131.8 82.3376 132.016 82.0186 132.449C81.6995 132.878 81.54 133.52 81.54 134.377ZM92.2832 132.121C92.0645 132.085 91.8389 132.066 91.6064 132.066C90.8454 132.066 90.3327 132.358 90.0684 132.941V138H88.4072V130.604H89.9932L90.0342 131.431C90.4352 130.788 90.9912 130.467 91.7021 130.467C91.9391 130.467 92.1351 130.499 92.29 130.562L92.2832 132.121ZM96.7031 138.137C95.6504 138.137 94.7959 137.806 94.1396 137.146C93.488 136.48 93.1621 135.596 93.1621 134.493V134.288C93.1621 133.55 93.3034 132.891 93.5859 132.312C93.873 131.729 94.2741 131.276 94.7891 130.952C95.304 130.629 95.8783 130.467 96.5117 130.467C97.5189 130.467 98.2959 130.788 98.8428 131.431C99.3942 132.073 99.6699 132.982 99.6699 134.158V134.828H94.8369C94.887 135.439 95.0898 135.922 95.4453 136.277C95.8053 136.633 96.2565 136.811 96.7988 136.811C97.5599 136.811 98.1797 136.503 98.6582 135.888L99.5537 136.742C99.2575 137.184 98.861 137.528 98.3643 137.774C97.8721 138.016 97.3184 138.137 96.7031 138.137ZM96.5049 131.8C96.0492 131.8 95.68 131.959 95.3975 132.278C95.1195 132.597 94.9417 133.042 94.8643 133.611H98.0293V133.488C97.9928 132.932 97.8447 132.513 97.585 132.23C97.3252 131.943 96.9652 131.8 96.5049 131.8ZM102.777 130.604L102.825 131.376C103.345 130.77 104.056 130.467 104.958 130.467C105.947 130.467 106.624 130.845 106.988 131.602C107.526 130.845 108.283 130.467 109.258 130.467C110.074 130.467 110.68 130.692 111.076 131.144C111.477 131.595 111.682 132.26 111.691 133.14V138H110.03V133.188C110.03 132.718 109.928 132.374 109.723 132.155C109.518 131.937 109.178 131.827 108.704 131.827C108.326 131.827 108.016 131.93 107.774 132.135C107.537 132.335 107.371 132.6 107.275 132.928L107.282 138H105.621V133.133C105.598 132.262 105.154 131.827 104.288 131.827C103.623 131.827 103.151 132.098 102.873 132.641V138H101.212V130.604H102.777ZM115.414 138H113.753V130.604H115.414V138ZM113.65 128.683C113.65 128.427 113.73 128.215 113.89 128.047C114.054 127.878 114.286 127.794 114.587 127.794C114.888 127.794 115.12 127.878 115.284 128.047C115.448 128.215 115.53 128.427 115.53 128.683C115.53 128.933 115.448 129.143 115.284 129.312C115.12 129.476 114.888 129.558 114.587 129.558C114.286 129.558 114.054 129.476 113.89 129.312C113.73 129.143 113.65 128.933 113.65 128.683ZM123.956 134.377C123.956 135.521 123.696 136.435 123.177 137.118C122.657 137.797 121.96 138.137 121.085 138.137C120.274 138.137 119.624 137.87 119.137 137.337V140.844H117.476V130.604H119.007L119.075 131.355C119.563 130.763 120.226 130.467 121.064 130.467C121.967 130.467 122.673 130.804 123.184 131.479C123.699 132.148 123.956 133.08 123.956 134.274V134.377ZM122.302 134.233C122.302 133.495 122.154 132.91 121.857 132.477C121.566 132.044 121.146 131.827 120.6 131.827C119.921 131.827 119.433 132.107 119.137 132.668V135.949C119.438 136.523 119.93 136.811 120.613 136.811C121.142 136.811 121.554 136.599 121.851 136.175C122.151 135.746 122.302 135.099 122.302 134.233ZM129.764 135.99C129.764 135.694 129.641 135.468 129.395 135.313C129.153 135.159 128.75 135.022 128.185 134.903C127.619 134.785 127.148 134.634 126.77 134.452C125.94 134.051 125.525 133.47 125.525 132.709C125.525 132.071 125.794 131.538 126.332 131.109C126.87 130.681 127.553 130.467 128.383 130.467C129.267 130.467 129.98 130.686 130.522 131.123C131.069 131.561 131.343 132.128 131.343 132.825H129.682C129.682 132.506 129.563 132.242 129.326 132.032C129.089 131.818 128.775 131.711 128.383 131.711C128.018 131.711 127.72 131.795 127.487 131.964C127.259 132.132 127.146 132.358 127.146 132.641C127.146 132.896 127.253 133.094 127.467 133.235C127.681 133.377 128.114 133.52 128.766 133.666C129.417 133.807 129.928 133.978 130.297 134.179C130.671 134.375 130.946 134.612 131.124 134.89C131.306 135.168 131.397 135.505 131.397 135.901C131.397 136.567 131.122 137.107 130.57 137.521C130.019 137.932 129.297 138.137 128.403 138.137C127.797 138.137 127.257 138.027 126.783 137.809C126.309 137.59 125.94 137.289 125.676 136.906C125.411 136.523 125.279 136.111 125.279 135.669H126.893C126.915 136.061 127.063 136.364 127.337 136.578C127.61 136.788 127.973 136.893 128.424 136.893C128.861 136.893 129.194 136.811 129.422 136.646C129.65 136.478 129.764 136.259 129.764 135.99Z" fill="#FEFEFE"/>
<path d="M23.3063 154.191H19.8023V156.816H23.898V158H18.3199V149.469H23.857V150.664H19.8023V153.02H23.3063V154.191ZM26.6887 151.66L26.7297 152.393C27.1984 151.826 27.8137 151.543 28.5754 151.543C29.8957 151.543 30.5676 152.299 30.591 153.811V158H29.1672V153.893C29.1672 153.49 29.0793 153.193 28.9035 153.002C28.7316 152.807 28.4484 152.709 28.0539 152.709C27.4797 152.709 27.052 152.969 26.7707 153.488V158H25.3469V151.66H26.6887ZM32.198 154.783C32.198 153.799 32.4285 153.014 32.8895 152.428C33.3543 151.838 33.9695 151.543 34.7352 151.543C35.4578 151.543 36.0262 151.795 36.4402 152.299L36.5047 151.66H37.7879V157.807C37.7879 158.639 37.5281 159.295 37.0086 159.775C36.493 160.256 35.7957 160.496 34.9168 160.496C34.452 160.496 33.9969 160.398 33.5516 160.203C33.1102 160.012 32.7742 159.76 32.5438 159.447L33.2176 158.592C33.6551 159.111 34.1941 159.371 34.8348 159.371C35.3074 159.371 35.6805 159.242 35.9539 158.984C36.2273 158.73 36.3641 158.355 36.3641 157.859V157.432C35.9539 157.889 35.407 158.117 34.7234 158.117C33.9813 158.117 33.3738 157.822 32.9012 157.232C32.4324 156.643 32.198 155.826 32.198 154.783ZM33.616 154.906C33.616 155.543 33.7449 156.045 34.0027 156.412C34.2645 156.775 34.6258 156.957 35.0867 156.957C35.6609 156.957 36.0867 156.711 36.3641 156.219V153.43C36.0945 152.949 35.6727 152.709 35.0984 152.709C34.6297 152.709 34.2645 152.895 34.0027 153.266C33.7449 153.637 33.616 154.184 33.616 154.906ZM41.1703 158H39.7465V151.66H41.1703V158ZM39.6586 150.014C39.6586 149.795 39.727 149.613 39.8637 149.469C40.0043 149.324 40.2035 149.252 40.4613 149.252C40.7191 149.252 40.9184 149.324 41.059 149.469C41.1996 149.613 41.2699 149.795 41.2699 150.014C41.2699 150.229 41.1996 150.408 41.059 150.553C40.9184 150.693 40.7191 150.764 40.4613 150.764C40.2035 150.764 40.0043 150.693 39.8637 150.553C39.727 150.408 39.6586 150.229 39.6586 150.014ZM44.4473 151.66L44.4883 152.393C44.957 151.826 45.5723 151.543 46.334 151.543C47.6543 151.543 48.3262 152.299 48.3496 153.811V158H46.9258V153.893C46.9258 153.49 46.8379 153.193 46.6621 153.002C46.4902 152.807 46.207 152.709 45.8125 152.709C45.2383 152.709 44.8105 152.969 44.5293 153.488V158H43.1055V151.66H44.4473ZM52.9977 158.117C52.0953 158.117 51.3629 157.834 50.8004 157.268C50.2418 156.697 49.9625 155.939 49.9625 154.994V154.818C49.9625 154.186 50.0836 153.621 50.3258 153.125C50.5719 152.625 50.9156 152.236 51.357 151.959C51.7984 151.682 52.2906 151.543 52.8336 151.543C53.6969 151.543 54.3629 151.818 54.8316 152.369C55.3043 152.92 55.5406 153.699 55.5406 154.707V155.281H51.398C51.441 155.805 51.6148 156.219 51.9195 156.523C52.2281 156.828 52.6148 156.98 53.0797 156.98C53.732 156.98 54.2633 156.717 54.6734 156.189L55.441 156.922C55.1871 157.301 54.8473 157.596 54.4215 157.807C53.9996 158.014 53.525 158.117 52.9977 158.117ZM52.8277 152.686C52.4371 152.686 52.1207 152.822 51.8785 153.096C51.6402 153.369 51.4879 153.75 51.4215 154.238H54.1344V154.133C54.1031 153.656 53.9762 153.297 53.7535 153.055C53.5309 152.809 53.2223 152.686 52.8277 152.686ZM59.843 158.117C58.9406 158.117 58.2082 157.834 57.6457 157.268C57.0871 156.697 56.8078 155.939 56.8078 154.994V154.818C56.8078 154.186 56.9289 153.621 57.1711 153.125C57.4172 152.625 57.7609 152.236 58.2023 151.959C58.6438 151.682 59.1359 151.543 59.6789 151.543C60.5422 151.543 61.2082 151.818 61.677 152.369C62.1496 152.92 62.3859 153.699 62.3859 154.707V155.281H58.2434C58.2863 155.805 58.4602 156.219 58.7648 156.523C59.0734 156.828 59.4602 156.98 59.925 156.98C60.5773 156.98 61.1086 156.717 61.5188 156.189L62.2863 156.922C62.0324 157.301 61.6926 157.596 61.2668 157.807C60.8449 158.014 60.3703 158.117 59.843 158.117ZM59.673 152.686C59.2824 152.686 58.966 152.822 58.7238 153.096C58.4855 153.369 58.3332 153.75 58.2668 154.238H60.9797V154.133C60.9484 153.656 60.8215 153.297 60.5988 153.055C60.3762 152.809 60.0676 152.686 59.673 152.686ZM67.2156 152.961C67.0281 152.93 66.8348 152.914 66.6355 152.914C65.9832 152.914 65.5438 153.164 65.3172 153.664V158H63.8934V151.66H65.2527L65.2879 152.369C65.6316 151.818 66.1082 151.543 66.7176 151.543C66.9207 151.543 67.0887 151.57 67.2215 151.625L67.2156 152.961Z" fill="#EF6C00"/>
<path d="M74.25 154.818H71.3906V153.934H74.25V154.818ZM78.8234 154.777C78.8234 153.805 79.0539 153.023 79.5148 152.434C79.9758 151.84 80.5793 151.543 81.3254 151.543C82.0676 151.543 82.6555 151.797 83.0891 152.305V149H84.173V158H83.177L83.1242 157.32C82.6906 157.852 82.0871 158.117 81.3137 158.117C80.5793 158.117 79.9797 157.816 79.5148 157.215C79.0539 156.613 78.8234 155.828 78.8234 154.859V154.777ZM79.9074 154.9C79.9074 155.619 80.0559 156.182 80.3527 156.588C80.6496 156.994 81.0598 157.197 81.5832 157.197C82.2707 157.197 82.7727 156.889 83.0891 156.271V153.359C82.7648 152.762 82.2668 152.463 81.5949 152.463C81.0637 152.463 80.6496 152.668 80.3527 153.078C80.0559 153.488 79.9074 154.096 79.9074 154.9ZM87.4383 158H86.3543V151.66H87.4383V158ZM86.2664 149.979C86.2664 149.803 86.3191 149.654 86.4246 149.533C86.534 149.412 86.6941 149.352 86.9051 149.352C87.116 149.352 87.2762 149.412 87.3856 149.533C87.4949 149.654 87.5496 149.803 87.5496 149.979C87.5496 150.154 87.4949 150.301 87.3856 150.418C87.2762 150.535 87.116 150.594 86.9051 150.594C86.6941 150.594 86.534 150.535 86.4246 150.418C86.3191 150.301 86.2664 150.154 86.2664 149.979ZM93.2699 156.318C93.2699 156.025 93.1586 155.799 92.9359 155.639C92.7172 155.475 92.3324 155.334 91.7816 155.217C91.2348 155.1 90.7992 154.959 90.475 154.795C90.1547 154.631 89.9164 154.436 89.7602 154.209C89.6078 153.982 89.5316 153.713 89.5316 153.4C89.5316 152.881 89.7504 152.441 90.1879 152.082C90.6293 151.723 91.1918 151.543 91.8754 151.543C92.5941 151.543 93.1762 151.729 93.6215 152.1C94.0707 152.471 94.2953 152.945 94.2953 153.523H93.2055C93.2055 153.227 93.0785 152.971 92.8246 152.756C92.5746 152.541 92.2582 152.434 91.8754 152.434C91.4809 152.434 91.1723 152.52 90.9496 152.691C90.727 152.863 90.6156 153.088 90.6156 153.365C90.6156 153.627 90.7191 153.824 90.9262 153.957C91.1332 154.09 91.5062 154.217 92.0453 154.338C92.5883 154.459 93.0277 154.604 93.3637 154.771C93.6996 154.939 93.9477 155.143 94.1078 155.381C94.2719 155.615 94.3539 155.902 94.3539 156.242C94.3539 156.809 94.1273 157.264 93.6742 157.607C93.2211 157.947 92.6332 158.117 91.9105 158.117C91.4027 158.117 90.9535 158.027 90.5629 157.848C90.1723 157.668 89.8656 157.418 89.643 157.098C89.4242 156.773 89.3148 156.424 89.3148 156.049H90.3988C90.4184 156.412 90.5629 156.701 90.8324 156.916C91.1059 157.127 91.4652 157.232 91.9105 157.232C92.3207 157.232 92.6488 157.15 92.8949 156.986C93.1449 156.818 93.2699 156.596 93.2699 156.318ZM97.6367 150.125V151.66H98.8203V152.498H97.6367V156.43C97.6367 156.684 97.6895 156.875 97.7949 157.004C97.9004 157.129 98.0801 157.191 98.334 157.191C98.459 157.191 98.6309 157.168 98.8496 157.121V158C98.5645 158.078 98.2871 158.117 98.0176 158.117C97.5332 158.117 97.168 157.971 96.9219 157.678C96.6758 157.385 96.5527 156.969 96.5527 156.43V152.498H95.3984V151.66H96.5527V150.125H97.6367ZM103.556 152.633C103.392 152.605 103.214 152.592 103.023 152.592C102.312 152.592 101.83 152.895 101.576 153.5V158H100.492V151.66H101.546L101.564 152.393C101.92 151.826 102.423 151.543 103.076 151.543C103.287 151.543 103.447 151.57 103.556 151.625V152.633ZM104.554 154.771C104.554 154.15 104.675 153.592 104.917 153.096C105.163 152.6 105.503 152.217 105.937 151.947C106.374 151.678 106.872 151.543 107.431 151.543C108.294 151.543 108.991 151.842 109.523 152.439C110.058 153.037 110.325 153.832 110.325 154.824V154.9C110.325 155.518 110.206 156.072 109.968 156.564C109.734 157.053 109.396 157.434 108.954 157.707C108.517 157.98 108.013 158.117 107.443 158.117C106.583 158.117 105.886 157.818 105.351 157.221C104.82 156.623 104.554 155.832 104.554 154.848V154.771ZM105.644 154.9C105.644 155.604 105.806 156.168 106.13 156.594C106.458 157.02 106.896 157.232 107.443 157.232C107.993 157.232 108.431 157.018 108.755 156.588C109.079 156.154 109.241 155.549 109.241 154.771C109.241 154.076 109.075 153.514 108.743 153.084C108.415 152.65 107.978 152.434 107.431 152.434C106.896 152.434 106.464 152.646 106.136 153.072C105.808 153.498 105.644 154.107 105.644 154.9ZM112.108 157.432C112.108 157.244 112.163 157.088 112.272 156.963C112.386 156.838 112.554 156.775 112.776 156.775C112.999 156.775 113.167 156.838 113.28 156.963C113.397 157.088 113.456 157.244 113.456 157.432C113.456 157.611 113.397 157.762 113.28 157.883C113.167 158.004 112.999 158.064 112.776 158.064C112.554 158.064 112.386 158.004 112.272 157.883C112.163 157.762 112.108 157.611 112.108 157.432ZM118.28 158.117C117.42 158.117 116.721 157.836 116.182 157.273C115.643 156.707 115.373 155.951 115.373 155.006V154.807C115.373 154.178 115.493 153.617 115.731 153.125C115.973 152.629 116.309 152.242 116.739 151.965C117.172 151.684 117.641 151.543 118.145 151.543C118.969 151.543 119.61 151.814 120.067 152.357C120.524 152.9 120.752 153.678 120.752 154.689V155.141H116.457C116.473 155.766 116.655 156.271 117.002 156.658C117.354 157.041 117.799 157.232 118.338 157.232C118.721 157.232 119.045 157.154 119.311 156.998C119.577 156.842 119.809 156.635 120.008 156.377L120.67 156.893C120.139 157.709 119.342 158.117 118.28 158.117ZM118.145 152.434C117.707 152.434 117.34 152.594 117.043 152.914C116.746 153.23 116.563 153.676 116.493 154.25H119.668V154.168C119.637 153.617 119.489 153.191 119.223 152.891C118.957 152.586 118.598 152.434 118.145 152.434ZM123.438 151.66L123.473 152.457C123.957 151.848 124.59 151.543 125.371 151.543C126.711 151.543 127.387 152.299 127.398 153.811V158H126.314V153.805C126.311 153.348 126.205 153.01 125.998 152.791C125.795 152.572 125.477 152.463 125.043 152.463C124.691 152.463 124.383 152.557 124.117 152.744C123.852 152.932 123.645 153.178 123.496 153.482V158H122.412V151.66H123.438ZM132.064 158.117C131.205 158.117 130.505 157.836 129.966 157.273C129.427 156.707 129.158 155.951 129.158 155.006V154.807C129.158 154.178 129.277 153.617 129.515 153.125C129.757 152.629 130.093 152.242 130.523 151.965C130.957 151.684 131.425 151.543 131.929 151.543C132.754 151.543 133.394 151.814 133.851 152.357C134.308 152.9 134.537 153.678 134.537 154.689V155.141H130.242C130.257 155.766 130.439 156.271 130.787 156.658C131.138 157.041 131.584 157.232 132.123 157.232C132.505 157.232 132.83 157.154 133.095 156.998C133.361 156.842 133.593 156.635 133.793 156.377L134.455 156.893C133.923 157.709 133.127 158.117 132.064 158.117ZM131.929 152.434C131.492 152.434 131.125 152.594 130.828 152.914C130.531 153.23 130.347 153.676 130.277 154.25H133.453V154.168C133.421 153.617 133.273 153.191 133.007 152.891C132.742 152.586 132.382 152.434 131.929 152.434ZM139.261 152.633C139.097 152.605 138.919 152.592 138.728 152.592C138.017 152.592 137.534 152.895 137.28 153.5V158H136.196V151.66H137.251L137.269 152.393C137.624 151.826 138.128 151.543 138.78 151.543C138.991 151.543 139.152 151.57 139.261 151.625V152.633ZM140.288 154.777C140.288 153.789 140.516 153.004 140.973 152.422C141.43 151.836 142.036 151.543 142.79 151.543C143.563 151.543 144.167 151.816 144.6 152.363L144.653 151.66H145.643V157.848C145.643 158.668 145.399 159.314 144.911 159.787C144.427 160.26 143.774 160.496 142.954 160.496C142.497 160.496 142.05 160.398 141.612 160.203C141.175 160.008 140.841 159.74 140.61 159.4L141.173 158.75C141.638 159.324 142.206 159.611 142.878 159.611C143.405 159.611 143.815 159.463 144.108 159.166C144.405 158.869 144.554 158.451 144.554 157.912V157.367C144.12 157.867 143.528 158.117 142.778 158.117C142.036 158.117 141.434 157.818 140.973 157.221C140.516 156.623 140.288 155.809 140.288 154.777ZM141.378 154.9C141.378 155.615 141.524 156.178 141.817 156.588C142.11 156.994 142.52 157.197 143.048 157.197C143.731 157.197 144.233 156.887 144.554 156.266V153.371C144.221 152.766 143.723 152.463 143.059 152.463C142.532 152.463 142.12 152.668 141.823 153.078C141.526 153.488 141.378 154.096 141.378 154.9ZM149.758 156.412L151.235 151.66H152.395L149.846 158.979C149.452 160.033 148.825 160.561 147.965 160.561L147.76 160.543L147.356 160.467V159.588L147.649 159.611C148.016 159.611 148.301 159.537 148.504 159.389C148.711 159.24 148.881 158.969 149.014 158.574L149.254 157.93L146.993 151.66H148.176L149.758 156.412Z" fill="#707687"/>
<rect x="53" y="20" width="65" height="65" rx="32.5" fill="#FFCCBC"/>
<circle cx="85.5" cy="52.5" r="32.5" fill="url(#pattern0)"/>
<rect x="64" y="90" width="42" height="18" rx="9" fill="#F57C00"/>
<path d="M74.7646 102C74.7126 101.899 74.667 101.735 74.6279 101.507C74.2503 101.901 73.7881 102.098 73.2412 102.098C72.7106 102.098 72.2777 101.946 71.9424 101.644C71.6071 101.341 71.4395 100.966 71.4395 100.521C71.4395 99.9574 71.6478 99.526 72.0645 99.2266C72.4844 98.9238 73.0833 98.7725 73.8613 98.7725H74.5889V98.4258C74.5889 98.1523 74.5124 97.9342 74.3594 97.7715C74.2064 97.6055 73.9736 97.5225 73.6611 97.5225C73.391 97.5225 73.1696 97.5908 72.9971 97.7275C72.8245 97.861 72.7383 98.0319 72.7383 98.2402H71.5518C71.5518 97.9505 71.6478 97.6803 71.8398 97.4297C72.0319 97.1758 72.2923 96.9772 72.6211 96.834C72.9531 96.6908 73.3226 96.6191 73.7295 96.6191C74.348 96.6191 74.8411 96.7754 75.209 97.0879C75.5768 97.3971 75.7656 97.8333 75.7754 98.3965V100.779C75.7754 101.255 75.8421 101.634 75.9756 101.917V102H74.7646ZM73.4609 101.146C73.6953 101.146 73.915 101.089 74.1201 100.975C74.3285 100.861 74.4847 100.708 74.5889 100.516V99.5195H73.9492C73.5098 99.5195 73.1794 99.596 72.958 99.749C72.7367 99.902 72.626 100.118 72.626 100.398C72.626 100.626 72.7008 100.809 72.8506 100.945C73.0036 101.079 73.207 101.146 73.4609 101.146ZM76.7959 99.3193C76.7959 98.5055 76.9847 97.8529 77.3623 97.3613C77.7399 96.8665 78.2461 96.6191 78.8809 96.6191C79.4408 96.6191 79.8932 96.8145 80.2383 97.2051V94.5H81.4248V102H80.3506L80.292 101.453C79.9372 101.883 79.4635 102.098 78.8711 102.098C78.2526 102.098 77.7513 101.849 77.3672 101.351C76.9863 100.853 76.7959 100.175 76.7959 99.3193ZM77.9824 99.4219C77.9824 99.959 78.085 100.379 78.29 100.682C78.4984 100.981 78.793 101.131 79.1738 101.131C79.6589 101.131 80.0137 100.914 80.2383 100.481V98.2256C80.0202 97.8024 79.6686 97.5908 79.1836 97.5908C78.7995 97.5908 78.5033 97.7438 78.2949 98.0498C78.0866 98.3525 77.9824 98.8099 77.9824 99.4219ZM83.7783 96.7168L83.8125 97.2686C84.1836 96.8356 84.6914 96.6191 85.3359 96.6191C86.0423 96.6191 86.5257 96.8893 86.7861 97.4297C87.1702 96.8893 87.7106 96.6191 88.4072 96.6191C88.9899 96.6191 89.4229 96.7803 89.7061 97.1025C89.9925 97.4248 90.139 97.9001 90.1455 98.5283V102H88.959V98.5625C88.959 98.2272 88.8857 97.9814 88.7393 97.8252C88.5928 97.6689 88.3503 97.5908 88.0117 97.5908C87.7415 97.5908 87.5202 97.6641 87.3477 97.8105C87.1784 97.9538 87.0596 98.1426 86.9912 98.377L86.9961 102H85.8096V98.5234C85.7933 97.9017 85.4759 97.5908 84.8574 97.5908C84.3822 97.5908 84.0452 97.7845 83.8467 98.1719V102H82.6602V96.7168H83.7783ZM92.626 102H91.4395V96.7168H92.626V102ZM91.3662 95.3447C91.3662 95.1624 91.4232 95.0111 91.5371 94.8906C91.6543 94.7702 91.8203 94.71 92.0352 94.71C92.25 94.71 92.416 94.7702 92.5332 94.8906C92.6504 95.0111 92.709 95.1624 92.709 95.3447C92.709 95.5238 92.6504 95.6735 92.5332 95.7939C92.416 95.9111 92.25 95.9697 92.0352 95.9697C91.8203 95.9697 91.6543 95.9111 91.5371 95.7939C91.4232 95.6735 91.3662 95.5238 91.3662 95.3447ZM95.0234 96.7168L95.0576 97.3271C95.4482 96.8551 95.9609 96.6191 96.5957 96.6191C97.696 96.6191 98.2559 97.249 98.2754 98.5088V102H97.0889V98.5771C97.0889 98.2419 97.0156 97.9945 96.8691 97.835C96.7259 97.6722 96.4899 97.5908 96.1611 97.5908C95.6826 97.5908 95.3262 97.8073 95.0918 98.2402V102H93.9053V96.7168H95.0234Z" fill="#FEFEFE"/>
</g>
<defs>
<pattern id="pattern0" patternContentUnits="objectBoundingBox" width="1" height="1">
<use xlink:href="#image0" transform="translate(-0.71126 -0.189818) scale(0.000821429)"/>
</pattern>
<linearGradient id="paint0_linear" x1="-25.5" y1="-26.5" x2="59.5" y2="64" gradientUnits="userSpaceOnUse">
<stop stop-color="#FAD961"/>
<stop offset="1" stop-color="#F76B1C"/>
</linearGradient>
<linearGradient id="paint1_linear" x1="-25.5" y1="-26.5" x2="59.5" y2="64" gradientUnits="userSpaceOnUse">
<stop stop-color="#FAD961"/>
<stop offset="1" stop-color="#F76B1C"/>
</linearGradient>
<clipPath id="clip0">
<rect width="170" height="177" rx="4" fill="white"/>
</clipPath>

</defs>
</svg>
