<svg width="138" height="138" viewBox="0 0 138 138" fill="none" xmlns="http://www.w3.org/2000/svg">
<g clip-path="url(#clip0)">
<path d="M49.9655 80.8966C67.0482 80.8966 80.8965 67.0483 80.8965 49.9656C80.8965 32.8829 67.0482 19.0345 49.9655 19.0345C32.8828 19.0345 19.0344 32.8829 19.0344 49.9656C19.0542 67.0402 32.8909 80.8769 49.9655 80.8966ZM49.9655 23.7932C64.4202 23.7932 76.1379 35.5108 76.1379 49.9656C76.1379 64.4204 64.4202 76.138 49.9655 76.138C35.5107 76.138 23.793 64.4204 23.793 49.9656C23.8105 35.5178 35.5177 23.8106 49.9655 23.7932Z" fill="#00B956"/>
<path d="M49.9655 14.2759C51.2795 14.2759 52.3448 13.2105 52.3448 11.8966V2.37931C52.3448 1.06535 51.2795 0 49.9655 0C48.6515 0 47.5862 1.06535 47.5862 2.37931V11.8966C47.5862 13.2105 48.6515 14.2759 49.9655 14.2759Z" fill="#00B956"/>
<path d="M11.8966 47.5863H2.37931C1.06535 47.5863 0 48.6516 0 49.9656C0 51.2796 1.06535 52.3449 2.37931 52.3449H11.8966C13.2105 52.3449 14.2759 51.2796 14.2759 49.9656C14.2759 48.6516 13.2105 47.5863 11.8966 47.5863Z" fill="#00B956"/>
<path d="M88.0341 52.345H97.5513C98.8653 52.345 99.9306 51.2796 99.9306 49.9657C99.9306 48.6517 98.8653 47.5864 97.5513 47.5864H88.0341C86.7201 47.5864 85.6548 48.6517 85.6548 49.9657C85.6548 51.2796 86.7201 52.345 88.0341 52.345Z" fill="#00B956"/>
<path d="M76.8823 25.4281C77.5143 25.4293 78.1207 25.1783 78.5668 24.731L85.2958 17.9997C86.1974 17.0668 86.1846 15.5821 85.2668 14.6643C84.349 13.7465 82.8642 13.7337 81.9313 14.6352L75.2 21.3642C74.5181 22.045 74.3136 23.0685 74.6819 23.9596C75.0502 24.8495 75.9192 25.4293 76.8823 25.4281Z" fill="#00B956"/>
<path d="M24.7307 78.5671C25.6601 77.6376 25.6601 76.1308 24.7307 75.2002C23.8013 74.2708 22.2933 74.2708 21.3639 75.2002L14.6349 81.9339C14.0168 82.531 13.7682 83.4163 13.9866 84.2481C14.2038 85.08 14.8533 85.7294 15.6851 85.9478C16.5169 86.165 17.4022 85.9164 17.9994 85.2984L24.7307 78.5671Z" fill="#00B956"/>
<path d="M21.3638 24.7308C22.2933 25.6602 23.8012 25.6602 24.7307 24.7308C25.6601 23.8014 25.6601 22.2934 24.7307 21.364L17.9994 14.635C17.0664 13.7334 15.5817 13.7462 14.6639 14.664C13.7461 15.5818 13.7333 17.0666 14.6349 17.9995L21.3638 24.7308Z" fill="#00B956"/>
<path d="M78.5668 75.2002C77.6374 74.2708 76.1294 74.2708 75.2 75.2002C74.2706 76.1308 74.2706 77.6376 75.2 78.567L81.9313 85.2983C82.8642 86.1998 84.3489 86.1871 85.2667 85.2693C86.1845 84.3515 86.1973 82.8679 85.2958 81.9338L78.5668 75.2002Z" fill="#00B956"/>
<path d="M137.879 125.351L130.741 103.938C130.417 102.965 129.507 102.31 128.482 102.31H95.1722C94.1475 102.31 93.2378 102.965 92.9137 103.938L85.7758 125.351C85.5342 126.078 85.6561 126.875 86.1034 127.495C86.5507 128.115 87.2698 128.482 88.0343 128.482H104.689V133.241H26.1725C23.5446 133.241 21.4139 131.11 21.4139 128.482C21.4139 125.855 23.5446 123.724 26.1725 123.724H40.4483C47.0157 123.716 52.3366 118.395 52.3448 111.827V88.0343C52.3448 86.7204 51.2794 85.655 49.9655 85.655C48.6515 85.655 47.5862 86.7204 47.5862 88.0343V111.827C47.5862 115.769 44.3902 118.965 40.4483 118.965H26.1725C20.9166 118.965 16.6553 123.227 16.6553 128.482C16.6553 133.739 20.9166 138 26.1725 138H123.724C125.038 138 126.103 136.934 126.103 135.62C126.103 134.306 125.038 133.241 123.724 133.241H118.965V128.482H135.62C136.385 128.482 137.104 128.115 137.551 127.495C137.998 126.875 138.12 126.078 137.879 125.351ZM128.362 111.827H119.771L119.244 107.069H126.766L128.362 111.827ZM116.315 123.724H107.348L108.14 116.586H115.515L116.315 123.724ZM108.677 111.827L109.205 107.069H114.463L114.992 111.827H108.677ZM104.419 107.069L103.89 111.827H95.3011L96.8881 107.069H104.419ZM93.7118 116.586H103.352L102.558 123.724H91.3349L93.7118 116.586ZM109.448 133.241V128.482H114.207V133.241H109.448ZM121.106 123.724L120.312 116.586H129.953L132.332 123.724H121.106Z" fill="#00B956"/>
</g>
<defs>
<clipPath id="clip0">
<rect width="138" height="138" fill="white"/>
</clipPath>
</defs>
</svg>
