<svg width="138" height="138" viewBox="0 0 138 138" fill="none" xmlns="http://www.w3.org/2000/svg">
<g clip-path="url(#clip0)">
<path d="M32.1998 50.5983C42.3616 50.5983 50.5993 42.3606 50.5993 32.1988C50.5993 22.037 42.3613 13.7996 32.1998 13.7996C22.0382 13.7996 13.8003 22.0372 13.8003 32.199C13.8116 42.356 22.0426 50.5869 32.1998 50.5983ZM32.1998 18.3995C39.8211 18.3995 45.9993 24.5778 45.9993 32.199C45.9993 39.8203 39.8211 45.9986 32.1998 45.9986C24.5785 45.9986 18.4002 39.8203 18.4002 32.199C18.4078 24.5807 24.5815 18.407 32.1998 18.3995Z" fill="#00B956"/>
<path d="M29.8994 2.29983V6.89977C29.8994 8.17003 30.9293 9.1996 32.1993 9.1996C33.4695 9.1996 34.4991 8.16976 34.4991 6.89977V2.29983C34.4991 1.02958 33.4692 0 32.1993 0C30.9293 0 29.8994 1.02984 29.8994 2.29983Z" fill="#00B956"/>
<path d="M29.8994 57.4982V62.0981C29.8994 63.3684 30.9293 64.398 32.1993 64.398C33.4695 64.398 34.4991 63.3681 34.4991 62.0981V57.4982C34.4991 56.2279 33.4692 55.1984 32.1993 55.1984C30.9293 55.1984 29.8994 56.2282 29.8994 57.4982Z" fill="#00B956"/>
<path d="M64.3983 32.1988C64.3983 30.9285 63.3685 29.8989 62.0985 29.8989H57.4986C56.2283 29.8989 55.1987 30.9288 55.1987 32.1988C55.1987 33.469 56.2283 34.4986 57.4986 34.4986H62.0985C63.3688 34.4986 64.3983 33.4687 64.3983 32.1988Z" fill="#00B956"/>
<path d="M2.30032 34.4986H6.90026C8.17052 34.4986 9.20009 33.4687 9.20009 32.1988C9.20009 30.9285 8.17025 29.8989 6.90026 29.8989H2.30032C1.03006 29.8989 0.000488281 30.9288 0.000488281 32.1988C0.000488281 33.4687 1.03006 34.4986 2.30032 34.4986Z" fill="#00B956"/>
<path d="M9.14017 42.8567L5.15448 45.1565C4.43701 45.5643 3.9931 46.3254 3.99122 47.1507C3.98933 47.976 4.43 48.739 5.14558 49.15C5.86116 49.561 6.74223 49.5573 7.45431 49.1398L11.44 46.8399C12.1575 46.4322 12.6014 45.671 12.6033 44.8457C12.6052 44.0205 12.1645 43.2574 11.4489 42.8464C10.7333 42.4354 9.85225 42.4392 9.14017 42.8567Z" fill="#00B956"/>
<path d="M54.111 21.8493C54.5147 21.8501 54.9117 21.7439 55.261 21.5412L59.2467 19.2414C59.9642 18.8336 60.4081 18.0724 60.41 17.2472C60.4118 16.4219 59.9712 15.6589 59.2556 15.2479C58.54 14.8368 57.6589 14.8406 56.9469 15.2581L52.9612 17.5579C52.0596 18.0784 51.6203 19.1395 51.8896 20.1448C52.1588 21.1499 53.0701 21.849 54.111 21.8493Z" fill="#00B956"/>
<path d="M17.5581 11.4399C18.1974 12.5306 19.5973 12.9007 20.6921 12.2684C21.7869 11.6364 22.1663 10.2389 21.5413 9.13979L19.2415 5.15625C18.8337 4.43878 18.0726 3.99487 17.2473 3.99299C16.422 3.9911 15.659 4.43177 15.248 5.14735C14.837 5.86293 14.8407 6.744 15.2582 7.45608L17.5581 11.4399Z" fill="#00B956"/>
<path d="M43.6991 52.1164C42.5992 52.7514 42.2222 54.158 42.8574 55.2582L45.1573 59.2417C45.565 59.9592 46.3262 60.4031 47.1515 60.405C47.9767 60.4069 48.7398 59.9662 49.1508 59.2506C49.5618 58.5351 49.558 57.654 49.1405 56.9419L46.8407 52.9584C46.2057 51.8582 44.7993 51.4814 43.6991 52.1164Z" fill="#00B956"/>
<path d="M52.9581 46.84L56.9438 49.1399C57.6559 49.5573 58.5369 49.5611 59.2525 49.1501C59.9681 48.7391 60.4088 47.9761 60.4069 47.1508C60.405 46.3255 59.9611 45.5644 59.2436 45.1566L55.2579 42.8568C54.1588 42.232 52.7616 42.6112 52.1293 43.706C51.497 44.8008 51.8676 46.2007 52.9581 46.84Z" fill="#00B956"/>
<path d="M5.15448 19.241L9.14017 21.5409C9.85225 21.9583 10.7333 21.9621 11.4489 21.5511C12.1645 21.1401 12.6052 20.3771 12.6033 19.5518C12.6014 18.7265 12.1575 17.9654 11.44 17.5576L7.45431 15.2575C6.74223 14.84 5.86116 14.8362 5.14558 15.2472C4.43 15.6583 3.98933 16.4213 3.99122 17.2466C3.9931 18.0721 4.43701 18.833 5.15448 19.241Z" fill="#00B956"/>
<path d="M45.1572 5.15655L42.8573 9.14009C42.4398 9.85217 42.4361 10.7332 42.8471 11.4488C43.2581 12.1644 44.0211 12.6051 44.8464 12.6032C45.6717 12.6013 46.4328 12.1574 46.8406 11.4399L49.1404 7.45638C49.5579 6.74431 49.5617 5.86324 49.1507 5.14766C48.7397 4.43207 47.9766 3.99141 47.1514 3.99329C46.3264 3.99518 45.5652 4.43908 45.1572 5.15655Z" fill="#00B956"/>
<path d="M17.5581 52.9578L15.2582 56.9414C14.8407 57.6535 14.837 58.5345 15.248 59.2501C15.659 59.9657 16.422 60.4064 17.2473 60.4045C18.0726 60.4026 18.8337 59.9587 19.2415 59.2412L21.5413 55.2577C22.1661 54.1586 21.7869 52.7614 20.6921 52.1291C19.5973 51.497 18.1976 51.8671 17.5581 52.9578Z" fill="#00B956"/>
<path d="M133.396 121.896H128.796V119.596C128.78 115.414 125.946 111.769 121.896 110.723V87.1049L136.335 75.1753C137.272 74.4036 137.863 73.291 137.979 72.0828C138.094 70.8745 137.723 69.67 136.949 68.7353L134.056 65.2347C133.285 64.2976 132.172 63.7063 130.963 63.5915C129.755 63.4767 128.55 63.8478 127.616 64.6229L89.0396 96.5023C88.1027 97.2739 87.5114 98.3865 87.396 99.5948C87.281 100.803 87.6513 102.008 88.4254 102.942L91.3071 106.436C92.9172 108.381 95.7992 108.655 97.7468 107.047L108.096 98.5032V110.723C104.047 111.768 101.212 115.414 101.197 119.596V121.896H89.7158V119.596C89.7002 115.414 86.8654 111.769 82.8161 110.723V87.1049L97.2549 75.1753C98.1918 74.4036 98.7831 73.291 98.8985 72.0828C99.0135 70.8745 98.6432 69.67 97.8691 68.7353L94.9874 65.2418C94.216 64.3046 93.1029 63.7133 91.8946 63.5985C90.6861 63.4837 89.4819 63.8548 88.5477 64.6299L49.9594 96.5023C49.0225 97.2739 48.4312 98.3865 48.3159 99.5948C48.2005 100.803 48.5711 102.008 49.3452 102.942L52.2361 106.443C53.8462 108.388 56.7282 108.662 58.6758 107.054L69.0254 98.5078V110.727C64.9758 111.773 62.1413 115.418 62.1256 119.601V121.9H50.6259V119.596C50.6103 115.414 47.7757 111.769 43.7262 110.723V87.1049L58.165 75.1753C59.1019 74.4036 59.6932 73.291 59.8086 72.0828C59.9239 70.8745 59.5533 69.67 58.7793 68.7353L55.8884 65.2418C55.117 64.3046 54.0039 63.7133 52.7956 63.5985C51.5871 63.4837 50.3828 63.8548 49.4487 64.6299L10.8606 96.5023C9.92376 97.2739 9.33243 98.3865 9.21707 99.5948C9.10199 100.803 9.47231 102.008 10.2464 102.942L13.1373 106.443C14.7474 108.388 17.6294 108.662 19.577 107.054L29.9266 98.5078V110.727C25.8771 111.773 23.0425 115.418 23.0269 119.601V121.9H4.60042C2.05991 121.9 0.000488281 123.96 0.000488281 126.5V133.4C0.000488281 135.941 2.05991 138 4.60042 138H133.396C135.937 138 137.996 135.941 137.996 133.4V126.496C137.996 123.955 135.936 121.896 133.396 121.896ZM94.8446 103.496L91.9674 100.047L130.51 68.1696L133.408 71.6195L94.8446 103.496ZM117.297 90.9043V110.396H112.697V94.7038L117.297 90.9043ZM105.797 119.596C105.797 117.055 107.856 114.996 110.397 114.996H119.596C122.137 114.996 124.196 117.055 124.196 119.596V121.896H105.797V119.596ZM55.7644 103.496L52.8985 100.047L91.4408 68.1696L94.3387 71.6195L55.7644 103.496ZM78.2161 90.9159V110.396H73.6162V94.7038L78.2161 90.9159ZM66.7167 119.596C66.7167 117.055 68.7761 114.996 71.3166 114.996H80.5162C83.0567 114.996 85.1162 117.055 85.1162 119.596V121.896H66.7167V119.596ZM16.6656 103.496L13.7998 100.047L52.342 68.1696L55.2399 71.6195L16.6656 103.496ZM39.1176 90.9159V110.396H34.5177V94.7038L39.1176 90.9159ZM27.6179 119.596C27.6179 117.055 29.6773 114.996 32.2178 114.996H41.4174C43.958 114.996 46.0174 117.055 46.0174 119.596V121.896H27.6179V119.596ZM133.396 133.395H4.60042V126.496H133.396V133.395H133.396Z" fill="#00B956"/>
</g>
<defs>
<clipPath id="clip0">
<rect width="138" height="138" fill="white"/>
</clipPath>
</defs>
</svg>
