<svg width="138" height="138" viewBox="0 0 138 138" fill="none" xmlns="http://www.w3.org/2000/svg">
<g clip-path="url(#clip0)">
<path d="M110.252 85.046C110.252 86.3156 111.281 87.3444 112.55 87.3444C113.819 87.3444 114.848 86.3153 114.848 85.046C114.848 78.0261 107.815 72.2271 98.7587 71.3743V68.9562C98.7587 67.6866 97.7295 66.6578 96.4602 66.6578C95.191 66.6578 94.1618 67.6869 94.1618 68.9562V71.3743C85.1056 72.2271 78.072 78.0264 78.072 85.046C78.072 92.0659 85.1056 97.8649 94.1618 98.7177V117.081C87.7258 116.327 82.6692 112.495 82.6692 108.031C82.6692 106.762 81.64 105.733 80.3707 105.733C79.1012 105.733 78.0723 106.762 78.0723 108.031C78.0723 115.051 85.1059 120.85 94.1621 121.703V124.121C94.1621 125.391 95.1912 126.42 96.4605 126.42C97.7298 126.42 98.7589 125.39 98.7589 124.121V121.703C107.815 120.85 114.849 115.051 114.849 108.031C114.849 101.012 107.815 95.2124 98.7589 94.3596V75.9966C105.195 76.7505 110.252 80.5822 110.252 85.046ZM82.6692 85.046C82.6692 80.5822 87.7261 76.7505 94.1618 75.9966V94.0954C87.7261 93.3415 82.6692 89.5098 82.6692 85.046ZM110.252 108.032C110.252 112.495 105.195 116.327 98.7589 117.081V98.9822C105.195 99.7362 110.252 103.568 110.252 108.032Z" fill="#00B956"/>
<path d="M136.311 77.6059C137.546 75.9135 137.941 73.7509 137.387 71.7307L119.203 5.0728C118.375 2.08099 115.655 0.00712011 112.551 0H25.2061C22.1012 0.00684626 19.3807 2.08071 18.5518 5.0728L0.381837 71.7307C-0.186402 73.8037 0.244638 76.023 1.54734 77.7327C2.85005 79.4423 4.87545 80.4468 7.02462 80.4493H9.11629V82.7477C9.11629 87.8254 13.2325 91.9419 18.3105 91.9419V103.435C18.3182 109.779 23.4592 114.92 29.8032 114.927H59.4544C69.4337 135.183 93.8234 143.68 114.228 134.008C134.633 124.337 143.498 100.079 134.137 79.5297C134.99 79.0499 135.731 78.3943 136.311 77.6059ZM5.19037 74.9487C4.75523 74.3761 4.6131 73.6326 4.80644 72.9397L22.9857 6.28185C23.262 5.28449 24.1709 4.59466 25.2061 4.59712H112.551C113.585 4.59576 114.493 5.28531 114.769 6.28185L132.951 72.9397C133.247 73.8949 132.847 74.9284 131.985 75.4359C130.343 72.6771 128.388 70.1172 126.159 67.807C126.352 67.0377 126.349 66.2321 126.147 65.4647L111.712 12.5982C111.174 10.5953 109.361 9.20082 107.287 9.19398H30.4698C28.3984 9.19945 26.5866 10.5898 26.0452 12.5889L11.6078 65.4557C11.2329 66.8395 11.5251 68.3191 12.3978 69.4564C13.2706 70.5937 14.624 71.2589 16.0578 71.255H63.7848C62.6507 72.7174 61.615 74.2529 60.6839 75.8521H7.02462C6.30549 75.8543 5.62689 75.5202 5.19037 74.9487ZM71.1771 29.8812H90.6528L92.5834 45.971H71.1771V29.8812ZM66.5799 45.971H45.1736L47.1043 29.8812H66.5799V45.971ZM95.2819 29.8812H111.666L116.058 45.971H97.2104L95.2819 29.8812ZM94.7301 25.284L93.351 13.7914H107.276L110.411 25.284H94.7301ZM88.7218 13.7914L90.1009 25.284H71.1771V13.7914H88.7218ZM66.5799 25.284H47.6561L49.0352 13.7914H66.5799V25.284ZM43.0266 25.284H27.3345L30.4698 13.7914H44.4057L43.0266 25.284ZM26.0794 29.8812H42.4748L40.5442 45.971H21.6962L26.0794 29.8812ZM20.4367 50.5681H39.9926L38.0617 66.6579H16.0463L20.4367 50.5681ZM44.6218 50.5681H66.5799V66.6579H42.6912L44.6218 50.5681ZM71.1771 50.5681H93.1352L93.7029 55.3054C85.5079 55.8435 77.6621 58.8241 71.1771 63.863V50.5681ZM98.3274 55.2594L97.7644 50.5681H117.313L120.738 63.1091C114.204 58.3435 106.408 55.613 98.3274 55.2594ZM13.7134 82.7477V80.4493H27.5048V82.7477C27.5048 85.2866 25.4465 87.3448 22.9077 87.3448H18.3105C15.7717 87.3448 13.7134 85.2866 13.7134 82.7477ZM29.8032 110.33C25.9948 110.33 22.9077 107.243 22.9077 103.435V91.9419C27.9854 91.9419 32.1019 87.8257 32.1019 82.7477V80.4493H58.3444C54.3145 89.9489 54.0132 100.619 57.501 110.33H29.8032V110.33ZM96.4611 133.316C76.1499 133.316 59.6844 116.85 59.6844 96.5391C59.6844 76.2279 76.1499 59.7623 96.4611 59.7623C116.772 59.7623 133.238 76.2279 133.238 96.5391C133.214 116.84 116.762 133.292 96.4611 133.316Z" fill="#00B956"/>
</g>
<defs>
<clipPath id="clip0">
<rect width="138" height="138" fill="white"/>
</clipPath>
</defs>
</svg>
