<?xml version="1.0" encoding="utf-8"?>
<!DOCTYPE svg PUBLIC "-//W3C//DTD SVG 20010904//EN" "http://www.w3.org/TR/2001/REC-SVG-20010904/DTD/svg10.dtd">
<svg version="1.0" xmlns="http://www.w3.org/2000/svg" width="608px" height="715px" viewBox="0 0 608 715" preserveAspectRatio="xMidYMid meet">
 <g fill="#000000">
  <path d="M287.5 712.1 c-3.7 -0.6 -8.9 -3 -12.5 -5.7 -0.8 -0.6 -5.3 -1.9 -9.8 -2.8 -4.6 -0.9 -9.2 -2.1 -10.2 -2.6 -0.9 -0.5 -3.7 -1.1 -6.1 -1.3 -5.6 -0.6 -11.9 -2.7 -18.9 -6.6 -9.9 -5.4 -31.1 -11.8 -46 -13.8 -1.9 -0.3 -4.2 -1.1 -5 -1.8 -0.8 -0.7 -3 -1.5 -4.8 -1.8 -1.8 -0.4 -5.3 -2.2 -7.9 -4.2 -2.5 -1.9 -5.4 -3.5 -6.3 -3.5 -0.9 0 -3.8 -1.1 -6.4 -2.5 -2.6 -1.4 -5.2 -2.5 -5.7 -2.5 -0.6 0 -2.8 -1.5 -4.9 -3.3 -2.2 -1.8 -5.2 -3.9 -6.7 -4.7 -3.2 -1.6 -11.3 -9 -11.3 -10.3 0 -0.4 -1.1 -2.5 -2.5 -4.5 -1.4 -2 -3.3 -6.2 -4.2 -9.2 -0.8 -3 -5 -11.3 -9.2 -18.5 -10.2 -17.2 -12.4 -21.6 -15.5 -30.5 -5.3 -15.5 -10.3 -27.3 -10.9 -25.9 -0.3 0.8 -0.4 0.2 -0.1 -1.3 0.4 -1.7 -0.5 -6.3 -2.4 -12 -2.8 -8.3 -4.6 -17.4 -8.2 -40.3 -0.6 -3.8 -2.1 -13.3 -3.5 -21 -1.3 -7.7 -2.7 -18.1 -3 -23.2 -1 -16 -0.8 -47.5 0.4 -56.1 0.7 -4.5 0.9 -8.7 0.5 -9.4 -0.4 -0.6 -0.3 -0.8 0.3 -0.5 1.1 0.7 2.5 -4.2 3.9 -13.3 1.4 -9.4 8.2 -25.8 13.8 -33.3 1.3 -1.8 4 -6.2 5.9 -9.8 2 -3.6 5.2 -8.1 7 -10 1.9 -1.9 4.9 -6.1 6.6 -9.4 1.8 -3.3 4.1 -6.9 5.2 -8 4.5 -4.9 5.4 -13 2 -19.3 -1.4 -2.6 -0.7 -6 2.5 -12.4 3.1 -6.1 3 -7.4 -0.6 -14.3 -4.6 -8.7 -3.8 -14.5 3.6 -26.7 l3.7 -6 -2.2 -6.7 c-3.6 -11.1 -3.2 -13.3 4.9 -24 4.4 -5.8 7 -10.1 7 -11.7 0 -1.4 -1.8 -6.3 -4 -10.7 -5.7 -11.7 -8.6 -27.7 -6.1 -33.9 0.5 -1.3 2.5 -4.1 4.5 -6.3 2 -2.2 3.6 -4.4 3.6 -4.8 0 -1.3 -6 -6.7 -7.5 -6.7 -2.6 0 -23.4 -22 -30 -31.6 -2.2 -3.2 -5.3 -7 -6.9 -8.3 -1.5 -1.4 -3.3 -3 -4 -3.6 -0.6 -0.6 -4 -2.8 -7.6 -4.9 -6.1 -3.6 -15 -10.9 -15.9 -13 -0.7 -1.7 -4.6 -6 -11.1 -12.2 -4.4 -4.2 -8.2 -9.2 -11.4 -14.8 -2.6 -4.7 -5.2 -8.9 -5.7 -9.2 -1.9 -1.1 -9.1 -11.7 -11.4 -16.6 -1.3 -2.7 -3.6 -6.3 -5.1 -7.9 l-2.8 -2.9 12.5 0 c11.8 0 12.7 0.1 14.7 2.3 1.4 1.5 2.2 3.6 2.2 5.8 0 4.6 7.2 22.1 11.1 27 1.6 2.1 4.7 4.6 6.9 5.5 2.3 1.1 4.6 3 5.7 5.1 1.7 3.2 4.5 4.3 5.8 2.3 0.3 -0.5 2.8 -1 5.4 -1 7.1 0 8.4 1.9 7.9 11.4 -0.3 7.1 -0.2 7.5 2.2 8.9 2.5 1.5 11 10.1 16.2 16.5 2.2 2.6 3.4 3.2 6.7 3.2 4.7 0 6.1 1.8 6.1 7.8 0 4.3 1.2 5.8 5.9 7.2 l3.1 0.9 0 -4.4 c0 -6.2 1.8 -7.7 8.9 -7.3 4.7 0.3 5.6 0.6 5.9 2.3 0.7 3.6 1.8 3.6 1.4 0 -0.4 -3.5 -0.5 -3.5 -5.2 -3.5 -4.3 0 -5.4 -0.5 -10.9 -5.1 -3.4 -2.8 -6.6 -6 -7.2 -7 -1 -1.9 -1.1 -1.9 -3.9 0.1 -3.2 2.3 -8.8 2.6 -11.4 0.7 -1.3 -1 -1.7 -2.4 -1.4 -6.2 0.3 -4.5 0.6 -5.1 3.5 -6.5 1.8 -0.8 3.3 -1.8 3.3 -2.2 0 -0.4 -1.8 -2.7 -4 -5.3 -7.5 -8.7 -13.2 -23.4 -14.9 -38.5 -0.6 -4.7 -1.3 -11.1 -1.7 -14.2 l-0.7 -5.8 7.1 0 c8.2 0 8.2 0 8.2 9.8 0.1 3.7 0.9 10.7 1.9 15.5 1.6 7.5 2.7 10.1 7.6 17.5 11.7 17.6 19.1 26.8 25.2 30.9 5.3 3.6 5.8 4.3 6.1 8.1 l0.3 4.2 5 0 c2.8 0 6.3 0.7 7.9 1.5 l3 1.6 0 -4 c0 -3.5 0.4 -4.3 3 -5.6 3.9 -2 7.9 -1.9 11.4 0.4 2.9 2 2.9 2 6.1 -0.5 4.2 -3.2 10 -3.3 10.8 -0.2 0.6 2 0.8 1.9 4.9 -2 l4.2 -4.1 -2.1 -2.3 c-5.1 -5.6 -7.2 -17.7 -3.4 -19.8 5.3 -2.8 11.6 -0.1 12.7 5.5 0.3 1.8 1.4 4.1 2.4 5 1.6 1.5 2.1 1.3 6.6 -2.3 2.7 -2.1 6.6 -4.8 8.7 -6.1 l3.7 -2.3 -2 -2.5 c-2.4 -3.1 -2.6 -8.5 -0.3 -10.4 0.9 -0.8 3.9 -1.4 7 -1.4 4.7 0 5.3 -0.2 5.3 -2.1 0 -3.6 3.5 -5.7 10 -6.2 l6 -0.4 0 4 0 4.1 5 -2.5 c5.4 -2.7 6.1 -3.9 3 -4.9 -1.6 -0.5 -2 -1.5 -2 -4.6 0 -3.3 0.4 -4.1 2.6 -4.9 1.4 -0.6 4.7 -1 7.4 -1 5.1 0 6 0.8 6 5.7 0 1.6 0.4 2.3 1.3 2 0.7 -0.2 5.7 -1.7 11.2 -3.2 9.4 -2.5 10.9 -2.7 26 -2.3 10 0.3 17.1 1 19 1.8 1.7 0.7 4.4 1.9 6.2 2.7 1.8 0.7 7.9 4.9 13.5 9.2 5.7 4.2 13.5 9.6 17.3 11.8 3.9 2.3 8.3 5.5 9.9 7.2 l2.9 3 2.9 -2.4 c3.9 -3.3 12.1 -3.6 14 -0.5 1 1.5 2.4 2 5.8 2 2.5 0 5.1 0.5 5.8 1.2 0.7 0.7 1.2 3.8 1.2 7 l0 5.8 -4.9 0 c-3.1 0 -5.3 -0.5 -6.1 -1.5 -1.6 -1.9 -3.4 -1.9 -5 0 -1 1.2 -0.9 1.6 0.3 2.1 0.9 0.3 1.9 1.4 2.2 2.5 0.5 1.6 1.6 1.9 7.5 1.9 8.5 0 10 0.6 10 3.7 0 2.3 0.3 2.5 2.8 1.8 6.8 -1.7 11.3 -1.7 13.2 0 2 1.8 2.4 3.5 3.5 13.8 0.6 4.8 1.1 6 3 6.9 1.9 0.9 3 0.7 4.9 -0.6 1.4 -0.9 3.5 -1.6 4.6 -1.6 1.2 0 3.6 -1.1 5.3 -2.4 3.3 -2.5 9.3 -3.8 18.8 -4.1 5 -0.1 6.4 -0.7 12.5 -5.1 3.8 -2.7 9.4 -6.5 12.4 -8.6 3 -2 8.2 -6 11.5 -8.8 3.3 -2.9 7.6 -6.3 9.7 -7.6 5.9 -3.8 10.7 -9.4 15.6 -18.2 3.4 -6.1 6 -9.3 9.9 -12.3 2.9 -2.3 8.5 -7.5 12.5 -11.8 4 -4.2 9.4 -8.9 11.9 -10.4 2.6 -1.4 5.8 -4 7.2 -5.7 2.5 -3 2.7 -3 12.7 -3 l10 0 -4.2 6.8 c-2.3 3.7 -5 7.3 -6 8 -1 0.7 -1.8 1.9 -1.8 2.6 0 1.7 -2.4 3.7 -8 6.7 -2.4 1.3 -7.2 5.2 -10.5 8.5 -14.2 14.6 -17 18.2 -16 21.7 0.4 1.5 0.3 1.8 -0.3 0.9 -0.7 -1 -2.7 1.1 -8 8.2 -6.8 9.3 -17.6 19.2 -24.8 22.9 -1.7 0.9 -4.6 3.3 -6.5 5.4 -4.2 4.7 -14 10 -20 10.9 -2.4 0.4 -5.3 1.4 -6.4 2.3 -1.9 1.5 -4.5 3.1 -9 5.5 -1.1 0.6 -3.4 2 -5 3.2 -1.7 1.1 -3.8 2.4 -4.7 2.7 -1 0.4 -1.8 1.3 -1.8 2.2 0 0.8 -0.4 1.5 -1 1.5 -0.5 0 -2.8 2.3 -5.1 5.2 -3.6 4.6 -4 5.6 -3.4 8.8 0.4 1.9 1.1 5.8 1.5 8.5 0.4 2.8 1.1 6.7 1.5 8.7 0.7 3.3 0.2 4.5 -3.9 11.1 -2.5 4.1 -6.4 9.2 -8.6 11.3 -2.2 2.1 -4 4.4 -4 5 0 0.6 -2.7 3.5 -6.1 6.4 -3.3 2.9 -6.7 6.3 -7.5 7.6 -1.4 2.1 -1.4 2.5 0 3.9 0.8 0.9 3 4.6 4.8 8.3 2.7 5.5 3.3 8.2 3.6 15 0.5 9.2 -0.5 12.7 -5 17.6 -1.5 1.7 -2.8 3.4 -2.8 3.8 0 0.3 1.4 1.6 3 2.8 7.4 5.2 7.8 12.1 1.3 21.8 -1.9 2.9 -2.2 4.6 -2.1 13.5 0 5.6 -0.3 12.5 -0.6 15.3 -0.7 4.7 -0.4 5.6 4 14 2.5 4.9 7 12.5 9.9 16.9 9.9 15.2 12.4 26.1 9.5 41.5 -0.9 4.8 -0.8 5.7 1.4 9.4 1.3 2.3 4.8 9.7 7.6 16.6 2.9 6.9 5.9 13.5 6.7 14.7 1.7 2.6 2.4 7.2 2.9 21.3 0.2 5.8 1.1 13.9 2 18 2.2 9.7 2.1 15.2 -0.1 23.8 -1.7 6.3 -1.7 7.8 -0.5 14 1.4 7.9 1 10.2 -2 10.2 -3.4 0 -4.5 4.6 -2.6 10.1 2.3 6.8 2 9 -2.4 18.5 -2.2 4.7 -4 9.4 -4 10.4 0 1 -1.7 3.3 -3.8 5.2 -2.9 2.5 -4.3 5 -6.1 10.8 -1.3 4.1 -3 8.9 -3.6 10.5 -3.7 9.1 -11.2 26 -14.6 33.2 -2.1 4.4 -3.9 8.9 -3.9 9.8 0 0.9 -1.1 3.1 -2.5 4.9 -1.4 1.9 -3.5 5.3 -4.8 7.7 -1.2 2.4 -5.1 7.9 -8.7 12.3 -3.6 4.3 -7.9 10 -9.7 12.6 -1.7 2.6 -4.6 6.2 -6.5 7.8 -16.4 15.1 -17.9 16.2 -22.1 16.2 -1.8 0 -2.7 0.7 -3.1 2.5 -0.4 1.4 -1.8 3.1 -3.1 3.7 -1.4 0.6 -2.5 1.5 -2.5 1.9 0 0.4 -0.6 1.4 -1.2 2.1 -0.7 0.7 -2.6 3.2 -4.2 5.6 -1.6 2.3 -3.2 4.2 -3.6 4.2 -1.1 0 -11.9 8.3 -15.5 11.8 -4.6 4.5 -19.3 10.5 -31.5 12.8 -1.9 0.4 -4.4 1.3 -5.5 2 -2 1.5 -9 1.7 -16 0.5z m26.2 -19 c3.4 -1 7.2 -2.6 8.4 -3.5 1.3 -0.9 3.1 -1.6 4.1 -1.6 4.2 0 17.6 -9.6 23.9 -17.2 2.3 -2.7 6.2 -6.3 8.8 -8 2.5 -1.7 6.5 -4.7 8.8 -6.7 2.3 -2 7.4 -6.1 11.3 -9.1 6.6 -5.1 21.9 -22.1 26.5 -29.4 l1.9 -3.1 -3.4 2.8 c-6.6 5.2 -7.5 5.6 -16.5 6.7 -9.5 1.2 -15.8 0.7 -21.3 -1.6 -3.2 -1.3 -3.3 -1.5 -3.3 -7.1 0 -3.2 -0.2 -10.9 -0.5 -17.2 -0.6 -13.8 0 -15.1 8.1 -15.1 5.4 0 7 1 10.8 7.3 1 1.5 2.3 2.7 3 2.7 1.8 0 5 -4.6 6.9 -10 3.1 -8.3 3.6 -29.2 0.7 -27.4 -0.6 0.3 -0.7 2.9 -0.4 6.2 0.5 4 0.3 6.2 -0.7 7.4 -1.6 2 -14.4 4.8 -22 4.8 -9.5 0 -10.8 -2.4 -11.4 -21.8 -0.2 -5.6 -0.8 -11.1 -1.4 -12.2 -0.5 -1 -1 -4.7 -1 -8.3 0 -5.3 0.4 -6.7 2.3 -8.4 4.3 -4 7 -4.7 17.7 -4.8 5.9 -0.1 11.5 -0.7 12.7 -1.3 1.2 -0.7 5.4 -1.2 9.3 -1.2 12 0 18.8 5.8 21 18 0.6 3.5 1.8 7.6 2.6 9.2 0.8 1.5 1.4 4.2 1.4 6 0 5.3 2.3 18.8 3.2 18.8 0.4 0 0.8 2.1 0.8 4.7 0 6.3 1.3 4.9 6.1 -6.7 l3.8 -9.1 -2.4 -1.1 c-2.3 -1 -2.5 -1.7 -2.5 -8 0 -7 2.5 -15.1 5.8 -19 1.4 -1.6 1.3 -1.8 -0.5 -1.8 -4.4 0 -4.5 -7.3 -0.2 -12.6 4.8 -5.9 7.4 -12.1 5.8 -14 -1.2 -1.5 -2 -5.4 -3.5 -16.9 -0.6 -4.8 -0.5 -5.1 2 -6.3 1.5 -0.7 3.3 -1.2 4.1 -1.2 1 0 1.5 -1 1.5 -3 0 -2.4 -0.8 -3.5 -4 -5.5 -2.2 -1.4 -4 -3 -4 -3.6 0 -0.5 -1.1 -2.7 -2.5 -4.7 -2.9 -4.3 -3.6 -12.6 -1 -13.6 0.8 -0.3 1.5 -1.8 1.5 -3.2 0 -3.2 2.6 -6.4 5.2 -6.4 2.5 0 2.3 -1.7 -0.7 -4.4 -1.4 -1.3 -2.5 -3.2 -2.5 -4.3 0 -1.4 -1.1 -2.3 -3.9 -3.1 -6.5 -2 -8.1 -1.6 -8.1 1.8 0 2.7 -0.3 3 -3 3 -2.7 0 -3 0.3 -3 3 0 2.8 -0.3 3 -3.5 3 l-3.5 0 0 -6 c0 -5.3 0.2 -6 2 -6 1.1 0 2 -0.4 2 -1 0 -0.5 0.9 -1 1.9 -1 1.7 0 2 -0.8 2.3 -4.7 0.3 -4.6 0.4 -4.8 4.1 -5.7 3.5 -0.9 3.8 -1.2 3.2 -3.5 -0.8 -3.3 -1.4 -3.9 -2.4 -2.3 -0.5 0.9 -2.6 1.2 -6.2 1 l-5.4 -0.3 -0.3 -4.9 c-0.3 -3.9 0.2 -5.5 2.4 -8.8 1.5 -2.1 3.6 -4.3 4.5 -4.9 1 -0.5 2.1 -2.6 2.5 -4.7 0.4 -2 1.4 -5.2 2.1 -7.1 1.8 -4.3 2.1 -18.3 0.5 -23.6 -0.6 -2.2 -4.4 -9.4 -8.3 -16 -10.4 -17.4 -11.2 -19.5 -10.6 -28.5 0.3 -4.1 1.5 -13.3 2.7 -20.5 1.4 -8.6 1.7 -13.1 1 -13.3 -1.2 -0.4 -1.4 -7.9 -0.1 -8.4 0.5 -0.1 0.6 -1.8 0.4 -3.5 -0.4 -2.6 -1 -3.3 -2.8 -3.3 -2.4 0 -3.5 -1.7 -3.5 -5.5 0 -1.3 -0.4 -2.6 -1 -3 -0.5 -0.3 -0.9 -4.6 -0.9 -9.5 l0 -8.9 3.2 -0.3 c2.5 -0.2 3.6 -1 4.9 -3.8 2.1 -4.3 2.2 -9.7 0.3 -13 -1.2 -2.1 -1.4 -2.2 -1.5 -0.6 0 2 -1.8 1.9 -12.5 -0.1 -3.8 -0.8 -4 -1 -4.3 -5.1 -0.3 -3.3 0 -4.2 1.3 -4.2 0.9 0 2.3 -0.7 3.1 -1.5 0.9 -0.8 2.6 -1.5 4 -1.5 3 0 3 -1.1 -0.1 -6 -2 -3.2 -2.5 -5.2 -2.4 -9.7 0.3 -7.1 -1.9 -9.3 -9.2 -9.3 l-4.9 0 0 -3.9 c0 -3.1 0.4 -4.1 2 -4.6 1.1 -0.3 2 -1.1 2 -1.7 0 -0.6 2.7 -0.9 7.6 -0.6 9.3 0.4 11.3 2.3 11.4 10.6 0 4.4 0.3 5.2 1.9 5.2 1 0 3.1 -1.7 4.7 -3.7 1.5 -2 4.8 -5.7 7.2 -8.2 10.1 -10.4 11.5 -13.8 9.1 -22.6 -2.8 -10.5 -11.4 -18.5 -27.7 -25.8 -3.3 -1.5 -7.3 -4.2 -8.8 -6 -2.5 -3 -3 -3.2 -8.6 -2.9 -5.1 0.3 -6.1 0.1 -7.8 -2 -2.2 -2.6 -2.8 -11.4 -0.9 -12 0.7 -0.2 -0.2 -2.3 -2.2 -5.2 -3.1 -4.3 -3.4 -4.6 -3.7 -2.4 -0.7 4.2 -2.2 5 -8 4.6 -6.7 -0.6 -9.2 -2.9 -9.9 -9.2 -0.6 -5.3 0.5 -7.2 5 -8.4 l3.1 -0.8 -5.8 -4.4 c-3.1 -2.5 -10.1 -8.5 -15.5 -13.3 -6.6 -5.9 -12.2 -9.9 -17 -12.2 -6.6 -3.2 -8.6 -3.6 -21.6 -4.7 -11.7 -1 -14.9 -0.9 -17.2 0.1 -1.5 0.8 -6.3 2.6 -10.5 4.1 -4.3 1.6 -9.9 4.4 -12.5 6.3 -5.4 3.9 -14.5 8.7 -16.6 8.7 -0.7 0 -2.4 1.1 -3.7 2.5 -1.3 1.4 -3 2.5 -3.8 2.5 -0.8 0 -2.6 0.8 -4 1.9 -1.5 1 -5.5 3.3 -9 5.1 -3.4 1.8 -6.8 4 -7.5 5 -0.7 1 -3.5 3.6 -6.4 5.8 -2.8 2.3 -9.4 8.3 -14.6 13.4 -12.9 12.5 -16.8 15.7 -20.8 16.5 -1.9 0.3 -3.9 1.2 -4.5 1.8 -0.7 0.6 -2.5 2.3 -4.1 3.6 -1.9 1.6 -3.3 3.9 -3.7 6.2 -0.5 2.9 -1.5 4.2 -4.9 6.1 -2.3 1.3 -6.1 2.9 -8.3 3.5 -2.3 0.6 -4.7 1.8 -5.4 2.6 -0.7 0.8 -1.9 1.5 -2.6 1.5 -1.6 0 -3.4 3.9 -3.4 7.3 0 2.6 5.3 13 8.6 16.9 1.2 1.6 2.6 3.7 2.9 4.9 0.7 2 1.1 1.7 5.6 -3 2.7 -2.8 6.3 -6 8.1 -7.1 4.1 -2.5 12.6 -2.8 13.4 -0.5 0.5 1.2 1.6 1.4 5.4 0.9 6.8 -0.9 9 0.6 9 5.9 0 5 -0.4 5.6 -5.4 9.6 -3.1 2.5 -4.8 3.1 -8.7 3.1 -2.7 0 -6.8 0.8 -9.1 1.7 -4.5 1.7 -13.3 8.5 -14.2 10.9 -0.5 1.4 0.4 1.1 8.4 -2.4 1.9 -0.9 6.6 -1.8 10.4 -2 l6.9 -0.4 -0.5 5 c-0.3 2.7 -1.5 6.6 -2.7 8.6 -1.9 3 -2.8 3.6 -5.7 3.6 -3.2 0 -3.4 -0.2 -3.4 -3.6 0 -3.5 -0.1 -3.6 -2.2 -2.2 -1.9 1.3 -2.1 2.2 -1.9 8.2 0.3 8.3 -1.2 10.6 -7 10.6 -2.7 0 -5.2 1 -8.4 3.2 -3.7 2.6 -4.5 3.7 -4.5 6.3 0 2.3 -0.8 3.7 -3 5.3 -5.6 4.2 -4.1 5.2 7 5.2 l10 0 0 3.3 c-0.1 2.2 -1.2 4.4 -3.6 7.2 -3.4 3.9 -3.7 4 -10.6 4.2 -3.9 0.2 -7.3 0.5 -7.6 0.8 -0.3 0.3 0.5 0.5 1.7 0.5 3.3 0 4.4 4.1 3.9 15.5 -0.5 11.5 -1.5 13.9 -6.4 16 -2.5 1 -3.9 2.6 -5.3 5.7 -1.9 4.7 -4.1 18.5 -4.5 28.8 -0.2 3.6 -0.9 8.4 -1.7 10.8 -1.2 3.7 -1.8 4.2 -4.3 4.2 -1.7 0 -4 -1 -5.4 -2.2 l-2.4 -2.3 -2 2.5 -2 2.5 3.8 0.5 3.9 0.5 0.3 5.1 0.3 5.2 -3.5 0.6 c-1.9 0.4 -3.7 1.3 -4 2.1 -0.6 1.7 -8.2 2.1 -8.8 0.5 -0.2 -0.6 -2.2 2.7 -4.5 7.2 -2.8 5.4 -3.9 8.6 -3.3 9.2 0.6 0.6 1 2.9 1 5.3 0 3.7 -0.4 4.4 -2.9 5.7 -2.6 1.4 -4.1 3.4 -4.1 5.7 0 0.5 1.8 0.9 4 0.9 2.6 0 4.2 0.6 4.8 1.6 0.6 1.1 1.1 1.3 1.6 0.5 0.4 -0.6 2.9 -1.1 5.5 -1.1 5.5 0 6.1 0.8 6.1 9.2 0 5.8 -1.8 7.8 -7 7.8 -3.5 0 -3.9 -0.3 -5 -3.6 -0.8 -2.5 -1.6 -3.4 -2.7 -3 -0.8 0.3 -3.2 0.6 -5.3 0.6 -3.7 0 -3.9 0.1 -5.1 4.8 -0.7 2.7 -1.4 12.9 -1.6 23.9 -0.4 19.4 1 37.4 4.1 54.8 0.8 4.4 2.4 14.5 3.6 22.5 4.2 28.9 20.1 71.4 33.7 90 1.8 2.5 4.6 6.3 6.3 8.6 2.3 3.2 3 5.1 3 8.8 0 3.2 0.8 5.8 2.5 8.6 1.4 2.2 2.5 4.5 2.5 5.2 0 1.5 3 7.6 6.4 13.2 1.8 3.1 4.1 4.9 10.7 8.2 12.5 6.3 38.3 17.4 40.5 17.4 2.9 -0.1 27.3 6.1 32.9 8.3 2.8 1 8.6 3.6 13 5.7 6.9 3.3 18.7 8 20 8 0.3 0 0.5 -0.8 0.5 -1.7 0.1 -3.7 2.5 -5.3 8 -5.3 6.9 0 10 2.6 10 8.1 0 3.4 0.3 3.8 3.8 5 2 0.7 5.5 2.3 7.7 3.7 7.2 4.5 14.5 5.2 24.2 2.3z m77.1 -84.2 c1.2 -0.5 2.2 -1.4 2.2 -2 0 -0.7 -0.7 -0.8 -1.7 -0.4 -1 0.4 -4.2 0.9 -7 1.2 -3.7 0.4 -5.3 1 -5.3 2 0 1.1 1 1.3 4.8 0.7 2.6 -0.4 5.7 -1.1 7 -1.5z m23.7 -6.6 c1 -2.6 2.7 -5.8 3.9 -7.1 1.7 -1.9 1.8 -2.5 0.6 -3.2 -1 -0.6 -1.8 0.2 -3 3.8 -0.9 2.6 -2.4 6.1 -3.3 7.9 -1.9 3.6 -2.1 4.7 -0.8 3.9 0.4 -0.3 1.6 -2.7 2.6 -5.3z m-6.6 -50.7 c-0.9 -0.8 -1 -0.7 -0.5 0.7 0.3 1 0.7 3.5 0.8 5.5 0.1 3.5 0.2 3.5 0.5 -0.7 0.3 -2.6 -0.1 -4.8 -0.8 -5.5z m-31.9 2.2 c0.1 -3.1 0.7 -6.1 1.5 -7.2 2 -2.6 1.9 -3.6 -0.4 -3.6 -2.3 0 -3.7 -1.6 -4.6 -5.3 -0.4 -1.5 -1.2 -2.7 -1.7 -2.7 -0.6 0 -0.7 0.7 -0.2 1.8 0.4 0.9 1 6.3 1.2 12 0.3 9.2 0.6 10.2 2.3 10.2 1.6 0 1.9 -0.8 1.9 -5.2z m28.6 -14.6 c-1.7 -5.3 -7.7 -9.9 -11.1 -8.6 -1.4 0.6 -4.5 5.3 -4.5 6.9 0 0.3 1.9 0.5 4.3 0.5 2.3 0 5.8 0.8 7.7 1.8 4.1 2.1 4.4 2 3.6 -0.6z m-236.1 -442.8 c1.1 -0.5 0 -1.2 -3.7 -2.5 -6.8 -2.4 -6.8 -2.4 -3.4 0.6 3 2.6 4.3 2.9 7.1 1.9z"/>
  <path d="M293 690.3 c-2.2 -0.9 -3 -2.4 -3 -6.4 0 -5.1 2.5 -7.1 8.6 -6.7 l4.9 0.3 0.3 5.5 c0.3 4.3 -0.1 5.7 -1.4 6.7 -1.8 1.3 -6.7 1.6 -9.4 0.6z"/>
  <path d="M328 670.8 c0 -2.9 0.3 -6.2 0.6 -7.3 0.7 -2.6 5.7 -5.5 9.4 -5.5 2.5 0 3 0.5 3.6 3.5 0.7 3.8 0.2 7.2 -1.5 11.8 -1 2.5 -1.5 2.7 -6.6 2.7 l-5.5 0 0 -5.2z"/>
  <path d="M295.2 624.1 c-8.3 -5.3 -12.4 -25.6 -12 -59.6 0.1 -14 0.9 -21 3.3 -28.6 0.3 -0.9 2.9 -2.8 5.8 -4.3 5.3 -2.6 5.7 -2.7 21.8 -2.4 18.4 0.4 21.7 1.3 23.3 6.3 0.5 1.7 1.6 4.6 2.5 6.5 3 6.8 4.3 39.9 2.5 65 -0.6 9.4 -0.6 9.4 -4.6 13.1 -4.8 4.4 -6.7 4.8 -25.3 5.5 -13 0.5 -14.2 0.4 -17.3 -1.5z m26.8 -11.7 c2.7 -0.3 5.5 -1.2 6.1 -2 0.7 -0.9 1.2 -4.5 1.1 -9.2 0 -4.2 0.3 -10.5 0.8 -14 0.7 -4.8 0.5 -7.3 -0.6 -10.4 -0.8 -2.2 -1.4 -7.7 -1.4 -12.2 0 -4.4 -0.5 -8.8 -1.1 -9.6 -0.7 -1.1 -0.9 2.2 -0.5 11.5 0.6 14.8 -1 29.5 -3.3 30.9 -0.8 0.5 -3.4 2.6 -5.7 4.8 -3.4 3.2 -4.8 3.8 -8.4 3.8 -6.2 0 -8 -2 -8 -8.7 0 -3 -0.5 -6.4 -1.2 -7.6 -0.7 -1.2 -1.3 -6.8 -1.5 -12.7 -0.1 -5.8 -0.6 -11.8 -1.2 -13.5 -1.8 -5.2 -0.6 24.9 1.3 32.9 1.9 7.5 5.8 16.1 7.8 17 1.3 0.5 5.3 0.3 15.8 -1z m-21 -63 c0 -5 3.4 -6.6 13 -6.2 4.4 0.2 7.6 0 7.2 -0.4 -0.4 -0.4 -5.3 -0.9 -10.9 -1.1 l-10.1 -0.3 -1.9 3.5 c-1.2 2.5 -1.7 5.2 -1.5 8.5 l0.3 5 2 -3 c1 -1.6 1.9 -4.3 1.9 -6z"/>
  <path d="M242.8 621 c-8.8 -0.7 -12.8 -2.3 -14.7 -5.8 -3.3 -6.1 -6.5 -33.7 -6.6 -56 l0 -14.2 3 -2.5 c6.9 -5.7 12.6 -7.6 24.4 -8.2 12.6 -0.7 17.7 0.6 22.6 5.7 2.6 2.7 2.8 3.7 4.2 18.7 1.3 13.1 1.3 18.4 0.3 30.8 -0.6 8.3 -1.6 16.6 -2.1 18.5 -0.5 2 -3.1 5.8 -5.9 8.8 -4.9 5.2 -5 5.2 -10.7 5.1 -3.2 -0.1 -9.7 -0.5 -14.5 -0.9z m10.2 -12.5 c0.7 -0.8 2.5 -1.5 4.1 -1.5 2.6 0 2.8 -0.3 3.5 -5.7 0.4 -3.2 0.3 -15.2 -0.3 -26.7 l-1 -21 -4.4 -3.8 c-5.9 -5 -9.5 -5.6 -15.6 -2.7 -5.2 2.7 -6.1 4.4 -6.1 12.4 l0 5 0.9 -4.4 c1.2 -6.4 4.7 -9 12.1 -9.1 4.9 0 6.1 0.4 9 3 l3.3 3 0.3 16.8 0.4 16.7 -5.7 4.9 c-4.4 3.8 -6.6 5 -10.1 5.4 -2.4 0.2 -4.4 1 -4.4 1.6 0 5 10.9 9.8 14 6.1z"/>
  <path d="M180.5 615.7 c-0.6 -0.7 -4.4 -2.3 -8.5 -3.6 -13.6 -4.3 -15.8 -5.2 -18.5 -7.6 -1.4 -1.4 -2.9 -2.5 -3.3 -2.5 -1.4 0 -6.2 -10.6 -6.2 -13.6 0 -1.6 -0.7 -5.1 -1.5 -7.8 -1.1 -3.7 -1.3 -7.4 -0.8 -15 l0.6 -10.1 5.3 -5.4 c5.7 -5.8 6.7 -6.4 15.9 -11.1 5.3 -2.6 7.8 -3.1 19.3 -4.1 19.6 -1.5 20.7 -0.6 23.1 21.6 0.5 5 1.3 17.7 1.6 28.3 0.6 18.3 0.6 19.4 -1.5 23.6 -3.1 6.5 -7.2 8.6 -16.8 8.6 -5.1 0 -8 -0.4 -8.7 -1.3z m11.7 -19.4 c-0.7 -4.3 -1.2 -11.5 -1.2 -15.9 0 -4.7 -0.6 -9.9 -1.5 -12.4 -0.8 -2.4 -1.8 -8 -2.1 -12.5 l-0.7 -8.3 -3.6 -0.5 c-2 -0.2 -5.5 -0.1 -7.6 0.2 l-4 0.7 4.6 0.7 c8.5 1.4 10.4 6.3 11.4 30 0.5 10 0.3 14.3 -0.6 15.3 -1.4 1.7 -12.1 1.9 -16.7 0.3 -1.7 -0.6 -4 -0.9 -5.1 -0.7 -1.8 0.3 -1.7 0.6 1.4 2.7 1.9 1.3 6 2.9 9.1 3.7 3 0.7 6 1.7 6.7 2.2 0.7 0.5 2.7 1.3 4.4 1.7 1.8 0.3 3.6 1.1 3.9 1.7 0.4 0.6 1 0.6 1.7 -0.1 0.7 -0.7 0.7 -3.3 -0.1 -8.8z m-18.6 -26.9 c-0.3 -0.8 -1.5 -1.4 -2.7 -1.4 -1.9 0 -2.1 0.4 -1.6 3.6 0.3 2 1.4 4.8 2.4 6.3 l1.8 2.6 0.3 -4.9 c0.2 -2.7 0.1 -5.5 -0.2 -6.2z m-17.3 -2.7 c0.4 -7.3 0.3 -8.5 -0.8 -7 -1.7 2.4 -2.4 10.1 -1.2 13.6 0.5 1.5 1 2.7 1.2 2.5 0.1 -0.2 0.5 -4.3 0.8 -9.1z"/>
  <path d="M188 519.5 c-0.7 -0.8 -1.9 -1.5 -2.8 -1.5 -0.9 0 -3.4 -0.9 -5.7 -2 -2.3 -1.1 -7.9 -2.7 -12.5 -3.5 -8.4 -1.5 -14.6 -4.4 -18.7 -8.7 -4.8 -5.1 -9.3 -10.6 -9.3 -11.5 0 -0.6 -0.8 -2.5 -1.7 -4.4 -2.5 -5 -3 -25.8 -0.9 -36.4 1.9 -9.2 5.1 -18.4 7 -19.9 0.7 -0.6 3 -3.3 5.1 -5.9 3.9 -4.9 15.3 -14.1 21 -16.9 4.6 -2.4 15.1 -3.8 27.2 -3.8 13.9 0 20.1 1.8 37.7 10.9 10.5 5.4 14.2 7.9 20.1 13.8 9.1 8.9 10.1 11.8 10.9 31.3 l0.7 14.5 -3.8 7.4 c-3 5.8 -6 9.6 -13.6 17 -5.4 5.3 -10.8 10 -12 10.5 -4.4 1.9 -12.3 5.3 -16.2 6.9 -6.4 2.7 -12.4 3.6 -22.1 3.7 -6.9 0 -9.5 -0.4 -10.4 -1.5z m14.5 -21.5 c1.9 -0.7 1.8 -0.8 -0.5 -1.3 -3.3 -0.7 -15 -1.6 -15 -1.1 0 0.2 1.2 1 2.8 1.8 2.9 1.6 9.5 2 12.7 0.6z m12.7 -23.1 c4.3 -3.1 9.8 -14.1 9.8 -19.7 0 -2.7 -0.4 -5.2 -0.9 -5.7 -0.5 -0.6 -1.4 -2.7 -2.1 -4.8 -0.6 -2 -1.9 -4.1 -2.8 -4.6 -2.3 -1.2 -9.9 -2.4 -14.1 -2.3 -4.1 0.2 -14.5 5.9 -18.7 10.4 -3.9 4.1 -7.9 12 -8.8 17.3 -0.7 3.8 -0.5 4.2 4 8 7.8 6.6 8.6 7 14.9 7.5 6.2 0.6 11.7 -1.2 18.7 -6.1z"/>
  <path d="M194.2 473.8 c-5.5 -1.2 -7.2 -4.4 -7.2 -13.4 0 -10.6 4.2 -15.4 13.5 -15.4 8.6 0 14.5 8.7 14.5 21.1 0 4.8 -0.4 6 -2.2 7.3 -2.5 1.8 -11.6 2 -18.6 0.4z"/>
  <path d="M308.3 514.5 c-9.6 -2.1 -14.6 -4.8 -21 -11.3 -8 -8.1 -11.5 -15.5 -12.1 -25.5 -0.8 -12.7 2.2 -24 10.9 -41.4 5.2 -10.5 12 -17 25.8 -24.8 11.8 -6.6 17.6 -7.9 35.1 -8 l15.5 0 6.5 3.4 c8.6 4.5 14.9 8.9 18 12.5 1.4 1.6 4.2 4.5 6.3 6.5 2 1.9 4.9 5.8 6.3 8.7 2.3 4.7 2.5 6.1 2.1 13.6 -1 17.1 -2.4 25.5 -5.3 30.7 -1.5 2.8 -3.1 5.1 -3.5 5.1 -0.5 0 -1.6 1.4 -2.4 3.1 -0.9 1.7 -3.6 5.1 -6 7.7 l-4.5 4.7 -9.7 0.6 c-9.6 0.5 -14.3 2.1 -14.3 4.5 0 2.2 -4.7 5.7 -10.6 7.9 -7.8 2.9 -28 4 -37.1 2z m22.5 -18.8 l3.3 -3.4 -5.4 0.5 c-4.5 0.3 -6.6 -0.1 -12.8 -2.8 -4.1 -1.8 -8.1 -3.8 -8.9 -4.6 -1.3 -1.1 -1.9 -1 -3.8 0.5 -2.1 1.5 -2.2 2 -1.1 4.4 0.7 1.5 1.8 2.7 2.6 2.7 0.8 0 2.5 0.7 3.9 1.7 2.8 1.8 11.3 4.1 16 4.2 2.2 0.1 3.9 -0.8 6.2 -3.2z m18.1 -11.3 c3.1 -0.7 7.4 -1.3 9.7 -1.4 6 0 9.9 -1.7 12.8 -5.5 l2.6 -3.4 -3.2 -0.3 c-2.8 -0.2 -3.4 -0.8 -3.6 -3 -0.2 -1.6 -0.9 -2.8 -1.6 -2.8 -0.7 0 -3.8 2.7 -6.9 5.9 -6 6.4 -8.8 8.2 -15.4 10 -2.6 0.7 -4.3 1.8 -4.3 2.7 0 1.2 0.4 1.3 2.2 0.3 1.2 -0.6 4.7 -1.8 7.7 -2.5z m-19.9 -9.9 c0.6 -0.7 -1.3 -1.8 -5.1 -3 -7.8 -2.4 -9.9 -5 -9.9 -12.2 0 -4.1 0.7 -6.6 3.2 -10.9 3.5 -6.4 7.7 -9.4 12.8 -9.4 5.3 0 7.6 2.2 9.9 9.7 2.6 8.2 2.6 12.6 0.1 18.1 -1 2.3 -1.5 4.2 -1 4.2 0.4 0 3.1 -2.6 5.9 -5.7 3.7 -4.2 5.7 -7.7 7.3 -12.5 l2.2 -6.7 -2.7 -6.3 c-4.3 -10.1 -10.8 -14 -18.9 -11.4 -2.4 0.8 -5.5 1.7 -7.1 2 -4.6 1.1 -10.3 5.8 -13.7 11.4 -3.8 6.3 -5.1 16.6 -2.8 21.9 1.8 4.2 9.4 12.3 11.6 12.3 0.9 0.1 2.8 0.7 4.2 1.5 2.2 1.2 2.5 1.2 2.9 -0.3 0.2 -0.9 0.7 -2.2 1.1 -2.7z m51 -18.5 c0 -6.8 -0.1 -7 -2.5 -7 -1.8 0 -2.5 0.5 -2.5 1.9 0 3.9 -1.2 5.1 -4.9 5.2 -3 0.2 -3.1 0.3 -0.9 0.6 1.9 0.3 3 1.2 3.4 2.8 0.4 1.8 1.4 2.5 3.7 2.8 1.8 0.2 3.3 0.5 3.5 0.5 0.1 0.1 0.2 -2.9 0.2 -6.8z"/>
  <path d="M84.3 447.3 c-2 -0.8 -1.6 -7.7 0.5 -9.6 2.2 -2 12.2 -2.3 14 -0.5 1.7 1.7 1.5 7.4 -0.4 9.2 -1.5 1.6 -11.1 2.2 -14.1 0.9z"/>
  <path d="M88.8 418.9 c-2.6 -1.4 -2.5 -10.9 0 -13.2 2.3 -2.1 7.6 -2.2 9.6 -0.1 2.2 2.2 2.2 12.9 0 13.8 -2.4 0.9 -7.7 0.7 -9.6 -0.5z"/>
  <path d="M109.7 370.3 c-1.4 -1.3 -0.7 -9.2 0.9 -10.7 1.8 -1.9 8.5 -2.1 10.2 -0.4 1.9 1.9 1.5 8.2 -0.6 10.1 -1.8 1.7 -9.2 2.4 -10.5 1z"/>
  <path d="M388.8 362.3 c-1.4 -0.3 -1.8 -1.5 -1.8 -5.2 0 -4.1 0.3 -4.9 2.5 -5.9 3.1 -1.4 6.9 -1.5 11.2 -0.3 2.8 0.8 3.2 0.7 3.5 -1.2 0.4 -2.9 4.3 -4.7 10.4 -4.7 5.7 0 6.4 0.7 6.4 6.5 0 4.7 -2.9 6.5 -10.2 6.5 -5.1 0 -5.7 0.2 -6 2.3 -0.3 2 -0.9 2.2 -7.3 2.4 -3.8 0 -7.8 -0.1 -8.7 -0.4z"/>
  <path d="M279 336.4 c-1.4 -0.2 -6.5 -1.1 -11.5 -1.9 -4.9 -0.8 -14.8 -1.9 -22 -2.5 -13.1 -1 -19.7 -2.3 -22.5 -4.6 -0.8 -0.6 -2.5 -1.5 -3.6 -1.8 -3.2 -1 -12.8 -11.5 -15.6 -17.2 -1.4 -2.7 -3.1 -7.1 -3.7 -9.9 -0.7 -2.7 -1.6 -5.4 -2 -6 -0.5 -0.5 -1.6 -4.3 -2.6 -8.4 -1.5 -6.3 -1.6 -8.3 -0.6 -13.6 1.2 -7 1.7 -8 8.3 -18 3.6 -5.6 15.9 -18.5 17.5 -18.5 0.2 0 4.3 -1.6 9.2 -3.5 9.5 -3.7 29.2 -9.2 45.6 -12.7 8.7 -1.8 13.4 -2.1 36 -2.2 29.1 0 36.3 0.8 44.1 5.5 19.6 11.7 19.1 10.6 19.5 38.4 0.4 20.2 0.3 21.2 -1.8 25.3 -1.3 2.3 -2.3 5.1 -2.3 6.2 0 2.2 -5.6 11.3 -10.1 16.4 -1.6 1.9 -6.9 6.1 -11.7 9.3 -4.7 3.2 -9.6 6.8 -10.9 8.1 -1.2 1.2 -3.1 2.2 -4.2 2.2 -1.1 0 -2.2 0.3 -2.5 0.8 -0.4 0.8 -13 5 -22.6 7.6 -5 1.3 -23 1.9 -30 1z m32 -21 c0 -1.3 3.2 -2.6 11 -4.4 6.8 -1.5 8 -2.5 8 -6.1 0 -4.2 2.5 -6.1 7.9 -5.9 7 0.3 7.1 0.2 7.1 -3 0 -2.4 -0.4 -3 -2.2 -3 -5 0 -7.9 -7.7 -4.2 -11.4 3 -3.1 11.8 -1.4 13.3 2.6 0.7 2.1 0.8 2 1.8 -0.8 0.9 -2.5 0.7 -3.4 -1.3 -5.9 -1.5 -1.9 -2.4 -4.3 -2.4 -6.6 0 -3.8 1 -4.8 5.3 -5 1.2 -0.1 0.4 -0.5 -1.8 -0.8 -3.3 -0.5 -4.2 -0.3 -5 1.4 -0.8 1.5 -2.2 2.1 -6.3 2.3 l-5.2 0.3 0 -5.7 c0 -6.8 1.8 -9.4 6.4 -9.4 4.5 0 5.3 -1 5.7 -6.5 0.4 -4.3 0.1 -5 -1.6 -5.3 -1.1 -0.3 -3.4 -1.6 -5.3 -3 -2.5 -1.9 -3.6 -2.2 -4.4 -1.4 -2 2 -9.7 1.4 -12.5 -0.8 -3.7 -2.9 -5.9 -2.5 -7.2 1.1 -1.1 3.1 -1.2 3.2 -6.1 2.6 -2.8 -0.3 -6.2 -1.5 -7.7 -2.7 -1.4 -1.1 -3.9 -2 -5.5 -2 -2.5 0 -2.7 0.2 -1.8 1.9 1.5 3 1.2 7.7 -0.7 9.6 -1.3 1.3 -2.9 1.6 -7.1 1.3 -6.3 -0.6 -7.4 -1.7 -7 -7.4 0.3 -3.9 0.2 -4.1 -1.8 -3.4 -1.2 0.5 -4 1.4 -6.3 2 -3.4 0.9 -4 1.4 -3.1 2.5 0.6 0.7 1 3.3 0.8 5.7 -0.3 4.2 -0.4 4.3 -4.3 4.6 -5.1 0.4 -12.5 -1.6 -12.5 -3.5 0 -0.8 -0.6 -1.3 -1.2 -1.1 -0.7 0.3 -1.4 2.5 -1.6 5.1 -0.3 4.2 -0.6 4.6 -3.3 5.2 -1.7 0.4 -5.6 0.4 -8.7 0 -5 -0.6 -6 -0.4 -7.6 1.4 -1.7 1.9 -1.7 2 1.3 3.6 2.8 1.4 3.1 2 3.1 6 l0 4.5 -7.1 0 -7 0 -1.5 3.5 c-0.7 1.9 -1.4 5.4 -1.4 7.7 0 4.6 3.1 10.8 5.3 10.8 2.3 0 5 3.8 5.6 7.8 0.6 3.7 0.7 3.7 5.8 4 3.5 0.2 5.6 0.9 6.8 2.2 1.7 1.9 1.8 1.9 3.4 -1.3 1.4 -2.9 2.1 -3.2 6.5 -3.5 5.2 -0.3 6.6 0.6 6.6 4.6 0 1.9 0.5 2.2 3.5 2.2 2 0 4.3 0.8 5.3 1.8 1.3 1.3 3 1.6 7.4 1.4 4.9 -0.3 5.9 -0.1 6.4 1.5 1.5 4.6 1.8 4.5 2.4 -0.7 l0.5 -5.5 4.8 -0.3 c6.3 -0.4 7.7 0.9 7.7 6.8 l0 4.7 6.5 -2.5 c3.6 -1.4 6.5 -3.1 6.5 -3.8z"/>
  <path d="M318.4 294.8 c-0.4 -0.6 -1.9 -3.3 -3.3 -5.9 -3 -5.4 -11 -12.6 -14.9 -13.5 -1.5 -0.3 -3.8 -1 -5.2 -1.6 -1.4 -0.5 -4.9 -1.6 -7.8 -2.4 -4.6 -1.2 -5.8 -1.2 -9.5 0.2 -2.3 0.8 -5.8 2 -7.7 2.5 -6.8 1.9 -8.5 3.1 -13 8.6 -5.2 6.4 -9.3 9.3 -13.3 9.3 -5.1 0 -6.7 -1.6 -6.7 -6.5 0 -2.5 0.4 -4.5 0.9 -4.5 0.5 0 2.1 -2.4 3.5 -5.4 1.5 -3 4.3 -6.9 6.3 -8.6 4.2 -3.7 17.8 -10.3 24.5 -11.9 8.7 -2.1 29.7 -0.7 34.3 2.3 1.1 0.7 3.2 1.6 4.7 2 6.5 1.6 15.1 9.7 17.2 16.3 0.4 1.2 1.3 2.7 2.1 3.3 1.5 1.3 2.1 12.2 0.9 15.4 -0.8 2 -11.8 2.3 -13 0.4z"/>
  <path d="M192.6 164.4 c-2.9 -7.5 3.2 -12.7 10.9 -9.2 2.2 1 2.5 1.7 2.5 6 l0 4.8 -6.4 0 c-4.9 0 -6.5 -0.4 -7 -1.6z"/>
  <path d="M448.2 82.8 c-0.7 -0.7 -1.2 -2.9 -1.2 -4.9 0 -4.7 2.7 -6.9 8.6 -6.9 4.7 0 5.4 0.9 5.4 6.9 0 4.9 -1.4 6.1 -7 6.1 -2.5 0 -5.1 -0.5 -5.8 -1.2z"/>
  <path d="M431.2 70.8 c-1.8 -1.8 -1.5 -9.4 0.4 -11.2 0.8 -0.9 2.7 -1.8 4.2 -2.1 1.5 -0.3 4.1 -1 5.8 -1.5 1.7 -0.6 4.5 -1 6.2 -1 3.1 0 3.2 0.2 3.2 3.9 0 3.4 -0.5 4.4 -3.7 6.8 -2.1 1.5 -4.5 3.6 -5.5 4.6 -2.1 2 -8.8 2.3 -10.6 0.5z"/>
  <path d="M472.1 63.1 c-0.6 -1.1 -1.1 -3.9 -1.1 -6.2 0 -5.1 1.9 -6.8 7.7 -6.9 5.5 0 7.5 2.7 7.1 9.7 l-0.3 4.8 -6.2 0.3 c-5.3 0.3 -6.3 0 -7.2 -1.7z"/>
  <path d="M495.2 59.5 c-0.7 -1.4 -1.2 -4.4 -1.2 -6.6 0 -3.3 0.4 -4.1 2.6 -4.9 1.4 -0.6 4.2 -1 6.3 -1 3.1 0 4 0.5 4.9 2.5 1.7 3.7 1.5 9.1 -0.4 10.9 -1 1 -3.3 1.6 -6.3 1.6 -4.1 0 -4.9 -0.3 -5.9 -2.5z"/>
  <path d="M511.7 50.3 c-0.4 -0.3 -0.7 -2.3 -0.7 -4.4 0 -4.7 1.8 -5.9 8.9 -5.9 5.1 0 5.1 0 5.1 3.3 0 7 -0.7 7.7 -6.9 7.7 -3.2 0 -6.1 -0.3 -6.4 -0.7z"/>
  <path d="M124.2 42.7 c-1.5 -2.4 -3.6 -6.4 -4.6 -8.8 -1 -2.4 -3.6 -8.2 -5.7 -12.7 -4.8 -10.4 -5.3 -16.3 -1.4 -18 5.6 -2.6 10.9 -1 11.9 3.5 0.7 2.8 1.4 4.4 8.1 18.7 4 8.8 5.4 16.1 3.6 19.4 -0.9 1.7 -2.1 2.2 -5.2 2.2 -3.6 0 -4.2 -0.4 -6.7 -4.3z"/>
  <path d="M153.7 42.3 c-0.4 -0.3 -0.7 -2.9 -0.7 -5.6 0 -6.1 1.6 -7.6 8.2 -7.7 6.8 0 7.8 0.6 7.8 5.1 0 2.1 -0.5 3.9 -1 3.9 -0.6 0 -1.5 1.1 -2 2.5 -0.9 2.2 -1.5 2.5 -6.3 2.5 -3 0 -5.7 -0.3 -6 -0.7z"/>
  <path d="M397.2 39.8 c-0.7 -0.7 -1.2 -3.6 -1.2 -6.6 0 -5.1 0.1 -5.4 3.5 -6.8 4.8 -2 9.8 -1.8 11.8 0.4 2.6 2.9 2.3 10.7 -0.5 12.6 -2.7 1.9 -11.9 2.1 -13.6 0.4z"/>
  <path d="M450.8 40.3 c-2.3 -0.6 -2.4 -6.5 -0.3 -8.7 1.8 -1.8 6.9 -2.9 11.1 -2.4 2.5 0.3 2.9 0.7 3.2 3.9 0.3 3.2 -0.1 3.9 -3.1 5.8 -3.2 2 -6.9 2.5 -10.9 1.4z"/>
  <path d="M179.3 28.6 c-0.7 -0.8 -1.3 -3.2 -1.3 -5.3 0 -3.1 0.5 -4 2.7 -5 3.7 -1.8 7.9 -1.6 10.8 0.3 1.9 1.3 2.5 2.5 2.5 5.5 0 2.1 -0.5 4.1 -1.1 4.4 -0.6 0.4 -3.6 0.9 -6.7 1.1 -4.3 0.4 -6 0.1 -6.9 -1z"/>
  <path d="M62.6 20.1 c-1.7 -1.8 -5.5 -14.6 -5.6 -18.3 0 -1.6 1 -1.8 7.4 -1.8 8.5 0 8.1 -0.4 9.2 11.3 0.6 5.7 0.4 7 -1.1 8.7 -2.3 2.6 -7.6 2.6 -9.9 0.1z"/>
  <path d="M504.7 21.4 c-0.4 -0.4 -0.7 -2.8 -0.7 -5.3 0 -4 0.4 -4.8 2.7 -5.8 1.5 -0.7 4.2 -1.3 6 -1.3 4 0 5.5 2.4 5.1 8.3 l-0.3 4.2 -6 0.3 c-3.4 0.2 -6.4 0 -6.8 -0.4z"/>
  <path d="M462.7 14.3 c-1.1 -1 -0.8 -10.2 0.3 -12.4 0.9 -1.6 2.2 -1.9 7.5 -1.9 l6.5 0 0 4 c0 3.8 -2.1 8.5 -4.5 10.2 -1.3 1 -8.9 1 -9.8 0.1z"/>
  <path d="M520 5.4 c-2 -5.2 -1.7 -5.4 7.6 -5.4 l8.5 0 -0.3 2.7 c-0.4 3.5 -3.8 5.3 -10.1 5.3 -4.2 0 -4.9 -0.3 -5.7 -2.6z"/>
 </g>
 <g fill="#ff3600">
  <path d="M137.1 632.4 c-2.7 -3.5 -2.6 -4.4 0.4 -4.4 2.2 0 2.5 0.4 2.5 3.5 0 1.9 -0.2 3.5 -0.4 3.5 -0.3 0 -1.4 -1.2 -2.5 -2.6z"/>
  <path d="M264.8 613.9 l4.7 -5.1 0.3 3.2 c0.4 4.2 -2.1 7 -6.4 7 l-3.3 0 4.7 -5.1z"/>
  <path d="M305.3 616.8 c-6.5 -1.7 -10.9 -15.4 -12.2 -37.6 -0.4 -7.3 -0.4 -15.6 0 -18.5 0.5 -2.8 0.6 -7.3 0.3 -9.9 -0.5 -3.7 -0.2 -5.4 1.7 -8.7 2.3 -4.1 5.6 -6 8 -4.5 0.6 0.4 5.4 0.8 10.5 0.9 9.9 0.2 12.4 1.2 12.4 4.9 0 1.1 1.1 3.9 2.5 6.1 2.1 3.4 2.4 5.3 2.5 12.1 0 4.8 0.6 9.9 1.6 12.5 1.2 3.3 1.4 6.2 0.9 11.9 -0.4 4.1 -0.8 11.7 -0.9 16.7 -0.3 10.8 -1.8 13.6 -6.7 12.6 -1.6 -0.3 -4.1 -0.1 -5.6 0.5 -4 1.5 -11.3 2 -15 1z m9.9 -18.3 c2.8 -2.5 5.4 -4.5 5.8 -4.5 1.8 0 3.1 -38.3 1.4 -44.1 -1.1 -3.8 -11.4 -5.3 -15.9 -2.3 -1.8 1.2 -2.5 2.5 -2.5 4.8 0 1.7 -0.9 4.4 -1.9 6 -1.4 2.1 -1.7 3.5 -1.1 5.2 0.5 1.3 0.8 6.5 0.7 11.6 -0.1 5.8 0.3 10.1 1.1 11.5 0.7 1.2 1.2 4.5 1.2 7.4 0 5.4 1.9 8.9 4.8 8.9 0.8 0 3.7 -2 6.4 -4.5z"/>
  <path d="M375.6 613.1 c-0.3 -0.5 -0.5 -2.7 -0.4 -4.8 0 -2.2 -0.2 -4.5 -0.6 -5.1 -0.4 -0.7 -0.3 -1.2 0.3 -1.2 0.5 0 1.2 0.4 1.5 0.9 1 1.5 7 1.9 11.2 0.6 5.7 -1.7 10.8 -6.6 12.3 -11.8 0.7 -2.3 1.9 -5.4 2.7 -6.9 0.8 -1.4 1.4 -4.8 1.4 -7.5 0 -2.6 0.4 -6.2 0.9 -8 1.1 -3.8 -0.4 -17 -2.6 -22 -1.4 -3.6 -6 -6.3 -10.6 -6.3 -5.9 0 -13.2 8.9 -12.4 15.1 0.6 4.8 0 5.5 -5.1 6.2 -5.3 0.7 -5.4 0.5 -5.7 -11.1 -0.1 -4.8 -0.6 -10.8 -1 -13.4 -0.9 -5.4 0.4 -7.8 4 -7.8 1.8 0 2.6 0.9 3.6 3.8 1.6 5.1 2.7 6.2 5.9 6.2 2.3 0 3 -0.7 4.5 -4.7 2.2 -5.7 5.9 -9.3 9.4 -9.2 6 0.1 13.1 7.3 13.1 13.3 0 1.8 0.9 5 2 7.1 1.7 3.2 2.1 6.1 2.2 15 0.1 12.9 -0.4 15.7 -4.7 26 -0.7 1.7 -2.8 6.6 -4.6 10.9 -4.4 10.5 -7 13.3 -13.8 14.6 -6.6 1.2 -12.8 1.3 -13.5 0.1z"/>
  <path d="M242 611.7 c-5.2 -1.8 -7.6 -7.5 -8.9 -21.7 -0.6 -6.3 -1.6 -14.3 -2.1 -17.6 -1.1 -6.8 -1.2 -19.6 -0.1 -23.4 1.1 -4.1 8.3 -7.2 15.7 -6.8 5.5 0.3 6.7 0.8 10.9 4.4 4.3 3.6 4.7 4.4 5 8.9 0.2 2.8 0.7 9.1 1.1 14 0.7 10.4 0.6 30 -0.2 36.3 -0.6 3.8 -0.9 4.2 -3.4 4.2 -1.5 0 -3.3 0.7 -4 1.5 -1.5 1.8 -8.9 1.9 -14 0.2z m8.7 -19.5 l5.2 -4.5 -0.3 -13.9 -0.3 -13.9 -3.2 -3 c-1.8 -1.6 -4.3 -2.9 -5.7 -2.9 -3.6 0 -8.2 3.8 -9 7.4 -1 4.2 -0.6 21.4 0.6 25.1 0.5 1.7 1.4 4.9 2 7.3 1 3.8 1.4 4.2 3.3 3.6 1.2 -0.4 4.5 -2.7 7.4 -5.2z"/>
  <path d="M245 588 c0 -1.1 0.6 -2 1.3 -2 1.9 0 2.7 1 2 2.6 -0.8 2.1 -3.3 1.7 -3.3 -0.6z"/>
  <path d="M187 607.9 c-1.9 -1 -4.2 -1.9 -5 -1.9 -0.8 0 -2.4 -0.7 -3.4 -1.5 -1.1 -0.8 -2.9 -1.5 -4 -1.5 -9.6 -0.2 -21.6 -11.3 -21.6 -19.8 0 -1.6 -0.7 -4.6 -1.6 -6.7 -1.2 -2.9 -1.4 -5.5 -0.8 -11.3 0.6 -7.1 0.9 -7.6 5.3 -12.2 2.5 -2.7 6.7 -5.8 9.3 -6.9 5.7 -2.4 14.8 -3.5 20.6 -2.4 l4.3 0.8 0.3 7.7 c0.2 4.2 1.1 9.9 2 12.5 0.8 2.6 1.7 9.5 2 15.3 0.3 5.8 0.8 14.2 1.2 18.7 1 11.4 -1 13.5 -8.6 9.2z m-3 -17.4 c0.8 -0.9 1 -3 0.6 -5.7 -0.3 -2.4 -0.6 -7.8 -0.7 -12 -0.5 -18.5 -5.6 -24.3 -17.1 -19.5 -5.6 2.3 -6.9 5.2 -7.5 16.4 -0.5 9.2 -0.4 10 1.9 13.3 1.3 1.9 2.7 4.3 3.1 5.3 0.4 1.1 1.8 1.7 3.9 1.8 1.8 0 4.2 0.4 5.3 0.9 3.3 1.4 9.1 1.1 10.5 -0.5z"/>
  <path d="M416.7 583 c0.9 -2.2 2.1 -4 2.6 -4 0.6 0 1.9 -0.7 2.9 -1.7 1.7 -1.5 1.8 -1.5 1.8 0.3 0 1.1 -1 2.4 -2.2 2.9 -1.6 0.7 -2.3 1.8 -2.3 3.8 0.1 2.1 -0.4 2.7 -2.1 2.7 -2.2 0 -2.2 -0.1 -0.7 -4z"/>
  <path d="M146 553.6 c0 -3.4 0.2 -3.6 3.2 -3.6 1.7 0 4 -0.8 5 -1.7 1.4 -1.2 1.7 -1.3 1.2 -0.2 -0.3 0.8 -2.6 3.1 -5 5.3 l-4.4 3.9 0 -3.7z"/>
  <path d="M157 546.2 c0 -0.8 4.3 -3.2 5.7 -3.2 0.3 0 -0.6 0.9 -2 2 -2.7 2.2 -3.7 2.5 -3.7 1.2z"/>
  <path d="M228 542 c0 -2.8 0.3 -3 3.5 -3 4.4 0 4.4 0.9 0 3.8 l-3.5 2.2 0 -3z"/>
  <path d="M236 537.4 c0 -2.1 0.5 -2.4 3.5 -2.4 2.2 0 3.5 0.5 3.5 1.3 0 0.8 -1.6 1.8 -3.5 2.4 -3.3 1.1 -3.5 1 -3.5 -1.3z"/>
  <path d="M291 534.1 c0 -2.9 0.2 -3.1 3.6 -3.1 4.2 0 4.1 1.3 -0.4 4.1 l-3.2 2.1 0 -3.1z"/>
  <path d="M182.2 497.5 c-4 -2.5 -7.7 -4.5 -8.2 -4.5 -1.7 0 -10 -9.3 -10 -11.2 0 -1 1 -2.3 2.2 -2.9 1.9 -1 2.5 -0.8 4.4 1.5 1.3 1.4 2.8 2.6 3.5 2.6 0.7 0 3 1.5 5.3 3.3 6.2 5.1 7.5 5.6 19 6.6 11.1 1.1 13.6 0.8 13.6 -1.6 0 -0.8 1.6 -2.1 3.6 -2.9 1.9 -0.8 5.5 -3.3 7.9 -5.5 l4.4 -4.1 1.6 3.8 c0.9 2.1 1.4 4.5 1.3 5.4 -0.4 1.8 -13 8.7 -21.9 11.8 -4.1 1.4 -8.7 2.2 -12.9 2.2 -6 0 -7.1 -0.4 -13.8 -4.5z"/>
  <path d="M313.3 500.6 c-2.8 -0.7 -6.3 -2 -7.7 -2.9 -1.4 -1 -3.1 -1.7 -3.8 -1.7 -1.4 0 -5.9 -8.1 -7.9 -14 -1.3 -4 -0.1 -12.1 1.9 -12.8 0.6 -0.2 1.6 0.7 2.2 2 0.5 1.3 1.5 3 2.2 3.9 1 1.4 0.7 2.1 -1.7 4.1 -1.6 1.4 -2.5 3 -2.1 3.6 1 1.7 2.1 1.5 5.3 -1.2 2.8 -2.3 2.8 -2.3 5.8 -0.5 7.8 4.8 16.2 8.2 20 8.2 5.4 0 8.5 -1.8 8.5 -4.8 0 -2 0.7 -2.6 4.3 -3.6 6.7 -1.8 9.4 -3.6 15.9 -10.4 5 -5.4 6.5 -6.4 8.4 -5.9 2.9 0.7 5.5 -1.1 4.7 -3.3 -0.4 -1 -1.4 -1.3 -3.3 -0.9 -3.7 0.7 -4.1 0.1 -2.6 -4.2 1.2 -3.3 1.6 -3.7 4.3 -3.4 2.1 0.2 3.2 -0.2 3.7 -1.3 0.9 -2.5 -0.2 -3.6 -3 -2.9 -2.2 0.6 -2.4 0.3 -2.4 -2.5 0 -2.1 0.6 -3.3 1.8 -3.7 3.4 -1.1 4.7 -2.1 5 -4.1 0.4 -2.4 -2.5 -3.8 -4.4 -2.2 -2.2 1.8 -4.4 0.3 -4.4 -3.1 0 -1.6 0.5 -3 1.2 -3 2.4 0 9.9 4.3 11.8 6.7 2.6 3.3 2.5 4.1 -0.5 5.5 -1.4 0.6 -2.5 1.7 -2.5 2.5 0 1.8 4 1.6 6.2 -0.4 1 -0.9 2.1 -1.3 2.5 -1 0.3 0.4 0.6 5.3 0.6 10.9 0 9.6 -0.2 10.7 -3.3 16.8 -6.2 12.2 -9.5 15 -18.4 15 -5.8 0.1 -15 2.4 -18.8 4.8 -1.8 1.2 -5.3 4.1 -7.8 6.6 -4.3 4.5 -4.6 4.6 -10.5 4.5 -3.3 0 -8.3 -0.6 -11.2 -1.3z m62.5 -32.8 c0.4 -3.1 -1.2 -3.7 -4.3 -1.4 -2.5 1.8 -1.3 4.9 1.7 4.4 1.7 -0.2 2.4 -1.1 2.6 -3z"/>
  <path d="M193.4 484.1 c-6.3 -0.6 -8.6 -1.9 -16.6 -9.4 -4.3 -3.9 -4.4 -4.4 -2.4 -12 3.1 -11.8 8.2 -18.7 18.1 -24.2 7.5 -4.2 12.3 -4.9 21.1 -3.4 8.9 1.5 10 2.1 11.5 6.6 0.6 2.1 1.8 4.8 2.6 5.9 2.4 3.7 0.6 14.7 -3.4 22.1 -3.7 6.7 -5.7 8.5 -14 12.7 -5.3 2.7 -6.2 2.7 -16.9 1.7z m16.4 -13.7 c2.6 -1.8 2.8 -5.2 0.6 -11.7 -1.6 -4.7 -7.2 -10.7 -9.9 -10.7 -5.1 0 -10.5 6.4 -10.5 12.4 0 6 2.3 9.3 7.2 10.4 6.5 1.5 10.1 1.4 12.6 -0.4z"/>
  <path d="M324 481.5 c-2.5 -1.3 -5.3 -2.4 -6.2 -2.5 -2.7 0 -10.1 -8.7 -11.9 -13.8 -2.5 -7.2 -1 -19.6 3.2 -26.5 3.3 -5.5 9 -10.2 13.6 -11.3 1.6 -0.3 5 -1.3 7.6 -2.2 6.6 -2 13.7 -1.1 18.2 2.5 4.2 3.4 8.5 12.8 8.5 18.7 0 11.6 -9.6 26 -19 28.6 -6.1 1.6 -7.2 2.7 -6.5 6.2 0.8 3.6 -1.2 3.7 -7.5 0.3z m10.3 -13.3 c0.9 -1 2.3 -3.5 3.2 -5.6 1.5 -3.6 1.5 -4.2 -0.5 -10.7 -2.8 -8.9 -5.4 -11 -10.2 -8.2 -3.7 2.2 -9.7 11.6 -9.8 15.4 0 3.7 2.9 6.9 8.1 8.9 5.8 2.3 7.3 2.4 9.2 0.2z"/>
  <path d="M229.5 476.8 c1.2 -4.3 4.1 -7.3 7.2 -7.6 3.9 -0.4 5.1 -4.4 2.2 -7.3 -2.4 -2.4 -2.4 -3.4 0.2 -7 2.4 -3.5 5.4 -3.8 6.3 -0.6 1.3 5.1 0.6 13.3 -1.6 17.7 -2 3.9 -2.7 4.5 -5.2 4.3 -1.6 -0.1 -3.8 0.4 -5 1.2 -3.1 2.2 -4.9 1.9 -4.1 -0.7z"/>
  <path d="M459.7 474.3 c-1 -0.9 -0.8 -6.6 0.2 -8.2 1.6 -2.4 2.6 -0.4 2.3 4.3 -0.4 4.4 -1 5.4 -2.5 3.9z"/>
  <path d="M445.4 435.5 c-2.1 -5.1 -1.8 -7.7 0.5 -3.9 2.6 4.2 3.5 7.4 2.1 7.4 -0.6 0 -1.8 -1.6 -2.6 -3.5z"/>
  <path d="M448.4 432.4 c-1.2 -2.7 -1.2 -3.9 -0.4 -4.8 1.6 -1.5 4 1.9 4 5.6 0 3.9 -1.8 3.5 -3.6 -0.8z"/>
  <path d="M63.2 411 c0 -1.9 0.2 -2.7 0.5 -1.7 0.2 0.9 0.2 2.5 0 3.5 -0.3 0.9 -0.5 0.1 -0.5 -1.8z"/>
  <path d="M289 325.1 c-7.6 -0.8 -9 -1.5 -9 -4.2 0 -2.9 -2.8 -3.5 -6.7 -1.4 l-3.4 1.9 -2.9 -3.2 c-2.8 -3.1 -5.4 -3.4 -7.1 -0.9 -0.9 1.3 -5.9 0 -5.9 -1.5 0 -0.6 0.7 -1.9 1.5 -2.8 1.9 -2.1 1 -5 -1.6 -5 -2 0 -4.9 3.6 -4.9 6.2 0 2.7 -4.3 2.3 -7.9 -0.8 -2.6 -2.2 -3.8 -2.5 -6.7 -1.9 -4.3 0.8 -6.4 -0.7 -6.4 -4.5 0 -3.1 -3.4 -8 -5.6 -8 -0.8 0 -2.3 -1.5 -3.4 -3.2 -2.8 -4.7 -2.8 -16.1 0.2 -23.1 2.6 -6.3 8.7 -14.6 13.3 -18.1 3.1 -2.4 3.5 -2.5 4.9 -1 1.7 1.6 9.9 2.5 11.2 1.1 0.4 -0.4 0 -2.1 -0.9 -3.6 -0.9 -1.6 -1.7 -3.1 -1.7 -3.4 0 -0.8 12.7 -6.8 16.3 -7.8 1.8 -0.4 6.4 -1.9 10.4 -3.2 4.5 -1.6 11.5 -2.9 18.9 -3.6 11.6 -1 11.8 -1 14.9 1.3 1.7 1.3 4.2 2.6 5.5 2.8 2 0.2 2.6 -0.3 3.4 -3 0.9 -3.3 1 -3.4 5.5 -2.7 2.5 0.3 5.8 1.5 7.3 2.6 3.3 2.3 4.2 2.4 7.3 0.3 2.8 -1.8 5.6 -1.2 10.2 2.2 1.7 1.3 3.8 2.4 4.5 2.4 0.8 0 2.3 0.6 3.3 1.4 1.5 1 1.7 1.7 0.8 2.7 -2 2.6 -2.5 7.5 -0.8 8.9 1.8 1.5 2 3 0.2 3 -0.7 0 -2.2 0.6 -3.2 1.4 -1.9 1.4 -1.9 1.5 0.5 3.5 2.4 2 6 2.7 7.3 1.5 0.3 -0.4 0 -1.9 -0.8 -3.5 -0.9 -1.6 -1.1 -3 -0.5 -3.4 1.5 -0.9 2.8 2.7 3.2 9 0.3 5.9 0.2 6 -2.2 5.7 -1.4 -0.1 -3.1 0.2 -3.9 0.7 -1.2 0.8 -1 1.5 1.2 4.5 2.9 3.8 3.3 6.6 1.6 11.5 -0.9 2.6 -1.6 3.1 -4.3 3.1 -2.2 0 -3.4 -0.6 -4.1 -2.2 -1.4 -3 -5 -4.1 -7 -2.1 -1.5 1.4 -1.4 1.7 0.1 3.4 0.9 1.1 2.8 1.9 4.1 1.9 2.1 0 2.3 0.4 2.3 5.8 0 5.7 -0.1 5.9 -3.5 7.8 -3.4 1.8 -3.5 1.8 -4.8 0 -1 -1.3 -2 -1.6 -3.5 -1.2 -2.2 0.7 -3.9 4.7 -2.8 6.4 0.3 0.5 -0.1 1.6 -1 2.3 -1.9 1.6 -11.6 4.9 -12.5 4.3 -1.2 -0.7 -5.9 1.8 -5.9 3.1 0 1.2 -12 6.5 -16 7 -1.4 0.2 -5.4 0 -9 -0.4z m6 -7.5 c0 -4.4 -6 -6.4 -6.8 -2.3 -0.6 3.2 0.6 4.7 3.8 4.7 2.5 0 3 -0.4 3 -2.4z m33.4 -26.2 c1.1 -2.9 0.6 -8.1 -0.9 -9.4 -0.8 -0.6 -1.7 -2.1 -2.1 -3.3 -2.1 -6.6 -10.7 -14.7 -17.2 -16.3 -1.5 -0.4 -3.7 -1.3 -4.8 -2.1 -1.2 -0.8 -6.3 -1.9 -11.4 -2.5 -11.5 -1.4 -18.1 -0.3 -29.6 5.2 -10.1 4.8 -14.6 8.6 -18 15.6 -1.4 3 -3 5.4 -3.5 5.4 -1.6 0 -0.9 2.9 0.9 3.9 2.6 1.4 6.7 -1.4 12.2 -8.2 4.5 -5.6 5.3 -6.1 14.5 -9.2 12.7 -4.3 17.5 -4.3 28.5 0 1.9 0.7 4.7 1.6 6.2 1.9 3.9 0.9 11.9 8.1 14.9 13.5 1.4 2.6 2.9 5.3 3.3 5.9 1.1 1.8 6.3 1.5 7 -0.4z m-94.4 -21.9 c0 -0.8 -1.3 -2.1 -2.9 -2.9 -2.6 -1.4 -3 -1.4 -4.6 0.4 -2.3 2.6 -1.1 4 3.6 4 2.8 0 3.9 -0.4 3.9 -1.5z m110.8 -4.8 c0.6 -0.6 1.3 -2.4 1.7 -3.9 0.9 -3.6 -1.7 -4.8 -4.5 -2.3 -2.6 2.4 -2.7 7.5 -0.1 7.5 1 0 2.3 -0.6 2.9 -1.3z m-76.1 -16.3 c0.9 -2.4 -3.5 -5.5 -7.2 -5.2 -2.2 0.2 -3.1 0.9 -3.3 2.4 -0.2 1.6 0.5 2.3 3 3.1 4.8 1.6 6.8 1.5 7.5 -0.3z m24.7 -3.9 c3.3 -3.4 -1.9 -7.7 -6 -5 -2.5 1.6 -2.8 2.3 -1.6 4.1 1.6 2.5 5.5 2.9 7.6 0.9z"/>
  <path d="M137.6 269.3 c0.9 -6.5 1.4 -6.7 1.4 -0.5 0 3 -0.4 5.2 -1.1 5.2 -0.7 0 -0.8 -1.6 -0.3 -4.7z"/>
  <path d="M133 268.4 c0 -3.1 2.3 -2.8 2.8 0.4 0.2 1.5 -0.2 2.2 -1.2 2.2 -1.1 0 -1.6 -0.9 -1.6 -2.6z"/>
  <path d="M153.4 107.6 c-0.8 -2.2 0.3 -3.5 2.6 -2.9 1.2 0.3 2 1.2 1.8 2.2 -0.4 2.1 -3.6 2.7 -4.4 0.7z"/>
  <path d="M119 106.3 c-8.7 -2.7 -9.4 -3.4 -10 -8.8 -0.3 -2.8 -0.9 -5.6 -1.3 -6.2 -1 -1.5 -4.3 -1.7 -5.2 -0.3 -1.1 1.7 -3.1 1.1 -4.2 -1.2 -2 -4.3 -15.2 -17.5 -21.2 -21.3 -6.5 -4.1 -8.2 -7.2 -3.4 -6.1 3.2 0.9 4.3 -0.5 4.3 -5.5 0 -5.2 -4.7 -8.8 -7.6 -5.9 -0.5 0.5 -1.9 1.1 -3.1 1.3 -1.3 0.2 -2.6 0.6 -2.9 1 -1.6 1.6 -3.3 0.4 -5.3 -3.6 -1.5 -3.2 -3.2 -4.8 -6.1 -6.1 -2.1 -0.9 -5.3 -3.4 -6.9 -5.5 -4 -5 -11.1 -22.5 -11.1 -27.1 0 -2.7 -0.8 -4.3 -3 -6.5 -1.6 -1.6 -3 -3.2 -3 -3.7 0 -0.4 7 -0.8 15.5 -0.8 l15.4 0 1.1 4 c0.5 2.2 1.4 5.7 2 7.8 0.5 2.2 1.8 4.6 2.8 5.5 1.8 1.6 2 1.6 3.6 -0.2 1.5 -1.7 1.6 -2.6 0.6 -8.1 -0.6 -3.4 -1.4 -6.8 -1.7 -7.6 -0.4 -1.2 1.2 -1.4 9.7 -1.4 8.1 0 10 0.3 9.2 1.3 -0.6 0.7 -0.7 3.1 -0.2 6.2 0.4 2.8 1.1 7.9 1.4 11.5 1.4 13.5 7.4 28.1 15.6 37.7 6.2 7.3 6.4 9.2 0.8 11.8 -5 2.3 -6.2 5.7 -2.8 7.5 1.7 0.9 2.6 0.7 5 -1 1.6 -1.1 3.2 -2.9 3.5 -4 0.9 -2.9 1.9 -2.5 5 2.1 3.5 5 14 13.9 16.5 13.9 2.2 0 4.3 -2.4 3.8 -4.6 -0.2 -1 -2.9 -3.5 -6.1 -5.7 -6.2 -4.2 -13 -12.6 -24.7 -30.2 -6.4 -9.8 -6.6 -10.3 -8.8 -22.3 -1.3 -6.8 -2.1 -13.5 -1.8 -15 0.4 -1.5 0.2 -4.2 -0.3 -5.9 l-1 -3.3 214.5 0 214.4 0 1 2.6 c0.9 2.3 1.4 2.6 4.3 2 1.7 -0.3 4 -1.5 4.9 -2.6 1.6 -1.9 2.6 -2 24.3 -1.8 l22.6 0.3 -2.3 3.5 c-1.3 1.9 -4.5 4.9 -7.1 6.5 -2.7 1.7 -8.5 6.7 -12.9 11.3 -4.5 4.5 -10.4 10 -13.3 12.2 -3.7 2.8 -6.3 6.2 -9.7 12.2 -4.9 8.8 -9.7 14.4 -15.6 18.2 -2.1 1.3 -6.4 4.7 -9.7 7.6 -3.3 2.8 -9.6 7.6 -14 10.6 -4.4 3 -10.6 7.3 -13.8 9.6 -5.5 3.9 -6 4.1 -9.1 3 -2.6 -1 -4 -1 -6.2 -0.1 -1.6 0.7 -4.2 1.1 -5.8 1 -1.7 -0.1 -4.2 0.9 -6.2 2.4 -1.8 1.4 -4.3 2.5 -5.6 2.5 -1.3 0 -3.2 0.7 -4.2 1.5 -2.4 1.8 -9.6 2 -11.8 0.3 -1.9 -1.6 -2.9 -5.5 -3.2 -12.6 -0.1 -3.8 -0.8 -5.8 -2.3 -7.3 -1.9 -2 -2.3 -2 -6.4 -0.6 -9.6 3.2 -9.9 3.1 -9.9 -0.8 0 -4.2 -2.2 -5.1 -10.4 -4 -5 0.6 -5.6 0.4 -6.6 -1.6 -0.7 -1.2 -2.4 -3.2 -3.9 -4.5 l-2.6 -2.2 2.3 -2.9 c4.2 -5.3 5.7 -9 4.2 -10.8 -1.9 -2.3 -4.3 -1.8 -9.4 2.2 l-4.7 3.6 -4.7 -4.5 c-2.6 -2.6 -7.6 -6.3 -11.2 -8.4 -3.6 -2.1 -11.1 -7.3 -16.8 -11.5 -5.6 -4.3 -11.7 -8.5 -13.5 -9.2 -1.8 -0.8 -4.5 -2 -6.2 -2.7 -1.7 -0.7 -8.8 -1.5 -16.1 -1.8 -14 -0.5 -11.6 -0.9 -40.8 7.6 -1.7 0.5 -1.8 0.1 -1.3 -3.4 0.9 -5.6 -0.3 -7 -4.9 -5.8 -4.3 1 -5.5 2.9 -2.5 3.9 2 0.6 3.8 5.6 2.6 7.4 -0.5 1 -19.8 11.1 -21 11.1 -1.2 0 0.8 -7.6 2.6 -9.6 2.7 -2.9 2.4 -3.7 -1.3 -3 -6.3 1.3 -8.5 5.4 -4.8 9.4 2.5 2.7 2.5 3.4 -0.2 5.1 -1.9 1.2 -2.4 1 -6 -2.7 -3.9 -4.1 -6.4 -4.6 -8.9 -1.6 -0.9 1.1 -0.5 2 2 4.3 1.7 1.6 3.1 3.6 3.1 4.5 0 0.9 -1.8 2.9 -4 4.4 -2.2 1.5 -7.1 5.1 -10.9 8 -3.8 2.8 -7.3 5.2 -7.8 5.2 -1.8 0 -5.8 -5.2 -6.8 -8.7 -1.3 -4.7 -4.4 -6.8 -7 -4.9 -1.8 1.3 -1.8 1.7 -0.5 5.6 0.8 2.3 2.9 6.1 4.7 8.4 1.8 2.2 3.3 4.6 3.3 5.2 0 1.5 -13.2 13.9 -23.4 21.9 -6.5 5 -9 6.5 -9.9 5.6 -0.6 -0.6 -2.1 -1.1 -3.3 -1.1 -1.2 0 -3.9 -1.6 -6 -3.5 -4.6 -4.2 -10.5 -7.5 -13.3 -7.5 -1.1 0 -2.5 0.9 -3 1.9 -0.9 1.5 -0.6 2.2 1.4 3.5 3.4 2.3 3.2 3.2 -1.6 5.6 -5 2.6 -7.1 2.3 -7.6 -1 -0.6 -4.2 -1.1 -5 -3.7 -5 -5.6 0 -7.7 6.4 -2.6 8.1 3.7 1.3 3.9 3.6 0.4 4.9 -2.9 1.1 -2.5 1.2 -8.4 -0.7z m60.1 -16.6 c3.4 -2.9 4.8 -5.5 4.2 -7.8 -0.7 -2.7 -1.8 -2.4 -5.7 1.6 -2 1.9 -4 3.5 -4.6 3.5 -0.5 0 -2.9 -1.3 -5.1 -3 -3.9 -2.8 -4.3 -2.9 -7 -1.4 -1.6 0.8 -2.9 1.8 -2.9 2.3 0 2.5 9.5 7 15 7 2.3 0.1 4.4 -0.7 6.1 -2.2z m277.9 -10.2 c1.4 -1.7 0.4 -5.5 -1.5 -5.5 -0.7 0 -2.3 0.8 -3.6 1.9 -2 1.6 -2.1 2.1 -1 3.5 1.7 2 4.5 2.1 6.1 0.1z m-17.4 -12.9 c1.6 -1.3 4.3 -3.6 5.9 -4.9 3.8 -3.2 2.9 -4.2 -1.8 -2.2 -2 0.8 -4 1.4 -4.4 1.3 -3.7 -1 -7.5 4 -5.3 6.7 1.7 2 2.3 1.9 5.6 -0.9z m-33.8 -3.7 c-0.4 -3.8 -2.6 -5.4 -6.1 -4.5 -3.4 0.8 -3.4 2.4 0.1 5.3 4.1 3.4 6.4 3 6 -0.8z m77 -3.5 c0.2 -1.1 -0.6 -3.1 -1.6 -4.5 -1.8 -2.2 -2.2 -2.2 -4.6 -1 -2.8 1.6 -3.2 3.1 -1.5 6.2 1.5 2.8 7.3 2.3 7.7 -0.7z m21.6 -2 c1.9 -1.9 1.9 -1.7 0.4 -4.9 -1 -2.2 -1.6 -2.5 -3.7 -2 -3.9 1 -4.5 2 -3.1 5.4 1.4 3.4 3.9 4 6.4 1.5z m16.6 -10.3 c0 -0.5 0.3 -1.6 0.6 -2.5 0.5 -1.2 0 -1.6 -1.8 -1.6 -3.1 0 -6.3 2.3 -5.4 3.8 0.8 1.4 6.6 1.6 6.6 0.3z m-388.1 -5 c1.2 -2.2 0.4 -5.3 -3.9 -14.6 -6.3 -13.6 -6.9 -15 -7.6 -17.8 -0.3 -1.5 -1.3 -3.1 -2.2 -3.6 -1.9 -1.1 -6.2 0.7 -6.2 2.5 0 0.6 1.7 5 3.9 9.6 2.1 4.5 4.7 10.3 5.7 12.7 2.4 5.8 7.1 13.1 8.3 13.1 0.6 0 1.5 -0.8 2 -1.9z m30.1 -4.6 c0.5 -1.4 1.4 -2.5 2 -2.5 2.1 0 0.9 -2 -1.6 -2.6 -3.4 -0.9 -7.4 1.3 -7.4 4.1 0 2.8 0.8 3.5 3.7 3.5 1.6 0 2.7 -0.8 3.3 -2.5z m244.8 -1.1 c2.7 -1.9 2.8 -4.5 0.3 -6.8 -1.7 -1.6 -2.2 -1.6 -5.5 -0.2 -2.7 1.1 -3.6 2.1 -3.6 3.8 0 4.6 4.5 6.3 8.8 3.2z m52.6 -1.7 c2.7 -2 0.4 -3.1 -3.8 -1.7 -3.8 1.2 -5.4 3.7 -2.8 4.3 1.8 0.4 3.5 -0.3 6.6 -2.6z m-270.1 -9.4 c1.3 -0.8 0.7 -2 -1.7 -3.6 -2 -1.3 -2.9 -1.4 -5 -0.4 -2.9 1.3 -3.2 2.1 -1.3 4.2 1.1 1.3 5.6 1.2 8 -0.2z m324.5 -8.3 c0.1 -0.9 -0.3 -2.3 -1 -3.3 -1.1 -1.5 -1.7 -1.6 -4 -0.5 -2.7 1.2 -3.6 3.7 -2.1 5.2 1.3 1.3 6.8 0.2 7.1 -1.4z m-45.3 -5.8 c2 -1.4 4.6 -6.4 4.1 -7.8 -0.8 -2.2 -5.3 -1.7 -7 0.8 -3.3 4.6 -1 9.9 2.9 7z"/>
  <path d="M413 95.5 c-1.5 -1.8 -0.7 -3.1 3.1 -5 5 -2.6 6.5 -0.3 2.5 3.9 -2.7 3 -3.9 3.2 -5.6 1.1z"/>
 </g>
 <g fill="#ffffff">
  <path d="M298 697.8 c-4.1 -0.6 -8.1 -1.9 -11.1 -3.8 -2.6 -1.6 -6.6 -3.4 -8.9 -4.1 -4 -1.2 -4.1 -1.4 -3.5 -4.7 0.5 -2.7 0.2 -3.9 -1.6 -5.8 -4.1 -4.4 -10.8 -1.9 -8.9 3.2 0.5 1.2 0.7 2.4 0.4 2.6 -1.2 1.3 -16.5 -3.8 -27.9 -9.2 -4.4 -2.1 -10.2 -4.7 -13 -5.7 -5.6 -2.2 -30 -8.4 -32.9 -8.3 -2.2 0 -28 -11.1 -40.5 -17.4 -7.2 -3.6 -8.8 -4.9 -11.3 -9.2 -3.3 -5.7 -5.8 -10.9 -5.8 -12.3 0 -0.6 -1.6 -3.6 -3.5 -6.8 -3.6 -5.9 -4.3 -8.3 -2.5 -8.3 1.9 0 1 -3.3 -2 -7.4 -8.3 -11.3 -9.8 -13.5 -13.3 -19.2 -4.3 -7.2 -15 -34 -20.6 -52 -2.5 -7.9 -4.8 -18.5 -6.1 -27.4 -1.2 -8 -2.8 -18.1 -3.6 -22.5 -6 -33.3 -5.7 -75.6 0.8 -102.7 0.6 -2.7 1.7 -4.2 3.8 -5.3 3.5 -1.8 3.7 -2.8 1.1 -6.1 -1.9 -2.4 -1.9 -2.4 2.1 -10.2 11.6 -22.4 15.4 -28.3 20.2 -30.9 2.7 -1.4 3 -1.4 6 1.6 l3.2 3.1 1.3 -4.6 c0.7 -2.5 1.4 -7.3 1.5 -10.7 0.3 -9.1 2.7 -23.6 4.7 -28.5 1.4 -3.1 2.8 -4.7 5.3 -5.7 2 -0.8 4 -2.4 4.6 -3.6 1.7 -3 2.4 -15.9 1.1 -19.2 -0.9 -2.3 -1.6 -2.7 -5 -2.7 -9.8 0 -2.9 -7.3 7.3 -7.6 3.4 -0.2 6.6 -0.3 7.1 -0.3 0.6 -0.1 2.5 -2 4.4 -4.3 l3.5 -4.1 -8.3 0.6 c-8.1 0.5 -14.1 -0.5 -14.1 -2.4 0 -2.5 3.1 -7.9 5.4 -9.4 1.9 -1.3 2.6 -2.6 2.6 -4.9 0 -2.7 0.8 -3.8 4.5 -6.4 3.2 -2.2 5.7 -3.2 8.4 -3.2 2.4 0 4.3 -0.6 5.3 -1.7 1.9 -2.3 1.5 -8.9 -0.8 -11.4 -0.9 -1 -1.5 -2.1 -1.3 -2.3 1.4 -1.3 12.2 -6.6 13.5 -6.6 2.1 0 2.9 2.7 1.5 5.7 -0.6 1.4 -1 2.7 -0.8 3 0.6 0.5 4.3 -5.6 5.2 -8.6 0.7 -2.3 0.6 -2.4 -3.3 -1.9 -2.3 0.3 -5.5 1.3 -7.3 2.2 -1.8 0.9 -3.6 1.6 -4.1 1.6 -1.9 0 -18.6 8.8 -20.7 10.9 -2 2 -4.1 2.8 -4.1 1.5 0 -0.4 1.2 -2.8 2.6 -5.4 1.7 -3 3.8 -5.3 6 -6.4 1.9 -0.9 4.3 -3.1 5.4 -4.8 4.5 -7.6 15.2 -13.8 23.8 -13.8 3.9 0 5.6 -0.6 9 -3.2 4.9 -3.8 6.2 -6.6 3.7 -8.4 -1.3 -1 -2.5 -1 -5.8 0.2 -4.1 1.5 -4.2 1.4 -6.2 -1.1 -1.2 -1.4 -2.7 -2.5 -3.5 -2.5 -2.6 0 -7.5 3.6 -13.7 9.9 -3.4 3.4 -6.6 6.1 -7.2 6.1 -0.7 0 -2 -1.4 -2.9 -3.1 -0.9 -1.7 -2.6 -4.3 -3.8 -5.8 -4.8 -5.9 -8.4 -14.5 -8.4 -19.8 0 -6.1 1.4 -10.3 3.4 -10.3 0.7 0 1.9 -0.7 2.6 -1.5 0.7 -0.8 3.1 -2 5.4 -2.6 2.2 -0.6 6 -2.2 8.3 -3.5 3.4 -1.9 4.4 -3.2 4.9 -6.1 0.4 -2.3 1.8 -4.6 3.7 -6.2 1.6 -1.3 3.4 -3 4.1 -3.6 0.6 -0.6 2.6 -1.5 4.5 -1.8 4 -0.8 7.9 -4 20.8 -16.5 5.2 -5.1 11.8 -11.1 14.6 -13.4 2.9 -2.2 5.7 -4.8 6.4 -5.8 0.7 -1 4.1 -3.2 7.5 -5 3.5 -1.8 7.5 -4.1 9 -5.1 1.4 -1.1 3.2 -1.9 4 -1.9 0.8 0 2.5 -1.1 3.8 -2.5 1.3 -1.4 3 -2.5 3.7 -2.5 2.1 0 11.2 -4.8 16.6 -8.7 2.6 -1.9 8.2 -4.7 12.5 -6.2 4.2 -1.5 8.7 -3.3 9.9 -3.9 3.1 -1.7 12.8 -1.8 26.6 -0.3 15.8 1.7 22.4 4.8 35.8 16.8 5.3 4.8 11.6 10.2 13.9 11.8 7.6 5.4 26 26.8 26 30.2 0 0.7 -0.9 1.8 -2 2.5 -2.5 1.6 -2.5 3.6 -0.1 6.6 2.2 2.6 4.1 2.8 8.1 0.7 2.9 -1.5 3 -1.4 7.7 3.3 2.9 2.9 7.4 6 11.3 7.7 8.7 4 11 5.4 15.6 9.5 6.4 5.9 9.3 11 11.1 19.7 1.6 7.8 1.6 8 -0.5 12.3 -1.2 2.5 -4.8 7.2 -8 10.6 -3.2 3.3 -7.1 7.7 -8.6 9.7 -2.4 3.1 -3.4 3.7 -6.7 3.7 -4 0 -8.9 1.7 -8.9 3.2 0 0.5 1.1 2.5 2.4 4.6 1.2 2 2.6 4.8 3.1 6.2 0.4 1.4 2 4.5 3.6 7 4.8 7.6 6 11.6 5.3 16.8 -1 7.5 -3.4 11.6 -6.9 12 -3 0.3 -3 0.4 -3 6.1 0 3.4 0.6 6.5 1.4 7.5 0.7 0.8 1.1 2.3 0.7 3.1 -1 2.7 0.5 4.5 3.6 4.5 2.7 0 3 0.3 2.4 2.4 -0.3 1.4 -0.2 2.8 0.4 3.1 1.7 1 1.1 6.3 -0.7 7.4 -1.5 0.9 -1.6 1.2 -0.4 2 1.7 1.1 1.2 7.4 -2 26.9 -2.6 16.2 -2.7 16 8.3 34.5 4.3 7.3 8.4 15 9.1 17.2 1.7 5.8 1.4 24.2 -0.5 29.6 -0.9 2.4 -1.9 5.6 -2.2 7.2 -0.4 1.5 -2.4 4.6 -4.6 6.9 -5.8 5.9 -6.6 10.8 -1.7 10.8 1.3 0 3.2 -1.4 4.7 -3.5 1.4 -1.9 2.9 -3.3 3.3 -3.2 0.8 0.2 5.6 13.2 5.7 15.5 0 0.6 -1.1 1.2 -2.4 1.2 -4.6 0 -7.8 1.8 -7.4 4.3 0.2 1.8 1 2.2 3.9 2.3 2 0 5.7 0.6 8.2 1.4 3.9 1 4.7 1.7 4.7 3.7 0 1.3 0.7 2.6 1.5 2.9 1.7 0.7 4.8 5.8 6.4 10.6 0.6 2 2.1 4.4 3.1 5.3 1.5 1.3 2 3.1 2 6.4 0 5.2 -0.9 9.1 -2 9.1 -0.4 0 -2.4 -2.5 -4.4 -5.6 l-3.7 -5.5 2.3 -1.8 c2.1 -1.8 2.1 -1.9 0.5 -4.5 -1 -1.4 -2.3 -2.6 -3.1 -2.6 -2.2 0 -4.6 3.4 -4 5.7 0.4 1.5 0 2.6 -1.5 3.5 -2.6 1.6 -2.6 3.5 0 7.3 1.1 1.7 2.4 4 2.9 5.2 0.5 1.1 2.7 3.1 5 4.4 3.5 2 4 2.7 3.5 4.7 -0.4 1.6 0 3.1 1.1 4.3 2.1 2.4 1.1 4.9 -2 4.9 -4 0 -7.8 2.1 -7.1 3.9 0.4 0.9 0.9 3.9 1.2 6.6 0.5 4.9 2.5 9.5 4.1 9.5 3.1 0 5 -3.8 7 -13.9 0.4 -1.9 1.2 -3.6 1.8 -3.8 0.8 -0.3 1.4 3.2 2 10.4 1 12.2 1 12.4 -0.1 17.6 -0.6 3.1 -0.5 3.7 1 3.7 1.4 0 1.5 0.6 1 3.3 -0.4 1.7 -1.5 4 -2.4 5.1 -1.7 2 -1.8 1.9 -3.7 -11.9 -1.3 -8.4 -5.3 -9 -8.8 -1.2 -1.3 2.8 -3.7 6.9 -5.4 9 -3.4 4.2 -3.3 6.7 0.4 6.7 3.5 0 4 2.5 1.2 6.3 -3.6 4.8 -6.8 13 -6.8 17.5 0 3.5 0.4 4.1 3 5.2 1.7 0.7 3 1.9 3 2.7 0 2.2 -8.1 21.3 -10.6 25.1 -1.6 2.5 -2.3 2.9 -2.7 1.8 -0.4 -0.9 -1.8 -1.8 -3.2 -2.2 -2.6 -0.6 -3.2 -1.8 -1.5 -2.9 1.5 -0.9 1.2 -6.5 -0.3 -6.5 -0.9 0 -1.4 -1.2 -1.4 -3.2 0 -7 -1.6 -19.4 -2.9 -21.8 -0.7 -1.4 -1.8 -5.5 -2.4 -9 -2.7 -15.1 -14.9 -22 -27.1 -15.4 -4.7 2.6 -4.9 2.6 -8.4 1 -5.6 -2.7 -14.1 -1 -19.2 3.7 -2.5 2.2 -3.1 7.4 -1.2 10.8 0.6 1.1 1.2 6.6 1.4 12.2 0.6 14.2 1.4 18.5 3.9 20.2 2.6 1.9 4.8 1.9 14.4 -0.1 9 -1.8 10.4 -3.1 9 -7.8 -1.3 -4 -0.6 -7.5 2.1 -10.7 l2 -2.4 2.3 2.3 c2.2 2.2 2.3 2.9 2.2 16 0 10.8 -0.4 14.8 -1.9 18.7 -2.8 7.5 -6.2 11.5 -9.7 11.5 -2.9 0 -4.8 -1.6 -9.6 -7.9 -2.7 -3.6 -6.1 -4 -8.6 -1.2 -1.5 1.6 -1.7 3.2 -1.2 10.3 0.4 4.5 0.8 11 0.9 14.3 0.3 5.7 0.5 6 3.8 7.3 3.9 1.6 9.8 1.9 18.1 0.8 4.9 -0.6 6.7 -1.5 11.6 -5.6 3.2 -2.6 6.3 -5.9 6.9 -7.2 1.2 -2.5 6.2 -14.7 9 -22 1.6 -4.3 3.7 -6.7 3.1 -3.5 -0.4 2.4 1.4 5.8 3.7 6.7 2.1 0.8 2.3 1.3 1.5 4.1 -0.5 1.8 -1.8 4.2 -2.8 5.3 -1 1.2 -2.5 3.7 -3.2 5.6 -0.7 1.9 -2.7 5.8 -4.5 8.5 -1.8 2.8 -4.1 6.4 -5.1 8.1 -4.1 6.9 -19.7 24.2 -26.4 29.4 -3.9 3 -9 7.1 -11.3 9.1 -2.3 2 -6.3 5 -8.8 6.7 -2.6 1.7 -6.5 5.3 -8.8 8 -6.2 7.5 -19.7 17.2 -23.8 17.2 -0.8 0 -3 0.9 -4.7 1.9 -2.9 1.8 -17.2 6.2 -19.2 6 -0.5 -0.1 -3.8 -0.6 -7.4 -1.1z m2.8 -14.6 c-0.4 -3.4 -3.7 -4.1 -6.1 -1.4 -3.1 3.4 0.4 7.1 4.6 5 1.2 -0.6 1.7 -1.8 1.5 -3.6z m36.8 -14.4 c0.7 -2 1 -4.6 0.7 -5.6 -0.5 -1.9 -0.6 -1.9 -3.3 -0.4 -2.9 1.7 -4 3.8 -4 8 0 1.9 0.5 2.3 2.7 2 2 -0.2 2.9 -1.1 3.9 -4z m-13.9 -47.2 c5.1 -0.3 6.9 -1 10.2 -3.6 2.2 -1.8 4.3 -4 4.6 -4.9 0.8 -1.9 2 -27.7 1.8 -36.6 -0.3 -12.9 -2 -28.2 -3.4 -31.5 -0.9 -1.9 -2 -4.8 -2.5 -6.5 -1.5 -4.8 -5.1 -5.9 -19.9 -6.1 -12.5 -0.2 -18.5 0.6 -21.2 3 -0.7 0.6 -1.9 1.6 -2.7 2.3 -2.4 2 -3.8 11.8 -4 27.7 -0.5 32.1 3.4 50.5 11.6 55.6 3.4 2.2 4.7 2.2 25.5 0.6z m-61 -5 c6.9 -5.8 8.3 -9.3 9.7 -23.7 1.3 -14.2 1.4 -16.6 0.2 -32.4 -1 -13.9 -1.3 -15 -5.1 -18.4 -5 -4.4 -9.4 -5.5 -19.3 -4.7 -8.9 0.8 -14.6 3 -20.7 8.1 l-3 2.5 0.1 11.2 c0.1 20 3.5 47.3 6.5 53 2.3 4.4 7.3 5.6 26.1 6.7 1.5 0 3.9 -0.9 5.5 -2.3z m-65.3 -4.7 c2.1 -1.2 4.3 -3.8 5.6 -6.3 2 -4.2 2 -5 1 -26.7 -0.8 -18.9 -2.4 -32.2 -4.4 -37.6 -1.2 -3.1 -5.9 -4 -16.5 -3.2 -8.6 0.7 -11.5 1.4 -16.5 3.9 -7.9 4 -9.9 5.1 -12 7.2 -0.9 1 -2.5 2.3 -3.5 3 -4.6 3.4 -6.1 7 -6.2 15.8 -0.1 4.7 0.4 9.8 1 11.3 0.6 1.6 1.1 4.2 1.1 5.9 0 3.1 4.8 13.8 6.2 13.8 0.4 0 1.9 1.1 3.3 2.5 2.7 2.4 4.9 3.3 18.5 7.6 4.1 1.3 7.9 2.9 8.5 3.6 1.6 2.1 9.9 1.6 13.9 -0.8z m11.6 -94.9 c2.5 -0.6 6.3 -1.8 8.5 -2.7 3.9 -1.6 11.8 -5 16.2 -6.9 1.2 -0.5 6.6 -5.2 12 -10.5 7.7 -7.5 10.6 -11.1 13.7 -17.2 3.7 -7.3 3.9 -8 2.9 -12.2 -0.6 -2.5 -0.8 -7.5 -0.6 -11.1 0.7 -10.2 -1.5 -15.1 -10.2 -23.7 -5.9 -5.9 -9.6 -8.4 -20.1 -13.8 -16.3 -8.5 -24.1 -10.9 -34.7 -10.9 -9.4 0 -20 1.6 -24.2 3.8 -5.7 2.8 -17.1 12 -21 16.9 -2.1 2.6 -4.4 5.3 -5.1 5.9 -1.9 1.5 -5.1 10.7 -7 19.9 -2 9.9 -1.5 25.5 0.9 30.5 1 1.8 1.7 3.7 1.7 4.3 0 0.9 4.5 6.4 9.3 11.5 4.1 4.3 10.3 7.2 18.7 8.7 4.6 0.8 10.2 2.4 12.5 3.5 2.3 1.1 4.8 2 5.7 2 0.9 0 2.1 0.7 2.8 1.5 1.5 1.8 11 2 18 0.5z m120.7 -5.1 c9.9 0 23.3 -6 23.3 -10.3 0 -0.7 1 -1.7 2.3 -2.3 6.3 -3 8.2 -3.3 14.3 -2.7 l6.3 0.7 4.9 -4.9 c2.7 -2.7 5.7 -6.4 6.6 -8.2 0.9 -1.7 2 -3.2 2.5 -3.2 0.4 0 2 -2.3 3.5 -5.1 2.7 -4.8 3.5 -9.1 5.3 -27.7 0.6 -6.5 -2.7 -14 -8.4 -19.3 -2.1 -2 -4.9 -4.9 -6.3 -6.5 -3.1 -3.6 -9.4 -8 -18 -12.5 -6.4 -3.3 -6.7 -3.4 -19 -3.3 -14.2 0 -21 1.7 -32.1 7.9 -17.3 9.8 -23.7 17.3 -31.2 36.5 -6.5 16.8 -7.1 27.2 -2.1 37.5 3.5 7.2 13.1 17 19.1 19.7 5.6 2.5 15.4 4.5 19.6 4.1 1.8 -0.2 6 -0.4 9.4 -0.4z m-234.2 -68.5 c1.2 -1.2 1.3 -1.9 0.4 -3 -1.7 -2.1 -6.3 -1.7 -8.5 0.7 -1.6 1.7 -1.6 2.2 -0.4 2.9 2.3 1.5 6.7 1.2 8.5 -0.6z m321.2 -16.1 c-0.3 -1 -0.5 -0.2 -0.5 1.7 0 1.9 0.2 2.7 0.5 1.8 0.2 -1 0.2 -2.6 0 -3.5z m-321.3 -10.9 c2.1 -0.8 2.1 -5.8 0 -7.9 -1.5 -1.5 -1.8 -1.5 -3.5 0.1 -2.4 2.1 -2.5 6 -0.1 7.3 2.1 1.3 1.7 1.2 3.6 0.5z m7 -22 c2.6 -2.6 1.6 -9.4 -1.4 -9.4 -3.3 0 -4.4 2.6 -3.1 7 1.3 4.4 2.1 4.8 4.5 2.4z m-12.6 -5.3 c1.5 -0.9 1.3 -4.6 -0.3 -4.6 -1.9 0 -5.7 3.3 -5 4.4 0.7 1.3 3.5 1.4 5.3 0.2z m27.7 -23.1 c1.7 -1.8 1.7 -2.2 0.4 -3.6 -1.8 -1.8 -4.6 -0.9 -5.4 1.7 -1.3 4 2 5.2 5 1.9z m284.1 -7.5 c1.4 -3.5 -4.8 -6.3 -9.3 -4.2 -2.7 1.2 -3.1 4.4 -0.5 5 4.1 1.1 9.3 0.7 9.8 -0.8z m14.4 -5.3 c3.4 -2.7 1.7 -5.6 -2.8 -4.8 -4.2 0.6 -6.7 2.8 -5.9 5 0.9 2.2 5.9 2 8.7 -0.2z m-311.4 -9.7 c0.3 -0.8 2.1 -1.7 4 -2.1 2.5 -0.4 3.4 -1.2 3.4 -2.5 0 -3.4 -2.7 -3.2 -6.4 0.5 -2 1.9 -3.6 4 -3.6 4.6 0 1.5 2 1.2 2.6 -0.5z m202.6 -11.8 c2 -0.8 3.9 -1.3 4.2 -1 0.6 0.6 15.6 -4.5 17 -5.8 0.6 -0.5 1.8 -0.9 2.8 -0.9 1.1 0 2.9 -1 4.1 -2.2 1.3 -1.3 6.2 -4.9 10.9 -8.1 4.8 -3.2 10.1 -7.4 11.7 -9.3 4.5 -5.1 10.1 -14.2 10.1 -16.4 0 -1.1 1 -3.8 2.2 -6.1 2 -4 2.2 -5.4 1.9 -22.2 -0.2 -15.5 -0.5 -18.6 -2.2 -21.8 -1.6 -3.3 -7.5 -8.9 -9.1 -8.9 -0.3 0 -2.9 -1.6 -5.8 -3.5 -2.8 -1.9 -6.8 -3.9 -8.8 -4.5 -7.2 -2.1 -32.6 -3.1 -52.2 -2.1 -13.2 0.7 -44.6 8.2 -61 14.6 -4.9 1.9 -9.1 3.5 -9.3 3.5 -1.6 0 -13.9 12.9 -17.5 18.5 -6.3 9.6 -6.9 10.7 -8 16 -1 4.8 0.3 12.4 3.2 19 0.8 1.7 1.7 4.6 2.1 6.5 0.4 1.9 1.9 5.7 3.2 8.4 2.9 5.7 12.5 16.2 15.7 17.2 1.1 0.3 2.8 1.2 3.6 1.8 2.8 2.3 9.4 3.6 22.5 4.6 7.2 0.6 17.1 1.7 22 2.5 11.8 2 12.4 2 23.5 1.9 6 -0.1 10.8 -0.7 13.2 -1.7z m99.8 -120.6 c0 -0.5 -0.9 -1.1 -1.9 -1.4 -1.2 -0.3 -2.1 -1.5 -2.3 -3.1 -0.2 -1.9 -0.7 -2.3 -1.7 -1.7 -1.1 0.7 -1 1.3 0.5 3.4 1.1 1.4 2.6 2.8 3.4 3 0.8 0.3 1.6 0.5 1.8 0.6 0.1 0 0.2 -0.3 0.2 -0.8z m-8 -2.6 c0 -0.8 -0.7 -1.5 -1.5 -1.5 -1.6 0 -2 1.2 -0.8 2.3 1.1 1.2 2.3 0.8 2.3 -0.8z m6 -32.3 c-0.1 -4.5 -3.1 -7.3 -8.3 -7.9 -3 -0.4 -4.7 -0.2 -4.7 0.5 0 0.6 -0.9 1.4 -2 1.7 -3.5 1.1 -2.1 2.5 2.6 2.5 5.5 0 8.2 1.3 9.4 4.6 1.2 3.1 3 2.2 3 -1.4z m-202 -15 c0 -1.1 -1.1 -2.4 -2.4 -3 -1.9 -0.9 -2.7 -0.7 -3.9 0.6 -2.1 2.5 -1 4.2 2.9 4.2 2.6 0 3.4 -0.4 3.4 -1.8z m163.8 -70.4 c2 -2 1.3 -5.3 -1.7 -8.2 -3 -2.9 -5.7 -3 -8.1 -0.1 -1.6 1.9 0.7 6.5 4 8.2 3.1 1.6 4.3 1.6 5.8 0.1z"/>
  <path d="M310.5 590.3 c-0.4 -1.6 -1 -4.7 -1.6 -7 -0.5 -2.4 -0.9 -8 -0.9 -12.5 -0.1 -4.6 -0.1 -9.1 -0.1 -10 0 -2.3 3.2 -7.1 4.2 -6.1 0.9 1 2.1 34.5 1.3 36.7 -0.9 2.4 -2.3 1.9 -2.9 -1.1z"/>
  <path d="M245 587.6 c-2.8 -7.4 -4 -22.6 -2 -25.6 1.6 -2.3 5 2.3 5.1 6.9 0.1 3 0 17.7 -0.1 20.4 0 1.7 -2.1 0.5 -3 -1.7z"/>
  <path d="M171.4 583.1 c-3.6 -2.2 -5.4 -6.5 -5.4 -12.7 0 -5.9 1.5 -9.4 4 -9.4 1.1 0 2 0.7 2 1.5 0 0.9 1.1 2 2.4 2.4 2 0.8 2.4 1.8 2.9 6.8 1.2 13 0.1 15.1 -5.9 11.4z"/>
  <path d="M159 171.7 c0 -0.7 1.8 -3.1 4 -5.2 3.7 -3.6 4.1 -3.8 5.6 -2.3 2.4 2.4 1.1 4.6 -4.2 6.8 -5.4 2.4 -5.4 2.4 -5.4 0.7z"/>
 </g>
</svg>