<?xml version="1.0" encoding="utf-8"?>
<!DOCTYPE svg PUBLIC "-//W3C//DTD SVG 20010904//EN" "http://www.w3.org/TR/2001/REC-SVG-20010904/DTD/svg10.dtd">
<svg version="1.0" xmlns="http://www.w3.org/2000/svg" width="645px" height="795px" viewBox="0 0 645 795" preserveAspectRatio="xMidYMid meet">
 <g fill="#000000">
  <path d="M52 793.3 c-2.5 -0.9 -8.1 -7.3 -9.7 -11.2 -0.9 -2 -1.7 -6.7 -1.9 -10.6 -0.2 -3.8 -1.5 -11 -2.9 -16 -2.2 -7.4 -2.7 -11.6 -3 -23.8 -0.2 -8.2 -0.6 -16 -0.9 -17.5 -0.4 -1.5 -0.8 -8.1 -1 -14.7 -0.3 -6.6 -1 -13.5 -1.6 -15.3 -0.9 -2.5 -0.9 -3.9 0 -6.2 0.9 -2.1 0.9 -3.8 0.1 -6.2 -0.5 -1.8 -1.2 -6.4 -1.5 -10.3 -0.2 -3.8 -1.2 -11.9 -2 -17.9 -0.9 -5.9 -1.4 -11.1 -1.2 -11.5 0.2 -0.3 0.1 -2.7 -0.4 -5.1 -0.4 -2.5 -1.1 -7.2 -1.4 -10.5 -2 -18.4 -5.6 -34.5 -7.6 -34.5 -1.7 0 -1.9 -7.1 -0.5 -14.9 0.9 -4.6 1.4 -8.8 1.2 -9.4 -0.6 -1.8 1.3 -8 3.1 -9.9 1 -1.2 3 -1.8 5.6 -1.8 6.1 0 23.7 2.8 25.1 4 0.7 0.6 6.6 2 13.1 3.1 9.4 1.5 16.2 1.9 33.4 1.9 11.8 -0.1 22.4 0.2 23.5 0.6 2.8 1 8.5 6.5 8.5 8.3 0 0.8 0.9 2.5 2.1 3.7 2.3 2.5 3.1 9.4 1.8 15.2 -0.4 2 -1.6 11.2 -2.5 20.4 -1.5 14.4 -1.6 17.9 -0.5 24.7 1.6 9.4 1.4 9.8 -10 23.2 -3.8 4.6 -6.9 9.1 -6.9 10 0 1 1.7 3 3.8 4.6 3.3 2.4 4.9 4 10.6 10.3 0.7 0.8 2.8 2.6 4.5 4 5.2 4 21 20.1 22.6 22.9 0.8 1.4 2.9 6.4 4.6 11.1 2.8 7.8 3.1 10.1 3.9 27 0.7 15 0.6 20.5 -0.6 29 -1.5 9.8 -1.8 10.6 -5.2 14.1 -2.1 2 -4.6 4.1 -5.7 4.6 -2.6 1.4 -16.5 2.2 -46 2.8 -26.1 0.5 -45.3 1.2 -50 1.9 -1.6 0.2 -3.7 0.1 -4.5 -0.1z m71.2 -19.7 c14.6 -0.5 19.7 -1.9 24.6 -6.5 2.5 -2.5 2.7 -6.2 1.3 -28.2 -0.6 -9.7 -1.3 -13.7 -2.9 -17.1 -1.2 -2.4 -2.2 -5.8 -2.2 -7.4 0 -3.8 -1.8 -6.4 -10.4 -14.9 -3.9 -3.9 -8.1 -8.4 -9.4 -10 -1.3 -1.6 -3.3 -3.6 -4.6 -4.4 -1.3 -0.9 -5.2 -3.6 -8.6 -6.1 -10.4 -7.5 -14.7 -10 -16.9 -10 -0.4 0 -2.2 -1.5 -4 -3.2 -3.1 -3 -3.3 -3.6 -2.7 -8.2 0.6 -5.6 3.7 -9.6 7.3 -9.6 5.4 0 7.6 -2.2 16.6 -16 l4.2 -6.5 1 -23.1 c1.1 -24.7 1 -26.6 -1.8 -30.4 l-1.7 -2.5 -21 0.3 c-13.2 0.3 -22.7 0 -25.7 -0.7 -2.7 -0.6 -9.5 -2.3 -15.3 -3.7 -5.8 -1.4 -11.2 -2.7 -12 -2.7 -2 -0.3 -1.5 3.7 0.9 7.2 1.3 1.8 2.5 7.3 4 17.6 1.2 8.3 3.1 20.9 4.3 28 2.6 16.9 3.3 22.3 5.2 44 0.9 9.8 2 21.5 2.6 26 0.5 4.4 1.2 16.6 1.5 27 0.4 13.1 1.1 20.1 2.1 22.5 0.8 1.9 4.1 11.2 7.3 20.5 l5.8 17 7.8 0.7 c4.3 0.4 7.9 0.9 8 1 0.4 0.4 15.5 0.1 34.7 -0.6z"/>
  <path d="M73.6 764 c-0.7 -0.8 -1.8 -2.4 -2.4 -3.5 -2.3 -4.6 -5.2 -31.7 -5.2 -49.2 0 -5 -0.4 -9.5 -1 -9.8 -1.6 -1 -1.1 -13.6 0.8 -18.5 1.1 -2.9 3.2 -5.5 6 -7.7 3.7 -2.8 5.2 -3.3 9.7 -3.3 7.7 0 20.6 6.4 30.1 14.9 4 3.7 9.4 8 12 9.6 5.3 3.4 7.7 8.1 11.2 22 1.1 4.4 3.2 12.3 4.6 17.5 3.4 12.6 3.5 21.8 0.4 24.7 -4.7 4.3 -5.9 4.4 -35.9 4.7 -25.1 0.2 -29.1 0 -30.3 -1.4z m50.2 -15.3 c6.4 -0.4 8.2 -1.8 6.2 -5 -0.7 -1.2 -1.9 -4.9 -2.7 -8.2 -4.1 -19.6 -7.2 -26.8 -13.3 -31 -2.3 -1.6 -5.1 -4 -6.3 -5.4 -3 -3.5 -12.6 -11.3 -15.8 -13 -4.3 -2.1 -6.4 -1.1 -6.3 2.9 0.3 7 1.4 23.8 2.4 35 0.6 6.3 1.2 13.5 1.3 16 0.2 3.9 0.6 4.6 3.6 6.4 5.4 3.1 11.8 3.6 30.9 2.3z"/>
  <path d="M62.6 639.9 c-1.4 -1.1 -2.6 -2.6 -2.6 -3.3 0 -0.7 -1.1 -2.3 -2.4 -3.5 -2.2 -2.1 -2.4 -3 -2.4 -11.4 0 -5.1 -0.7 -12.6 -1.6 -16.7 -2.5 -11.7 -2.3 -13.1 2.8 -17.8 4.3 -3.9 4.5 -4 13.9 -4.7 5.3 -0.4 10.9 -0.5 12.4 -0.2 1.6 0.3 5.5 1 8.7 1.6 3.3 0.6 6.4 1.5 7 2.1 0.5 0.5 2.2 1 3.7 1 5.8 0 7.2 7.4 4.7 24.4 l-1.2 8.1 -6.5 5.6 c-3.6 3 -9.2 6.5 -12.3 7.8 -3.2 1.3 -6.8 3.3 -8 4.6 -5.1 5 -11.6 6 -16.2 2.4z m27.1 -19.4 c5.8 -2.4 7.2 -5.1 8 -15.4 l0.6 -9 -5.4 -1.5 c-15.9 -4.4 -21.9 -4.5 -21.9 -0.3 0.1 4.8 4.2 20.2 6.5 24.8 1.3 2.4 2.2 2.9 5 2.9 1.9 0 5.2 -0.7 7.2 -1.5z"/>
  <path d="M220 785.7 c-1.3 -0.7 -2.9 -2.1 -3.5 -3.2 -0.5 -1.1 -2 -3 -3.2 -4.3 -1.3 -1.2 -2.3 -2.8 -2.3 -3.5 0 -0.8 -0.6 -2.7 -1.4 -4.3 -2.7 -5.4 -3.8 -16.9 -4.2 -44.4 -0.2 -15.1 -0.6 -33.8 -0.9 -41.5 -0.3 -7.7 -0.7 -18.9 -0.9 -25 -0.2 -6 -0.7 -12.6 -1 -14.5 -0.4 -1.9 -1.3 -9.6 -2.1 -17 -0.8 -7.4 -2.2 -17.8 -3 -23 -0.9 -5.2 -1.8 -11.1 -2.1 -13 -0.3 -1.9 -1.1 -3.9 -1.8 -4.5 -2.6 -2 -6.6 -9.6 -6.6 -12.3 0 -6.3 9.1 -10.7 24 -11.6 4.7 -0.3 10.5 -0.8 13 -1.2 2.5 -0.3 5.6 -0.1 7 0.5 2.1 0.9 3.4 1.6 7 3.9 0.2 0.1 0.7 2.6 1.1 5.5 3.9 28 5.2 38.4 6.5 52.2 0.8 8.8 1.5 16.7 1.5 17.5 0 0.8 0.6 7.4 1.4 14.5 1.5 14 2.2 26.6 3 55.5 0.8 24.5 0.9 25 4.4 25 1.6 0 5.3 1.1 8.3 2.5 2.9 1.4 6.1 2.5 7.1 2.5 5.1 0 12.7 10.2 14.3 19.3 0.3 2 1 3.7 1.4 3.7 1.1 0 4 7.6 4 10.7 0 3.9 -4.3 7.4 -8.8 7.2 -8.2 -0.4 -36.2 1.2 -44.7 2.6 -11 1.8 -14.3 1.8 -17.5 0.2z m43.1 -22.8 c1.4 -2.2 1.2 -2.5 -3.1 -4.4 -3.5 -1.6 -4.7 -1.7 -9.1 -0.7 -2.8 0.7 -6.1 1.2 -7.4 1.2 -2.7 0 -9.1 -2.6 -11.7 -4.9 -1.7 -1.3 -1.8 -1.1 -1.8 3.1 0 7.1 1.6 7.7 20.3 7.4 9.1 -0.2 12.1 -0.6 12.8 -1.7z m-29.1 -44.4 c1.5 -16.6 1.4 -12.4 0.6 -37.5 -1.2 -33.6 -5.1 -79.9 -7.8 -92.5 l-1.3 -6 -5.2 -0.3 -5.3 -0.3 0 6.3 c0 3.5 0.9 10.1 2 14.8 1.1 4.7 2 10.4 2 12.7 0 2.3 0.6 7 1.4 10.5 1.9 8.4 4.2 31.7 5.6 56.3 0.6 11 1.5 25 2 31.1 0.6 6 1 14.4 1 18.5 l0.1 7.4 1.8 -3.5 c1.2 -2.4 2.2 -8.1 3.1 -17.5z"/>
  <path d="M415.5 779 c-4.4 -1 -9.5 -1.9 -11.3 -1.9 -6.8 -0.2 -13.1 -6.7 -11.2 -11.6 0.5 -1.2 0.8 -4.2 0.8 -6.6 0.1 -2.4 0.5 -6.4 1.1 -8.9 0.6 -2.5 1.1 -6.3 1.1 -8.5 0 -2.2 0.7 -6.1 1.4 -8.6 0.8 -2.6 1.6 -6.9 1.7 -9.5 0.3 -4.7 0.2 -5 -3.1 -6.6 -2.6 -1.4 -6 -1.8 -13.2 -1.8 l-9.8 0 -1.5 3.5 c-1.8 4.4 -2.4 25.7 -0.8 27.7 1.5 1.8 2.6 12.2 1.8 16.9 -0.6 3.5 -1.2 4.1 -7 7 -3.5 1.7 -9.5 3.6 -13.4 4.2 -5.3 0.9 -7.1 1.6 -7.4 2.9 -0.4 1.2 -1.5 1.8 -3.5 1.8 -4.2 0 -8.8 -5 -10.8 -11.9 -1.5 -5.3 -2.6 -24.1 -1.3 -24.1 0.3 0 0.6 -2.4 0.7 -5.2 0.3 -13.2 1 -34 1.8 -52.3 0.8 -21.4 0.9 -25.9 1.8 -57.5 0.3 -11.3 0.8 -28.2 1.1 -37.5 0.3 -9.4 0.1 -18.5 -0.4 -20.2 -2.1 -7.2 6.1 -15.9 13.8 -14.7 2.8 0.4 4.9 0 7.9 -1.5 4.6 -2.3 9.2 -2.7 12.5 -0.9 1.2 0.6 7.3 1.2 13.7 1.4 6.3 0.2 15.3 0.6 20 1 4.7 0.4 10.3 0.7 12.5 0.6 4.5 -0.1 6.5 1.1 8.3 5.1 3.2 7.4 3.6 12.5 3.8 58.2 0.1 47.3 0.3 49.6 4.8 71 1.4 6.6 3 18.8 3.6 27 1.3 16.6 2.2 22 4.8 27.4 2.3 4.6 2.7 12.5 1.1 19.5 -0.8 3.9 -0.9 6.2 -0.1 8.5 0.9 2.5 0.8 3.4 -0.8 5.3 -1.5 1.9 -2.9 2.3 -9.1 2.5 -4.6 0.1 -10.4 -0.5 -15.4 -1.7z m7.2 -22.5 c2.9 -1.4 5.3 -3.1 5.3 -3.8 0 -0.7 -0.4 -3.9 -0.9 -7.2 -0.5 -3.3 -1.2 -13.3 -1.5 -22.2 -0.3 -8.9 -1 -17.3 -1.6 -18.7 -0.5 -1.4 -1.9 -9.2 -3.1 -17.3 -1.8 -12.5 -2.3 -21.4 -2.9 -57.8 -0.3 -23.6 -0.9 -43.7 -1.2 -44.5 -0.3 -0.8 -1.2 -4.8 -1.9 -8.7 l-1.2 -7.2 -5.1 -1.5 c-3 -0.9 -12.1 -1.7 -22.1 -2.1 -9.3 -0.3 -19.8 -0.8 -23.1 -1.1 -5.9 -0.5 -6.4 -0.4 -9.9 2.7 l-3.6 3.2 0.3 43.9 c0.3 40.5 0.4 44.1 2.1 45.2 2.1 1.6 2.3 7.4 0.2 8.2 -1.2 0.5 -1.4 2.6 -1.1 12.2 0.3 6.5 0.5 14.4 0.6 17.7 0.1 4.5 0.3 5.5 1 3.8 0.5 -1.2 1.7 -2.6 2.7 -3.1 1 -0.5 10.1 -1 20.3 -1 17.8 -0.1 28 1.1 33.1 3.9 3.8 2 4.8 7.8 5.4 32 0.4 12.9 0.8 24 1 24.7 0.6 1.7 1 1.6 7.2 -1.3z"/>
  <path d="M364.7 686.7 c-1.5 -1.2 -4.3 -4.7 -6.2 -7.7 -3.8 -5.9 -4.5 -11.1 -2.5 -18 2.8 -9.7 5.1 -44.2 3 -45.5 -0.6 -0.3 -1 -3.5 -1 -7 0 -5.9 0.2 -6.5 3.5 -9.4 1.9 -1.6 5.2 -3.5 7.2 -4 4.7 -1.3 32.1 -2.6 35.5 -1.8 1.4 0.4 3.7 2.4 5.2 4.5 3 4.5 3.4 10 1.1 17.6 -1.9 6.1 -1.9 14 0 32.6 2.6 26.6 2.3 28 -7.6 28 -3.1 0 -8.8 1.1 -13.2 2.5 -6.1 2 -8.5 3.4 -11.3 6.5 -3 3.3 -4.3 4 -7.3 4 -2.2 0 -4.6 -0.8 -6.4 -2.3z m19.6 -26.9 c1.2 -0.7 3.9 -2.6 6 -4.2 l3.9 -2.9 -0.5 -6.1 c-0.8 -9.8 -3.5 -26.8 -4.9 -31.1 -1.1 -3.4 -1.8 -4 -4.4 -4.3 -2 -0.2 -3.6 0.4 -4.9 1.7 -1.6 1.9 -1.9 4.5 -2.3 24.2 -0.4 18.2 -0.2 22.3 0.9 23 1.9 1.2 3.5 1.1 6.2 -0.3z"/>
  <path d="M484.5 771.2 c-4 -0.3 -5.5 -0.9 -7.7 -3.3 -3 -3.2 -3.4 -4.9 -1.9 -7.7 0.6 -0.9 1.5 -5.1 2 -9.2 0.6 -4.1 1.7 -11.8 2.5 -17 1.3 -8.3 2.4 -31.9 2.7 -54.5 0.3 -21.3 -3.9 -101.9 -5.7 -112.2 -0.3 -1.5 -1.2 -3.2 -2 -3.6 -1.1 -0.6 -1.3 -1.8 -0.8 -4.5 0.3 -2 1.1 -4.1 1.6 -4.7 1.7 -1.8 17.4 -5.2 20 -4.2 1.2 0.5 4.6 0.6 7.3 0.3 3.2 -0.4 6.8 -0.1 9.9 0.9 2.7 0.8 8.1 1.5 12 1.5 6.3 0 7.4 0.3 9.5 2.5 2.3 2.5 2.3 2.6 0.8 7.3 -2.9 8.9 -4 26 -2.7 41.6 0.6 7.7 1.6 16.1 2.2 18.6 0.6 2.5 1.2 11 1.4 19 0.3 8 0.9 17 1.5 20 0.5 3 0.9 9.6 0.7 14.5 l-0.3 9 4 -0.1 c2.2 0 7.2 -0.3 11 -0.6 3.9 -0.4 11.1 -0.9 16.1 -1.3 5.8 -0.5 9.7 -0.4 11 0.3 1.1 0.6 2.6 0.7 3.2 0.3 0.7 -0.4 3.2 -0.5 5.6 -0.1 2.4 0.3 5.3 0.3 6.5 -0.2 2.1 -0.7 2.2 -1.2 1.7 -10 -0.2 -5.1 -0.9 -11.3 -1.4 -13.8 -0.5 -2.5 -1 -9.7 -1.1 -16 -0.3 -16.5 -2.9 -46.9 -5.2 -59.5 -0.6 -3.3 -2 -7.5 -3.1 -9.2 -1.1 -1.9 -1.7 -4.1 -1.3 -5.2 0.8 -2.6 7.1 -8.1 9.3 -8.1 1 0 2.7 -0.6 3.8 -1.4 1.2 -0.8 5.6 -2.4 10 -3.5 4.3 -1.2 9.1 -2.6 10.6 -3.2 2 -0.8 3.6 -0.8 6.2 0.1 l3.6 1.2 0 23.2 c0 12.8 0.4 24.6 0.9 26.2 0.6 1.6 1.2 6.3 1.4 10.4 0.3 4.1 1.7 13.8 3.2 21.5 2.9 15.4 3.3 21.4 2.1 38.5 -0.9 13.1 0.4 26.7 3.2 34.6 2 5.2 3.2 13.8 3.7 26.4 0.2 4.1 0.7 10.8 1 14.7 0.5 5.9 0.4 7.4 -0.8 7.9 -0.8 0.3 -1.7 1.7 -2 3.2 -0.8 4.1 -4.9 5 -24.4 5.8 l-17.2 0.7 -0.7 -3.9 c-0.7 -3.7 -1 -15.7 -0.4 -17.9 0.1 -0.5 0.2 -3.8 0.1 -7.1 l-0.1 -6.1 -7.2 -0.2 c-3.9 -0.1 -8.1 -0.4 -9.2 -0.6 -5.3 -1.2 -9 -1.7 -21.9 -2.6 -7.6 -0.6 -15.4 -0.8 -17.3 -0.4 l-3.4 0.6 -0.1 9.2 c0 5.1 -0.1 10.6 -0.3 12.2 -0.1 1.7 -0.4 4.9 -0.4 7.3 -0.2 3 -0.6 4.2 -1.7 4.2 -0.8 0 -1.5 0.6 -1.5 1.3 0 0.7 -1.4 2.6 -3.1 4.3 l-3 2.9 -19.7 0 c-10.8 0 -21.9 -0.1 -24.7 -0.3z m44 -19.8 c1.4 -2.2 1.6 -4 1 -11 -0.4 -4.6 -1.1 -8.6 -1.6 -9 -0.5 -0.3 -0.9 -3.8 -0.9 -7.9 0 -5.5 0.4 -7.4 1.5 -7.9 0.8 -0.3 1.5 -1.2 1.5 -2 0 -0.8 1.9 -2.6 4.3 -4 4.1 -2.4 4.8 -2.5 16.7 -2.1 11.2 0.4 21.5 1.1 42 3 8.7 0.8 14.8 2.6 16.8 4.8 1.4 1.5 1.7 4.7 1.9 18.5 0.2 9.2 0.8 17.1 1.3 17.6 0.5 0.5 3.1 0.4 6.6 -0.3 3.2 -0.6 7.3 -1.1 9.1 -1.1 l3.4 0 -0.7 -16.2 c-0.4 -9 -1 -16.7 -1.4 -17.3 -0.7 -1.1 -2.5 -8.7 -3.9 -17.6 -0.7 -3.7 -0.6 -11.3 0 -21.5 0.9 -13.6 0.8 -17.6 -0.6 -27.4 -0.9 -6.3 -2.1 -12.4 -2.5 -13.6 -0.5 -1.1 -1.5 -7.9 -2.4 -15 -0.9 -7.1 -2.1 -16 -2.7 -19.9 -0.6 -3.8 -1.3 -13 -1.6 -20.2 -0.4 -8.8 -1 -13.3 -1.7 -13.3 -0.6 0 -3.6 0.9 -6.6 1.9 l-5.5 1.8 0.1 4.9 c0.1 2.7 1.1 12.3 2.4 21.4 1.2 9.1 2.6 22.4 3.1 29.5 1.5 21.6 5 42.6 8.4 50.8 2.2 5.2 1.9 11.9 -0.6 16.2 -2.2 3.6 -2.2 3.7 -7.8 3.1 -3.1 -0.2 -8.7 -0.9 -12.6 -1.5 -9.1 -1.3 -22.3 -1.3 -36 -0.1 -9 0.8 -12.1 1.6 -16.9 4 -6.9 3.5 -13.4 4 -15.9 1.2 -1.4 -1.5 -1.6 -5 -1.7 -23.2 0 -11.8 -0.5 -23.5 -1.1 -26 -0.9 -4 -1.9 -18.7 -3.6 -53 -0.3 -6.3 -0.5 -16.5 -0.4 -22.6 l0.2 -11.1 -2.8 -0.5 c-4.6 -0.7 -21.7 -0.3 -23.2 0.6 -1 0.7 -1.2 2.3 -0.6 7.5 0.4 3.6 0.8 10.2 1 14.6 0.1 4.4 0.7 13.9 1.4 21 3.1 35.5 4.3 53.3 5.6 90 0.8 22 1.9 42.3 2.5 45 2 10.2 1.2 9.4 9.3 9.8 3.9 0.1 8.6 0.4 10.3 0.5 2.4 0.2 3.6 -0.4 4.9 -2.4z"/>
  <path d="M199 492.9 c-17.1 -2.1 -23.2 -5 -25 -12.2 -0.7 -2.3 -2 -4.9 -3 -5.7 -2.6 -2.1 -7 -13.2 -7 -17.5 0 -2 -0.4 -4.4 -0.9 -5.3 -0.9 -1.8 -2.8 -13.5 -3.7 -22.7 -2.9 -32.4 -3.9 -49.7 -4.9 -85.5 -0.3 -10.2 -0.9 -20.1 -1.4 -22 -0.6 -2.7 -0.2 -5.6 1.6 -11.5 1.6 -5.5 2.2 -9.3 1.8 -12 -0.5 -3.7 -0.2 -4.3 3.5 -7.9 3.2 -3 4.6 -3.7 6.7 -3.3 1.5 0.3 4.5 -0.2 6.7 -1 3.7 -1.3 6 -1.3 14.1 0.2 0.6 0.1 2.6 0.3 4.6 0.3 5.2 0.3 7 2.1 7.4 7.3 0.3 4.7 1.1 10.3 4.3 29.4 1.1 6.6 2.3 19.2 2.7 28 0.3 8.8 1.3 20.5 2 26 0.8 5.5 1.7 12.3 2 15 0.3 2.8 0.8 6.4 1.1 8 0.3 1.7 0.9 11.4 1.3 21.8 0.6 15.2 1 19.1 2.3 20.4 1.9 1.9 14.8 3.4 19.3 2.2 1.7 -0.4 7.2 -1 12.2 -1.3 5.1 -0.3 10 -0.9 10.8 -1.4 3.4 -1.9 7.3 -0.2 10 4.4 2.4 4 2.6 5.6 3 18.1 0.3 7.6 0.7 15 1 16.4 0.4 1.5 0.1 3 -0.7 3.6 -1.5 1.1 -10.6 4.6 -12.8 4.9 -3.2 0.3 -10.6 1.5 -12 1.9 -0.8 0.2 -9.6 0.7 -19.5 1 -9.9 0.3 -18.7 0.7 -19.5 0.9 -0.8 0.2 -4.4 0 -8 -0.5z m28.7 -19.7 c9 -2.4 20.3 -8.9 20.3 -11.5 0 -1.8 -0.5 -1.9 -9.7 -1.1 -21.1 1.9 -35.1 0.4 -37.5 -3.9 -0.8 -1.4 -1.5 -11.7 -2 -29.2 -0.8 -26.6 -1.6 -39.9 -3.9 -64.5 -0.7 -6.9 -1.2 -19.7 -1.3 -28.5 -0.1 -13.3 -0.5 -17.7 -2.5 -25.9 -2.3 -9.3 -2.7 -9.9 -5.8 -11.2 -4.5 -1.9 -9.3 -1.7 -12.2 0.5 -2.4 1.8 -2.4 2.1 -1.7 11.2 0.4 5.2 0.9 14.1 1.2 19.9 0.5 11.1 2.4 30.9 4.9 52.5 0.9 7.2 2.2 20.1 3 28.8 0.8 8.7 1.9 18.3 2.4 21.5 1.8 10.2 3.1 20 3.1 22.9 0 1.6 1.1 4.5 2.5 6.5 1.3 2 2.7 5.6 3.1 8 0.3 2.3 1.4 4.9 2.3 5.6 2.4 2 24.5 1 33.8 -1.6z"/>
  <path d="M24.3 490 c-1.2 -0.5 -2.9 -1.9 -3.7 -3.2 -1.9 -2.9 -0.6 -9.5 2.6 -13.8 1.9 -2.7 2 -3.3 0.9 -6.7 -1.5 -4.6 -1.9 -37.9 -0.8 -56.8 0.5 -7.1 1 -19.3 1.2 -27 1.1 -40.3 1.6 -54.2 2.1 -55.7 0.8 -2.6 -1.5 -9.8 -3.4 -10.5 -4.1 -1.5 -6.2 -4.6 -6.2 -9.3 0 -4.8 1.7 -7.3 6.5 -9.8 4.5 -2.2 17.6 -3.4 39 -3.4 17.5 -0.1 27.6 0.7 35.4 2.8 3 0.8 6.7 1.4 8.1 1.4 2.9 0 10 6.2 12.5 10.9 2.4 4.8 4.5 11.4 4.5 14.6 0 1.7 -1.4 5.4 -3 8.4 -3.1 5.7 -3.8 6.6 -18.1 25.6 -15.2 20.1 -15.9 22.9 -6.7 27.6 2.3 1.2 7 4.5 26.6 18.9 7.9 5.7 9.7 7.9 11.6 14 0.9 3 2.1 6.4 2.6 7.5 1.4 3 4.9 17.2 5.8 23.7 0.8 5 0.6 6 -1.3 8.5 -1.2 1.5 -2.8 4.6 -3.6 6.7 -0.8 2.2 -2.5 5.1 -3.9 6.5 -1.4 1.5 -3.7 4.1 -5.1 5.8 -4.1 5.2 -8.2 6.3 -24.7 6.8 -21.3 0.7 -41.2 2.2 -53.2 4 -5.8 0.9 -12.1 1.8 -14 2 -1.9 0.3 -4.8 0.7 -6.5 0.9 -1.6 0.3 -4 0.1 -5.2 -0.4z m48.2 -19.1 c3.9 -0.6 9.9 -1.4 13.5 -1.9 11.7 -1.6 17 -3.5 23.3 -8.3 4.5 -3.5 11.7 -13.9 11.7 -17 0 -3 -2.4 -10.7 -4.8 -15.2 l-1.9 -3.7 -2.4 3.8 c-3.3 5.2 -5.1 8.5 -9.9 18.4 -5 10.4 -7.4 13.2 -13.5 15.9 -6.2 2.8 -19.9 2.9 -26.2 0.4 -3.5 -1.5 -4.4 -2.4 -4.9 -5.1 -0.3 -1.8 -1 -3.5 -1.5 -3.8 -1.5 -0.9 -1 -10.3 0.8 -13.7 2.2 -4 1.9 -12.6 -0.8 -22.2 -2.5 -9.2 -2.5 -14.7 0.1 -17 3.1 -2.8 23.1 -1.6 31.5 1.8 3.3 1.3 7.5 2.9 9.4 3.5 3.3 1.1 3.3 1.1 1.5 -1 -2.9 -3.2 -11.3 -6.4 -18.4 -7.1 -3.6 -0.3 -7.9 -1.3 -9.5 -2.1 -1.7 -0.9 -3.8 -1.6 -4.8 -1.6 -1.1 0 -3.2 -0.9 -4.8 -2.1 -2.7 -1.9 -2.9 -2.5 -2.9 -8.9 0 -6.4 0.2 -7 3.3 -9.7 4 -3.6 11.3 -11.9 15 -17 1.5 -2.1 4.2 -5.8 6.1 -8.4 1.8 -2.5 4.1 -6.6 5.1 -9.2 1 -2.6 2.8 -6.8 4.1 -9.4 4.7 -9.2 3.3 -11.4 -8.3 -12.9 -4.8 -0.7 -12.2 -1.7 -16.4 -2.3 -6.3 -1 -8.2 -0.9 -11.9 0.4 -8.8 3.1 -8.2 -0.9 -7.9 49.5 0.3 47.5 2.2 84.7 5.4 103.6 l0.7 4.2 6.2 -0.5 c3.3 -0.2 9.3 -0.9 13.1 -1.4z m12.8 -23 c1.5 -0.7 2.9 -2.5 3.6 -4.9 1.9 -6.4 1.5 -7.7 -2.3 -8.3 -1.9 -0.3 -5.1 -1.3 -7 -2.2 -1.9 -0.9 -4.5 -1.5 -5.8 -1.3 -2.1 0.3 -2.3 0.9 -2.6 6.3 -0.2 5 0.1 6.5 2 8.8 2.4 3 7.6 3.7 12.1 1.6z"/>
  <path d="M52.2 361.3 c-0.5 -1 -1.2 -10.9 -1.5 -22 -0.6 -19.2 -0.5 -20.3 1.3 -21.3 3.3 -1.8 10.7 -1.1 16.4 1.5 3 1.4 6.4 2.5 7.6 2.5 1.1 0 3.2 0.7 4.5 1.6 2.1 1.4 2.5 2.4 2.5 6.6 0 4.6 -0.4 5.5 -5 10.6 -2.7 3.1 -5 5.9 -5 6.3 0 0.4 -1.3 2.1 -3 3.7 -1.7 1.7 -3 4.1 -3 5.4 0 4 -3.9 6.8 -9.3 6.8 -3.4 0 -4.9 -0.5 -5.5 -1.7z"/>
  <path d="M315.5 485.4 c-1.1 -0.3 -3.7 -1.2 -5.7 -2.1 -3.4 -1.4 -3.7 -1.9 -4.3 -6.8 -0.7 -5.6 0 -16.8 1.5 -22.5 1.1 -4.4 3.1 -47.9 3.1 -70.5 0.1 -9.3 0.5 -28.2 1 -41.9 0.9 -21.8 0.8 -25.1 -0.6 -27.2 -0.8 -1.3 -1.5 -3.2 -1.5 -4.3 0 -3 5.8 -9.1 8.5 -9.1 1.3 0 3.5 -0.4 4.9 -1 1.4 -0.5 6.5 -1.1 11.3 -1.4 4.9 -0.2 11.1 -1.1 13.8 -1.9 4.8 -1.4 25.7 -3.7 33.8 -3.7 2.1 0 5.3 0.6 7.1 1.4 3.9 1.6 14.6 12.4 14.6 14.7 0 0.8 1 3.7 2.3 6.5 1.3 2.7 2.9 7.4 3.5 10.4 2.4 11.6 5.4 30.6 5.3 33.7 -0.1 1.7 0.3 5.3 0.9 7.9 1 4.5 2.6 14.7 3.6 23.9 0.3 2.2 1.2 6.9 2 10.5 1.4 5.8 4.6 22.1 6 30.5 0.3 1.7 1.7 7.3 3.1 12.5 1.4 5.2 2.9 11.1 3.4 13.1 0.5 2 1.8 5.7 2.9 8.3 2.3 5.6 2.6 8.6 0.6 8.6 -0.7 0 -2.1 1.1 -3 2.5 -1.8 2.7 -3.8 3.2 -16.6 4 -4.7 0.3 -10.4 0.8 -12.7 1.1 -7.7 0.9 -12.1 -3 -15.7 -13.7 -1.3 -4.1 -3.3 -9.2 -4.4 -11.4 -1.1 -2.2 -2.7 -6.5 -3.6 -9.5 -0.9 -3 -2.1 -6.9 -2.6 -8.6 -0.6 -1.7 -1 -3.8 -1 -4.7 0 -0.9 -0.6 -1.8 -1.2 -1.8 -0.7 -0.1 -2.2 -0.3 -3.3 -0.5 -12.9 -1.9 -17.1 -2.2 -18.7 -1.3 -1 0.6 -2.2 0.7 -2.7 0.4 -0.5 -0.3 -1.7 -0.2 -2.6 0.1 -1.8 0.7 -1.8 1.1 1 12.4 2.8 10.9 2.8 11.8 0.7 17.3 -2.6 6.8 -4.4 14.5 -3.6 15.8 0.8 1.3 -2.2 4.7 -5.8 6.5 -2.6 1.3 -21.3 2.7 -25.3 1.8z m16.9 -15.3 c2.1 -0.8 5.6 -12.5 5.6 -18.9 0 -4.1 -3.5 -11.7 -6.6 -14.1 -1.3 -1 -2.8 -2.9 -3.3 -4.2 -1.1 -2.7 -1.5 31.9 -0.5 35.9 0.7 2.3 1.6 2.6 4.8 1.3z m87.1 -5.3 c1.5 -0.7 2.4 -1.7 2.1 -2.7 -0.2 -0.9 -1.1 -4.1 -1.9 -7.1 -0.9 -3 -2.1 -8.4 -2.7 -12 -0.6 -3.6 -1.7 -8.5 -2.5 -11 -2.2 -7.2 -4.7 -19 -5.2 -25 -0.3 -3 -1 -6.1 -1.5 -6.8 -0.6 -0.7 -1.4 -4.5 -1.9 -8.5 -1.5 -13.3 -2.7 -21.2 -3.8 -25.7 -1.5 -6.2 -3.2 -15.4 -4.1 -22 -1.1 -7.1 -4.3 -19.4 -6.5 -24.5 -3.1 -7.3 -10.4 -13.3 -13.7 -11.4 -1 0.5 -6.8 1.4 -13 1.9 -13.4 1.1 -33.8 4.6 -35.3 6.1 -1.1 1.1 -2.5 102.9 -1.4 107.1 l0.5 2.3 1.8 -2.7 c1.1 -1.7 3.3 -3.2 5.5 -3.7 12.8 -3.4 21.9 -5.1 31.1 -5.7 5.8 -0.3 11.7 -1.3 13.2 -2 4.6 -2.4 10.9 -1.8 14.6 1.4 2.7 2.3 3.6 4.4 6.2 14.2 1.6 6.3 5 16.7 7.5 23 2.5 6.3 4.5 12 4.5 12.5 0 1.3 2 3.5 3.2 3.5 0.4 0 1.9 -0.5 3.3 -1.2z"/>
  <path d="M332.8 400.1 c-3 -3.5 -3.7 -8.6 -3.7 -26.4 l0 -17.7 4.1 -3.8 c2.2 -2 4.9 -3.9 6.1 -4.2 1.3 -0.4 2.5 -1.8 3.1 -3.8 0.8 -2.8 1.3 -3.2 4.3 -3.2 2.1 0 3.6 0.6 3.9 1.5 0.5 1.3 1 1.2 3.4 -0.5 1.5 -1.1 3.5 -2 4.4 -2 0.8 0 2.5 -1.3 3.8 -3 1.9 -2.7 2.8 -3 7.3 -3 4.3 0 5.6 0.4 7.8 2.8 1.5 1.5 2.7 3.7 2.7 4.9 0 1.1 0.6 2.6 1.4 3.2 0.9 0.8 1.5 4.9 1.9 14.4 0.4 9.4 1.1 15.1 2.6 19.7 2.6 8.1 2.7 14.1 0.4 16.2 -1.4 1.2 -5.4 1.7 -18.1 2 -14.9 0.5 -16.5 0.7 -18.6 2.7 -3.1 2.9 -14.3 3.1 -16.8 0.2z m29.4 -15.5 c5.9 -2.5 6.2 -3.5 6.3 -17.8 0 -7.1 -0.3 -13.2 -0.6 -13.4 -0.9 -0.5 -15.1 3.7 -16.7 5 -1.9 1.4 -1.3 23.6 0.7 25.9 1.7 2.1 5.7 2.2 10.3 0.3z"/>
  <path d="M473.2 474.6 c-1.8 -2.1 -3.3 -5.2 -3.8 -7.8 -0.4 -2.4 -0.9 -24.1 -1 -48.3 -0.2 -24.2 -0.5 -45.8 -0.8 -48 -0.2 -2.2 -0.7 -9.4 -1 -16 -0.6 -11 -0.8 -14.8 -2.2 -29 -0.8 -9.3 -2.4 -20.6 -2.9 -21.5 -0.3 -0.5 -0.9 -5.2 -1.4 -10.4 -0.9 -9.3 -3.9 -17.6 -6.4 -17.6 -0.6 0 -0.7 -1.8 -0.4 -4.2 1 -7.4 6.9 -10 14.2 -6.2 2.5 1.2 5.4 2.3 6.3 2.2 0.9 0 2.8 0.3 4.2 0.7 4.1 1 18.2 2.8 21.8 2.7 1.8 0 3.9 -0.5 4.6 -1.1 0.7 -0.6 2.8 -0.8 4.8 -0.5 3.5 0.6 3.6 0.8 4.8 6.8 1.6 7.9 1.8 11 2 23.1 0.1 9.3 0.7 15.2 3.1 31.5 2.6 17.4 4 24.5 6 29.3 1.1 2.8 2.5 6.2 3 7.5 0.5 1.3 0.9 3.2 0.9 4.2 0 1.6 0.7 2 3.3 2.1 1.7 0 4.6 0.3 6.2 0.5 1.7 0.3 5 0.6 7.5 0.7 l4.5 0.2 0.2 -4.3 c0.2 -2.4 -0.4 -5.9 -1.2 -7.9 -1.1 -2.7 -1.2 -3.9 -0.4 -4.9 1 -1.3 2 -16.5 2.2 -34.9 0.1 -6.4 -0.7 -19 -1.7 -29 -0.3 -2.2 -0.7 -10.4 -0.9 -18.3 -0.3 -8.7 -0.9 -14.8 -1.6 -15.5 -1.6 -1.6 -1.4 -5.2 0.4 -6.7 0.9 -0.8 5 -1.4 9.6 -1.6 4.5 -0.2 8.6 -0.7 9.3 -1.2 2.1 -1.5 12.9 -1.4 16.8 0.2 2 0.9 3.9 2 4.3 2.6 0.9 1.5 3.5 23 4.5 37.7 0.4 7.3 1.1 13.6 1.4 14.1 0.3 0.5 1 10.3 1.6 21.8 0.6 11.5 1.7 26.9 2.5 34.2 1 8.7 1.3 17.2 0.9 25 -0.6 10.5 0.7 46.5 2.2 61.5 0.3 3.2 1.2 6.4 1.9 7 1 1 0.9 1.9 -0.6 4.8 -2.2 4.3 -3.8 5.1 -8.9 4.3 -2.1 -0.4 -6.8 0.1 -10.8 1 -3.9 0.9 -9.5 1.6 -12.5 1.6 -4.6 0 -5.7 -0.4 -8.3 -3.1 -2.6 -2.8 -2.9 -3.7 -3.1 -10.7 -0.4 -11.1 -1.3 -24.3 -1.8 -26.9 -0.5 -2.1 -1.1 -2.3 -7.4 -2.3 -3.7 0 -8.1 -0.4 -9.7 -0.9 -1.6 -0.5 -5.7 -1.2 -9.1 -1.5 l-6.1 -0.6 0.3 18.9 c0.2 10.4 0.6 21.3 1 24.2 0.6 4.8 0.4 5.7 -1.5 7.4 -1.8 1.7 -4 1.9 -17.8 2.2 -22.9 0.5 -23.8 0.6 -25.9 2.6 -2.7 2.4 -3.7 2.2 -7.1 -1.7z m34.4 -19.8 c1.5 -3.4 1.9 -6.6 1.9 -17.8 0 -13.4 0 -13.7 -2.7 -16.9 -3.2 -3.8 -3.8 -10.2 -1.3 -13.8 3.1 -4.4 11.3 -5.3 18.7 -1.9 4.6 2.1 11.1 2.8 27.4 2.9 13 0.2 14.3 0.4 17.5 2.6 1.9 1.3 4 3.5 4.7 4.9 1.5 3.3 1.5 9.7 -0.1 14.2 -1.7 5 -1 15 1.3 18 1.9 2.5 1.9 2.5 3.4 0.5 2.7 -3.6 2.9 -8.6 1.6 -35.2 -0.7 -14.3 -1 -26.5 -0.7 -27 1.3 -2.1 0.5 -27.1 -1.3 -40.4 -0.7 -5 -0.7 -10 -0.1 -14.4 0.9 -6.5 0.1 -16.1 -1.6 -18.8 -0.4 -0.6 -1.1 -8.6 -1.5 -17.7 -0.7 -17.2 -1.8 -26.7 -3 -26.2 -0.5 0.1 -2.3 0.2 -4.2 0.2 -3.1 0 -3.6 0.4 -5.1 4.4 -1.9 5 -1.7 21.1 0.5 39 0.7 5.8 0.8 10.1 0.3 10.5 -1 0.7 -1 2 -1.5 29.3 -0.2 14 0 19 1 20 0.6 0.6 1.2 3.2 1.2 5.7 0 3.9 -0.5 5.1 -3.7 8.3 -3.1 3.2 -4.4 3.8 -7.8 3.8 -2.2 0 -5.8 0.7 -8 1.5 -4.3 1.5 -18 1.8 -27.7 0.6 -6.1 -0.7 -11.1 -4.2 -12.4 -8.5 -0.3 -1.2 -1.7 -4.4 -2.9 -7.2 -1.6 -3.4 -2.7 -8.5 -3.4 -15.3 -0.6 -5.7 -1.4 -10.7 -1.7 -11.2 -1.3 -2.1 -3.4 -20.1 -3.4 -29.9 -0.2 -19.2 -1.4 -31.7 -3.4 -33.9 -1.7 -1.8 -9.1 -3.9 -10.2 -2.8 -0.3 0.3 0.6 9 2 19.3 4.6 34 7.5 81.7 7.5 122.1 0 26.7 0.5 32.9 3 34.3 0.9 0.5 4.3 1 7.7 1 l6.1 0 1.9 -4.2z"/>
  <path d="M49 241.2 c-3.6 -0.2 -6.9 -0.7 -7.4 -1.3 -0.6 -0.5 -2 -0.9 -3.2 -0.9 -3.2 0 -8.1 -4.5 -10.8 -9.9 -2.6 -5.1 -5.6 -14.7 -5.3 -17.1 0.1 -0.8 -0.2 -4.5 -0.7 -8.2 -0.4 -3.6 -1.2 -21 -1.6 -38.5 -0.4 -17.5 -1 -35.4 -1.4 -39.8 -0.8 -10.1 -1.5 -20.5 -2.2 -31.4 -0.5 -8 -0.7 -8.8 -3.5 -11.2 -1.6 -1.4 -2.9 -3 -2.9 -3.5 0 -1.5 11.7 -7.4 14.8 -7.4 1.6 0 4.6 -1.1 6.6 -2.5 2.8 -1.9 5 -2.5 8.9 -2.5 2.9 0 5.8 -0.5 6.5 -1.2 2 -2 27.3 -5 41.6 -4.8 13.4 0.1 30.3 2.4 32.5 4.4 1 0.9 2.3 1.6 3 1.6 0.6 0 1.6 1.1 2.2 2.4 0.9 1.9 0.6 3.4 -1.8 8.2 -3 6.1 -7.7 14.9 -11.7 21.9 -8 13.9 -11.4 20.3 -12.1 22.5 -0.4 1.4 -2.3 4.6 -4.1 7.2 -3.8 5.4 -3.6 7.1 0.9 8.9 9.3 3.6 18.2 12.3 23.2 22.3 l3.8 7.8 -1.7 4.7 c-1 2.5 -3.4 9.3 -5.3 15.1 -4.7 13.9 -7.3 21.1 -8.4 23.2 -0.5 1 -0.9 2.3 -0.9 3 0 0.7 -1.3 4 -2.8 7.3 -3.2 6.8 -9 12.5 -12.7 12.5 -1.3 0 -3 0.9 -3.8 2 -1 1.4 -2.8 2.1 -7.3 2.4 -15.2 1.1 -23 1.9 -24.4 2.5 -0.8 0.3 -4.4 0.5 -8 0.3z m31.1 -15.2 c1.4 0 2.9 -2.2 5.9 -8.7 2.2 -4.9 4.9 -10.6 6 -12.8 1.1 -2.2 3.8 -9.7 6 -16.6 l4.1 -12.6 -2.1 -5.6 c-3.9 -10.4 -7.5 -14.1 -20.1 -20.5 -6.1 -3 -7.9 -5.8 -7.9 -11.9 0 -3.7 0.6 -4.9 4 -8.4 2.2 -2.3 4 -4.6 4 -5.1 0 -0.9 8.1 -14.5 14.3 -24 1.5 -2.4 4.3 -7.4 6.1 -11.3 4.2 -8.5 3.8 -9.3 -6.4 -12.4 -15.2 -4.6 -34.6 -5.1 -49.5 -1.3 -5.8 1.6 -7 2.2 -6.8 3.8 1.8 16.5 5.4 61.7 6.3 77.9 1.2 21.3 3.7 48.5 4.5 49.4 0.3 0.2 0.5 -2.5 0.6 -6 0 -3.5 0.4 -7.3 0.8 -8.3 0.4 -1.1 0.1 -5.8 -0.6 -10.5 -0.8 -4.7 -1.3 -11.9 -1.1 -15.9 0.3 -6.6 0.6 -7.5 3.3 -9.7 4.4 -3.6 9.9 -4.8 18.3 -4.1 9.4 0.8 12 2.2 17.9 9.8 l4.8 6.3 -0.2 8.6 c-0.1 9.9 -1.8 19 -4.2 23.4 -4 7.4 -11.2 15.4 -13.8 15.5 -0.7 0 -1.5 1.2 -1.8 2.8 -0.3 1.5 -0.9 3.9 -1.4 5.4 -0.8 2.4 -0.6 2.7 1.8 3.1 1.4 0.2 3.2 0.2 3.9 0 0.8 -0.1 2.2 -0.3 3.3 -0.3z"/>
  <path d="M48 128.6 c0 -2.4 -0.5 -6.8 -1 -9.7 -0.8 -3.8 -0.7 -8.9 0.1 -17.4 1.6 -17 2.4 -17.7 24.9 -20.5 17.1 -2.1 21 -0.8 21 6.6 0 5 -2.6 9.2 -14 22.4 -2.1 2.5 -5.9 6.9 -8.4 9.8 -2.6 2.9 -4.6 5.9 -4.6 6.7 0 2.5 -8.2 6.5 -13.3 6.5 l-4.7 0 0 -4.4z m18 -16.9 c0 -0.6 1.3 -2.5 3 -4 3.9 -3.7 12.3 -17.3 11.5 -18.7 -0.8 -1.3 -8 -1.2 -13 0.4 -3.2 0.9 -4.1 1.7 -4.6 4.1 -1.6 7.3 -0.2 19.5 2.1 19.5 0.6 0 1 -0.6 1 -1.3z"/>
  <path d="M159.4 231.1 c-7.1 -5.3 -10.1 -11.4 -10.5 -21 -0.2 -6.1 1.6 -33.2 3 -45.1 1.2 -9.6 0.7 -86.8 -0.6 -93.7 -0.5 -2.8 -1.5 -5.8 -2.2 -6.6 -0.6 -0.9 -1.3 -3.4 -1.4 -5.6 -0.3 -8.3 8.4 -12.2 19 -8.7 3.3 1.1 6.7 1.5 9.9 1.1 2.7 -0.3 6.9 -0.7 9.4 -0.9 2.5 -0.2 5.8 -0.9 7.3 -1.5 4.4 -1.7 8.9 -1.3 12 1.3 l2.9 2.3 -1.1 19.9 c-1.8 34.7 -3.4 94.7 -2.7 99.7 l0.7 4.7 9.2 0.1 c19.1 0.4 20.7 0.5 23.4 2.6 3.4 2.5 6.2 6.2 6.7 8.9 0.2 1.2 1.3 5.2 2.5 9 2.4 8.2 5.1 21 5.1 24.2 0 1.3 -1.4 3.6 -3.2 5.3 l-3.3 3.1 -17 -0.5 c-9.3 -0.2 -20.4 0 -24.5 0.4 -11 1.2 -17 2 -19.4 2.6 -1.2 0.2 -6.4 0.7 -11.6 1 -9.4 0.5 -9.5 0.4 -13.6 -2.6z m31.3 -12.1 c2.6 -0.6 12.6 -1.4 22.1 -1.9 10.3 -0.5 17.8 -1.3 18.5 -2 0.8 -0.8 0.8 -2.3 0 -5.8 -0.7 -2.7 -1.4 -6 -1.7 -7.5 -0.6 -2.4 -1.1 -2.8 -4.4 -2.9 -2 0 -11.5 -0.4 -21.1 -0.8 -15.6 -0.6 -17.5 -0.9 -18.7 -2.7 -0.8 -1 -2 -2.6 -2.7 -3.4 -4.5 -5.5 -5 -7.2 -4.3 -14.4 1.1 -12.4 2.3 -21.9 3.9 -31.1 2.2 -12.7 3.5 -27.5 4.8 -53.9 1 -19.2 0.9 -23 -0.2 -23.7 -0.8 -0.5 -4.2 -0.9 -7.6 -0.9 l-6.2 0 0.2 56.3 c0.1 30.9 0 64.5 -0.2 74.6 -0.4 17 -0.2 18.5 1.4 19.8 2.2 1.6 9.5 1.7 16.2 0.3z"/>
  <path d="M348.3 226.4 c-2.7 -2.1 -3.2 -3.3 -4.3 -10.6 -0.6 -4.5 -1.1 -10.9 -1 -14.2 0.5 -15.3 0 -28.3 -1.3 -30 -0.9 -1.3 -2.9 -1.8 -7.1 -2 -6.4 -0.3 -8.2 0.8 -9.2 5.2 -0.3 1.5 -1 4.1 -1.4 5.7 -0.5 1.7 -1.1 9.8 -1.3 18 -0.6 17.9 0.4 16.8 -16.5 18.4 -11.1 1 -11.5 1.1 -16.4 5.1 -2.8 2.2 -5.4 4 -5.9 4 -1.9 0 -5.9 -4.7 -6.4 -7.5 -0.2 -1.6 0.5 -12.2 1.6 -23.4 1.1 -11.2 1.9 -21.4 1.8 -22.5 -0.1 -1.2 0.1 -7 0.5 -13.1 0.4 -6 0.9 -17.1 1.1 -24.5 1 -31.6 2.1 -48.7 4.1 -64.6 1.4 -11.4 1.4 -16.2 -0.1 -20.9 -0.9 -3 2.6 -5.7 8.3 -6.6 2.6 -0.4 6.5 -1.2 8.7 -1.7 2.2 -0.6 10.3 -1.5 18 -2.1 13.5 -1 14.2 -0.9 18.5 1.2 4 1.9 5.8 2.1 15.5 1.9 9.7 -0.3 11.2 -0.1 12.6 1.5 3 3.5 4.4 9.7 7.3 32.3 1.4 10.3 2.1 19.1 4.1 49.5 0.9 12.9 1.3 16.6 2.5 23.7 0.6 3.5 1.2 9.2 1.4 12.8 0.3 3.6 1 10.3 1.6 15 0.6 4.7 1 10.1 1 12 0 1.9 1.4 8.5 3.1 14.5 1.7 6.1 3 11.8 3 12.9 0 2.8 -4.1 6.6 -7.2 6.6 -1.4 0 -4.2 0.6 -6.1 1.4 -3.7 1.6 -19.4 4.4 -24.4 4.4 -1.7 0 -4.3 -1 -6.1 -2.4z m22 -14.5 c1.2 -0.7 2.3 -1.3 2.5 -1.4 0.1 -0.1 -0.5 -1.8 -1.3 -3.8 -0.8 -2 -1.5 -5.6 -1.5 -7.9 0 -2.4 -1.1 -10.8 -2.5 -18.8 -2.3 -13.8 -2.4 -15.2 -1.3 -30.5 1.4 -19.6 -0.3 -55 -3.5 -75.5 -2.1 -13 -2.3 -13.5 -4.7 -13.8 -1.4 -0.2 -3.1 -0.9 -3.7 -1.4 -0.9 -0.7 -1.3 -0.7 -1.3 0.1 0 1.5 -15.7 1.5 -16.2 0 -0.5 -1.4 -8.2 -2.8 -15.8 -2.8 -4.8 -0.1 -16.5 2 -17.4 3 -1.2 1.3 -2.6 33.4 -3.1 68.9 -0.3 22.8 -0.8 49.1 -1.1 58.3 l-0.7 16.8 2.9 -0.7 c1.6 -0.4 4 -1.5 5.4 -2.5 2.3 -1.6 2.5 -2.4 2.6 -9.6 0 -4.3 0.8 -12.7 1.7 -18.8 0.9 -6 1.7 -12.4 1.7 -14.1 0 -4.1 3.4 -5.7 12 -5.8 3.6 -0.1 7.2 -0.6 8 -1.1 0.8 -0.5 5.3 -1.1 10 -1.3 8.1 -0.4 8.7 -0.2 11.8 2.4 4.1 3.4 4.8 6.4 6.2 24.4 1.9 24.8 2.8 32.1 4.5 34.6 1.8 2.8 1.9 2.8 4.8 1.3z"/>
  <path d="M321.2 140.8 c-0.9 -1.1 -1.1 -8.4 -1 -28.2 0.2 -22.6 0.5 -26.9 1.8 -28 2.3 -2 13.6 -2.8 19.8 -1.5 4 1 5.8 2 7.8 4.6 3.8 5.1 4.4 8.1 4.9 28.5 l0.5 18.8 -3.7 1.9 c-4.6 2.3 -11.3 3.7 -21.3 4.7 -6 0.5 -7.8 0.3 -8.8 -0.8z m18.9 -13.7 c1.7 -1.4 2.3 -2.8 2.2 -5.7 -0.4 -23.6 -0.2 -22.2 -3.5 -24.9 -5.8 -4.9 -6.3 -3.8 -6.6 13.7 -0.2 13.2 0 15.9 1.3 17.2 2.1 2.1 3.8 2 6.6 -0.3z"/>
  <path d="M450.1 215.1 c-1 -1 -2 -2.4 -2.3 -3.2 -0.3 -1 -1.2 -0.8 -3.5 0.9 -1.7 1.2 -4 2.2 -5.2 2.2 -3.3 0 -8.8 -6.5 -10 -11.8 -0.6 -2.6 -1.3 -16.8 -1.5 -31.7 -0.8 -46 -2 -67.5 -4.2 -73.5 -1 -2.9 -1.5 -7.5 -1.5 -13 0.1 -4.7 0.1 -11.6 0.1 -15.4 0 -6.7 1.6 -10.6 4.2 -10.6 0.4 0 3 -1.6 5.7 -3.5 5.7 -4.1 6.1 -4.2 8.4 -1.4 1.5 1.7 2.5 1.9 6 1.4 2.3 -0.4 4.8 -1.1 5.7 -1.6 2.3 -1.3 13.1 -5.1 16.1 -5.6 3.6 -0.7 5.6 1.7 6.9 8.5 0.6 3.1 1.6 6.8 2.2 8.2 0.6 1.4 1.2 7 1.3 12.5 0.2 5.5 0.6 14.1 1 19.1 0.4 4.9 0.9 11.5 1 14.5 0.5 9.4 1.7 16.4 3.1 18.3 1.2 1.7 1.4 1.7 2.9 0.2 0.9 -0.9 2.5 -2 3.4 -2.6 1.8 -0.9 3.8 -9.4 3.2 -13 -0.1 -0.8 -0.4 -4.2 -0.7 -7.5 -0.3 -3.3 -0.6 -6.5 -0.8 -7.1 -0.2 -0.5 0 -3.4 0.6 -6.3 0.7 -4.1 0.6 -6.2 -0.5 -9 -1 -2.5 -1.4 -8.1 -1.5 -18.1 0 -8 -0.5 -15.7 -1.1 -17.2 -1.3 -3.4 -0.4 -6.3 2.2 -7.5 7 -3.2 10 -4.3 11.7 -4.3 1 0 2 -0.4 2.2 -0.9 0.2 -0.5 2.1 -1.2 4.3 -1.5 5.1 -0.8 7 -1.4 12.5 -3.8 5.8 -2.7 8.4 -2.6 11.5 0.3 1.9 1.9 2.5 3.4 2.5 7 0 2.5 0.7 9.2 1.5 15 0.8 5.7 1.5 14 1.5 18.4 0.1 4.4 0.6 14.6 1.1 22.7 0.5 8.1 1.2 19.8 1.4 26 0.3 6.2 0.7 12.1 0.8 13.2 0.2 1 -0.2 4.9 -0.8 8.7 -0.8 4.8 -0.9 11.2 -0.3 21.6 0.4 8.1 0.6 20.6 0.2 27.8 -0.5 12.6 -0.6 13 -3.5 15.7 -3 2.9 -3 2.9 -17.5 3 -2.6 0.1 -5.5 -0.7 -7.8 -2.1 -3.4 -2.1 -3.6 -2.5 -3.5 -7.4 0.1 -2.9 -0.4 -8.1 -1.1 -11.7 -0.7 -3.6 -1.3 -9.6 -1.4 -13.5 l-0.1 -7 -4 -0.3 c-2.2 -0.2 -6.5 0.1 -9.5 0.8 -3 0.6 -7.1 1.4 -9 1.8 -3.2 0.6 -3.5 1 -3.4 4.2 0.1 1.9 0.4 4.9 0.7 6.5 0.5 2.9 0.9 14.2 0.8 21.8 -0.1 5.6 -4 8.9 -13.8 11.6 -10 2.6 -15.7 2.7 -18.2 0.2z m13.5 -8.3 c4 -1.4 4.3 -3.4 3.1 -17.9 -1.6 -19.8 -1.5 -20.8 2.4 -24 2 -1.7 5 -3 7.4 -3.3 2.2 -0.3 7.8 -1 12.5 -1.7 13.2 -1.8 24.5 -2.2 26.9 -1 2.4 1.4 2.8 6 0.9 12.2 -0.9 3 -0.8 4.8 0.1 8.1 0.7 2.3 1.5 7.4 1.8 11.4 0.4 5.3 1.1 7.8 2.4 9 2.3 2.1 5.5 1 6.3 -2 1.1 -4.4 0.6 -25.1 -1.2 -56.1 -1.4 -22.1 -1.7 -34.6 -1.1 -43.5 0.9 -15.1 1.8 -22.1 3.2 -23.7 0.5 -0.8 0.7 -4.4 0.3 -9 -1.1 -12.5 -1.6 -15.3 -3.2 -15.3 -0.8 0 -1.4 -0.9 -1.4 -2 0 -1.4 -0.7 -2 -2.2 -2 -3.2 0.1 -13.9 2.7 -14.8 3.7 -2 2.1 -2.7 31.7 -1 38.3 0.5 1.9 1.5 11.3 2.1 21 0.7 10.5 1.7 18.6 2.5 20.2 0.8 1.5 1.4 5.4 1.4 8.6 0 4.7 -0.4 6.3 -2 7.7 -3.8 3.4 -33 6.7 -40.5 4.6 -6.8 -1.9 -7.6 -3.1 -8.2 -11.5 -0.5 -6.5 -0.3 -8.2 1.8 -12.8 2.1 -4.8 2.3 -6.7 2.2 -19.8 -0.1 -16.2 -2.9 -39 -4.9 -39 -0.9 0 -11.3 2.9 -13.7 3.9 -2.8 1.1 -2.9 1.3 -2.4 6.9 0.7 8.3 4.5 41.6 5.6 49.2 0.9 6.1 1.5 11.8 4.1 42.5 1.7 19.5 3.1 32.8 3.6 35.8 0.6 3 1.3 3.2 6 1.5z"/>
 </g>
 <g fill="#ffffff">
  <path d="M85.8 777.5 c-0.2 -0.3 -3.8 -0.8 -7.9 -1.1 -4.1 -0.3 -7.7 -0.8 -8 -1.2 -0.3 -0.4 -3.2 -8.3 -6.4 -17.7 -3.2 -9.3 -6.3 -18.1 -7 -19.5 -0.8 -1.5 -1.5 -10.2 -1.9 -22.5 -0.4 -11 -1.1 -23.4 -1.7 -27.5 -0.5 -4.1 -1.6 -15.6 -2.5 -25.5 -1.9 -21.7 -2.6 -27.1 -5.2 -44 -1.2 -7.1 -3.1 -19.7 -4.3 -28 -1.6 -11.1 -2.7 -15.8 -4.2 -18 -1.5 -2 -2.1 -4.5 -2.2 -8 0 -4.9 0 -5 3.3 -5.3 1.9 -0.2 5.4 0.4 7.9 1.2 2.5 0.9 5 1.3 5.5 1 0.5 -0.3 1.4 -0.1 2.1 0.4 1.2 1 6.1 2.3 10.4 2.8 1.2 0.1 3.8 0.7 5.7 1.4 2.5 0.8 9.4 1 23 0.5 10.7 -0.3 20.5 -0.3 21.8 0 1.3 0.4 3.2 1.8 4.3 3.3 1.9 2.5 2 3.9 1.6 18.7 -0.3 8.8 -0.4 20.9 -0.4 26.8 l0.2 10.8 -4.9 7.7 c-9.7 15.1 -11.8 17.2 -17.3 17.2 -2.7 0 -6.2 3.4 -7 6.7 -0.4 1.6 0.4 3.1 2.6 5.3 1.7 1.6 3.4 3 3.8 3 2.2 0 6.5 2.5 16.9 10 3.4 2.5 7.3 5.2 8.6 6.1 1.3 0.8 3.3 2.7 4.5 4.2 1.1 1.5 5.6 6.2 9.9 10.5 8.1 8.1 11.5 13.2 10.7 16.3 -0.3 1 0.4 3.7 1.6 6 2.1 4.4 3.6 19.4 3.7 39.1 0 8.8 -0.2 9.9 -2.2 11.9 -3.9 3.7 -9.9 5.7 -18.8 6.3 -13.2 0.9 -45.6 1.7 -46.2 1.1z m44.9 -16 c1.2 -0.3 3.5 -1.7 5.2 -3.1 3.9 -3.3 4 -6.5 0.5 -19.4 -1.4 -5.2 -3.5 -13.1 -4.6 -17.5 -3.5 -13.9 -5.9 -18.6 -11.2 -22 -2.6 -1.6 -8 -5.9 -12 -9.6 -7.5 -6.7 -22.4 -14.9 -27.1 -14.9 -3.8 0 -10.8 6 -12.7 11 -2 5.4 -2.3 11.1 -0.5 12.8 0.8 0.9 1.2 5.1 1.3 13 0.3 20.9 2.3 41.1 4.6 45.7 2.6 5.1 1.9 5 29 4.8 13.9 -0.2 26.3 -0.5 27.5 -0.8z m-59.4 -123.6 c1.2 -0.7 3.2 -2.2 4.5 -3.4 1.2 -1.3 4.8 -3.3 8 -4.6 3.1 -1.3 8.7 -4.8 12.3 -7.8 l6.5 -5.6 1.2 -8.1 c0.7 -4.4 1.2 -9.3 1.2 -11 0 -3.9 -2.6 -7.4 -5.4 -7.4 -1.3 0 -3.6 -0.6 -5.1 -1.4 -1.5 -0.8 -3.4 -1.2 -4.1 -0.9 -0.8 0.3 -3.3 -0.2 -5.6 -1.2 -3.4 -1.3 -5.9 -1.5 -12.7 -0.9 -8.2 0.6 -8.7 0.8 -12.9 4.8 l-4.4 4.2 1.2 4.4 c0.7 2.5 1.4 6.1 1.7 8 0.3 3.5 0.6 5.4 1.9 12.1 0.4 2.2 0.1 4.5 -0.6 5.9 -1 1.9 -0.8 2.6 1.4 4.9 1.4 1.5 2.6 3.2 2.6 3.8 0 1 4.6 5.3 5.7 5.3 0.2 0 1.4 -0.5 2.6 -1.1z"/>
  <path d="M235.7 767.8 c-0.7 -0.4 -2.4 -0.8 -3.8 -0.8 -1.5 0 -3.1 -0.6 -3.7 -1.2 -0.5 -0.7 -1.3 -9.4 -1.7 -19.3 -0.4 -9.9 -0.9 -19.6 -1 -21.5 -0.2 -1.9 -0.8 -12.3 -1.4 -23 -0.6 -10.7 -1.3 -22 -1.6 -25 -0.8 -8.8 -1.7 -19.2 -2 -23 -0.9 -11.8 -1.8 -19.3 -3.1 -24.8 -0.8 -3.5 -1.4 -8.1 -1.4 -10.3 0 -2.1 -0.9 -7.9 -1.9 -12.7 -2.2 -10.4 -3.4 -24.2 -2.2 -26.1 0.9 -1.4 14.9 -1.8 16.2 -0.4 1 1.1 2.8 10.3 3.9 20.3 0.5 4.7 1.5 11.3 2.1 14.7 0.6 3.5 0.9 6.9 0.6 7.6 -0.2 0.7 0 5.5 0.5 10.7 1.3 12.7 1.4 14.7 2.4 42 1 29.1 1 30.5 0 41 -0.4 4.7 -0.9 10.8 -1.1 13.6 -0.1 2.7 -1.2 6.9 -2.4 9.2 -3.8 7.4 -2.2 11.7 5.3 15 3.8 1.8 4.8 1.8 10.5 0.7 6.4 -1.4 9.3 -1 14.8 1.9 3.8 1.9 4.5 4.2 2.4 7.8 -1.2 2.2 -2.4 2.8 -6.5 3.3 -7.5 1 -23.6 1.1 -24.9 0.3z"/>
  <path d="M413 761.5 c-1.1 -1.3 -1.5 -5.4 -1.6 -16.9 -0.2 -26 -0.6 -32 -2.1 -35.9 -1.8 -4.4 -2.7 -5 -10.8 -6.9 -4.2 -1.1 -10.9 -1.5 -22.8 -1.3 -20.6 0.2 -20 -0.2 -20.2 12.2 -0.4 28 -0.4 27.3 -2.4 27.3 -2.5 0 -2.7 -1.6 -3.9 -31.5 -1.6 -38.6 -1.6 -43.1 0.4 -43.9 1.6 -0.6 1.6 -0.7 -0.1 -2 -2.3 -1.7 -2.2 -0.5 -2.5 -51.9 l-0.3 -42.9 3.1 -3.1 c2.5 -2.5 4.3 -3.2 8.7 -3.7 3 -0.3 6.1 -0.3 6.8 0.2 0.6 0.4 5.9 0.8 11.7 0.9 10.3 0 31.1 1.4 34 2.1 5.2 1.4 5.6 1.8 6.7 7.6 2.7 13 3.3 23.5 3.7 59.7 0.3 32.4 0.7 40.2 2.5 52.8 1.2 8.1 2.6 16 3.2 17.5 1 2.6 1.8 13 2.3 30.2 0.2 4.7 0.7 12.2 1.1 16.7 l0.8 8.1 -5.5 2.6 c-7.7 3.6 -11.1 4.2 -12.8 2.1z m-37.6 -79.5 c4.3 -4.8 15.8 -9 24.7 -9 4.3 0 6 -0.5 7.3 -1.9 1.7 -1.9 1.7 -2.8 0 -19.8 -2 -20.7 -1.9 -31.7 0.2 -39.2 1.9 -6.5 1.4 -8.6 -2.6 -13 l-3.1 -3.4 -13.2 0.7 c-15.9 0.9 -19.7 1.7 -24.2 5.7 -2.7 2.4 -3.5 3.9 -3.5 6.4 0 1.9 0.4 3.7 1 4 1.1 0.7 1.1 36.4 -0.1 38 -0.4 0.6 -0.7 2.1 -0.7 3.5 0 1.4 -0.7 5 -1.6 8 -0.9 3 -1.6 6.2 -1.6 7 0 3.5 10.4 17 13.1 17 0.4 0 2.3 -1.8 4.3 -4z"/>
  <path d="M503.8 755.9 c-2.6 -1.6 -4.5 -19.4 -5.2 -49.9 -0.4 -13.5 -0.8 -28.1 -1.1 -32.5 -1 -17.1 -3.8 -53.8 -5.4 -70.3 -0.9 -10 -1.3 -17.6 -0.8 -18.1 0.5 -0.5 0.6 -1.5 0.1 -2.2 -0.4 -0.8 -0.9 -2 -1 -2.9 -1.5 -16.1 -1.5 -16.7 0.3 -17.5 1 -0.4 5.8 -0.9 10.6 -1.1 4.8 -0.2 9.2 -0.6 9.8 -0.9 0.5 -0.4 3.4 -0.1 6.5 0.6 l5.6 1.3 -0.2 11 c-0.1 13.9 0.7 34.8 1.7 40.1 0.4 2.2 0.6 6.4 0.4 9.3 -0.2 2.9 0.2 5.9 0.9 6.6 0.7 1 0.8 1.6 0 2.1 -1.3 0.8 -1.3 6.7 0.1 12.5 1.7 7 1.8 8.2 2 31 0.3 27.2 0.5 27.6 11.5 22 4.9 -2.5 7.9 -3.2 17.3 -4 16.4 -1.5 45 -1.1 47.6 0.6 3.5 2.4 6.1 1.7 8.5 -2.3 2 -3.4 2.1 -4.2 1.1 -7.8 -0.7 -2.2 -1.9 -6.2 -2.7 -9 -2.2 -7.6 -5.2 -28.3 -6.3 -44 -0.9 -11.8 -2.5 -26.4 -4.5 -40 -2.8 -19 -2.9 -19.7 -1.5 -21 1.3 -1.3 3 -1.8 14.2 -5 5.7 -1.6 5.3 -2.5 6.1 16 0.3 7.2 1.2 15.4 2 18.4 0.7 2.9 1.2 6.1 0.9 7 -0.2 1 0 5.1 0.7 9.2 0.6 4.1 1.3 9 1.5 10.9 0.3 1.9 0.9 5.1 1.4 7 3.2 11.7 4.4 25.6 3.5 42.2 -0.5 9.2 -0.6 18.8 -0.2 21.5 1.2 7.4 3.1 15.7 3.9 16.8 0.7 1 1.6 14.6 2.1 31.5 l0.3 8.5 -5 0.2 c-2.7 0.1 -8.4 0.5 -12.6 0.9 -4.4 0.4 -7.9 0.3 -8.2 -0.2 -0.3 -0.6 -0.8 -8.6 -1.1 -17.8 -0.4 -12.8 -0.9 -17.3 -2 -18.5 -1.6 -1.8 -10 -4.6 -11.3 -3.8 -0.5 0.3 -2.9 0.2 -5.3 -0.3 -8 -1.5 -31.3 -3.3 -42.2 -3.3 -6.1 0 -8.4 0.5 -11.2 2.3 -2 1.2 -3.6 2.8 -3.6 3.6 0 0.8 -0.7 1.7 -1.5 2 -1.9 0.8 -2.1 8.7 -0.2 10.2 0.8 0.7 1.4 4 1.6 8.9 0.5 13.1 0.4 13.9 -1.4 16.7 l-1.8 2.7 -12.4 -0.3 c-6.9 -0.2 -12.9 -0.6 -13.5 -0.9z"/>
  <path d="M192.4 478.5 c-2.7 -1.1 -3.2 -2 -3.7 -5.9 -0.4 -2.6 -1.8 -6.3 -3.2 -8.4 -1.4 -2 -2.5 -4.9 -2.5 -6.5 0 -2.9 -1.3 -12.7 -3.1 -22.9 -0.5 -3.2 -1.6 -12.8 -2.4 -21.5 -0.8 -8.7 -2 -19.8 -2.6 -24.8 -1.3 -10.6 -1.3 -10.6 -3.3 -30.5 -1.6 -15.9 -2.1 -23.1 -3.3 -47.4 -0.6 -13.8 -0.6 -13.9 1.8 -15.7 3 -2.3 13.3 -2.6 18.2 -0.5 3.1 1.2 3.5 1.9 5.7 10.7 1.9 7.7 2.4 12.4 2.6 26.4 0.1 9.4 0.7 19.9 1.2 23.5 0.5 3.6 1 10.7 1.1 15.9 0.1 5.2 0.4 9.8 0.7 10.2 0.8 1.4 1.3 9.6 1.9 33.4 0.8 30.9 1.2 37 2.4 39.4 2 3.7 14.3 5.3 28.1 3.7 3.6 -0.5 8.6 -0.9 11.2 -1.1 2.6 -0.2 5.1 -0.6 5.6 -0.9 1.1 -0.7 3.2 3.7 3.2 6.9 0 3 -1.6 4.5 -8.4 8.5 -9.2 5.2 -21.3 7.9 -38.1 8.5 -6.6 0.2 -11.1 -0.1 -13.1 -1z"/>
  <path d="M51.2 476.8 c-1.2 -1.5 -3.6 -19 -5.8 -42.8 -0.4 -3.6 -0.9 -31.2 -1.1 -61.3 -0.5 -62.1 -1.2 -57.2 7.9 -60.3 5.3 -1.7 15 -1.5 24.1 0.5 2.6 0.6 7.7 1.3 11.4 1.5 7.4 0.4 9.2 1.8 9.4 7 0.2 5.3 -0.2 6.9 -3 13.1 -1.5 3.3 -3.4 7.6 -4.2 9.5 -0.7 1.9 -2.8 5.5 -4.6 8 -1.8 2.5 -4.5 6.2 -6 8.3 -3.7 5.1 -11 13.4 -15 17 -2.6 2.3 -3.3 3.7 -3.3 6.7 0 3.1 0.6 4.3 2.9 5.9 1.6 1.2 3.6 2.1 4.4 2.1 0.9 0 2.8 0.5 4.4 1.2 3.4 1.4 5.4 1.8 11.3 2.2 5.8 0.5 14.7 4.5 18.5 8.6 1.7 1.7 4.4 4 6.2 5.1 3.4 2.1 11.4 16.5 14 25.4 2.7 9.1 2.2 13.2 -2.4 20.1 -4.3 6.3 -9.5 11 -14.8 13.3 -4.5 2 -13.2 4.1 -16.8 4.1 -1.8 0 -4.8 0.4 -6.7 1 -3.8 1.1 -11.9 2.1 -19.8 2.4 -2.9 0.1 -5.8 0.8 -6.4 1.4 -1.5 1.5 -3.3 1.5 -4.6 0z m34.3 -16.9 c2.6 -1.2 5.8 -3.3 7.1 -4.8 2.2 -2.5 7 -11.4 11.3 -21.3 1.2 -2.6 2.5 -5 3.1 -5.3 0.6 -0.3 1.7 -2 2.6 -3.7 1.5 -2.9 1.5 -3.1 -1.2 -5.9 -3.1 -3.3 -14.3 -9.9 -16.7 -9.9 -0.8 0 -4 -1.1 -7.2 -2.5 -4.1 -1.9 -8.2 -2.7 -14.9 -3.2 -8.4 -0.5 -9.2 -0.4 -11 1.6 -1.9 2.1 -1.9 2.2 0.3 10.5 1.2 4.6 2.4 12 2.7 16.4 0.4 6.8 0.2 8.5 -1.6 11.4 -2.1 3.5 -2.6 7.3 -1.1 8.2 0.5 0.3 1.2 2 1.5 3.8 0.5 2.6 1.4 3.7 4.4 5 5.4 2.4 14.9 2.3 20.7 -0.3z m-23.8 -102.1 c1.3 -1.2 2.3 -3.2 2.3 -4.6 0 -1.3 1.3 -3.7 3 -5.4 1.7 -1.6 3 -3.3 3 -3.7 0 -0.4 2.3 -3.2 5 -6.3 2.8 -3.1 5 -6.5 5 -7.6 0 -2.3 -4 -5.2 -7 -5.2 -1.2 0 -4.6 -1.1 -7.6 -2.5 -5.9 -2.7 -8 -3 -10.4 -1.5 -1.3 0.8 -1.4 3.7 -1.1 18.2 0.2 9.5 0.7 18.1 1.2 19.1 1.3 2.3 3.8 2.2 6.6 -0.5z"/>
  <path d="M326.9 474.3 c-2 -0.5 -3.8 -6.2 -3.4 -11 0.2 -2.1 0.6 -33.5 1 -69.8 0.4 -36.3 1 -69.4 1.4 -73.5 l0.6 -7.5 3.5 -0.7 c13.4 -2.9 26.7 -4.9 34.1 -5.2 4.7 -0.2 9.5 -0.9 10.7 -1.5 6.5 -3.5 15.6 1.8 19.7 11.4 2.2 5.1 5.4 17.4 6.5 24.5 0.9 6.6 2.6 15.8 4.1 22 1.1 4.5 2.3 12.4 3.8 25.7 0.5 4 1.4 7.9 2.1 8.7 0.6 0.9 1.3 3.9 1.4 6.8 0.2 2.9 0.8 7.1 1.5 9.3 1.6 5.5 2 7.5 2.5 11.2 0.3 1.8 0.7 3.6 1 4.2 0.5 0.8 2.5 9.5 4 17.6 0.3 1.7 1.5 6.6 2.6 11 1.1 4.4 2 8.3 2 8.6 0 1.1 -7.6 3.1 -10.9 2.7 -1.9 -0.2 -3.8 -1 -4.2 -1.8 -2.5 -4.8 -10.5 -27.8 -13 -37.3 -2.5 -9.5 -3.4 -11.6 -6.1 -13.9 -3.7 -3.2 -4.8 -3.4 -8.6 -1.4 -1.5 0.7 -7.6 1.7 -13.7 2.1 -6 0.4 -14.1 1.5 -18 2.5 -3.8 1 -8.7 2.1 -10.9 2.5 -3.9 0.6 -9.6 5.6 -9.6 8.2 0 0.7 1.3 2.5 2.9 3.9 4.6 4.1 7.9 12 7.5 17.9 -0.4 5.5 -3.3 19.6 -4.3 20.7 -0.8 1 -8.3 2.5 -10.2 2.1z m19.5 -77.2 c2 -2.2 10.7 -3.3 25.9 -3.2 8.1 0 9.7 -0.3 11.3 -2 1.6 -1.8 1.6 -2.2 -0.6 -9.6 -1.7 -5.8 -2.4 -11.2 -2.8 -20.5 -0.3 -9.2 -0.8 -13.1 -1.8 -13.9 -0.8 -0.6 -1.4 -2.1 -1.4 -3.3 0 -2.7 -4.9 -7.6 -7.6 -7.6 -1.1 0 -3 1.4 -4.2 3 -1.3 1.7 -2.9 3 -3.7 3 -0.8 0 -3.6 1.4 -6.2 3 -5.4 3.5 -7.3 3.8 -7.3 1.2 0 -3.4 -1.4 -3.4 -2.6 0 -0.6 1.9 -1.9 3.5 -3.1 3.8 -1.2 0.3 -3.9 2.2 -6.1 4.2 l-4 3.7 0.3 16.3 c0.3 16.4 0.6 18.7 3.4 22 2.1 2.4 8.3 2.4 10.5 -0.1z"/>
  <path d="M489.7 461.3 c-3.5 -1.8 -3.6 -4 -4.2 -48.3 -0.3 -21.2 -0.7 -40.3 -1 -42.5 -0.3 -2.2 -1.2 -13.7 -2 -25.5 -1.3 -17.9 -2.6 -29.5 -5 -45.5 -0.2 -1.1 -0.6 -4.2 -0.9 -7 -0.3 -2.7 -0.9 -6.8 -1.2 -9.1 -0.7 -5.2 0.6 -5.8 9 -4.3 10.3 1.8 10.6 2.5 11.2 26.4 0.4 18.2 2 35 3.6 39.4 0.5 1.3 1.3 6.9 1.9 12.4 0.7 6.7 1.8 11.8 3.4 15.1 1.2 2.8 2.6 6 2.9 7.2 1.3 4.3 6.3 7.8 12.4 8.5 9.3 1.1 20.6 0.5 23.3 -1.2 1.5 -1 3.8 -1.4 6.2 -1.1 3.4 0.4 4.3 0 7.8 -3.4 4 -3.9 4.8 -6.1 2.8 -8.1 -1.8 -1.8 -1.8 -55.3 0 -55.3 0.8 0 0.6 -2.4 -1 -13.7 -1.7 -11.9 -1.4 -31.1 0.5 -35.9 1.7 -4.2 1.7 -4.2 8.3 -4.9 3.6 -0.4 6.9 -0.3 7.3 0.2 0.4 0.4 1 2.6 1.3 4.8 0.3 2.2 1 6.7 1.6 10 0.6 3.3 0.8 10 0.5 14.9 -0.4 6.4 -0.2 10.5 0.9 14.5 3 11 3.7 15.9 2.6 18.8 -1.3 3.5 -1.3 17.1 0 20.6 0.6 1.5 1 6 0.9 10 -0.1 3.9 0.2 9.7 0.7 12.7 0.8 6.3 0.9 5.4 -0.6 14.5 -0.7 4.9 -0.8 10.1 -0.1 17.5 0.6 5.8 1.1 17.6 1.2 26.2 0.1 12.8 -0.2 16.4 -1.6 19.3 -1.4 3.1 -2.1 3.5 -5.4 3.5 -2.8 0 -4.1 -0.6 -5.2 -2.2 -2 -3.1 -3.1 -17.3 -1.7 -21.8 1.8 -6.1 1.9 -7.4 0.7 -10.1 -0.6 -1.4 -2.6 -3.6 -4.4 -4.8 -2.9 -2 -4.7 -2.3 -18.1 -2.6 -8.1 -0.1 -16.3 -0.3 -18 -0.4 -1.8 0 -5.2 -0.9 -7.5 -2 -7.1 -3.2 -9.9 -3.1 -13.3 0.4 -3.2 3.1 -3.1 4.6 0.2 8.5 2.3 2.8 2.7 4.3 3.2 13.3 0.7 10.8 -0.7 24.3 -2.9 29 -0.9 1.8 -2.1 2.7 -3.9 2.8 -11.5 0.5 -14.3 0.4 -16.4 -0.8z"/>
  <path d="M61.9 230.5 c-0.3 -0.3 -3 -0.6 -5.9 -0.8 l-5.3 -0.2 -2.3 -7.7 c-1.2 -4.3 -2.5 -9.2 -2.8 -11 -1.4 -8.4 -3.5 -32.2 -4.6 -51.3 -1.2 -23 -5.6 -73.3 -7 -80.5 -0.4 -2.5 -0.7 -4.6 -0.5 -4.8 1.6 -1.6 17.2 -4.4 27.5 -4.9 19.2 -0.9 38.5 2.6 45.4 8.2 l2.9 2.3 -4.7 9.4 c-2.5 5.1 -5.9 11.2 -7.4 13.6 -6.6 10.3 -14.2 23.1 -14.2 24 0 0.5 -1.8 2.9 -4.1 5.2 -3.4 3.5 -4 4.6 -3.4 6.8 1 4 2.2 5 9.9 8.8 8.9 4.4 11.9 7.3 15.8 15.1 4.7 9.6 4.7 13 -0.1 27.9 -2.3 7.1 -5 14.7 -6.1 16.9 -1.1 2.2 -3.8 7.9 -6 12.8 -2.2 4.8 -4.5 8.8 -5.2 8.9 -0.7 0 -4.1 0.2 -7.5 0.4 -3.4 0.1 -8 0.5 -10.1 0.9 -2 0.3 -4 0.4 -4.3 0z m-2.9 -4.5 c0 -0.5 0.7 -1 1.5 -1 3.1 0 7.5 -3.1 8 -5.5 0.3 -1.4 0.7 -3.6 1 -5 0.3 -1.4 1.1 -2.5 1.8 -2.5 2.6 -0.1 9.8 -8.1 13.8 -15.5 2.2 -3.9 3.9 -12.4 4.1 -20.1 0.1 -5.8 0 -6.4 -4.6 -12.3 -5.9 -7.6 -9.1 -9.3 -17.6 -9.5 -5.8 -0.1 -7.2 0.3 -10.8 2.8 -5.4 3.7 -5.9 6.7 -3.7 21.7 1.3 9.1 1.5 12.5 0.6 15.1 -1.3 4 -0.5 28.1 1 31 1 1.9 4.9 2.5 4.9 0.8z m-0.3 -98.5 c2.3 -1.4 4.3 -3.2 4.3 -4 0 -0.8 2 -3.8 4.6 -6.7 2.5 -2.9 6.3 -7.3 8.4 -9.8 10.7 -12.4 14.3 -18 13.4 -20.5 -1.3 -3.2 -4.1 -3.7 -13.7 -2.5 -13.7 1.6 -18.9 3 -21.9 5.7 -2.3 2.2 -2.7 3.5 -3.4 12.2 -1 12.2 -0.7 16 1.6 19.2 1.7 2.3 1.7 2.9 0.5 4.5 -3.6 4.8 -0.5 5.7 6.2 1.9z"/>
  <path d="M58 219.5 c0 -0.8 0.9 -1.5 1.9 -1.5 1.1 0 2.8 -0.3 3.8 -0.7 1.7 -0.6 1.7 -0.5 -0.1 1.5 -2.2 2.5 -5.6 2.9 -5.6 0.7z"/>
  <path d="M172.8 222.4 c-1.4 -0.7 -2.8 -2 -3.1 -2.9 -0.4 -0.8 -0.4 -10.6 -0.1 -21.7 0.8 -26.3 1 -90 0.4 -114.3 l-0.5 -19 8 0.2 c4.4 0.1 9.5 0.5 11.3 0.8 l3.3 0.6 -0.5 5.2 c-0.4 2.9 -1.1 14.4 -1.6 25.7 -1.2 24.1 -2.7 41.2 -4.7 53 -0.7 4.7 -1.6 10.5 -1.8 13 -0.3 2.5 -1 7.7 -1.6 11.6 -1.2 7.4 -0.6 9.6 3.8 14.2 0.7 0.8 1.8 2.2 2.3 3.2 1.3 2.4 4.9 2.8 26.3 3.4 9.3 0.2 17.1 0.7 17.4 1 1.1 1.1 2.7 10.3 2.7 16.1 l0.1 5.9 -3.5 0.7 c-1.9 0.4 -10.1 0.9 -18.2 1.3 -8 0.3 -16.8 1 -19.5 1.5 -8.7 1.7 -17.8 1.9 -20.5 0.5z"/>
  <path d="M362.6 213.8 c-2.2 -3.6 -2.4 -5.4 -4.6 -34.8 -1.4 -17.9 -2.1 -21 -6.2 -24.4 -3 -2.5 -3.9 -2.7 -9.1 -2.3 -3.2 0.3 -6.4 1.1 -7.2 1.7 -1.3 1.1 -5.9 1.4 -11.9 1 -1.1 0 -3.2 0.4 -4.8 1.1 -2.2 0.9 -2.8 1.8 -2.8 4.3 0 1.7 -0.8 8.3 -1.7 14.6 -0.9 6.3 -1.5 14.7 -1.4 18.6 0.2 6.8 0.1 7.3 -2.6 9.1 -3.4 2.4 -11.7 4.8 -13.8 4 -1.2 -0.5 -1.4 -2 -1 -7.4 0.6 -8.7 1.3 -38.6 2 -81.8 0.4 -29.4 2 -60.2 3.1 -61.4 1.1 -1.1 13 -3 19.9 -3.1 8.7 -0.1 18.3 1.2 19.4 2.6 0.8 1.2 10.1 1.5 10.1 0.4 0 -1.7 4.1 -2.1 6.4 -0.7 1.2 0.8 3.3 1.7 4.7 1.9 2.1 0.3 2.5 1.1 3.6 7.3 0.6 3.9 1.4 8.8 1.7 11 0.3 2.2 1 6.9 1.5 10.5 1.1 7.6 0.9 4.6 1.6 33.5 0.3 12.7 0.2 27.7 -0.3 33.5 -0.7 9 -0.5 12.5 1.5 24.5 1.2 7.7 2.3 15.8 2.3 18 0 2.3 0.9 6.6 2 9.8 2.6 7.3 2.6 7.4 -1 9.2 -4.4 2.3 -9.7 2 -11.4 -0.7z m-28.1 -76.3 c6.7 -0.8 9.8 -1.7 13.8 -3.6 4 -2.1 4.2 -2.9 2.7 -9.7 -0.6 -2.6 -0.7 -5.7 -0.2 -7.5 0.5 -1.8 0.5 -7.2 0.1 -12 -0.6 -7.7 -1.1 -9.5 -3.7 -13 -2.3 -3.2 -4 -4.4 -7.3 -5.3 -2.8 -0.7 -5.1 -0.7 -6.2 -0.2 -1 0.5 -3.1 0.7 -4.6 0.3 -5 -1.1 -5.3 0.3 -5.7 26.1 -0.5 25.6 -0.2 27 4.5 25.9 1.4 -0.3 4.4 -0.8 6.6 -1z"/>
  <path d="M454.6 208.3 c-0.6 -3.2 -2 -17.7 -3.6 -36.3 -0.6 -6.9 -1.5 -16.8 -2 -22 -0.5 -5.2 -1.2 -12.2 -1.5 -15.5 -0.3 -3.3 -1 -8.2 -1.5 -11 -0.5 -2.7 -1.2 -8.1 -1.5 -12 -0.4 -3.8 -0.8 -8.3 -1 -10 -0.2 -1.6 -0.6 -5.2 -0.9 -8 -0.3 -2.7 -1 -7.2 -1.5 -10 -0.5 -2.7 -0.7 -7.2 -0.4 -9.8 0.7 -5.4 1.1 -5.7 10.8 -8.2 9.6 -2.4 12.5 -2.6 12.5 -0.6 0 1 0.3 2.1 0.8 2.5 1.6 1.7 3.5 22.1 3.6 38.6 0.1 16.3 -0.1 17.8 -2.2 22.5 -1.9 4 -2.2 6 -1.7 10 0.6 5.2 2 6.9 6.9 8.3 6.6 1.9 32.1 -1.1 35.5 -4.2 2.1 -1.9 2.2 -7.6 0.3 -11.3 -0.7 -1.2 -1.4 -4.9 -1.6 -8.4 -0.3 -3.5 -0.5 -6.4 -0.6 -6.4 0 0 -0.2 -4 -0.5 -9 -0.4 -9.9 -0.7 -12.1 -2.3 -21 -0.6 -3.3 -0.9 -10.3 -0.7 -15.5 0.3 -5.2 0.6 -12.6 0.8 -16.4 0.2 -7.6 1.3 -9 7.7 -10.1 1.9 -0.3 6.7 -1.2 10.5 -2 3.9 -0.8 7.3 -1.5 7.8 -1.5 1.1 0 0.8 3.5 -0.5 4.8 -0.9 0.9 -0.9 1.2 0.4 1.2 2 0 2.6 3.2 3.4 17.2 0.5 7 0.3 11.7 -0.4 13.1 -3.7 7.6 -4.1 35 -1.1 77.7 2 28.5 1.6 46.3 -1.2 48.1 -2.5 1.6 -9.5 1 -11.1 -0.8 -0.9 -1.1 -1.8 -4.8 -2.1 -9.4 -0.4 -4.2 -1.1 -8.9 -1.7 -10.3 -1.3 -3.6 -1.3 -11.5 0.2 -15.6 0.9 -2.9 0.9 -3.5 -0.7 -4.7 -2.4 -1.7 -6.4 -1.7 -17.2 0.2 -4.9 0.8 -11.4 1.6 -14.6 1.9 -8.9 0.8 -15.3 6.9 -12.5 12 1.2 2.1 2 19.7 1.2 26.7 -0.5 5.1 -0.8 5.6 -3.8 6.7 -1.8 0.7 -5.1 1.2 -7.3 1.2 -3.7 0 -4.2 -0.3 -4.7 -2.7z"/>
 </g>
</svg>