<?xml version="1.0" encoding="utf-8"?>
<!DOCTYPE svg PUBLIC "-//W3C//DTD SVG 20010904//EN" "http://www.w3.org/TR/2001/REC-SVG-20010904/DTD/svg10.dtd">
<svg version="1.0" xmlns="http://www.w3.org/2000/svg" width="472px" height="489px" viewBox="0 0 472 489" preserveAspectRatio="xMidYMid meet">
 <g fill="#000000">
  <path d="M206.5 486.8 c-28.1 -3.4 -51.3 -9.4 -69.8 -18.2 -6.5 -3.1 -12 -5.6 -12.2 -5.6 -0.5 0 -18.1 -11.6 -30 -19.7 -2.7 -1.8 -7.3 -5.5 -10.2 -8.1 -2.8 -2.6 -8.1 -7.2 -11.6 -10.2 -3.5 -3 -8 -7.6 -10.1 -10.3 -2.1 -2.6 -4.2 -4.4 -4.8 -4.1 -0.7 0.4 -0.8 0.2 -0.4 -0.4 0.4 -0.6 -0.1 -2 -1.1 -3 -1 -1 -2.2 -2.6 -2.8 -3.4 -7 -10.8 -8.7 -12.8 -9.7 -12.2 -0.7 0.5 -0.8 0.3 -0.3 -0.6 0.4 -0.7 0.3 -1.5 -0.2 -1.9 -0.5 -0.3 -2.2 -2.4 -3.6 -4.6 -1.5 -2.2 -3.3 -4 -4 -4 -0.6 0 -1.1 -0.9 -0.9 -1.9 0.2 -1 -0.1 -2.2 -0.6 -2.5 -1.8 -1.2 -15 -27.8 -17.1 -34.6 -1.2 -3.8 -2.8 -9.1 -3.6 -11.6 -0.8 -2.6 -1.5 -7.1 -1.6 -10 0 -3.6 -0.3 -4.8 -0.8 -3.4 -0.5 1.3 -0.8 0 -0.7 -3.5 0 -3 -0.3 -8.4 -0.8 -12 -0.9 -8.2 -1.5 -23.2 -1.7 -43 -0.2 -14.8 1.7 -29.4 4 -32.5 0.5 -0.5 1.3 -2.8 1.9 -5 0.5 -2.2 2 -6.5 3.2 -9.5 2.8 -6.9 5 -14.8 5 -17.7 0 -1.2 0.5 -2.5 1.1 -2.8 0.5 -0.4 0.9 -1.7 0.8 -2.8 -0.1 -1.2 0.1 -3 0.6 -4 0.4 -0.9 0.5 -2.8 0.3 -4.2 -0.3 -1.4 -0.1 -2.3 0.6 -2.2 0.6 0.1 1.2 -1.4 1.2 -3.4 0.1 -2 0.9 -4.7 1.7 -6 0.9 -1.3 1.8 -3.7 2.1 -5.4 0.3 -1.6 1.5 -5.5 2.7 -8.5 1.1 -3 2.7 -7.7 3.4 -10.4 1.7 -6 4.3 -11.6 5.4 -11.6 0.5 0 1.2 -1.2 1.6 -2.7 0.3 -1.6 1.8 -4.5 3.1 -6.6 1.5 -2.3 2.3 -4.6 1.9 -5.5 -0.3 -0.9 -0.3 -1.3 0.1 -0.9 1.4 1.3 13.3 -14.3 12.6 -16.5 -0.1 -0.5 0.2 -0.7 0.7 -0.4 1.2 0.8 18.2 -17.4 17.4 -18.6 -0.3 -0.6 -0.1 -0.8 0.4 -0.5 1.4 0.9 4.7 -2.9 3.7 -4.4 -0.4 -0.8 -0.3 -1 0.4 -0.5 0.6 0.4 3 -1.1 5.3 -3.4 2.3 -2.2 4.6 -4 5.1 -4 0.5 0 0.8 -0.6 0.6 -1.2 -0.2 -0.7 0 -1.3 0.4 -1.3 1.1 0 4.8 -3.8 4.3 -4.5 -0.6 -1 2.2 -3.3 4.2 -3.6 2 -0.3 6.4 -4.5 5.8 -5.5 -0.3 -0.4 0.3 -0.5 1.3 -0.2 1.2 0.3 2.8 -0.9 4.9 -3.5 1.7 -2.1 4.6 -4.5 6.5 -5.2 1.8 -0.8 3.5 -1.7 3.8 -2 0.8 -1.2 27.3 -16 28.4 -16 2.1 0 13.2 -3.9 18.4 -6.4 2.8 -1.4 8.5 -3.1 12.5 -3.7 3.9 -0.5 9.9 -1.7 13.2 -2.5 12.1 -3 29.1 -6.3 32.8 -6.4 2.1 0 4.7 -0.5 5.9 -1.1 4.4 -2.4 33.5 -4.4 36.5 -2.6 0.5 0.3 3.5 0.2 6.6 -0.2 6 -0.8 11.2 -0.2 24.2 3.1 23.8 5.8 30.1 7.7 32.7 9.7 1.3 1 7.6 4.8 14.1 8.5 16.2 9.3 29.8 21 35.4 30.4 1.5 2.5 4.1 5.1 6.2 6.1 2 1.1 5.2 4.1 7.1 6.9 1.9 2.8 3.8 4.8 4.2 4.6 0.4 -0.3 0.6 0.1 0.3 0.8 -0.3 0.7 2.5 5.8 6.1 11.3 8.3 12.4 14.7 23 17 27.8 0.9 2 2.2 3.3 2.7 3 0.6 -0.3 0.7 -0.2 0.4 0.4 -0.9 1.5 2.4 9.4 3.6 8.6 0.6 -0.3 0.7 -0.1 0.3 0.5 -0.4 0.7 1.1 4.2 3.3 8 2.3 3.7 4.1 7.1 4.1 7.5 0 0.4 1.1 2.5 2.5 4.7 1.4 2.2 2.5 4.5 2.5 5.1 0 1.3 5.8 16.1 10 25.4 1.5 3.4 3.9 10.8 5.3 16.6 3.8 15.3 3.4 12.9 6.1 36.9 1.8 15 2.1 38.2 0.7 44.2 -0.5 2 -0.9 8.5 -1 14.4 -0.2 9.2 -0.6 11.9 -3.1 18.3 -1.5 4.2 -4.5 12.8 -6.5 19.2 -2 6.4 -4.9 14.5 -6.6 17.9 -1.6 3.5 -2.7 7 -2.5 7.7 0.3 0.8 0.2 1.2 -0.2 0.9 -0.4 -0.2 -2.7 3.5 -5.2 8.2 -2.4 4.8 -4.9 9.4 -5.6 10.2 -0.6 0.8 -3.2 5.6 -5.8 10.5 -7.4 14.3 -27.4 37.6 -41.5 48.5 -4.2 3.2 -9.2 7.3 -11.1 9.1 -10.1 9.5 -19.7 15.8 -37.9 25 -17.7 9 -30.2 13.1 -43.6 14.4 -3.8 0.3 -11.5 1.5 -17 2.5 -5.5 1 -13.8 2.4 -18.5 3 -4.7 0.6 -11 1.5 -14 2.1 -16.4 3 -31.8 4 -42.5 2.7z m33.1 -19.9 c1.1 -0.9 9.9 -2.4 23 -3.8 4.5 -0.5 9.9 -1.7 12 -2.6 2.1 -1 7.1 -1.9 10.9 -2 3.9 -0.2 9 -1.1 11.5 -2.1 2.5 -1 8.1 -2 12.5 -2.4 4.4 -0.4 9.6 -1.3 11.5 -2 11.2 -4.1 13.5 -5.2 16.8 -7.8 2 -1.6 5.2 -3.4 6.9 -4 3.3 -1.1 9 -4.9 12.9 -8.7 1.2 -1.1 6.9 -6 12.8 -11 18.2 -15.3 35.7 -34 40.7 -43.5 2.5 -4.7 10 -16.3 12.7 -19.5 0.4 -0.5 1.4 -2.6 2.2 -4.5 0.8 -1.9 1.7 -3.7 2.1 -4 0.5 -0.3 2.9 -5.9 5.5 -12.5 2.5 -6.6 5 -12.4 5.4 -13 0.4 -0.5 1.2 -3 1.8 -5.5 0.5 -2.5 1.3 -5.4 1.7 -6.5 1.8 -4.6 -0.8 -0.3 -5 8.4 -2.5 5.2 -5.2 11.9 -6 14.9 -0.8 3.1 -3.7 9 -6.4 13.1 -2.8 4.2 -5.9 9.6 -6.9 12.1 -4.2 9.9 -46.5 51.6 -59.3 58.4 -3 1.6 -7.9 4.8 -10.9 7.1 -12.6 9.7 -47.3 23.8 -73.5 30 -14.4 3.5 -35 5 -47 3.6 -5 -0.6 -11.3 -0.8 -14.1 -0.5 -2.8 0.4 -8.2 0.1 -12 -0.6 -3.8 -0.7 -11.4 -1.4 -16.9 -1.5 -8.5 -0.2 -11.6 -0.8 -21 -3.9 -11.2 -3.8 -18.5 -7.3 -26.5 -13 -2.5 -1.8 -7.2 -4.7 -10.5 -6.6 -9.6 -5.4 -40 -30.3 -51.9 -42.4 -12.1 -12.5 -23.8 -29 -33 -47.1 -7.9 -15.4 -8.8 -21.3 -8.1 -54 0.5 -23.6 1.2 -32.1 5.1 -64.5 2.2 -18.7 5.8 -34.7 9.4 -42.6 1.1 -2.3 2.2 -5.5 2.6 -7 1.7 -7.2 14.2 -31.2 18.7 -35.9 2 -2.1 7.9 -9.9 22.1 -29 4.6 -6.2 16.4 -18 22.6 -22.6 1.9 -1.4 7.5 -6.3 12.4 -10.8 4.9 -4.5 11.2 -9.3 14 -10.7 6.8 -3.5 8.3 -4.4 13.6 -7.9 2.5 -1.7 5.6 -3.5 7 -4.1 1.4 -0.6 7.8 -3.6 14.3 -6.7 6.4 -3.2 12.8 -5.7 14.2 -5.7 1.3 0 2.6 -0.4 2.9 -0.9 0.3 -0.5 2 -1.1 3.8 -1.4 1.8 -0.3 6 -1.5 9.3 -2.6 3.3 -1.2 9.4 -2.6 13.5 -3.2 4.1 -0.5 12 -2.1 17.5 -3.4 7.6 -1.8 12.9 -2.4 22 -2.4 20.9 0 44 2.5 49.7 5.5 1.4 0.8 3.7 1.4 5.1 1.4 3.3 0 20.7 7.3 28.2 11.8 23.6 14.3 32.8 22.1 38 32 1.1 2 5.6 9.1 10 15.7 4.4 6.5 9.5 14.1 11.4 16.9 4.2 6.5 10.7 15.1 14.6 19.6 2.8 3.3 5.4 8.1 11.8 22 1.4 3 2.9 6.8 3.3 8.4 0.4 1.6 3.6 8.9 7 16.2 3.5 7.3 6.4 14.1 6.4 15.1 0 1 0.5 2.5 1 3.3 5.1 8 -8.2 -29.9 -15.2 -43 -1 -1.9 -1.8 -4.2 -1.8 -5.2 0 -0.9 -0.4 -2 -1 -2.3 -0.6 -0.3 -1 -1.3 -1 -2 0 -0.8 -2.2 -4.7 -4.9 -8.7 -2.6 -4 -5.4 -9.1 -6.1 -11.3 -3.1 -9.7 -9 -20.3 -15.4 -27.5 -13.4 -15.2 -15.4 -17.7 -21.9 -27.5 -3.7 -5.5 -7.9 -11.3 -9.5 -13 -3 -3.3 -12.6 -10.8 -18.3 -14.2 -1.9 -1.3 -4.3 -3.1 -5.3 -4.2 -1 -1.1 -5.4 -3.4 -9.9 -5.1 -4.5 -1.8 -10.3 -4.1 -12.9 -5.1 -9.1 -3.7 -22.9 -6 -41.8 -7.1 -15.8 -0.9 -20.2 -0.8 -30.5 0.6 -18.3 2.6 -33.2 5.5 -41.5 8 -4.1 1.3 -10 2.7 -13 3.1 -3 0.4 -10.4 2.6 -16.5 5 -6 2.3 -12.6 4.8 -14.6 5.4 -3.5 1.1 -16.3 7.8 -28.6 15 -3.4 2 -11.4 8 -17.8 13.4 -13.9 11.8 -48.9 48.8 -57.4 60.7 -11.9 16.7 -25.4 48.7 -30.6 72.5 -1 4.4 -2.6 11.2 -3.7 15 -1.1 3.9 -2.3 9.5 -2.7 12.5 -0.4 3 -1.3 6.8 -1.9 8.3 -0.8 1.9 -0.9 4.1 -0.2 7 0.5 2.3 1.4 13.4 2 24.7 0.5 11.3 1.4 23.2 1.9 26.5 0.5 3.3 1.5 9.3 2 13.3 1.1 7 4.3 18.9 6.2 22.4 0.5 1 0.9 2.3 0.9 3 0 0.7 2 5.4 4.4 10.3 2.4 5 7.2 14.8 10.7 22 9.7 19.7 23.7 36.2 43.9 51.4 12.6 9.6 39.2 26.8 45.5 29.6 3.3 1.5 8.5 3.8 11.5 5.2 8.5 4 34.5 10.9 52 13.7 4.3 0.7 36.4 -0.6 37.6 -1.5z m10.9 -23 c5.9 -0.1 10.2 -0.8 12.5 -1.9 1.9 -0.9 6.9 -2.2 11 -2.9 7.6 -1.3 18.7 -4.6 20.5 -6.1 0.6 -0.4 3.6 -1.6 6.9 -2.5 3.2 -0.9 8.2 -2.8 11.2 -4.1 3 -1.3 8.2 -3.3 11.7 -4.4 9 -3 12.1 -4.6 19.6 -10 3.6 -2.6 7.7 -5.1 9.1 -5.5 5.5 -1.5 13.7 -7.1 20 -13.4 3.6 -3.6 8.6 -8.4 11 -10.6 2.5 -2.2 5.6 -5.4 7 -7 10.9 -13.2 18.4 -24 19.9 -28.6 0.6 -2 2.1 -4.5 3.1 -5.4 1.1 -1 2 -2.3 2 -2.9 0 -0.6 0.9 -2.9 2.1 -5 1.3 -2.5 1.8 -4.8 1.4 -6.5 -0.4 -1.9 -0.3 -2.2 0.4 -1.2 0.8 1.2 1.1 0.9 1.7 -1.5 0.3 -1.6 1.2 -3.8 1.8 -4.9 0.7 -1.1 2.3 -4.9 3.5 -8.5 1.3 -3.6 3 -7.6 3.8 -8.9 3.7 -5.8 8.5 -25.9 8 -33.6 -0.1 -1.6 0.2 -6.5 0.7 -10.7 1 -9.6 -1.6 -36.4 -4.5 -45.7 -1 -3.5 -1.9 -7 -1.9 -7.8 0 -0.7 -0.4 -2.2 -1 -3.3 -0.5 -1.1 -1.4 -2.9 -2 -4 -0.5 -1.1 -1 -2.7 -1 -3.5 0 -0.9 -2 -5.6 -4.5 -10.6 -2.5 -5 -4.5 -9.8 -4.5 -10.7 0 -1 -1.1 -3.4 -2.5 -5.4 -1.4 -2 -2.5 -4.6 -2.5 -5.7 0 -1.9 -10.9 -24 -13.2 -26.8 -0.6 -0.7 -1.4 -1 -1.9 -0.7 -0.5 0.3 -0.6 -0.1 -0.4 -0.9 0.3 -0.7 -1.2 -3.6 -3.5 -6.4 -2.2 -2.8 -4 -5.5 -4 -5.9 0 -0.5 -1 -2 -2.1 -3.4 -1.1 -1.4 -3.2 -4.3 -4.6 -6.5 -4.2 -6.5 -10.4 -13.5 -11.4 -12.9 -0.5 0.3 -0.6 -0.1 -0.4 -0.8 0.5 -1.4 -4.4 -8.7 -10.8 -16.1 -3 -3.5 -12.8 -11 -25.8 -19.9 -3 -2 -8.2 -4.7 -11.5 -5.8 -3.2 -1.2 -7.2 -2.8 -8.9 -3.5 -4.8 -2.1 -16.3 -4.7 -25 -5.6 -4.4 -0.5 -10.2 -1.3 -12.8 -1.9 -7.4 -1.6 -34.5 -1.3 -40.1 0.4 -2.6 0.8 -7.8 1.8 -11.4 2.1 -16.1 1.6 -36.3 8.1 -55.7 17.7 -20.8 10.3 -30 16 -41.8 25.5 -5.6 4.6 -12.9 10.4 -16.2 13 -3.3 2.5 -8.2 7.3 -11 10.7 -12.3 14.8 -14.5 17.7 -14 18.7 0.4 0.5 0.1 0.8 -0.5 0.7 -0.7 -0.2 -2.8 1.9 -4.7 4.7 -1.9 2.7 -5.1 6.8 -7 9 -2 2.2 -4 5.1 -4.7 6.5 -0.6 1.4 -1.7 3 -2.4 3.6 -0.8 0.5 -1.5 2.2 -1.5 3.6 -0.1 1.4 -0.5 2.4 -0.8 2.2 -1 -0.6 -2 2.6 -1.2 3.8 0.3 0.6 0.2 0.8 -0.4 0.5 -1.2 -0.8 -6.6 13.1 -6 15.5 0.3 1 0.1 1.6 -0.3 1.3 -1.4 -0.9 -5.7 9.6 -6.9 16.7 -3.9 23.8 -4.4 28.6 -4.7 44.8 -0.2 8 -0.5 16.3 -0.8 18.5 -0.3 2.2 -0.8 12.8 -1.2 23.5 -0.6 16.4 -0.4 20.8 1 28 1.9 9.2 4.3 15.3 5.7 14.4 0.5 -0.3 0.7 0.1 0.4 0.8 -0.7 1.7 3.3 8.1 4.5 7.3 0.5 -0.3 0.7 0.1 0.4 0.9 -0.6 1.5 3.4 7.9 13.5 21.6 5 6.8 27.5 30 29.1 30 0.4 0 2.4 1.6 4.5 3.6 15.6 14.7 50.7 37.9 63.1 41.7 2.7 0.9 7.3 2.5 10.3 3.6 6.1 2.3 9.7 2.7 15.8 1.7 2.4 -0.4 7.1 -0.2 10.5 0.5 3.5 0.6 10.1 1.3 14.8 1.4 4.7 0.2 11.4 0.7 15 1.2 3.6 0.5 6.7 0.8 7 0.7 0.3 -0.2 4.6 -0.4 9.5 -0.5z"/>
  <path d="M214.4 422.9 c-6 -0.9 -13.7 -2.6 -17.1 -3.8 -3.4 -1.1 -6.7 -2.1 -7.3 -2.1 -1.5 0 -28.4 -10.6 -36 -14.2 -5.4 -2.6 -13.9 -8.3 -16 -10.8 -0.3 -0.4 -3.6 -2.8 -7.5 -5.5 -12.4 -8.8 -29.7 -27.4 -43.6 -47 -4.1 -5.8 -13.3 -22.8 -14.4 -26.5 -0.4 -1.4 -1.3 -3.8 -2 -5.5 -3.3 -8 -4.6 -11.5 -6.4 -18 -2.4 -8.4 -6.6 -36 -6.5 -43 0 -5.9 4.9 -34.3 6.8 -40 0.8 -2.2 1.6 -5.9 1.9 -8.3 0.3 -2.4 2.1 -7 4.2 -10.4 2 -3.4 3.4 -6.7 3.1 -7.4 -0.3 -0.8 0 -1.3 0.5 -1.1 1.1 0.2 3.8 -3.7 8.4 -12.5 1.3 -2.6 2.9 -4.9 3.5 -5.3 0.5 -0.3 1.8 -2.5 2.8 -4.8 1.1 -2.3 2.8 -5.1 3.8 -6.2 1.1 -1.1 3.4 -4.4 5.3 -7.2 1.8 -2.9 3.7 -5.3 4.2 -5.3 0.5 0 0.9 -0.6 0.9 -1.3 0 -0.7 2 -3.7 4.5 -6.6 2.5 -2.9 4.5 -5.6 4.5 -6 0 -0.9 19.3 -18.1 25.1 -22.3 2.4 -1.8 6.4 -4.3 8.9 -5.6 2.5 -1.3 5.4 -3.2 6.5 -4.2 2.7 -2.3 27 -14.5 42 -20.9 2.7 -1.2 5.6 -2.8 6.5 -3.5 1.9 -1.7 13 -5.5 19 -6.6 2.5 -0.4 8.1 -1.8 12.5 -3 6.8 -1.9 10.3 -2.2 23.7 -2.2 10.5 0.1 18 0.7 23 1.8 4 0.9 9.3 2 11.8 2.4 5.4 0.9 11.4 3.1 17.8 6.4 5.7 3 11.7 5.6 12.9 5.6 0.4 0 1.9 1 3.3 2.3 1.4 1.2 6.1 4.7 10.5 7.7 4.4 2.9 10.4 7.3 13.3 9.7 2.9 2.4 5.7 4.3 6.1 4.3 1.7 0 14.9 13.5 21.5 21.8 4.1 5.2 6.6 9.3 6.6 10.9 0 1.6 0.4 2.2 1.2 1.7 0.6 -0.4 0.8 -0.3 0.5 0.4 -0.4 0.5 -0.1 2.3 0.7 3.9 4.9 9.9 6.1 12 7.6 13.8 2.5 2.9 4.8 7.8 4.3 9.2 -0.3 0.7 1.4 4.8 3.6 9.2 2.2 4.3 4.9 11.6 6.1 16.2 3.2 13 6.3 22.8 7.1 22.3 0.4 -0.2 0.5 0.4 0.2 1.5 -0.3 1 0.5 6.5 1.6 12.2 1.2 5.7 2.5 14.8 3.1 20.3 0.6 5.4 1.2 10.1 1.5 10.6 0.2 0.4 0 5.5 -0.5 11.3 -1 11.7 -3.7 22 -8.2 31.2 -4 8.1 -7.9 19.5 -7.1 20.8 0.3 0.5 0.1 0.7 -0.5 0.3 -1.3 -0.8 -5.6 6 -4.6 7.5 0.4 0.8 0.3 0.9 -0.4 0.5 -1.4 -0.8 -4.6 5 -3.6 6.6 0.4 0.6 0.3 0.8 -0.3 0.5 -0.6 -0.4 -3.2 2.6 -5.9 7 -9.1 14.6 -29.4 34.3 -43.1 41.8 -2.1 1.1 -7.4 4.2 -11.8 6.7 -4.4 2.6 -11.8 6.7 -16.5 9.1 -4.7 2.4 -8.4 5 -8.2 5.6 0.1 0.7 -0.2 1 -0.7 0.6 -1 -0.5 -12.3 4.6 -18.6 8.5 -2.8 1.7 -17.4 7.4 -27.5 10.6 -5.1 1.7 -20.1 4.2 -30.6 5.3 -4.8 0.4 -10.6 0.1 -18 -1z m31.6 -17.9 c7.6 -1 12.2 -2.1 17 -4.2 4.9 -2.1 17.4 -6.8 18.3 -6.8 0.3 0 3 -1.5 5.9 -3.3 2.9 -1.9 6.5 -3.7 7.9 -4 2.4 -0.6 19.8 -10.5 27.4 -15.6 1.7 -1.1 6.8 -4 11.6 -6.5 4.7 -2.4 9.1 -5.2 9.9 -6.1 0.7 -0.9 3 -2.5 5 -3.5 2 -1 7.2 -5.8 11.6 -10.6 4.3 -4.8 10 -11 12.7 -13.7 2.6 -2.7 4.7 -5.3 4.7 -5.7 0 -1.4 8.8 -19.5 10.7 -22 1.8 -2.4 5.3 -11.9 5.3 -14.5 0 -0.7 0.6 -1.8 1.4 -2.4 2.8 -2.3 7.2 -24.2 6.1 -30.8 -0.4 -2.7 -0.8 -8.2 -1 -12.3 -0.1 -4.1 -0.8 -9.5 -1.6 -12 l-1.4 -4.5 -0.6 11.5 c-0.3 6.6 -1.3 13.6 -2.3 16.5 -0.9 2.8 -3.1 9.5 -4.8 15 -10.2 32.6 -29.7 62.5 -51.8 79.5 -12.1 9.3 -29.2 22 -29.6 22 -0.3 0 -5.1 2.9 -10.7 6.4 -10.5 6.6 -12.2 7.3 -36.7 15.9 l-14.5 5.1 -15 0 c-18.1 0.1 -26.9 -1.5 -43.5 -8.1 -6.3 -2.5 -15.1 -5.6 -19.5 -6.8 -9.1 -2.6 -15.4 -5 -20.5 -7.9 -4.2 -2.3 -3.2 -1.2 3.7 4.1 5.4 4.2 18.3 11.3 20.5 11.3 0.8 0 4.6 1.5 8.5 3.4 4 1.9 10.1 4 13.5 4.7 3.5 0.6 7.1 1.6 8.2 2.1 1 0.6 4.6 1.4 8 1.9 3.3 0.6 8.4 1.4 11.1 1.8 6.7 1.1 16.6 1.2 24.5 0.1z m4.8 -23.9 c4 -1 8.3 -2.6 9.7 -3.5 1.3 -0.9 3.1 -1.6 4 -1.6 0.9 0 3.7 -1.1 6.2 -2.5 2.5 -1.5 6.8 -3 9.5 -3.5 5 -1 10.7 -4.3 18.9 -11.2 2.5 -2.1 4.9 -3.8 5.3 -3.8 0.4 0 2.7 -1.6 5 -3.5 2.4 -1.9 4.7 -3.5 5.2 -3.5 0.5 0 2 -1 3.4 -2.3 1.4 -1.2 5.4 -4.5 8.8 -7.2 10.1 -7.9 23.7 -21.7 27.3 -27.6 1.8 -3 3.9 -6 4.7 -6.8 0.8 -0.8 1.2 -2.4 0.9 -3.7 -0.2 -1.3 0 -2.2 0.6 -2.1 3.4 0.7 18.6 -35.8 21.4 -51.3 1.8 -9.9 2 -20.3 0.4 -24.5 -0.6 -1.6 -1.7 -6.1 -2.4 -10 -0.7 -3.8 -1.7 -6.9 -2.2 -6.8 -0.6 0.1 -1 -1.6 -1 -3.7 -0.1 -2.1 -0.8 -5.3 -1.7 -7.2 -0.9 -1.8 -3.1 -6.9 -4.8 -11.3 -2 -5.1 -5.7 -11.4 -10.1 -17.2 -3.8 -5.1 -6.9 -9.6 -6.9 -10 0 -0.5 -2.2 -3.1 -4.8 -5.8 -2.7 -2.8 -6.7 -7.6 -9 -10.8 -2.3 -3.1 -5.8 -6.9 -7.8 -8.4 -2.1 -1.5 -5.3 -4.2 -7.3 -5.9 -2 -1.7 -5.2 -3.9 -7.1 -4.9 -1.9 -1 -4.3 -2.5 -5.3 -3.4 -1 -0.9 -4.3 -2.9 -7.2 -4.6 -3 -1.6 -8 -4.6 -11.2 -6.5 -5.7 -3.4 -6 -3.5 -18.2 -3.7 -19.1 -0.4 -53.6 3.1 -61.6 6.3 -13.7 5.4 -18.4 7.7 -17.8 8.6 0.3 0.7 0.1 0.8 -0.5 0.4 -1.4 -0.8 -29.7 18.7 -40.3 27.8 -2 1.7 -5 4.2 -6.8 5.6 -1.7 1.4 -3.7 3 -4.4 3.5 -0.7 0.6 -2.5 1.8 -4 2.8 -1.8 1.2 -2.6 2.4 -2.3 3.3 0.3 0.8 0.2 1.3 -0.3 1 -1.4 -0.9 -6.4 4 -5.6 5.4 0.5 0.9 0.4 1.1 -0.4 0.6 -0.6 -0.4 -1.4 0 -1.8 1.1 -0.3 1 -2 3.4 -3.8 5.3 -4.3 4.6 -8.9 13.5 -8 15.1 0.5 0.7 0.4 1 -0.3 0.5 -1.4 -0.8 -3.6 3 -2.6 4.6 0.4 0.6 0.3 0.8 -0.3 0.5 -2.5 -1.6 -15.2 29.1 -17.4 41.8 -4.8 28.1 -2.8 45.5 7.7 67.2 4.5 9.1 5.7 10.7 9.8 12.8 1.4 0.8 2 1.9 1.8 3.5 -0.1 1.3 0.6 3.3 1.7 4.4 1.1 1.2 3.6 4.4 5.8 7.2 5.2 6.9 16.8 17.2 22.3 19.7 2.5 1.1 5.9 3 7.5 4.2 5.4 3.9 14.8 8.3 26.5 12.3 6.3 2.2 14.9 5.5 19 7.2 8.5 3.7 16.8 5.9 25.5 6.7 3.3 0.3 6.2 0.7 6.4 0.9 1.2 1.1 13.6 0.2 19.9 -1.5z m-161.7 -67.3 c-1.1 -2.4 -3.1 -8.3 -4.6 -13.3 -1.5 -4.9 -3.4 -10.5 -4.2 -12.3 -0.8 -1.9 -1.3 -5.5 -1.1 -9 0.2 -4.6 0.7 -5.9 2.3 -6.6 1.8 -0.8 2 -1.8 2 -11 0.1 -10.5 1.5 -22.5 4 -33.6 0.9 -3.6 1.5 -7.2 1.5 -8.1 0 -0.9 0.7 -3 1.5 -4.5 0.8 -1.6 1.5 -3.9 1.5 -5 0 -1.2 0.7 -2.7 1.5 -3.4 0.8 -0.7 1.5 -1.9 1.5 -2.6 0 -1.2 4.1 -10.2 7.2 -15.9 0.6 -1.1 1.6 -2.9 2.2 -4 0.6 -1.1 1.6 -2.7 2.2 -3.5 0.6 -0.8 2.7 -5.1 4.6 -9.5 2.7 -5.9 5.3 -9.7 10 -14.5 3.5 -3.6 8.3 -8.6 10.6 -11.2 2.3 -2.7 4.7 -4.8 5.3 -4.8 0.6 0 3.8 -2.6 7.2 -5.8 3.4 -3.1 7.8 -6.8 9.7 -8.2 1.9 -1.3 4 -2.8 4.5 -3.2 4 -3.1 13.4 -10.2 15.5 -11.5 1.4 -0.9 4.1 -3.1 6 -4.8 1.9 -1.8 5.8 -4.5 8.5 -6.2 5.6 -3.3 21.3 -10.2 26 -11.4 1.6 -0.4 5.5 -1.4 8.5 -2.2 3 -0.9 10.9 -2.1 17.5 -2.8 11.2 -1.1 13 -1.1 24.5 1 6.9 1.2 14.8 2.9 17.5 3.7 6.6 2.1 19.1 8.3 22 11 1.3 1.2 4.9 3.2 8 4.5 3.1 1.3 6.5 3.5 7.5 5 1.1 1.4 5.9 5 10.7 7.9 5.2 3.2 11.1 7.9 14.3 11.4 3 3.3 8.1 8.5 11.4 11.5 3.2 3.1 7.2 7.6 8.9 10.1 3.5 5 3.8 5.3 9.9 12.6 2.4 2.9 5.1 7.2 6 9.5 7.6 19.6 8.9 22.4 8.3 17.9 -0.6 -4.7 -4.2 -15.5 -7.5 -22.6 -1 -2.3 -2.2 -5.5 -2.6 -7 -0.3 -1.6 -2.5 -6.3 -4.8 -10.4 -5 -8.9 -7.6 -14.3 -7.6 -16 0 -0.7 -1.2 -2.6 -2.6 -4.3 -1.4 -1.7 -3.7 -5.4 -5 -8.3 -1.3 -2.8 -3.8 -6.4 -5.6 -7.8 -1.8 -1.5 -6.4 -5.3 -10.3 -8.4 -3.8 -3.2 -9.2 -7.1 -12 -8.7 -2.7 -1.5 -7.1 -4.3 -9.6 -6.2 -2.6 -1.8 -6.4 -3.9 -8.6 -4.7 -2.1 -0.8 -6.6 -2.7 -9.9 -4.4 -12.2 -6.1 -28.9 -9.4 -48.4 -9.5 -13.7 -0.1 -15.3 0.1 -28.4 3.6 -17.7 4.7 -27.6 8.7 -51 20.5 -20.3 10.2 -41.3 23.5 -51.2 32.5 -8.2 7.5 -19.2 21.2 -29.1 36.5 -13.1 20 -17.7 30.2 -20.9 46.1 -0.9 4.2 -2.2 10.5 -3 14.1 -3.3 16 -2.7 35.1 1.6 50.5 1.2 4.4 2.6 10 3.1 12.4 0.5 2.4 2.5 7.2 4.4 10.7 1.9 3.4 3.5 6.7 3.5 7.2 0 1.1 6 11.2 6.6 11.2 0.2 0 -0.5 -1.9 -1.5 -4.2z m305.9 -103.2 c-0.6 -3.1 -1.4 -5.6 -1.7 -5.6 -0.2 0 -0.2 1.4 0.1 3 0.3 1.7 0.9 4.4 1.2 6.1 0.3 1.7 0.8 2.8 1.1 2.6 0.3 -0.3 0 -3.1 -0.7 -6.1z"/>
  <path d="M218 349.8 c-21.5 -2.1 -31.3 -6.7 -60.5 -28.3 -15.4 -11.4 -29.8 -27.6 -32.9 -37.3 -2.6 -7.8 -4.2 -25.6 -3.3 -35.2 0.5 -4.7 1 -9.9 1 -11.7 0.1 -1.7 0.5 -3 0.8 -2.8 0.6 0.4 2.4 -4.4 3.4 -9.3 0.4 -1.8 1.7 -4.5 2.9 -6 1.3 -1.5 2.9 -3.9 3.7 -5.3 4.8 -9.1 6.3 -11.6 7.5 -12.9 0.8 -0.8 4.1 -4.8 7.4 -8.8 3.2 -4 10.3 -11.8 15.7 -17.4 18.9 -19.5 23.9 -23.7 34.4 -28.6 5.6 -2.6 16.4 -9.4 17.9 -11.1 1.2 -1.5 13.4 -9.1 14.6 -9.1 0.7 0 5.3 -1.3 10.3 -3 5 -1.6 11.2 -3.1 13.6 -3.3 5.8 -0.4 15.6 2 23.6 6 3.5 1.7 11.4 5.5 17.4 8.4 6.1 3 11.2 5.6 11.5 6 0.3 0.3 2 1.4 3.8 2.3 1.7 0.9 3.2 2.1 3.2 2.6 0 0.5 0.8 1.1 1.8 1.4 2.3 0.8 14.6 13 20.5 20.4 2.6 3.3 5.9 8.5 7.3 11.6 1.5 3.3 3 5.4 3.6 5 0.7 -0.4 0.8 -0.2 0.4 0.4 -0.4 0.7 0.4 5.8 1.8 11.4 4 16.6 5.1 29.4 3.8 44 -1.2 13.4 -2.3 16.6 -8.4 27 -2.2 3.7 -3.7 7.2 -3.3 7.8 0.4 0.6 0.2 0.9 -0.4 0.8 -1.1 -0.3 -10.4 13.9 -10.4 15.9 0 0.7 -0.3 1.1 -0.7 1 -0.4 -0.1 -3.5 3.4 -6.8 7.9 -7.4 9.7 -18.3 20.2 -35.1 33.5 -5.7 4.5 -25.9 14.4 -32.6 16 -5.8 1.4 -26.7 1.8 -37.5 0.7z m34.9 -16.9 c4.2 -1.1 9.2 -3.1 11.1 -4.3 4.8 -3 6.6 -4 13.7 -8.2 3.5 -1.9 6.6 -4.1 7 -4.8 0.5 -0.6 3.5 -3.4 6.8 -6.1 3.3 -2.8 6.4 -5.6 6.8 -6.2 0.4 -0.7 1.3 -1.3 1.8 -1.3 1.9 0 11.3 -11.1 17.7 -20.8 3.4 -5.2 6.2 -9.7 6.2 -9.9 0 -0.2 1.1 -2.1 2.5 -4.3 1.4 -2.2 3.9 -7.5 5.6 -11.7 1.7 -4.3 3.4 -8.2 3.9 -8.8 1.9 -2.3 2.8 -12.2 1.9 -21.9 -1.1 -12.6 -5.8 -33.9 -9.2 -41.9 -3.7 -8.5 -21.8 -28.7 -29.2 -32.4 -2.7 -1.4 -7.2 -4 -10 -5.8 -2.7 -1.8 -6.1 -3.6 -7.5 -4 -1.4 -0.3 -3.9 -1.4 -5.7 -2.3 -3 -1.5 -4.3 -1.5 -18 0.2 -18.6 2.3 -33.3 5.6 -40.6 9 -12.3 5.9 -30.5 20.2 -47.9 37.7 -9.3 9.2 -16.8 17.1 -16.8 17.4 0 0.4 -0.9 2 -2 3.5 -1.1 1.6 -3.4 7 -5.1 12.1 -1.7 5.1 -4.3 12.1 -6 15.7 -3.7 8.2 -3.8 14.4 -0.4 30.4 1.8 9 3.2 13 5.8 17 10 15.6 28.4 30.4 59 47.2 6.3 3.5 7.5 3.8 19.5 4.7 7 0.5 13.4 1.1 14.2 1.3 3.7 0.9 7.9 0.5 14.9 -1.5z"/>
  <path d="M225.5 323.6 c-0.5 -0.2 -3.7 -1.1 -7 -2.1 -3.3 -0.9 -8 -2.6 -10.5 -3.7 -2.5 -1.1 -6.5 -2.9 -9 -4 -2.5 -1.1 -6 -3.1 -7.8 -4.4 l-3.3 -2.6 0.3 -9.1 c0.3 -9.1 0.3 -9.2 2.9 -9.5 1.5 -0.2 3.5 -1.2 4.5 -2.3 0.9 -1 2.3 -1.9 2.9 -1.9 0.7 0 5.1 -3.9 9.7 -8.7 11.9 -12.2 13.9 -14 17.9 -15.8 1.8 -0.8 4.8 -2.6 6.4 -4 2.4 -2 4.1 -2.5 8.2 -2.5 4.6 0 5.5 0.3 7 2.7 1.6 2.5 1.8 5.4 1.5 32.3 -0.4 32.6 0 31 -7.2 33.9 -3.3 1.3 -14.3 2.4 -16.5 1.7z m13.2 -20.7 c0.3 -20.3 0.2 -36.3 -0.3 -36.8 -0.3 -0.3 -3.1 0.8 -6.2 2.4 -6.3 3.3 -28.2 24.6 -28.2 27.4 0 0.9 1.3 2.5 3 3.4 1.6 1 3.5 2.3 4.2 3 0.7 0.7 2.4 1.7 3.8 2.4 3.9 1.7 21.4 7.1 22.5 6.9 0.6 -0.2 1.1 -4 1.2 -8.7z"/>
  <path d="M254 317.1 c-0.6 -1.2 -1 -11.6 -1 -27 0 -15.6 -0.4 -25.2 -1 -25.6 -0.5 -0.3 -1 -2.8 -1 -5.5 0 -4.4 0.3 -5 3.2 -6.4 3.5 -1.8 11 -2.1 13.9 -0.6 1 0.6 2.6 2.6 3.3 4.5 0.8 1.9 3.5 5.6 5.9 8.2 2.4 2.7 6.8 8.2 9.7 12.3 4.2 5.9 5.4 8.5 5.8 12.3 0.5 5.4 -1.5 8.7 -5.3 8.7 -1.4 0 -4.5 2.7 -9.4 8.3 -9.3 10.5 -12.3 12.6 -18.3 12.6 -3.7 0.1 -5 -0.3 -5.8 -1.8z m17.1 -17.8 c4.8 -5.1 6.9 -8.3 6.9 -10.8 0 -3.5 -13.4 -20.5 -16.2 -20.5 -1.6 0 -0.5 31.4 1.1 33.4 2.1 2.5 4.4 1.9 8.2 -2.1z"/>
  <path d="M157.2 279.8 c-2.5 -2.8 -10.2 -18.5 -10.2 -20.9 0 -1 -0.5 -2.1 -1.1 -2.5 -2 -1.2 -0.5 -20.1 1.8 -23.3 1.1 -1.4 2.5 -4.2 3.3 -6.1 0.7 -1.9 3.6 -5.8 6.4 -8.6 4.8 -4.8 9.7 -10.2 25.6 -28.3 9.8 -11.1 22.1 -23.1 25.5 -24.8 1.7 -0.9 3.2 -1.9 3.5 -2.3 0.3 -0.5 3.1 -2 6.4 -3.4 7.4 -3.3 20.3 -3.8 22.9 -0.8 2.3 2.6 3.9 19.1 3.9 39.5 -0.1 26.1 -2.6 37.6 -8 37.7 -0.9 0 -4.8 2.3 -8.7 5 -3.8 2.7 -9.7 6.3 -13 8.1 -10.2 5.4 -21.7 13.3 -29 20 -14.4 13.2 -13.9 12.9 -20.9 12.9 -5.2 0 -6.6 -0.4 -8.4 -2.2z m16.9 -8.6 c5.1 -3.3 12 -10.3 11.3 -11.4 -0.4 -0.6 -0.3 -0.8 0.2 -0.5 0.6 0.3 4.1 -1.9 7.9 -4.9 3.9 -3 7.5 -5.8 8 -6.2 1.4 -1.1 8.4 -5.4 12 -7.4 1.7 -0.9 2.9 -2.1 2.8 -2.7 -0.2 -0.6 0.3 -0.8 1 -0.5 2 0.7 14.7 -9.4 14.8 -11.9 0 -1.2 0.2 -3 0.4 -4 2.9 -15.1 3.1 -47 0.5 -50.2 -2.2 -2.7 -9.3 -1.4 -19.5 3.6 -7.1 3.4 -10.5 5.9 -16.2 11.7 -4 4 -8 8.6 -8.8 10.2 -0.8 1.6 -2.4 3.4 -3.5 4 -1 0.6 -2.8 3 -3.8 5.4 -1.1 2.3 -3.5 5.8 -5.3 7.7 -5.2 5.2 -9.3 10.8 -12.8 17.3 -4.2 7.9 -4.2 14.5 -0.1 26.8 2.8 8.4 6.2 14.8 7.8 14.8 0.4 0 1.9 -0.8 3.3 -1.8z"/>
  <path d="M304.1 276.7 c-1.9 -1.3 -4.4 -4.3 -5.5 -6.7 -3 -6.4 -21.3 -22.2 -32.4 -28.1 -12.2 -6.5 -15.7 -12.5 -11.8 -20.1 1.1 -2.1 1.5 -7.7 1.5 -24.5 0.1 -37.9 0.4 -44.3 2.1 -45.3 1.9 -1.2 15.7 -1.3 16.4 -0.1 0.4 0.5 2.5 1.2 4.9 1.6 6.9 1.1 10.8 2.6 17.7 6.9 13 8 22.8 18.4 28.9 30.5 7 13.6 6.7 52.8 -0.5 68.6 -0.7 1.7 -2.6 6.6 -4.2 11 l-2.8 8 -5.4 0.2 c-4.3 0.2 -6.3 -0.3 -8.9 -2z m2.9 -19.4 c3 -2.1 5.9 -5.4 6 -6.8 0 -0.6 0.9 -2.7 2 -4.8 1.3 -2.3 2 -5.6 2 -9 0 -2.8 0.4 -6.7 0.9 -8.5 1.1 -3.8 -1.2 -25.9 -2.8 -27.5 -0.6 -0.6 -1.1 -1.8 -1.1 -2.7 0 -0.9 -0.9 -2.5 -2 -3.5 -1.1 -1 -2 -2.4 -2 -3.1 0 -0.7 -2.6 -3.3 -5.7 -5.7 -3.2 -2.5 -6.7 -5.4 -7.7 -6.6 -1.1 -1.1 -2.4 -2.1 -2.9 -2.1 -0.5 0 -3.7 -1.7 -7.1 -3.8 -5.6 -3.6 -19 -8.2 -20.1 -7 -1.3 1.3 -1.5 9.3 -0.5 21.3 0.6 7.2 1.2 19.7 1.3 27.8 l0.2 14.8 9.7 6.6 c5.4 3.6 10.4 7.3 11.1 8.3 0.6 0.9 3.5 3.4 6.2 5.5 2.8 2.1 5.9 4.8 7 6.1 2.5 2.8 2.5 2.8 5.5 0.7z"/>
 </g>
 <g fill="#ff3600">
  <path d="M201 471.5 c-17.4 -2.3 -44.2 -9.2 -54 -13.8 -3 -1.4 -8.2 -3.7 -11.5 -5.2 -6.3 -2.8 -32.9 -20 -45.5 -29.6 -20.2 -15.2 -34.2 -31.7 -43.9 -51.4 -3.5 -7.2 -8.3 -17.1 -10.8 -22.1 -2.4 -5.1 -4.6 -9.8 -4.7 -10.5 -0.2 -0.8 -0.5 -2.1 -0.8 -2.9 -6.1 -16.8 -8.9 -36.5 -11.4 -80 -0.2 -3.6 -0.6 -8.6 -1 -11.2 -0.4 -2.9 -0.2 -5.9 0.6 -8 0.7 -1.8 1.6 -5.8 2.1 -8.8 0.4 -3 1.6 -8.6 2.7 -12.5 1.1 -3.8 2.7 -10.6 3.7 -15 5.2 -23.8 18.7 -55.8 30.6 -72.5 8.5 -11.9 43.5 -48.9 57.4 -60.7 6.4 -5.4 14.4 -11.4 17.8 -13.4 12.3 -7.2 25.1 -13.9 28.6 -15 2 -0.6 8.6 -3.1 14.6 -5.4 6.1 -2.4 13.5 -4.6 16.5 -5 3 -0.4 8.9 -1.8 13 -3 9.8 -3 19.7 -5 40.5 -7.8 14 -2 18.8 -2.2 27.5 -1.6 5.8 0.4 12.8 0.6 15.7 0.4 2.9 -0.1 6.9 0.1 9 0.6 2.1 0.5 8 1.8 13.1 2.9 5.1 1.1 11.4 2.8 14 3.9 2.6 1 8.4 3.3 12.9 5.1 4.5 1.7 8.9 4 9.9 5.1 1 1.1 3.4 2.9 5.3 4.2 5.7 3.4 15.3 10.9 18.3 14.2 1.6 1.7 5.8 7.5 9.5 13 6.5 9.8 8.5 12.3 21.9 27.5 6.4 7.2 12.3 17.8 15.4 27.5 0.7 2.2 3.5 7.3 6.1 11.3 2.7 4 4.9 7.9 4.9 8.7 0 0.7 0.5 1.7 1 2 0.6 0.3 1 1.4 1 2.3 0 1 0.8 3.3 1.8 5.2 6.2 11.5 15.5 37.2 16.8 46 0.4 2.5 1.1 5.2 1.5 6.1 1.1 2.2 1.7 6.3 3.4 24.4 1.8 19.2 1.9 32.1 0.1 42.6 -0.8 4.6 -1.4 11 -1.5 14.1 0 3.2 -0.7 7.1 -1.6 8.7 -0.8 1.7 -1.5 4.2 -1.5 5.7 0 2.7 -0.4 4.2 -4 15.4 -1 3 -2.1 7.1 -2.5 9 -0.4 1.9 -1.1 4 -1.5 4.5 -0.9 1.1 -8.1 19.3 -8.4 21.3 -0.1 0.7 -0.9 2.1 -1.7 3 -0.8 0.9 -2.1 3.3 -2.9 5.2 -0.8 1.9 -1.8 4 -2.2 4.5 -2.7 3.2 -10.2 14.8 -12.7 19.5 -5 9.5 -22.5 28.2 -40.7 43.5 -5.9 5 -11.6 9.9 -12.8 11 -3.9 3.8 -9.6 7.6 -12.9 8.7 -1.7 0.6 -4.9 2.4 -6.9 4 -3.3 2.6 -5.6 3.7 -16.8 7.8 -1.9 0.7 -7.1 1.6 -11.5 2 -4.4 0.3 -10.5 1.6 -13.5 2.8 -3.6 1.4 -7.6 2.1 -11.5 2.1 -3.5 -0.1 -7.6 0.6 -9.9 1.6 -2.2 0.9 -7.4 2.1 -11.5 2.5 -4.2 0.5 -9.2 1.1 -11.1 1.5 -1.9 0.3 -5.3 0.8 -7.5 1 -2.1 0.3 -4.4 1 -5 1.4 -0.9 0.7 -9.1 1.5 -28.5 2.5 -2.5 0.2 -8.3 -0.2 -13 -0.9z m48 -15.5 c18.6 -1.4 39.8 -7.2 65.5 -17.7 15.1 -6.2 24 -10.8 30.5 -15.8 3 -2.3 7.9 -5.5 10.9 -7.1 12.8 -6.8 55.1 -48.5 59.3 -58.4 1 -2.5 4.1 -7.9 6.9 -12.1 2.7 -4.1 5.6 -10 6.3 -13 0.8 -3 4.6 -12 8.5 -20 8.5 -17.4 10.6 -24.3 12.1 -40.9 2 -20.4 -1.3 -58.5 -6 -69.4 -1.1 -2.6 -2 -5.4 -2 -6.2 0 -0.8 -2.9 -7.5 -6.4 -14.8 -3.4 -7.3 -6.6 -14.6 -7 -16.2 -0.4 -1.6 -1.9 -5.4 -3.3 -8.4 -6.4 -13.9 -9 -18.7 -11.8 -22 -3.9 -4.5 -10.4 -13.1 -14.6 -19.6 -1.9 -2.8 -7 -10.4 -11.4 -16.9 -4.4 -6.6 -8.9 -13.7 -10 -15.7 -5.2 -9.9 -14.4 -17.7 -38 -32 -7.5 -4.5 -24.9 -11.8 -28.2 -11.8 -1.4 0 -3.7 -0.6 -5.1 -1.4 -9.8 -5.2 -51.9 -6.9 -67.7 -2.7 -4.4 1.1 -11.4 2.5 -15.5 3 -4.1 0.6 -10.2 2 -13.5 3.2 -3.3 1.1 -7.5 2.3 -9.3 2.6 -1.8 0.3 -3.5 0.9 -3.8 1.4 -0.3 0.5 -1.6 0.9 -2.9 0.9 -1.4 0 -7.8 2.5 -14.2 5.7 -6.5 3.1 -12.9 6.1 -14.3 6.7 -1.4 0.6 -4.5 2.4 -7 4.1 -5.3 3.5 -6.8 4.4 -13.6 7.9 -2.8 1.4 -9.1 6.2 -14 10.7 -4.9 4.5 -10.5 9.4 -12.4 10.8 -6.2 4.6 -18 16.4 -22.6 22.6 -14.2 19.1 -20.1 26.9 -22.1 29 -4.5 4.7 -17 28.7 -18.7 35.9 -0.4 1.5 -1.5 4.7 -2.6 7 -3.9 8.5 -6.7 21.5 -9.5 43.6 -3.9 31.3 -4.6 39.3 -4.4 51 0 6.9 -0.2 16.6 -0.6 21.5 -1.1 14.5 1.1 25.4 8.1 38.9 9.2 18.2 20.9 34.7 33 47.2 11.9 12.1 42.3 37 51.9 42.4 3.3 1.9 8 4.8 10.5 6.6 8.2 5.8 15.4 9.2 27 13.1 10.1 3.3 12.6 3.7 19.9 3.5 4.6 -0.1 10.2 0.3 12.3 0.9 2.2 0.5 10.7 1.2 18.9 1.3 8.3 0.2 15.3 0.6 15.6 1 0.8 0.8 1.3 0.7 15.3 -0.4z"/>
  <path d="M219 408 c-2.5 -0.4 -6.7 -1 -9.5 -1.4 -2.7 -0.4 -6.8 -1.3 -9 -2.1 -2.2 -0.8 -5.6 -1.7 -7.5 -1.9 -4.9 -0.7 -8.5 -1.9 -16 -5.5 -3.6 -1.7 -7.1 -3.1 -7.8 -3.1 -2.5 0 -15.2 -7.2 -22.7 -12.8 -4.1 -3.1 -10 -7.5 -13.2 -9.7 -9.2 -6.5 -16.5 -13.3 -26.5 -25 -9.3 -10.8 -25.8 -34.1 -25.8 -36.5 0 -0.6 -1.6 -4 -3.5 -7.4 -1.9 -3.5 -3.9 -8.3 -4.4 -10.7 -0.5 -2.4 -1.9 -8 -3.1 -12.4 -1.3 -4.4 -2.7 -11.6 -3.2 -16 -1.1 -9.8 -0.3 -31.7 1.6 -40.5 0.8 -3.6 2.1 -9.9 3 -14.1 3.2 -15.9 7.8 -26.1 20.9 -46.1 9.9 -15.3 20.9 -29 29.1 -36.5 9.9 -9 30.9 -22.3 51.2 -32.5 23.5 -11.9 33.4 -15.8 51 -20.5 12.6 -3.3 15.3 -3.7 28.9 -3.9 20.8 -0.4 41 3.3 53.8 9.7 3.3 1.7 7.9 3.7 10 4.5 2.2 0.8 6 2.9 8.6 4.7 2.5 1.9 6.9 4.7 9.6 6.2 2.8 1.6 8.2 5.5 12 8.7 3.9 3.1 8.5 6.9 10.3 8.4 1.8 1.4 4.3 5 5.6 7.8 1.3 2.9 3.6 6.6 5 8.3 1.4 1.7 2.6 3.6 2.6 4.3 0 1.7 2.6 7.1 7.6 16 2.3 4.1 4.5 8.8 4.8 10.4 0.4 1.5 1.6 4.7 2.6 7 3.3 7.2 6.8 17.9 8 24.6 0.7 3.5 1.6 7.2 2.1 8.1 1.8 3.4 4.1 13.5 4 17.2 -0.1 2.2 0.8 6.7 2 10 1.4 4 2.3 9.1 2.5 14.4 0.1 4.5 0.6 9.3 1 10.5 0.8 2.4 0.8 15.4 0 16.6 -0.2 0.4 -0.7 2.8 -1.1 5.2 -0.9 6.6 -3.5 15.3 -5.1 17.1 -0.8 0.8 -1.4 2 -1.4 2.6 0 2.5 -3.5 12 -5.3 14.3 -1.9 2.5 -10.7 20.6 -10.7 22 0 0.4 -2.1 3 -4.7 5.7 -2.7 2.7 -8.4 8.9 -12.7 13.7 -4.4 4.8 -9.6 9.6 -11.6 10.6 -2 1 -4.3 2.6 -5 3.5 -0.8 0.9 -5.2 3.7 -9.9 6.1 -4.8 2.5 -9.9 5.4 -11.6 6.5 -1.6 1.1 -7.6 4.8 -13.2 8.1 -5.7 3.3 -10.3 6.3 -10.3 6.7 0 0.5 -1.3 0.8 -2.9 0.9 -1.7 0 -5.5 1.7 -8.6 3.6 -3 2 -5.9 3.6 -6.2 3.6 -1 0 -13.6 4.8 -19 7.1 -2.4 1.1 -5.1 1.9 -6.1 1.9 -1 0 -2.6 0.6 -3.7 1.3 -2.3 1.5 -28.8 2 -36.5 0.7z m39.4 -17.9 c23.7 -8.2 25.7 -9.1 36.3 -15.7 5.6 -3.5 10.4 -6.4 10.7 -6.4 0.4 0 17.5 -12.7 29.6 -22 22.1 -17 41.6 -46.9 51.8 -79.5 1.7 -5.5 3.9 -12.2 4.8 -15 2.1 -6.2 2.9 -20.6 1.5 -27.7 -0.6 -2.9 -1.7 -8.4 -2.5 -12.3 -0.8 -3.8 -3.5 -12.4 -6.1 -19 -2.5 -6.6 -5.4 -14 -6.3 -16.4 -0.9 -2.3 -3.6 -6.6 -6 -9.5 -6.1 -7.3 -6.4 -7.6 -9.9 -12.6 -1.7 -2.5 -5.7 -7 -8.9 -10.1 -3.3 -3 -8.4 -8.2 -11.4 -11.5 -3.2 -3.5 -9.1 -8.2 -14.3 -11.4 -4.8 -2.9 -9.6 -6.5 -10.7 -7.9 -1 -1.5 -4.4 -3.7 -7.5 -5 -3.1 -1.3 -6.7 -3.3 -8 -4.5 -2.9 -2.7 -15.4 -9 -22 -11 -8.3 -2.5 -28.7 -5.8 -32 -5.1 -1.6 0.3 -5.9 0.9 -9.5 1.2 -3.6 0.2 -9 1.2 -12 2 -3 0.8 -6.9 1.8 -8.5 2.2 -4.7 1.2 -20.4 8.1 -26 11.4 -2.7 1.7 -6.6 4.4 -8.5 6.2 -1.9 1.7 -4.6 3.9 -6 4.8 -2.1 1.3 -11.5 8.4 -15.5 11.5 -0.5 0.4 -2.6 1.9 -4.5 3.2 -1.9 1.4 -6.3 5.1 -9.7 8.2 -3.4 3.2 -6.6 5.8 -7.2 5.8 -0.6 0 -3 2.1 -5.3 4.8 -2.3 2.6 -7.1 7.6 -10.6 11.2 -4.7 4.8 -7.3 8.6 -10 14.5 -1.9 4.4 -4.2 8.8 -5 9.8 -0.8 0.9 -1.2 1.7 -0.8 1.7 0.4 0 -0.4 1.5 -1.7 3.2 -1.3 1.8 -3 4.9 -3.7 6.8 -0.8 1.9 -2.2 4.9 -3.2 6.5 -1 1.7 -1.8 3.7 -1.8 4.6 0 0.9 -0.7 2.2 -1.5 2.9 -0.8 0.7 -1.5 2.2 -1.5 3.4 0 1.1 -0.7 3.4 -1.5 5 -0.8 1.5 -1.5 3.6 -1.5 4.5 0 0.9 -0.6 4.5 -1.5 8.1 -6.2 27.4 -4.5 50.3 5.1 70.6 1.9 3.9 3.4 7.7 3.4 8.5 0 0.8 0.5 2 1.2 2.7 0.9 0.9 0.9 1.6 -0.4 2.8 -1.5 1.5 -1.7 1.4 -3.3 -0.9 -0.9 -1.5 -3 -6.3 -4.5 -10.9 -3.9 -11.2 -6 -16.1 -6.7 -15.4 -0.8 0.7 4.2 16.7 7.4 23.6 2.4 5.3 7.8 13.7 18.1 28.1 7.7 10.9 20.6 21.9 33.7 28.9 4.4 2.4 8.5 4.6 9 5 1.9 1.3 10 4.2 18 6.5 4.4 1.2 13.2 4.3 19.5 6.8 9.9 3.9 15.2 5.4 30 8.1 1.4 0.3 7.2 0.3 12.9 0 9.1 -0.3 11.9 -0.9 24.5 -5.3z m-173.7 -109 c-0.2 -4.6 -0.5 -5.7 -1.4 -4.9 -1.5 1.2 -1.7 4.7 -0.3 8.2 1.5 3.9 1.9 3.2 1.7 -3.3z"/>
  <path d="M209 316.4 c0 -1.4 0.3 -2.4 0.8 -2.2 7.3 3.5 8 4.8 2.7 4.8 -3.1 0 -3.5 -0.3 -3.5 -2.6z"/>
  <path d="M265 239.5 c0 -3 0.3 -3 4.1 -0.8 3.8 2.3 3.7 3.3 -0.6 3.3 -3.1 0 -3.5 -0.3 -3.5 -2.5z"/>
 </g>
 <g fill="#ffffff">
  <path d="M231.6 337.2 c-0.2 -0.1 -3.9 -0.4 -8.2 -0.6 -14 -0.6 -16.5 -1.5 -36.3 -13.4 -28.2 -16.9 -46.8 -35.7 -49.6 -50.4 -2.9 -14.3 -3.5 -19.3 -3.5 -26.8 0 -7.5 0.4 -9.6 2.9 -15.2 1.7 -3.6 4.3 -10.6 6 -15.7 1.7 -5.1 4 -10.5 5.1 -12.1 1.1 -1.5 2 -3.1 2 -3.5 0 -0.3 7.5 -8.2 16.7 -17.4 17.5 -17.6 35.7 -31.8 48.1 -37.7 6.9 -3.3 18.2 -5.9 36.7 -8.5 16.7 -2.3 24.9 -2.5 27.8 -0.6 1.2 0.8 3.6 1.7 5.2 2.1 1.7 0.4 5.3 2.2 8 4 2.8 1.9 7.3 4.5 10 5.9 7.4 3.7 25.5 23.9 29.2 32.4 2.4 5.7 7.9 28 8.7 35.7 1.9 16.7 1.3 30.8 -1.4 34.1 -0.5 0.6 -2.2 4.5 -3.9 8.8 -1.7 4.2 -4.2 9.5 -5.6 11.7 -1.4 2.2 -2.5 4.1 -2.5 4.3 0 0.2 -2.8 4.7 -6.2 9.9 -6.4 9.7 -15.8 20.8 -17.7 20.8 -0.5 0 -1.4 0.6 -1.8 1.3 -0.4 0.6 -3.5 3.4 -6.8 6.2 -3.3 2.7 -6.3 5.5 -6.8 6.1 -0.4 0.7 -3.5 2.9 -7 4.8 -7.1 4.2 -8.9 5.2 -13.7 8.2 -6 3.8 -18.1 6.6 -27.1 6.2 -4.4 -0.1 -8.1 -0.4 -8.3 -0.6z m7.4 -18.3 c7.2 -2.8 6.9 -1.6 7.2 -31 0.3 -24 0.1 -26.7 -1.5 -29.2 -2.2 -3.4 -5.3 -3.5 -9.2 -0.2 -1.6 1.4 -4.6 3.2 -6.4 4 -4 1.8 -6 3.6 -17.9 15.8 -4.6 4.8 -9 8.7 -9.7 8.7 -0.6 0 -2 0.9 -2.9 1.9 -1 1.1 -3 2.1 -4.5 2.3 -2.4 0.3 -2.6 0.7 -2.9 6.2 -0.2 4.4 0.1 6.3 1.4 7.7 2.2 2.4 19.1 10.6 25.9 12.6 2.8 0.8 6.4 1.8 8 2.3 3.7 1.1 7.9 0.7 12.5 -1.1z m25.7 -5.2 c1.7 -1.2 6.4 -5.9 10.4 -10.4 4.9 -5.6 8 -8.3 9.4 -8.3 3.1 0 5.8 -3.3 5 -6.1 -1 -3.1 -9.9 -15.5 -14.6 -20.4 -2.1 -2.2 -4.9 -6 -6.2 -8.5 -3 -5.7 -6.1 -7 -11.1 -4.6 -3.6 1.7 -4.6 4.2 -2.6 6.2 0.6 0.6 1 11.3 1.1 25.9 0.1 13.8 0.6 25.8 1.1 26.8 1.2 2.3 3.6 2.1 7.5 -0.6z m-92 -37.9 c2.1 -1.8 7 -6.2 10.8 -9.7 7.3 -6.7 18.8 -14.6 29 -20 3.3 -1.8 9.2 -5.4 13 -8.1 3.9 -2.7 7.7 -5 8.6 -5 2.9 0 5.2 -3.9 6.5 -10.8 1.3 -6.5 1.9 -35.5 0.9 -43.7 -0.2 -2.2 -0.7 -6.5 -1.1 -9.5 -0.8 -7.2 -2.4 -9 -8.4 -9 -4.4 0 -15.7 4 -17 6 -0.3 0.4 -1.8 1.4 -3.5 2.3 -3.4 1.7 -15.7 13.7 -25.5 24.8 -15.9 18.1 -20.8 23.5 -25.6 28.3 -2.8 2.8 -5.7 6.7 -6.4 8.6 -0.8 1.9 -2.2 4.6 -3.2 6 -2.1 2.9 -3.5 16.4 -1.8 17.5 0.5 0.3 1 1.4 1 2.4 0 2.4 7.7 18.1 10.2 20.9 3.2 3.3 7.9 2.9 12.5 -1z m145.5 -8.3 c1.6 -4.4 3.5 -9.4 4.3 -11 1.5 -3.4 2 -5.4 4.1 -17 2.8 -15.9 1.1 -36.2 -3.7 -45.6 -6.1 -12.1 -15.9 -22.5 -28.9 -30.5 -6.9 -4.3 -10.8 -5.8 -17.7 -6.9 -2.4 -0.4 -4.5 -1.1 -4.9 -1.6 -0.7 -1.2 -8.5 -1.1 -10.4 0.1 -1.6 1 -1.6 3 -1.9 45.7 -0.1 16.2 -0.5 21.7 -1.5 23.9 -1.3 2.3 -1.3 3.1 -0.1 5.3 1.8 3.5 3.7 5 12.6 9.6 10.1 5.2 28.6 21.3 31.5 27.5 2.4 5 7.7 9 11.4 8.7 2.1 -0.2 2.8 -1.3 5.2 -8.2z"/>
 </g>
</svg>
