<?xml version="1.0" encoding="utf-8"?>
<!DOCTYPE svg PUBLIC "-//W3C//DTD SVG 20010904//EN" "http://www.w3.org/TR/2001/REC-SVG-20010904/DTD/svg10.dtd">
<svg version="1.0" xmlns="http://www.w3.org/2000/svg" width="224px" height="334px" viewBox="0 0 224 334" preserveAspectRatio="xMidYMid meet">
 <g fill="#000000">
  <path d="M106.4 331.1 c-4.6 -2.8 -7.4 -15.2 -4 -18 0.7 -0.6 1.6 -2.5 2 -4.2 0.3 -1.7 2.1 -4.5 3.9 -6.2 5 -4.8 11 -9.7 12 -9.7 1.9 0 3.6 -3.1 5.6 -10.2 1.6 -5.8 1.8 -8.3 1.1 -10.9 -0.6 -1.9 -1 -4.9 -1 -6.8 0 -2.9 -4.7 -12.2 -7.1 -14.1 -0.3 -0.3 -1.3 -1.9 -2.2 -3.5 -3.3 -6.5 -12.2 -14 -22.4 -18.9 -23 -11.2 -25.4 -12.8 -34.3 -22.3 -4.4 -4.7 -8 -9.2 -8 -9.8 0 -0.7 -1.1 -4.6 -2.4 -8.6 -3.3 -10 -3 -17.8 0.7 -24.1 1.5 -2.6 2.7 -5.3 2.7 -6.1 0 -0.8 0.7 -2 1.5 -2.7 1.8 -1.5 2.1 -11.9 0.3 -15.3 -2.4 -4.7 -2.8 -5.7 -2.8 -7.2 0 -0.8 -0.4 -1.5 -1 -1.5 -0.5 0 -1 -1.7 -1 -3.8 0 -2.6 -0.7 -4.5 -2 -5.7 -1.1 -1 -2 -2.3 -2 -2.8 0 -0.6 -0.6 -1.8 -1.4 -2.6 -2.3 -2.5 -5.3 -14.9 -5.5 -22.6 -0.1 -3.8 -0.7 -7.4 -1.2 -7.9 -1.2 -1.3 -1.2 -12.3 0.1 -13.1 0.5 -0.3 1 -1.7 1 -2.9 0 -4.2 6.1 -20 8.6 -22.3 1.3 -1.2 2.4 -2.8 2.4 -3.6 0 -1.9 4.6 -6 11.5 -10.1 3.3 -1.9 8.4 -6.2 11.4 -9.5 4.2 -4.8 5.9 -6.1 8.2 -6.1 1.6 0 4.7 -1.1 6.9 -2.5 2.2 -1.4 4.9 -2.5 6 -2.5 1.1 0 2 -0.5 2 -1.1 0 -0.5 0.5 -0.7 1.1 -0.3 0.6 0.3 3.2 -0.5 5.7 -1.9 2.6 -1.3 7.2 -3 10.2 -3.6 3 -0.7 7.5 -1.7 10 -2.3 2.5 -0.5 10 -1.2 16.7 -1.5 10.3 -0.4 13.5 -0.1 20.5 1.7 4.6 1.2 8.7 2.5 9.2 3.1 0.6 0.5 1.8 0.9 2.7 0.9 0.9 0 2.2 0.7 2.9 1.5 0.6 0.7 3.5 2.7 6.3 4.3 6.5 3.7 16.3 13 21.2 20.2 2.1 3 4.7 6.3 5.7 7.4 1.9 2.1 11.8 21.7 11.8 23.5 0 0.5 0.6 1.1 1.3 1.4 0.9 0.3 1.1 4.9 1 19.3 -0.2 10.4 -0.4 20 -0.6 21.4 -0.2 1.4 -3.2 8.3 -6.7 15.5 -7 14.5 -12.6 21 -21.4 25 -2.8 1.2 -6.2 3.2 -7.6 4.4 -1.3 1.2 -4 3.1 -6 4.3 -1.9 1.2 -3.9 2.6 -4.5 3.2 -1.2 1.3 -10.4 5.9 -15.5 7.6 -6.7 2.3 -16.3 7.9 -22.8 13.5 -8.1 6.8 -6.2 19.9 3.8 26 2.5 1.6 6.6 4.9 9.1 7.4 2.5 2.5 6.1 6 8 7.6 3 2.6 6 7.6 10.2 17.2 1.2 2.7 1.4 12.8 0.4 25.5 -0.6 8.5 -1.2 10.8 -5.1 19.2 -2.5 5.3 -5.6 11.1 -7 12.9 -1.4 1.9 -2.6 3.9 -2.6 4.5 0 0.7 -0.4 1.2 -1 1.2 -0.5 0 -1 0.7 -1 1.6 0 1.9 -11 12.9 -13.7 13.8 -1 0.3 -2.6 1.8 -3.7 3.3 -1 1.6 -4.5 4.9 -7.9 7.6 -5.5 4.3 -6.4 4.7 -11.6 4.7 -3.7 0 -6.6 -0.6 -8.7 -1.9z m40.9 -53.1 c4.8 -9 7.1 -25.5 4.7 -34.2 -2.2 -7.7 -12.5 -20.1 -19 -22.8 -1.9 -0.8 -4.6 -2.8 -6.1 -4.5 -4.4 -5 -9.9 -12.5 -9.9 -13.4 0 -0.5 -0.7 -1.5 -1.6 -2.2 -1.4 -1.2 -1.6 -2.9 -1.1 -11.6 0.6 -10.1 0.7 -10.5 5.4 -18.5 5.2 -8.8 8.9 -12.1 15.7 -13.9 2.3 -0.6 5 -1.9 6.1 -2.9 2 -1.8 7.7 -5.1 21 -11.9 6.9 -3.6 18.9 -12.5 27.2 -20.3 4.4 -4 11.3 -17 11.3 -21.1 0 -2.4 1.8 -12.7 3 -17.6 0.5 -1.9 0.5 -4 0.1 -4.5 -0.5 -0.6 -1.2 -2.7 -1.6 -4.6 -0.4 -1.9 -1 -3.9 -1.4 -4.5 -0.4 -0.5 -1.5 -3.5 -2.6 -6.5 -3.4 -10.1 -19.1 -30.9 -23.2 -31 -0.6 0 -1.3 -0.4 -1.5 -0.8 -0.5 -1.3 -10 -5.8 -16.8 -8 -5.8 -1.8 -7.8 -2 -19 -1.3 -10.1 0.7 -14.3 1.5 -22 4.1 -13.3 4.5 -28.7 12.4 -33.4 17.1 -2.1 2.2 -5.6 5.4 -7.7 7.1 -2.2 1.8 -3.9 3.7 -3.9 4.4 0 0.6 -0.8 1.9 -1.9 2.8 -1 0.9 -3.2 4.5 -4.7 7.9 -2.5 5.4 -2.8 7.4 -2.9 15.7 0 11.2 1.9 21 5.2 26.2 1.3 2.1 2.3 4.2 2.3 4.6 0 0.5 0.9 1.9 2 3.2 1.6 1.8 2 3.7 2 8.9 0 4.5 0.5 7.4 1.6 9 2.3 3.2 1.4 17.4 -1.6 25.5 -1.7 4.8 -2 7 -1.4 12.7 0.6 6.4 1 7.3 5.6 12.6 7.6 8.9 22.4 21.3 25.4 21.3 0.6 0 1.7 0.7 2.4 1.5 1.2 1.5 9 6.3 15.3 9.7 4.6 2.3 6.9 5.1 14.1 17.1 4.5 7.4 6.8 12.5 7.6 16.5 0.6 3.1 1.6 6.7 2.2 7.9 1.3 2.6 0.6 18.9 -0.9 21.9 -0.6 1 -1.3 3.7 -1.7 5.9 -0.8 4.6 -1 4.8 5.7 -7.5z"/>
  <path d="M149.6 100.3 c-7.2 -2.6 -9 -5.6 -9.1 -15.1 0 -6.9 0.4 -8.5 3.5 -14.7 2.2 -4.3 4.5 -7.4 6 -8.2 7.4 -3.6 9.8 -4.3 14.7 -4.3 2.9 0 6.1 0.4 7.1 0.9 0.9 0.5 2.9 1.4 4.4 2.1 3.6 1.7 5.6 6.1 6.4 14.3 0.6 6 0.4 7.2 -2 12.1 -2.4 4.8 -6.9 9.6 -9.1 9.6 -0.4 0 -1.9 0.9 -3.5 2 -4 2.8 -12.4 3.4 -18.4 1.3z m15.2 -21.1 c0.2 -0.7 -0.5 -1.2 -1.7 -1.2 -1.4 0 -1.9 0.5 -1.4 1.5 0.6 1.7 2.5 1.5 3.1 -0.3z"/>
  <path d="M102.3 90 c-3.3 -1.3 -6.3 -6.8 -6.3 -11.5 0 -4.3 2.3 -11.3 6.1 -18.7 0.5 -1 0.9 -3.1 0.9 -4.7 0 -3.8 1.3 -4.7 9.1 -6.6 10 -2.3 12.4 -2 17.6 2.2 5.9 4.8 7.3 8.4 7.3 18 l0 7.7 -5.5 5.2 c-7.5 7.1 -12.5 9.4 -20.6 9.3 -3.5 0 -7.4 -0.4 -8.6 -0.9z m18.2 -24.1 c-0.4 -1.1 -1.2 -1.8 -1.8 -1.6 -1.6 0.5 -2.6 5 -1.4 6.5 1.4 1.8 4 -2.2 3.2 -4.9z"/>
 </g>
 <g fill="#ffffff">
  <path d="M115 316.9 c0 -2.1 3.3 -6.7 5.5 -7.7 1.3 -0.6 3.8 -2.9 5.6 -5.3 1.9 -2.3 4.5 -5.4 5.9 -6.9 3.4 -3.7 4.7 -6.4 6.6 -14 0.8 -3.6 2 -8.2 2.5 -10.2 0.9 -3.7 0.7 -9.8 -0.4 -12.8 -0.3 -0.8 -1.1 -4.1 -1.7 -7.2 -0.8 -3.9 -3.1 -9.1 -7.6 -16.5 -7.2 -12 -9.5 -14.8 -14.1 -17.1 -6.3 -3.4 -14.1 -8.2 -15.3 -9.7 -0.7 -0.8 -1.8 -1.5 -2.4 -1.5 -3 0 -17.8 -12.4 -25.4 -21.2 -4.1 -4.9 -5 -6.6 -5.6 -11 -0.3 -2.9 -0.8 -6.7 -1.1 -8.5 -0.3 -2 0.5 -6.1 2 -10.5 1.4 -4 2.8 -9.8 3.1 -12.9 0.6 -5 0.4 -6.1 -1.9 -9.4 -1.9 -2.9 -2.4 -4.3 -1.7 -5.6 1.7 -3 1.1 -8.4 -1 -10.9 -1.1 -1.3 -2 -2.7 -2 -3.2 0 -0.4 -1 -2.5 -2.3 -4.6 -2.7 -4.3 -4.3 -11 -5.7 -24.3 -0.7 -6.3 -0.7 -10.5 -0.1 -12.1 0.5 -1.4 0.7 -2.8 0.5 -3.1 -0.8 -0.8 6 -15 7.9 -16.6 0.9 -0.7 1.7 -1.9 1.7 -2.5 0 -0.6 1.7 -2.6 3.9 -4.4 2.1 -1.7 5.6 -4.9 7.7 -7.1 4.7 -4.7 20.1 -12.6 33.4 -17.2 8.9 -3 22.6 -4.9 36 -5.1 6 0 26.7 7.7 27.8 10.4 0.2 0.4 0.9 0.8 1.5 0.8 4 0.1 19.6 20.6 23.1 30.5 1 2.8 2.1 5.9 2.6 7 1.7 4 2.4 6 2.5 7 0.1 0.6 0.5 1.8 1 2.8 0.4 1 0.4 3.7 0 6 -0.4 2.3 -0.7 5.3 -0.7 6.7 0.1 1.4 -0.6 4.4 -1.4 6.8 -0.8 2.3 -1.4 5.5 -1.4 7.1 0 4.8 -6.6 17.6 -11.3 21.9 -8.3 7.8 -20.3 16.7 -27.2 20.3 -13.3 6.8 -19 10.1 -21 11.9 -1.1 1 -3.8 2.3 -6.1 2.9 -6.7 1.8 -10.5 5.1 -15.5 13.6 -4.1 6.8 -4.9 9.1 -5.4 15.3 -0.6 6 -0.5 7.6 0.9 9.1 0.9 1 1.6 2.1 1.6 2.4 0 0.8 6 8.7 9.9 13.2 1.5 1.7 4.2 3.7 6.1 4.5 6.7 2.8 16.8 15.1 19.1 23.3 1.8 6.2 1.5 15.2 -0.7 29.6 -0.6 3.5 -4.2 11.3 -7.4 16.1 -1 1.4 -2.1 3.6 -2.5 4.9 -0.8 2.6 -1.1 3 -5 7.5 -1.4 1.6 -2.5 3.2 -2.5 3.7 0 0.4 -0.8 1 -1.8 1.3 -1 0.4 -3.6 2.4 -5.8 4.5 -7 6.9 -14.4 11 -14.4 8z m50.2 -221 c1.4 -1.1 2.9 -1.9 3.3 -1.9 3.8 0 12.3 -12.8 11.1 -16.7 -0.3 -1 -0.8 -3.3 -1.1 -5.1 -0.7 -4.4 -2.4 -6.8 -5.5 -8.3 -1.4 -0.6 -3.3 -1.5 -4.2 -2 -3.5 -1.8 -6.4 -1.2 -15.8 3.4 -1.5 0.8 -3.8 3.9 -6 8.2 -6 12.1 -4.1 20.4 5.4 23.6 5.4 1.8 8.9 1.5 12.8 -1.2z m-42.5 -12.5 c8.4 -5.8 11.3 -9.6 11.3 -15 0 -6.3 -2 -10.3 -7.3 -14.7 l-4.6 -3.8 -6.7 1.6 c-8 1.9 -9.4 2.8 -9.4 6.6 0 1.6 -0.4 3.7 -0.9 4.7 -2 4.1 -4 9 -5.2 12.3 -1.1 3.2 -1 4.1 0.7 7 2.7 4.6 5.9 6.1 11.8 5.5 3.5 -0.3 6.4 -1.5 10.3 -4.2z"/>
  <path d="M159 82.8 c-1.4 -1.5 -2 -3.3 -1.8 -5.3 0.3 -2.6 0.7 -3 3.5 -3.1 1.8 0 3.6 -0.3 3.9 -0.7 0.4 -0.4 1.6 -0.7 2.7 -0.7 1.7 0 1.9 0.5 1.5 4.5 -0.3 2.5 -1.1 5.2 -1.8 6 -1.8 2.2 -5.6 1.8 -8 -0.7z"/>
  <path d="M115.6 74.9 c-2.9 -2.3 -3.2 -5 -1.5 -11.2 1.2 -4.4 3.1 -5.5 6.4 -3.7 4.9 2.6 5.7 8.5 1.9 13.6 -3.1 4 -3.3 4 -6.8 1.3z"/>
 </g>
</svg>