<?xml version="1.0" encoding="utf-8"?>
<!DOCTYPE svg PUBLIC "-//W3C//DTD SVG 20010904//EN" "http://www.w3.org/TR/2001/REC-SVG-20010904/DTD/svg10.dtd">
<svg version="1.0" xmlns="http://www.w3.org/2000/svg" width="404px" height="1122px" viewBox="0 0 404 1122" preserveAspectRatio="xMidYMid meet">
 <g fill="#000000">
  <path d="M146.7 1014.4 c-0.1 -0.1 -4.2 -0.4 -9.2 -0.8 -4.9 -0.4 -10.6 -0.9 -12.5 -1.1 -3.4 -0.4 -19 -4.1 -22 -5.3 -0.8 -0.3 -2 -0.6 -2.6 -0.7 -2.5 -0.6 -10.2 -4.2 -21.4 -10.1 -5.2 -2.8 -24.4 -20.3 -26.5 -24.2 -0.5 -1 -2.6 -5 -4.5 -8.8 -1.9 -3.8 -3.8 -7 -4.2 -7.2 -0.5 -0.2 -0.8 -1.3 -0.8 -2.5 0 -1.2 -0.6 -3.4 -1.4 -4.8 -1.3 -2.6 -2.5 -7.6 -3.1 -13.9 -0.3 -1.9 -0.7 -5.5 -1 -8 -1.2 -9.1 -2 -41.3 -1.1 -42.8 0.5 -0.9 1.4 -14.7 2.1 -32.7 0.7 -15.4 0.8 -17.6 2.5 -28.5 0.7 -4.1 1.3 -9.6 1.5 -12.2 0.2 -2.5 0.6 -5.5 0.9 -6.5 0.3 -1 0.8 -3.5 1 -5.6 0.3 -2 1.9 -5.7 3.6 -8.1 1.6 -2.5 3 -4.9 3 -5.4 0 -0.5 0.7 -1.5 1.5 -2.2 0.9 -0.7 1.3 -1.5 1.1 -1.7 -0.3 -0.3 -0.1 -1 0.4 -1.7 0.5 -0.6 3.2 -3.9 6 -7.3 2.7 -3.4 5 -6.8 5 -7.5 0 -1.1 8.9 -13.8 13 -18.5 0.6 -0.7 2 -2.8 3.1 -4.8 1.2 -1.9 2.4 -3.5 2.8 -3.5 0.3 0 1.5 -1.6 2.6 -3.6 1.5 -2.7 1.9 -5.8 2 -13.7 0.1 -7.3 0.7 -11.3 1.9 -14.2 1 -2.2 1.8 -6 1.8 -8.5 0 -5 -4 -14.6 -7.2 -17.5 -1.1 -1 -2 -2.3 -2 -3 0 -3.7 -8.4 -16.5 -10.8 -16.5 -1 0 -8.2 -13.8 -8.2 -15.7 0 -0.5 -0.7 -2.4 -1.6 -4.2 -0.9 -1.7 -1.3 -3.8 -1 -4.6 0.3 -0.8 -0.1 -2.7 -0.9 -4.2 -0.8 -1.5 -1.5 -3.5 -1.5 -4.4 0 -0.9 -0.7 -3 -1.5 -4.5 -0.8 -1.6 -1.5 -3.9 -1.5 -5.1 0 -1.2 -0.4 -2.3 -1 -2.5 -1 -0.3 -1.1 -2.8 -0.5 -13.8 0.4 -6.9 1 -9.2 5.1 -18.7 0.8 -1.7 1.4 -3.8 1.4 -4.6 0 -0.8 0.6 -2 1.4 -2.6 0.8 -0.7 1.7 -2.3 2 -3.7 0.7 -2.7 3.7 -7.3 6.8 -10.6 1 -1 1.8 -2.2 1.8 -2.7 0 -1.7 8.7 -9.6 13.1 -11.8 9.2 -4.7 21.6 -5 30.6 -0.7 2.8 1.3 5.4 2.4 5.6 2.4 0.8 0 13.7 13 13.7 13.8 0 0.4 1.3 2.1 2.8 3.8 2.7 3.1 3.7 4.5 9.1 12 2.2 3.1 5.1 5.2 11.1 8.3 4.5 2.2 8.5 4.1 9 4.1 1.6 0 2.1 -3.7 1.1 -8.1 -0.5 -2.4 -1.1 -8.2 -1.2 -12.9 -0.1 -4.7 -0.6 -9.7 -1 -11.2 -0.4 -1.5 -1 -5.8 -1.3 -9.5 -0.4 -3.7 -0.8 -8.4 -1.1 -10.3 -0.2 -1.9 -0.7 -8.4 -1 -14.5 -0.6 -12.5 -1.4 -23.7 -2.1 -31 -0.2 -2.7 -0.7 -7.9 -1 -11.5 -0.8 -10.1 -1.1 -13.5 -2.8 -28 -1.7 -14.5 -2.3 -20.8 -3.1 -31 -0.3 -3.6 -1.2 -12.8 -2 -20.5 -0.8 -7.7 -1.7 -16.5 -2 -19.5 -0.3 -3 -0.7 -6.2 -1 -7 -0.2 -0.8 -0.7 -4.2 -1 -7.5 -0.3 -3.3 -0.7 -8 -1 -10.5 -0.3 -2.5 -0.8 -7 -1 -10 -1.1 -11.4 -1.5 -14.6 -2.1 -17.5 -0.3 -1.6 -0.7 -4.6 -0.8 -6.6 -0.2 -2 -0.6 -4.1 -0.8 -4.5 -0.3 -0.5 -0.6 -3.6 -0.7 -6.8 -0.1 -3.2 -0.4 -6.2 -0.6 -6.6 -0.2 -0.4 -1.1 -6.7 -2 -14 -0.9 -7.3 -1.7 -13.6 -2 -13.9 -0.2 -0.4 -0.6 -3.6 -0.9 -7.2 -0.4 -3.6 -1.1 -8 -1.6 -9.9 -0.5 -1.8 -0.8 -3.6 -0.5 -4 0.2 -0.3 -0.2 -3.4 -1 -6.8 -1.2 -5.2 -3.9 -20.8 -6 -35.1 -0.3 -1.8 -1 -4.1 -1.5 -5.1 -0.8 -1.5 -1.7 -7 -2.2 -13 0 -0.8 -0.4 -2 -0.9 -2.5 -0.4 -0.6 -1.1 -3.8 -1.4 -7 -0.3 -3.3 -1 -6.4 -1.5 -6.9 -0.6 -0.6 -1 -2.5 -1 -4.4 0 -5.2 -1.4 -6.9 -5.2 -6.7 -1.8 0.2 -4 0.5 -4.8 0.8 -7.1 2.7 -7.3 0.1 -0.5 -6.7 5.5 -5.5 5.6 -5.6 4.6 -9.4 -0.6 -2.1 -1.3 -5.6 -1.6 -7.8 -0.9 -7.1 -2.4 -14.4 -3.5 -16.4 -0.5 -1 -1 -3.1 -1 -4.7 -0.1 -3.1 -2.1 -6.3 -4 -6.3 -0.7 0 -2.8 1.1 -4.6 2.5 -1.8 1.4 -3.5 2.5 -3.8 2.5 -0.3 0 -2.5 1.4 -4.9 3 -2.5 1.7 -5.1 3 -5.9 3 -2.4 0 -10.8 10.3 -10.8 13.2 0 2.2 -8.1 6.9 -11.1 6.4 -4.2 -0.6 -7.9 -3.5 -7.9 -6.2 0 -1.3 -0.4 -2.4 -1 -2.4 -0.5 0 -1 -0.7 -1 -1.5 0 -0.9 -0.6 -1.8 -1.4 -2.1 -1.5 -0.6 -3.1 -8.2 -2.7 -12.4 0.2 -1.4 0.9 -2.9 1.7 -3.3 1.9 -1.1 1.8 -2.4 -0.4 -5.5 -3.5 -5.1 -1.1 -15 5.1 -21.2 4.9 -4.9 5.7 -5.3 9.9 -4.7 7.3 1 13.2 8.9 15.3 20.9 1.2 6.4 2.8 6.6 8 1.3 2.5 -2.6 4.6 -5.4 4.6 -6.1 0.1 -0.8 0.2 -1.8 0.3 -2.2 0 -0.5 1.9 -2.7 4.1 -4.9 4 -3.9 4.1 -4.1 3.9 -10.4 -0.2 -3.5 -1 -9.3 -1.9 -12.9 -0.9 -3.6 -1.9 -7.8 -2.2 -9.5 -0.3 -1.6 -0.9 -3.4 -1.3 -4 -0.5 -0.5 -1.2 -2.8 -1.6 -5 -0.4 -2.2 -1.3 -5.5 -2.1 -7.3 -0.7 -1.8 -1.1 -3.7 -0.8 -4.2 0.3 -0.5 0.1 -1.1 -0.5 -1.5 -0.5 -0.3 -0.8 -1.6 -0.5 -2.8 0.7 -2.7 -1.9 -6.7 -3.4 -5.2 -1.5 1.5 -3.1 11.9 -1.9 12.6 0.5 0.4 0.3 0.9 -0.7 1.2 -0.9 0.4 -1.5 1.2 -1.3 1.9 0.4 2.1 -8 13.7 -11 15.1 -4.9 2.4 -11.3 0.4 -13.7 -4.2 -0.8 -1.7 -1.4 -3.2 -1.3 -3.4 0.2 -0.2 -0.2 -1 -0.8 -1.8 -0.7 -0.8 -1.8 -4.9 -2.4 -9.2 -1.4 -8.5 -1.7 -7.2 4.6 -20.2 3.3 -6.9 6.1 -8.8 10.6 -7.3 1.6 0.6 3.2 1.7 3.5 2.4 0.6 1.5 3.3 1.9 3.3 0.5 0 -0.4 1.9 -1.2 4.2 -1.7 l4.3 -0.9 0.1 -7.5 c0 -4.1 0.4 -9 0.8 -10.8 0.8 -3.2 0.8 -3.2 7.1 -3.2 l6.4 0 0.6 5.4 c0.4 3 1.3 5.7 2 6 0.7 0.2 1.5 1.9 1.9 3.8 0.6 3.1 4.1 6.6 5.3 5.4 0.9 -0.9 -1.8 -9.4 -3.3 -10.7 -0.8 -0.6 -1.4 -2 -1.4 -3 0 -1.1 -0.4 -1.9 -1 -1.9 -0.5 0 -1 -1.1 -1 -2.5 0 -2.5 0.1 -2.5 8.3 -2.5 l8.2 0 2.4 6.3 c1.3 3.4 2.9 7.8 3.6 9.7 0.7 1.9 3.1 8 5.3 13.5 3.7 9.1 9.4 24.8 10.5 28.5 0.2 0.8 0.7 -1.6 1.1 -5.5 1.3 -13.4 3.8 -33 4.6 -35.6 0.4 -1.4 0.6 -4.6 0.3 -7.1 -0.3 -2.8 -0.1 -4.8 0.6 -5.2 0.6 -0.4 1.1 -1.6 1.1 -2.7 0 -1.7 0.7 -1.9 7 -1.9 6.7 0 7 0.1 7 2.4 0 1.3 0.7 2.9 1.5 3.6 0.8 0.7 1.5 2.8 1.5 4.6 0 2.9 -0.3 3.4 -2.4 3.4 -1.4 0 -2.7 0.4 -3.1 0.9 -0.3 0.6 -1.4 5.9 -2.5 11.8 -7 38 -9.2 62.5 -6 66.8 0.4 0.6 1.8 4.6 3 9 1.2 4.4 3.3 11.6 4.6 16 1.2 4.4 2.5 9.2 2.9 10.8 0.3 1.7 1.2 2.7 2.3 2.7 1.6 0 1.7 -2.2 1.5 -30.7 -0.2 -17 0 -46.7 0.3 -66 l0.6 -35.3 12.9 0 c12 0 12.9 0.1 12.9 1.9 0 3.1 3 3.4 5.2 0.6 1.1 -1.4 2.8 -2.5 3.9 -2.5 1.7 0 1.8 0.3 0.7 2.2 -0.7 1.2 -1.9 2.8 -2.5 3.6 -0.7 0.7 -2.4 3.2 -3.8 5.6 -2.3 3.9 -2.4 4.5 -1.4 11.1 0.6 3.9 1.5 7.4 2 7.9 0.5 0.6 0.9 3 0.9 5.5 0.1 2.6 0.7 6.3 1.5 8.4 0.7 2.2 1.2 5.2 1 6.7 -0.2 1.7 0.2 3.4 1.1 4.1 1.4 1.1 4.2 0.2 14.4 -5.1 0.9 -0.4 3 -1.1 4.8 -1.4 1.7 -0.4 3.4 -1.2 3.7 -1.7 0.4 -0.5 1.6 -0.9 2.7 -0.9 1.1 0 4 -1 6.3 -2.1 4.7 -2.4 8.4 -8 9.1 -13.9 0.3 -1.9 1.1 -5.8 1.9 -8.6 1.4 -4.9 1.7 -5.2 6.4 -6.8 6.1 -2 9.2 -2 13.4 -0.2 7.3 3.1 10.4 10.3 7.2 16.9 -1.5 3.1 -1.5 3.8 -0.2 6.3 1.5 2.9 0.6 8.4 -1.4 8.4 -0.5 0 -0.9 0.8 -0.9 1.8 -0.1 2.3 -2.1 4.8 -4.7 5.6 -2.6 0.8 -10.8 -1.1 -12.4 -3 -0.6 -0.8 -2 -1.4 -3 -1.4 -1.1 0 -2.8 -0.5 -3.8 -1.2 -1.5 -0.9 -2.9 -0.7 -7.2 1.4 -3 1.4 -8.3 3.7 -11.9 5.3 -5.2 2.2 -20.3 9.2 -21.8 10.1 -0.8 0.5 -0.7 13.1 0 16.4 0.4 1.9 1 8.7 1.3 15 0.5 10.2 1.9 23.3 3 26.7 0.3 0.8 1.5 0.9 4.6 0.2 5.5 -1.3 7.6 0.3 5.4 4.1 -3.9 6.9 -3.9 6.7 -4 44 0 32.5 0.3 44.5 2 85 0.3 5.8 0.7 17.9 1 27 0.4 15.1 0.7 21.2 2 40 0.8 11.2 1.4 21.1 2 33 0.6 11 1.2 19.7 2 28.5 0.2 2.2 0.6 8.3 1 13.5 0.3 5.2 0.8 12.9 1 17 0.3 4.1 0.7 9.5 1 12 0.3 2.5 1.2 12.4 2 22 2.6 30.6 2.5 29.6 4 42.5 0.4 3.3 0.7 6.7 0.7 7.5 0 0.8 0.6 6.8 1.4 13.4 0.7 6.5 1.3 12.1 1.2 12.5 -0.1 0.3 0.2 2.9 0.7 5.6 0.5 2.8 0.8 5.3 0.7 5.7 -0.1 0.4 0.3 4.2 0.8 8.5 0.6 4.3 1.3 9.6 1.5 11.8 2.7 22.4 3.3 26.6 3.9 27.3 0.4 0.4 1.3 0 1.9 -0.9 0.7 -0.9 2.5 -1.9 4 -2.3 1.6 -0.4 4.4 -2.2 6.3 -4.1 1.9 -1.9 3.9 -3.5 4.4 -3.5 0.5 0 1.5 -0.6 2.2 -1.3 1.9 -1.7 4.9 -3.5 7.8 -4.8 1.4 -0.5 3.6 -2.1 5 -3.4 2.4 -2.2 14.3 -5.9 17.2 -5.4 0.7 0.2 2.8 -0.5 4.7 -1.5 1.8 -1 5.4 -2 8 -2.2 6.9 -0.6 16.7 -1.4 24.6 -1.8 7.6 -0.4 20.9 1.5 28.5 4.1 0.8 0.3 3.5 0.6 6 0.7 2.5 0.1 5.1 0.5 5.7 0.9 0.6 0.4 2.8 0.9 4.8 1.2 8.6 1.1 17.9 7.9 22.9 17 5.2 9.3 7.3 27.5 4.6 39.9 -3.1 14.1 -4.6 17.8 -13.5 31.6 -2.5 3.9 -4.5 7.3 -4.5 7.6 0 1.2 -9 11.5 -13.6 15.6 -11.4 10.2 -28.2 27.5 -28.8 29.8 -0.4 1.4 -1.1 3.4 -1.6 4.5 -3 7 -3.2 17.3 -0.5 23.4 2.9 6.4 5 10.6 5.5 11.1 0.4 0.3 1.9 3.2 3.4 6.5 1.5 3.3 3.7 7.2 4.8 8.8 1.1 1.5 2.1 3.3 2.3 4 0.6 2.8 3 7.7 3.7 7.7 0.4 0 0.8 0.9 0.8 2 0 1.1 0.3 2 0.8 2 0.4 0 1.6 2.8 2.6 6.3 1.1 3.4 2.3 6.7 2.7 7.2 0.4 0.6 1 2.6 1.4 4.5 0.4 1.9 1.1 4.1 1.6 5 1.3 2.2 7.9 23.2 7.9 25 0 0.8 0.6 2.7 1.4 4.1 0.7 1.4 1.6 4.3 2 6.5 0.5 2.1 1.1 4.4 1.6 4.9 0.4 0.6 1.4 3.7 2.1 7 0.7 3.3 1.6 6.5 2 7 0.4 0.6 0.7 2.1 0.7 3.5 0 1.4 0.5 4.6 1.1 7.2 1.1 4.9 0.8 10.4 -1 17.3 -0.6 2.2 -1.1 4.1 -1 4.2 0.3 1.1 -15.1 26 -16.9 27.3 -0.4 0.3 -2.4 2.7 -4.4 5.3 -8.3 10.9 -30.5 33.7 -39.3 40.4 -3.5 2.6 -6.3 5.1 -6.3 5.5 0 0.6 -19.5 12.8 -20.5 12.8 -0.3 0 -2.9 1.5 -5.8 3.4 -2.9 1.9 -7.5 4.5 -10.2 5.8 -2.8 1.3 -5.9 2.9 -7 3.5 -1.1 0.6 -3.1 1.5 -4.5 2.1 -1.4 0.6 -5.6 2.5 -9.5 4.2 -3.8 1.8 -7.9 3.6 -9 4 -6.5 2.5 -16.3 6.3 -18 7 -1.1 0.5 -3.6 1.3 -5.5 1.9 -4.2 1.2 -41.8 8.8 -44 8.9 -0.8 0.1 -5.5 0.4 -10.5 0.7 -9.1 0.6 -25.4 1.2 -25.8 0.9z m45.2 -13.9 c7.5 -1.4 16.1 -3.2 19.1 -4.1 11.6 -3.2 19.5 -5.7 20.4 -6.6 0.6 -0.4 1.6 -0.8 2.4 -0.8 2.9 0 53.8 -25 58.9 -28.9 1.6 -1.2 5.3 -3.8 8.3 -5.8 5.8 -3.9 17.7 -14.2 23.9 -20.7 2 -2.1 5.4 -5.6 7.6 -7.9 2.2 -2.3 5.1 -5.7 6.5 -7.8 1.4 -2 5.1 -6.6 8.4 -10.2 3.2 -3.7 6.6 -8.1 7.7 -9.9 3.9 -7.1 7.8 -15.7 10.4 -23.3 3 -8.8 3 -10.7 0 -30 -0.9 -5.5 -1.9 -11.8 -2.2 -14 -0.3 -2.2 -1.4 -4.8 -2.4 -5.8 -1.1 -1 -1.9 -2.7 -1.9 -3.8 0 -1 -0.4 -2.7 -0.9 -3.7 -2.1 -3.8 -4.3 -9.6 -5.7 -14.5 -0.9 -2.9 -2.1 -6.5 -2.8 -8.2 -0.8 -1.6 -2.1 -4.8 -3.1 -7 -1.7 -4.1 -3 -6.6 -8 -16.5 -3.7 -7.3 -3.4 -6.9 -7.9 -13.6 -2.2 -3.3 -4.9 -8.3 -6.1 -11.2 -1.2 -2.8 -2.9 -6 -3.8 -7 -3.1 -3.4 -6.5 -12.8 -7.6 -21.3 -1.1 -8.7 -0.5 -22.5 1 -23.5 0.5 -0.3 0.9 -1.7 0.9 -3.1 0 -1.3 0.7 -3.7 1.6 -5.1 2.9 -5 15.2 -12 21 -12.2 3 0 24.4 -21.3 26.9 -26.5 1 -2.2 2.8 -5.2 4.1 -6.7 1.2 -1.5 2.5 -4.2 2.9 -6 0.4 -1.8 1.2 -4.6 2 -6.3 6.9 -15.5 6.8 -15.2 6.1 -27.5 l-0.7 -11.5 -4.2 -5.4 c-4 -5.2 -7.3 -7.8 -12.7 -10.1 -1.4 -0.6 -4.2 -2 -6.2 -3 -2.1 -1.1 -9.9 -2.9 -17.4 -4.1 -11.8 -1.9 -14.8 -2.1 -22.3 -1.1 -13 1.6 -28.5 7.1 -38.6 13.7 -4.7 3 -8.8 5.5 -9.2 5.5 -0.5 0 -4.4 3.3 -8.7 7.3 l-7.9 7.3 2.6 6.6 c1.5 3.7 2.7 7.5 2.7 8.6 0 2.6 5.8 24.9 7 27 2.9 5 7.5 20.7 11.5 39 4.9 22 10.6 41.4 13.9 47.2 1.1 1.9 3.6 5.3 5.6 7.5 4.1 4.6 12 15.1 12 16 0 1.2 6.4 14 8.7 17.4 1.2 1.8 3.4 5.9 4.9 9 2.7 5.8 4.5 9.4 10.1 19.6 8.9 16.4 11.8 22.7 14 30.9 1.2 5 2.3 10.6 2.3 12.5 -0.1 5.4 -8.1 21.8 -13.2 27 -6.3 6.5 -11.3 8.4 -23.5 8.9 -6.2 0.3 -10.3 0.8 -10.3 1.5 0 0.5 1.2 3.4 2.6 6.4 2.5 4.9 2.6 6.1 2.2 14.4 -0.6 10.4 -2.5 14 -11.5 21.7 -5.1 4.4 -17.9 10.2 -22.4 10.2 -1.7 0 -1.7 0.3 -0.2 5.2 2.5 8.5 1.4 14.6 -3.6 21.3 -4.5 6 -11.2 10.9 -17.1 12.5 -1.9 0.5 -6.6 1 -10.4 1 -5.6 0 -7.7 -0.5 -11.2 -2.5 -5.3 -3.1 -6.4 -6.4 -6.4 -18.5 0 -9.4 1.6 -15.1 6.8 -24.2 4.3 -7.4 7.8 -9.8 14.4 -9.8 l5.3 0 0 -11.3 c0.1 -9.7 0.4 -11.8 2.3 -15.5 6.5 -12.4 17 -21.7 25.8 -22.9 l4.6 -0.6 -2.3 -1.9 c-2.6 -2 -5.2 -1.9 -14.4 0.7 -11.4 3.1 -47.8 9.4 -61.5 10.5 -10.3 0.9 -12 1.2 -23.1 4.4 -3.1 0.9 -7 1.6 -8.7 1.6 -1.6 0 -3.2 0.5 -3.4 1.1 -0.6 1.7 -15 0.1 -18.5 -2 -3.4 -2.1 -6.3 -9.9 -8.8 -23.8 -2.3 -12.3 -1.7 -15.3 3.8 -18.2 14.7 -7.7 19.2 -10.4 19.6 -11.3 1 -2.8 7.5 -8.7 10.2 -9.3 4.9 -1.1 5.8 -4.4 6.5 -22.7 0.3 -9 1 -17.8 1.6 -19.6 1.2 -4.1 1.1 -22.5 -0.3 -42.7 -0.6 -8.2 -1.2 -18.1 -1.4 -21.8 -0.2 -3.7 -0.6 -8 -0.9 -9.5 -0.3 -1.5 -1 -9 -1.6 -16.7 -0.7 -7.7 -1.6 -16.2 -2.1 -19 -0.6 -2.7 -1.4 -9.3 -2 -14.5 -1.5 -15.1 -4.3 -33.9 -6 -41.2 -1.1 -4.8 -1.2 -4.8 -9.5 -8.8 -4.6 -2.2 -8.8 -4 -9.2 -4 -1.6 0 -7.2 -5.7 -7.2 -7.3 0 -0.9 -0.6 -2 -1.4 -2.4 -0.8 -0.4 -3.1 -3.3 -5.1 -6.3 -4.2 -6.2 -4.3 -6.3 -12.5 -14.5 -12.1 -12 -18.9 -13.9 -29.9 -8.4 -6.4 3.2 -9.3 6.6 -14.9 17.4 -9.6 18.7 -9.7 26.5 -0.3 52.9 3.9 10.9 4.4 11.8 9.1 18.1 5.3 7.1 9 13.9 17.5 32 2.5 5.5 5.5 11.7 6.7 13.8 1.7 3.2 1.9 4.8 1.3 10 -0.4 3.4 -1.3 8 -2.1 10.2 -0.8 2.2 -1.4 5.2 -1.4 6.6 0 6.5 -1.4 9.2 -7.9 15.8 -5.8 5.9 -19.9 25.5 -23.9 33.1 -0.7 1.4 -2.1 3.4 -3.1 4.5 -4.2 4.9 -16.9 26.4 -17.9 30.5 -1.8 7.1 -4.1 28.2 -4.7 43.5 -0.3 7.7 -1 18.1 -1.6 23 -2.4 21.4 -0.5 50.9 4.3 67 6.9 23.1 25.4 44 47.7 54.1 3.1 1.4 6.4 2.9 7.3 3.4 3.8 2.1 28.9 7.6 37.8 8.3 15.8 1.3 31.7 0.6 44.9 -1.8z m89.4 -114.2 c3.5 0.5 4.7 0.3 3.7 -0.3 -2.5 -1.6 -12.6 -1.2 -14 0.5 -1.1 1.3 -0.8 1.3 2 0.4 1.8 -0.7 5.4 -0.9 8.3 -0.6z m-95.2 -25.3 c5.7 -1.2 12 -2 13.9 -1.9 1.9 0.2 5.2 0.2 7.4 0.1 l3.8 -0.2 -3.8 -3.8 -3.9 -3.7 0 -19.6 c0 -18.6 -0.1 -19.6 -2.3 -22.3 l-2.2 -2.9 0 3.9 c0 2.2 1 7.9 2.1 12.7 1.8 7.2 2 9.9 1.3 14.9 -1.2 7.9 -3.3 9.7 -13.1 10.5 -6.1 0.5 -7.8 0.3 -11.8 -1.7 -4.7 -2.3 -4.7 -2.3 -6.6 -0.3 -2 1.9 -2 2.2 -0.4 8.8 1.5 6.5 2.9 9 4.6 7.9 0.4 -0.2 5.3 -1.3 11 -2.4z m55.1 -8.1 c0.9 -0.5 2.8 -0.9 4.2 -0.9 1.5 0 3.4 -0.4 4.4 -0.9 0.9 -0.5 4.5 -1.8 7.9 -2.7 5.4 -1.5 6.3 -2.1 6.8 -4.6 0.8 -3.6 7.9 -10.8 10.7 -10.8 1.6 0 1.8 -0.3 0.9 -1.4 -0.8 -0.9 -3.1 -1.2 -8.1 -1 -3.9 0.2 -7.5 0.6 -8 0.9 -0.6 0.3 -1 2.6 -1 5.1 0 7.4 -1 8.4 -8.4 8.4 -7.2 0 -9.3 -1.5 -10.2 -7.1 l-0.6 -3.4 -7.6 0 -7.7 0 0 10.3 0 10.2 7.5 -0.6 c4.1 -0.4 8.3 -1.1 9.2 -1.5z m74 -4.6 c6.3 -7.5 8.4 -17.6 5 -23.9 -1.1 -2.2 -2.3 -5.1 -2.6 -6.6 -0.3 -1.5 -1.2 -3.3 -2 -4.1 -0.8 -0.7 -2.5 -3.5 -3.8 -6 -9.2 -18.3 -17.4 -31.9 -20.9 -34.7 -0.4 -0.3 -0.9 -1.5 -1.3 -2.7 -0.4 -1.2 -2.9 -4.5 -5.6 -7.3 -2.8 -2.9 -5 -5.8 -5 -6.4 0 -0.6 -1.3 -2.7 -2.9 -4.6 -4 -4.9 -6.1 -9.4 -6.1 -13 0 -1.7 -0.9 -5.6 -2 -8.8 -4.3 -12.1 -6.8 -19.9 -7.9 -24.7 -0.6 -2.7 -1.9 -7.7 -3 -11 l-1.9 -6 -0.1 8.9 c-0.1 4.9 0.8 13.9 1.8 20 3.5 19.9 3.9 27.3 3.3 57.6 -0.4 16.2 -0.5 31.1 -0.2 33 0.5 3.3 0.7 3.5 4 3.2 23.4 -2 24.3 -1.8 29.3 8 2.1 4 3.7 7.7 3.7 8.2 0 0.4 1.1 2.9 2.4 5.6 1.3 2.6 2.7 6.5 3.1 8.8 0.6 3.6 1.1 4.2 5.3 6.1 5.8 2.5 5.6 2.5 7.4 0.4z m-94.7 -91 c2.1 -15.7 0.2 -41.9 -5.5 -77.8 -1.1 -6.6 -2.1 -13.6 -2.3 -15.5 -0.3 -1.9 -0.2 1.6 0.1 7.8 l0.5 11.2 -3.7 0 c-3.3 0 -3.6 0.2 -3.1 2.3 0.8 3.8 3.4 33.2 4.6 54.3 1.2 20 1.3 20.2 3.8 21.7 4.1 2.6 4.8 2.1 5.6 -4z m16.5 -75.3 c-0.6 -9.6 -1.2 -22.4 -1.5 -28.5 -0.7 -16.5 -1.6 -26.9 -2.5 -28 -0.4 -0.5 -1.1 -3.9 -1.5 -7.4 -0.4 -3.5 -1.4 -7.9 -2.1 -9.7 -1.7 -4.1 -1.8 -10.1 -0.1 -13.4 0.9 -1.9 1 -5.8 0.2 -17 l-1 -14.5 -0.8 20.5 c-0.6 15.7 -0.4 23.8 0.8 35 4 38.5 5.7 55.4 6.6 65.9 0.8 10.8 1.6 15.7 2.5 14.9 0.2 -0.2 -0.1 -8.2 -0.6 -17.8z m-20.4 -109.7 c-0.3 -11.5 -0.8 -30 -1.1 -41.3 -0.8 -34.6 -3.8 -99.1 -5.5 -116.7 -0.6 -6 -1.5 -20.5 -2 -32.3 -0.5 -11.8 -1.4 -26.2 -2 -32 -0.6 -5.8 -1.5 -14.8 -2 -20 -0.5 -5.2 -1.6 -14.2 -2.4 -20 -0.8 -5.8 -1.4 -12.7 -1.5 -15.5 0 -2.7 -0.7 -9.5 -1.6 -15 -0.8 -5.5 -1.5 -12.2 -1.5 -15 0 -2.7 -0.9 -8.8 -2.1 -13.5 -1.1 -4.7 -2.4 -12.8 -2.9 -18 -1.6 -16.5 -2.8 -24.3 -5.4 -35.4 -1.5 -5.9 -2.6 -11.8 -2.6 -13.2 0 -1.3 -0.7 -5.7 -1.7 -9.9 -1.3 -5.9 -2 -7.5 -3.4 -7.5 -1.3 0 -1.9 -1.1 -2.5 -4.5 -0.3 -2.5 -1 -4.5 -1.5 -4.5 -1.5 0 -1 7.8 1.1 19.5 10.2 57 11.9 73.9 18.5 182 2.5 41.3 3.6 58.3 4.5 66 0.5 5 1.4 15.5 2 23.5 0.6 8 1.5 18.3 2 23 0.9 8.2 2.8 26.1 5 48 0.6 5.8 1.9 17.7 3 26.5 1 8.8 2.7 22.9 3.6 31.3 1 8.3 2 15.2 2.2 15.2 0.3 0 0.2 -9.3 -0.2 -20.7z m-14.2 7.5 c-0.3 -4 -1 -9 -1.5 -11 -0.5 -2 -1.4 -9 -2 -15.5 -0.5 -6.5 -1.4 -14 -1.8 -16.8 l-0.8 -5 -0.2 7.1 c0 3.9 0.6 11.5 1.4 17 1.6 10.2 4.5 30.5 4.5 31.1 0 0.2 0.2 0.3 0.5 0.3 0.3 0 0.2 -3.3 -0.1 -7.2z m25.3 -23.5 c-0.2 -1.6 -0.4 -0.5 -0.4 2.2 0 2.8 0.2 4 0.4 2.8 0.2 -1.3 0.2 -3.5 0 -5z m-35.6 -66.3 c-0.6 -3.6 -1.6 -12.1 -2.2 -19 -0.5 -6.9 -1.7 -17.9 -2.4 -24.5 -1.4 -11.7 -2.5 -26.5 -4.5 -62.5 -1.1 -18 -2.3 -35.8 -6 -84.5 -3.1 -40.4 -3.8 -47.1 -5.4 -56 -0.9 -4.4 -1.6 -10.8 -1.6 -14.3 0 -3.4 -0.4 -7 -0.9 -8 -1.2 -2.4 -3.2 -12.5 -4 -20.2 -0.4 -3.6 -1.2 -7.5 -1.9 -8.7 -0.7 -1.2 -1.2 -3.5 -1.2 -5.1 0 -1.5 -0.6 -4.8 -1.4 -7.3 -0.8 -2.4 -1.7 -5.7 -2 -7.2 -0.4 -1.5 -1.4 -3.1 -2.4 -3.4 -0.9 -0.4 -2.1 -1.1 -2.5 -1.7 -0.5 -0.6 -0.6 -0.2 -0.2 0.9 0.7 1.9 1.3 5 5 25.5 1 5.2 2.1 10 2.5 10.5 0.4 0.6 1 3.9 1.4 7.5 0.3 3.6 1.3 8.8 2.2 11.5 0.9 2.8 1.8 10 2 16.4 0.3 6.2 1.2 15.9 2 21.5 0.9 5.5 1.9 14.6 2.4 20.1 0.4 5.5 1.8 14.3 3 19.5 1.8 7 2.4 12.6 2.5 21.5 0 6.6 0.6 14.5 1.3 17.5 0.7 3.2 1.2 12.2 1.2 21.5 -0.1 9.6 0.5 20.2 1.4 26.5 0.9 5.8 1.6 14.1 1.6 18.5 0 4.4 0.9 16.6 2 27 1.1 10.5 2.5 23.3 3 28.5 1 9.5 1.8 15.7 4.2 32.5 0.9 6.5 1.4 8 1.6 5.5 0.2 -1.9 -0.1 -6.4 -0.7 -10z m-25.7 -141.7 c-0.4 -4.9 -1.1 -9.6 -1.5 -10.5 -0.5 -0.9 -1.6 -9.5 -2.4 -19 -0.8 -9.5 -2 -20 -2.6 -23.3 -0.5 -3.3 -1.4 -11.2 -1.9 -17.5 -0.5 -6.4 -1.4 -15.1 -2 -19.5 -0.7 -4.4 -1.5 -12.1 -1.9 -17 -0.7 -8.2 -3.3 -21.9 -6.5 -35 -1 -3.9 -1.7 -5.1 -3.4 -5.3 -2.5 -0.4 -2.6 -1.5 1.4 18.5 1.3 6.7 2.9 15.2 3.4 19 0.6 3.7 1.5 9.1 2 11.8 1.2 6.5 7.5 50.4 9.5 66.5 0.9 6.9 2 15.9 2.6 20 0.5 4.1 1.2 9.8 1.5 12.5 0.6 5.6 1.1 7.5 1.9 7.5 0.3 0 0.2 -3.9 -0.1 -8.7z m26.6 -191 c-1 -1.6 -1.1 -1.5 -0.6 0.7 0.3 1.4 0.6 3.4 0.7 4.5 0.1 1.3 0.3 1.1 0.6 -0.7 0.2 -1.5 -0.1 -3.5 -0.7 -4.5z m-18.2 -37.6 c0 -8.4 -0.4 -16 -0.9 -16.8 -0.6 -0.9 -0.9 1.6 -1 7.1 -0.2 17.1 0.3 25 1.5 25 0.2 0 0.3 -6.9 0.4 -15.3z m-25.7 8.2 c0.1 -2.4 -0.6 -6 -1.5 -7.9 l-1.6 -3.5 0.4 5 c0.6 6.1 1.7 11.7 2.3 11.2 0.2 -0.2 0.4 -2.4 0.4 -4.8z m-16.1 -0.5 c-0.5 -2 -1.3 -4.1 -1.9 -4.7 -0.6 -0.6 -1.1 -1.8 -1.1 -2.6 0 -1.8 -5.1 -12.3 -5.7 -11.7 -0.3 0.2 0 1.3 0.5 2.3 0.5 1 1.2 4 1.6 6.6 0.4 3.1 1.7 6.4 3.8 9.3 1.7 2.4 3.2 4.4 3.4 4.4 0.1 0 -0.2 -1.6 -0.6 -3.6z m56.5 -15.1 c-0.7 -10.9 -0.8 -11.3 -3 -11.3 -1.9 0 -2.3 0.6 -2.8 4.7 -0.6 5.7 -0.3 6.3 2.9 6.3 2.3 0 2.4 0.2 2.5 7.8 0.1 4.2 0.4 6.8 0.6 5.8 0.3 -1.1 0.2 -7.1 -0.2 -13.3z m-53.4 -21.7 c-0.5 -1.2 -2.4 -6.8 -4.2 -12.6 -1.7 -5.8 -3.5 -10.9 -3.9 -11.5 -0.4 -0.5 -1 -2.2 -1.4 -3.8 -0.4 -1.5 -1.8 -5.2 -3.1 -8.2 -1.4 -2.9 -2.5 -5.8 -2.5 -6.4 0 -2.1 -8.8 -20.9 -10.7 -22.9 -2.2 -2.3 -2.1 4.9 0.3 9.8 1.2 2.5 3.2 7 4.4 10 3.8 9.1 4.7 11.3 7.4 17.1 1.4 3 3.5 8.2 4.7 11.5 1.2 3.2 2.6 6.4 3 7 0.8 0.9 2.6 5.8 5.7 14.9 0.6 1.8 0.7 1.8 1 -0.4 0.2 -1.3 -0.1 -3.3 -0.7 -4.5z"/>
 </g>
 <g fill="#ff3600">
  <path d="M166.7 1006.4 c-0.1 -0.2 -5 -0.4 -10.7 -0.4 -9 -0.2 -15.7 -1 -35.5 -4.7 -1.6 -0.3 -3.8 -0.9 -4.7 -1.4 -0.9 -0.5 -2.4 -0.9 -3.3 -0.9 -1.7 0 -2.9 -0.5 -13.6 -5.4 -22.5 -10.2 -40.8 -31 -47.7 -54.1 -4.5 -15.1 -7.3 -50.7 -5.2 -65.5 1.1 -7.7 1.8 -16.3 2.5 -32 0.7 -14.7 2.9 -34.9 4.7 -42 1 -4.1 13.7 -25.6 17.9 -30.5 1 -1.1 2.4 -3.1 3.1 -4.5 4 -7.6 18.1 -27.2 23.9 -33.1 6.5 -6.6 7.9 -9.3 7.9 -15.8 0 -1.4 0.7 -4.5 1.5 -6.7 2 -5.9 2.1 -11.5 0.2 -14.9 -0.9 -1.7 -3.7 -7.5 -6.2 -13 -8.4 -18 -12.2 -24.9 -17.5 -32 -4.7 -6.3 -5.2 -7.2 -9.1 -18.1 -11.1 -31.3 -10.2 -43.1 5.7 -68 4.6 -7.3 12.8 -11.4 22.8 -11.4 8.7 0 13.5 2.5 22.6 11.5 8.2 8.2 8.3 8.3 12.5 14.5 2 3 4.3 5.9 5.1 6.3 0.8 0.4 1.4 1.5 1.4 2.4 0 1.6 5.6 7.3 7.2 7.3 0.4 0 4.6 1.8 9.2 4 8.3 4 8.4 4 9.5 8.8 0.6 2.6 1.6 8 2.1 12.1 0.6 4.1 1.5 8 2 8.6 0.5 0.6 0.7 2.1 0.3 3.3 -0.3 1.3 -0.1 4.9 0.5 8 0.7 3.1 1.4 8.6 1.7 12.2 0.2 3.6 0.9 9 1.5 12 0.6 3 1.3 9.3 1.6 14 0.3 4.7 0.9 10.5 1.5 13 0.5 2.5 0.9 5.4 0.9 6.5 -0.1 3.4 0.9 19.8 1.4 23.5 0.3 1.9 0.8 11.2 1.1 20.5 0.3 9.4 0.8 20.2 1 24 0.4 4.7 0 8.7 -0.9 12 -0.9 2.7 -1.5 8.5 -1.6 13 -0.1 23.6 -1.5 29.8 -6.9 31 -2.8 0.6 -10.1 7.4 -10.1 9.4 0 0.4 -3.3 2.5 -7.2 4.5 -4 2.1 -9.1 4.8 -11.3 6.2 -2.2 1.3 -4.4 2.5 -4.8 2.7 -1.1 0.3 -1.2 4.1 -0.3 8.7 0.4 1.9 0.9 5.1 1.2 7 0.3 1.9 1.5 6.4 2.7 9.9 2.4 7.1 6.3 10.6 10.5 9.6 1.2 -0.3 3.2 0 4.4 0.6 1.7 0.9 2.3 0.9 2.6 0 0.2 -0.6 1.8 -1.1 3.7 -1.1 1.8 0 5.2 -0.7 7.6 -1.6 2.4 -0.8 5.8 -1.8 7.4 -2 7.5 -1.3 16.5 -2.5 21.5 -2.8 7.3 -0.5 47.6 -7.6 54.5 -9.6 12.8 -3.7 16.3 -4.2 19.7 -2.6 4 1.9 8.8 5.9 8.8 7.4 0 0.6 2.6 2.3 5.8 3.9 5 2.4 6.8 2.8 14.7 2.8 15.6 0 23.2 -5.6 31.1 -22.8 l4.5 -9.8 -2.2 -8.7 c-2 -8 -5.5 -15.7 -14.2 -31.7 -5.6 -10.2 -7.4 -13.8 -10.1 -19.6 -1.5 -3.1 -3.7 -7.2 -4.9 -9 -2.3 -3.4 -8.7 -16.2 -8.7 -17.4 0 -0.9 -7.9 -11.4 -12 -16 -2 -2.2 -4.5 -5.6 -5.6 -7.5 -3.4 -5.8 -9 -25.3 -13.9 -47.5 -2.6 -11.5 -5.1 -21.5 -5.7 -22.2 -0.6 -0.7 -0.8 -1.3 -0.5 -1.3 0.7 0 -3.7 -12.4 -5.3 -15.2 -1.1 -2 -6.5 -22.5 -7.4 -28.3 -0.4 -2.2 -1.8 -6.4 -3.1 -9.3 -1.4 -3 -2.5 -6.4 -2.5 -7.6 0 -1.3 2.9 -4.9 8.2 -9.9 4.5 -4.2 8.6 -7.7 9 -7.7 0.5 0 4.6 -2.5 9.3 -5.5 17.1 -11.2 42.9 -16.9 61.6 -13.5 3 0.5 7.2 1.1 9.4 1.4 7.1 0.8 15.2 3.7 21.5 7.7 0.8 0.5 2.5 1.3 3.7 1.9 1.2 0.5 4.2 3.5 6.7 6.6 4.4 5.7 4.4 5.7 5.3 16.3 1.3 16.5 0.9 18.5 -6.2 34.6 -0.8 1.7 -1.6 4.5 -2 6.3 -0.4 1.8 -1.7 4.5 -2.9 6 -1.3 1.5 -3.1 4.5 -4.1 6.7 -2.5 5.2 -23.9 26.5 -26.9 26.5 -5.8 0.2 -18.1 7.2 -21 12.2 -0.9 1.4 -1.6 3.8 -1.6 5.1 0 1.4 -0.5 2.9 -1.1 3.3 -0.6 0.3 -0.9 2 -0.6 3.8 0.2 1.7 0.1 3.8 -0.4 4.7 -2.2 4.2 3.2 25 7.8 30.1 0.9 1 2.6 4.2 3.8 7 1.2 2.9 3.9 7.9 6.1 11.2 4.5 6.7 4.2 6.3 7.9 13.6 5 9.9 6.3 12.4 7.8 16 0.8 1.9 2.2 5.1 3 7 0.9 1.9 2.2 5.8 3.1 8.7 1.4 4.9 3.6 10.7 5.7 14.5 0.5 1 0.9 2.7 0.9 3.7 0 1.1 0.8 2.8 1.9 3.8 1 1 2.1 3.6 2.4 5.8 0.3 2.2 1.3 8.5 2.2 14 0.9 5.5 1.9 14.1 2.2 19 0.5 8.1 0.2 9.9 -2.2 17 -2.6 7.7 -6.5 16.2 -10.4 23.3 -1.1 1.8 -4.5 6.2 -7.7 9.9 -3.3 3.6 -7 8.2 -8.4 10.2 -1.4 2.1 -4.3 5.5 -6.5 7.8 -2.2 2.3 -5.6 5.8 -7.6 7.9 -6.2 6.5 -18.1 16.8 -23.9 20.7 -3 2 -6.7 4.6 -8.3 5.8 -5.1 3.9 -56 28.9 -58.9 28.9 -0.8 0 -1.8 0.4 -2.4 0.8 -0.9 0.9 -8.8 3.4 -20.4 6.6 -13 3.6 -45.8 8.5 -47.3 7z m85.3 -41.4 c5.3 -2.6 13 -10.5 15.5 -15.7 1.7 -3.6 1.7 -4 0 -10.3 -3 -11.1 -3 -11 -0.3 -11 5.1 0 17.7 -5.6 23.1 -10.2 8 -6.9 10.6 -11.3 11.3 -18.9 0.5 -5.6 0.2 -7 -2 -11.4 -1.4 -2.7 -2.6 -5.5 -2.6 -6.1 0 -2.1 -4.6 -5.3 -8.8 -6 -3.1 -0.5 -4.2 -1.1 -4.2 -2.5 0 -2.3 -1.4 -3.1 -5.5 -3.1 -6.9 0 -18.5 10.5 -24.6 22.4 -1.8 3.5 -2.3 5.8 -2.2 12.3 0.1 4.4 0.3 9.4 0.5 11 0.3 3 0.3 3 -5.7 3.5 -7.5 0.6 -10.6 2.7 -14.6 9.7 -6.5 11.3 -8.4 21.3 -5.9 30.5 1.6 5.8 7.6 9 15.5 8.5 3.5 -0.3 7.9 -1.4 10.5 -2.7z"/>
 </g>
 <g fill="#ffffff">
  <path d="M215.7 1119.3 c-0.2 -0.1 -10.8 -0.3 -23.7 -0.4 -15.5 -0.2 -22.2 -0.5 -19.6 -1.1 2.1 -0.5 42.1 -9.1 88.8 -19.3 46.7 -10.2 85.2 -18.5 85.5 -18.5 2 0 -18.5 13 -25.6 16.2 -2.5 1.1 -6.8 3 -9.6 4.3 -2.7 1.2 -6.1 2.5 -7.5 2.9 -1.4 0.4 -3.4 1.1 -4.5 1.6 -5.2 2.2 -29.1 9.1 -38 11 -5.5 1.2 -15.4 2.3 -22 2.6 -22 0.9 -23.6 1 -23.8 0.7z"/>
  <path d="M236.8 956.9 c-1.8 -0.7 -2.9 -2 -3.3 -4.1 -0.9 -3.7 0.2 -11.5 1.7 -12.4 0.7 -0.4 0.8 -0.2 0.4 0.4 -0.4 0.7 -0.3 1.2 0.2 1.2 1.4 0 2.2 -2.5 2.2 -6.5 0 -2.4 0.8 -4.2 2.7 -5.9 5.5 -5.1 12.8 -4.2 15.7 1.9 2.1 4.3 2 4.8 -0.3 3.5 -4.5 -2.3 -8.4 -1.2 -13.8 4 -2.9 2.8 -5.3 5.7 -5.3 6.5 0 4.3 4.6 10.4 8 10.5 1.3 0 1.3 0.1 0 1 -1.9 1.2 -4.7 1.1 -8.2 -0.1z"/>
  <path d="M253.2 952.1 c1.4 -1.5 3 -4.2 3.7 -6 0.8 -1.7 1.7 -3.1 2.2 -3.1 2.5 0 -1 8 -4.4 10.3 -3.8 2.5 -4.2 2.1 -1.5 -1.2z"/>
  <path d="M261.6 916.5 c-1.5 -1.5 -1.8 -2.9 -3.1 -12.3 -0.7 -5.2 1.8 -11.4 7.1 -17.9 l3.5 -4.3 8.5 0 c4.7 0 9.4 0.4 10.4 1 4.7 2.5 7.3 14.1 4.6 20 -0.9 1.9 -1.3 2.4 -0.9 1 1.7 -5.9 1 -8.3 -3.2 -11.1 -5.2 -3.6 -10.2 -4.2 -15.4 -1.8 -3.6 1.6 -4.2 2.4 -5.6 7.3 -0.9 3.1 -2.1 5.8 -2.6 6.1 -1.4 0.9 -1.1 5.9 0.6 8.1 1.9 2.5 1.9 3.1 -0.4 4.4 -1.5 0.7 -2.3 0.6 -3.5 -0.5z"/>
  <path d="M170.3 866.4 c-0.6 -0.3 -2.1 -4.8 -3.4 -10 l-2.2 -9.4 2.2 -2.4 c1.3 -1.4 3.6 -3 5.2 -3.7 2.6 -1 3.2 -0.9 5.2 0.9 3.2 3 6.9 4.1 11.8 3.6 9.6 -1 12.1 -7.1 8.5 -21.4 -0.8 -3.6 -1.7 -10.1 -1.8 -14.5 -0.3 -7.5 -0.2 -8 1.8 -8.3 1.5 -0.2 3.1 0.9 5.5 4 l3.4 4.2 0.1 19.1 c0.2 20.2 0.5 22 4.9 24.9 2.2 1.4 3.2 1.5 6.1 0.6 2.7 -0.9 3.4 -1.7 3.5 -3.8 0 -1.5 0 -14.5 0 -29 0 -28.2 0.1 -28.9 4.7 -22.2 3.2 4.8 3.5 16.7 0.6 24.2 -1.8 4.5 -1.8 4.7 0 6.7 1.9 2.1 5.9 2.7 10.3 1.5 3.1 -0.9 5 -5.5 5.2 -13.2 0.1 -3.7 0.6 -7.1 1.1 -7.6 1.7 -1.7 2.3 6.6 1 13.9 -2 11.8 0.1 17.5 6.6 17.5 4 0 5.4 -2.1 5.4 -8.3 0 -5.6 1.5 -6.8 7.6 -6.5 2.7 0.1 6.9 -0.2 9.4 -0.6 4.5 -0.8 4.6 -0.7 6.7 3.2 2.4 4.1 1.7 6.2 -1.9 6.2 -2.4 0 -9.5 7.4 -10.3 10.8 -0.5 2.5 -1.4 3.1 -6.8 4.6 -3.4 1 -7.4 2.4 -9 3.2 -1.5 0.9 -3.5 1.4 -4.5 1.3 -0.9 -0.2 -2.6 0 -3.7 0.4 -1.1 0.3 -5.4 0.9 -9.5 1.2 -4.1 0.4 -8.6 1.3 -10 2 -1.4 0.7 -3.6 1.2 -5 1.1 -1.4 -0.1 -3.2 0.1 -4.1 0.5 -0.9 0.5 -3.2 1 -5.1 1.2 -1.9 0.2 -3.9 0.7 -4.4 1 -0.6 0.3 -2.6 0.2 -4.5 -0.2 -2.2 -0.5 -6.5 -0.1 -12.4 1.1 -10.7 2.2 -16.6 2.9 -18.2 2.2z"/>
  <path d="M305.8 851.2 c-5.3 -2.2 -5.7 -2.7 -6.3 -6.4 -0.4 -2.3 -1.8 -6.2 -3.1 -8.8 -1.3 -2.7 -2.4 -5.2 -2.4 -5.6 0 -0.5 -1.6 -4.1 -3.7 -8.1 -2.7 -5.3 -4.4 -7.5 -6.4 -8.2 -3 -1 -10.6 -0.8 -18.7 0.6 -9.3 1.7 -8.9 3.2 -8.4 -31.9 0.7 -38.2 0.7 -37.2 -0.1 -44.3 -1.3 -11.5 -1.9 -15 -2.7 -16 -0.5 -0.5 -0.8 -2.1 -0.8 -3.5 0 -1.4 -0.3 -4.5 -0.6 -7 -0.3 -2.5 -0.7 -9 -1 -14.5 -0.3 -5.5 -0.8 -14.8 -1.2 -20.7 -0.4 -7.1 -0.3 -10.8 0.3 -10.8 1.7 0 2.9 2.2 4.6 8 0.8 3 2.9 10.2 4.5 16 1.7 5.8 3.3 12.1 3.7 14 0.4 1.9 2.3 8 4.2 13.5 4.3 12.4 6.6 20.6 5.9 21.2 -0.7 0.8 2.2 6.2 5.5 10.3 1.6 1.9 2.9 4 2.9 4.6 0 0.6 2.2 3.5 5 6.4 2.7 2.8 5.2 6.1 5.6 7.3 0.4 1.2 0.9 2.4 1.3 2.7 3.5 2.8 11.7 16.4 20.9 34.7 1.3 2.5 3 5.3 3.8 6 0.8 0.8 1.7 2.6 2 4.1 0.3 1.5 1.4 4.3 2.4 6.2 2 3.8 2.8 13.5 1.5 18.4 -1 3.6 -5.1 11 -7 12.6 -2.4 2 -5.9 1.8 -11.7 -0.8z"/>
  <path d="M243.5 787.8 c-0.5 -1.4 -1.3 -8.7 -2.2 -19.3 -0.4 -4.8 -0.2 -6.7 0.5 -6 0.9 0.9 1.5 5 2.7 21.3 0.3 5 -0.1 6.6 -1 4z"/>
  <path d="M221.2 768.7 c-0.7 -0.9 -2.6 -1.8 -4 -2.2 -1.5 -0.3 -4.1 -1.4 -5.7 -2.5 -2.8 -1.9 -2.9 -2 -3.1 -12.2 -0.1 -5.7 -0.5 -13.7 -0.8 -17.8 -0.3 -4.1 -0.8 -10.9 -1.1 -15 -0.3 -4.1 -0.8 -9.3 -1 -11.5 -0.3 -2.2 -0.7 -6.5 -1 -9.5 -0.3 -3 -0.8 -7.7 -1.1 -10.3 -0.3 -2.7 -0.7 -6.1 -0.9 -7.5 -0.1 -1.5 -0.7 -6.5 -1.3 -11.2 -2.2 -16.4 -2.2 -16.7 -4.6 -36.9 -0.9 -7.4 -2 -16.2 -2.6 -19.5 -0.5 -3.4 -1.2 -8.6 -1.5 -11.6 -0.7 -7.4 -2.4 -19.4 -3.5 -25.5 -0.5 -2.7 -1.1 -7.2 -1.4 -10 -0.3 -2.7 -1 -8.4 -1.6 -12.5 -0.5 -4.1 -1.2 -9.1 -1.4 -11 -0.2 -1.9 -0.7 -5.5 -1 -8 -0.3 -2.5 -1 -8.1 -1.6 -12.5 -2.9 -24.6 -4.1 -33.6 -4.9 -39 -1.2 -7 -2.5 -18.7 -2.3 -19.7 0.1 -0.4 -0.3 -3.1 -0.8 -6 -0.8 -5 -1.3 -9.2 -2.5 -21.3 -1 -10.5 -1.5 -15.2 -2.5 -22.5 -1.4 -10.2 -1.9 -13.9 -2.4 -19.1 -0.3 -2.4 -1 -8.2 -1.6 -12.9 -0.6 -4.7 -1.5 -12.5 -2.1 -17.5 -0.6 -4.9 -1.2 -10.3 -1.4 -12 -0.2 -1.6 -0.9 -6.6 -1.4 -11 -5.4 -43.4 -12.5 -92.6 -13.6 -94.5 -0.2 -0.3 -0.6 -3 -1 -6 -0.3 -3 -1.7 -10.9 -3.1 -17.5 -1.3 -6.6 -2.7 -13.5 -2.9 -15.4 -0.3 -1.9 -1.8 -10.1 -3.5 -18.3 -2.3 -11.3 -2.8 -15.3 -2 -16.8 0.6 -1.1 0.8 -2 0.5 -2 -0.3 0 -0.1 -0.9 0.5 -2 1.5 -2.8 3.9 -2.5 5 0.6 0.6 1.4 1.1 8.1 1.1 14.8 0 6.8 0.5 12.9 1 13.7 1.9 3.1 5.1 -3.5 3.8 -8 -0.2 -0.7 0.1 -1.5 0.8 -1.8 1 -0.4 3 6.9 2.4 9.1 -0.1 0.5 0.7 3.9 1.7 7.5 1.1 3.6 2 7.3 2 8.1 0 0.8 1 6.2 2.2 12 1.2 5.8 2.4 13.4 2.6 17 0.2 3.6 1 12.4 1.9 19.5 0.9 7.2 1.7 15.9 2 19.5 0.2 3.6 1 10.8 1.9 16 0.9 5.2 1.8 13.3 2.1 18 0.8 13.1 1.6 19.3 2.8 21.5 0.6 1.2 1.1 10 1.3 22 0.1 11 0.7 23.6 1.4 28 1.6 10.9 2 14.6 2.5 24.5 0.2 4.7 0.6 9.5 0.9 10.8 0.3 1.2 0.6 5.7 0.7 10 0.1 4.2 0.5 8.4 0.9 9.2 0.4 0.8 1.1 4.9 1.4 9 1.2 14.8 1.7 19.6 2.7 24.2 1.2 5.1 1.7 8.3 2.3 14.3 0.3 2.2 0.8 6 1.1 8.5 0.4 2.5 0.8 5.5 0.9 6.7 0 1.2 0.4 2.4 0.8 2.8 0.4 0.4 0.4 2 0.1 3.6 -0.3 1.5 0 4.9 0.6 7.6 0.6 2.6 1.3 9.8 1.6 15.8 0.6 13.4 1.2 18.5 3.2 29.5 0.8 4.7 1.7 9.9 2 11.5 0.2 1.7 1.6 8.9 3 16 1.4 7.2 2.7 13.9 2.8 15 0.2 1.1 1.2 7.2 2.3 13.5 2 11.3 2.7 16.1 3.7 25 0.3 2.5 1 7.9 1.5 12 1 8 1.9 17.8 2 22.3 0 1.5 0.5 2.7 1.1 2.7 0.8 0 0.9 -2.1 0.5 -6.7 -0.3 -3.8 -0.8 -12.6 -1.1 -19.8 -0.4 -7.1 -1.5 -19.3 -2.6 -27 -1.1 -7.7 -2.2 -15.6 -2.5 -17.5 -0.3 -1.9 -1.5 -8.2 -2.8 -14 -2.1 -9.5 -3.1 -14.9 -4.2 -23.5 -0.2 -1.6 -0.6 -4.1 -0.9 -5.5 -0.3 -1.4 -0.7 -4.3 -1 -6.5 -0.3 -2.2 -0.7 -5.1 -1 -6.4 -0.2 -1.4 -0.7 -8.4 -1 -15.6 -0.2 -7.2 -1.4 -19.6 -2.6 -27.6 -1.2 -7.9 -2.3 -15.4 -2.4 -16.6 -0.2 -1.3 -0.6 -4 -0.9 -6 -0.9 -5.6 -1.5 -10.6 -2.6 -22.8 -0.6 -6 -1.2 -11.7 -1.5 -12.5 -0.2 -0.8 -0.7 -4.6 -1 -8.5 -0.4 -3.8 -0.9 -8.6 -1.1 -10.5 -0.3 -1.9 -0.7 -9.6 -1 -17 -0.3 -7.4 -1.2 -18.7 -2.1 -25 -0.9 -6.4 -1.6 -19.9 -1.7 -30.5 -0.1 -12.3 -0.6 -20 -1.4 -21.9 -1.1 -2.5 -1.3 -6.9 -1 -20.6 0.1 -3 -0.8 -8.4 -2.9 -16.5 -0.8 -3.3 -1.8 -10.7 -2.3 -16.5 -0.4 -5.8 -1.7 -16.6 -2.8 -24 -1.1 -7.4 -2 -16.9 -1.9 -21 0 -4.2 -0.7 -10 -1.6 -13 -0.9 -3.1 -1.9 -8.3 -2.2 -11.5 -0.4 -3.3 -1 -6.9 -1.5 -8 -1.1 -2.7 -3 -10.3 -3.5 -14 -0.2 -1.6 -0.7 -5.5 -1.1 -8.5 -0.3 -3 -1.4 -8 -2.4 -11.1 -0.9 -3.1 -1.7 -6.9 -1.6 -8.5 0.1 -2.5 0.5 -2.9 3.3 -3.2 2.4 -0.2 3.3 0.1 3.8 1.7 0.3 1.2 1.3 2.1 2.1 2.1 0.8 0 1.8 1 2.3 2.3 1.9 4.9 4.3 14.3 4.3 16.7 0 1.4 0.6 3.7 1.4 5.1 0.7 1.4 1.5 5.5 1.8 9 0.2 3.5 1.2 8.6 2.1 11.2 0.9 2.7 1.4 5.5 1.1 6.2 -0.2 0.7 0 1.7 0.5 2.2 0.5 0.5 1.1 5.2 1.4 10.4 0.3 5.1 0.9 10.9 1.4 12.8 0.6 1.8 1 3.6 0.9 4 -0.1 0.3 0.1 2.6 0.5 5.1 0.4 2.5 0.9 7.9 1.2 12 0.3 4.1 0.7 8.9 0.9 10.5 0.2 1.7 0.7 8.9 1.1 16 0.4 7.2 0.9 13.2 1 13.5 0.2 0.3 0.6 6.1 1 13 0.4 6.9 0.9 12.8 1.1 13.1 0.2 0.4 0.6 6.2 0.9 13 0.3 6.8 1 16.7 1.5 21.9 0.5 5.2 1.2 14.7 1.5 21 0.9 19.2 1.6 32.3 2 36.5 0.3 2.2 0.7 7.2 1 11 0.3 3.9 1.2 13.1 2.1 20.5 0.8 7.4 1.7 16 1.9 19 0.7 8.5 1.5 15.3 2 17 0.3 0.8 0.7 5.3 1 10 0.8 12.3 1.3 17.6 2.5 26 1.7 11.5 1.8 11.7 2.9 24.8 0.6 6.8 1.5 14 2 16 0.5 2 1.2 7.1 1.5 11.3 0.4 4.3 1.3 10.8 2.1 14.6 0.8 3.7 1.7 12.6 2 19.7 0.2 7.1 0.9 14.5 1.4 16.5 0.5 2 1.2 5.6 1.4 8.1 0.3 2.5 1.1 6.7 1.7 9.5 0.6 2.7 1 6.3 0.9 8 -0.1 1.6 0.1 3.7 0.4 4.5 0.3 0.8 0.8 4 1.1 7 0.8 6.8 1.5 11.7 2.2 15 0.3 1.4 1.5 9.9 2.6 19 1.1 9.1 2.1 17.4 2.3 18.5 0.3 2.8 1.4 14 1.9 19.7 0.2 2.5 -0.1 7.9 -0.6 12 -0.6 4 -1.3 10.4 -1.7 14.2 -0.5 5.9 -0.8 6.7 -1.9 5.3z"/>
  <path d="M193.6 720.8 c-0.2 -1.3 -0.9 -8.2 -1.5 -15.3 -0.6 -7.2 -2.7 -24.3 -4.7 -38 -1.9 -13.8 -3.8 -26.8 -4 -29 -0.3 -2.2 -1.2 -8.5 -2.1 -14 -0.8 -5.5 -1.7 -12 -1.9 -14.5 -0.3 -2.5 -0.6 -5 -0.9 -5.7 -0.7 -2 1.1 -2.4 2.8 -0.5 0.9 0.9 2 3 2.6 4.5 1.4 3.7 4.2 24 4.7 34.2 0.2 4.4 1.1 11.8 1.9 16.5 0.9 4.7 1.7 12.1 2 16.5 0.4 10 1.6 20.5 2.5 22.5 0.1 0.3 0.1 2.3 0.1 4.5 -0.1 2.2 -0.2 7.7 -0.2 12.3 0 8.1 -0.5 10.3 -1.3 6z"/>
  <path d="M236.2 714 c-1.6 -5.2 -4.3 -22.2 -4.7 -30.4 -0.3 -3.9 -0.9 -11.4 -1.5 -16.6 -0.6 -5.2 -1.3 -11.7 -1.6 -14.4 -0.3 -2.7 -0.7 -6.3 -0.9 -8 -0.2 -1.7 -0.7 -7.4 -1 -12.6 -0.3 -5.2 -1 -10.9 -1.5 -12.7 -0.4 -1.8 -0.8 -14.6 -0.7 -28.5 0 -13.9 -0.2 -30 -0.6 -35.8 -0.4 -5.8 -0.9 -19 -1.2 -29.5 -0.3 -10.4 -0.7 -23 -1 -28 -0.3 -4.9 -0.7 -13.7 -1 -19.3 -0.4 -6.1 -0.2 -10.1 0.3 -9.8 0.9 0.5 2 8.2 2.8 19.1 0.4 5.5 1.8 16.4 2.8 22.5 0.2 1.4 0.7 6.1 1.1 10.5 0.3 4.4 0.8 9.4 1 11 0.2 1.7 0.6 5.9 0.9 9.5 0.4 3.6 0.8 7.4 1 8.5 0.2 1.1 0.7 6.1 1.1 11 0.3 5 0.9 11.2 1.1 14 1.4 15.1 1.4 20.1 -0.2 23.4 -1.4 3 -1.4 3.7 -0.1 7.5 1.3 3.4 2.9 11.1 3.2 15.1 0 0.6 0.3 1.5 0.7 2 0.5 0.9 2.7 26.1 2.6 30.5 0 0.8 0.4 9.4 0.9 19 1.1 23.6 1 41 -0.3 41.8 -0.6 0.4 -1.3 1.4 -1.6 2.2 -0.3 0.9 -0.9 0.2 -1.6 -2z"/>
  <path d="M225.6 679.8 c-0.4 -3.5 -1.1 -8.1 -1.6 -10.3 -0.5 -2.2 -2.4 -14.1 -4.1 -26.5 -1.7 -12.4 -3.2 -22.7 -3.4 -23 -0.2 -0.3 -0.6 -3.3 -0.9 -6.5 -0.4 -5 -1.5 -13.6 -4.1 -33 -0.2 -1.6 -0.6 -5.5 -0.9 -8.5 -0.3 -3 -1 -8.8 -1.6 -12.8 -1.1 -7.7 -1.6 -12.3 -2.5 -21.2 -1.1 -11.2 -3.6 -34.6 -3.9 -37.5 -0.2 -1.6 -0.7 -6.6 -1 -11 -0.4 -4.4 -1.1 -11.1 -1.6 -15 -0.5 -3.8 -1.2 -10.4 -1.5 -14.5 -0.3 -4.1 -0.7 -9.5 -1 -12 -0.3 -2.5 -0.7 -8.5 -1 -13.4 -0.3 -4.9 -0.7 -9.2 -0.9 -9.5 -0.2 -0.3 -0.7 -6.4 -1 -13.6 -0.4 -7.1 -0.9 -14.6 -1.2 -16.5 -0.2 -1.9 -0.6 -7.8 -0.9 -13 -0.2 -5.2 -0.7 -12.9 -1 -17 -0.3 -4.1 -0.7 -11.5 -1 -16.5 -0.2 -4.9 -0.6 -12.1 -0.9 -16 -0.5 -6.3 -1.4 -19.8 -3.1 -48.5 -1.8 -28.9 -6.8 -67.4 -13.1 -101 -0.9 -4.7 -1.9 -10.1 -2.1 -12 -0.3 -1.9 -1.1 -6 -1.9 -9 -1.7 -6.8 -1.7 -7.3 0 -6.7 0.8 0.3 2 0 2.6 -0.8 0.6 -0.7 2 -1.5 3 -1.8 2.4 -0.6 3.5 1.1 4.5 7.1 0.4 2.3 1.1 4.2 1.6 4.2 0.5 0 0.9 -0.4 0.9 -1 0 -0.5 0.3 -1 0.8 -1 0.8 0 4.3 16.2 4.8 22 0.1 1.9 1.4 8.7 2.9 15 1.5 6.3 2.8 13.7 3 16.3 0.2 2.6 0.6 6.7 0.9 9 0.3 2.3 0.8 6.8 1.1 10.1 0.3 3.2 1.4 9.5 2.5 14 1 4.4 2.2 11.7 2.5 16.1 0.3 4.4 0.7 9.1 0.9 10.5 1.6 11.1 2.7 21.7 2.5 22.5 -0.2 0.8 0.8 11.3 1.7 16.5 0.5 3.1 2.6 21.7 3 26.5 0.2 2.8 0.6 6.8 0.9 9 0.2 2.2 0.7 12.1 1 22 0.3 9.9 0.8 20.3 1 23 0.3 2.8 0.7 6.6 0.9 8.5 0.3 1.9 0.7 7.1 1 11.5 0.4 4.4 0.9 11.2 1.2 15 0.3 3.9 0.7 11.7 0.9 17.5 0.2 5.8 0.6 15 0.9 20.5 1.7 31.2 2.8 64.9 2.4 79 0 1.1 0.3 6.1 0.7 11 0.5 5 0.8 15.5 0.7 23.5 -0.3 23.7 -0.2 29 0.9 38.5 0.6 5 1 10.6 1.1 12.5 0 1.9 0.4 6.2 0.8 9.5 1.3 9 2.3 18.4 3.5 34.5 0.4 4.7 0.9 8.8 1.2 9.3 0.2 0.4 0 0.7 -0.5 0.7 -0.6 0 -1.3 -2.8 -1.6 -6.2z"/>
  <path d="M177.2 590.8 c-0.6 -0.7 -1.3 -4 -1.7 -7.3 -0.3 -3.3 -1 -8.9 -1.5 -12.5 -0.9 -6.4 -2 -16.3 -2.5 -23 -0.1 -1.9 -0.5 -6.4 -0.8 -10 -0.4 -3.6 -0.9 -9.9 -1.2 -14 -0.3 -4.1 -0.8 -8.8 -1 -10.5 -0.2 -1.6 -0.7 -6.4 -1 -10.5 -0.5 -6.9 -1 -11.6 -2 -21 -0.5 -4.8 -1.3 -14.1 -2 -22.5 -0.5 -5.5 -4.2 -42.3 -4.6 -45.3 -0.1 -0.4 0 -1.6 0.1 -2.7 0.3 -2.8 2.8 11.1 4 22.5 0.5 5.2 1.4 13.3 2.1 18 0.6 4.7 1.1 9.2 1.1 10 0.1 0.8 0.7 5.1 1.5 9.5 0.8 4.4 1.6 10.9 1.8 14.5 0.3 3.6 0.9 9.2 1.5 12.5 0.5 3.3 1.2 9.7 1.5 14.2 0.3 4.6 0.9 9.4 1.4 10.6 0.5 1.3 1.2 7.8 1.6 14.3 0.4 6.5 1.8 17.1 3.2 23.4 3.1 14.3 3.6 27.4 1.2 29.6 -1.3 1.2 -1.8 1.2 -2.7 0.2z"/>
  <path d="M200.5 217.8 c-0.4 -2.9 -0.9 -6.9 -1.1 -8.8 -0.2 -1.9 -0.6 -4.6 -0.9 -6 -0.3 -1.4 -0.7 -3.6 -1 -5 -0.2 -1.4 -1.1 -5.2 -1.9 -8.5 -0.8 -3.3 -2.6 -11.2 -4 -17.5 -1.4 -6.4 -3.2 -13.2 -4.1 -15.2 -1.9 -4.7 -1.9 -5.1 0.4 -4.3 1.6 0.5 1.9 -0.2 2.5 -4.5 0.5 -4.1 1 -5 2.6 -5 1.2 0 2.1 0.7 2.2 1.8 0.1 0.9 0.3 3.1 0.6 4.7 0.2 1.7 0.5 8.9 0.6 16 0.3 12.5 2 26.4 3.6 29.5 0.4 0.8 1 6.5 1.4 12.5 0.3 6.1 0.9 12 1.2 13.3 0.4 1.2 0.2 2.2 -0.4 2.2 -0.5 0 -1.3 -2.4 -1.7 -5.2z"/>
  <path d="M132.8 151.3 c-0.6 -1.6 -1.2 -5.8 -1.3 -9.6 -0.3 -6.1 -0.7 -7.2 -4.2 -12 -3 -3.9 -4 -6.3 -4.2 -9.6 -0.1 -2.4 -0.6 -5.1 -1 -6 -1.7 -3 -1.7 -10.6 -0.1 -9.6 2.5 1.6 1.9 -2.7 -0.9 -6.2 -2.1 -2.7 -3.9 -7 -6 -14.8 -3.9 -14.6 -4.7 -19 -3.2 -18.1 0.6 0.4 1.1 1.3 1.1 1.9 0 0.7 0.9 3 2 5.2 1.1 2.1 2.5 5.4 3.1 7.4 0.6 2 1.5 4.1 1.9 4.6 0.4 0.6 1.7 3.5 2.8 6.5 1.1 3 2.7 6.9 3.6 8.5 0.9 1.7 1.6 3.7 1.6 4.6 0 0.8 1.1 3.8 2.5 6.5 1.4 2.7 2.5 5.4 2.5 5.9 0 0.6 0.9 2.8 2 4.9 1 2.2 1.7 4.3 1.4 4.7 -0.3 0.5 0 0.9 0.6 0.9 0.7 0 1 0.7 0.6 1.5 -0.3 0.9 0 1.5 0.8 1.5 0.8 0 1.6 1 1.9 2.3 0.6 2.1 0.6 2.1 -0.9 0.2 -1.3 -1.8 -1.4 -1.7 -0.8 1.3 0.4 2 0.2 4.3 -0.6 5.8 -1 1.9 -1.1 2.9 -0.2 4.7 1.2 2.2 1.6 4.8 1.4 8 -0.3 2.9 -5 2.2 -6.4 -1z"/>
  <path d="M148.5 144.4 c-1 -3.3 -2.2 -6.8 -2.6 -7.9 -0.9 -2 -1.4 -3.9 -2.8 -10.5 -0.8 -4 -0.5 -20.7 0.4 -25.9 l0.7 -3.5 1.3 3 c0.8 1.6 2.3 6.3 3.4 10.4 1 4.1 2.7 10 3.6 13 0.9 3 1.7 6.2 1.7 7 0 0.8 0.5 2.1 1.1 2.8 0.8 1 0.5 1.4 -0.9 1.8 -1.6 0.4 -1.9 1.5 -2.1 7.1 -0.2 9 -1.7 10 -3.8 2.7z"/>
  <path d="M164.3 140.8 c-0.5 -0.7 -1.3 -2.1 -1.6 -3.1 -0.4 -1.1 -1.6 -2.1 -2.7 -2.4 -1.2 -0.3 -2.3 -1.7 -2.6 -3.2 -0.6 -2.9 -5.3 -19.7 -6.2 -22.1 -0.3 -0.8 -0.6 -1.9 -0.7 -2.5 -1.2 -4.9 -2.8 -10.2 -3.5 -11 -1.7 -2.2 -2.1 -10.7 -1 -24 1.6 -19.8 8 -58.5 10 -61 0.6 -0.7 2.1 -1 3.3 -0.7 2.1 0.5 2.1 0.4 0.5 -1.5 -1 -1.1 -1.8 -3.6 -1.8 -5.6 l0 -3.7 4.9 0 4.8 0 0.5 5.7 c0.4 5.5 0.3 14.5 -0.7 37.8 -0.2 5.7 0.1 10.5 0.6 11.1 0.6 0.8 0.6 1.4 0.1 1.8 -0.6 0.3 -0.8 10.2 -0.5 24.3 0.3 13.1 0.5 24.5 0.4 25.3 -0.8 16.1 -0.7 18 0.8 18 0.3 0 0.7 -5.5 0.8 -12.2 0.1 -7.5 0.6 -12.4 1.3 -12.6 1.2 -0.4 1.4 -4.9 0.1 -5.6 -0.5 -0.3 -0.6 -2.6 -0.3 -5.1 0.3 -3.2 0.1 -4.5 -0.8 -4.5 -0.8 0 -1 -0.7 -0.5 -1.7 0.4 -1 0.9 -5.2 1.2 -9.3 0.2 -4.1 0.9 -8.1 1.5 -8.7 0.7 -0.9 0.7 -1.3 -0.1 -1.3 -1.4 0 -1.4 -2 0.2 -5.3 1.8 -4.1 2.4 -3.3 1.9 2.7 -0.2 3.1 0.3 8.4 1.3 12.7 1.3 5.7 1.8 13.9 2.2 35.9 l0.4 28.5 -3.3 2.3 -3.3 2.2 -0.9 -6 c-0.5 -3.3 -1.3 -6 -1.8 -6 -0.5 0 -0.6 0.4 -0.3 1 0.3 0.5 0.1 1.8 -0.4 2.8 -0.6 1.1 -1.2 3.1 -1.5 4.7 -0.6 3.5 -1.1 3.9 -2.3 2.3z"/>
  <path d="M185.4 124.4 c0.6 -7.7 0.4 -9.5 -0.6 -9.2 -0.7 0.3 -1.7 2.8 -2.2 5.6 -0.5 2.9 -1.2 5.2 -1.6 5.2 -0.9 0 -1 -28.7 -0.1 -31 0.4 -1.1 0.7 -0.8 1.2 1 0.4 1.4 0.5 -1.2 0.3 -5.8 -0.9 -13.5 -1.1 -55.2 -0.3 -55.2 0.6 0 2.7 13.7 3.5 23 0.2 2.5 0.5 12.6 0.5 22.4 0.2 15.3 0.4 17.7 1.5 16.1 0.8 -1 1.4 -2.8 1.4 -3.9 0 -1.2 0.4 -2.7 0.9 -3.5 1 -1.5 1.6 2.7 2.6 17.9 0.3 4.7 0.8 11.5 1.1 15.2 0.5 6.6 0.5 6.7 -2.9 9.2 -5.6 4.3 -6 3.8 -5.3 -7z"/>
  <path d="M138 112.4 c0 -1 -0.7 -3.2 -1.5 -4.8 -1.5 -2.7 -2.8 -6.3 -6.6 -17.5 -1.1 -3 -2.3 -5.9 -2.8 -6.5 -0.4 -0.6 -1.8 -3.8 -3 -7 -1.2 -3.3 -3.3 -8.5 -4.7 -11.5 -1.4 -3.1 -3.1 -6.9 -3.8 -8.6 -0.7 -1.6 -2.4 -5.4 -3.7 -8.4 -1.3 -3 -2.4 -5.7 -2.5 -6 0 -0.3 -1.3 -3.3 -2.9 -6.5 -2.4 -5 -2.6 -6.2 -1.5 -7.9 1.1 -1.8 0.9 -2.3 -1.1 -3.8 -1.3 -1 -2.7 -1.9 -3 -1.9 -0.6 0 -2.1 -4.1 -2.3 -6.3 -0.1 -0.4 -0.6 -1.1 -1.3 -1.5 -0.7 -0.4 -1.5 -3.8 -1.9 -7.5 l-0.7 -6.7 4.2 0 c4.3 0 7.1 1.7 7.1 4.3 0 0.8 0.6 2 1.4 2.6 0.7 0.6 1.9 3.3 2.6 5.9 1.6 6.2 3.1 10.2 3.9 10.2 0.9 0 10.1 20.2 10.1 22.1 0 0.6 1.1 3.5 2.5 6.4 1.3 3 2.7 6.7 3.1 8.2 0.4 1.6 1 3.3 1.4 3.8 0.4 0.6 2.2 5.7 3.9 11.5 1.8 5.8 3.7 11.4 4.2 12.5 1 2.1 0.5 25.2 -0.6 26.3 -0.3 0.3 -0.5 -0.3 -0.5 -1.4z"/>
  <path d="M138.2 79 c-1.4 -4.8 -1.5 -7.5 0 -4 1.8 4.3 2.7 8 2 8 -0.4 0 -1.3 -1.8 -2 -4z"/>
  <path d="M140.6 73.3 c-0.4 -1.6 -1.5 -5 -2.5 -7.8 -1 -2.7 -3.3 -9 -5.1 -14 -1.7 -4.9 -5 -13.5 -7.2 -19 -2.2 -5.5 -4.6 -11.6 -5.3 -13.5 -0.7 -1.9 -2.4 -6.5 -3.9 -10.3 -1.4 -3.7 -2.6 -7.2 -2.6 -7.7 0 -0.6 7.1 -1 18.5 -1 l18.5 0 -0.6 2.8 c-0.3 1.5 -0.8 3.4 -1.1 4.2 -0.3 0.8 -0.6 3.8 -0.7 6.5 -0.2 2.8 -1.1 10 -2 16 -2 13.7 -2.2 14.8 -3.7 32.3 -0.6 7.8 -1.3 14.2 -1.4 14.2 -0.2 0 -0.6 -1.2 -0.9 -2.7z"/>
 </g>
</svg>