<?xml version="1.0" encoding="utf-8"?>
<!DOCTYPE svg PUBLIC "-//W3C//DTD SVG 20010904//EN" "http://www.w3.org/TR/2001/REC-SVG-20010904/DTD/svg10.dtd">
<svg version="1.0" xmlns="http://www.w3.org/2000/svg" width="484px" height="439px" viewBox="0 0 484 439" preserveAspectRatio="xMidYMid meet">
 <g fill="#000000">
  <path d="M276.5 437.1 c-5.1 -1.3 -12.5 -4.9 -21.9 -10.9 -8.1 -5.1 -9.6 -5.7 -14.1 -5.6 -6.6 0.2 -21.5 4 -40.4 10.4 -17.7 6 -25.1 6.8 -33.3 3.7 -5.3 -2 -12.6 -9.4 -19.3 -19.4 -5.3 -7.9 -10.2 -13.1 -15 -15.6 -5.6 -2.9 -16.9 -2.6 -31.1 0.8 l-10.8 2.7 -4.3 -2.3 c-4.7 -2.6 -7.3 -7.4 -7.3 -13.4 0 -3.5 3.3 -13.4 5.6 -17 0.7 -1.1 2.2 -4.8 3.2 -8.2 1.1 -3.4 2.9 -7.3 4 -8.8 1.1 -1.4 3.1 -5.6 4.3 -9.3 1.2 -3.7 2.5 -7.1 2.9 -7.7 1.1 -1.5 5 -14.1 5 -16.2 0 -1 1.1 -4.2 2.5 -7.1 1.4 -3 2.5 -6.9 2.5 -8.8 0 -1.9 1.2 -5.8 2.8 -8.6 7.3 -13.6 6.6 -11.9 13.1 -30.8 1.9 -5.2 3.7 -9.9 4.2 -10.4 0.5 -0.6 0.9 -1.6 0.9 -2.4 0 -0.8 1.3 -4.2 2.8 -7.6 2.7 -6 4 -9.3 8.7 -22.6 3.6 -10.2 8.6 -26.2 9.1 -29 0.3 -1.4 0.9 -4.2 1.4 -6.4 0.9 -4.3 -1.1 -10 -3.9 -11.1 -0.9 -0.4 -7.9 -0.6 -15.5 -0.6 -13 0 -19.4 1 -22.3 3.3 -1.8 1.4 -4.4 0.2 -3.7 -1.7 0.6 -1.4 -0.2 -1.5 -6.2 -0.9 -15 1.4 -21.1 4.5 -35.1 17.9 -10.7 10.2 -13 11.7 -19.6 12.9 -3.1 0.6 -4.1 0.3 -6.2 -1.8 -2.1 -2.1 -2.5 -3.4 -2.5 -8.7 0 -3.5 0.5 -7.7 1.2 -9.6 1.1 -2.9 1 -3.5 -1 -5.6 -2.9 -3.1 -15.9 -6.7 -23.9 -6.7 -6.6 0 -12.3 -1.6 -12.3 -3.4 0 -3 5 -6.9 11.3 -9 0.9 -0.3 2.4 -2.1 3.3 -3.9 1.6 -3.3 1.5 -3.6 -0.4 -6.3 -3.4 -4.8 -3.7 -8.7 -0.8 -12 2.4 -2.9 2.5 -2.9 11.3 -2.4 11.6 0.6 22.6 0.5 34.8 -0.3 5.5 -0.4 11.1 -0.7 12.5 -0.7 1.4 0.1 5 0.1 8 0.2 3 0 9.3 -0.5 14 -1.1 4.7 -0.7 9.2 -1.2 10 -1.3 4.4 -0.2 18.5 -3.3 25.2 -5.5 11.8 -3.9 18.9 -10.6 29.6 -28.1 1.7 -2.9 3.2 -5.6 3.2 -5.9 0 -0.2 1.4 -2.6 3.2 -5.1 6.2 -9.2 6.8 -10.1 6.8 -10.9 0 -0.4 1.2 -1.9 2.5 -3.2 1.4 -1.3 2.5 -2.7 2.5 -3.2 0 -1.4 3.6 -6.4 9.7 -13.6 2.9 -3.3 5.3 -6.4 5.3 -6.7 0 -1.2 15.4 -18.9 20.5 -23.5 2.7 -2.5 6.5 -6.3 8.5 -8.5 4.7 -5.2 21.5 -16.1 27 -17.6 4.5 -1.2 11.9 -0.6 15.5 1.2 7.7 4.1 19.6 19.1 28.2 35.7 6.6 12.6 16.6 41.2 18.1 51.5 0.7 4.6 1.1 5.3 4.7 7.3 3.9 2.1 5.2 2.2 39.5 2.6 19.5 0.2 38.7 0 42.5 -0.5 3.9 -0.5 9.3 -1.1 12 -1.4 4.9 -0.6 6.8 -1.8 9.1 -6 1.8 -3.1 8.1 -5.6 12.4 -4.9 6.5 1.1 11.8 7.4 11.1 13.3 -0.3 2.8 2.3 8.6 4.7 10.4 4 3 5 5.9 3.6 11.2 -1.8 6.9 -3.4 8 -19.4 14.1 -1.9 0.7 -6.7 2.3 -10.7 3.5 -10.8 3.3 -10.8 3.4 -7.3 10.5 2.2 4.5 3 7.4 3 11.7 0 5.1 -0.3 5.9 -3.1 8.2 -3.6 3 -3 3 -9.4 1.2 -7.2 -1.9 -10.5 -3.8 -18.2 -10.6 -7 -6.1 -10.7 -7.4 -13.5 -4.7 -0.7 0.6 -2.6 1.7 -4.3 2.2 -1.9 0.7 -4.3 3 -6.7 6.7 -2.4 3.6 -5.1 6.3 -7.4 7.4 -2 0.9 -4.1 2.5 -4.7 3.6 -0.7 1 -1.6 1.8 -2.2 1.8 -3.1 0 -7.3 11.9 -8.1 22.5 -0.3 3.9 -1.2 10.4 -2.2 14.5 -0.9 4.1 -1.7 12.7 -1.8 19 -0.3 16.6 -1.1 28.5 -2.4 36.5 -1.3 8.1 -0.6 29.9 1.5 48 0.8 6.6 1.5 15.8 1.6 20.5 0.2 23.8 -0.2 43.1 -1 48.5 -0.6 3.3 -1.7 10.7 -2.5 16.5 -1.3 9.4 -1.8 10.7 -4.3 12.8 -5.3 4.4 -20.8 14.7 -25.4 16.8 -8.2 3.9 -18.2 5.2 -25.4 3.5z m-90.5 -25.1 c3.8 0 5.2 0.5 6.3 2 1.3 1.8 1.5 1.9 2.1 0.5 0.3 -0.9 0.6 -2.8 0.6 -4.1 0 -2 0.5 -2.4 3 -2.4 3.1 0 7 -2.6 7 -4.7 0 -0.7 1.1 -1.5 2.5 -1.9 1.5 -0.4 2.5 -1.3 2.5 -2.4 0 -1.2 1 -2.1 3.1 -2.5 4.1 -0.9 9.9 0.2 9.9 2 0 0.8 0.7 1.1 2 0.8 2.7 -0.7 2.5 -3.1 -0.2 -3.5 -2 -0.3 -2.3 -1 -2.6 -5.5 -0.3 -4.6 -0.1 -5.2 2 -5.8 5.6 -1.6 7.8 -2.8 7.8 -4.5 0 -1.1 -1 -2 -3 -2.3 -2.9 -0.6 -3 -0.8 -3 -6.1 0 -5.8 0.7 -6.6 6 -6.6 1.6 0 4 -0.5 5.4 -1.1 2.2 -1 2.3 -1.4 1 -2.6 -0.8 -0.8 -1.4 -2.4 -1.4 -3.6 0 -1.2 -0.7 -3.1 -1.5 -4.1 -2 -2.6 -1.9 -8.5 0.2 -10.8 1.1 -1.2 3 -1.8 6 -1.8 3 0 4.5 -0.5 4.9 -1.5 0.4 -1 2.1 -1.5 5.3 -1.5 4.4 0 4.8 0.2 6 3.3 0.8 1.8 2.6 3.9 4.4 4.8 2.7 1.3 3.2 2.2 3.5 5.8 0.3 3.9 0.1 4.3 -2.5 5.3 -2.5 1 -2.8 1.5 -2.5 4.6 0.3 2.5 0 3.9 -1.2 4.8 -1.5 1 -1.5 1.2 -0.1 1.8 1.7 0.6 2.1 7.1 0.4 8.1 -0.6 0.5 0.1 1.9 2 3.7 2.5 2.5 3.1 3.8 3.1 7.4 0 3.8 -0.3 4.4 -2.5 5 -2.2 0.5 -2.5 1.2 -2.5 4.9 0 2.4 -0.4 4.7 -1 5 -0.5 0.3 -1 1.7 -1 3.1 0 1.9 1.5 3.4 7.3 7.1 6.1 4 13.9 7.3 16.9 7.3 0.4 0 0.8 -1.1 0.8 -2.5 0 -3.2 3.1 -4.5 10.7 -4.5 4.6 0 5.6 0.3 6 2 0.8 3 2.3 1.3 2.3 -2.5 0 -1.9 0.5 -3.7 1 -4 1.8 -1.1 1 -3.4 -1.2 -3.7 -2 -0.3 -2.3 -1 -2.6 -5 -0.3 -4.6 -0.3 -4.7 2.9 -5 3.1 -0.3 3.4 -0.6 4.4 -5.8 0.9 -5.2 1.2 -5.5 4.3 -5.8 3.3 -0.3 3.9 -1.1 2.3 -2.8 -0.9 -0.8 -1.9 -8.5 -2.4 -18.4 l-0.2 -4.5 3.8 -0.3 c3.8 -0.3 5.3 -2.2 1.8 -2.2 -3 0 -3.3 -1.2 -2.5 -11.4 0.6 -8.5 0.9 -9.5 3 -10.7 3.6 -1.9 3.1 -4.7 -0.8 -5.1 -3.3 -0.3 -3.3 -0.4 -3.6 -6 -0.2 -4.3 0 -5.8 1 -5.8 1 0 1.2 -1.5 1 -5.8 -0.3 -4.4 0 -6.3 1.2 -7.5 1.8 -1.8 2.1 -4.3 0.6 -5.2 -1.3 -0.8 -1.3 -9.2 0 -10 0.7 -0.4 0.7 -1.2 0 -2.5 -1.3 -2.4 -1.3 -8.7 0 -9.5 0.6 -0.3 1 -2.1 1 -4 0 -1.9 -0.4 -3.7 -1 -4 -1.6 -1 -1.3 -10.5 0.4 -10.5 2.5 0 3.6 -10.4 1.1 -11.4 -2 -0.7 -2.1 -9.2 -0.1 -10.3 1 -0.6 1.6 -3.5 1.9 -9.8 0.6 -10.8 2.4 -30.2 3.3 -36.7 0.6 -4.1 1.2 -5.1 4.1 -6.9 5 -3.1 13.3 -16.9 10.2 -16.9 -0.5 0 -0.9 -0.8 -0.9 -1.8 0 -0.9 -1 -2.2 -2.2 -2.7 -3.4 -1.5 -3.8 -8.7 -0.6 -10.9 1.2 -0.9 3.7 -1.6 5.4 -1.6 1.7 0 4.3 -0.9 5.6 -2 1.5 -1.1 5 -2.2 8.4 -2.6 3.3 -0.4 6.8 -1.3 7.9 -2 3.8 -2.7 9.7 -1.7 15.3 2.3 2.8 2.1 7.7 5.5 10.9 7.5 3.2 2.1 8.1 5.6 10.8 7.8 8.7 6.9 11.8 4.7 3.8 -2.8 -2.7 -2.4 -5.6 -5.6 -6.5 -7 -2.5 -3.8 -2.3 -9.5 0.5 -12.6 2.8 -3.1 12.3 -7.1 20.7 -8.6 11 -2 10.6 -3.1 -1 -2.8 l-10.5 0.3 -0.3 -3.3 c-0.4 -4.2 0.8 -5.7 6.1 -7.1 4.6 -1.3 16.5 -11.1 13.5 -11.1 -0.9 0 -3 1.1 -4.6 2.5 -1.7 1.4 -3.6 2.5 -4.3 2.5 -0.7 0 -2.9 1.1 -5 2.5 -3.6 2.5 -4.1 2.6 -31.5 3.7 -25.6 1 -28 1.2 -29.6 3 -1.2 1.4 -2.7 1.9 -5 1.7 -1.8 -0.2 -3.9 0.1 -4.7 0.5 -1.6 1 -15.4 -0.2 -16.1 -1.4 -0.3 -0.5 -3.4 -1.3 -6.8 -1.9 -4.8 -0.8 -7.2 -1.8 -10.6 -4.5 -4.3 -3.6 -7 -4.4 -8.1 -2.6 -0.9 1.5 -7.1 1.2 -8.4 -0.4 -0.7 -0.8 -1.1 -3 -0.9 -4.8 0.3 -3.1 0.5 -3.3 4.6 -3.6 4.2 -0.3 4.9 -1.2 3.6 -4.6 -0.5 -1.2 -2 -1.6 -6 -1.6 l-5.4 0 0 -6 c0 -4.7 -0.3 -6 -1.5 -6 -1 0 -1.5 -1 -1.5 -3.2 0 -4.8 1 -7.8 2.6 -7.8 0.9 0 1.4 -1.1 1.4 -2.9 0 -2.8 -0.3 -3 -4.2 -3.3 l-4.3 -0.3 -0.3 -4.7 c-0.2 -3.7 0.1 -4.9 1.7 -6 l2.1 -1.5 -2 -4.1 c-1.1 -2.3 -2 -4.6 -2 -5.2 0 -0.5 -0.9 -1 -2 -1 -2.4 0 -4 -2.8 -4 -6.9 0 -1.7 -1 -4.6 -2.2 -6.5 -2.2 -3.3 -2.3 -3.3 -3.3 -1.2 -1.2 2.4 -6.8 3.4 -9.1 1.5 -0.8 -0.7 -1.4 -2.9 -1.4 -5.5 0 -3.9 0.2 -4.3 2.8 -4.6 l2.7 -0.3 -3.4 -1.8 c-3.3 -1.9 -5.7 -1.8 -11.1 0.4 -2.3 0.8 -2.5 1.4 -2.2 5.4 0.3 2.6 -0.1 5.2 -0.8 6 -1.9 2.3 -7.9 1.9 -10 -0.7 -1.8 -2.2 -1.8 -2.3 -3.9 -0.4 -1.5 1.3 -2.1 3.1 -2.1 5.9 0 5.1 -2.3 7.7 -6.7 7.7 -3.1 0 -3.3 0.2 -3.3 3.4 0 4.2 -1.4 5.4 -7 5.8 -4.4 0.3 -4.5 0.4 -4.8 4 -0.2 2 -1 4.2 -1.8 4.8 -0.8 0.7 -1.4 2.6 -1.4 4.2 0 3 -1.9 5.8 -3.9 5.8 -0.6 0 -1.1 1.3 -1.1 2.9 0 3.2 -1.4 4.1 -6.6 4.1 -3 0 -3.4 0.3 -3.4 2.8 0 1.5 -0.3 3.7 -0.6 5 -0.5 1.6 -0.2 2.2 1 2.2 1.2 0 1.6 1 1.6 3.8 0 4.5 -1.4 6.2 -5.2 6.2 -2.4 0 -2.8 0.4 -2.8 2.8 0 3.2 -1.6 5.2 -4.2 5.2 -1 0 -1.8 0.4 -1.8 0.8 0 0.5 -1.2 1.4 -2.6 2.1 -2.5 1.1 -2.5 1.3 -1 3 2.1 2.3 2.2 9.1 0.1 9.1 -0.8 0 -1.5 0.5 -1.5 1 0 0.6 -1.8 1 -4 1 -3.2 0 -4.6 0.7 -7.5 3.5 -1.9 2 -3.5 4.2 -3.5 5 0 2 -2.6 3.1 -8.9 3.9 -3 0.4 -10 1.8 -15.5 3.2 -5.6 1.3 -16.4 3.1 -24.1 3.9 -21.7 2.4 -37.6 4.5 -50.5 6.9 -4.7 0.9 -11.9 1.6 -16 1.6 -5.7 0 -7.1 0.3 -6.2 1.2 1.3 1.3 1.6 8.6 0.4 10.4 -0.4 0.6 -2 1.4 -3.7 1.8 -1.6 0.4 -4.1 1.5 -5.5 2.6 l-2.5 2 6 0 c8.5 0 22 2.9 24.4 5.2 2.8 2.5 2.9 10.8 0.2 15.2 -5.1 8.4 -3.2 8 6.6 -1.5 5.5 -5.3 10.9 -10 12.1 -10.3 1.8 -0.6 2.2 -1.5 2.2 -5.1 0 -5.3 1.6 -6.5 8.9 -6.5 5 0 5.1 -0.1 5.1 -3 0 -2.5 0.4 -3 3.4 -3.5 6.1 -1.2 8 -0.4 8.6 3.5 0.4 3.1 0.5 2.8 1 -2 l0.5 -5.5 6.3 -0.3 c6.2 -0.3 6.2 -0.3 6.2 2.5 0 4.7 1.1 7.3 3 7.3 4 0 5 -1.1 5 -5.6 0 -3.8 0.3 -4.4 2.5 -5 1.4 -0.3 3.8 -0.3 5.3 0.1 1.5 0.4 4.6 0.9 6.8 1.2 3.1 0.3 4.5 1.1 5.4 2.9 1.1 1.9 2.1 2.4 5.5 2.4 4.9 0 6.5 1.3 6.5 5.4 0 1.9 1 4 2.8 5.9 2.6 2.7 2.7 3.3 2.7 12.5 0 8.2 -0.5 11.2 -3.2 19.7 -1.8 5.6 -3.3 10.9 -3.3 11.9 0 1 -0.8 3 -1.8 4.4 -1 1.5 -2.3 4.5 -3 6.7 -1 3.3 -0.9 4.1 0.3 4.8 1.8 1 2 6.8 0.3 8.5 -0.7 0.7 -2.5 1.2 -4 1.2 -1.5 0 -2.8 0.2 -2.8 0.4 0 0.2 -0.3 1.1 -0.6 1.9 -0.4 1.1 0.2 1.6 1.8 1.9 1.9 0.2 2.4 1 2.6 4.2 0.4 4.5 -0.7 5.6 -5.6 5.6 -3.3 0 -3.7 0.4 -5.6 6.8 -0.7 1.9 -0.4 2.2 2.2 2.2 2.9 0 3 0.1 3.7 6.6 0.4 3.6 0.5 6.7 0.3 7 -0.3 0.2 -2.7 0.8 -5.3 1.3 -5 0.9 -7.5 3 -7.5 6.3 0 1.1 0.7 1.8 2 1.8 1.7 0 2 0.7 2 3.9 0 3.7 -0.2 4 -3.7 4.8 -2.8 0.6 -3.9 1.5 -4.6 3.7 -0.8 2.3 -0.6 3.1 0.7 3.8 2.3 1.3 2.2 7.4 -0.2 8 -1.2 0.4 -2.4 2.3 -3.4 5.9 -1.4 5.1 -1.4 5.5 0.4 6.7 1.1 0.8 1.8 2.5 1.8 4.6 0 2.9 -0.4 3.4 -3.2 4.2 -2.6 0.8 -3.5 1.7 -4.4 4.9 -1.8 5.9 -1.8 12.5 0.1 12.5 0.9 0 1.5 0.9 1.5 2.5 0 1.4 0.5 2.5 1 2.5 0.6 0 1 1.6 1 3.6 0 2.8 0.3 3.4 1.3 2.6 0.6 -0.5 3.8 -1.5 6.9 -2.2 l5.6 -1.3 -0.1 -7.6 c-0.2 -7.5 -0.2 -7.6 2.4 -7.9 1.7 -0.2 2.9 -1.1 3.2 -2.3 0.4 -1.5 1.5 -1.9 4.9 -2 2.7 -0.1 3.3 -0.3 1.7 -0.6 -2.6 -0.4 -2.7 -0.7 -3.3 -9.3 -0.8 -9.6 -0.5 -11 2.4 -11 1.3 0 2 -0.8 2.2 -2.7 0.2 -2.3 0.8 -2.9 3.6 -3.1 3 -0.3 3.2 -0.6 3.2 -4.1 0 -2 0.5 -4.2 1.2 -4.9 1.7 -1.7 7.4 -1.5 9.3 0.4 2.3 2.4 1.6 8.6 -1.1 9.8 -1.9 0.8 -2 1.6 -1.6 8.6 0.3 4.9 0 8 -0.6 8.4 -0.8 0.4 -0.8 1.5 -0.1 3.6 1.6 4.3 0.8 8.4 -1.6 8.8 -1.7 0.2 -2 0.9 -1.7 4.2 0.3 3.1 0 4.1 -1.7 5.2 -1.5 0.9 -2.1 2.3 -2.1 4.9 0 3.2 0.4 3.8 3 4.8 2.8 0.9 3 1.4 3 5.9 0 4.3 -0.3 5 -2.5 6 -1.4 0.7 -3.7 1.2 -5 1.2 -3.8 0 -3.1 3.2 1.1 5.5 4.8 2.6 6.6 5.5 6.2 10.2 -0.3 3.3 -0.7 3.9 -3.6 4.9 -3.2 1 -3.2 1.1 -1.1 2 1.2 0.6 2.7 2.6 3.3 4.4 0.8 2.7 1.9 3.8 4.6 4.6 2.8 0.9 3.6 1.7 3.8 4 0.5 4.8 1.1 5.9 2.4 4.6 1.6 -1.6 9.1 -1.5 10.6 0 0.7 0.7 1.3 2.6 1.4 4.3 0.1 1.7 0.3 1 0.5 -1.7 l0.4 -4.8 4.9 0z m-64.2 -34.6 c3.7 -0.8 4.3 -2.4 0.8 -2.4 -3.5 0 -4.9 -2.3 -4.4 -7.5 0.2 -3 -0.1 -4.5 -0.9 -4.5 -0.6 0 -1.5 0.5 -1.8 1 -0.3 0.6 -2.2 1 -4.1 1 -3.2 0 -3.4 -0.2 -3.4 -3.2 0 -3.7 -0.9 -3.1 -2.6 1.7 -1.1 3.4 -1.1 3.5 1.3 3.5 2.2 0 2.4 0.3 2.1 4.3 -0.3 3.8 -0.6 4.3 -3.7 5.3 -2.3 0.7 -3 1.3 -2 1.7 1.5 0.7 13.5 0.1 18.7 -0.9z m55.2 -285.4 c0 -1.1 -0.2 -2 -0.5 -2 -0.2 0 -0.9 0.9 -1.5 2 -0.9 1.6 -0.8 2 0.5 2 0.8 0 1.5 -0.9 1.5 -2z"/>
  <path d="M252.6 334.4 c-1 -2.6 -0.7 -11.4 0.4 -11.4 0.6 0 1 -1.6 1 -3.5 0 -3.5 0 -3.5 4.4 -3.5 6.1 0 6.9 1.3 6 10.2 -0.3 4 -1.1 7.9 -1.7 8.6 -1.4 1.8 -9.3 1.6 -10.1 -0.4z"/>
  <path d="M228.7 317.3 c-0.4 -0.3 -0.7 -2.8 -0.7 -5.5 0 -4.7 -0.1 -4.8 -3 -4.8 -1.9 0 -3.4 -0.7 -4.2 -2 -0.9 -1.4 -2.4 -2 -5.1 -2 -2 0 -4.5 -0.4 -5.5 -0.9 -0.9 -0.6 -2.9 -1.2 -4.4 -1.6 -1.9 -0.4 -2.8 -1.2 -2.8 -2.5 0 -1.5 -0.7 -2 -2.5 -2 -2 0 -2.5 -0.5 -2.5 -2.4 0 -2.1 -0.5 -2.4 -6.1 -3 -3.9 -0.5 -6.7 -1.4 -8 -2.7 -2.5 -2.5 -2.9 -2.4 -2.9 0.6 0 3 -2.9 4.7 -7.3 4.3 -3 -0.3 -3.2 -0.6 -3.5 -4.6 -0.4 -4.7 1 -7.2 3.9 -7.2 1.7 0 1.9 -0.8 1.9 -6.2 l0 -6.3 -5.2 0 -5.3 0 0 -5 c0 -4.9 0.1 -5 3.3 -5.3 2.9 -0.3 3.2 -0.6 3.2 -3.8 0 -2.7 0.4 -3.4 2 -3.4 1.3 0 2 -0.7 2 -1.9 0 -1.6 -0.8 -2 -3.7 -2.3 l-3.8 -0.3 -0.3 -5.3 c-0.2 -3.1 0.2 -6 0.9 -6.8 0.9 -1.1 0.8 -1.8 -0.5 -3.3 -2.1 -2.3 -3.5 -17.4 -1.7 -18.5 0.6 -0.4 1.1 -1.6 1.1 -2.8 0 -1.1 0.8 -2.2 1.9 -2.5 1.5 -0.4 2 -1.6 2.3 -5.4 0.2 -3.4 -0.1 -5 -1 -5.4 -0.9 -0.3 -1.2 -1.9 -1 -4.7 0.2 -3.1 -0.2 -4.8 -1.4 -6 -2.1 -2.1 -2.4 -7.8 -0.6 -9.6 0.7 -0.7 2.4 -1.2 3.8 -1.2 2.6 0 2.6 -0.1 1.9 -5.2 -1.2 -8.8 -1.1 -11.8 0.6 -11.8 0.9 0 1.8 -0.7 2.1 -1.5 0.4 -0.8 1.4 -1.5 2.3 -1.5 1.3 0 1.5 -0.8 1.2 -4.6 -0.2 -2.5 0.2 -5.6 0.8 -6.8 0.6 -1.1 1.2 -4.1 1.3 -6.6 l0.3 -4.5 4.2 -0.3 c3.9 -0.3 4.3 -0.1 4.8 2.5 1.3 5.9 3.7 7.5 5.9 4 0.9 -1.4 0.7 -2.1 -1.2 -3.6 -1.9 -1.4 -2.3 -2.5 -2 -5.7 0.3 -3.9 0.3 -3.9 5.1 -4.2 2.8 -0.2 4.7 0.1 4.7 0.7 0 0.6 0.6 1.1 1.4 1.1 1.7 0 2.6 2.2 2.6 6.1 0 1.6 0.5 2.9 1.3 2.9 0.6 0 2.2 0.3 3.4 0.6 2 0.6 2.2 0.2 2.5 -4.6 0.2 -3.5 0.8 -5.5 1.8 -6 0.8 -0.4 2.5 -1.2 3.7 -1.8 3 -1.6 8.8 -1.5 10 0.1 0.6 0.6 1.6 3.3 2.4 6 0.7 2.6 1.7 4.7 2.1 4.7 0.4 0 0.8 -3 1 -6.7 l0.3 -6.8 5.9 -0.3 5.9 -0.3 -0.7 7.5 c-0.4 4.8 -0.3 7.6 0.3 7.6 0.5 0 1.1 -2.1 1.3 -4.7 0.3 -4.4 0.5 -4.8 3 -5.1 2.1 -0.3 2.7 -0.9 3 -3 0.3 -2.6 0.6 -2.7 5.8 -2.7 l5.5 0 0.3 4.3 c0.4 5 -1 7.2 -4.4 7.2 -1.3 0 -2.4 0.5 -2.4 1 0 0.6 0.8 1 1.8 1 2.3 0 4.2 1.9 4.2 4.2 0 1.5 0.9 1.8 5.9 1.8 6.8 0 8.4 1.3 7.9 6.2 -0.2 2.3 -1 3.6 -2.7 4.5 -2.4 1.1 -2.4 1.2 1 1.5 2.9 0.3 3.4 0.7 3.7 3.2 0.2 1.5 0.1 3.9 -0.2 5.2 -0.6 2.1 -1.2 2.4 -5 2.4 -4 0 -4.4 0.3 -4.9 2.8 -0.6 3 1.7 5.6 4.1 4.7 0.8 -0.3 2.5 -0.5 3.8 -0.5 2.1 0 2.4 -0.4 2.4 -3.9 0 -4.1 1.3 -5.1 7.1 -5.1 3.3 0 4.9 1.7 4.9 5.5 0 4 -1.6 5.5 -5.7 5.5 -3 0 -3.3 0.3 -3.3 2.9 0 4.9 -0.9 6.1 -4.8 6.1 l-3.5 0 2.2 2.4 c1.9 2 2.2 3.3 2 7.4 l-0.4 5 5.8 1.2 5.8 1.1 -0.3 4.7 c-0.2 3.7 -0.8 4.9 -2.5 5.7 -1.7 0.7 -2.3 1.9 -2.5 5 -0.3 4 -0.3 4 -4.6 4.3 -2.4 0.2 -5 -0.2 -5.8 -0.9 -1.1 -0.9 -1.4 -0.8 -1.4 0.9 0 1.1 0.7 2.2 1.5 2.6 1 0.3 1.5 1.9 1.5 4.6 0 3.3 0.3 4 2 4 1.7 0 2 0.7 2 4.5 0 2.6 -0.5 4.7 -1.3 5.2 -0.8 0.4 -1.6 1.8 -1.9 3.1 -0.5 1.8 -0.2 2.2 1.7 2.2 1.4 0 2.5 -0.7 2.8 -2 0.4 -1.7 1.4 -2 6.1 -2 l5.6 0 0 3.8 c0 3.9 -1.4 6.2 -3.8 6.2 -0.8 0 -2.3 1.1 -3.4 2.5 -1.3 1.6 -2.9 2.5 -4.9 2.5 -2.1 0 -2.9 0.5 -2.9 1.8 0 2.5 -1.9 4.2 -4.7 4.2 -1.6 0 -2.3 0.6 -2.3 1.9 0 1.9 -2.5 3.1 -6.6 3.1 -1.2 0 -2.7 0.7 -3.4 1.5 -0.7 0.8 -2.8 1.5 -4.6 1.5 -3.1 0 -3.4 0.3 -3.4 3 0 1.7 -0.5 4 -1.2 5.3 -0.6 1.2 -1.4 2.9 -1.8 3.7 -0.5 1 -2.5 1.6 -6.2 1.8 -5.5 0.3 -5.6 0.3 -4.4 2.7 0.8 1.9 1.9 2.5 4.4 2.5 3 0 3.2 0.2 3.2 3.8 0 2.1 -0.5 4.3 -1.1 4.9 -0.8 0.8 -0.8 1.3 0 1.7 0.6 0.4 1.1 2.3 1.1 4.1 0 3.8 -2 5.5 -6.4 5.5 -2.3 0 -2.6 0.4 -2.6 3.8 0 2.1 -0.5 4.3 -1.2 5 -1.3 1.3 -9 1.7 -10.1 0.5z m8.3 -15.3 c0 -2.6 0.5 -4.3 1.4 -4.6 0.8 -0.3 1.2 -1.2 0.9 -2 -0.8 -2.1 -2.1 -1.7 -2.5 0.9 -0.2 1.2 -1.3 2.6 -2.5 3.2 -1.2 0.5 -2.3 2.1 -2.5 3.7 -0.4 2.5 -0.2 2.8 2.4 2.8 2.6 0 2.8 -0.3 2.8 -4z m-56.6 -38.1 c-0.8 -1.4 -4.4 -1 -4.4 0.5 0 0.9 0.8 1.2 2.5 0.8 1.4 -0.2 2.2 -0.8 1.9 -1.3z m94.6 -16.9 c0 -1.6 -0.7 -2 -3.5 -2 -3.7 0 -5 2.5 -1.7 3.3 3.8 1 5.2 0.7 5.2 -1.3z m3.5 -39 c2.8 0 3.4 -1.7 1 -2.7 -1.9 -0.7 -5.5 2.4 -5.5 4.6 0.1 1.4 0.2 1.3 1.1 -0.1 0.5 -1 2.1 -1.8 3.4 -1.8z m-97.4 -22.3 c-0.1 -0.4 -0.1 -2.7 -0.1 -5.2 0 -3.2 -0.4 -4.5 -1.4 -4.5 -1 0 -1.2 1.1 -0.8 4.5 0.3 3.4 0.1 4.5 -0.9 4.5 -1.1 0 -1.1 0.2 0.1 1 1.6 1 3.2 0.9 3.1 -0.3z m90.9 -28.7 c0 -1.9 -0.5 -3 -1.4 -3 -1.2 0 -1.2 0.5 -0.3 3 0.6 1.7 1.3 3 1.4 3 0.2 0 0.3 -1.3 0.3 -3z m-78.3 -0.2 c0.6 -0.7 1.3 -2.8 1.6 -4.5 0.6 -3.2 0.6 -3.2 -1.6 -2 -1.2 0.6 -2.8 2 -3.5 3 -0.7 0.9 -2.3 1.7 -3.4 1.7 -2.1 0 -2.1 0 -0.2 1.5 2.4 1.8 5.8 1.9 7.1 0.3z"/>
  <path d="M192.5 310.1 c-0.6 -0.5 -2.6 -1.1 -4.5 -1.3 -3.5 -0.3 -3.5 -0.3 -3.8 -5.5 l-0.3 -5.3 5 0 c2.8 0 5.1 0.4 5.1 0.9 0 0.6 1.7 1.1 3.8 1.3 3.5 0.3 3.7 0.5 4 4.1 0.2 2.1 -0.2 4.5 -0.9 5.3 -1.3 1.6 -7 1.9 -8.4 0.5z"/>
  <path d="M255.5 288.7 c-0.4 -0.8 -0.5 -3.2 -0.3 -5.3 l0.3 -3.9 8.3 -0.9 c4.5 -0.4 8.9 -0.5 9.7 -0.2 1 0.3 1.5 1.9 1.5 4.5 0 5 -1.2 5.8 -11.3 6.7 -6.4 0.6 -7.8 0.4 -8.2 -0.9z"/>
  <path d="M319.7 176.3 c-1 -1 -0.8 -6.8 0.3 -9.7 0.8 -2.3 1.5 -2.6 5.4 -2.6 4.9 0 5.6 0.9 5.6 6.7 0 2.2 -0.7 4.1 -1.7 4.9 -1.9 1.4 -8.5 1.9 -9.6 0.7z"/>
  <path d="M311 125.1 c0 -4.2 1.3 -5.1 7.8 -5.1 3.1 0 3.2 0.2 3.2 3.9 0 4.4 -1 5.1 -7.1 5.1 -3.9 0 -3.9 0 -3.9 -3.9z"/>
  <path d="M212.3 107.3 c-3.1 -3.1 -3.7 -11.2 -1.6 -20.8 0.9 -4.4 1.6 -11.2 1.5 -15.2 l-0.2 -7.2 9.4 0 c10.5 -0.1 10.7 0 12.5 7.1 3 12.5 -0.3 32 -6 35.6 -1 0.7 -4.6 1.5 -7.8 1.8 -5 0.6 -6.1 0.4 -7.8 -1.3z"/>
  <path d="M249.3 102.3 c-1.5 -2.2 -1.8 -5 -1.8 -15.5 0 -8.8 0.4 -13.1 1.3 -14 0.6 -0.6 1.2 -2.7 1.2 -4.5 0 -4.9 4 -8.3 9.5 -8.3 4.7 0 6.2 1.2 8.2 6.9 2.1 5.7 2.6 14.8 1.4 25.1 -1.3 11.8 -2.4 13 -11.7 13 -5.8 0 -6.5 -0.2 -8.1 -2.7z"/>
 </g>
 <g fill="#ffffff">
  <path d="M167.8 420.6 c-2.4 -1.9 -5.2 -4.5 -6 -5.8 -1.5 -2.2 -1.5 -2.5 0 -3.5 1.5 -1 1.5 -1.2 -0.3 -1.8 -5.6 -1.9 -6.6 -2.6 -7.1 -5.5 -0.4 -1.9 -1.8 -3.6 -4.1 -5 -1.8 -1.1 -3.3 -2.6 -3.2 -3.2 0.3 -2.4 -0.1 -3.7 -1.7 -5.2 -2.7 -2.8 -1 -3.9 1.9 -1.2 3.2 3 4.5 3.2 7.2 1.2 1.8 -1.3 1.8 -1.5 0.2 -3.9 -0.9 -1.4 -3.4 -3.3 -5.6 -4.3 -3.3 -1.6 -3.8 -2.3 -3.4 -4.4 0.3 -1.8 -0.2 -3.1 -1.6 -4.4 -1.8 -1.6 -2.6 -1.8 -5.6 -0.9 -2.7 0.9 -3.7 0.8 -4.6 -0.3 -0.6 -0.8 -1.9 -1.4 -2.8 -1.5 -1.1 0 -0.8 -0.3 0.7 -0.9 1.5 -0.7 2.9 -0.6 4.2 0.3 1.6 0.9 2.4 0.9 4 -0.1 1.6 -1 2.9 -1 6 -0.1 5.1 1.6 10.3 -0.3 9.8 -3.5 -0.2 -1.6 -1.6 -2.5 -5.8 -3.7 -3 -0.8 -6.3 -1.9 -7.4 -2.4 -1.1 -0.5 -2.6 -0.4 -3.6 0.3 -1 0.6 -2.6 0.9 -3.6 0.6 -3.7 -0.8 -11.8 2.1 -13.3 4.8 -2 3.6 0 6.2 4.1 5.4 2.6 -0.5 2.8 -0.4 2.2 1.9 -0.3 1.4 -0.1 3.2 0.5 3.9 0.7 0.8 0.8 1.6 0.4 1.9 -1.1 0.7 -9.6 2.1 -10.9 1.9 -0.6 -0.1 -1.7 0.5 -2.4 1.3 -1 1.2 -1 2.1 -0.1 4.1 1 2.3 1.6 2.5 4.2 2 2.2 -0.4 2.9 -0.2 2.7 0.7 -0.3 0.6 -2.1 1.3 -4.2 1.5 -3.5 0.3 -3.8 0.1 -5.6 -4.2 -1.5 -3.3 -2.6 -4.4 -4 -4.3 -1.1 0.1 -2 0.7 -2 1.4 0 0.7 -1.6 2 -3.6 2.8 -4.3 1.8 -4.4 1.8 -4.4 0.5 0 -0.5 1.1 -1.2 2.5 -1.6 3.4 -0.8 3.1 -1.8 -1 -4.3 -2.1 -1.2 -3.5 -2.8 -3.5 -4 0 -1.1 -0.5 -2.1 -1 -2.3 -0.6 -0.2 0.1 -1.9 1.5 -4 1.3 -2 3.2 -5.6 4 -7.9 3.3 -9 6.9 -15.9 8.2 -15.9 0.9 0 1.1 -0.8 0.8 -2.3 -0.9 -3.5 3.3 -15.7 5.1 -15 1.7 0.6 1.7 0.1 0.3 -3 -0.9 -2 -0.6 -4.1 1.5 -11 1.4 -4.7 2.6 -10.5 2.6 -12.9 0 -2.4 0.9 -7.1 1.9 -10.4 4.1 -12.9 5.2 -16.7 5.8 -20.7 0.5 -4 4.5 -15.7 9.8 -28.9 2.4 -6.1 2.8 -6.6 4.6 -5.5 1.5 0.9 2.2 0.8 3.5 -0.5 1.6 -1.6 1.5 -1.8 -1 -2.9 -1.8 -0.8 -2.6 -1.8 -2.2 -2.8 2.3 -6.9 4.5 -12.3 5.9 -14.5 1 -1.5 1.7 -3.2 1.5 -3.9 -0.1 -0.6 1.4 -5.9 3.2 -11.7 4.4 -13.5 4.8 -22.5 1.1 -26.4 -1.4 -1.4 -3.5 -2.6 -4.8 -2.6 -2.8 0 -3 -1.6 -0.3 -2.5 1.1 -0.3 2 -1.4 2 -2.4 0 -3.1 -2.5 -4.3 -7.4 -3.7 -3.5 0.5 -4.4 0.3 -4.1 -0.6 0.7 -2 -2.2 -5.1 -4.1 -4.4 -1.1 0.4 -1.5 1.4 -1.2 3.1 0.4 1.7 0 2.6 -1.1 2.9 -5.8 1.6 -24.2 4.2 -27.3 3.7 -0.9 -0.1 -5.4 0.7 -9.9 1.8 -8.2 2 -8.3 2 -9.6 0.1 -2.3 -3.3 -9.4 -1.9 -8.8 1.7 0.2 1.4 1 1.7 3.6 1.5 l3.3 -0.3 -4.9 3.6 c-2.8 1.9 -5.4 3.5 -5.8 3.5 -0.4 0 -5.9 4.9 -12.2 11 -6.2 6 -12 11 -12.9 11 -2.7 0 -2.1 -9.7 0.9 -15.4 3 -5.7 3.1 -7.9 0.4 -10.4 -2.4 -2.3 -15.7 -5.1 -24.8 -5.1 -6.7 -0.1 -10.1 -0.7 -10.1 -2 0 -1.4 9.8 -8.1 12.8 -8.7 5.7 -1.2 4.9 -5.5 -2.6 -13.7 -2.4 -2.5 -2.4 -2.7 -0.6 -2.7 1 0 4.1 0.7 6.8 1.5 6.3 1.9 11 1.9 21.6 -0.1 12.9 -2.4 28.8 -4.5 50.5 -6.9 7.7 -0.8 18.5 -2.6 24.1 -3.9 5.5 -1.4 12.5 -2.8 15.5 -3.2 6.3 -0.8 8.9 -1.9 8.9 -3.9 0 -0.8 1.6 -3 3.5 -4.9 3 -3 3.3 -3.6 1.8 -4.4 -0.9 -0.6 -1.3 -1.4 -0.8 -2.2 0.6 -0.9 0.9 -0.9 1.6 0.1 0.6 1 1.3 1 3.2 0.2 2.2 -1 2.6 -0.9 3 0.8 0.5 1.9 2.7 2.7 2.7 0.9 0 -0.5 0.7 -1 1.5 -1 0.8 0 1.5 -0.4 1.5 -0.9 0 -1.4 -2.2 -2.6 -4.2 -2.3 -2.2 0.4 -2.3 -1.1 -0.3 -2.8 2.1 -1.7 0.8 -3.3 -2.1 -2.6 -2.7 0.7 -2.9 0.1 -0.9 -3.4 1.1 -1.9 1.4 -2.1 1.5 -0.7 0 2 1.9 2.2 5.5 0.5 3.3 -1.5 2.7 -3.2 -1.3 -3.8 l-3.2 -0.5 5.2 -8.5 c2.8 -4.7 5.3 -8.7 5.5 -8.9 0.2 -0.3 1.1 0.5 1.9 1.8 1.5 2.1 1.7 2.1 3.5 0.5 1 -0.9 1.6 -2.1 1.2 -2.6 -0.3 -0.6 0 -1.3 0.6 -1.7 1.4 -0.9 0.4 -3.9 -1.5 -4.3 -1.4 -0.3 3.9 -7.9 11.9 -17.3 2.8 -3.2 3.7 -3.7 4.9 -2.7 1.1 0.9 1.7 0.9 2.6 0 1.6 -1.6 1.5 -3.5 0 -4.1 -0.8 -0.2 1.6 -3.6 5.8 -8.3 18.3 -20.2 32.1 -29.9 44.5 -31.1 9.1 -0.9 14.4 3.1 23.3 17.4 2 3.3 2.3 4.3 1.1 4.3 -1.9 0 -1.9 1.1 -0.2 3.5 1 1.3 1.6 1.5 2.1 0.6 0.9 -1.4 2.6 -0.5 2.6 1.4 0 0.8 1.2 4 2.6 7.2 2.7 5.8 6.5 16.6 6.9 19.3 0.3 1.9 1.4 5 2.6 7.2 1.1 2.1 1.2 6.8 0.2 6.7 -2.4 -0.4 -4.3 0.3 -4.3 1.5 0 2 3 2.9 3.6 1.1 1 -2.5 2.1 -1.7 2.1 1.7 0 2.2 0.8 3.8 2.7 5.5 3.4 2.9 6.5 11.1 4.6 12.3 -1.6 1 -0.4 3 1.7 3 0.9 0 3.5 1.6 5.9 3.5 2.7 2.3 5.8 3.8 8.4 4.1 2.3 0.3 4.9 0.7 5.8 0.9 0.9 0.2 2.3 0.4 3 0.4 0.7 0.1 1 0.6 0.7 1.1 -0.3 0.6 -0.2 1 0.4 1 0.5 0 1.2 -0.4 1.5 -0.9 0.4 -0.5 2.9 -1.4 5.8 -2 4.1 -0.9 5.4 -0.9 6.7 0.2 3.4 2.9 4.4 3.1 3.6 0.6 -0.7 -2.1 -0.6 -2.2 0.8 -1.1 1 0.9 1.6 0.9 1.9 0.2 0.2 -0.7 6.8 -1.2 18.3 -1.5 32.4 -0.8 37.9 -1.4 41.6 -4.1 1.8 -1.3 3.9 -2.4 4.7 -2.4 0.8 0 2.7 -1.1 4.4 -2.5 1.6 -1.4 3.7 -2.5 4.5 -2.5 0.9 0 2.4 -0.7 3.4 -1.5 2.7 -2.5 6.9 -1 6.9 2.5 0 3.8 -11.6 14.3 -17.7 16 -4.2 1.2 -7.1 3.4 -5.6 4.2 0.4 0.3 6 0.1 12.3 -0.4 6.3 -0.4 13 -0.9 14.9 -1.1 1.9 -0.1 3.6 0.3 3.8 1 0.7 1.9 -12.3 7.8 -20.7 9.6 -9.5 1.9 -18.4 5.9 -20.6 9.2 -1.5 2.3 -1.5 2.7 0.1 5.2 0.9 1.6 3.7 4.6 6.2 6.8 3.5 3.1 4.7 5 5.3 8.3 0.6 3.6 0.4 4.5 -1.1 5.6 -2.7 1.8 -7.8 0.1 -13.7 -4.7 -2.6 -2 -7.3 -5.4 -10.5 -7.5 -3.2 -2 -8.1 -5.4 -10.9 -7.5 -2.9 -2 -5.7 -3.7 -6.4 -3.7 -0.7 0 -2.6 1.2 -4.3 2.6 -2.5 2.1 -3.4 2.3 -5.1 1.4 -1.5 -0.8 -2.5 -0.8 -3.4 -0.1 -0.8 0.6 -2 0.9 -2.7 0.6 -2 -0.6 -6.2 3.2 -5.5 5 0.7 1.9 3 1.9 5 0 0.8 -0.8 2.2 -1.5 3.1 -1.5 1.2 0 0.4 1.4 -2.6 4.5 -2.4 2.5 -4.8 5.3 -5.3 6.3 -0.5 0.9 -1.8 2.4 -2.8 3.2 -0.9 0.8 -1.9 2.7 -2.2 4.2 -0.7 4.2 -7 13.3 -10.9 15.7 -3.9 2.4 -4.3 4.1 -5.3 21.1 -0.3 5.2 -0.9 10.8 -1.5 12.4 -0.5 1.6 -0.9 6.5 -0.9 10.9 0 6.3 -0.4 8.2 -1.7 9.2 -1.8 1.3 -1.1 5.1 0.8 4 0.7 -0.5 1 2 0.7 8.4 -0.3 7.9 -0.5 9.1 -2 9.1 -2.3 0 -2.4 3.3 -0.2 5.1 1.3 1 1.4 2.4 0.9 6.8 -0.4 3.1 -1.1 6.1 -1.7 6.8 -0.6 0.7 -0.6 1.9 0 3 1.8 3.6 2.2 8.1 0.7 8.7 -1.9 0.7 -1.9 3 -0.1 4.5 1.7 1.4 1 8.9 -1.1 10.9 -1.5 1.5 -1.8 5.8 -0.4 6.6 0.5 0.4 1.1 0 1.4 -0.6 0.3 -1 0.8 -1 1.6 -0.2 0.8 0.7 1 2.4 0.6 4.8 -0.8 3.8 -2 5.3 -3 3.6 -0.3 -0.5 -1.3 -1 -2.1 -1 -1.1 0 -1.4 0.8 -1.2 2.8 0.2 2.2 0.8 2.7 3 2.7 3.3 0 3.9 0.6 4.5 4.8 0.3 2.7 -0.1 4 -1.8 5.6 -1.3 1.2 -2.7 2.1 -3.2 2.1 -0.4 0 -0.7 1 -0.5 2.3 0.2 1.3 0.9 2.2 2 2.1 1.3 -0.1 1.7 0.6 1.5 2.7 -0.2 2.2 -0.6 2.7 -1.9 2.3 -1.1 -0.3 -1.9 0.2 -2.3 1.5 -0.9 2.8 0.3 4.3 2.6 3.6 1.7 -0.6 1.9 -0.1 1.9 5.4 0 6.5 -0.9 7.4 -4.2 4.4 -1.3 -1.2 -2.2 -1.3 -2.9 -0.6 -1.6 1.6 1.5 6.9 4.6 7.7 1.6 0.4 2.5 1.3 2.5 2.6 0 2.2 -1.6 2.7 -2.3 0.8 -0.6 -1.9 -3.7 0.9 -3.7 3.3 0 2.3 2 3.6 3 1.9 0.5 -0.8 1 -0.9 1.4 -0.2 0.4 0.6 -0.2 1.5 -1.1 2.1 -1.7 1 -1.6 1.2 0.6 2.9 2.3 1.8 2.3 2.1 1.1 7.1 -0.8 3.4 -1 7.8 -0.6 12.1 l0.7 6.8 -4.5 3.2 c-2.6 1.7 -4.6 2.7 -4.6 2.1 0 -1.2 -3.7 -2.4 -5 -1.6 -1.5 0.9 0.7 4.5 2.7 4.5 6.2 0 -13.5 7 -21.3 7.6 -8.1 0.6 -16.6 -2.4 -27.9 -9.7 -5.5 -3.6 -11.1 -7.1 -12.3 -7.8 -1.3 -0.7 -2.1 -1.5 -1.8 -1.8 0.3 -0.3 1.7 0.2 3.1 1.1 1.5 1 3.4 1.4 4.5 1.1 2.2 -0.7 2.7 -3 0.9 -4.1 -0.8 -0.5 -0.4 -1.3 1.1 -2.4 2.8 -2.1 2.1 -5 -1.3 -5 -4.2 0 -6.5 -8.3 -2.7 -9.5 1.4 -0.4 2.7 0.1 4.3 2.1 1.8 2 2.9 2.5 4.5 2 3.1 -1 2.7 -2.8 -1.4 -6.9 -3.3 -3.1 -4 -3.4 -8.2 -2.9 -2.6 0.2 -5.3 0.9 -6 1.5 -0.9 0.7 -1.8 0.6 -2.9 -0.6 -1.4 -1.4 -1.4 -1.7 0.1 -3.2 0.9 -0.9 1.6 -2.1 1.6 -2.7 0 -0.7 1.1 -0.2 2.4 1.1 l2.3 2.2 5.2 -2.6 c4.7 -2.4 6 -4.5 2.6 -4.5 -1.5 0 -3.1 -5.3 -1.7 -5.8 0.5 -0.1 1.7 -0.9 2.7 -1.6 1.7 -1.2 1.7 -1.4 -0.4 -3.5 -2.1 -2.1 -2.2 -2.1 -4.9 -0.4 -1.5 1 -3.1 2.3 -3.5 3 -1.1 1.8 -9.5 5.3 -12.7 5.3 -4.4 0 -6 1 -6 3.6 0 2.3 0.7 2.8 4 2.5 1.8 -0.1 4.3 4.6 2.8 5.5 -0.5 0.3 -0.7 1.5 -0.5 2.5 0.6 2.1 -2.3 4 -7.6 5.3 -4 1 -3.5 5 0.8 5.4 1.6 0.2 3.5 1.1 4.1 2 1 1.4 0.9 1.8 -0.7 2.4 -1.5 0.6 -1.9 1.3 -1.4 2.8 0.5 1.5 0.2 2 -1.4 2 -2.7 0 -5.3 2.8 -4.6 4.9 0.4 1.4 -0.4 2.1 -3.7 3 -2.4 0.7 -6.1 2.2 -8.3 3.4 -2.3 1.1 -6 2 -8.5 2 -4.8 0 -8.4 2.2 -6.1 3.7 1 0.5 0.9 0.9 -0.3 1.3 -0.8 0.3 -1.8 0.2 -2.1 -0.3 -1.1 -1.8 -4.5 -1.1 -4.5 0.9 0 2.1 -4 3.1 -13.1 3.1 -4.9 0 -6.2 -0.5 -10.1 -3.4z m22.2 -1.5 c0 -2.2 -1.9 -4.1 -4.2 -4.1 -2 0 -2.3 2.1 -0.8 5 1.2 2.2 5 1.6 5 -0.9z m-14.3 -1.8 c-0.9 -0.9 -2.3 -1.3 -3.2 -1 -1.3 0.5 -1.4 1.1 -0.5 2.7 0.9 1.7 1.4 1.8 3.2 0.9 1.8 -1 1.9 -1.2 0.5 -2.6z m117.3 2.3 c3.6 -0.4 4.5 -1 3.5 -2.5 -0.8 -1.4 -4.6 -1.4 -8 -0.1 -2.3 0.9 -2.5 1.3 -1.5 2.5 0.7 0.8 1.6 1.3 2 1 0.5 -0.3 2.2 -0.7 4 -0.9z m-90 -7.7 c0 -0.5 -1.1 -0.9 -2.5 -0.9 -2.4 0 -3.2 1 -1.9 2.2 0.8 0.8 4.4 -0.3 4.4 -1.3z m8.8 -3.6 c0.2 -2.4 0.1 -4.3 -0.2 -4.3 -1.6 0 -3.6 1.4 -3.6 2.6 0 0.8 -0.7 1.7 -1.5 2 -2.3 0.9 0.1 4.6 2.8 4.2 1.8 -0.2 2.3 -1.1 2.5 -4.5z m100.2 -0.3 c1.3 -0.8 1.3 -1.1 -0.2 -2.6 -2.3 -2.4 -5.3 -1.1 -3.8 1.6 1.2 2.2 1.8 2.4 4 1z m-92 -7.2 c0 -1.2 -5.8 -1.3 -6.9 -0.2 -0.3 0.2 0.4 1 1.4 1.8 1.5 1 2.3 1.1 3.7 0.2 1 -0.6 1.8 -1.4 1.8 -1.8z m91.4 1.6 c2 -0.8 2 -2.8 0 -4.5 -1.2 -1 -2 -1 -3.4 -0.2 -1 0.7 -2.8 0.9 -4 0.6 -1.8 -0.5 -2.1 -0.2 -1.8 1.3 0.2 1.3 1.5 2.1 3.8 2.5 1.9 0.4 3.6 0.7 3.7 0.8 0.1 0 0.8 -0.2 1.7 -0.5z m2 -9 c0.9 -0.3 1.6 -1.4 1.6 -2.3 0 -0.9 0.5 -2.2 1.2 -2.9 1.3 -1.3 -0.9 -2.6 -3.8 -2 -2.2 0.4 -3.9 5.9 -2.1 7 1.5 0.9 1.2 0.9 3.1 0.2z m-210.4 -20.5 c0 -0.5 0.4 -0.8 0.9 -0.4 1 0.6 2.6 -1.3 1.8 -2.1 -0.7 -0.8 -4.7 1.5 -4.7 2.6 0 0.6 0.5 1 1 1 0.6 0 1 -0.5 1 -1.1z m13 -14.1 c0 -1.6 -3 -0.7 -3.9 1.1 -1 1.7 -0.9 1.8 1.4 0.7 1.4 -0.6 2.5 -1.4 2.5 -1.8z m34 -2.8 c0 -0.9 -0.7 -2.6 -1.6 -3.8 -1.4 -2 -1.4 -2.3 0.3 -2.8 5.4 -1.7 6.2 -3.8 1.6 -4.2 -1.9 -0.2 -3.9 -1.2 -4.7 -2.4 -1.6 -2.3 -4.6 -1.9 -4.6 0.6 0 0.9 -1.1 1.6 -2.7 1.8 -3.6 0.4 -4.6 4.6 -1.3 5.5 1.9 0.5 2 0.7 0.5 2.3 -1.3 1.5 -1.4 2.3 -0.5 3.9 1.1 2.2 4.4 2.8 5.5 1.1 0.4 -0.6 1.2 -0.5 2.1 0.5 1.2 1.2 1.9 1.2 3.4 0.2 1.1 -0.6 2 -1.9 2 -2.7z m96.1 2 c2 -1.1 2.6 -4.5 0.8 -5.5 -1.6 -1 -5.6 0.3 -6.3 2 -1.4 3.7 1.5 5.6 5.5 3.5z m15 -4 c2.6 -1.4 2.4 -2.4 -0.7 -4.5 -2.4 -1.5 -2.8 -1.6 -4.2 -0.1 -1.4 1.4 -1.4 1.7 0.3 3.6 2.1 2.3 2 2.3 4.6 1z m-17.1 -4 c2.2 -1.1 5.2 -2 6.8 -2 3.9 0 5.2 -1.5 3.8 -4.6 -1.2 -2.7 -4.1 -3.2 -5 -0.9 -0.3 0.8 -1.4 1.5 -2.4 1.5 -1 0 -2.3 0.5 -3 1.2 -0.8 0.8 -1.5 0.8 -2.5 0 -2.2 -1.9 -5.2 1.9 -3.7 4.7 1.3 2.6 1.2 2.6 6 0.1z m-86.8 -13.5 c-0.2 -1.1 -1.4 -2.9 -2.8 -4 -3.2 -2.7 -3 -4.1 0.6 -5.4 2.1 -0.7 3 -1.7 3 -3.1 0 -2.3 -1.7 -2.2 -7.2 0.6 -5.6 2.9 -7.9 9.4 -3.3 9.4 1.8 0 2.9 0.8 3.7 2.5 1.5 3.3 6.5 3.3 6 0z m102.7 -4.9 c1 -1.2 0.9 -2 -0.4 -4 -2.7 -4.2 -5.8 -1.2 -3.9 3.8 0.8 2 2.8 2.1 4.3 0.2z m-111.9 -8.1 c1.3 -1.6 0.6 -3.5 -1.5 -3.5 -1.8 0 -2.8 1.7 -2.1 3.5 0.7 1.9 2 1.9 3.6 0z m112.9 -0.8 c0.8 -1 0.7 -1.7 -0.1 -2.5 -1.8 -1.8 -3.8 -1.4 -3.8 0.6 0 3.2 2 4.2 3.9 1.9z m-104.2 -1.5 c1.6 -1 0.2 -6.6 -1.8 -7 -1.9 -0.4 -4.1 5.2 -2.6 6.7 1.3 1.3 2.7 1.4 4.4 0.3z m-4.9 -6.1 c0.3 -0.8 -0.1 -1.2 -0.9 -0.9 -0.7 0.2 -1.5 1 -1.7 1.7 -0.3 0.8 0.1 1.2 0.9 0.9 0.7 -0.2 1.5 -1 1.7 -1.7z m84.2 -1.6 c1 -1.2 1 -1.8 0 -3 -2.5 -3 -6.1 -0.7 -4.6 3 0.3 0.8 1.2 1.5 1.9 1.5 0.8 0 2 -0.7 2.7 -1.5z m-74.6 -7 c-0.8 -2.1 -3.1 -2.5 -4.5 -0.8 -1.1 1.3 -1 1.7 0.6 2.9 2.1 1.6 4.7 0.2 3.9 -2.1z m36.8 -2.7 c-1.7 -1.7 -4.7 0.9 -3 2.9 1 1.2 1.3 1.2 2.7 -0.1 1.1 -1.2 1.2 -1.9 0.3 -2.8z m-7.2 -1.4 c0 -0.8 -0.9 -1.4 -2 -1.4 -1.9 0 -2.8 2.8 -1.3 4.3 0.9 0.9 3.3 -1.2 3.3 -2.9z m53.9 -1 c-1.5 -1.9 -3.8 -1.8 -4.6 0.2 -0.8 2.1 1.6 3.5 4 2.3 1.4 -0.8 1.6 -1.3 0.6 -2.5z m-17.1 1.4 c2 -2 1.4 -2.8 -1.8 -2.6 -1.6 0.1 -3 0.5 -3 0.8 0 0.8 2.2 3 3 3 0.3 0 1.1 -0.5 1.8 -1.2z m-7.9 -3.7 c2 -1.3 0.5 -3 -2.2 -2.4 -4.1 0.9 -4.8 1.3 -4.2 2.3 0.8 1.2 4.5 1.3 6.4 0.1z m-8.2 -4.6 c-0.2 -0.5 -1.3 -1.1 -2.5 -1.3 -2.6 -0.4 -4.2 2.6 -2.2 3.8 1.5 0.9 5.2 -1 4.7 -2.5z m21.3 1 c1.6 -1.9 0.4 -3.5 -2.6 -3.5 -2.8 0 -2.9 0.3 -1.2 3 1.5 2.4 2.2 2.5 3.8 0.5z m-12.6 -3.7 c1.4 -2.3 -0.2 -3.9 -3.2 -3.2 -2.1 0.6 -3 3.3 -1.5 4.8 1.1 1.1 3.5 0.3 4.7 -1.6z m25.1 1.1 c1 -1.5 -0.1 -2.3 -2 -1.5 -0.9 0.3 -1.3 1 -1 1.6 0.8 1.3 2.2 1.3 3 -0.1z m-39.6 -1.3 c0.9 -1 0.7 -1.7 -0.5 -2.7 -1.4 -1.1 -1.8 -1 -3 0.6 -0.8 1 -1.4 2.2 -1.4 2.7 0 1.3 3.7 0.9 4.9 -0.6z m32.1 -2.1 c1 -1.2 0.9 -1.6 -0.4 -2.1 -1.8 -0.7 -4.9 1.3 -4 2.7 0.8 1.4 3 1.1 4.4 -0.6z m-60 -2.3 c0 -0.4 -0.5 -1.4 -1 -2.2 -0.8 -1.3 -1.1 -1.3 -2.6 0.2 -2.4 2.3 -1.1 5.3 1.6 3.8 1.1 -0.6 2 -1.4 2 -1.8z m51.5 -0.6 c1.3 -1.9 1.4 -2.9 0.6 -4.5 -1.8 -3.2 -1.4 -3.8 4.7 -8 3.3 -2.2 8.2 -7.1 11.7 -11.6 3.8 -4.8 6.1 -7.1 6.3 -6.2 0.2 0.9 -0.2 2.5 -0.7 3.6 -1.6 2.9 -1.3 3.9 0.4 1.7 1.1 -1.4 1.5 -1.6 1.5 -0.5 0.1 1 0.6 0.8 1.8 -0.7 1.1 -1.3 3 -2.1 5.2 -2.2 1.9 0 3.9 -0.8 4.5 -1.6 1.2 -1.6 4.8 -1.2 7.3 0.7 0.9 0.7 1.8 0.5 3 -0.6 1.5 -1.6 1.5 -1.8 -0.3 -3.2 -1.1 -0.8 -3.2 -1.5 -4.7 -1.6 -1.6 -0.1 -3.4 -0.2 -4 -0.3 -0.7 -0.1 -1.2 0.4 -1.1 1.1 0.3 1.6 -5.4 3.5 -6.3 2.1 -0.7 -1 1 -2.7 4.6 -4.8 1.2 -0.7 1.3 -1.1 0.3 -2.1 -0.7 -0.7 -1.3 -2.5 -1.3 -4 0 -2.7 0.1 -2.8 5.4 -2.4 3.9 0.3 5.7 0 6.6 -1 1.8 -2.2 0.3 -3.5 -4.1 -3.5 -3.6 0 -4 -0.2 -3.4 -2 0.5 -1.5 0.3 -1.8 -0.9 -1.4 -1.9 0.7 -1.9 0 -0.2 -7.9 0.6 -3.2 1.5 -5.5 1.9 -5.1 1.1 1.1 3.7 -1.7 3.7 -4 0 -3.2 -2.7 -6.6 -4.8 -6 -1.2 0.3 -1.1 0.1 0.3 -0.6 1.1 -0.7 3 -2.7 4.3 -4.7 2.8 -4.3 1.5 -6.8 -3 -5.9 -2.7 0.5 -2.8 0.4 -2.8 -3.7 0 -3.6 0.4 -4.4 2.7 -5.5 2.5 -1.1 2.9 -1 4.4 0.9 1.9 2.6 4.9 2 4.9 -0.9 0 -3.2 -4.4 -6.4 -9.1 -6.6 -3.8 -0.2 -4.4 -0.5 -5.1 -3.2 -1.2 -4.3 -0.3 -6.1 2 -4 2.3 2 3.6 2 5.2 0.1 1.9 -2.3 -3.8 -7.5 -8.2 -7.5 -3 0 -3.6 -0.5 -5.6 -4.5 -2.1 -4.3 -2.1 -4.5 -0.3 -4.5 2.2 0 3.7 -1.7 4.5 -5 0.8 -3.3 -3.5 -8.4 -6.3 -7.5 -1.5 0.4 -1.8 0.1 -1.4 -1.8 0.4 -1.9 -0.3 -2.9 -3.2 -4.7 -4.2 -2.6 -7.2 -1.8 -6.8 1.7 0.2 1.6 -0.3 1.9 -2.2 1.5 -1.5 -0.2 -2.5 -1.1 -2.5 -2.1 0 -2 -1.9 -4.1 -3.7 -4.1 -0.7 0 -1.8 1.1 -2.4 2.4 -1.4 3 -5.8 4 -8.1 1.9 -2.4 -2.1 -5.3 -1.3 -5.3 1.6 0 3.7 -1.9 3.5 -3.8 -0.4 -1.2 -2.5 -2.4 -3.5 -4.2 -3.6 -1.4 -0.1 -3.1 -0.2 -3.7 -0.3 -0.7 -0.1 -1.3 1 -1.3 2.3 0 1.7 1 3 3 4.1 4.3 2.4 4.4 4.7 0.1 6.5 -4.4 1.9 -5.6 1.9 -5.6 0.1 0 -0.8 -0.5 -1.8 -1.2 -2.2 -1.5 -0.9 -4.8 3.2 -4.8 6 0 1.3 -0.3 2.6 -0.7 2.9 -0.3 0.4 -0.7 1.7 -0.9 2.9 -0.5 4.3 -4.5 12 -5.7 11 -2.2 -1.6 -5.2 -0.8 -5.2 1.3 -0.1 1.1 -0.4 2.5 -0.8 3.2 -0.4 0.6 -0.5 3 -0.1 5.1 0.3 2.3 0.1 5.6 -0.6 7.6 -1.3 4.2 -0.2 6.6 3.1 6.6 1.4 0 1.9 0.7 1.9 2.8 0 3.1 -2.6 9.2 -3.9 9.2 -1.5 0 -2.1 -1.3 -1.1 -2.5 0.6 -0.7 0.9 -2.7 0.7 -4.6 -0.2 -3.1 -0.5 -3.4 -3.9 -3.7 -2.9 -0.2 -3.9 0.1 -4.8 1.7 -1.4 2.7 0.3 6.1 3 6.1 2.2 0 2.6 1 0.9 2.7 -1.8 1.8 0.9 7.2 3.3 6.5 1.5 -0.3 1.8 0.2 1.8 2.7 0 3.5 -0.7 3.9 -2.6 1.4 -1.2 -1.7 -1.4 -1.7 -3 -0.1 -1.4 1.4 -1.5 2 -0.5 3.2 0.7 0.8 1.4 3.5 1.6 5.8 0.2 2.4 0.4 4.7 0.4 5.1 0.1 0.4 1.5 1.3 3.1 1.8 1.7 0.6 3 1.8 3 2.6 0 0.8 -0.5 1.1 -1.2 0.7 -0.7 -0.5 -0.9 -0.2 -0.6 0.8 0.3 0.8 1.8 5.1 3.2 9.7 3.6 11.5 3.5 12.8 -1.3 9.5 -3.5 -2.5 -4.9 -0.4 -2.8 4.1 1.9 4 2.4 4.1 5.5 1.9 1.3 -0.9 2.5 -1.4 2.6 -1.3 0.2 0.2 1.6 2.8 3.2 5.8 1.6 2.9 3.9 6 5.1 6.8 1.3 0.9 2.3 2.1 2.3 2.7 0 0.7 0.9 2.2 2 3.4 1.1 1.2 2 2.8 2 3.6 0 1.9 2 3.2 2.9 1.8 0.3 -0.5 2.4 -0.9 4.7 -0.9 3.1 0.1 5 -0.5 7.8 -2.6 3.4 -2.6 3.6 -2.7 3.6 -0.8 0 1.1 -0.9 2.5 -2 3.1 -2.9 1.6 -2.4 3 1 3 2 0 3.5 -0.8 4.5 -2.4z m-31.6 -1.3 c0.3 -0.2 -0.4 -1 -1.5 -1.8 -1.9 -1.4 -1.9 -1.5 0.3 -3.2 l2.3 -1.8 -2.6 -4.2 c-3.8 -6.4 -6.4 -5.4 -6.4 2.3 0 2.7 -0.4 3.4 -2 3.4 -2.3 0 -2.4 -0.3 -0.8 -3 1 -1.6 1 -2.3 -0.4 -3.6 -1.8 -1.8 -3.8 -1.1 -3.8 1.2 0 0.8 -0.4 1.3 -0.8 1 -0.4 -0.2 -1.4 -0.1 -2.1 0.3 -1.1 0.7 -0.8 1.5 1 4 1.7 2.3 2.6 2.8 3.6 2 1 -0.9 1.3 -0.7 1.3 0.9 0 2.4 3.1 4.5 5.3 3.6 0.8 -0.3 1.8 0 2.2 0.6 0.5 0.8 1.1 0.7 2.3 -0.2 1 -0.7 1.9 -1.4 2.1 -1.5z m65 0.3 c1 -1.2 0.8 -1.7 -0.9 -2.6 -2.6 -1.4 -4.6 0 -3.7 2.4 0.8 2 3.1 2.1 4.6 0.2z m9.1 -2.7 c0 -1.5 -3 -2.3 -4.2 -1.1 -0.6 0.6 -0.8 1.8 -0.4 2.7 0.4 1.3 1 1.4 2.6 0.5 1.1 -0.6 2 -1.5 2 -2.1z m-32.3 -5.4 c-0.5 -1.4 -3.7 -1.9 -5 -0.6 -0.7 0.7 -0.6 1.5 0.2 2.5 1 1.2 1.6 1.3 3.2 0.3 1 -0.6 1.8 -1.6 1.6 -2.2z m9.3 1 c0.7 -0.9 1 -1.8 0.7 -2.1 -1.1 -1.1 -5.7 0.6 -5.7 2.1 0 2 3.4 1.9 5 0z m-111.5 -3.7 c0.5 0.4 0.5 0.1 0.1 -0.5 -1 -1.9 -3.6 -1.6 -3.6 0.3 0 1.3 0.3 1.4 1.3 0.5 0.8 -0.6 1.8 -0.7 2.2 -0.3z m114.5 -3.3 c0 -1.7 -3 -3.4 -4.7 -2.8 -0.7 0.3 -1.3 1.5 -1.3 2.8 0 1.3 0.6 2.5 1.3 2.8 1.7 0.6 4.7 -1.1 4.7 -2.8z m-69.6 -0.1 c2.3 -0.9 2 -3.4 -0.3 -3.4 -2.2 0 -3.5 1.5 -2.6 3 0.7 1.2 0.8 1.2 2.9 0.4z m-9.6 -7.7 c0.4 -2 -2.5 -3.4 -4 -1.9 -1.5 1.5 -0.1 4.4 1.9 4 1 -0.2 1.9 -1.1 2.1 -2.1z m87.2 0.8 c1 -1.2 1 -1.9 0.2 -2.7 -1.3 -1.3 -4.2 0.6 -4.2 2.8 0 1.9 2.4 1.8 4 -0.1z m9.1 -2.5 c0.5 0 0.9 -0.7 0.9 -1.5 0 -1.8 -2.1 -2 -3.8 -0.3 -1.7 1.7 -1.5 3.1 0.4 2.4 0.9 -0.3 2 -0.6 2.5 -0.6z m-89.1 -4 c0 -2.2 -1.4 -4 -3.1 -4 -2.1 0 -2.6 2.9 -0.8 4.7 1.2 1.2 3.9 0.7 3.9 -0.7z m-38 -7 c2.1 -1.3 0 -3.1 -2.8 -2.4 -1.2 0.4 -2.2 1.3 -2.2 2 0 1.6 2.8 1.8 5 0.4z m44 -0.5 c0.7 -0.9 0.9 -2.2 0.5 -3.2 -0.5 -1 -0.7 -2.2 -0.6 -2.7 0.3 -1.4 -2.1 -3.6 -4 -3.6 -1.3 0 -1.9 0.9 -2.1 3.3 -0.6 6.3 3 10 6.2 6.2z m98.2 -0.2 c2.7 -2.4 2.2 -3.3 -1.6 -3.3 -3.9 0 -5.3 1.4 -3.6 3.5 1.6 1.9 2.9 1.9 5.2 -0.2z m6.6 -4.5 c1.9 -1.9 1.4 -2.8 -1.2 -2.8 -2.7 0 -4.1 1.4 -3.1 3 0.8 1.4 2.8 1.3 4.3 -0.2z m-115.1 -4.8 c0.6 -1.2 1.7 -2.6 2.3 -3 1.6 -1 0.3 -5 -1.5 -5 -1.8 0 -5.5 5.2 -5.5 7.7 0 4 2.7 4.2 4.7 0.3z m103.1 -7.3 c0.4 -1.8 -1.4 -2.2 -3.7 -0.8 -0.7 0.5 -1 1.4 -0.6 2 1 1.7 3.9 0.9 4.3 -1.2z m-104 -5.9 c1.8 -1.8 1.4 -2.8 -1.1 -2.8 -3 0 -4 1 -2.6 2.7 1.4 1.6 2.2 1.6 3.7 0.1z m99.7 -2.3 c0 -1.4 -0.8 -2.1 -2.7 -2.3 -3 -0.4 -3.8 1.4 -1.6 3.6 1.8 1.8 4.3 1 4.3 -1.3z m-98.6 -2.9 c1 -1.1 0.9 -1.6 -0.5 -2.4 -1.5 -0.8 -1.4 -1.1 0.7 -2.5 1.2 -0.9 2 -2 1.6 -2.3 -0.4 -0.4 -0.3 -1.2 0.2 -1.8 0.6 -0.7 0.4 -1.8 -0.4 -2.9 -1 -1.4 -1.8 -1.6 -3.9 -0.7 -1.5 0.5 -2.6 1.7 -2.6 2.8 0 1 -0.5 2.3 -1.1 2.9 -1.7 1.7 -0.7 5.8 1.4 5.7 0.9 -0.1 1.7 0.4 1.7 1.2 0 1.8 1.4 1.8 2.9 0z m107.9 -9.9 c0.3 -1.2 -0.3 -1.7 -2.1 -1.7 -3.1 0 -4 1 -2.5 2.7 1.5 1.8 4.2 1.2 4.6 -1z m4 -7.9 c1.9 -1.9 1.4 -3.5 -1.4 -4.2 -3.4 -0.9 -4 -0.2 -2.6 2.9 1.3 2.8 2.2 3.1 4 1.3z m-7 -4.5 c0.2 -0.8 -0.6 -1.3 -2.2 -1.3 -2.6 0 -4 1.2 -2.9 2.4 1.1 1.1 4.6 0.2 5.1 -1.1z m-99 -8.4 c0.2 -1.2 -0.6 -1.8 -3.3 -2.1 -3.7 -0.4 -6.2 1.2 -5 3.2 1.1 1.7 7.9 0.8 8.3 -1.1z m-6 -10.5 c0.2 -0.1 -0.4 -0.9 -1.4 -1.8 -2.3 -2.3 -4.9 -0.3 -3.3 2.6 0.9 1.6 1.3 1.7 2.7 0.6 0.9 -0.7 1.8 -1.3 2 -1.4z m105.6 -5 c0.9 -2.4 0.7 -3.4 -0.8 -3.4 -2.2 0 -3.8 2.4 -2.4 3.8 1.6 1.6 2.5 1.5 3.2 -0.4z m44.9 -3.9 c2.2 -1.6 1.5 -5.5 -0.9 -5.5 -1.6 0 -3.8 4.6 -2.8 6.1 0.7 1.2 1.6 1.1 3.7 -0.6z m-142.8 -0.8 c2.5 -1.9 1 -3.9 -2.3 -3.1 -3.8 0.9 -4.2 1.3 -3.5 2.9 0.7 1.9 3.3 1.9 5.8 0.2z m106.4 -4 c1.4 -1.8 -0.4 -3.6 -3 -3 -2.2 0.6 -2.4 1.4 -0.7 3.1 1.5 1.5 2.3 1.5 3.7 -0.1z m-178.9 -1.7 c1.3 -0.9 1.1 -1.3 -0.9 -2.9 -2 -1.5 -2.1 -1.9 -0.7 -2.4 2.8 -1.1 1.9 -3.7 -1.3 -3.7 -3.4 0 -5.1 1.8 -3 3.1 1.1 0.6 1.1 1.1 0.2 2 -0.8 0.8 -0.9 1.8 -0.2 3.1 1.1 2 3.6 2.3 5.9 0.8z m72.6 -0.2 c1.6 -2.6 1.3 -5.8 -0.8 -6.9 -1.7 -0.9 -2.3 -0.8 -3 0.5 -0.5 0.9 -1.6 1.6 -2.3 1.6 -2.1 0 -1.9 1 0.7 3.7 2.4 2.5 4.3 2.9 5.4 1.1z m84.2 -4.9 c-1.4 -4 -2 -4.2 -5.1 -1.3 -2.9 2.7 -2.7 5.1 0.7 6.4 3.4 1.3 5.7 -1.4 4.4 -5.1z m-172.4 4.5 c1.7 -0.7 2.2 -2.9 0.8 -3.8 -0.5 -0.3 -1.8 -0.2 -3 0.1 -2.4 0.6 -3 2.8 -0.9 3.6 0.6 0.3 1.3 0.6 1.4 0.6 0.1 0.1 0.8 -0.2 1.7 -0.5z m98.5 -1.7 c0.6 -0.8 0.8 -1.7 0.4 -2 -0.7 -0.8 -4.3 -1 -4.3 -0.3 0 0.2 -0.3 1.1 -0.6 2 -0.8 2 2.8 2.2 4.5 0.3z m-65 -3.4 c2.2 -1.5 2.3 -1.7 0.6 -2.9 -2.3 -1.7 -4.5 -0.7 -4.5 2.2 0 2.8 0.7 3 3.9 0.7z m214 0.3 c0.7 -0.9 0.8 -1.7 0.2 -2 -1.4 -0.9 -4.1 0.4 -4.1 2 0 1.8 2.4 1.8 3.9 0z m-64.5 -2.2 c0.3 -0.9 0.4 -2 0.1 -2.4 -0.9 -1.5 -3.5 0.1 -3.5 2.1 0 2.3 2.5 2.5 3.4 0.3z m61.6 -4.6 c0 -2.6 -1.6 -3 -4.1 -0.9 -2 1.6 -2.1 2.1 -1 3.4 1 1.3 1.6 1.4 3.2 0.4 1 -0.6 1.9 -1.9 1.9 -2.9z m-152.8 -3.6 c0.7 -1 2.1 -2.1 3.1 -2.5 2.1 -0.8 2.2 -3 0.2 -4.7 -1.6 -1.3 -3.5 -0.6 -3.5 1.4 0 0.8 -0.9 1.6 -2 1.9 -2.7 0.7 -2.6 5.7 0.1 5.7 0.4 0 1.4 -0.8 2.1 -1.8z m83.8 -0.7 c0.7 -0.8 1.8 -1.5 2.4 -1.5 2.2 0 3.7 -2.2 2.5 -3.7 -2.6 -3 -10.9 -0.2 -10.9 3.7 0 3 4 4 6 1.5z m-68 -3 c1.1 -1.3 1 -1.8 -0.6 -3 -1.5 -1.1 -2.2 -1.1 -3.2 -0.1 -1.5 1.4 -0.6 4.6 1.3 4.6 0.7 0 1.8 -0.7 2.5 -1.5z m59.7 -4.8 c0.9 -1 -0.5 -3.7 -2.3 -4.4 -2 -0.7 -4.9 2.1 -4.1 4 0.6 1.5 5 1.7 6.4 0.4z m-74.9 -2.5 c1.5 -1 0.5 -4.5 -1.2 -3.9 -1.3 0.4 -2.1 4.7 -0.9 4.7 0.4 0 1.4 -0.4 2.1 -0.8z m42.2 -1.7 c1.5 -1.8 -0.1 -6.5 -2.1 -6.5 -0.9 0 -0.9 -0.3 0 -1.4 0.9 -1 0.8 -1.6 -0.4 -2.6 -1.3 -1 -1.9 -1 -3.3 0.4 -1 0.9 -2.2 1.3 -2.5 1 -1 -1.1 -3.7 1.7 -3.7 3.7 0 2.3 3.2 2.6 5 0.4 1.7 -2 3.2 -0.9 3 2.3 -0.1 1.5 -0.2 3 -0.1 3.5 0.2 1.3 2.8 0.8 4.1 -0.8z m13 0 c1.8 -2.1 0.4 -6.5 -2 -6.5 -1.7 0 -2 0.7 -2 4 0 4.3 1.7 5.3 4 2.5z m-38 -3 c0 -2.4 -1.2 -4.5 -2.6 -4.5 -0.8 0 -1.4 -0.5 -1.4 -1.1 0 -0.6 -0.8 -0.9 -1.7 -0.7 -1 0.2 -1.8 1 -1.8 1.8 0 0.8 0.5 1.4 1.2 1.3 0.6 -0.1 1.6 1.1 2.2 2.7 0.7 2.1 1.5 2.8 2.5 2.4 0.9 -0.3 1.6 -1.2 1.6 -1.9z m51 -2 c1.3 -1.6 0.6 -3.5 -1.5 -3.5 -1.8 0 -2.8 1.7 -2.1 3.5 0.7 1.9 2 1.9 3.6 0z m7.7 -7.9 c-0.7 -1.8 -4.2 -2.2 -5.2 -0.5 -0.4 0.5 0.1 1.9 1.1 3 1.5 1.7 1.9 1.8 3.2 0.5 0.8 -0.8 1.2 -2.2 0.9 -3z m-18.9 1.2 c0.3 -1.3 -0.3 -1.8 -2.2 -1.8 -2.7 0 -4.1 1.4 -3.1 3.1 1 1.6 4.9 0.6 5.3 -1.3z m73.2 -0.8 c0.8 -0.5 1.2 -1.1 0.9 -1.4 -0.7 -0.8 -4.9 0.5 -4.9 1.5 0 1.2 2.1 1.1 4 -0.1z m18.8 -8.7 c0.2 -0.8 -0.5 -1.3 -1.7 -1.3 -2.1 0 -3.5 1.3 -2.4 2.4 1 1 3.6 0.3 4.1 -1.1z m-40.8 -11.4 c0 -1 -3.4 -1.2 -4.3 -0.2 -0.4 0.3 -0.2 1.2 0.4 2 0.9 1 1.5 1 2.5 0.2 0.8 -0.6 1.4 -1.5 1.4 -2z m-71.3 -1.1 c3.5 -1.7 7.3 -12.5 7.3 -20.8 0 -6 -2.2 -14.1 -4.1 -15.3 -2 -1.2 -5.9 -0.3 -8.9 2.1 -1.4 1.2 -2.3 3.1 -2.5 5.7 -0.2 2.2 -1 6.3 -1.8 9.1 -3.9 13.1 -1.6 22.3 5.1 20.8 1.5 -0.3 3.7 -1 4.9 -1.6z m-47.7 -3.3 c1.5 -1.8 0.5 -3.5 -2.1 -3.5 -1.2 0 -1.9 0.7 -1.9 1.8 0 3.3 2 4.2 4 1.7z m85.9 -0.2 c3.6 -3 4.8 -20.8 2 -29.8 -1.4 -4.4 -3.6 -7.5 -5.4 -7.5 -2.7 0 -6.5 4.9 -6.5 8.3 0 1.8 -0.6 3.9 -1.2 4.5 -2.1 2.1 -1.7 20.1 0.5 23.5 2.1 3.2 7.3 3.7 10.6 1z m-77.9 -7.8 c1.5 -1.8 1.3 -2.1 -2.3 -3 -2.9 -0.8 -3.8 1 -1.5 3.3 1.6 1.6 2.3 1.5 3.8 -0.3z m106.4 -1.1 c0.9 -0.3 1.6 -1 1.6 -1.6 0 -1.4 -4.3 -0.5 -4.8 1 -0.4 1.3 0.7 1.5 3.2 0.6z m-2.1 -13.2 c1 -1 1.4 -2.2 1 -2.5 -1 -1 -4.3 -0.8 -4.3 0.2 0 0.5 -0.3 1.6 -0.6 2.5 -0.9 2.2 1.9 2.1 3.9 -0.2z m-96.9 -4.8 c2 -0.8 2 -2.8 0.1 -4.4 -2.1 -1.7 -3.9 0.1 -3 2.9 0.7 2.3 0.7 2.3 2.9 1.5z m5.2 -7.9 c1.8 -1.7 1 -5.5 -1.1 -5.5 -2 0 -2.8 1.7 -2.1 4.6 0.7 2.8 1.2 2.9 3.2 0.9z m86.4 -4.7 c2.5 -2.7 2.5 -3.8 0.1 -3.8 -2.8 0 -4.1 2.2 -3.2 5.5 0.2 0.9 1 0.5 3.1 -1.7z m-71 -14.3 c1.4 -1.6 0.6 -3.5 -1.6 -3.5 -0.8 0 -1.4 1 -1.4 2.5 0 2.8 1.2 3.2 3 1z m11 -12.7 c0 -1.5 -0.5 -1.8 -2.2 -1.3 -3.5 1.1 -4.1 2.1 -2.8 4.5 1.1 2.1 1.2 2.1 3.1 0.4 1 -0.9 1.9 -2.6 1.9 -3.6z m15.8 -7 c2 -2 1.4 -3.7 -1.3 -3.4 -2.5 0.3 -2.7 0.8 -1.8 3.4 0.6 1.5 1.6 1.5 3.1 0z m22.2 -2.8 c-3.4 -2.2 -5.6 0 -2.8 2.8 1 0.9 1.6 0.9 2.8 -0.3 1.3 -1.4 1.3 -1.7 0 -2.5z"/>
  <path d="M239.5 397 c-0.3 -0.5 -1.3 -0.6 -2.3 -0.3 -1.6 0.6 -1.6 0.6 -0.1 -0.9 2.1 -2.1 6.9 -2.8 6.9 -1 0 1.3 -3.9 3.2 -4.5 2.2z"/>
  <path d="M91.3 389.3 c-1.5 -0.6 -1.6 -2.3 -0.4 -5.7 0.9 -2.2 1.2 -2.3 3.5 -1.3 3 1.4 3.2 2.4 1 5.5 -1.6 2.3 -2 2.4 -4.1 1.5z"/>
 </g>
</svg>