<?xml version="1.0" encoding="utf-8"?>
<!DOCTYPE svg PUBLIC "-//W3C//DTD SVG 20010904//EN" "http://www.w3.org/TR/2001/REC-SVG-20010904/DTD/svg10.dtd">
<svg version="1.0" xmlns="http://www.w3.org/2000/svg" width="251px" height="211px" viewBox="0 0 251 211" preserveAspectRatio="xMidYMid meet">
 <g fill="#000000">
  <path d="M78.4 199.5 c-15.6 -17 -29.5 -36.5 -36.7 -51.7 -2 -4.3 -3.7 -8 -3.7 -8.3 0 -0.2 -2.7 -6.2 -6.1 -13.2 -8.9 -18.8 -22.6 -52.2 -25.9 -63.3 -4.3 -14.1 -4.8 -18 -3.5 -26.2 1.1 -7.2 1.4 -7.8 7.1 -13.9 13.5 -14.5 15.4 -15.5 37.9 -19.9 9.6 -1.9 27.6 -2 36.5 -0.1 7.9 1.7 14.8 3.8 16.6 5.2 6.1 4.8 13.9 14.2 20.3 24.2 4 6.5 7.9 11.7 8.5 11.7 0.7 0 3 -1.8 5.1 -4 6.4 -6.6 33.9 -21.2 43.1 -22.9 3.2 -0.6 8.3 -1.8 11.3 -2.7 2.9 -0.9 10.3 -1.8 16.5 -2.1 10.1 -0.5 11.9 -0.3 19.7 2.1 18.3 5.6 24.9 14.4 24.9 33 -0.1 13.3 -1.5 22.4 -5.4 34.1 -4.8 14.2 -8.6 21.3 -15.3 28.7 -26.4 28.6 -26.5 28.8 -63 54.4 -18.5 13 -24 16.4 -46.8 29.8 -9.9 5.7 -20 11.4 -22.5 12.5 -7.9 3.6 -8.8 3.2 -18.6 -7.4z m27.6 -9.5 c3.1 -1.9 6.4 -4.1 7.5 -4.7 1.1 -0.7 5.4 -3.2 9.5 -5.5 4.1 -2.4 8.2 -4.7 9.1 -5.3 4.7 -3 11.7 -7.7 13.4 -9.1 1.1 -0.8 8.1 -6 15.5 -11.4 26.5 -19.2 43.2 -34.6 56 -51.6 12.6 -16.6 17.9 -29.1 20.1 -47.1 1 -8.2 0.9 -11.4 -0.1 -16.2 -0.7 -3.4 -1.6 -6.1 -2 -6.1 -0.4 0 -1.1 -1 -1.7 -2.2 -1.6 -3.4 -18.8 -9.2 -24.6 -8.3 -9 1.4 -29.7 6.6 -34.8 8.7 -13.3 5.5 -36.3 21.1 -38.5 26.2 -0.7 1.7 -2 2.2 -6 2.4 -5.7 0.3 -5.9 0.2 -11.4 -8.9 -4.9 -8.2 -22.7 -26.9 -28.6 -30.1 -2.7 -1.5 -9.4 -4.1 -14.9 -5.9 -9.2 -2.9 -10.7 -3.1 -18.7 -2.5 -4.8 0.4 -11.2 1.5 -14.3 2.6 -5.7 2 -20.5 9.9 -20.5 11 0 0.3 -0.8 1.5 -1.9 2.6 -3 3.3 -4.1 6 -4.1 10.2 0 3.8 5.4 22.9 8.4 30.2 0.9 1.9 3.5 8.7 6 15 6 15.4 9.6 23.9 14.1 33.5 2 4.4 4.1 8.9 4.5 10 4.3 10.5 15.1 30.5 19.7 36.7 9.9 13.3 22.7 28.5 25.2 30.1 2.8 1.7 4.3 1.2 13.1 -4.3z"/>
 </g>
 <g fill="#ff3600">
  <path d="M90.5 197.8 c-3.1 -2.2 -15.7 -17.1 -25.8 -30.6 -4.6 -6.2 -15.4 -26.2 -19.7 -36.7 -0.4 -1.1 -2.5 -5.6 -4.5 -10 -4.6 -9.7 -8.2 -18.3 -14.1 -33.5 -2.4 -6.3 -5 -12.8 -5.8 -14.5 -2.5 -5.7 -7.8 -24 -8.7 -30 -1 -7.1 0.1 -12 3.6 -16.1 1.4 -1.6 2.5 -3.2 2.5 -3.5 0 -0.3 3.7 -2.6 8.3 -5.1 8.1 -4.5 19 -8.5 23.5 -8.6 17.7 -0.4 18 -0.4 27.9 2.8 5.4 1.7 12 4.3 14.7 5.8 6.2 3.4 23.6 21.9 29.1 30.8 2.2 3.7 4.8 7.2 5.6 7.7 2.1 1.3 5 0.2 5.6 -2.1 1.1 -4.4 25.2 -20.7 38.4 -26 7.5 -3.1 28.8 -8.1 37.5 -8.8 6.4 -0.6 8.1 -0.3 16.9 2.7 7.2 2.5 10 4 10.8 5.6 0.6 1.3 1.3 2.3 1.7 2.3 1.8 0 3.3 12.5 2.6 21.8 -0.8 12.7 -1.3 15.3 -4.2 23.9 -8.6 25.8 -31.4 51.5 -72.4 81.3 -7.4 5.4 -14.4 10.6 -15.5 11.4 -1.7 1.4 -8.7 6.1 -13.4 9.1 -0.9 0.6 -5 2.9 -9.1 5.3 -4.1 2.3 -8.4 4.8 -9.5 5.5 -15.3 9.6 -19.3 11.7 -21.5 11.6 -0.8 0 -2.8 -1 -4.5 -2.1z"/>
 </g>
</svg>