<?xml version="1.0" encoding="utf-8"?>
<!DOCTYPE svg PUBLIC "-//W3C//DTD SVG 20010904//EN" "http://www.w3.org/TR/2001/REC-SVG-20010904/DTD/svg10.dtd">
<svg version="1.0" xmlns="http://www.w3.org/2000/svg" width="763px" height="572px" viewBox="0 0 763 572" preserveAspectRatio="xMidYMid meet">
 <g fill="#000000">
  <path d="M394.7 553.4 c-0.3 -0.2 -59.9 -1.6 -65.2 -1.5 -50.6 0.7 -61.2 0.6 -67 -1.1 -3.3 -0.9 -8 -2 -10.5 -2.3 -9.6 -1.4 -26.6 -5.7 -28.2 -7.2 -3.2 -2.9 -4.1 -7.9 -3.3 -19.2 1.1 -17.7 2.4 -27.3 3.8 -29 0.8 -0.9 2.5 -3.9 3.8 -6.8 2.4 -5.3 5.2 -7.5 11.1 -8.7 1.7 -0.4 2.9 -1.5 3.6 -3.4 0.9 -2.5 1.9 -3.1 9.3 -5 4.6 -1.2 11.3 -2.4 14.8 -2.7 3.5 -0.2 6.5 -0.6 6.7 -0.7 0.4 -0.5 4.6 -12.3 5.1 -14.7 0.3 -1.3 1.9 -6 3.5 -10.5 1.6 -4.4 3.5 -10.1 4.3 -12.6 6 -20.5 29.2 -64.6 37.9 -72.1 2.8 -2.4 3.2 -3.5 4.3 -12 0.6 -5.2 1.7 -13.8 2.4 -19.2 1.2 -9.4 1.1 -9.9 -1 -14.2 -2.5 -5.1 -2.1 -7.8 1.5 -10.1 3.2 -2.2 3 -5.1 -0.7 -10.2 -4.4 -6 -3.7 -7.9 4.1 -11.9 3.6 -1.8 7.4 -3.3 8.5 -3.3 1.1 0 2.9 -0.7 3.9 -1.5 2.6 -1.9 7.1 -1.9 12.9 0.1 5.2 1.8 7.1 1.5 8.6 -1.5 1 -1.7 0.3 -2.3 -6.9 -5.7 -4.4 -2 -8.7 -4.5 -9.6 -5.5 -1 -1.1 -2.3 -1.9 -3.1 -1.9 -0.7 0 -2.1 -0.9 -3 -2 -1 -1.1 -2.3 -2 -3 -2 -0.7 0 -11.5 5.2 -24 11.5 -45.7 23.1 -60.4 27.9 -85.8 28 -15.7 0 -20.9 -1.2 -32.9 -7.2 -23.9 -11.9 -52.3 -37 -65.2 -57.5 -1.4 -2.2 -3.7 -4.5 -5.2 -5.1 -1.5 -0.7 -4.7 -2.4 -7.2 -3.9 -2.5 -1.4 -6.7 -3.3 -9.4 -4.2 -2.7 -0.9 -6.7 -3 -9 -4.5 -3.3 -2.3 -5.6 -3 -11.6 -3.5 -12.9 -1 -23.5 -5.3 -40.1 -16.1 -18.2 -11.9 -29.3 -25.5 -31.4 -38.5 -0.4 -2.5 -1.1 -5 -1.7 -5.7 -1.3 -1.6 0.1 -6.2 2.2 -7.3 2.3 -1.2 4.6 -0.4 8.6 3 1.8 1.5 6.7 4.4 11 6.4 8.2 4 10.3 4.1 16.7 1.2 10.4 -4.6 14.5 -4 19.6 2.8 3.1 4.1 9.7 8.6 12.7 8.6 0.7 0 2.7 1.3 4.4 3 3.9 3.9 7.1 3.8 14.5 -0.1 7.3 -3.9 16.9 -4.5 21.3 -1.2 3 2.3 5 7.7 5.1 14 0.1 3.2 0.6 4.5 2.2 5.3 1.1 0.7 2.7 0.9 3.4 0.6 1.4 -0.5 13.5 10.8 13.5 12.5 0 1.5 3.2 1 5.1 -0.7 1.7 -1.5 1.9 -1.5 3 0.9 1.2 2.7 3.4 4.1 5 3.1 1.7 -1 0.9 -2.3 -4.8 -8.2 -6 -5.9 -6.5 -6.8 -12.7 -21.1 -5.9 -13.5 -14.2 -21.5 -20.5 -19.8 -1 0.2 -5.7 -0.2 -10.4 -0.9 -10.6 -1.5 -16.2 -4.8 -19.2 -11.1 -2.1 -4.5 -3.4 -5.1 -8.2 -3.2 -1.5 0.6 -5.2 1.5 -8 2 -4.4 0.8 -5.9 0.7 -8.9 -0.7 -2 -0.9 -4.1 -2.8 -4.7 -4.1 -0.9 -2.1 -1.6 -2.3 -8.1 -2.3 -5.2 0 -8.1 -0.5 -10.8 -2 -2.5 -1.3 -4.7 -1.8 -6.6 -1.4 -1.7 0.3 -3.2 0.1 -3.6 -0.5 -0.9 -1.4 1.1 -5.1 2.7 -5.1 3.1 0 8.5 -2.2 11.2 -4.5 1.6 -1.4 4.4 -3.5 6.2 -4.6 2.5 -1.5 3.3 -2.8 3.3 -4.9 0 -3.6 1.9 -5.1 7.2 -5.7 7.6 -0.8 8.8 -1.2 8.8 -3.2 0 -1.1 -1.5 -2.9 -3.5 -4.1 -3.8 -2.4 -7.6 -8.2 -9.3 -14.5 -3.6 -13.5 -5 -40.2 -2.5 -46.7 0.9 -2.1 1.2 -4.5 0.9 -5.4 -1 -2.6 2.3 -12.3 4.6 -13.5 2.5 -1.4 8.7 -0.3 9.5 1.7 0.3 0.8 -0.9 5.7 -2.6 10.9 -5.6 16.9 -5.1 21.5 2.2 21.5 4.7 0 7.2 2.3 8.7 7.7 0.6 2.6 1.6 6.2 2.1 7.9 l1 3.1 7.4 -0.1 c6.4 -0.1 7.7 0.2 9.6 2 l2.1 2.2 -2.7 8.1 c-3.1 9.4 -3 12.3 0.5 13.2 16.4 4.6 22.2 5.9 23 5.4 0.6 -0.3 1 0.1 1 0.9 0 2.8 4.4 1.9 5.8 -1.1 1.1 -2.5 0.9 -3.5 -2.4 -10 -2.5 -5.1 -3.3 -7.7 -2.6 -8.6 0.5 -0.6 0.7 -2.6 0.5 -4.4 -0.4 -2.7 -1.2 -3.5 -5.2 -5 -2.5 -0.9 -5.7 -2.7 -7.1 -4 -1.3 -1.2 -4.9 -3.6 -8 -5.2 -3.1 -1.7 -6.5 -4.6 -7.9 -6.6 l-2.4 -3.5 5.8 -6.5 c3.2 -3.6 5.6 -6.7 5.4 -6.9 -0.2 -0.2 -3.6 -2.2 -7.6 -4.4 -7.4 -4.3 -15.3 -12.2 -15.3 -15.2 0 -1 -0.9 -2.4 -2 -3.1 -1 -0.8 -2 -2.7 -2.2 -4.4 -0.3 -2.8 -0.1 -2.9 4.7 -3.8 2.7 -0.4 5.4 -1.2 6.1 -1.7 0.6 -0.6 4.2 -1.2 8 -1.4 3.8 -0.3 8.4 -1 10.3 -1.5 3.2 -1 8.5 -1.2 19.6 -0.8 6.7 0.3 10.1 2.8 28.3 21.2 10.9 11.1 16.6 17.8 21.6 25.5 3.8 5.8 7.7 11.7 8.7 13.2 1.1 1.5 1.9 3.6 1.9 4.6 0 1.1 1.1 4.4 2.4 7.3 6.2 14.1 8 28.6 7.1 58 -0.7 23.9 -0.2 29 3.7 33.8 1.2 1.6 1.7 3.3 1.3 4.8 -0.6 2.7 5.9 23.8 8.2 26.5 0.8 0.9 2.9 1.9 4.7 2.2 1.8 0.4 4.1 1.5 5.1 2.6 1 1.1 2.4 2 3.1 2 0.7 0 3.6 1.4 6.5 3.1 7.6 4.4 11.9 7.7 20.1 15.2 4.8 4.4 13.7 7.7 20.8 7.9 8.4 0.1 17 -1 20.5 -2.8 3.7 -1.8 7.6 -6.6 6.4 -7.8 -0.3 -0.3 -4 -1.2 -8.1 -2 -11.8 -2.3 -18.2 -5.8 -26.3 -14.5 -15.9 -16.9 -20 -20.6 -27 -24.1 -6.4 -3.2 -7.7 -3.5 -15.7 -3.5 -8.9 0 -10.4 -0.7 -9.2 -4 1 -2.6 10.9 -5.5 18.8 -5.5 l7.4 0 8.5 7.5 c4.7 4.1 10.3 9.6 12.4 12.1 12.8 15.7 19.3 20.8 26 20.2 4.5 -0.4 6.8 -3.3 3.9 -5 -5.8 -3.3 -17.6 -17 -22.7 -26.3 -1.5 -2.7 -4.6 -10.5 -9.3 -23.6 -2 -5.7 -4.4 -7.9 -10.4 -10 -9.7 -3.2 -8.6 -11.5 1.1 -8.8 7.2 2 15.1 11.9 18.7 23.4 4.8 15.2 17 31.4 27.7 36.8 9.9 5.1 25.5 5.8 31.6 1.5 2.5 -1.8 4.7 -2.1 16.5 -2.3 9.6 -0.2 15.1 -0.8 18.5 -2 3.5 -1.2 5.2 -1.3 6.1 -0.6 0.9 0.8 2.9 0.5 7.1 -0.9 3.1 -1.1 6.1 -1.7 6.5 -1.5 0.5 0.3 1.1 0.1 1.4 -0.4 0.6 -0.9 11.6 -4.6 16.6 -5.6 1.4 -0.3 5 -1 8 -1.7 3 -0.6 7.8 -1.1 10.5 -1 2.8 0.1 17.6 0.4 33 0.6 28.7 0.4 47.9 1.4 78.3 4.3 13.4 1.2 17.6 1.3 18.1 0.4 0.8 -1.2 3.3 -0.5 7.1 1.8 2.3 1.4 24.5 5.2 26.3 4.5 0.9 -0.3 2.3 0.1 3.1 0.9 0.8 0.8 4.1 1.7 7.3 2.1 9.8 1.1 21.6 3.8 44.1 10 10 2.8 13.7 3.4 15.1 2.6 3 -1.5 4 -1.2 4.7 1.4 0.5 2 2.1 2.9 10.2 5.6 12 4 17.2 6.4 24.2 11.1 6.7 4.5 15.8 14 18.5 19.4 1.1 2.1 2.7 4.7 3.5 5.7 2.8 3.5 7.2 16.4 8 23.8 1.3 11.8 -0.3 18.3 -5.7 24.2 l-4.5 4.7 2.2 3.6 c1.7 2.7 2 4.4 1.6 7 -0.5 2.7 -0.3 3.5 1.2 3.9 1.3 0.5 1.8 1.5 1.8 4 -0.1 1.9 -0.4 3.2 -0.8 3 -0.3 -0.2 -1.6 1.2 -2.8 3.1 -2.1 3.5 -2.2 3.7 -0.4 5.6 1 1.1 3.2 2.9 5.1 4 3.9 2.4 5.2 7.3 3.2 12.1 -1.2 3 -1.1 3.2 2.9 6.7 2.3 2 4.2 4.4 4.2 5.3 0 3.2 -5.4 14.3 -8.9 18.4 -2 2.3 -4.8 6.6 -6.3 9.6 -1.5 3 -3.9 6.5 -5.3 7.8 -2.1 1.9 -2.5 3.3 -2.5 7.8 0 4.6 -0.4 5.8 -2.9 8.3 -1.6 1.6 -3.7 2.9 -4.5 2.9 -1.3 0 -1.6 1.1 -1.6 5.1 0 4.6 -0.4 5.5 -3.8 8.9 -2.3 2.3 -5.5 4.3 -8 5 -4.5 1.2 -4.7 1.4 -5.7 7.3 -0.6 3.5 -0.4 3.9 2.7 5.5 1.8 0.9 4.5 3 6.1 4.5 2.5 2.4 2.8 3.2 2.3 6.5 -0.4 2 -1.2 4.9 -1.8 6.5 -0.9 2.4 -0.8 3 1.8 5 1.6 1.2 3.2 2.1 3.7 1.9 0.5 -0.1 0.6 0.1 0.3 0.6 -0.3 0.5 -0.1 2.5 0.5 4.5 1.1 4.1 0 6.5 -5.4 12.4 -2.6 2.8 -2.8 3.4 -1.9 6.5 1.6 5.2 2.4 12.8 1.4 12.8 -0.5 0 -1.2 0.9 -1.5 2 -0.6 2.3 -6.3 5 -10.5 5 -2.4 0 -3.1 0.5 -3.5 2.9 -0.9 4.1 -5.2 8.7 -8.9 9.5 -2.2 0.4 -4.4 0 -7 -1.3 -3.2 -1.5 -4.5 -1.7 -7.8 -0.9 -5.7 1.5 -10.9 0.3 -12 -2.7 -0.6 -1.6 -3.3 -3.6 -7.9 -5.9 -3.8 -2 -7.2 -4 -7.5 -4.5 -0.4 -0.5 -0.1 -2.2 0.4 -3.7 1.3 -3.4 0.6 -4.2 -5.6 -5.8 -3.8 -0.9 -5 -1.7 -5.2 -3.4 -0.4 -2.6 -2.3 -3.7 -7.9 -4.7 -2.2 -0.3 -4.9 -1.3 -6 -2 -2.1 -1.6 -10.3 -2 -10.3 -0.5 0 1.6 -6.2 5 -9.2 5 -3.3 0 -3.4 0.7 -1.3 8.8 0.8 3.1 1.7 7 2 8.5 0.3 1.5 0.9 2.6 1.3 2.3 0.4 -0.2 0.5 3.5 0.2 8.3 -0.4 7.6 -0.9 9.2 -3.2 12.4 -3.3 4.2 -4.1 4.4 -31.3 5.1 -18.1 0.5 -21.8 1 -50 7 -14.1 3.1 -33.4 4.4 -77.3 5.4 -16.7 0.4 -30.4 0.6 -30.5 0.6z m57.8 -12.4 c32.9 -1.9 37.7 -2.5 53 -6.7 5 -1.4 10.6 -3 12.5 -3.5 1.9 -0.5 13.2 -1.3 25.1 -1.8 24.8 -1.1 28.9 -2.1 28.9 -7 0 -5.6 -5.8 -27.1 -8.5 -31.5 -0.7 -1.1 -1.5 -3.6 -1.9 -5.4 -1.5 -8.1 -2.7 -11.4 -3.9 -10.2 -1.7 1.7 -10.4 1.3 -14.4 -0.5 -4.9 -2.4 -6.2 -4.9 -6.9 -13.4 -0.4 -4.4 -1.4 -8.9 -2.5 -10.7 -2.1 -3.8 -6 -14.4 -9.4 -25.9 -1.3 -4.5 -3.6 -10.8 -5 -13.9 -1.4 -3.2 -2.5 -6.8 -2.5 -8.1 0 -1.2 -0.4 -2.6 -1 -2.9 -0.5 -0.3 -1 -1.5 -1 -2.6 0 -1.7 -1.9 -6.2 -10 -23.4 -6.4 -13.8 -8 -18.3 -8 -23.1 0 -2.7 -0.6 -8 -1.4 -11.9 -0.8 -4 -1.4 -11.8 -1.3 -18 0.2 -9.7 0.5 -11.4 2.5 -14.2 1.4 -2 2.2 -4.6 2.2 -7.2 0 -3.4 0.6 -4.7 4.2 -8.1 3.2 -3.2 3.8 -4.4 2.8 -5 -1.8 -1.1 -3 -0.1 -5.5 4.7 -9.1 17.8 -17.6 30.8 -22.9 35.2 -3.9 3.2 -4.4 3.3 -10.8 2.9 -6.6 -0.5 -15.8 -4.5 -15.8 -6.8 0 -0.6 -0.5 -1 -1.2 -1 -0.7 0 -2.5 -1.2 -4 -2.7 l-2.8 -2.7 -4.3 4 c-5 4.8 -8.4 6.4 -13.6 6.4 -5.6 0 -6.6 -1.8 -6.6 -12.1 l0 -8.7 -6.9 7 c-8.3 8.5 -16.7 12.8 -26.3 13.6 -6.1 0.5 -6.2 0.4 -6.9 -2.4 -0.5 -1.6 -0.8 -5.9 -0.8 -9.6 -0.1 -3.8 -0.3 -6.8 -0.5 -6.8 -0.2 0 -3.5 2.5 -7.3 5.6 -3.8 3.1 -8.6 6.6 -10.6 7.7 -8.2 4.8 -7.9 4.2 -8.6 16.2 -1 15 -2.6 20.6 -7.3 24.4 -4 3.3 -9.8 4.2 -12.2 1.9 -1.6 -1.6 -2.6 -0.3 -8.7 10.9 -10.3 18.7 -18.2 40.2 -25.9 70.5 -8.4 33.1 -10.3 40.1 -11.4 43 -1.4 3.7 -6.7 6.8 -11.6 6.8 -3.4 0 -4.3 -0.5 -5.8 -2.9 -0.9 -1.6 -1.7 -4.5 -1.7 -6.5 l0 -3.6 -5 2.5 c-3.1 1.6 -6.6 2.5 -9.4 2.5 -3.6 0 -5 0.6 -7.4 3 -2.1 2 -4 3 -6.1 3 -2.8 0 -3.2 0.4 -4.7 5.3 -2 6.4 -3.1 29 -1.6 32.9 1.3 3.2 6.6 4.8 19.7 5.7 5 0.3 9.5 0.9 10.1 1.3 0.7 0.5 6.5 1.7 13 2.8 10.7 1.8 14.7 2 38.9 1.4 15.7 -0.3 30.3 -0.1 35 0.5 9.2 1.1 78.2 0.5 104 -0.9z m210.9 -38.5 c0.3 -0.8 1.1 -1.5 1.9 -1.5 0.7 0 3 -0.9 5.2 -2 2.2 -1.1 4.4 -2 4.9 -2 1.5 0 4.6 -3.2 4.6 -4.8 0 -0.9 0.7 -2.4 1.7 -3.4 1.4 -1.6 1.5 -2.3 0.3 -5.8 -1.2 -3.7 -1.1 -4.3 1.3 -8.9 3 -5.5 3.3 -7.1 1.3 -7.1 -0.8 0 -2.8 -1.6 -4.5 -3.5 -2.9 -3.4 -3 -3.7 -1.5 -5.9 1.6 -2.6 0.7 -4 -1.6 -2.5 -0.8 0.5 -3 0.9 -4.9 0.9 -2.6 0 -4.5 1 -8.2 4.5 -6.5 6.1 -10.6 6.2 -15.8 0.6 -2.4 -2.6 -4.8 -4 -7.3 -4.5 -7 -1.3 -7.4 -7.5 -1.1 -16.8 1.9 -2.9 3.9 -6.4 4.3 -7.8 0.6 -2.3 1.1 -2.5 5.6 -2.2 3.2 0.1 5.3 0.8 6.2 1.9 0.9 1.3 1.5 1.4 2.4 0.5 1.4 -1.4 5.7 -1.6 7.7 -0.3 2 1.3 6.8 -3.4 7.5 -7.4 0.4 -1.8 2.5 -6 4.7 -9.3 3.3 -4.9 4.1 -7.1 4.4 -11.6 0.4 -7.1 1.2 -9.4 3.6 -10.6 2.5 -1.4 4.9 -7.3 4.9 -12.2 0 -2.2 0.4 -4.7 0.9 -5.6 0.6 -1.1 0.5 -3.1 -0.2 -5.5 -1.2 -3.8 -2.1 -4.5 -3.2 -2.7 -0.3 0.6 -1.9 1 -3.6 1 -2.1 0 -2.9 -0.5 -2.9 -1.7 0 -1 -1.6 -3.8 -3.5 -6.2 -3.9 -4.9 -4.2 -6.1 -1.9 -9.6 2.3 -3.6 1.1 -8.8 -2.5 -11.2 -4.6 -2.9 -11.1 -12.2 -11.1 -15.9 0 -3.4 3.4 -8.3 8.9 -12.9 1.7 -1.5 3 -3.2 2.8 -3.8 -0.4 -1.3 -4.4 -3.8 -11.3 -7.1 -2.8 -1.3 -5.4 -2.9 -5.8 -3.5 -0.4 -0.6 0 -3.1 0.9 -5.7 1.7 -5.1 1.4 -6.4 -1.8 -6.4 -1.2 -0.1 -4 -0.8 -6.2 -1.6 -4.3 -1.6 -6.7 -1.9 -22.5 -3.5 -9.4 -0.9 -14 -1.4 -16.3 -1.8 -0.4 0 -2.2 -1.5 -4 -3.2 l-3.2 -3.1 -9.5 0.6 c-9.5 0.6 -18.8 2.9 -26.6 6.6 -4.8 2.4 -9.9 2.5 -16.8 0.6 -13.2 -3.8 -25.7 -3.3 -26.4 1 -0.2 1 -3.1 8 -6.4 15.4 -8 17.9 -8.4 22.1 -4.9 46.5 1.7 11.9 4 21.2 8 31.8 3.9 10.6 6.6 18.8 12.6 39.2 6.2 21.1 7.5 24.5 11.8 30.1 2.9 3.8 5.7 6.2 9.2 7.8 5.8 2.8 12.8 9.2 16.9 15.9 1.7 2.7 3.7 4.7 4.7 4.7 1 0 2.1 0.5 2.5 1.1 0.8 1.3 4.6 0.8 12.7 -1.7 4.3 -1.3 6.3 -1.5 8 -0.7 1.2 0.6 6 1.9 10.7 3 8.4 1.9 8.5 2 10.8 6.4 1.9 3.8 2.7 4.4 5.3 4.4 3.5 0 5.4 2.1 7.1 7.6 1 3.5 1.3 3.7 4.4 3.2 5.1 -0.8 8 0.4 10.3 4.2 1.8 3.1 2.5 3.5 6 3.5 2.2 0 4.3 0.5 4.6 1 0.9 1.5 3.2 1.2 3.9 -0.5z m51.5 -120.4 c0.7 -1.3 0.6 -2.4 -0.4 -3.7 -0.8 -1.1 -1.5 -3.1 -1.5 -4.6 0 -2.5 -0.1 -2.6 -3.2 -1.5 -1.8 0.6 -3.4 1.2 -3.6 1.3 -0.6 0.3 6.3 10.4 7 10.4 0.4 0 1.2 -0.8 1.7 -1.9z m-18.2 -24.1 c2 -1.5 4.1 -2 8.8 -2 l6.3 0 0.5 -6.2 c0.2 -3.5 0.1 -6.7 -0.3 -7.1 -0.4 -0.5 -3.5 0.3 -6.8 1.7 -3.4 1.4 -7.5 2.6 -9.1 2.6 -2.3 0 -3.4 0.7 -4.4 2.7 -1.2 2.3 -1.2 3.1 0.2 6.4 0.9 2.2 1.8 3.9 1.9 3.9 0.2 0 1.5 -0.9 2.9 -2z m1.1 -24.3 c0.7 -0.5 1.2 -3.2 1.2 -6.4 l0 -5.5 -3.9 3.5 c-2.1 1.9 -4.6 3.9 -5.6 4.4 -1.6 1 -1.6 1.1 0 3.6 1.4 2.2 2.2 2.6 4.4 2.1 1.4 -0.4 3.2 -1.1 3.9 -1.7z m-305.2 -22.5 c1.7 -1.5 5.1 -5.8 7.6 -9.7 6.2 -9.7 6.5 -10.3 3.8 -8 -1.2 1.1 -2.9 3.4 -3.6 5.1 -0.8 1.9 -3.4 4.5 -6.4 6.4 -2.7 1.8 -5 3.8 -5 4.5 0 0.7 -0.3 2 -0.6 2.9 -0.9 2.4 0.7 1.9 4.2 -1.2z m304.4 -15 c1.2 -2.6 2.8 -5.4 3.5 -6.2 1.5 -1.8 6.3 -13.1 7.7 -18.2 0.6 -2.1 0.7 -4.5 0.4 -5.5 -0.5 -1.2 -1.6 0.5 -4.1 6.1 -1.9 4.3 -4 8.6 -4.8 9.5 -0.8 0.9 -1.8 2.7 -2.2 4 -0.4 1.4 -2.7 4.6 -5.2 7.2 -2.6 2.8 -4 5 -3.4 5.4 0.6 0.3 1.1 2 1.1 3.7 l0 3.1 2.3 -2.1 c1.3 -1.2 3.4 -4.4 4.7 -7z m-439.5 -12.4 c17.7 -4 29 -8.8 62 -26.1 9.1 -4.8 30.6 -14.7 34 -15.7 2.2 -0.6 5.6 -1 7.5 -0.8 3.3 0.3 3.5 0.5 3.8 4.6 0.3 4.1 0.2 4.3 -3.5 5.9 l-3.8 1.6 4 1.9 c6.3 2.9 14.5 0.6 21.2 -6 4.3 -4.4 11.1 -7.2 17.4 -7.2 1.6 0 2.9 -0.7 3.3 -1.7 0.3 -1 1.4 -3.1 2.4 -4.8 1.7 -2.7 2.4 -3 6.5 -2.9 2.6 0 5 0.3 5.4 0.7 0.4 0.4 0.9 3.5 1.1 6.8 0.4 5.3 0.2 6.3 -1.9 8.6 -1.3 1.4 -4.9 3.8 -8 5.3 -3 1.6 -6.2 3.6 -7 4.6 -1.3 1.6 -1.2 1.6 0.6 0.7 5.9 -3 13.5 -5.9 18.2 -6.8 1.7 -0.3 3.7 -1.3 4.4 -2.1 1.2 -1.5 9.6 -2 11.4 -0.6 1.5 1.1 3.5 6 3.5 8.7 0 2.2 0.5 2.4 5.3 2.7 l5.2 0.3 0.3 3.8 c0.3 3.5 -0.2 4.4 -5.2 9.7 -3.1 3.2 -5.6 6.1 -5.6 6.4 0 1.5 8.2 -4.6 13.6 -10.1 6.4 -6.5 8.8 -7.7 14.5 -7.1 2.9 0.2 3.4 0.7 3.7 3.1 0.4 3.2 1.5 3.4 4.4 0.7 1.3 -1.2 3.6 -2 5.5 -2 2.9 0 3.3 0.3 3.3 2.7 0 2.5 0 2.6 2 0.8 1.1 -1 2 -2.4 2 -3 0 -0.7 0.9 -2.4 2.1 -3.9 1.5 -1.9 3 -2.6 5.4 -2.6 2.4 0 3.7 -0.7 4.9 -2.5 l1.6 -2.5 -4.4 0 c-5.2 0 -7.6 -2.4 -7.6 -7.6 0 -3.4 1.6 -4.4 7.6 -4.4 3.9 0 6.3 -2.5 10.9 -11.8 6.2 -12.5 11.8 -40.4 8.4 -41.7 -0.8 -0.3 -5.7 -0.9 -11 -1.3 l-9.7 -0.7 -0.6 8 c-0.4 4.3 -1.1 9.8 -1.6 12 -5.5 24.1 -7.6 30.6 -11.9 36.9 -3.4 4.9 -8.7 7.6 -15.2 7.6 -6.6 0 -9.9 -2.4 -9.9 -7.2 0 -4.8 0.9 -5.8 5.5 -5.8 10.3 0 17.6 -14 20.7 -39.6 1.5 -11.9 1.2 -12.6 -5.4 -12.2 -5.8 0.3 -5.3 -0.5 -7.7 13.3 -3.1 17.8 -10.3 33.1 -18 38.2 -2.5 1.7 -4.8 2.3 -9 2.3 -8.1 0 -10.1 -1.7 -10.1 -8.6 l0 -5.4 3.9 0 c2.9 0 4 0.5 4.3 1.6 0.2 1.3 1.4 0.6 4.7 -2.7 5.9 -6 11.6 -18.2 12.9 -27.9 0.6 -4.1 1.4 -8.6 1.8 -9.9 l0.7 -2.4 -15.4 0.6 c-25.9 1.1 -40.4 3 -52.9 7 l-3.5 1.1 3 0.7 c1.7 0.4 4.8 1.2 7 1.8 5.1 1.3 6.5 3.3 6.5 9.4 0 6.5 -3.1 10.7 -10.4 14.1 -6.8 3.2 -15.6 3.6 -18.4 0.8 -1.6 -1.6 -2.2 -1.6 -4.8 -0.5 -3.5 1.5 -14.8 1.7 -17.4 0.3 -1 -0.5 -2.1 -2.3 -2.5 -3.9 -0.6 -2.7 -0.9 -2.9 -3 -2.1 -4.4 1.7 -16.9 10.5 -15.3 10.8 2.3 0.4 3 4.4 2.2 12.6 -0.9 10.1 -1.5 10.6 -13.9 10.6 -9.6 0 -16 1 -41.5 6.6 -3.6 0.7 -12.1 1.7 -19 2 -12.3 0.6 -12.5 0.6 -14.6 -1.7 -1.2 -1.3 -2.7 -4 -3.3 -6 -0.7 -2.1 -3.4 -5.7 -6.3 -8.5 -2.8 -2.6 -5.7 -6.3 -6.5 -8.2 -0.8 -1.9 -2.5 -5.2 -3.9 -7.4 l-2.5 -3.9 -2 2.5 c-2.2 2.8 -7.4 3.5 -12.3 1.6 -2.2 -0.8 -2.6 -1.6 -2.6 -4.9 0 -2.2 0.4 -4.2 0.9 -4.6 2 -1.2 -3 -11.5 -6.6 -13.8 -0.7 -0.4 -1.3 -1.4 -1.3 -2.2 0 -0.7 -1.3 -4.9 -2.9 -9.2 -1.6 -4.3 -4.6 -12.3 -6.6 -17.8 -7 -19 -9.5 -22.6 -21.3 -30.7 -31.5 -21.6 -35.7 -24.2 -44.1 -27.1 -7.6 -2.6 -9.9 -3 -19.6 -2.9 -16.7 0.2 -31.3 2 -36.3 4.5 l-4.3 2.2 6.2 0.5 c5.8 0.5 6.2 0.7 7.8 4 1.9 4 3.8 4.3 11 1.6 2.8 -1.1 6.6 -1.6 10.5 -1.4 l6.1 0.3 0.6 3.8 c1.4 8.5 10 12.4 24.6 11.1 6.6 -0.6 7.5 -0.4 11.7 2 5.7 3.4 10.9 9.5 13.7 16.2 2.1 5.1 2.4 5.3 6.3 5.6 5.2 0.4 6.9 3.3 9.6 15.9 1.1 5.2 3.4 12.4 5 16 3.1 6.9 3.8 12.7 1.8 14.7 -2 2 -9.6 1.5 -12.5 -0.8 -1.4 -1.1 -4.1 -2 -5.9 -2 -1.8 0 -3.6 -0.4 -3.9 -1 -0.3 -0.5 -2.2 -1 -4.1 -1 -3 0 -4.3 -0.9 -9.5 -6.5 -5.7 -6 -6.4 -6.5 -10.4 -6.5 -4.8 0 -4.8 0 -6.1 -10.5 -1.5 -13.4 -6.4 -15.5 -20.2 -8.5 -5 2.6 -7 3 -15.2 3.2 -9 0.3 -9.8 0.1 -13.9 -2.5 l-4.4 -2.9 -3.1 2.3 c-1.7 1.3 -4.3 3.4 -5.8 4.7 l-2.7 2.5 2.4 1.8 c3.8 3.1 17.3 9.6 24.1 11.9 3.7 1.2 9 2 12.9 2 5.2 0 7.3 0.5 10.3 2.4 2 1.3 6.4 3.2 9.7 4.1 3.3 0.9 7.2 2.4 8.8 3.2 3.9 2 10.7 8.2 10.7 9.8 0 3.1 11.9 18.2 25 31.5 11 11.2 31.3 26.6 42.5 32.2 5.7 2.8 16.5 6.5 21 7.1 5.2 0.7 16.7 -0.4 26 -2.5z m420.2 -1.1 c0.4 -0.8 2 -2.1 3.4 -3.1 2.3 -1.5 11.9 -15.5 11.9 -17.4 0 -0.4 0.6 -1.9 1.4 -3.4 0.8 -1.4 2.3 -5.1 3.4 -8.1 l2.1 -5.4 -5.4 -5.3 c-3 -3 -5.6 -5.2 -5.8 -4.9 -0.2 0.2 -1.2 3.3 -2.1 6.9 -2.8 10.2 -8.5 27.6 -10.1 30.7 -2.7 5.1 -1.5 14.5 1.2 10z m-281 -20 c0.9 -1.4 -8.4 5.2 -10 7.2 -0.7 0.8 1.2 -0.3 4 -2.3 2.9 -2.1 5.6 -4.3 6 -4.9z m269.9 -3.7 c4.6 -9.2 6.7 -14.7 8.4 -22.5 0.6 -2.8 1.3 -5.8 1.6 -6.7 0.4 -1.3 -0.8 -2.4 -5 -4.5 -3.1 -1.5 -5.8 -2.4 -6.1 -2.1 -0.3 0.3 -1 4.1 -1.5 8.4 -0.5 4.4 -1.4 9.3 -2 10.9 -0.7 1.7 -2.1 6.3 -3.1 10.4 -1.1 4.1 -2.9 9.1 -4 11.3 l-2 3.9 4.7 -0.3 4.7 -0.3 4.3 -8.5z m-106.4 2 c1 0 2.6 -0.4 3.6 -0.9 0.9 -0.6 2.8 -1.2 4.2 -1.5 3.8 -0.8 9.6 -6.1 11.8 -10.8 3.5 -7.2 5.8 -41.9 3.2 -46.8 -0.6 -1.1 -3.1 -2.2 -7.1 -2.9 -3.3 -0.7 -6.7 -1.5 -7.5 -1.8 -1.1 -0.4 -1.4 0.8 -1.4 6.1 0 3.6 -0.9 10.5 -2 15.3 -1.2 4.8 -2.3 11.4 -2.6 14.7 -0.5 5.5 -5.3 22.6 -7.5 26.7 -1 2 1 4.4 2.5 2.9 0.5 -0.5 1.8 -1 2.8 -1z m-27.2 -8.8 c8.2 -4 14 -10 15.7 -16.2 1.9 -6.7 5.3 -29.7 5.3 -35.6 0 -3.1 -0.5 -5.6 -1.3 -6.3 -1.2 -1 -19.8 -4.3 -20.5 -3.6 -0.2 0.2 -1.4 6.5 -2.7 14.1 -2.3 13.2 -7.9 33.1 -10.9 38.3 -1.3 2.3 -1.2 2.6 1.8 4 2.6 1.3 3.1 2.2 3.4 5.6 0.4 5.2 1.4 7.8 1.9 5 0.3 -1.3 2.7 -3.1 7.3 -5.3z m72.5 3.9 c3.7 -1.6 4.3 -2.4 5.9 -7.7 2.3 -7.9 4.8 -21.4 6.2 -34 0.6 -5.5 0.4 -6.3 -1.2 -7.2 -2 -1 -11.2 -3.5 -17 -4.5 l-3.1 -0.6 -0.7 20 c-0.6 18.2 -1.6 28.1 -3.1 32.9 -1 3.2 7 3.9 13 1.1z m29.2 -1.5 c9.7 -4.7 12.4 -8.9 17.4 -27.4 1.1 -4 1.7 -7.7 1.4 -8.1 -0.5 -1 -3.1 -1.9 -13.2 -5.1 -4 -1.3 -7.5 -2.1 -7.8 -1.8 -0.3 0.3 -1.2 5.6 -2.1 11.9 -0.8 6.3 -2.4 16.1 -3.4 21.9 -1.1 5.8 -2 10.8 -2 11.3 0 1.4 2.6 0.7 9.7 -2.7z m-369.4 -13.5 c-2.8 -1 -6.3 -2.5 -7.8 -3.5 -2.5 -1.7 -2.6 -1.7 -1.3 0.3 1.3 2.1 4.5 3.7 8.8 4.4 5.2 0.9 5.3 0.5 0.3 -1.2z m-206.8 -70.6 l3 -2.5 -5.7 0 c-3.1 0 -6.5 -0.3 -7.5 -0.6 -1 -0.3 -0.2 0.8 1.7 2.5 4.2 3.7 4.7 3.7 8.5 0.6z m133.8 -43.3 l3.5 0.4 0.6 -7.4 c1.5 -15.9 -3.5 -35.4 -12.3 -48.7 -1.5 -2.2 -5.6 -8.3 -9.1 -13.5 -10.8 -16.2 -30.7 -38.1 -40.7 -44.7 -4.1 -2.7 -4.6 -2.8 -12 -2.1 -4.3 0.3 -9.5 0.7 -11.5 0.7 -2.1 0.1 -3.8 0.5 -3.8 1 0 1.5 9.1 6.8 14.8 8.6 6.7 2.2 8.2 4.4 8.2 11.8 0 5.5 -0.3 6.2 -4.5 11.1 -2.5 2.9 -4.5 5.5 -4.5 5.8 0 0.3 2.8 1.5 6.3 2.8 3.4 1.2 8.7 3.4 11.7 4.7 3 1.4 7.1 2.7 9 3 1.9 0.3 4 1.1 4.5 1.7 0.6 0.7 1.8 1.5 2.8 1.9 1.2 0.5 1.7 1.7 1.7 4.9 0 5.2 -0.3 5.6 -6.5 9.9 l-5 3.4 3.5 0.6 c1.9 0.3 4.3 0.2 5.2 -0.3 2.5 -1.2 9.2 -1 11.1 0.5 1.1 0.8 1.9 3.4 2.3 7.8 l0.7 6.7 -6.2 4.5 -6.2 4.5 4.8 3.4 c7.6 5.3 16.2 11.1 20 13.4 1.9 1.2 4.2 2.9 5.1 3.8 1.1 1.1 1.8 1.2 2.3 0.5 0.4 -0.6 2.2 -1 4.2 -0.7z m-106 -43.6 c1.5 -2.2 1.4 -2.5 -1.8 -5.6 -2.7 -2.6 -3.5 -4.3 -4.1 -8.7 -0.6 -5 -3.4 -10.3 -5.5 -10.3 -1.3 0 -1.1 5.7 0.1 6.5 0.6 0.4 1 3.2 0.9 6.3 -0.2 6.1 1.7 11.3 4.8 13.1 2.7 1.6 3.9 1.3 5.6 -1.3z"/>
  <path d="M391 483.5 c-21.8 -2.2 -35.4 -8.3 -45.9 -20.4 -7.1 -8.2 -9 -12.7 -10.9 -25.6 -1.5 -10.5 -1.5 -12.7 0 -29.7 2 -22.4 3.1 -25.6 11.5 -34.3 3.5 -3.6 6.3 -7 6.3 -7.5 0 -0.6 0.4 -1 0.9 -1 0.5 0 2.4 -1.7 4.3 -3.7 7.9 -8.8 17.1 -16.7 23.5 -20 16.1 -8.4 21.1 -10.6 26.4 -11.3 3.2 -0.5 6.6 -1.3 7.7 -1.9 3.2 -1.7 20.7 -1.3 29.9 0.8 13 2.8 26.4 13.2 31.8 24.8 1.5 3 4.2 7.6 6 10.2 4.5 6.2 7 12.9 8.5 22.9 1.2 7.9 0.9 20.9 -0.6 27.5 -0.6 2.5 -0.4 2.7 2.5 2.7 4 0 7.8 3.6 8.5 8.1 1.1 7.9 2.6 21.9 2.6 24.7 0 6 -5.9 6.7 -17.7 2.2 -9.2 -3.6 -9.5 -3.6 -11.1 -1 -0.7 1.1 -1.9 2 -2.7 2 -0.8 0 -2.9 1.3 -4.7 2.9 -20.2 18 -25 20.8 -44.3 26.2 -9.6 2.7 -16.7 3 -32.5 1.4z m41 -19.5 c2.2 -1.1 4.9 -2 6.1 -2 2.8 0 7.1 -3 14.7 -10.4 7.7 -7.5 7.9 -9.1 1.1 -9.9 -2.8 -0.4 -5.7 -1.1 -6.4 -1.7 -2.2 -1.9 -4.5 -10.6 -5.2 -20 l-0.6 -9 -2.4 3.4 c-1.2 1.9 -2.3 3.9 -2.3 4.4 0 2.4 -9.6 11.3 -15.1 14.1 -5.9 2.9 -6 3 -3.2 3.7 1.5 0.4 3.8 1.6 5.1 2.7 1.9 1.8 2.2 3.1 2.2 9.3 0 7.1 -0.1 7.4 -3.3 9.8 -2.8 2.1 -4.5 2.6 -9.5 2.6 -5.5 0 -6.3 -0.3 -8.5 -3 -1.4 -1.6 -2.7 -3.4 -2.9 -3.9 -0.2 -0.6 -1.8 -0.6 -4.4 0.1 -2.7 0.8 -5.9 0.8 -9.4 0.2 -7 -1.2 -8.8 -3.6 -9.6 -13.1 l-0.7 -7.2 -2.2 1.5 c-1.6 1 -4.2 1.4 -8.2 1.2 -5.7 -0.3 -5.8 -0.4 -7.7 -4.3 -1.1 -2.1 -2.2 -6.2 -2.4 -9 -0.4 -4.8 -0.2 -5.4 3.3 -9.1 3.5 -3.7 3.6 -3.9 1.6 -4.2 -2.7 -0.4 -6.1 -5.7 -6.1 -9.4 0 -1.5 1 -5.7 2.1 -9.2 2.5 -7.7 4.6 -9 13.6 -8.4 l5.9 0.3 -1.9 -3.8 c-1 -2.1 -2.1 -6.1 -2.4 -8.8 l-0.6 -5 -3.4 3.3 c-7.9 7.8 -11.8 14.1 -15.7 25.8 l-3.8 11.4 0.7 12.1 c0.6 10.3 1 12.5 3.1 15.8 1.8 2.8 3.1 3.7 5.2 3.7 5.6 0 7.2 1 7.2 4.4 0 1.8 -0.4 3.6 -1 4.2 -1.7 1.7 11.3 11.4 15.2 11.4 0.7 0 4 1.1 7.3 2.5 3.3 1.3 7.6 2.5 9.5 2.6 1.9 0 5.3 0.6 7.5 1.4 2.2 0.7 8.4 1.3 13.8 1.4 7.9 0.1 10.5 -0.3 13.7 -1.9z m56.8 -28.3 c0.3 -1.4 -0.5 -1.7 -5 -1.6 l-5.3 0 4 1.9 c4.6 2.1 5.9 2 6.3 -0.3z m-29.2 -9.2 c-2.2 -1.7 -3.6 -1.9 -3.6 -0.7 0 1.4 1.2 2.2 3.4 2.2 2.1 -0.1 2.1 -0.1 0.2 -1.5z m-73.3 -7 c-0.4 -1.6 -0.8 -5.2 -0.7 -8 0 -4.5 0.3 -7 2 -18.3 0.4 -2.3 1.5 -3.9 4.2 -5.7 2 -1.3 4.8 -3.4 6.2 -4.5 l2.5 -2.2 -3.8 2.2 c-3 1.8 -4.9 2.1 -10.7 1.8 -3.9 -0.2 -7 0 -7 0.5 0 0.4 0.4 0.7 1 0.7 1.3 0 3 6.7 3 11.9 0 3.9 -0.5 4.9 -4 8.1 l-4 3.7 2.7 1.4 c3 1.6 5.3 6.4 5.3 10.9 0 2.8 0.2 2.9 2 1.8 1.7 -1.1 1.9 -1.9 1.3 -4.3z m88.4 -6.2 c3.2 -7.4 2.4 -21.2 -1.9 -31.2 -2.1 -5 -3.3 -4.6 -4.6 1.4 -1.1 5.5 -5.3 7.8 -14.3 7.9 -5.8 0.1 -7.1 -0.2 -9.3 -2.3 -2.2 -2 -2.6 -3.3 -2.6 -7.6 l0 -5.2 -4.8 0.5 c-6 0.5 -10.9 -1.7 -11.8 -5.4 -0.6 -2.5 -0.7 -2.5 -2.1 -0.5 -1.7 2.5 -8.6 4.5 -13.2 3.7 -1.8 -0.3 -4.4 -1.5 -5.6 -2.6 l-2.3 -2.1 -0.3 4.5 c-0.4 4.2 -0.3 4.4 1.3 2.9 2.1 -1.9 8.7 -1.4 19.4 1.5 9.3 2.5 12.9 4.7 16.5 10.1 2.5 3.8 2.9 5.4 2.9 11.3 0 6.5 0.1 6.8 1.9 5.8 4.7 -2.4 10.7 -0.7 22.5 6.4 3.3 2 6.2 3.6 6.5 3.6 0.4 0 1.1 -1.2 1.8 -2.7z m-52.2 -3 c4.8 -5.2 6.4 -9.9 4.7 -13.8 -1.2 -2.5 -2.5 -3 -9.9 -3.8 -4.1 -0.5 -4.3 -0.4 -7.3 4.3 -2.5 3.9 -3.1 5.7 -2.8 9.2 0.3 3.8 0.7 4.5 4.3 6.5 2.2 1.3 4.6 2.3 5.3 2.3 0.7 0 3.3 -2.1 5.7 -4.7z m35.9 -50.3 c-1.5 -2.2 -2.8 -4 -3 -4 -0.2 0 -0.4 1.5 -0.4 3.4 0 3 0.4 3.5 2.8 3.9 1.5 0.2 2.8 0.5 3 0.6 0.1 0 -1 -1.7 -2.4 -3.9z m-56 -10.2 c0.7 -1.5 0.4 -1.6 -2.1 -0.9 -1.5 0.5 -5.7 2.5 -9.3 4.5 -6.2 3.4 -6.4 3.6 -3.2 3.6 3.7 0 8.1 2 10.2 4.6 1.3 1.5 1.6 1 2.6 -4.2 0.6 -3.3 1.4 -6.7 1.8 -7.6z m25.4 -2.7 l2.9 -2.9 -4.1 -0.4 c-2.3 -0.3 -5 -0.2 -6.1 0.2 -1.9 0.7 -1.9 0.7 0.2 1.4 1.2 0.4 2.5 1.6 2.8 2.7 0.8 2.4 0.8 2.4 4.3 -1z"/>
  <path d="M349 229.1 l0 -6.1 3.9 0 c4.9 0 6.3 1.7 5.9 7.2 l-0.3 4.3 -4.7 0.3 -4.8 0.3 0 -6z"/>
 </g>
 <g fill="#ff3600">
  <path d="M346 544.9 c-4.2 -0.5 -19.4 -0.7 -34.5 -0.3 -24.5 0.5 -28.2 0.4 -39.4 -1.5 -6.7 -1.2 -12.8 -2.4 -13.5 -2.9 -0.6 -0.4 -5.1 -1 -10.1 -1.3 -13.1 -0.9 -18.4 -2.5 -19.7 -5.7 -1.7 -4.6 -0.4 -32.7 1.8 -39.2 1.8 -5.2 2.1 -5.5 5.2 -5.5 2.4 0 4 -0.8 5.7 -2.7 1.8 -2.1 3.4 -2.8 7.7 -3.1 3.1 -0.3 8 -1.8 11.7 -3.6 3.6 -1.7 6.8 -3.1 7.3 -3.1 0.4 0 0.8 2.1 0.8 4.6 0 4.6 2.5 10.4 4.5 10.4 2.3 0 7.6 -4.2 8.6 -6.8 1.1 -2.9 3 -9.9 11.4 -43 7.6 -29.9 15.2 -50.6 25.2 -69.2 4.9 -9.1 9.4 -15.9 10.5 -16 0.3 0 2.1 1.2 3.8 2.6 l3.1 2.7 3.7 -3 c5 -4 6.9 -10 7.5 -24.1 0.6 -12.7 -0.2 -11.3 9.9 -17.7 9.2 -5.9 21.1 -15.6 28.5 -23.5 4.1 -4.4 8.1 -8 8.8 -8 0.7 0 1.8 -0.7 2.5 -1.5 0.7 -0.8 1.9 -1.5 2.6 -1.5 2.4 0 1.5 2.7 -2 6 -1.8 1.8 -3.9 4.8 -4.5 6.8 -0.8 2.5 -2.6 4.8 -5.6 7 -5.3 3.9 -7.8 8.9 -6.9 14.1 1.2 7.2 1.3 7.3 5.1 6.6 5.6 -1 14 -5.1 18.4 -8.9 2.2 -1.8 7.7 -7.6 12.1 -12.7 8.7 -10.1 10.5 -11.6 9.4 -7.8 -4.5 15 -5.4 26.2 -2.1 28.9 3.8 3.1 15 -6 20.8 -16.9 1.6 -2.9 3 -5.2 3.2 -5 0.1 0.2 -0.2 3 -0.7 6.2 -1 5.7 -0.9 5.9 1.8 8.8 1.5 1.6 3.4 2.9 4.1 2.9 0.7 0 1.3 0.4 1.3 1 0 1.5 8.2 5.9 12.5 6.5 6.9 1.1 12 -4.2 24.1 -25.1 3 -5.2 5.4 -9.6 5.4 -9.9 0 -1 7.5 -12.5 8.2 -12.5 0.4 0 0.9 0.9 1.3 1.9 0.3 1.1 1.5 2.3 2.5 2.6 4.1 1.3 2.8 7.2 -2.5 12.2 -2.9 2.7 -3.5 3.9 -3.5 7.3 0 2.5 -0.8 5.3 -1.9 6.8 -2.7 4 -3.3 6.7 -2.3 10.6 0.6 1.9 0.7 5 0.3 6.8 -0.5 1.9 -0.2 6 0.6 9.8 0.7 3.6 1.4 8.8 1.4 11.5 0.2 4.9 2.2 10.8 7.9 23 8.1 17.2 10 21.7 10 23.4 0 1.1 0.5 2.3 1 2.6 0.6 0.3 1 1.7 1 2.9 0 1.3 1.1 4.9 2.5 8.1 1.4 3.1 3.7 9.4 5 13.9 3.6 12 7.3 22.2 9.6 26 1.3 2.3 2.1 5.8 2.4 10.7 0.5 8.2 1.9 10.9 7 13.3 5.3 2.5 7.9 1.8 8.3 -2.2 0.7 -7.4 7 -0.5 9.2 10 0.7 3.5 1.8 7.2 2.5 8.3 1.6 2.7 4.2 10.7 6.7 20.7 2.7 10.9 2.9 12.7 2.3 16.6 -0.9 5.2 -4.5 6.1 -29.4 7.2 -11.9 0.5 -23.2 1.3 -25.1 1.8 -1.9 0.5 -7.5 2.1 -12.5 3.5 -15.2 4.2 -19.7 4.8 -52.5 6.7 -23.6 1.4 -101.1 2 -110 0.9z m75 -66 c18.1 -4.9 26.9 -10.1 43 -25.4 1.4 -1.3 3.8 -2.9 5.4 -3.4 1.6 -0.7 3.2 -2.3 3.9 -4.1 0.6 -1.7 1.6 -2.8 2.2 -2.6 0.5 0.3 5.6 2.3 11.3 4.5 8.4 3.4 10.7 3.9 12.4 3 1.6 -0.9 1.9 -1.7 1.4 -4.2 -0.3 -1.7 -0.9 -6.2 -1.2 -10.1 -1.1 -13.4 -3.8 -17.5 -10.4 -15.6 -1.8 0.5 -3.6 0.8 -3.8 0.5 -0.2 -0.2 0.3 -3.3 1.2 -6.9 2.6 -10.3 3 -15.8 1.6 -24.8 -1.5 -10 -4 -16.7 -8.5 -22.9 -1.8 -2.6 -4.5 -7.2 -6 -10.2 -2.9 -6.3 -10.4 -14.3 -18.3 -19.5 -8.5 -5.7 -31.2 -9.4 -37.4 -6.1 -1.1 0.6 -4.5 1.4 -7.7 1.9 -5.3 0.7 -10.3 2.9 -26.4 11.3 -6.4 3.3 -15.6 11.2 -23.5 20 -1.9 2 -3.8 3.7 -4.3 3.7 -0.5 0 -0.9 0.4 -0.9 1 0 0.5 -2.8 3.9 -6.3 7.5 -8.2 8.4 -9.4 12.1 -11.4 32.4 -1.4 15 -1.4 17.4 0.1 26.8 1.8 11.8 3.9 16.5 10.7 24.4 10.5 12.2 24.2 18.2 45.9 20.3 14.5 1.4 16.9 1.3 27 -1.5z"/>
  <path d="M345.1 385.5 c0 -1.4 2.8 -5 3.4 -4.3 0.3 0.3 -0.3 1.6 -1.4 2.9 -1.1 1.3 -2 2 -2 1.4z"/>
  <path d="M652.4 516.4 c0.3 -0.9 0.6 -3.1 0.6 -5 0 -2.7 0.4 -3.4 2 -3.4 1.2 0 2 0.7 2.1 1.8 0.3 5 -1.1 8.2 -3.8 8.2 -1 0 -1.3 -0.6 -0.9 -1.6z"/>
  <path d="M669.8 516.9 c-2.6 -1.4 -2.2 -5.2 0.7 -7.9 2.5 -2.3 2.5 -2.3 4 -0.4 2 2.6 1.9 8 -0.1 8.8 -2.1 0.8 -2.6 0.7 -4.6 -0.5z"/>
  <path d="M636.8 507.9 c-2.4 -1.3 -2.3 -3.1 0.2 -4.7 1.1 -0.7 2 -1.9 2 -2.7 0 -1.9 1.4 -1.9 3 0 0.9 1.1 1 2.5 0.4 4.8 -1 3.4 -2.8 4.3 -5.6 2.6z"/>
  <path d="M679.7 503.9 c-1.8 -1.8 -2.7 -3.6 -2.3 -4.6 0.6 -1.4 0.8 -1.4 2.4 0.1 3.7 3.3 7.9 0.6 5.4 -3.5 -1.9 -3 -1.5 -5.1 1 -4.7 4.5 0.6 8.2 12.7 4.6 15 -3 1.8 -8.3 0.7 -11.1 -2.3z"/>
  <path d="M666.2 504.8 c0.3 -0.7 1.3 -1.5 2.2 -1.6 1.2 -0.3 1.7 0.1 1.4 1 -0.3 0.7 -1.3 1.5 -2.2 1.6 -1.2 0.3 -1.7 -0.1 -1.4 -1z"/>
  <path d="M610.2 485.8 c-2.1 -2.1 -1.3 -3.5 2.8 -4.6 4.8 -1.2 5.9 -0.2 3.6 3.3 -1.8 2.7 -4.5 3.2 -6.4 1.3z"/>
  <path d="M596.3 483.2 c-2.6 -0.4 -3.1 -2.7 -0.8 -3.6 0.8 -0.3 1.5 -1.5 1.5 -2.6 0 -2.3 1 -2.6 2.8 -0.8 2.7 2.7 0.3 7.7 -3.5 7z"/>
  <path d="M688.2 482.7 c-2.3 -2.7 -1.8 -4.2 1.3 -4.2 2.2 0 3.3 -0.6 4 -2.2 1.1 -2.7 2.1 -2.9 2.9 -0.7 0.6 1.7 -0.5 4.4 -3 6.8 -1.9 1.9 -3.8 2 -5.2 0.3z"/>
  <path d="M684.3 459.9 c-1.6 -1.6 0.3 -5.4 3.5 -6.8 3.6 -1.7 4.7 -0.1 3.2 4.3 -0.9 2.7 -1.7 3.6 -3.4 3.6 -1.2 0 -2.7 -0.5 -3.3 -1.1z"/>
  <path d="M652.9 455.4 c-1 -1.3 -1 -2 0.4 -4.4 0.9 -1.5 1.7 -3.7 1.7 -4.8 0 -1.8 3.3 -5.2 5.1 -5.2 0.3 0 0.9 2.8 1.2 6.3 0.4 4.8 0.2 6.6 -1 8 -2 2.1 -5.6 2.2 -7.4 0.1z"/>
  <path d="M641 447.5 c0 -0.8 0.5 -1.5 1 -1.5 0.6 0 1 0.7 1 1.5 0 0.8 -0.4 1.5 -1 1.5 -0.5 0 -1 -0.7 -1 -1.5z"/>
  <path d="M672.6 440.3 c-0.6 -4.3 -0.4 -5 1.9 -7 1.4 -1.3 3 -2.3 3.6 -2.3 1.6 0 1.1 10.7 -0.7 12.4 -2.7 2.8 -4.1 1.9 -4.8 -3.1z"/>
  <path d="M643 442.4 c0 -1.5 5.4 -9.8 5.7 -8.8 0.6 1.9 -2.4 8.9 -4 9.2 -1 0.2 -1.7 0 -1.7 -0.4z"/>
  <path d="M683.4 423.5 c-0.7 -1.7 3.4 -12.5 4.6 -12.5 0.5 0 1.5 -0.3 2.4 -0.6 2.4 -0.9 3.8 3.7 2.4 7.8 -1.8 5.5 -8 9 -9.4 5.3z"/>
  <path d="M695 398.9 c0 -5.1 3.9 -7.7 6 -3.9 1.5 2.8 -0.4 6 -3.5 6 -1.9 0 -2.5 -0.5 -2.5 -2.1z"/>
  <path d="M706.9 383.3 c-2.4 -3.7 -4.8 -7.3 -5.4 -8 -1.6 -2.1 0.5 -4.3 6.5 -6.4 4.2 -1.5 6.1 -1.7 7.8 -0.9 1.9 0.8 2.1 1.3 1.2 3.1 -0.9 1.7 -0.7 2.6 1.3 5.3 2.3 3 2.4 3.3 1 6.1 -1.9 3.8 -5.3 7.5 -6.8 7.5 -0.6 0 -3.1 -3 -5.6 -6.7z"/>
  <path d="M690 363.4 c0 -1.5 -1 -4.4 -2.2 -6.5 l-2.2 -3.9 2.1 -4.4 c2 -3.9 2.5 -4.4 6.5 -4.8 2.4 -0.3 7.1 -1.9 10.6 -3.6 6 -3 6.5 -3.1 8.8 -1.6 3 2 4 5.7 2.5 9 -1.7 3.8 -1.4 5.3 2 8.1 2.2 1.9 2.9 3.3 2.7 5.2 -0.3 2.2 -0.7 2.6 -3.1 2.3 -1.5 -0.2 -4.2 -1.2 -6 -2.2 -4 -2.5 -8.7 -2.5 -11.8 -0.2 -2.1 1.7 -8.7 5.2 -9.6 5.2 -0.1 0 -0.3 -1.2 -0.3 -2.6z"/>
  <path d="M685.3 335.1 l-4.2 -4.9 5.3 -3.5 c3 -2 7.5 -6.1 10.2 -9.1 2.6 -3.1 5.1 -5.6 5.6 -5.6 0.4 0 0.5 3.8 0.2 8.4 -0.5 5.7 -0.3 8.5 0.5 9 3.5 2.2 -0.8 7.5 -7.5 9.4 -5.7 1.6 -5.4 1.8 -10.1 -3.7z"/>
  <path d="M714.7 323.3 c-1.8 -1.8 -0.1 -17.3 1.9 -17.3 1.9 0 1.8 3.4 -0.2 7.2 -1.4 2.7 -1.4 3.3 -0.3 4.2 0.8 0.6 1.3 2.3 1.1 3.9 -0.3 2.6 -1.2 3.4 -2.5 2z"/>
  <path d="M384.9 316.6 c-0.9 -1.9 -0.8 -3.5 0.2 -7 1.1 -3.8 2.2 -5.2 6.6 -8.1 2.9 -1.9 5.3 -4.2 5.3 -5.1 0 -0.8 1.9 -3.6 4.3 -6.2 2.3 -2.6 5.5 -6.4 7.1 -8.5 4.1 -5.6 13.4 -14.5 17 -16.4 1.7 -0.9 4.2 -2.4 5.5 -3.4 1.3 -1.1 3.3 -1.9 4.3 -1.9 1.5 0 1.8 -0.4 1.3 -1.7 -0.4 -1 -1 -2.6 -1.2 -3.6 -0.7 -2.4 -5 -3.3 -7.1 -1.4 -0.9 0.8 -2.8 1.8 -4.2 2.1 -11.6 3 -21 7.6 -29 14.1 -3.1 2.5 -7 4.7 -9 5 -6 1.1 -6.9 1.5 -7.6 3.8 -0.4 1.2 -2.4 4.1 -4.5 6.4 -2.2 2.4 -3.9 4.7 -3.9 5.2 0 0.6 -2.5 2.9 -5.5 5.2 -3 2.2 -5.7 4.9 -6 5.9 -0.7 2.2 -3.5 3.4 -4.8 2.1 -0.5 -0.5 -0.6 -2.3 -0.2 -4 0.9 -4 29.2 -32.4 38.7 -38.7 3.7 -2.5 7 -5 7.4 -5.5 0.3 -0.5 3.1 -2.2 6.2 -3.8 8.1 -4.1 10.6 -7.1 9.8 -11.5 -0.4 -2.2 -1.3 -3.6 -2.1 -3.6 -0.8 0 -1.8 -0.1 -2.2 -0.1 -0.8 -0.2 -3.6 4 -5.3 7.9 -0.7 1.7 -1.5 2.2 -2.9 1.7 -1.1 -0.3 -4.5 0.1 -7.5 0.9 -4.1 1 -6.7 2.5 -9.9 5.7 -4.9 4.9 -9.6 6.9 -17.6 7.6 -4.6 0.4 -6.2 0 -11.7 -2.8 -3.6 -1.8 -6.3 -3.7 -6.1 -4.3 0.2 -0.6 2.6 -1.9 5.3 -2.9 5.9 -2.2 7.2 -3.3 5.7 -4.8 -0.8 -0.8 -2.1 -0.8 -5 0.1 -3.4 1.1 -25.8 11.5 -33.8 15.7 -7.3 3.8 -31.8 16 -36.2 18 -22.2 10 -51.3 13.7 -66.8 8.4 -13.1 -4.5 -21.8 -9.7 -38.5 -22.9 -9.9 -7.9 -18.5 -16.2 -28.1 -27.3 -6.5 -7.5 -12.9 -16.6 -12.9 -18.4 0 -1.6 -6.8 -7.8 -10.7 -9.8 -1.6 -0.8 -5.5 -2.3 -8.8 -3.2 -3.3 -0.9 -7.7 -2.8 -9.7 -4.1 -3 -1.9 -5.1 -2.4 -10.5 -2.4 -7.9 -0.1 -15.2 -2.3 -27 -8.2 -7.5 -3.7 -14.3 -8.9 -14.3 -10.8 0 -1.7 11.7 -11.1 15.1 -12.1 3.2 -1 3.9 -0.8 8.3 2.1 2.6 1.8 5.7 3.2 6.9 3.2 9.4 -0.3 13.6 -1.2 18.1 -3.7 5.1 -2.8 14.2 -4.3 19 -3.1 3.2 0.8 5.4 4.9 6.1 11.3 1.2 11.5 1.2 11.4 5.3 10.7 3.6 -0.6 4 -0.3 10.6 6.6 6.1 6.6 7 7.1 9.1 6.2 1.9 -0.9 2.6 -0.7 4.1 0.9 1 1.1 3 1.9 4.9 1.9 1.8 0 4.4 0.9 5.8 2 3 2.4 5 2.5 6.7 0.5 1 -1.1 0.6 -2.8 -1.9 -8.2 -1.7 -3.7 -3.9 -10.9 -5 -16 -2 -9.3 -4.1 -14.6 -6.3 -15.9 -0.6 -0.4 -0.2 0.8 1 2.8 2.6 4.2 2.8 7.1 0.6 8.9 -2 1.6 -1.9 1.7 -9 -12.8 -5.8 -12.1 -9.4 -16.9 -15.2 -20.5 -3 -1.9 -4.8 -2.2 -11.6 -2 -16.3 0.5 -24.1 -3 -25.5 -11.5 -0.6 -3.4 -1 -3.8 -3.7 -4.1 -1.7 -0.2 -5.1 0.4 -7.5 1.3 -11 4.1 -15 3.6 -17.3 -2 -1.3 -3.1 -1.9 -3.5 -5.1 -3.5 -2 0 -5.6 0.5 -8.1 1.1 -3.9 1 -4.8 0.9 -6.2 -0.5 -1.9 -1.9 -1.4 -2.3 7.8 -8 5.8 -3.5 7.8 -3.9 30 -5.5 26.4 -2 35.2 0.4 57.3 15.5 24.9 16.9 27.1 18.4 30.2 21.4 3.7 3.6 7.2 10.5 12 23.5 2 5.5 5 13.5 6.6 17.8 1.6 4.3 2.9 8.5 2.9 9.2 0 0.8 0.6 1.8 1.3 2.2 2.2 1.4 5.8 7.3 7.1 11.6 0.8 2.3 1.7 4.9 2 5.8 0.5 1.2 0.1 1.8 -1.4 2.2 -2.9 0.7 -2.1 2.8 1.5 4 2.6 0.9 3.2 0.6 6.6 -3.4 l3.8 -4.4 2.5 3 c1.4 1.7 3.9 5.8 5.6 9.2 1.7 3.5 5.3 8.3 8 10.9 2.8 2.6 5.4 6.3 6.1 8.3 0.6 2 2.1 4.7 3.3 6 2 2.2 2.5 2.3 11.1 1.7 5 -0.3 12.2 -1.2 16 -2 3.9 -0.8 12.4 -2.6 19 -4 6.7 -1.3 16.9 -2.6 22.9 -2.9 7.4 -0.3 11.2 -0.8 12.1 -1.8 1.2 -1.2 2 -8 1.6 -13.1 -0.2 -2.9 -2.6 -2.1 -5.8 2 -2.9 3.5 -3.6 3.9 -12.9 5.6 -5.5 1 -10.9 2 -12.1 2.2 -1.3 0.2 -2.3 0 -2.3 -0.6 0 -0.5 0.5 -1 1.1 -1 1.3 0 19.3 -10.7 34.2 -20.3 7.9 -5.1 11.9 -7.1 15.1 -7.4 4.2 -0.5 4.4 -0.4 5.1 2.6 1.2 5.7 7.5 6.7 16.1 2.7 l5.1 -2.4 2.6 2.9 c3.2 3.6 6.1 3.7 13.3 0.3 5.8 -2.7 10.4 -7.7 10.4 -11.2 0 -3.1 -3.6 -6.5 -6.1 -5.7 -1.1 0.4 -2.6 0 -3.5 -1 -1 -1 -2.3 -1.3 -3.3 -0.9 -0.9 0.4 -3.3 1.2 -5.4 1.8 -3.4 0.9 -4.1 0.8 -5.3 -0.9 -0.8 -1 -1.4 -2.4 -1.4 -3.1 0 -2.6 19.1 -8.9 33.5 -10.9 7.4 -1.1 11.1 -1.3 32.6 -2.1 22.4 -0.8 21.7 -1.1 19.4 8.1 -0.7 2.8 -1.6 7.7 -2 11 -0.8 7 -6.8 20.4 -11.3 25.1 -6 6.4 -10.9 8.2 -11.9 4.4 -0.7 -2.8 -2.3 -2.5 -2.3 0.4 0 1.4 1 3.2 2.2 4 5.4 3.8 12 0.5 18.3 -8.9 5.5 -8.2 9.2 -19.8 12 -38.2 0.4 -2.3 1.2 -4.7 2 -5.3 1.3 -1.1 15.2 -0.3 16 0.9 0.7 1.3 0.8 12.7 0.1 18.1 -0.4 3 -1.4 8 -2.2 11 -0.8 3 -1.4 6 -1.4 6.7 0 2 -5 12.5 -7.7 16.1 -3.1 4.1 -7.8 6.6 -11.3 5.8 -5.3 -1 -4.3 4.2 1.1 5.9 3.8 1.2 10.6 -2.3 14 -7.1 4.3 -6.3 6.4 -12.8 11.9 -36.9 0.5 -2.2 1.2 -7.8 1.6 -12.4 l0.7 -8.3 6.1 0.6 c3.4 0.3 9.4 0.8 13.4 1.2 9.9 0.8 10.1 1.2 7.3 19.4 -2.4 16.1 -8.8 32.8 -14.9 39.3 -2.1 2.2 -3.4 2.7 -6.9 2.5 -5.2 -0.2 -5.7 0.2 -3.7 3 1.8 2.6 7.9 3 12.3 0.8 6.2 -3.3 14.4 -24.7 18.6 -49 1.3 -7.6 2.6 -14.1 3 -14.4 1 -1 24.8 2.7 26.2 4.1 2.9 2.9 0.6 31.3 -4 47.7 -1.7 6.3 -7.5 12.2 -15.8 16.2 -5.4 2.6 -6.9 3.8 -6.9 5.6 0 1.7 -0.6 2.2 -2.8 2.2 -3.9 0 -5.2 -1.7 -5.2 -6.6 0 -4.4 -2.5 -7.4 -6 -7.4 -0.8 0.1 -4 3.2 -7 7 -4.7 5.9 -6 7 -8.6 7 -3.3 0 -5.3 1.7 -7.5 6.4 -1.5 3.1 -5 6 -8.7 7.1 -2.8 0.8 -4.1 -1.9 -2.3 -4.7 1.7 -2.8 0.9 -3.2 -1.7 -0.8 -1.2 1.1 -3 2 -4 2 -1.8 0 -7.2 6.6 -15.5 18.9 -3.7 5.5 -6.7 7.6 -6.7 4.9 0 -0.8 1.5 -4 3.3 -7.2 1.7 -3.2 3.8 -7 4.6 -8.4 0.8 -1.5 3 -4.9 4.9 -7.5 6.4 -8.9 -1.2 -8.8 -8.7 0.2 -2.1 2.5 -6.3 6.1 -9.3 8 -6.3 4 -10.4 9.3 -18.8 24.4 -2.7 4.9 -4.4 4.9 -3.6 -0.1 1.1 -6.9 5.6 -19.5 8.1 -22.4 1.4 -1.6 2.5 -3.4 2.5 -3.8 0 -0.5 2.7 -3.9 6.1 -7.4 3.3 -3.6 5.8 -7 5.4 -7.6 -1 -1.6 -6.3 -1.2 -10.5 1 -2.2 1.1 -4.7 2 -5.7 2 -2.3 0 -17.9 15.7 -18.8 19 -2.3 7.6 -14 25.6 -18.7 28.6 -5.6 3.7 -7.6 3.9 -8.9 1z m-29.3 -86.1 c0.6 -1.6 -1.2 -4.5 -2.7 -4.5 -0.5 0 -0.9 1.4 -0.9 3 0 3.2 2.6 4.3 3.6 1.5z"/>
  <path d="M680 318.6 c0 -0.3 1.4 -2.5 3.1 -5 1.6 -2.5 3.3 -6.1 3.6 -7.9 0.4 -2.9 0.1 -3.8 -2.8 -6.1 -2.5 -2 -3 -2.9 -2 -3.3 0.8 -0.3 3.5 -2.4 5.9 -4.7 4.5 -4.1 6.3 -7 12.7 -20.6 7.5 -16 8.8 -17.5 9.8 -12.3 2.3 10.9 2.3 12 0.6 16.9 -3 8.7 -6 15.9 -7.3 17.4 -0.7 0.8 -2.4 3.7 -3.7 6.4 -2.7 5.6 -19.9 22.1 -19.9 19.2z"/>
  <path d="M345.1 292.4 c-1.2 -1.5 -2.1 -3.2 -2.1 -3.9 0 -2.4 11.2 -5.6 12.4 -3.6 0.7 1.1 -6.1 10.1 -7.5 10.1 -0.4 0 -1.7 -1.2 -2.8 -2.6z"/>
  <path d="M671 289.5 c-0.8 -0.9 -0.9 -2.5 -0.4 -4.7 0.5 -1.8 0.7 -4.7 0.6 -6.5 -0.1 -1.7 0.8 -5.5 2.2 -8.5 1.3 -2.9 4 -10.5 5.9 -16.8 2 -6.3 4.4 -14.2 5.4 -17.4 1 -3.3 2.3 -6.1 3 -6.3 0.6 -0.2 4.3 2.6 8.2 6.3 5.6 5.2 7.1 7.3 7.1 9.5 0 2.7 -3.4 13.3 -5 15.4 -0.4 0.6 -1.1 2.1 -1.5 3.4 -1.4 4.7 -9.9 17.2 -12.7 18.9 -1.5 0.9 -2.8 1.9 -2.8 2.3 0 0.6 -7.5 5.9 -8.4 5.9 -0.2 0 -0.9 -0.7 -1.6 -1.5z"/>
  <path d="M638.5 270.9 c-9.8 -0.9 -17.3 -2.5 -19.2 -4 -0.9 -0.8 -0.8 -1.8 0.2 -4.2 1.6 -4 5.9 -26.4 7.9 -41.5 0.9 -6.2 1.8 -11.7 2.1 -12.3 1 -1.5 4.5 -1.1 13 1.7 14 4.6 14.5 4.9 14.5 8.9 0 1.9 -0.9 6.8 -1.9 10.8 -5 18.4 -7.7 22.6 -17.4 27.3 -3.9 1.9 -8.1 3.4 -9.2 3.4 -2.9 0.1 -5.7 2.5 -5.3 4.7 0.3 1.6 1.6 1.8 10.1 2.1 15.5 0.4 18.2 -1.7 22.8 -18.4 3.5 -12.9 4.8 -18.6 5.6 -24.9 0.7 -5.6 1 -6 3.2 -5.7 3.1 0.3 13.7 5.1 15.1 6.7 1 1.2 -1.4 13.9 -4.5 23.2 -1.5 4.5 -9.2 20.4 -10.3 21.4 -1.3 1.2 -17.5 1.6 -26.7 0.8z"/>
  <path d="M554.5 266.2 c-2.8 -2 -3.9 -3.5 -4 -5.7 -0.1 -1.7 0.2 -3.3 0.7 -3.6 1.5 -1 7.8 -21 7.8 -24.8 0 -2 1 -7.9 2.1 -13.1 1.2 -5.2 2.4 -13.3 2.8 -18 0.5 -6.7 0.9 -8.5 2.1 -8.3 0.8 0 5.5 0.9 10.3 1.9 6.3 1.2 9.1 2.3 9.8 3.6 1.2 2.2 1.6 21.6 0.6 31.8 -1.2 13 -2.6 19.2 -5.2 23.2 -2.6 3.9 -8.5 8.5 -12 9.1 -1.1 0.2 -2.7 0.7 -3.5 1 -0.8 0.3 -2.4 0.7 -3.5 0.9 -1.4 0.3 -1.9 1.1 -1.8 2.6 0.4 3 -1.6 2.8 -6.2 -0.6z"/>
  <path d="M586 260.9 c0 -0.5 0.6 -2 1.4 -3.2 3.2 -5 4.2 -13.9 5.1 -42.6 0.2 -9 0.6 -16.6 0.9 -16.8 0.6 -0.6 20.5 3.7 24.2 5.2 2.8 1.2 3.2 1.8 3.6 6.2 0.2 2.6 0 6.6 -0.5 8.8 -0.4 2.2 -1.2 6.7 -1.7 10 -1.4 9.5 -3.7 20.7 -5.3 25 -1.2 3.5 -2.1 4.3 -7.3 6.4 -5 2 -6.5 2.2 -10.3 1.3 -2.5 -0.5 -5.6 -0.6 -7.2 -0.2 -1.8 0.5 -2.9 0.5 -2.9 -0.1z"/>
  <path d="M262.5 245.3 c-1.1 -0.2 -3 -0.6 -4.3 -0.9 -1.2 -0.2 -3.3 -1.6 -4.5 -3.1 -1.2 -1.4 -4 -3.9 -6.1 -5.4 -3.5 -2.6 -16.6 -20.1 -16.6 -22.1 0 -1.6 2.8 -0.7 6.5 2 3.3 2.3 7.9 6.3 15.7 13.5 3.4 3.2 11.1 7.7 14.8 8.7 2 0.5 9.5 1 16.8 1.1 7.3 0.2 13.2 0.5 13.2 0.9 0 0.8 -11.9 3.7 -20.7 5 -7.3 1 -11.2 1.1 -14.8 0.3z"/>
  <path d="M391.1 214.7 c0.2 -0.2 2.2 -1.5 4.4 -3.1 l4 -2.7 -3.5 3 c-1.9 1.7 -3.9 3.1 -4.4 3.1 -0.5 0 -0.7 -0.1 -0.5 -0.3z"/>
  <path d="M52.2 176.3 c-2.9 -0.6 -13.4 -11.2 -12.9 -13.3 0.4 -2 5.7 -1.7 10.8 0.5 4.7 2.2 11 1.5 15 -1.4 3.5 -2.6 5.5 -2.7 6.9 -0.2 1.4 2.7 1.4 2.7 -2 4.1 -1.7 0.7 -4 2.4 -5 3.8 -2.5 3.1 -8 7.2 -9.4 7.1 -0.6 -0.1 -2.1 -0.4 -3.4 -0.6z"/>
  <path d="M186.4 134.4 c-2.6 -3 -6.4 -6.4 -8.3 -7.5 -7 -3.9 -27.6 -18.7 -27.8 -20 -0.2 -0.8 2.6 -3.4 6.2 -5.8 8.2 -5.6 9.1 -6.6 7.5 -8.6 -0.6 -0.8 -0.9 -2.3 -0.5 -3.4 0.9 -2.9 -2.7 -4.7 -6.5 -3.1 -4.1 1.7 -13.8 0.3 -15.1 -2.2 -1.3 -2.4 -0.2 -3.8 6 -8.1 6.5 -4.4 7.9 -7.1 4.4 -8.4 -1 -0.4 -2.2 -1.2 -2.8 -1.9 -0.5 -0.6 -2.6 -1.4 -4.5 -1.7 -1.9 -0.3 -6 -1.6 -9 -3 -3 -1.3 -8.2 -3.4 -11.5 -4.6 -6.7 -2.5 -8.5 -3.7 -8.5 -5.7 0 -0.7 2.5 -4.2 5.5 -7.8 8.3 -9.8 7.4 -14.7 -3.7 -18.5 -5.6 -1.9 -17.8 -9.6 -17.8 -11.2 0 -1.4 4.6 -4 7.2 -4.1 1.2 0 7.4 -0.5 13.6 -1 l11.3 -0.9 5.2 3.5 c5.7 3.8 21.3 19.3 29.8 29.6 3 3.6 8.1 10.6 11.3 15.5 3.3 5 7.2 10.8 8.6 13 9.6 14.2 13.8 32.5 12.5 53.8 -0.9 16.2 -1.6 17.5 -5.5 11.1 -1.2 -1.9 -2.5 -3.3 -2.7 -3 -0.3 0.3 0.4 1.8 1.6 3.4 5.6 7.9 0.1 8.3 -6.5 0.6z"/>
  <path d="M79 88.6 c-4.8 -3.2 -7.5 -9.2 -6.6 -14.7 0.4 -2.3 0.3 -4.6 -0.2 -5.3 -0.5 -0.6 -1.2 -3.4 -1.6 -6.2 -0.8 -6.1 0.6 -7.9 5.3 -6.9 4.3 0.9 6.7 4.5 7.5 10.9 0.6 4.7 1.3 5.9 5.2 9.5 2.4 2.3 4.4 4.7 4.4 5.4 0 1.8 -7.5 9.7 -9.1 9.6 -0.8 0 -3 -1.1 -4.9 -2.3z"/>
 </g>
 <g fill="#ffffff">
  <path d="M409 468.9 c-6.8 -1 -16 -2.9 -21 -4.4 -4.2 -1.2 -6.2 -1.9 -14.5 -4.9 -3.1 -1.1 -16.5 -12.1 -16.5 -13.5 0 -0.5 1.5 -1.4 3.3 -2.1 2.9 -1.1 3 -1.3 1.2 -2 -1.1 -0.5 -3.5 -0.9 -5.2 -0.9 -2.6 -0.1 -3.8 -0.8 -5.7 -3.8 -2.3 -3.5 -2.6 -5.2 -3.2 -18.8 l-0.6 -15 3.8 -11.5 c2.4 -7.1 5.1 -13.2 7.2 -16 3.7 -4.9 11.3 -13 12.3 -13 0.3 0 2.7 -1.9 5.2 -4.2 6.4 -5.9 23.5 -14.5 33.2 -16.9 6.3 -1.5 27 -1.5 33.4 0.1 7.5 1.8 16.5 9.8 22.5 20 2.7 4.5 6.1 9.7 7.7 11.4 3.5 4.1 5.4 9.1 7.3 19.3 1.6 8.8 0.9 17.5 -2 24.1 -1.9 4.2 -4.3 4.1 -11.9 -0.3 -11.9 -6.9 -16.3 -8.7 -18.6 -7.4 -2 1 -2.1 1.6 -1.5 9.2 0.7 8.5 3 16.9 5 18.6 0.7 0.6 3.7 1.4 6.7 1.9 4.5 0.6 5.3 1.1 5.1 2.6 -0.3 1.4 0.1 1.7 1.2 1.2 0.9 -0.3 2.3 -0.9 3.1 -1.2 3.3 -1.3 1.1 1.5 -7.7 10.2 -10.5 10.2 -14.6 13.4 -17.7 13.4 -1.2 0 -3.8 0.8 -5.9 1.9 -4.1 2 -18.2 3.1 -26.2 2z m10.7 -13.5 c2.8 -2.1 3.3 -3.1 3.3 -6.8 0 -3.2 -0.6 -4.8 -2.2 -6.2 -2.9 -2.5 -9.1 -4.6 -11.2 -3.8 -2.8 1.1 -5.2 7.1 -4.7 12.1 0.1 0.6 1.3 2.5 2.7 4.2 3.3 3.9 7.4 4.1 12.1 0.5z m-21.1 -6.2 c1.2 -0.9 2.7 -3.6 3.3 -5.9 0.9 -3.5 0.8 -4.7 -0.7 -7.2 -0.9 -1.7 -2 -3.1 -2.4 -3.1 -0.5 0 -0.8 -0.6 -0.8 -1.4 0 -2.2 -4 -6.6 -5.9 -6.6 -2.7 0 -6.9 3.7 -9.1 8 -2.4 4.6 -1.8 11.7 1.2 15.5 2.9 3.8 9.8 4.1 14.4 0.7z m-23.9 -18.1 c4.6 -3.3 5.9 -6.8 4.3 -11.7 -1.1 -3.2 -6.2 -7.4 -9.1 -7.4 -1.4 0 -9.9 8.5 -9.9 10 0 1.5 3 9.3 4.1 10.7 1.9 2.2 6.3 1.5 10.6 -1.6z m45.9 -2.1 c4.8 -2.7 13.4 -11.2 13.4 -13.2 0 -0.5 1.1 -2.6 2.5 -4.6 1.9 -2.8 2.5 -4.9 2.5 -9.3 0 -9.4 -7 -17.4 -17 -19.4 -1.9 -0.4 -5.9 -1.4 -8.8 -2.3 l-5.2 -1.6 -5.1 5.3 c-2.9 2.8 -6.5 5.9 -8.1 6.7 -3.3 1.7 -4.8 4.9 -4.8 10.2 0 2.1 -0.4 5.3 -1 7.2 -1.7 6 0.2 10.2 7.3 15.8 11.7 9.2 15.8 10.1 24.3 5.2z m-45.8 -24.8 c4.4 -3.3 5.4 -5.5 4.6 -9.8 -0.9 -4.6 -4.6 -8.4 -8.4 -8.4 -5.5 0 -7.7 1.8 -9.8 8.4 -2 5.8 -2 6.2 -0.3 9.1 1.2 2.1 2.7 3.2 5.2 3.6 3.8 0.6 4.1 0.5 8.7 -2.9z m86.6 -18.1 c2.2 -1.2 3.2 -2.8 4.3 -7 1.3 -5.4 1.3 -5.5 -1.3 -8.2 -1.5 -1.6 -4.3 -3.4 -6.2 -4 -3.4 -1.1 -3.7 -1 -5.9 1.7 -5.9 7.3 -7.3 9.6 -7.3 12.4 0 2.6 3 6.3 6 7.3 2.2 0.7 7.1 -0.3 10.4 -2.2z m-67.8 -6.2 c4.8 -3 5.7 -5.1 4.3 -10 -1.3 -4.2 -5.5 -8.5 -9.3 -9.5 -3.7 -0.9 -10.4 1.3 -11.1 3.7 -1.7 5.4 0.6 14.7 4.2 16.8 2.9 1.7 8.3 1.2 11.9 -1z m45.1 -7 c3.4 -1.3 9.9 -7.4 12 -11.3 1.8 -3.4 1.1 -8.6 -1.5 -10.9 -1 -0.9 -3.7 -2.3 -6 -3.1 -8.6 -3.1 -16.2 2.7 -16.2 12.4 0 6.4 1.7 10.8 4.9 12.5 3.2 1.7 3.3 1.8 6.8 0.4z m-17.9 -5.6 c2 -2.4 2.2 -3.5 1.8 -8 -0.8 -7.3 -2.3 -9.8 -6.7 -11.8 -3.6 -1.7 -4 -1.7 -6.4 -0.1 -2.7 1.8 -4.8 5.9 -5.9 11.7 -0.5 2.8 -0.1 4.3 1.7 7 1.2 1.8 3.3 3.9 4.6 4.5 3.2 1.6 8 0.1 10.9 -3.3z"/>
  <path d="M411.7 450.4 c-1.3 -1.3 -0.7 -5.5 0.9 -6.1 2.4 -0.9 5.1 2.3 3.8 4.5 -1.2 1.9 -3.6 2.7 -4.7 1.6z"/>
  <path d="M390.1 443.6 c-1.7 -2 -1 -9.1 0.8 -9.1 0.8 0 2.3 1.2 3.4 2.7 1.9 2.5 1.9 2.8 0.3 5.2 -1.9 3 -2.9 3.2 -4.5 1.2z"/>
  <path d="M368.2 424.3 c0.2 -1.7 1.2 -3.2 2.8 -4 2.3 -1.2 2.5 -1.1 2.8 1.3 0.4 3 -1.3 5.4 -4 5.4 -1.5 0 -1.9 -0.6 -1.6 -2.7z"/>
  <path d="M409 416.1 l-4.5 -2.7 -0.3 -7.4 c-0.3 -6.9 -0.1 -7.5 3.3 -12.7 3.5 -5.2 3.8 -5.5 6.8 -4.8 1.8 0.4 4.7 0.7 6.6 0.6 11.6 0 14.7 12.9 5.4 23.3 -6.3 7.2 -10.3 8 -17.3 3.7z"/>
  <path d="M367 398.1 c0 -1.8 3.4 -5.1 5.2 -5.1 1.5 0 0.8 3.7 -1 5.3 -2.5 2.3 -4.2 2.1 -4.2 -0.2z"/>
  <path d="M454 380.7 c0 -1.7 4.4 -5.9 5.3 -5 1.2 1.1 0.8 2.1 -1.5 4.3 -2.5 2.3 -3.8 2.6 -3.8 0.7z"/>
  <path d="M383.8 373.8 c-0.6 -1.7 3.1 -7.8 4.6 -7.8 1.7 0 3.6 2.1 3.6 4 0 3.6 -7.2 6.9 -8.2 3.8z"/>
  <path d="M435 361.7 c0 -4.3 3.3 -7.6 5.8 -6.1 2.9 1.8 2.6 5 -0.6 7.3 -4.1 2.9 -5.2 2.6 -5.2 -1.2z"/>
  <path d="M410.7 362.2 c-0.3 -0.4 0.5 -2.1 1.8 -3.8 2.1 -2.7 2.4 -2.7 3.1 -1 1.2 3.1 -3.3 7.6 -4.9 4.8z"/>
  <path d="M478 438.4 c-5.8 -2.5 -13.6 -5.4 -17.5 -6.4 -6.3 -1.6 -7 -2 -8.1 -5.1 -1.5 -4.1 -1.8 -9.9 -0.5 -9.9 0.5 0 3.3 1.6 6.2 3.6 11.2 7.5 21 10.9 30.2 10.3 l4.2 -0.3 -0.3 4.4 c-0.4 4.5 -1.7 8 -3 8 -0.4 -0.1 -5.4 -2.1 -11.2 -4.6z"/>
  <path d="M343.4 392.7 c0.6 -5.1 3.3 -11.7 4.6 -11.7 0.8 0 -3.6 15 -4.7 16 -0.3 0.3 -0.3 -1.7 0.1 -4.3z"/>
  <path d="M449.4 307.8 c0.8 -3.9 1.5 -4.7 2.6 -2.9 0.9 1.6 -0.8 6.1 -2.3 6.1 -0.5 0 -0.7 -1.4 -0.3 -3.2z"/>
  <path d="M625.3 269.3 c-1.3 -0.2 -2.3 -0.8 -2.3 -1.2 0 -0.5 1.1 -0.6 2.5 -0.3 1.4 0.2 2.5 0.8 2.5 1.3 0 0.5 -0.1 0.8 -0.2 0.8 -0.2 -0.1 -1.3 -0.4 -2.5 -0.6z"/>
  <path d="M296 240 c2 -1.3 8.3 -1.3 7.5 0 -0.3 0.6 -2.5 1 -4.8 1 -3.1 0 -3.8 -0.3 -2.7 -1z"/>
  <path d="M385.6 214.5 c-3.3 -3.3 -1.3 -7.5 3.5 -7.5 1.5 0 3.1 -0.4 3.4 -1 0.8 -1.3 6.2 -1.3 7 0 1.5 2.4 -4.4 8.2 -9.7 9.5 -1.7 0.4 -3.1 0.1 -4.2 -1z"/>
  <path d="M364.1 214.1 c-1.1 -0.7 -1 -1.3 0.5 -3.4 2.1 -2.9 6.2 -4.7 10.5 -4.7 5.9 0 3.9 3.2 -4.3 6.9 -5.4 2.4 -4.9 2.3 -6.7 1.2z"/>
  <path d="M130.3 63.7 c-1.3 -0.5 -2.3 -1.4 -2.3 -1.9 0 -1.1 1.1 -1 3.9 0.6 2.9 1.6 1.5 2.8 -1.6 1.3z"/>
 </g>
</svg>