<?xml version="1.0" encoding="utf-8"?>
<!DOCTYPE svg PUBLIC "-//W3C//DTD SVG 20010904//EN" "http://www.w3.org/TR/2001/REC-SVG-20010904/DTD/svg10.dtd">
<svg version="1.0" xmlns="http://www.w3.org/2000/svg" width="492px" height="621px" viewBox="0 0 492 621" preserveAspectRatio="xMidYMid meet">
 <g fill="#000000">
  <path d="M71.9 618.1 c-6.1 -1.2 -17.8 -6.1 -22.1 -9.4 -4.2 -3.3 -5.9 -8.1 -4.7 -13.5 1.6 -7.3 4.6 -12.7 10 -17.9 7.7 -7.4 8.6 -8.6 11.8 -15.6 2.6 -5.6 3.5 -6.6 9.2 -9.8 3.5 -2.1 9 -4.9 12.1 -6.4 5.4 -2.4 5.7 -2.8 5.2 -5.5 -0.6 -2.5 -0.2 -3.1 3.2 -4.8 2.2 -1 5.3 -2.2 6.9 -2.6 1.7 -0.4 5 -2 7.5 -3.6 9.9 -6.2 21 -10 27.2 -9.2 4.6 0.5 11.7 -2.8 20.8 -9.8 3.6 -2.7 6.9 -4.9 7.3 -5 1.5 0 7.7 -5.2 7.7 -6.4 0 -0.7 0.5 -1.7 1.2 -2.4 1.7 -1.7 3.6 -9.1 5.3 -20.7 1.5 -10 3.1 -16.1 4.5 -18 0.5 -0.5 0.8 -1.2 0.8 -1.5 -0.1 -0.3 0.8 -2.3 1.9 -4.5 1.1 -2.2 2.8 -6.9 3.7 -10.5 0.9 -3.8 2.4 -7.2 3.6 -8.2 1.8 -1.4 2 -2.8 2 -12.8 0 -8.3 -0.4 -12.1 -1.6 -14.7 -1.8 -3.6 -1.8 -3.7 2.2 -20.7 0.9 -4 1 -6.3 0.3 -7.2 -1.2 -1.4 -1.3 -4.7 -0.6 -13.6 0.3 -3.8 0.2 -6.8 -0.2 -6.8 -0.7 0 -2.9 -16.7 -3.5 -26 -0.1 -1.9 -0.5 -4 -0.9 -4.6 -0.3 -0.6 -0.5 -6 -0.2 -12 0.3 -10 0.2 -11.2 -1.9 -14.9 -2.6 -4.4 -2.8 -10.9 -0.7 -21.5 2.4 -11.8 2.5 -14.6 0.5 -16.5 -2.1 -1.9 -14.1 -10 -25.4 -17 -4.1 -2.6 -12 -9 -17.6 -14.1 -8.8 -8.2 -10.7 -10.5 -14.9 -18.6 -2.6 -5.1 -6.2 -11.5 -7.9 -14.3 -5.6 -8.7 -6.2 -9.8 -9.9 -18.4 -2.1 -4.6 -4.3 -9.1 -5.1 -10 -0.7 -0.9 -1.7 -2.7 -2.1 -4.1 -0.4 -1.4 -2.7 -5.7 -5.1 -9.6 -2.7 -4.4 -5 -9.6 -5.9 -13.5 -2.8 -12.4 -3.6 -15.1 -5.9 -19.7 -1.3 -2.6 -2.9 -6.8 -3.6 -9.2 -0.6 -2.5 -1.7 -5.4 -2.5 -6.5 -0.7 -1.1 -1.8 -5.4 -2.4 -9.5 -0.7 -4.1 -1.9 -10.6 -2.6 -14.5 -1.6 -7.8 -2.7 -25.7 -1.7 -27.1 1.7 -2.2 4.6 -3.8 8.5 -4.5 5.4 -0.9 6.9 -1.3 14.7 -4 4.8 -1.6 9.4 -2.2 17.5 -2.4 6.1 -0.2 13.5 -0.8 16.5 -1.4 3 -0.6 11.8 -1.3 19.5 -1.6 7.7 -0.3 16 -0.8 18.5 -1.2 2.5 -0.3 5.3 -0.5 6.3 -0.4 0.9 0.1 4.1 -0.4 7 -1.2 2.8 -0.9 7.2 -1.8 9.7 -2.2 2.5 -0.4 5.4 -1.2 6.4 -1.7 1.7 -0.9 19.8 -3 26.6 -3 1.4 0 5.9 -0.4 10 -0.9 4.1 -0.5 10.4 -0.9 14 -1 3.6 -0.2 8.5 -0.8 10.8 -1.6 2.4 -0.7 6.7 -1.5 9.5 -1.7 2.9 -0.3 7.5 -1 10.2 -1.5 13.1 -2.7 18.9 -3 45 -2.9 26.5 0.1 40.1 -0.8 62 -4.1 2.8 -0.4 11.6 -0.3 19.5 0.2 16.9 1.1 18.1 1.1 24 0.8 8.4 -0.5 13.8 -2.1 15.5 -4.7 0.8 -1.3 2.3 -2.4 3.2 -2.4 1 0 6 -2.1 11.1 -4.7 6.6 -3.3 10.9 -4.8 14.8 -5.1 5 -0.4 5.8 -0.2 8.5 2.4 3.2 3 3.8 6.4 1.4 8.4 -0.8 0.7 -1.5 1.6 -1.5 2.1 0 0.4 -1 1.9 -2.3 3.3 -2.6 2.8 -4.6 8.5 -8.2 23.1 -4.9 20.1 -11 40.4 -13.2 44 -0.7 1.1 -2.6 8.3 -4.3 16 -1.7 7.7 -4.7 17.6 -6.6 22 -2 4.4 -5.1 12.6 -6.9 18.2 -3.4 10.2 -9.4 22.7 -13.9 28.6 -1.3 1.7 -3.8 6.1 -5.6 9.7 -2.8 5.7 -11.2 16.9 -13.2 17.8 -0.5 0.2 -0.8 0.9 -0.8 1.5 -0.1 0.7 -2.3 3.7 -5.1 6.7 -2.8 3 -5.7 6.5 -6.5 7.6 -0.8 1.2 -3.4 3.5 -5.6 5 -2.3 1.6 -6 4.7 -8.2 6.9 -3.4 3.4 -7.9 7.2 -15.1 12.8 -0.5 0.4 -2.9 2.1 -5.2 3.8 -3.1 2.2 -4.3 3.8 -4.5 5.7 -0.8 13.6 -0.4 34.1 0.9 50.2 1.2 15.1 1.4 26 0.9 48.5 -0.8 32.1 -0.9 34.4 -2.4 43 -1.3 6.8 -2.3 17 -2.7 26.5 -0.1 3.6 -1 11.7 -1.9 18 -2.4 15.4 -2.7 34.7 -0.6 36 0.9 0.6 1 1 0.3 1 -0.7 0 -1.7 1.7 -2.4 3.9 -1.9 6.5 0.4 8.7 16 14.7 7.3 2.8 9.1 3 9.1 0.9 0 -0.8 2.6 -3.1 5.7 -5.1 5.3 -3.4 6.4 -3.7 12.7 -3.6 3.8 0.1 7.4 0.6 8 1.1 0.6 0.4 5 1.1 9.9 1.5 7.4 0.6 9.5 1.2 13.9 3.9 2.8 1.8 6.3 4.4 7.7 5.8 1.6 1.6 4.3 2.8 7 3.3 2.9 0.4 5.3 1.7 7.5 3.8 1.7 1.8 4.9 4.1 7.1 5.3 2.6 1.3 4.1 2.8 4.3 4.3 0.2 1.3 1.6 2.9 3.5 3.8 5.1 2.6 6.7 4.5 6.7 8 0 2.4 0.8 3.9 3.4 6.2 6.2 5.5 6.7 6.8 6.4 18.8 -0.3 10 -0.5 11 -2.8 13.4 -4.6 4.9 -8.7 6.9 -18.1 9.2 -8.5 2 -12 2.2 -35.9 2.3 l-26.5 0 -12 -3.4 c-21.8 -6.1 -29.2 -7 -55 -6.6 -35.1 0.5 -37.4 0.5 -45.5 -1.1 -10.2 -2 -12.5 -3.1 -15.5 -6.9 -4.4 -5.8 -3 -12.5 3.8 -19 4.8 -4.6 14.1 -10.9 19.1 -13 2.7 -1.2 3.5 -2.2 4.1 -5.2 0.4 -2.1 2.4 -6.7 4.6 -10.3 2.1 -3.7 3.9 -7.1 3.9 -7.7 0 -0.6 2 -2.7 4.4 -4.7 4 -3.2 4.5 -4.1 5.5 -10.2 0.7 -3.6 0.9 -9.1 0.5 -12.3 -0.5 -4.5 -0.3 -5.9 1 -7 0.9 -0.7 1.6 -2.2 1.6 -3.3 0 -1 0.6 -3.1 1.4 -4.6 2 -4.1 2.8 -12.7 3.2 -34.7 0.5 -35.1 0.6 -84.7 0.1 -85.2 -0.3 -0.2 -0.1 -1.9 0.4 -3.6 0.5 -1.9 0.5 -5.5 -0.1 -9 -0.6 -3.7 -0.6 -6.6 0 -7.7 0.5 -1 0.6 -3.1 0 -5.1 -0.8 -3.2 -2.4 -24.5 -2.2 -29.9 0.3 -7.3 -3.6 -12.8 -9 -13.2 -1.3 -0.1 -8.6 1.4 -16.3 3.3 -13.9 3.3 -14.2 3.3 -38.2 3.4 -13.3 0 -24.5 0.3 -24.9 0.8 -1.9 1.8 -3.5 9.3 -4.9 22.7 -1.8 16.8 -2 65.3 -0.4 79.5 0.6 5 1.2 11.3 1.4 14 0.2 2.8 0.8 9.1 1.4 14 0.6 5 0.8 13.5 0.6 19 -1 22.6 -1 57.6 0 58.3 0.6 0.4 1 3 1.1 5.7 0 3.2 1.2 7.8 3.2 12.9 2.1 5.2 3.2 9.5 3.2 13 0 6 0.4 6.8 4.8 9 6.7 3.5 13.2 11.5 14.5 18.1 0.6 3.4 -3.3 11.8 -7.6 16.3 -6.5 6.8 -18 13.9 -26.1 16.2 -3.9 1.1 -8.4 2.5 -10.1 3.1 -7.6 2.7 -21.1 6 -33 7.9 -7.1 1.2 -13.4 2.6 -14 3.1 -0.5 0.5 -2 0.9 -3.5 0.9 -6 0.1 -22 5.5 -23.5 8.1 -0.4 0.5 -1 0.7 -1.5 0.4 -1.2 -0.7 -6.5 1.6 -25.5 11.1 l-17 8.5 -10.5 0.4 c-5.8 0.2 -12.6 0 -15.1 -0.4z m32.6 -13.6 c2.2 -1.3 6.9 -3.8 10.5 -5.5 3.6 -1.7 11.5 -5.5 17.5 -8.5 13.9 -6.8 16.7 -8 23.5 -9.5 3 -0.7 6.2 -1.6 7.1 -2.1 0.8 -0.4 8.9 -1.9 18 -3.4 9 -1.4 19.3 -3.4 22.9 -4.5 3.6 -1 8.8 -2.3 11.5 -3 10.6 -2.4 13.2 -3.6 20.2 -8.8 5.8 -4.3 11.6 -10.2 10 -10.2 -0.2 0 -2.7 1.1 -5.6 2.5 -10.2 5 -19.7 8.3 -27.1 9.5 -10 1.6 -15.6 2.7 -21 4 -10.7 2.6 -14.8 3.2 -20.4 2.8 -7.3 -0.5 -9 -2.3 -8.3 -8.7 0.5 -5 1.8 -6.1 6.8 -6.1 1.9 0 4.3 -0.6 5.3 -1.3 1.6 -1.1 1.7 -1.7 0.7 -3.6 -0.7 -1.2 -2 -3 -2.9 -4 -0.9 -1 -3.4 -3.9 -5.5 -6.5 -5.7 -6.9 -9.7 -8.6 -17.7 -7.4 -3.6 0.5 -10.8 0.7 -16.1 0.4 -9.2 -0.6 -9.9 -0.5 -14.5 2.1 -4.6 2.6 -4.7 2.7 -2.3 3.7 1.3 0.5 8.3 3.8 15.4 7.2 20.1 9.7 26.5 15.7 26.5 24.9 0 5.8 -2.7 8.5 -8.6 8.5 -3.5 0 -5.1 -0.6 -7.1 -2.6 -2.4 -2.4 -2.6 -2.5 -4.6 -0.7 -3 2.6 -6.2 6.2 -9.9 11.2 -1.8 2.4 -4.2 4.9 -5.3 5.5 -1 0.6 -2.5 1.6 -3.2 2.2 -0.7 0.7 -3.4 2.2 -6 3.5 -4.1 2 -6.8 2.4 -17.6 2.7 -15.6 0.5 -18.2 -0.3 -19.1 -5.7 -0.5 -3.6 -0.8 -3.9 -4.8 -4.4 -4.6 -0.6 -6.8 -2.7 -6.8 -6.5 0 -2.4 -0.1 -2.4 -1.9 -0.8 -2.6 2.3 -3.4 8.4 -1.6 11.3 1.9 2.8 8.7 7.4 14.5 9.7 2.5 1 5.4 2.2 6.5 2.7 6.6 2.7 16 2.5 21 -0.6z m-1.7 -19.7 c2.6 -0.6 5.9 -2.1 7.4 -3.4 1.5 -1.2 3.1 -2.4 3.5 -2.6 1.1 -0.4 5.3 -6.5 5.3 -7.6 0 -0.5 2 -2.6 4.5 -4.7 3.8 -3.1 4.4 -3.9 3.3 -5.2 -1.1 -1.3 -1.3 -1.3 -1.8 0.1 -0.3 0.9 -2.1 2.6 -4 3.7 -2.8 1.7 -4.5 2 -8.7 1.6 -5 -0.5 -5.5 -0.4 -9.3 3.2 -3.2 3 -4 4.4 -4 7.4 0 2.9 -0.5 3.9 -2.9 5.3 -5.4 3.2 -1.9 4.4 6.7 2.2z m361.7 -24 c6.6 -1.4 9.5 -3.3 9.5 -6.2 0 -2.2 -0.3 -2.3 -2.7 -1.6 -15 4.7 -18.3 5.3 -32.8 5.7 -18.1 0.6 -38.6 -1.5 -45.7 -4.6 -2.5 -1.2 -7.4 -2.4 -10.7 -2.7 -3.9 -0.5 -6.9 -1.4 -8.3 -2.6 -1.5 -1.3 -2.9 -1.7 -4.3 -1.2 -1.1 0.3 -9.2 0.8 -18 0.9 -8.8 0.1 -17.6 0.7 -19.5 1.4 -7.7 2.5 -23 0.6 -23 -2.9 0 -1.5 -5.3 -1.2 -9.3 0.5 -2 0.8 -4.9 1.5 -6.4 1.5 l-2.8 0.1 3 1.3 c5.1 2.2 17.9 2.7 42.3 1.6 19.4 -0.8 25.3 -0.7 35.5 0.6 12.7 1.6 26.2 4.3 35.7 7.1 10 2.9 45.5 3.6 57.5 1.1z m-2.6 -18.8 c5 -1.8 9.1 -3.6 9.1 -4 0 -0.4 -0.6 -1.2 -1.3 -1.8 -0.9 -0.8 -2.5 -0.5 -5.7 1.1 -4 1.9 -6.1 2.2 -17.5 2.1 -11.1 0 -13.8 -0.4 -18.5 -2.3 -5.1 -2.1 -5.5 -2.1 -6.7 -0.5 -0.7 1 -1.3 2.1 -1.3 2.4 0 0.4 -1.2 1.2 -2.7 1.9 -2.2 1 -2.4 1.4 -1.2 2.2 0.7 0.5 3.2 0.9 5.4 0.9 2.2 0 4.7 0.5 5.5 1.1 0.9 0.6 6.1 0.9 13.7 0.6 10.5 -0.4 13.4 -0.9 21.2 -3.7z m-261.6 -8 c8.3 0 21.8 -5.9 24.5 -10.6 1.2 -2.2 -0.8 -14.5 -2.8 -17.4 -3.1 -4.5 -4.3 -15.2 -4 -37.5 0.1 -11.5 0.7 -22.1 1.3 -23.5 1.6 -3.9 2.5 -22.7 1.5 -31.5 -2.2 -20.5 -5.2 -96.9 -4.2 -109.7 l0.6 -7.6 -4.2 2 -4.3 2.1 0.7 10.6 c0.4 5.8 1.1 12 1.6 13.6 3 9.8 4.2 46 2 59.5 -0.6 3.6 -1.6 9.4 -2.2 13 -0.5 3.6 -1.6 7.5 -2.4 8.7 -0.8 1.2 -1.4 4 -1.4 6.3 0 3.6 0.2 4 2.5 4 2.1 0 2.5 0.5 2.5 2.8 -0.1 7.1 -3 22.4 -5.5 28.2 -4.9 11.8 -5.4 13.5 -5.5 19 -0.1 6.3 -0.8 9.7 -4.5 19.5 -4.7 12.9 -5.4 14 -10.1 16.5 -2.4 1.4 -4.4 2.8 -4.4 3.3 0 0.4 -1.9 1.7 -4.2 2.7 -2.4 1.1 -5.6 3 -7.3 4.3 l-2.9 2.5 4.4 0.6 c11.8 1.9 11 1.4 11 5.8 0 3.2 0.8 4.9 4.7 9.3 3.8 4.4 4.9 5.2 6.4 4.5 1 -0.6 3.7 -1 6.2 -1z m148.6 1.4 c2.1 -0.5 3.1 -1.2 3.1 -2.5 0 -2.3 0.5 -2.4 -6.6 0.6 -5.2 2.1 -5.6 2.4 -2.8 2.5 1.7 0 4.6 -0.3 6.3 -0.6z m56.7 -4.6 c2.5 -2.3 5.1 -5.6 5.8 -7.2 0.8 -1.7 2.3 -4.1 3.4 -5.3 3.5 -3.6 9.3 -15.4 9 -18.2 -0.4 -3.6 -5 -5.8 -13.3 -6.3 l-7.1 -0.5 -1.1 5.9 c-0.9 4.7 -2.9 8.6 -10.1 19.7 l-9 13.8 3.7 1 c2 0.6 6 1.1 8.9 1.2 4.8 0.1 5.6 -0.2 9.8 -4.1z m-87.5 -2.8 c1.1 -1.5 3 -2.2 7.6 -2.6 4.2 -0.5 6.8 -1.3 7.9 -2.5 1 -1.1 2.7 -1.9 3.9 -1.9 1.1 0 2.5 -0.4 3 -0.8 0.6 -0.5 4.2 -1.9 8.1 -3.2 6.7 -2.2 7.6 -2.3 14 -1.1 8.3 1.6 11.3 1.2 12.8 -1.4 0.6 -1.1 2.3 -3.6 3.9 -5.6 1.5 -2 2.7 -3.9 2.7 -4.2 0 -0.2 -3.3 -0.6 -7.3 -0.9 -5.4 -0.4 -9.4 -1.4 -15.7 -4.1 -4.7 -2.1 -10.1 -3.7 -12 -3.7 -3.9 0 -7 -2.4 -7 -5.5 0 -1.1 -0.5 -2.6 -1.1 -3.2 -0.6 -0.6 -1.4 -4.1 -1.6 -7.8 -0.5 -5.7 -0.3 -7 1.5 -9.5 3.5 -4.7 4.1 -10.2 4.2 -34.9 0 -12.8 0.4 -25 1 -27 1.7 -6.5 3.9 -24.4 4.6 -36.6 0.4 -8 1.1 -12.8 2.1 -14.4 2.7 -4.2 2 -44.2 -1.4 -78.1 l-0.8 -7.5 -2.2 3.5 c-1.9 3 -8.7 9.1 -13.1 11.9 -1.1 0.6 -1.1 2.8 -0.3 10.7 0.7 5.5 1.1 27.5 1.1 49.9 -0.1 22 -0.1 51.5 0 65.5 0 28.9 -1.2 45.8 -4.2 54.5 -1.5 4.7 -1.8 7.3 -1.3 12.2 1 9.1 -1.5 15.8 -8.6 24 -6.2 6.9 -8.9 12.3 -6.3 12.3 1.6 0 1.8 4.4 0.5 10.3 -0.8 3.2 -0.7 3.7 0.9 3.7 1 0 2.4 -0.9 3.1 -2z m139.1 -2.8 c0.9 -0.9 -0.2 -1.2 -5.5 -1.2 -3.7 0 -6.7 -0.4 -6.7 -0.8 0 -1.6 -5.5 -2.9 -8.3 -1.9 -1.5 0.5 -2.7 1.2 -2.7 1.6 0 0.7 2.7 2.3 6 3.5 2.7 1 15.9 0.1 17.2 -1.2z m-180.7 -263.7 c6.3 -0.5 13.3 -1.7 19 -3.5 4.9 -1.5 10.5 -3.1 12.4 -3.5 3.6 -0.8 10.1 -3.5 22.7 -9.6 4.4 -2.1 8.3 -3.9 8.7 -3.9 1.1 0 13.1 -7.2 16.4 -9.9 6.6 -5.3 9.1 -7.1 10.1 -7.1 0.9 0 10.2 -8.9 18.6 -17.8 1.5 -1.7 4.4 -4.1 6.3 -5.4 2 -1.3 6.5 -6.9 10.7 -13.3 10.3 -15.6 10.4 -16.4 0.2 -4.4 -5.9 7 -12.3 13.6 -20.1 20.4 -39.5 35 -57.3 45.1 -94.5 53.7 -9 2.1 -46.5 1.7 -57 -0.5 -13.8 -3 -28.1 -9.1 -39.7 -16.9 -2.8 -1.9 -4.1 -2.3 -3.7 -1.3 0.3 0.8 0.9 1.5 1.3 1.5 0.3 0 3.8 2 7.6 4.5 3.9 2.5 8.7 5 10.7 5.5 2 0.6 3.8 1.4 4 1.8 0.3 0.8 17 6.8 22.8 8.3 1.9 0.5 7.3 0.9 12 1 4.7 0 10.8 0.4 13.5 0.8 2.8 0.5 5.7 0.7 6.5 0.5 0.8 -0.1 6 -0.6 11.5 -0.9z m12 -28.1 c3.3 -0.8 6.4 -1.9 6.9 -2.4 0.6 -0.6 1.9 -1 3 -1 1.2 0 3.4 -0.7 5 -1.5 1.5 -0.8 3.3 -1.5 3.8 -1.5 0.6 0 2.4 -0.6 4.1 -1.4 19.7 -8.5 23.8 -10.7 29.7 -16.5 1.9 -1.8 6.4 -5.7 10 -8.7 3.6 -2.9 8.9 -7.5 11.9 -10.3 3 -2.8 5.8 -5.1 6.1 -5.1 0.6 0 4.9 -4.8 11.8 -13 0.7 -0.8 3.6 -4.1 6.5 -7.3 7 -7.9 17.7 -22.8 17.7 -24.8 0 -0.9 0.7 -2.2 1.5 -2.9 0.8 -0.7 1.5 -1.8 1.5 -2.4 0 -0.6 1.4 -3.8 3 -7 1.7 -3.2 3 -6.3 3 -6.7 0 -0.5 1.1 -3.3 2.5 -6.3 1.4 -3 2.5 -6.3 2.5 -7.3 0 -1 0.7 -3.1 1.5 -4.6 0.8 -1.6 3.1 -7.6 5 -13.3 1.9 -5.8 4 -11.4 4.6 -12.6 0.9 -1.7 0.8 -2.4 -0.5 -3.3 -1.1 -0.9 -1.6 -2.8 -1.6 -6.7 0 -5.2 0.2 -5.7 3.5 -8.2 4.1 -3.1 10.5 -12.2 10.5 -14.9 0 -1.7 0.3 -2.5 3.4 -8.4 0.9 -1.7 1.6 -4.3 1.6 -5.8 0 -2.5 -0.2 -2.6 -3.2 -1.9 -1.8 0.4 -10 0.6 -18.3 0.3 -25.4 -0.7 -47.3 -0.1 -57.5 1.7 -7.6 1.3 -15.3 1.6 -38 1.5 -15.7 -0.1 -31 0.3 -34 0.8 -3 0.6 -11.6 2.1 -19 3.5 -12.9 2.4 -18 3.1 -42 5.6 -14.5 1.5 -22.3 2.8 -38 6.2 -20.5 4.4 -42.1 7.8 -49.6 7.8 -2.3 0 -7.7 0.9 -12 2.1 -4.4 1.1 -8.9 2.3 -10.1 2.6 -1.9 0.4 -2.2 1 -1.7 3.2 0.8 3.4 9.2 30 10.4 32.6 0.5 1.1 1.6 4.9 2.4 8.5 0.8 3.6 2.4 9.2 3.5 12.5 1.1 3.3 3.2 10.1 4.7 15 5.8 19.5 10.6 32.6 15.6 42.3 6.1 11.7 20.5 27.9 30.1 33.7 4 2.3 14.7 10.3 16.2 11.9 0.9 0.9 7.5 4.2 21 10.2 2.9 1.3 9.1 3.3 16.5 5.3 4.9 1.4 37.2 0.3 44.5 -1.5z m-107.5 0.2 c0 -0.3 -2.6 -2.2 -5.7 -4.2 -3.2 -2.1 -7 -4.9 -8.5 -6.3 -1.6 -1.3 -2.8 -2.1 -2.8 -1.6 0 1.1 4.1 5.5 5.2 5.5 0.4 0 3.1 1.6 6 3.4 5.7 3.8 5.8 3.8 5.8 3.2z m241.7 -79.6 c1.1 -1.9 3.6 -6.4 5.5 -10 3.7 -6.6 9.4 -22.7 8.5 -23.6 -0.3 -0.3 -0.8 0.5 -1.2 1.8 -0.8 2.8 -0.7 2.7 -9.4 21.8 -6.6 14.3 -8 18.4 -3.4 10z m-302.3 -6.5 c-1.4 -4.4 -3.6 -11.1 -5 -15 -1.3 -3.8 -3.6 -11.2 -5 -16.4 -2.1 -8.2 -3.7 -12.8 -7.4 -21.6 -0.5 -1.1 -0.9 -1.4 -0.9 -0.6 -0.1 0.8 -0.8 1.9 -1.7 2.6 -1.3 0.9 -1.4 1.6 -0.6 3.1 1.5 2.9 6.8 17.9 9.3 26.4 3 10.5 5.7 17.2 8.8 22.2 1.5 2.4 3 5.2 3.4 6.2 0.4 1 0.9 1.7 1.2 1.5 0.2 -0.2 -0.8 -4 -2.1 -8.4z m323.5 -44.5 c0 -1.6 -1 0 -2.8 4.5 -4.2 10.4 -4.5 12.9 -0.6 5 1.9 -3.8 3.4 -8.1 3.4 -9.5z m-342.9 -14.6 c0 -1 -7.1 -21.8 -8 -23.3 -2.2 -3.8 -0.7 6 3.6 22.7 0.3 1.1 4.4 1.8 4.4 0.6z m361.5 -53.1 c0.9 -4.3 1.9 -8.7 2.2 -9.8 0.3 -1.1 0.2 -1.7 -0.2 -1.3 -0.4 0.3 -1.5 4.4 -2.6 9 -2 8.9 -2.1 9.8 -1.5 9.8 0.2 0 1.2 -3.5 2.1 -7.7z"/>
  <path d="M239.3 103.6 c-1.7 -2.1 -1.9 -4.1 -1.8 -17.3 0.1 -11.8 0.5 -15.7 1.9 -19 1 -2.4 2.4 -4.3 3.1 -4.3 0.7 0 2.5 -1.6 3.9 -3.5 2.4 -3.1 3.2 -3.5 7.2 -3.5 4.4 0 4.6 0.1 6.6 4.7 1.8 4.1 2 6.1 1.6 17.2 -0.6 15.6 -2 19.6 -8.8 24.6 -5.9 4.3 -10.9 4.7 -13.7 1.1z"/>
  <path d="M310.7 81 c-5.7 -6.4 -9.2 -16.7 -8.2 -24.5 1 -7.9 1.9 -8.6 11.1 -8.3 l7.7 0.3 2.3 6.5 c1.3 3.6 2.3 7.6 2.4 9 0 1.4 0.9 3.9 2 5.5 4.9 7.4 0.2 16.4 -8.7 16.5 -3.7 0 -4.6 -0.5 -8.6 -5z"/>
 </g>
 <g fill="#ff3600">
  <path d="M93.8 610.5 c-0.2 -0.2 -2.8 -0.5 -5.8 -0.8 -3.1 -0.2 -6.4 -0.9 -7.5 -1.5 -1.1 -0.6 -4.2 -1.9 -6.8 -2.9 -6.2 -2.4 -13.9 -8.2 -15.1 -11.4 -0.5 -1.4 -0.6 -5 -0.2 -8 0.8 -6.5 5 -11.9 9.3 -11.9 2.4 0 2.5 0.2 1.9 3.8 -0.8 5.2 1 7.5 6 7.6 3.7 0.2 3.9 0.3 4.8 4.3 1.3 5.7 3.9 6.7 16.5 6.1 9.5 -0.5 16.5 -2.5 20.4 -6.2 0.7 -0.6 2.2 -1.6 3.2 -2.2 1.1 -0.6 3.5 -3.1 5.3 -5.5 4.2 -5.8 10.7 -12.3 13.8 -13.9 2.3 -1.3 2.7 -1.1 5.8 2.3 3.9 4.3 5.7 4.6 8.6 1.5 3.6 -3.9 0.9 -9.6 -7.4 -15.8 -6.6 -4.8 -29.7 -16 -34.5 -16.6 -6.4 -0.9 -8.2 -1.4 -7.7 -2.3 1 -1.6 16.8 -10.1 18.8 -10.1 1.1 0 2.8 -0.5 3.9 -1 1.4 -0.8 2.7 -0.6 5.1 0.6 3 1.5 4.4 1.6 14.9 0.5 11.1 -1.2 11.8 -1.2 15.7 0.8 2.3 1.1 5.8 4.2 7.9 6.7 2.1 2.6 4.5 5.4 5.3 6.3 3.1 3.4 6.8 9.8 6.2 10.7 -1.6 2.3 -5.9 4.4 -9.2 4.4 -5.3 0 -7.7 2.6 -5.9 6.2 1.8 3.4 7.4 3.3 21.9 -0.2 5.4 -1.3 11 -2.4 21 -4 11.5 -1.9 36 -12.3 38.1 -16.1 0.8 -1.6 1.3 -1.8 2.5 -0.8 4.2 3.4 -1.3 13.2 -11.9 21.1 -7 5.2 -9.6 6.4 -20.2 8.8 -2.7 0.7 -7.9 2 -11.5 3 -3.6 1.1 -13.9 3.1 -22.9 4.5 -9.1 1.5 -17.2 3 -18 3.4 -0.9 0.5 -4.1 1.4 -7.1 2.1 -6.8 1.5 -9.6 2.7 -23.5 9.5 -6 3 -13.9 6.8 -17.5 8.5 -3.6 1.7 -8.3 4.1 -10.5 5.4 -3.3 2 -12.7 4 -13.7 3.1z"/>
  <path d="M418.5 564.9 c-4.9 -0.4 -11.5 -1.4 -14.5 -2.3 -7.8 -2.2 -22.5 -5.4 -29 -6.1 -3 -0.4 -8.2 -1 -11.5 -1.5 -3.3 -0.4 -8.2 -0.6 -11 -0.4 -2.7 0.1 -12.1 0.6 -20.8 0.9 -8.8 0.3 -16.2 0.6 -16.5 0.7 -2.6 0.7 -21.9 -1.7 -25.4 -3 -14 -5.4 -15.6 -14.8 -3.9 -23.3 5 -3.8 6.4 -3.2 2.7 1.1 -2.7 3.3 -3.5 8.5 -1.6 12 1.4 2.6 5.3 3.2 9.7 1.6 2.1 -0.8 5.9 -1.7 8.5 -2 3.8 -0.4 5.1 -0.2 6.5 1.3 4 4.1 9.9 5.2 17.4 3.1 5.8 -1.6 28.1 -2.9 30.6 -1.7 1.7 0.8 3.3 0.6 6.2 -0.8 4.4 -1.9 7.6 -1.6 10.9 1.3 1.4 1.2 4.5 2.2 8.3 2.6 3.3 0.3 8.2 1.5 10.7 2.7 6.7 2.9 27.8 5.2 42.7 4.6 11.1 -0.5 18.3 -1.9 30 -5.8 1.7 -0.6 3.5 -1.1 4.1 -1.3 0.7 -0.1 1.9 -0.8 2.7 -1.4 1.1 -0.9 1.7 -1 2.2 -0.2 1.1 1.7 -0.5 12.8 -2 14 -4.5 3.7 -33.9 5.7 -57 3.9z"/>
  <path d="M424.7 548.4 c-0.4 -0.4 -2 -0.8 -3.5 -0.9 -6 -0.4 -12.2 -1.8 -13.1 -2.9 -0.8 -0.9 0.1 -2.1 3.1 -4.4 2.3 -1.8 4.5 -3.2 4.9 -3.2 0.3 0 1.2 -1.3 1.9 -3 1.5 -3.7 3 -3.8 11.7 -0.4 5.6 2.2 8.6 2.7 16.8 2.8 9.1 0.1 10.5 -0.2 15.8 -2.8 6.5 -3.3 9.2 -2.8 12.3 2 2.6 3.9 1 5.4 -10.1 9.5 -9.4 3.4 -10.4 3.6 -24.4 3.8 -8.1 0.1 -15 -0.1 -15.4 -0.5z"/>
  <path d="M324.6 541.2 c-0.3 -0.6 0.8 -2 2.5 -3.2 4.7 -3.4 24.9 -12 28.1 -12 2.8 0 2.8 0 1.2 2.5 -1.4 2.1 -1.5 3 -0.5 5.2 0.7 1.4 0.8 3 0.4 3.4 -0.7 0.7 -11.5 2.5 -26.9 4.5 -2.4 0.3 -4.4 0.1 -4.8 -0.4z"/>
  <path d="M293.2 538.8 c-1.9 -1.9 -1.4 -5.3 1.1 -7.6 3.2 -3.1 3.7 -2.8 3.7 2.1 0 3.8 -1.3 6.7 -3 6.7 -0.3 0 -1.1 -0.5 -1.8 -1.2z"/>
  <path d="M385.6 537 c-8.5 -2 -9.4 -2.9 -6.3 -6.6 1.3 -1.6 6.1 -8.5 10.5 -15.4 7.9 -12.2 11 -19.8 9.9 -24 -0.7 -2.9 0.4 -3.2 5.9 -1.5 2.7 0.8 7.2 1.5 10 1.5 3.7 0 6 0.6 8.5 2.3 3.2 2.2 3.4 2.7 3.2 7.3 -0.3 5.3 -4.9 15.5 -9.1 20.2 -1.3 1.5 -3 4.1 -3.8 5.8 -0.7 1.7 -3.6 5.2 -6.5 7.8 -4.9 4.4 -5.4 4.6 -10.5 4.4 -2.9 -0.2 -8.2 -1 -11.8 -1.8z"/>
  <path d="M361.6 530.5 c-1.1 -0.8 -1.7 -1.8 -1.3 -2.2 0.9 -0.8 5.7 1.4 5.7 2.7 0 1.4 -2.2 1.2 -4.4 -0.5z"/>
  <path d="M241 237.9 c-8.2 -2.3 -13.7 -4.1 -16.5 -5.3 -13.5 -6 -20.1 -9.3 -21 -10.2 -1.5 -1.6 -12.2 -9.6 -16.2 -11.9 -9.6 -5.8 -24 -22 -30.1 -33.7 -5 -9.7 -9.8 -22.8 -15.6 -42.3 -1.5 -4.9 -3.6 -11.7 -4.7 -15 -1.1 -3.3 -2.7 -8.9 -3.5 -12.5 -0.8 -3.6 -1.9 -7.4 -2.4 -8.5 -0.8 -1.8 -8.2 -24.7 -11.2 -34.7 -1.3 -4.5 -0.7 -6.4 2.4 -7.1 1.3 -0.3 5.8 -1.5 10.2 -2.6 4.3 -1.2 9.7 -2.1 12 -2.1 7.5 0 29.1 -3.4 49.6 -7.8 15.7 -3.4 23.5 -4.7 38 -6.2 24 -2.5 29.1 -3.2 42 -5.6 7.4 -1.4 16 -2.9 19 -3.5 3 -0.5 18.3 -0.9 33.9 -0.9 20.5 0.1 31.5 -0.3 39 -1.4 16 -2.3 33.7 -3.4 42.1 -2.5 6.7 0.7 21.6 0.9 37 0.5 l5.5 -0.1 -0.3 5.4 c-0.2 3 -0.9 6.6 -1.7 8 -1.7 3.2 -2.7 6.1 -3 8.3 -0.3 2.8 -7.2 12.4 -11 15.3 -4.1 3.2 -4.9 7.9 -1.5 9 2.4 0.7 2.5 2.6 0.4 8 -0.8 2.2 -3 8.6 -4.9 14.2 -2 5.5 -4.2 11.4 -5 13 -0.8 1.5 -1.5 3.6 -1.5 4.6 0 1 -1.1 4.3 -2.5 7.3 -1.4 3 -2.5 5.8 -2.5 6.3 0 0.4 -1.3 3.5 -3 6.7 -1.6 3.2 -3 6.4 -3 7 0 0.6 -0.7 1.7 -1.5 2.4 -0.8 0.7 -1.5 2 -1.5 2.9 0 2 -10.7 16.9 -17.7 24.8 -2.9 3.2 -5.8 6.5 -6.5 7.3 -6.9 8.2 -11.2 13 -11.8 13 -0.3 0 -3.1 2.3 -6.1 5.1 -3 2.8 -8.3 7.4 -11.9 10.3 -3.6 3 -8.1 6.9 -10 8.7 -5.9 5.8 -10 8 -29.7 16.5 -1.7 0.8 -3.5 1.4 -4.1 1.4 -0.5 0 -2.3 0.7 -3.8 1.5 -1.6 0.8 -3.8 1.5 -5 1.5 -1.1 0 -2.4 0.4 -3 0.9 -1.1 1.1 -8.2 3.5 -10.9 3.7 -11.5 0.9 -43.7 1.1 -46.5 0.3z m9 -138.4 c6.2 -4.6 8.1 -9.2 8.8 -21.6 0.4 -8.2 0.2 -10.2 -1.6 -14.2 -1.2 -2.6 -2.8 -4.7 -3.6 -4.7 -0.8 0 -2.7 1.6 -4.2 3.5 -1.4 1.9 -3.2 3.5 -3.8 3.5 -0.7 0 -2.2 2.2 -3.4 4.8 -1.8 4 -2 5.4 -1.2 8.2 1 3.2 0.7 9.1 -0.6 16.1 -0.4 2.3 2.6 7.9 4.3 7.9 0.3 0 2.7 -1.6 5.3 -3.5z m73.9 -19.7 l3.5 -3.1 -2.2 -3.8 c-1.2 -2.1 -2.2 -4.8 -2.2 -6.1 -0.1 -1.3 -1.1 -5.2 -2.4 -8.8 l-2.3 -6.5 -4.9 -0.3 c-5.3 -0.3 -6.4 0.7 -7.7 6.5 -1 4.4 3.2 15 8 20.3 2.5 2.8 5 5 5.6 5 0.7 0 2.7 -1.5 4.6 -3.2z"/>
 </g>
 <g fill="#ffffff">
  <path d="M90.7 588.3 c-0.4 -0.3 -0.7 -2 -0.7 -3.8 0 -2.4 0.7 -3.5 3.1 -4.9 2.6 -1.5 2.9 -2.2 2.4 -4.7 -0.6 -2.5 0 -3.5 3.9 -7.4 5.2 -5.1 8.4 -6.2 12.5 -4.6 2.4 1 3.3 0.9 6.4 -0.9 3.3 -2 4.3 -3.9 3.8 -7.2 0 -0.5 0.3 -0.8 0.7 -0.8 1.1 0 10 5.9 10.8 7.2 0.4 0.6 -2.1 3.6 -5.5 6.8 -3.3 3.1 -6.1 6 -6.1 6.4 0 0.9 -4.3 7 -5.3 7.4 -0.4 0.2 -2 1.4 -3.5 2.6 -1.5 1.3 -4.8 2.8 -7.4 3.4 -5.1 1.3 -14.1 1.6 -15.1 0.5z"/>
  <path d="M78 576.3 c0 -2.8 13 -13.8 14.5 -12.1 0.1 0.1 -2.2 3.3 -5.2 7.1 -5.3 6.6 -9.3 8.8 -9.3 5z"/>
  <path d="M72 566.6 c0 -0.3 1.8 -1.5 4 -2.7 2.2 -1.3 4.7 -3.4 5.6 -4.7 2.1 -3.2 8.9 -6.2 14.3 -6.2 3.7 0 4.2 0.2 3.1 1.5 -0.6 0.7 -3.3 1.7 -5.8 2.1 -4.7 0.7 -11 4.3 -14.6 8.3 -1.6 1.8 -6.6 3 -6.6 1.7z"/>
  <path d="M112.4 553.5 c-0.4 -1 -2.1 -1.5 -5.3 -1.5 l-4.6 -0.1 2.9 -2.5 c3.1 -2.7 5.9 -2.7 10.3 0.2 2.3 1.4 2.3 1.4 0.3 3.4 -2.4 2.4 -2.9 2.5 -3.6 0.5z"/>
  <path d="M184.1 532.8 c-6.1 -7.1 -7 -9.1 -5.1 -10.3 2.1 -1.3 0.8 -2.4 -3.7 -3 -7.4 -1 -16.3 -3.7 -15.7 -4.6 0.8 -1.3 11.3 -8 15.7 -10.1 2 -0.9 3.7 -2.1 3.7 -2.5 0 -0.5 2 -1.9 4.5 -3.3 4.5 -2.5 6.4 -5.4 9.5 -15.5 0.7 -2.2 1.9 -5.3 2.7 -6.8 0.8 -1.5 1.8 -7.2 2.2 -12.6 0.6 -6.8 1.6 -11.1 3.1 -14.1 3.1 -6.1 6 -14.8 6 -17.9 l-0.1 -2.6 -1.2 2.9 c-1.2 2.7 -1.2 2.6 -1.1 -2.6 0.1 -3.1 0.4 -6.1 0.8 -6.7 0.4 -0.6 0.2 -1.1 -0.3 -1.1 -1.7 0 -1.4 -16.6 0.3 -19.3 1.3 -2.1 3.2 -10.3 2.8 -12 -0.1 -0.4 0.5 -4 1.3 -8 1.6 -7.9 2.2 -23.8 1.2 -30.2 -0.3 -2.2 -0.9 -8 -1.2 -13 -0.3 -4.9 -1 -10.3 -1.5 -12 -0.4 -1.6 -1.1 -6.8 -1.4 -11.5 -0.4 -4.7 -0.9 -10.8 -1.2 -13.6 -0.6 -5.1 -0.5 -5.2 2.6 -6.2 1.7 -0.6 4.9 -2.5 7 -4.2 2.1 -1.6 4 -3 4.3 -3 0.2 0 0.5 16.2 0.6 36.1 0 19.8 0.5 38.8 1 42.2 0.6 3.4 1.3 13.2 1.6 21.7 0.3 8.5 1 18.8 1.6 22.9 1.1 9.3 0.2 29.1 -1.7 35.3 -1 3 -1.5 9.1 -1.5 17.5 -0.1 7 -0.1 14.8 -0.1 17.3 0 2.5 0.5 7.2 1.2 10.5 0.6 3.3 1.3 6.5 1.4 7.1 0.1 0.6 0.9 2.2 1.8 3.5 0.8 1.4 1.9 4.9 2.3 7.9 0.3 3 1 7 1.5 8.9 1.1 4.1 -0.5 7 -6.4 10.9 -6.5 4.4 -8.2 5 -17.1 5.8 -3.3 0.3 -7.7 1.2 -9.8 2 -2 0.8 -4.1 1.4 -4.6 1.4 -0.5 0 -3.6 -3.2 -7 -7.2z m24.4 -113.6 c-1.1 -1.1 -2.5 1.5 -1.9 3.3 0.7 1.7 0.8 1.6 1.6 -0.5 0.5 -1.3 0.6 -2.5 0.3 -2.8z"/>
  <path d="M309.8 532.3 c-3.3 -2.1 -3.4 -2.5 -0.9 -4.7 1.1 -1 1.7 -2.5 1.4 -3.5 -0.3 -1.1 0 -2.2 0.6 -2.5 1.9 -1.2 1.2 -2.6 -1.4 -2.6 -1.4 0 -2.5 -0.4 -2.5 -0.9 0 -2.8 5.7 -12.8 10.2 -17.9 6.7 -7.5 8.8 -13.3 7.7 -21.7 -0.6 -4.9 -0.3 -7.2 1.6 -13 3 -8.9 4.4 -24.5 4.5 -49.5 0.1 -43.7 -0.7 -111.2 -1.4 -121.2 -0.5 -6.3 -0.5 -10.8 0 -10.8 2.5 0 12.2 -9.6 15.9 -15.6 5 -8.4 6.6 -9.1 6.4 -3.2 -0.1 5.5 0.7 17.4 1.4 18.5 0.3 0.4 0.8 6 1.1 12.3 0.4 6.3 0.9 14 1.1 17 0.7 8.2 0.8 14 0.3 30 -0.3 11.1 -0.8 15.1 -2.1 17 -1.1 1.8 -1.7 5.9 -2.1 14.6 -0.4 11.2 -2.6 28.1 -4.5 36.4 -0.5 1.9 -0.9 14.1 -1 27 -0.2 24.9 -0.9 30.4 -4.2 35 -1.7 2.2 -2 3.6 -1.4 6.9 0.4 2.2 1.1 4.3 1.6 4.7 0.5 0.3 0.9 1.5 0.9 2.8 0 3.2 3 5.6 7 5.6 1.9 0 7.3 1.7 12 3.7 6.9 3 10.1 3.7 16.7 4.1 7.6 0.4 8.2 0.6 7.3 2.3 -0.6 1 -1 2.5 -1 3.4 0 1 -1.3 3.4 -3 5.5 -1.6 2.1 -3 4.3 -3 4.8 0 0.6 -1.3 2 -2.9 3.1 -2.2 1.6 -3.4 1.8 -5.7 1.1 -8.4 -2.6 -13.8 -2.8 -19.4 -0.8 -3 1 -6.3 2.3 -7.2 2.9 -1 0.5 -2.5 0.9 -3.5 0.9 -0.9 0 -2.6 0.9 -3.8 2 -1.4 1.4 -4 2.2 -8.1 2.5 -4.4 0.4 -6.3 1 -7.4 2.5 -2.2 2.9 -7.8 3.5 -11.2 1.3z"/>
  <path d="M451.5 530.7 c-1 -0.5 -3.5 -0.7 -5.6 -0.4 -5.7 0.8 -18.6 -3.9 -19.7 -7.1 -0.4 -1.4 9.2 -6.2 12.7 -6.2 3 0 9.1 2.1 9.1 3.2 0 0.4 2.7 0.6 6 0.5 5 -0.1 6.4 0.2 8.2 2.1 2.6 2.5 2.2 3 -4.3 6.5 -3.4 1.8 -5.1 2.2 -6.4 1.4z"/>
  <path d="M360.9 530 c-2.1 -1.4 -0.2 -2.4 2.3 -1.3 1.7 0.7 1.9 1.1 0.6 1.5 -0.8 0.4 -2.1 0.2 -2.9 -0.2z"/>
  <path d="M288.6 529.2 c-0.3 -0.6 -0.1 -1.4 0.5 -1.7 1.5 -1 2.5 0.3 1.2 1.6 -0.7 0.7 -1.3 0.7 -1.7 0.1z"/>
  <path d="M440.4 505.3 c-2.1 -2.1 -0.6 -2.7 3.2 -1.3 2.3 0.9 2.5 1.3 1.4 2 -2.1 1.3 -2.6 1.2 -4.6 -0.7z"/>
  <path d="M254.5 264.9 c-3.3 -0.6 -7.8 -0.8 -10 -0.5 -2.2 0.2 -7.1 -0.1 -11 -0.8 -7.3 -1.4 -25.8 -7.6 -26.3 -8.8 -0.2 -0.4 -2 -1.2 -4 -1.8 -3.9 -1 -16.3 -8.5 -19.7 -11.8 -2.2 -2.2 -15 -10.4 -17.7 -11.5 -1 -0.3 -3.2 -2.7 -5 -5.2 -1.7 -2.5 -3.5 -4.5 -3.9 -4.5 -2.3 0 -13.9 -15.1 -13.9 -18.1 0 -1.6 -3.9 -7.8 -7 -11.1 -2.7 -2.9 -3.9 -5.1 -12.5 -23.1 -3.1 -6.5 -6.9 -13.9 -8.5 -16.3 -3.2 -5.2 -5.9 -11.8 -8.9 -22.4 -2 -6.7 -7 -21.2 -9.1 -26.5 -1.9 -4.5 -2.1 -6.7 -0.8 -8.2 1.1 -1.4 1.1 -1.6 -0.4 -1 -1.4 0.5 -1.9 -0.1 -2.3 -3.1 -0.4 -2 -1.3 -6.2 -2.2 -9.2 -0.8 -3 -2 -9.2 -2.7 -13.7 -1 -7.2 -1 -8.2 0.4 -8.6 0.8 -0.3 2.2 -0.8 3.1 -1.1 2 -0.9 3.8 3.1 10.4 22.9 2.9 8.8 6 17.7 6.9 19.7 0.9 2 2.7 7.9 4.1 13 1.3 5.1 3.6 12.5 4.9 16.3 1.4 3.9 4.5 13.1 6.9 20.5 8.5 25.8 13.9 36.8 24.7 50.5 6.2 7.9 18.8 19.6 27.1 25.2 3.1 2.1 9 6.1 13 8.9 14.7 10 27.7 15.8 42.9 19.1 10.3 2.2 42.1 2.5 51 0.5 15.6 -3.6 28.6 -8 41 -13.9 18.5 -8.9 56.5 -39.9 73.3 -59.8 1.4 -1.6 4.8 -5.7 7.6 -8.9 5.3 -6.2 10.5 -15.5 19 -34.6 6.3 -13.9 6.6 -14.7 8 -18.5 0.5 -1.6 3 -8.2 5.4 -14.5 10.4 -27 17 -49.2 18.2 -61 0.5 -5.1 3.7 -19.1 5.3 -23.2 0.9 -2.3 3.8 -4.8 5.5 -4.8 1.5 0 1.6 8.3 0.3 14 -0.8 3.6 -1.7 7.9 -2 9.6 -0.3 1.7 -1.3 5 -2.1 7.5 -1.7 4.5 -3.4 11.5 -4 15.9 -0.2 1.4 -1.2 5 -2.2 8 -3.8 10.8 -7.9 25.2 -10.2 36 -0.4 2 -2 6.2 -3.5 9.5 -1.5 3.3 -4.1 10.3 -5.8 15.5 -3.1 9.8 -9.6 22.8 -16.7 33.5 -1.5 2.2 -3.2 5.1 -3.9 6.5 -0.6 1.4 -2 3.6 -3.1 5 -1 1.4 -5.3 7.7 -9.4 14 -4.5 6.9 -8.9 12.4 -11 13.8 -1.9 1.3 -4.8 3.7 -6.3 5.4 -8.4 8.9 -17.7 17.8 -18.6 17.8 -1 0 -3.5 1.8 -10.1 7.1 -3.3 2.7 -15.3 9.9 -16.4 9.9 -0.4 0 -4.3 1.8 -8.7 3.9 -12.6 6.1 -19.1 8.8 -22.7 9.6 -1.9 0.4 -7.6 2 -12.8 3.6 -5.1 1.6 -12.5 3.1 -16.5 3.4 -18.2 1.2 -21.5 1.3 -27.1 0.4z"/>
 </g>
</svg>