<?xml version="1.0" encoding="utf-8"?>
<!DOCTYPE svg PUBLIC "-//W3C//DTD SVG 20010904//EN" "http://www.w3.org/TR/2001/REC-SVG-20010904/DTD/svg10.dtd">
<svg version="1.0" xmlns="http://www.w3.org/2000/svg" width="221px" height="436px" viewBox="0 0 221 436" preserveAspectRatio="xMidYMid meet">
 <g fill="#000000">
  <path d="M72.7 432.8 c-0.7 -0.4 -3.1 -0.8 -5.4 -0.8 -2.5 0 -6.1 -1 -8.9 -2.5 -2.6 -1.4 -5.3 -2.5 -6 -2.5 -0.8 0 -1.4 -0.3 -1.4 -0.7 0 -0.5 -1.6 -1.9 -3.5 -3.2 -3.5 -2.3 -4.8 -4.2 -8 -11 -1.4 -2.8 -1.5 -6 -1.1 -19.5 0.3 -8.8 1.2 -20.1 2 -25 1 -5.9 1.2 -9.5 0.5 -10.7 -0.5 -1 -0.9 -2.9 -0.9 -4.2 0 -3.1 -2.5 -8.2 -6.6 -13.2 -1.7 -2.2 -4.3 -6.3 -5.8 -9.2 -2.9 -5.8 -3.5 -6.3 -7.7 -7 -1.7 -0.2 -3.8 -1.2 -4.8 -2.1 -1 -0.9 -3.5 -3 -5.4 -4.5 -2 -1.5 -3.6 -3.1 -3.5 -3.5 0 -0.4 -0.7 -2.5 -1.7 -4.7 -1.2 -2.8 -1.6 -5.4 -1.2 -8.6 0.3 -2.7 0 -6.2 -0.8 -8.5 -1.1 -3.4 -1.1 -5.2 0.1 -12.4 0.8 -4.7 1.4 -11.8 1.2 -15.9 -0.2 -5.7 0 -7.5 1.2 -8.1 0.8 -0.4 3.3 -1.6 5.5 -2.8 2.2 -1.2 5.9 -3 8.3 -4.1 2.3 -1.1 4.2 -2.5 4.2 -3 0 -0.5 1.6 -1.5 3.6 -2.1 4.2 -1.4 6.9 -5.4 7.9 -11.6 0.5 -3.4 1.5 -5.1 4.7 -7.9 2.3 -1.9 4.7 -3.5 5.4 -3.5 1.5 0 9.4 -4.1 11.2 -5.7 1.4 -1.3 3.6 -1.7 8.5 -1.3 2.3 0.1 4 -1.1 9 -6.4 l6.2 -6.7 0.1 -10.7 c0.1 -6 0.8 -12.4 1.5 -14.7 l1.4 -4 8.5 -1.2 c4.7 -0.7 9.4 -1.4 10.5 -1.5 1.1 -0.1 2.5 -0.5 3 -0.9 0.6 -0.5 4 -1.1 7.5 -1.5 5.5 -0.5 7.8 -0.2 14.7 2.1 10.9 3.5 13.1 2.4 13.5 -7 0.1 -3.4 -1 -27 -1.9 -38.5 -1.3 -17.6 -1.4 -26.2 -0.4 -27.3 0.5 -0.7 1 -3.5 1 -6.3 -0.1 -2.7 0.4 -9.3 1.1 -14.6 0.6 -5.5 0.9 -16.4 0.7 -24.9 -0.3 -8.4 -0.2 -15.9 0.3 -16.8 0.4 -0.9 1.4 -2.9 2.2 -4.6 0.9 -1.6 1.8 -4.6 2.2 -6.6 0.4 -2.4 1.7 -4.3 3.8 -5.9 1.7 -1.3 4.8 -4.1 6.7 -6.3 6.2 -6.9 7.1 -7.7 8.5 -7.7 0.8 0 2.2 0.7 3 1.6 0.9 0.8 2 1.3 2.5 1 3.6 -2.2 16 9.1 18.6 17 0.9 2.7 2.2 5.4 2.9 5.9 2.3 1.9 2.5 4.3 0.5 6.8 -2.5 3.3 -2.4 4.2 0.7 8.2 1.4 1.9 2.8 5.2 3.1 7.5 0.3 2.2 0.9 4 1.3 4 4.1 0 4.2 67.3 0.2 73.5 -0.4 0.5 -1 12.3 -1.4 26 -0.3 13.8 -0.9 26.1 -1.2 27.5 -1.3 6.1 -2.5 15.4 -2 16.2 0.3 0.5 0 1.6 -0.7 2.4 -2.1 2.5 0.2 3.6 5.2 2.5 6.4 -1.5 7.5 -1.4 8.7 1.3 0.7 1.6 2.4 2.9 5 3.5 2.3 0.7 4.7 2.3 6 4 2.6 3.5 2.7 4.4 0.8 7.9 -2.2 3.9 -5.6 14.8 -5.6 17.6 0 1.3 0.9 4.6 2.1 7.3 1.6 3.9 2 6.3 1.6 12.8 -0.2 4.4 -0.7 9.8 -1 12 -1.1 7.2 -0.7 28.2 0.6 30.3 0.5 0.7 0.2 1.4 -0.7 1.8 -0.9 0.4 -2 3.8 -3.2 10.2 -0.9 5.3 -2 9.9 -2.3 10.2 -0.4 0.3 -1.3 2.4 -2.1 4.8 -0.7 2.4 -2.4 5.7 -3.7 7.4 -1.3 1.8 -2.3 3.8 -2.3 4.5 0 1.3 -1.5 4.4 -3.6 7.3 -0.5 0.8 -1.9 3.5 -2.9 6 -1 2.5 -2.9 6.9 -4.2 9.8 -1.3 2.9 -2.3 5.6 -2.3 6 0 0.4 -1.8 2.6 -4 4.7 -2.2 2.1 -4 4.4 -4 5 0 0.5 -1.2 2.1 -2.5 3.4 -1.4 1.3 -2.5 2.9 -2.5 3.7 0 2.1 -6.9 8.2 -10 8.9 -1.5 0.3 -4.3 1.7 -6.1 3.1 -1.8 1.3 -5.2 2.9 -7.4 3.5 -2.2 0.6 -4.2 1.4 -4.5 1.8 -0.3 0.4 -2.3 1.8 -4.5 3.1 -5.9 3.5 -8.5 6 -10.7 10.7 -2.6 5.5 -8.2 9.9 -19.3 15.3 l-9 4.3 -14.8 0.1 c-8.2 0.1 -15.4 -0.2 -16 -0.6z m39.9 -13.8 c1.8 -1.2 5.4 -5 7.9 -8.6 6.2 -8.7 7.4 -9.7 19.5 -16.1 5.8 -3.1 12.6 -6.7 15.2 -8.1 2.6 -1.4 5.8 -3.5 7.2 -4.6 2.4 -2 2.5 -2.4 1.5 -6.1 -1.7 -6 -0.6 -12.5 3.4 -20.3 2.1 -3.9 3.7 -8.4 3.7 -10.1 0 -1.6 0.4 -3.2 0.9 -3.6 2.1 -1.2 4.3 -7.4 5 -14.1 0.5 -4 1.2 -7.8 1.7 -8.5 0.4 -0.8 1.4 -4.3 2.1 -7.9 3.6 -17.5 4.4 -21 6.1 -27.5 1 -3.8 2.6 -8.7 3.5 -10.9 0.9 -2.1 1.7 -4.1 1.7 -4.4 0 -0.2 0.8 -2.3 1.9 -4.6 2.2 -4.9 6.1 -17.4 6.1 -19.7 0 -0.9 -0.9 -2.8 -2 -4.2 -1.2 -1.5 -2 -4 -2 -6.2 0 -3.1 0.4 -3.8 2.9 -4.8 1.9 -0.7 3.6 -2.4 4.7 -4.9 1.7 -3.8 1.7 -3.9 -0.4 -6.1 -2.6 -2.5 -5.6 -2.6 -21.7 -0.8 -5.5 0.6 -16.6 1.4 -24.6 1.9 -12.6 0.7 -14.9 1.1 -17.6 3 -1.7 1.2 -4.3 2.2 -5.8 2.2 -1.5 0 -3.9 0.8 -5.3 1.9 -1.5 1 -3.9 2.1 -5.3 2.4 -4.1 1 -7.3 4.1 -13.3 12.9 -9.5 14 -7.4 18.1 8.5 17.3 19.4 -1.1 28 -1.9 28.5 -2.7 0.3 -0.4 2.1 -0.8 4.1 -0.8 3.5 0 6.5 -0.8 14.6 -3.6 4.6 -1.7 11.9 -1.8 13.5 -0.2 0.7 0.7 1.2 3.3 1.2 5.9 0 4.3 -0.3 4.8 -3.7 7.1 -2.9 1.9 -5.7 2.6 -11.6 3.1 -10.2 0.9 -12.1 1.9 -11.2 6 0.4 1.8 0.9 7.7 1.2 13.2 0.4 9.2 0.2 10.5 -2.1 15.8 -1.4 3.2 -2.6 7.5 -2.6 9.5 0 4.9 -0.5 5.6 -9.4 11.4 -0.6 0.4 -3.8 2 -7.1 3.5 -5 2.3 -7.7 2.8 -16.4 3.1 -10 0.4 -22.7 -1.5 -25.6 -3.8 -0.5 -0.5 -5.3 -0.4 -10.5 0.2 -5.2 0.5 -13.4 0.8 -18.2 0.6 l-8.7 -0.3 3.3 3.5 c3.5 3.8 6.6 12 8.6 23 2.6 14.7 3.2 16.9 4.6 18 1.1 1 1.3 3.4 0.8 12.9 -0.3 6.4 -1 12.9 -1.5 14.5 -2.2 7.2 2.8 14 12.7 17.2 3.9 1.2 21.9 5 25.8 5.3 0.5 0.1 2.4 -0.8 4.2 -1.9z m-73.9 -113.8 c0.8 -0.5 0.4 -2.7 -1.3 -8.2 -2.2 -6.6 -2.5 -9.1 -2.3 -20.8 0.2 -12.5 0.1 -13.4 -1.9 -15.5 -2.2 -2.1 -2.2 -2.1 -4.2 -0.2 -1.7 1.7 -2 4.2 -2.9 19.4 -0.5 9.5 -0.7 18 -0.4 18.7 0.3 0.8 2.3 2.4 4.4 3.4 2.1 1.1 4 2.4 4.4 3 0.7 1.2 2.5 1.3 4.2 0.2z m37 -4.1 c3.1 -2.2 4.1 -3.8 4.6 -6.6 0.3 -2.1 1.2 -4.5 2 -5.4 1.2 -1.3 4.7 -10.8 4.7 -12.5 0 -0.3 -1.8 -1.7 -4 -3.1 -2.3 -1.4 -5 -4 -6.1 -5.8 -4.3 -6.8 -0.4 -21.6 8.1 -30.7 l2.9 -3.1 -1.9 -4.3 c-1 -2.4 -2.3 -4.7 -2.9 -5 -1.4 -0.9 -12.5 2 -12.9 3.4 -0.2 0.5 -1.1 1 -2 1 -2.4 0.1 -9.5 5.2 -10.8 7.9 -0.8 1.5 -1 7.9 -0.7 19.9 0.4 17.6 1.9 27.2 4.8 32.9 0.8 1.5 1.5 3.3 1.5 3.9 0 1.8 6.1 10.4 7.4 10.4 0.7 0 3.1 -1.3 5.3 -2.9z m45.1 -0.1 c2.6 0 3.6 -0.6 5 -3 0.9 -1.6 2 -3 2.5 -3 0.4 0 0.7 -0.9 0.7 -2 0 -1.1 0.5 -2 1.1 -2 2.3 0 3.8 -3.6 3.9 -9.1 0 -3.3 -0.5 -6.1 -1.2 -6.7 -0.9 -0.7 -4.7 -0.6 -12.3 0.4 -6 0.7 -11.3 1.3 -11.7 1.4 -1.3 0 -0.9 5.8 0.5 6.2 0.8 0.3 1.2 3.1 1.2 9.4 0 10 1.2 12.4 4.9 9.8 1.1 -0.8 3.5 -1.4 5.4 -1.4z m-12.1 -86.2 c1.5 -0.6 3.5 -1.7 4.3 -2.4 0.8 -0.7 3.4 -1.7 5.6 -2.3 7.1 -1.9 9.8 -9.2 4.9 -12.8 -1.7 -1.2 -2.8 -3.2 -3.2 -5.8 -1.2 -7.3 -6.2 -8.7 -18.3 -4.9 -4.5 1.4 -7.9 4.7 -6 5.9 0.6 0.3 1 1.8 1 3.3 0 1.5 0.7 4 1.5 5.6 0.8 1.5 1.5 4.2 1.5 5.9 0 2 1 4.1 2.7 5.9 3.1 3.3 2.5 3.1 6 1.6z m65.5 -23.5 c0.4 -5.1 1.2 -10.2 1.8 -11.2 0.6 -1.1 1 -8.7 1 -17.7 0 -8.6 0.6 -20.2 1.4 -25.8 0.8 -5.5 1.9 -14.4 2.5 -19.6 1.4 -12 1.9 -49.1 0.7 -54.8 -0.6 -3 -0.5 -5 0.4 -6.7 1 -1.8 1 -3.1 0.1 -5.6 -0.6 -1.7 -1.1 -5.9 -1.1 -9.2 0 -8.2 -1.7 -13.4 -5.9 -18.3 -2 -2.2 -4.4 -5 -5.3 -6.2 -1.9 -2.3 -4.3 -2.9 -5.3 -1.2 -0.6 1 -1.5 49.8 -1.8 105.5 -0.3 31.7 -2.8 57.7 -7.2 72.8 l-2.3 7.8 10.2 -0.3 10.1 -0.3 0.7 -9.2z"/>
 </g>
 <g fill="#ff3600">
  <path d="M94.5 422 c-19.6 -3.6 -25.2 -6.6 -27.9 -14.9 -2 -6.1 -2 -7 -0.2 -10.7 1.9 -3.7 2.5 -20.7 0.8 -22.6 -1.1 -1.4 -1.8 -4.3 -4.2 -17.8 -2.3 -12.7 -4.9 -19.1 -10.2 -24.5 -5 -5.2 -5.9 -8.3 -3.3 -10.5 1.3 -1.1 2.3 -0.9 5.7 1 3.9 2.2 4.7 2.2 16.4 1.6 6.8 -0.4 13.7 -1.2 15.4 -1.7 2.3 -0.8 3.6 -0.7 6 0.5 5.9 2.9 16.5 4.8 24.2 4.4 6.5 -0.4 15.3 -3.2 20.4 -6.6 8.9 -5.8 9.4 -6.5 9.4 -11.4 0 -2 1.1 -6.3 2.5 -9.4 3 -6.7 3.3 -14 0.9 -22.1 -1.8 -6.1 -1.3 -9.8 1.6 -11.3 1 -0.6 5.4 -1.3 9.7 -1.7 11.6 -0.9 18.6 -6.3 13.7 -10.4 -1.5 -1.2 -6.4 -0.2 -15.2 3.2 -1.3 0.5 -4 0.9 -6.2 0.9 -2.1 0 -4.1 0.4 -4.4 0.9 -1.2 1.9 -40.7 3.7 -44.8 2 -3.4 -1.4 -6.3 -5.6 -5 -7.2 0.5 -0.7 1 -2.5 1 -4 0 -1.8 2 -5.9 5.7 -11.3 6.1 -9 9.3 -12.1 13.4 -13.1 1.4 -0.3 3.9 -1.5 5.5 -2.6 1.7 -1.2 4.1 -2 5.4 -1.9 1.3 0.1 3.8 -0.8 5.5 -2 2.7 -1.9 5 -2.3 17.6 -3 8 -0.5 19.1 -1.3 24.6 -1.9 21.9 -2.4 23.1 -2.3 29 1.3 1.1 0.7 2.1 1.4 2.3 1.5 0.4 0.1 -2.1 7.8 -3.9 11.6 -0.7 1.5 -1.7 2.7 -2.4 2.7 -0.6 0 -2 0.6 -3 1.4 -1.8 1.3 -1.8 1.4 0.3 4.1 1.5 1.9 2.2 4.2 2.2 7.4 0 4.8 -2.9 15.7 -6.1 22.7 -1.1 2.3 -1.9 4.4 -1.9 4.6 0 0.3 -0.8 2.3 -1.7 4.4 -0.9 2.2 -1.7 4.4 -1.9 4.9 -0.1 0.6 -0.9 3.7 -1.9 7 -0.9 3.3 -2.3 9.2 -3 13 -3.6 17.8 -4.2 20.1 -4.9 21.4 -0.5 0.7 -1.2 4.5 -1.7 8.5 -0.7 6.7 -2.9 12.9 -5 14.1 -0.5 0.4 -0.9 2 -0.9 3.6 0 1.7 -1.7 6.2 -3.7 10.2 -4.2 7.9 -4.8 13.7 -2 17.7 1.4 2 1.4 2.6 0.2 5 -1.9 3.6 -2.9 4.3 -25.5 16.3 -12.1 6.4 -13.2 7.4 -19.5 16.1 -7.9 11.1 -10.8 12 -29 8.6z"/>
  <path d="M33.4 308.7 c-1.2 -0.6 -4 -2.2 -6.2 -3.5 -3.3 -1.7 -4.4 -3 -5.2 -6.2 -0.6 -2.3 -0.9 -4.9 -0.6 -5.8 0.3 -0.9 0.8 -5.1 1.1 -9.2 1.5 -24.7 1.5 -24.9 4.7 -27.5 1.6 -1.4 3.3 -2.5 3.7 -2.5 0.4 0 2.2 1.3 4.1 2.8 l3.4 2.9 0.2 15.4 c0.2 12.2 0.7 16.5 2.2 20.7 1 2.9 2.1 5.5 2.4 5.7 0.2 0.3 0.3 1.8 0 3.5 -0.4 2.8 -0.8 3.1 -6.2 4.6 -0.8 0.2 -2.5 -0.2 -3.6 -0.9z"/>
  <path d="M64.1 303.8 c-1.7 -2.3 -3.6 -5.7 -4.2 -7.7 -0.6 -2 -1.5 -4 -1.9 -4.6 -0.5 -0.5 -1.5 -3.9 -2.3 -7.5 -2.1 -8.9 -3.2 -46.5 -1.4 -50 1.4 -2.8 8.4 -7.9 10.9 -8 0.9 0 1.8 -0.5 2 -1 0.2 -0.6 2.8 -1.8 5.8 -2.6 11.8 -3.4 12.9 -3.1 16.1 4.3 1 2.4 2.2 4.3 2.8 4.3 0.5 0 1.2 0.7 1.5 1.6 0.5 1.2 -0.7 3 -3.7 5.9 -5 4.8 -10.3 13.9 -11.1 19.3 -0.8 4.7 1.8 9.1 7.4 12.7 2.3 1.4 4.4 3.3 4.7 4.1 0.7 1.9 -3.4 15.2 -5.3 17.5 -0.8 0.8 -1.7 3.3 -2.2 5.5 -0.6 3.2 -1.7 4.5 -5.6 7.2 -6.7 4.5 -9.7 4.3 -13.5 -1z"/>
  <path d="M109.2 306 c-1.9 -1.6 -2.1 -2.7 -1.9 -10.4 0.1 -6 -0.2 -8.9 -1 -9.4 -0.7 -0.4 -1.4 -3.4 -1.5 -6.7 l-0.3 -5.9 3.2 -0.2 c7.2 -0.4 17 -1.6 21.1 -2.6 6.4 -1.6 8 0.4 8.4 10.3 0.3 7.9 -1.2 12.9 -3.9 12.9 -0.7 0 -1.3 0.7 -1.3 1.5 0 0.9 -0.5 2.1 -1 2.8 -0.6 0.7 -2 2.4 -3.1 4 -1.6 2.2 -2.8 2.7 -5.4 2.5 -1.8 -0.1 -3.9 0.3 -4.7 0.9 -2.4 1.9 -6.4 2 -8.6 0.3z"/>
  <path d="M99.1 215.6 c-2.6 -2.7 -3.2 -4.1 -2.8 -6.1 0.2 -1.5 -0.2 -3.9 -0.9 -5.4 -0.8 -1.4 -1.4 -3.6 -1.4 -4.9 0 -1.2 -0.8 -3.4 -1.7 -4.8 -1.6 -2.4 -1.5 -2.8 0.2 -6 2.2 -4.1 7.5 -6.1 18.5 -6.9 8.9 -0.7 11.3 0.7 12.3 7 0.4 2.6 1.5 4.6 3.1 5.8 1.7 1.2 2.7 3.1 3.2 6.2 0.9 6.2 -2.1 11 -7.9 12.6 -2.3 0.6 -4.9 1.6 -5.7 2.3 -2.6 2.1 -7 3.6 -10.4 3.6 -2.3 0 -4.1 -0.9 -6.5 -3.4z"/>
  <path d="M148.3 203.3 c-0.3 -0.8 0.3 -3.3 1.5 -5.6 3.8 -7.8 5.8 -18.7 8.9 -48.7 0.8 -7.7 1 -26.6 0.4 -44.5 -0.2 -5.5 0 -11.6 0.4 -13.5 0.3 -1.9 0.7 -20.3 0.9 -40.8 0.2 -41.9 0.1 -41 7.1 -39.6 2.1 0.4 4.5 1.6 5.4 2.7 0.9 1.1 3.2 3.9 5.2 6.1 4.3 4.9 4.8 6.4 6 18.1 0.5 5 1.2 11.4 1.5 14.3 0.4 3.2 0.2 5.8 -0.5 6.6 -0.8 1 -0.7 2.4 0.3 5.4 1 2.7 1.3 6.8 1.1 11.9 -0.2 4.3 -0.6 14.1 -0.9 21.8 -0.4 7.7 -1.1 17.6 -1.6 22 -1.5 13 -2.3 18.8 -2.7 21.5 -0.3 1.4 -0.6 10.9 -0.8 21.1 -0.2 12.7 -0.7 19.4 -1.6 21 -0.7 1.3 -1.3 6.1 -1.4 10.7 -0.1 4.6 -0.6 8.7 -1.2 9.3 -0.5 0.5 -6.9 1.1 -14.2 1.3 -10.8 0.3 -13.4 0.1 -13.8 -1.1z"/>
 </g>
</svg>