<?xml version="1.0" encoding="utf-8"?>
<!DOCTYPE svg PUBLIC "-//W3C//DTD SVG 20010904//EN" "http://www.w3.org/TR/2001/REC-SVG-20010904/DTD/svg10.dtd">
<svg version="1.0" xmlns="http://www.w3.org/2000/svg" width="468px" height="431px" viewBox="0 0 468 431" preserveAspectRatio="xMidYMid meet">
 <g fill="#000000">
  <path d="M184.7 427.9 c-1.5 -2 -1.3 -3.4 1.3 -12.1 0.6 -2.1 1.5 -4 2 -4.3 0.6 -0.4 1.8 -2.3 2.9 -4.3 1 -2 3.4 -6.6 5.4 -10 2.1 -3.5 3.7 -6.9 3.7 -7.5 0 -1.9 8.1 -13.6 11.4 -16.5 1.8 -1.6 4.7 -5.1 6.6 -7.8 1.8 -2.7 4.9 -6.7 7 -8.9 5.4 -5.9 20.5 -26.6 20.2 -27.7 -0.1 -0.5 0.2 -0.7 0.7 -0.4 0.9 0.6 5.1 -4.4 5.1 -6.1 0 -0.5 1.8 -2.5 4.1 -4.4 2.3 -1.9 4.7 -4.5 5.4 -5.9 0.7 -1.4 2.7 -4.1 4.4 -6 1.7 -1.9 3.1 -4.1 3.1 -4.9 0 -0.7 1.6 -3.1 3.5 -5.2 1.9 -2.2 3.5 -4.3 3.5 -4.8 0 -2 -13.4 -12.1 -16 -12.1 -1.4 0 -7.5 0.9 -13.5 1.9 -6.1 1.1 -15.5 2.2 -21.1 2.5 -5.5 0.3 -11.3 1 -12.7 1.5 -2.5 1 -2.7 1.5 -2.6 6.3 0 2.9 0.3 7.1 0.7 9.3 0.5 2.5 0.2 5.9 -0.6 9 -0.7 2.8 -1.7 8.9 -2.2 13.7 -0.4 4.7 -1.6 11.3 -2.6 14.6 -1.8 6 -1.8 6.1 -7.2 7.7 -4.6 1.5 -8 1.6 -24 1.1 -10.3 -0.4 -21.2 -0.9 -24.2 -1.1 -3 -0.1 -14 -0.6 -24.4 -0.9 -11.9 -0.4 -19.6 -1.1 -21 -1.9 -1.4 -0.8 -7.2 -1.2 -18.1 -1.1 -13.7 0.1 -16.5 0.3 -19.7 2 -3.9 2 -12.7 11.4 -21.3 22.9 -2.9 3.9 -6.3 7.9 -7.4 8.9 -1.2 1.1 -2.1 2.3 -2.1 2.8 0 0.5 -1.2 2.7 -2.7 5.1 -1.4 2.3 -2.6 4.8 -2.6 5.4 0 2.2 -6.5 1.6 -7.7 -0.6 -2.1 -4.1 -1.4 -14.2 1.9 -24.5 1.7 -5.4 3.1 -10.7 3.1 -11.8 0 -1 0.9 -3.6 1.9 -5.7 1.1 -2 2.2 -5.9 2.5 -8.4 0.3 -2.6 1.2 -6 2.1 -7.7 0.8 -1.6 1.5 -3.6 1.5 -4.5 0 -0.8 1.2 -2 2.7 -2.6 1.6 -0.6 3.8 -2 5 -3.1 2 -1.9 3.5 -2.1 14 -2.2 6.5 0 20.8 0.5 31.8 1.1 12.7 0.8 21.5 0.9 24 0.3 2.2 -0.5 5.3 -1.2 6.9 -1.6 2.3 -0.6 3.2 -0.2 5 2.1 2.2 2.7 2.3 2.7 14 2.6 6.5 -0.1 12.2 -0.4 12.7 -0.7 0.9 -0.5 17.1 -1.5 24.1 -1.5 3.6 0 4.8 -1.8 4.1 -6.3 -0.4 -2.6 -1.2 -4 -2.5 -4.4 -1.9 -0.4 -1.9 -0.5 0 -2.2 1.7 -1.6 1.9 -3.2 1.8 -14.1 -0.1 -6.8 -0.5 -13 -0.9 -13.6 -0.5 -0.7 -2.8 -1.3 -5.2 -1.3 -8.7 0 -26.8 -5.8 -43.2 -13.8 -29 -14.2 -50.7 -38.3 -61.8 -68.7 -3.4 -9.2 -3.6 -10.6 -3.1 -17.6 l0.5 -7.7 -4.9 -2.1 c-6.9 -3 -9.4 -2.7 -12.4 1.2 -1.5 1.9 -2.6 4.6 -2.6 6 0 1.4 -0.5 3.8 -1 5.3 -0.6 1.5 -1.9 7.2 -3 12.6 -1 5.4 -2.2 10.3 -2.6 10.9 -0.8 1.4 -2.2 6.7 -3.4 13.4 -0.5 2.8 -1.2 6.3 -1.6 7.9 -0.6 2.4 -0.1 3.3 3.2 6.5 2.2 2 5.4 4.1 7.3 4.6 2.8 0.8 3.7 1.8 5 5.3 1.5 4.2 1.5 4.4 -0.4 5.9 -2 1.5 -8 1.4 -16.1 -0.3 -3 -0.6 -3.1 -0.4 -5.4 5.3 -1.8 4.4 -2.4 8 -2.5 15 -0.2 9.8 -1.2 12.3 -4.9 12.3 -2.7 0 -6.2 -3.1 -11.3 -10 -6.9 -9.3 -7.6 -11.4 -7 -19.9 0.4 -7.5 6 -27.1 7.6 -27.1 0.4 0 1.8 -5.1 3.1 -11.2 1.3 -6.2 2.9 -12 3.6 -12.9 0.8 -0.8 1.7 -3 2 -4.8 0.4 -1.7 1.5 -3.6 2.4 -4.1 1.7 -0.9 3.9 -7.5 4.4 -13 0.1 -1.4 1 -4.2 1.9 -6.3 0.9 -2.1 1.9 -5.4 2.3 -7.5 0.7 -4 8.8 -20 13.5 -26.9 2.5 -3.5 3.6 -4.3 7.3 -4.8 3 -0.5 5.2 -0.2 7.2 0.8 1.6 0.8 5.4 2 8.4 2.7 3 0.7 6.5 1.6 7.8 2.1 3.8 1.5 5.6 1 7.7 -1.8 1.1 -1.5 3.7 -4.6 5.7 -7 2 -2.3 4.2 -5.1 5 -6 1.3 -1.8 3.9 -4 10.9 -9.3 1.8 -1.4 4.9 -3.8 6.8 -5.5 1.9 -1.6 5.6 -4.1 8.2 -5.5 2.6 -1.4 7.4 -3.9 10.6 -5.6 3.2 -1.8 9.6 -4.5 14.3 -6.2 4.7 -1.6 12.3 -4.4 17 -6.1 4.7 -1.6 13 -4 18.5 -5.1 12.3 -2.6 16.5 -3.9 16.5 -5.1 0 -0.5 -1.2 -0.9 -2.7 -1 -13.5 -0.3 -18.2 -0.9 -21.8 -2.5 -3.7 -1.8 -4 -2.2 -4 -5.9 0 -5.2 2.5 -6.5 12.7 -6.5 4.2 0 7.9 -0.4 8.2 -0.9 0.3 -0.4 1.9 -1.1 3.5 -1.4 3.7 -0.8 4 -2.8 3.8 -23.2 -0.2 -12.8 -0.5 -15.5 -2.1 -18.1 -1.9 -3.2 -1.7 -6.2 0.6 -6.8 0.7 -0.2 5.6 -0.9 10.8 -1.6 5.2 -0.6 13.1 -1.8 17.5 -2.5 10.4 -1.8 35.6 -2.9 37.4 -1.6 1.9 1.2 1.7 8.2 -0.3 17.9 -1.7 7.7 -2 17.7 -1 25.6 0.7 4.5 0.7 4.6 4.3 4.6 2 0 5.1 -0.9 6.9 -2 3.6 -2.2 9.2 -2.6 11 -0.8 2.2 2.2 1.4 7.5 -1.8 11.1 -3.3 3.8 -12.6 7.1 -24.7 8.8 -8.4 1.2 -10.3 1.7 -10.3 3.1 0 0.7 2.2 0.8 6.3 0.4 9.7 -0.9 37.3 -1 46.9 -0.1 7.5 0.6 8.9 0.5 10.4 -1 1.2 -1.2 2.6 -1.5 4.8 -1.1 1.7 0.3 8.7 1.4 15.6 2.5 11.6 1.7 20.6 4.4 25.5 7.5 1.1 0.7 3.2 1.6 4.7 2 7.9 1.9 23.1 14.1 29.9 24 2.3 3.3 5.3 7.2 6.5 8.6 4.3 4.7 14.4 27.5 16.4 37.3 5.4 25.2 -0.2 46.9 -17.6 68.3 -4.1 5 -7.4 9.6 -7.4 10.2 0 0.6 1 1.8 2.3 2.6 3.2 2.1 17.8 6.7 19 5.9 0.5 -0.3 2 -2.9 3.2 -5.7 1.3 -2.8 3.4 -6.7 4.7 -8.6 6.2 -9 11.8 -21.9 11.8 -27 0 -2.1 0.4 -4.2 1 -4.5 1.7 -1 7 -13.2 7 -16 0 -3.3 -4.1 -7.4 -10.5 -10.4 -3.1 -1.4 -4.5 -2.7 -4.5 -4 0 -2.7 0.5 -2.9 11.4 -4.3 l9.6 -1.2 2 -4.1 c3 -6.1 6.3 -24.1 5.5 -29.8 -0.7 -5.5 0.5 -7.7 4 -7.7 6.2 0 9.9 11.4 11.5 35.3 0.7 9.8 1.4 14.6 2.6 16.7 1.7 2.7 1.6 3 -1.8 11.2 -3.9 8.9 -5.9 14.6 -7.8 21.8 -2 7.5 -16.8 38.3 -23 47.8 -2.2 3.4 -3.8 6.8 -3.4 7.4 0.4 0.6 0.3 0.8 -0.3 0.5 -0.6 -0.4 -2.3 0.9 -3.7 2.8 -4.6 6 -9 10.2 -12.2 11.8 -2.9 1.5 -3.7 1.4 -12.5 -1.2 -11.9 -3.6 -15.1 -5 -21.9 -9.3 -3 -1.9 -6.6 -3.9 -8 -4.3 -1.4 -0.4 -4.3 -1.8 -6.6 -3.1 -4 -2.4 -4.1 -2.4 -6.5 -0.5 -6.7 5.2 -38.8 19.1 -44.2 19.1 -2.6 0 -6.7 2.2 -6.7 3.7 0 0.7 0.6 1.3 1.3 1.3 1.9 0 8.5 4.8 9.7 7 0.8 1.6 -0.1 3.2 -6.3 10.2 -3.9 4.6 -9.6 11.7 -12.6 15.8 -7.3 10 -15.3 19.2 -28.4 32.5 -8.8 9 -10.7 11.4 -10.2 13.2 0.4 1.7 -0.9 3.8 -5.7 9.3 -15.4 17.3 -20.4 25.3 -16.5 26.4 7.5 2.1 10.6 3.3 12.7 4.8 1.4 1 5.4 2.7 9 3.7 9.5 2.8 26.3 9 27.4 10.1 1.7 1.7 -0.7 3 -8 4.6 -3.8 0.8 -10.7 2.3 -15.4 3.4 -4.7 1 -11.6 2.3 -15.4 3 -3.8 0.6 -11.2 2.5 -16.5 4.2 -6.7 2.1 -12.2 3.2 -18.1 3.5 -4.7 0.2 -11.1 1 -14.3 1.8 -8.2 2.1 -12.3 1.9 -14 -0.6z m21.2 -13 c1.9 -1.1 4.3 -3.2 5.4 -4.5 1.5 -1.9 2.8 -2.4 6.6 -2.4 2.6 0 5.2 0.5 5.7 1 0.8 0.8 2.9 0.7 7 -0.1 3.2 -0.6 10 -1.4 14.9 -1.8 8.9 -0.6 9 -0.6 5 -1.8 -3.5 -1.1 -11.5 -2.5 -21.1 -3.9 -1.8 -0.3 -4.4 -1.4 -5.9 -2.6 -2.5 -2 -2.7 -2.5 -2.3 -8.2 0.4 -7.1 1.7 -9.1 14 -22.6 4.3 -4.6 7.8 -8.8 7.8 -9.2 0 -1.9 -12.1 8.7 -18 15.8 -10.2 12.3 -11.4 14 -19 28.7 -5.8 11.2 -6.8 13.7 -5.3 13.7 1 0 3.3 -0.9 5.2 -2.1z m-125.4 -82.9 c11.6 -0.1 23.9 -0.5 27.5 -1 5 -0.7 3.7 -0.7 -5.7 -0.3 -10.5 0.4 -12.4 0.3 -12.9 -1.1 -0.5 -1.3 -2.6 -1.5 -13.7 -1.4 -7.3 0.1 -14.5 -0.1 -16.2 -0.5 -2.9 -0.7 -3.1 -0.5 -4.9 4 -1.1 2.7 -2.8 6 -3.8 7.5 -3.4 4.9 -1.8 4.3 3.5 -1.4 l5.2 -5.6 21 -0.2z m181.6 0.1 c1.4 -1.5 3.8 -3.6 5.4 -4.9 1.5 -1.2 2.5 -2.6 2.1 -2.9 -1.3 -1.4 -6.1 2.5 -12.4 10.2 -5.9 7.2 -6.2 7.6 -2.1 4.1 2.4 -2.2 5.6 -5.1 7 -6.5z m-81.5 2.3 c3.1 -0.8 7.1 -2.4 8.8 -3.7 l3.1 -2.2 -3.7 -0.3 c-2.3 -0.2 -4.7 0.3 -6 1.2 -2.7 1.9 -10.1 2.1 -11.6 0.4 -0.8 -1 -4.3 -1.1 -14.4 -0.7 -7.3 0.4 -16.1 0.7 -19.5 0.8 -6.3 0.1 -6.3 0.1 -6.3 3 0 2.8 0.3 3 4.8 3.4 9.4 0.9 39 -0.4 44.8 -1.9z m61.4 -65.4 c3.6 0 3.9 -0.2 4.2 -3.2 0.3 -3.2 0.5 -3.3 5 -3.6 3.7 -0.2 4.9 0.1 6 1.7 1.9 2.6 2.6 1.9 2 -1.9 -0.4 -2.8 -0.7 -3 -4.8 -3 l-4.4 0 0 -4 c0 -3.8 -0.2 -4 -3 -4 -3.3 0 -5 -2.2 -5 -6.7 0 -3.7 1.6 -5.3 5.2 -5.3 2.6 0 2.8 -0.3 2.8 -4 0 -3.3 0.4 -4.1 2.4 -4.6 1.3 -0.3 3.7 -0.4 5.2 -0.2 2.7 0.3 2.9 0.6 3.2 5.1 0.3 4.6 0.2 4.7 -2.7 5.3 -2.7 0.6 -3.1 1.1 -3.1 4 0 4.3 2.4 4.6 3.9 0.4 0.8 -2.5 1.5 -3 4.4 -3 5.4 0 7 1.8 6.6 7.6 -0.4 4.8 -0.3 5 1.9 4.6 1.7 -0.3 2.2 -1.1 2.2 -3.7 0 -4.3 1.9 -5.7 7.1 -5.3 3.9 0.3 4.5 0.7 6.6 4.7 0.4 0.8 8.3 -5.5 8.3 -6.8 0 -1.9 5.1 -6.1 7.5 -6.1 1.1 0 4 -0.9 6.4 -2 2.4 -1.1 5.8 -2 7.7 -2 3.2 0 3.4 0.2 3.4 3.5 0 2.4 -0.5 3.5 -1.4 3.5 -0.8 0 -1.8 0.4 -2.1 1 -0.3 0.5 1.4 0.2 3.7 -0.7 4.3 -1.5 4.3 -1.5 4.3 -6.7 0 -4.3 0.3 -5.1 2 -5.4 1.7 -0.2 2 -0.9 1.7 -4.6 -0.6 -7.1 0.8 -8.6 7.8 -8.6 5.2 0 6.2 0.3 7.6 2.5 1.1 1.7 1.5 4 1.2 7.4 -0.3 5.6 -1.2 5.7 9.7 -1.3 l7 -4.5 -3.7 -0.1 c-4.4 0 -5.8 -1.9 -5.8 -7.9 0 -4.6 1.8 -6.1 7 -6.1 5.1 0 7 1.6 7 5.9 l0 3.8 5 -0.5 c3.7 -0.3 5 -0.1 5 0.9 0 0.8 0.6 0.5 1.4 -0.7 1.4 -1.8 1.2 -1.9 -2.2 -2.4 -3.6 -0.5 -3.7 -0.6 -4 -5.3 -0.3 -4.2 0 -4.9 1.7 -5.4 1.6 -0.4 2.1 -1.3 2.1 -4 0 -2.9 0.5 -3.6 3 -4.4 4.4 -1.6 3.7 -2.9 -1.5 -2.9 -3.9 0 -4.5 -0.3 -5.1 -2.4 -0.3 -1.3 -0.4 -3.8 -0.2 -5.7 0.3 -3.3 0.4 -3.4 5.3 -3.7 3.8 -0.3 5.2 0.1 6.2 1.4 1.1 1.5 1.3 1.2 1.3 -2.8 0 -3.3 0.5 -4.8 1.6 -5.2 2.4 -0.9 7.3 -0.7 9.5 0.4 1.6 0.9 1.9 0.7 1.9 -1 0 -1.3 -0.7 -2 -1.8 -2 -3 0 -4.2 -2.1 -4.2 -7.1 0 -3.7 0.5 -5.1 2.1 -6.2 2 -1.4 2 -1.7 0.6 -6.4 -1.2 -3.8 -1.5 -4.2 -1.6 -2.1 -0.1 3.5 -2.9 5 -8.9 4.6 -4.5 -0.3 -4.7 -0.5 -5.6 -3.9 -0.5 -2 -0.6 -4.8 -0.2 -6.3 0.6 -2.3 1.1 -2.6 4.7 -2.6 2.2 0 5 0.5 6.1 1.1 1.6 0.9 1.9 0.8 1.6 -0.3 -0.3 -0.8 -2.6 -1.5 -5.9 -1.8 l-5.4 -0.5 0 -5 c0 -4.7 0.2 -5 2.9 -5.5 l2.8 -0.5 -3.8 -5.1 c-2.2 -2.7 -5.9 -7.6 -8.2 -10.7 -6 -7.7 -19.6 -17.7 -30.1 -22.1 -7.2 -3 -8.7 -3.3 -9.4 -2.1 -1.2 2.2 -10.2 2 -14.1 -0.4 -1.7 -1.1 -8 -3.2 -14.1 -4.7 -10.4 -2.6 -12 -2.7 -31 -2.5 -42.7 0.5 -67.6 2.7 -89 8 -18 4.4 -21.6 5.7 -35 11.6 -1.6 0.8 -6.1 2.8 -10 4.5 -3.8 1.7 -8.1 3.8 -9.5 4.7 l-2.5 1.7 2.5 0.6 c2 0.5 2.6 1.3 2.8 4.4 0.4 5.1 -1.1 6.6 -6.9 6.6 l-4.8 0 -0.3 -3.7 -0.3 -3.8 -5.9 5.5 -5.8 5.5 3.8 0.5 c3.7 0.5 3.9 0.7 4.2 4.3 0.3 3.6 0.4 3.7 4.3 3.7 3.9 0 3.9 0 3.9 4 0 3.7 -0.4 4.2 -4.7 7 -3.1 1.9 -6.1 3 -8.5 3 -3.7 0 -3.8 -0.1 -3.8 -3.5 0 -2.5 0.6 -3.8 2.3 -4.7 2.1 -1.2 2.1 -1.3 -1.3 -1.8 -3.2 -0.5 -3.5 -0.8 -4 -4.5 l-0.5 -4 -4.6 6 c-8.7 11.3 -10.4 15.2 -10 22.2 l0.3 6.2 -3.6 0.6 c-2 0.4 -3.6 1 -3.6 1.4 0 0.3 -0.3 1.5 -0.6 2.6 -0.5 1.9 0 2 8.3 2 l8.8 0 0.3 5.6 c0.3 5.1 0.1 5.7 -1.9 6.2 -2.1 0.6 -2.1 0.7 -0.6 3.1 1 1.4 1.7 4.2 1.7 6.3 0 3 0.5 4 2.3 4.8 1.3 0.6 2.3 2.1 2.5 3.6 0.3 2.5 0.6 2.7 4.2 2.2 4.7 -0.7 10.7 2.6 11.6 6.3 0.9 3.4 4.4 3.3 4.4 -0.1 0 -1.6 -0.6 -2.5 -1.5 -2.5 -1.1 0 -1.5 -1.1 -1.5 -4 0 -2.9 0.4 -4 1.5 -4 0.8 0 1.5 -0.5 1.5 -1.1 0 -0.6 1.6 -0.9 3.8 -0.7 3.1 0.2 3.8 0.7 4 2.8 0.2 1.5 1.6 3.3 3.5 4.5 2.6 1.6 3.3 2.8 3.5 6 0.2 2.2 1 4.4 1.8 4.8 0.8 0.4 1.4 2.1 1.4 3.7 0 1.7 0.5 3 1 3 0.6 0 1 2 1 4.4 0 3.7 -0.4 4.5 -2.2 5.1 -1.4 0.4 -1.8 0.8 -1 1.2 0.6 0.2 1.2 1.8 1.2 3.4 0 2.8 0.2 2.9 4.9 2.9 3.7 0 5.1 0.4 5.6 1.8 0.6 1.5 0.8 1.4 1.6 -0.5 0.7 -1.9 1.6 -2.3 5.2 -2.3 5.2 0 6.7 1.3 7.4 7 0.5 3.3 0.9 4 2.8 4 4.4 0 5.5 1 5.5 5.1 0 4 -1.8 5.9 -5.8 5.9 -1.5 0 -1.8 0.6 -1.4 3 l0.4 3 9.9 0 9.9 0 0 -4.2 0 -4.1 12.3 0.7 c6.7 0.3 14.2 0.9 16.7 1.2 4.4 0.6 4.5 0.5 5.5 -2.8 0.9 -2.9 1.5 -3.3 4.8 -3.6 5.3 -0.4 6.9 1.2 6.7 6.7 -0.4 10.3 -0.1 12.3 1.6 11.7 0.9 -0.3 3.3 -0.6 5.4 -0.6z m-221 -20.4 c0.6 -0.6 1 -2.4 1 -4.2 0 -3.7 1.2 -4.4 7.8 -4.5 4.1 0 4.4 -0.2 2.8 -1.2 -5.2 -3.2 -6.6 -5.5 -6.6 -10.7 0 -2.8 0.4 -5.9 1 -6.9 0.5 -1 1.8 -5.8 2.9 -10.7 1 -4.9 2.7 -12 3.6 -15.9 2.3 -10.1 4.3 -19.4 5 -23.6 0.4 -2.7 1.9 -4.9 5.5 -8.3 2.7 -2.5 5.4 -4.6 6 -4.6 0.5 0 1 -0.9 1 -2 0 -1.1 0.9 -3.4 2 -5.2 2.5 -4.2 2.5 -5.5 0 -6.8 -1.6 -0.9 -2.4 -0.7 -3.6 0.5 -0.8 0.8 -1.9 1.5 -2.4 1.5 -3.1 0 -13.4 22.2 -16.5 35.2 -0.8 3.5 -2.6 9.2 -4 12.8 -1.6 4 -2.7 9.2 -3 13.5 -0.5 9.7 -2.7 19.9 -4.6 22.1 -0.9 1.1 -2.2 4.4 -2.9 7.4 -0.7 3 -1.6 6.9 -2 8.6 -0.8 3.1 0 9 1.6 12.8 0.6 1.6 1.1 1 2.6 -3.4 1 -3 2.3 -5.9 2.8 -6.4z m392.9 4.3 c2.2 -2.2 5.9 -6.9 8.2 -10.2 2.4 -3.4 5.8 -8.4 7.6 -11 3.4 -4.8 7.1 -11.8 11.3 -21.2 1.3 -2.7 3 -6.1 3.9 -7.4 2.3 -3.6 9.3 -24.1 9.2 -27.1 -0.3 -7.3 -1.4 -15 -2.2 -15 -0.5 0 -0.9 0.6 -0.9 1.4 0 0.8 -1 2.2 -2.2 3.1 -2 1.3 -2.3 2.3 -2 7.4 0.3 5 -0.2 7.2 -3.8 15.7 -2.3 5.4 -4.6 10.4 -5 10.9 -0.4 0.6 -2.8 6.4 -5.3 13 -6.1 16 -7.6 19.5 -9.7 22.5 -1 1.4 -2.4 4.5 -3.1 6.9 -1.7 5.8 -4.5 7.5 -10.8 6.7 -4.9 -0.6 -5 -0.6 -5.3 2.1 -0.2 2.3 -0.9 2.9 -3.3 3.2 -2.7 0.4 -2.6 0.5 2 1.7 7.1 1.7 6.9 1.8 11.4 -2.7z m-250.9 -1.4 c0 -1 -1 -1.5 -3.2 -1.4 -2.2 0.1 -2.6 0.3 -1.3 0.6 1.1 0.3 2.4 0.9 3 1.4 1.3 1.2 1.5 1.1 1.5 -0.6z m178.9 -20.1 c0.2 -0.2 -0.8 -0.4 -2.2 -0.4 -1.8 0 -2.7 0.5 -2.7 1.5 0 1.3 0.4 1.4 2.3 0.4 1.2 -0.6 2.4 -1.3 2.6 -1.5z m-208.9 -9.1 c-0.1 -4.4 -0.3 -5.4 -1.1 -4 -0.5 0.9 -1.6 1.7 -2.4 1.7 -2.6 0 -2.5 1.8 0.1 4.9 1.4 1.7 2.8 3.1 3 3.1 0.2 0 0.4 -2.6 0.4 -5.7z m-31 -14.2 c0 -0.5 -1.6 -1.1 -3.5 -1.3 -3.4 -0.4 -4.3 0.1 -2.8 1.5 1 1 6.3 0.8 6.3 -0.2z m-17.1 -20.1 c-1.2 -5.8 -1.8 -7.4 -2.5 -6.8 -0.3 0.3 0.2 3.1 1.1 6.3 2 6.6 2.8 6.9 1.4 0.5z m367.8 -45.2 c-0.2 -2.4 -0.4 -0.7 -0.4 3.7 0 4.4 0.2 6.3 0.4 4.3 0.2 -2.1 0.2 -5.7 0 -8z m-216.9 -82.3 c0.6 -0.3 1.2 -0.8 1.2 -1.2 0 -0.5 -3.7 -0.5 -8.2 -0.1 -4.6 0.3 -9.6 0.7 -11.3 0.8 -2.8 0.2 -2.8 0.2 -0.6 0.9 2.3 0.6 16.5 0.3 18.9 -0.4z m-4 -11.2 c-1 -0.2 -2.8 -0.2 -4 0 -1.3 0.2 -0.5 0.4 1.7 0.4 2.2 0.1 3.2 -0.1 2.3 -0.4z m-8.3 -10.8 l5 -0.6 -0.3 -5 -0.4 -4.9 5.6 0 5.6 0 0 3.5 c0 3.8 0.2 4 3.1 2.5 1.5 -0.9 1.9 -2.2 1.9 -6.5 l0 -5.4 -5.7 -0.3 -5.8 -0.3 -0.3 -3.7 c-0.3 -3.7 -0.4 -3.8 -4.3 -3.8 l-3.9 0 0 5.6 c0 6.3 -1.5 8.3 -6.2 8.4 -2.4 0 -2.6 0.4 -3 5.3 -0.5 6.1 -0.2 6.9 2 6.3 1 -0.2 4 -0.7 6.7 -1.1z m-11.2 -20.5 c0.5 -2.1 -0.8 -2.5 -5.1 -1.4 -2.1 0.6 -2.1 0.7 -0.5 2 2.6 1.9 5 1.7 5.6 -0.6z"/>
  <path d="M177 252.5 c0 -5.4 0 -5.5 2.9 -5.5 2.8 0 3 -0.2 3.3 -4.7 l0.3 -4.8 5.5 0.2 c3 0.1 8.1 0.2 11.2 0.2 4.7 0 5.9 0.3 6.8 2 0.7 1.5 2.1 2.1 4.3 2.1 4.6 0 5.7 1.6 5.7 8.2 l0 5.8 -5.9 0 c-5.1 0 -6.1 -0.3 -6.6 -2 -0.5 -1.5 -1.5 -2 -4.5 -2 -2.1 0 -4.2 -0.4 -4.5 -1 -0.3 -0.5 -2.2 -1 -4.1 -1 -3.3 0 -3.4 0.1 -3.4 4 l0 4 -5.5 0 -5.5 0 0 -5.5z"/>
  <path d="M202.6 235.5 c-5.3 -2 -12.5 -7.5 -13.2 -10.1 -0.3 -1.2 -0.4 -3.3 -0.2 -4.5 0.3 -2.1 0.9 -2.4 5.2 -2.7 4.3 -0.3 5.6 0.1 10.4 3.4 4.4 3.1 6.2 3.8 10.1 3.7 4.1 -0.1 5.2 -0.6 9.6 -4.7 5.4 -5 7.5 -5.9 12.6 -5.4 3.2 0.3 3.4 0.6 3.7 4.1 0.4 4.3 -1.3 6.9 -6 9.3 -1.5 0.8 -2.8 2.4 -3 3.6 -0.2 1.9 -1.2 2.5 -4.8 3.1 -9.1 1.6 -20.3 1.7 -24.4 0.2z"/>
  <path d="M157.7 234.4 c-1.2 -1.2 -0.8 -8.9 0.5 -10.2 1.4 -1.4 7.6 -1.6 9.6 -0.3 0.9 0.5 1.2 2.5 1 5.7 l-0.3 4.9 -5 0.3 c-2.8 0.2 -5.4 0 -5.8 -0.4z"/>
  <path d="M283.2 232.8 c-1.6 -1.6 -1.6 -8 0 -9.6 1.7 -1.7 7.4 -1.5 9.2 0.3 0.8 0.8 3.2 1.5 5.5 1.5 4 0 4.1 0.1 4.1 3.5 0 2.4 -0.6 3.7 -1.9 4.5 -2.7 1.4 -15.4 1.3 -16.9 -0.2z"/>
  <path d="M169.8 223.9 c-0.2 -0.6 -2.8 -2 -5.8 -3.2 l-5.5 -2.2 0 -4.5 0 -4.5 6.2 0 c3.4 0 6.5 -0.3 6.9 -0.7 1.1 -1.2 9.2 -0.9 10 0.3 0.3 0.6 0.3 4.4 -0.1 8.5 l-0.7 7.4 -5.3 0 c-2.9 0 -5.5 -0.5 -5.7 -1.1z"/>
  <path d="M136.7 199.3 c-0.4 -0.3 -0.7 -1.9 -0.7 -3.4 0 -1.8 -0.6 -2.8 -2 -3.2 -1.6 -0.4 -2 -1.4 -2 -5.1 l0 -4.6 5.5 0 c4.2 0 5.5 0.3 5.5 1.5 0 0.8 0.7 1.5 1.5 1.5 2.1 0 3.5 3.3 3.5 8.3 0 3.8 -0.3 4.6 -2.2 5.1 -3.1 0.8 -8.3 0.8 -9.1 -0.1z"/>
  <path d="M110.7 189.4 c-1.2 -1.2 -0.8 -10.9 0.5 -12.2 2.1 -2.1 7.7 -1.4 10.4 1.3 2 2 2.5 3.3 2.2 6.8 l-0.3 4.2 -6 0.3 c-3.4 0.2 -6.4 0 -6.8 -0.4z"/>
  <path d="M182.3 186.8 c-0.4 -0.7 -1.4 -2.6 -2.3 -4.3 -1.1 -2.2 -2.6 -3.2 -6.3 -4.1 -6.2 -1.6 -7.7 -2.9 -7.7 -7 0 -4.8 2.2 -5.6 15.3 -5.3 7.4 0.2 11.9 -0.1 13.4 -0.9 3 -1.7 6.6 -1.5 10.8 0.5 3.2 1.5 3.5 2 3.5 5.9 0 4.1 -0.2 4.3 -4.4 5.9 -3.4 1.3 -4.5 2.3 -4.9 4.5 -0.5 2.1 -1.6 3.1 -4.7 4.4 -4.8 1.9 -11.6 2.1 -12.7 0.4z"/>
  <path d="M344.9 182.2 c-3.1 -2 -7.1 -4.5 -8.8 -5.4 -2.9 -1.6 -3.2 -2.2 -2.9 -5.5 0.3 -3.7 0.4 -3.8 4.8 -4.1 3.4 -0.2 6.3 0.5 11.5 2.9 9 4 11.5 6.3 11.5 10.5 0 6.6 -7.5 7.3 -16.1 1.6z"/>
  <path d="M254.8 160 c-2.7 -2.8 -3.5 -3 -10.3 -3 -10.3 0 -10.5 -0.1 -10.5 -7 0 -5.8 0 -5.9 3.4 -7 1.9 -0.6 5.4 -1.1 7.8 -1.1 2.4 0.1 9.9 -0.3 16.8 -0.8 8.5 -0.7 15 -0.6 20.3 0.2 8.9 1.2 9.7 2.1 9.7 10.3 0 3.9 -0.3 4.6 -2.6 5.4 -1.4 0.6 -5 1 -8.1 1 -4.7 0 -6 0.4 -7.9 2.5 -2 2.2 -3.1 2.5 -8.9 2.5 -6.1 0 -6.9 -0.3 -9.7 -3z"/>
  <path d="M94.4 160.6 c-0.3 -0.8 -0.4 -3.1 -0.2 -5.2 l0.3 -3.9 5 0 5 0 0.3 5.3 0.3 5.2 -5.1 0 c-3.4 0 -5.2 -0.5 -5.6 -1.4z"/>
  <path d="M115 158.9 c0 -4.6 3.9 -11.6 8.2 -15.1 2.9 -2.2 4 -3.9 4.4 -7 0.8 -4.4 2.9 -5.8 9.1 -5.8 l3.5 0 -0.4 5.8 c-0.5 7.1 -4.3 15.3 -9.6 21 -3.8 4 -4.3 4.2 -9.6 4.2 l-5.6 0 0 -3.1z"/>
  <path d="M338 147.1 c0 -2.7 0.4 -6.1 1 -7.6 0.7 -1.9 0.6 -3.4 -0.5 -5.5 -0.8 -1.6 -1.5 -4.8 -1.5 -7 l0 -4.2 5 0.4 c2.8 0.1 5 -0.1 5 -0.5 0 -0.4 2.1 -0.7 4.8 -0.5 l4.7 0.3 1.8 5.5 c1 3 1.6 7.1 1.5 9 -0.3 3.4 -0.5 3.5 -4.6 3.8 -3.6 0.3 -4.3 0 -5.1 -2 -0.7 -1.8 -1 -0.6 -1.6 5.5 l-0.7 7.7 -4.9 0 -4.9 0 0 -4.9z"/>
  <path d="M282 118.8 c-5.9 -3.1 -7.2 -3.2 -24.2 -1.2 l-5.8 0.6 0 -3.6 c0 -2.1 0.5 -3.8 1.3 -4 0.6 -0.2 2.8 -0.9 4.7 -1.6 12 -4.3 14.9 -5 20.6 -5 8.5 0 14.2 2.3 14.6 5.8 0.2 2.1 0.9 2.8 3.1 3 2.3 0.3 2.7 0.8 2.7 3.7 0 6.3 -7.6 7.3 -17 2.3z"/>
  <path d="M161.7 109.3 c-0.4 -0.3 -0.7 -2.5 -0.7 -4.9 0 -4.6 1.1 -5.4 7.8 -5.4 3.2 0 3.2 0 3.2 4.9 0 3.5 -0.4 5.1 -1.6 5.5 -2.1 0.8 -7.9 0.8 -8.7 -0.1z"/>
  <path d="M197.4 103.6 c-0.3 -0.8 -0.4 -2.9 -0.2 -4.8 0.3 -3.2 0.4 -3.3 5.6 -3.6 l5.2 -0.3 0 5 0 5.1 -5 0 c-3.4 0 -5.2 -0.5 -5.6 -1.4z"/>
 </g>
 <g fill="#ff3600">
  <path d="M242 345.9 c0 -1.1 11.6 -14.4 18.8 -21.5 3.9 -3.8 4.6 -4.2 8.2 -3.7 2.1 0.3 5.3 0 7.1 -0.6 1.8 -0.6 3.4 -0.9 3.6 -0.7 0.5 0.5 -5.6 7.5 -9.5 11 -1.3 1.2 -5.1 4.7 -8.5 8 -3.4 3.2 -7.6 6.4 -9.4 7.2 -3.8 1.7 -10.3 1.9 -10.3 0.3z"/>
  <path d="M128.6 339.1 c-0.2 -0.3 -0.7 -3.3 -1.1 -6.6 l-0.6 -6.1 16.8 -0.2 c9.2 0 19.4 -0.4 22.6 -0.8 4.8 -0.5 6.2 -0.3 7.8 1.2 2 1.8 2.2 1.8 5.8 -0.3 2.3 -1.3 4.7 -1.9 6.3 -1.6 3 0.6 9.8 -2.3 9.8 -4.2 0 -0.7 -1.4 -1.5 -3.1 -1.9 -4.8 -0.9 -3 -3.1 2.7 -3.2 2.7 0 5.2 0.1 5.6 0.3 0.7 0.4 -1.5 7.8 -3.6 12.2 -1.8 3.9 -7.6 7.9 -14.1 9.7 -4.8 1.4 -11 1.7 -30.3 1.9 -13.3 0.1 -24.4 0 -24.6 -0.4z"/>
  <path d="M185.2 322.8 c0.6 -1.7 3.6 -3.4 4.5 -2.4 0.4 0.4 -0.1 1.4 -1.1 2.2 -2.4 1.7 -3.9 1.8 -3.4 0.2z"/>
  <path d="M270.1 319.1 c-1.7 -1.1 -0.8 -5.6 1.3 -6.4 1.5 -0.6 7.6 2.8 7.6 4.2 0 0.9 -1.1 1.4 -6 2.7 -0.8 0.2 -2.1 0 -2.9 -0.5z"/>
  <path d="M280.7 314.2 c-2.1 -2.3 -1.3 -3.2 2.5 -3.2 3 0 3.7 1.7 1.6 3.8 -1.6 1.6 -2.2 1.5 -4.1 -0.6z"/>
  <path d="M190 311 c0 -2.8 0.3 -3.5 1.7 -3.5 0.6 0 1.5 -0.4 1.9 -0.8 0.4 -0.4 1.9 -0.7 3.4 -0.7 2.4 0 5 -1.6 5 -3.1 0 -1.5 -4.5 -1.7 -6.1 -0.3 -2.4 2.2 -6.4 1.5 -6.4 -1.1 0 -1.6 0.7 -2 3.5 -2.1 1.9 -0.1 4.8 -0.7 6.3 -1.3 5.4 -2.1 6 -1.7 5.3 4.1 -1 7.1 -1.9 8.4 -7 9.7 -6.3 1.6 -7.6 1.4 -7.6 -0.9z"/>
  <path d="M274.7 309.4 c-0.3 -0.4 -0.2 -1.6 0.4 -2.6 0.9 -1.7 1.9 -2 6.5 -1.6 6 0.5 6.9 1 6.1 3.3 -0.5 1.1 -2.1 1.5 -6.5 1.5 -3.2 0 -6.2 -0.3 -6.5 -0.6z"/>
  <path d="M281.3 303.3 c-2.6 -0.5 -3 -2.5 -0.8 -4.3 1.6 -1.4 12.2 -0.7 13.8 0.9 2 2 -7.3 4.4 -13 3.4z"/>
  <path d="M290.6 296.5 c-1.1 -1.2 -2.5 -1.5 -4.6 -1 -3.4 0.8 -3.8 -0.3 -1.2 -3.4 1.5 -1.9 2.5 -2.2 8.6 -1.9 4.4 0.2 7.1 0.8 7.4 1.6 0.2 0.7 -0.7 1.2 -2.5 1.3 -1.8 0.1 -2.1 0.3 -1 0.6 1 0.3 1.7 1.2 1.5 2.1 -0.4 2.3 -6.1 2.8 -8.2 0.7z"/>
  <path d="M288.8 288.4 c-1.7 -1.6 0.7 -2.4 7.3 -2.4 3.9 0 6.9 0.4 6.9 1 0 0.6 -1.7 1 -3.9 1 -2.1 0 -5.1 0.3 -6.7 0.6 -1.6 0.3 -3.2 0.2 -3.6 -0.2z"/>
  <path d="M299.8 285.3 c-4.6 -0.5 -4.8 -1.5 -0.9 -3 2.5 -0.9 3.2 -0.8 4.5 0.6 1.7 1.9 2.1 3.2 0.9 2.9 -0.5 -0.1 -2.5 -0.3 -4.5 -0.5z"/>
  <path d="M271.5 275 c-0.3 -0.5 0.3 -1 1.4 -1 1.2 0 2.1 0.5 2.1 1 0 0.6 -0.6 1 -1.4 1 -0.8 0 -1.8 -0.4 -2.1 -1z"/>
  <path d="M253 272.5 c0 -0.8 0.5 -1.5 1 -1.5 1.5 0 1.2 -3.6 -0.5 -5 -2.5 -2.1 -4.8 -0.4 -4.1 3 0.3 1.7 0.4 3 0.3 3.1 -1.5 0.4 -20.7 0.8 -20.7 0.4 0 -0.3 0.6 -1.9 1.4 -3.4 1.4 -2.5 1.3 -2.9 -0.5 -4.5 -1.1 -0.9 -3.4 -1.9 -5 -2.1 -1.5 -0.2 -3.2 -0.6 -3.6 -0.8 -0.5 -0.3 -3.5 -0.8 -6.8 -1 -3.3 -0.3 -9.7 -0.9 -14.2 -1.3 -4.7 -0.3 -8.3 -0.3 -8.3 0.2 0.1 0.5 1.5 1.8 3.2 2.9 6.4 4.1 5.2 4.5 -13.2 4.5 l-17.2 0 0.6 -2.6 c0.6 -2.2 0 -3.3 -3.4 -6.5 -2.2 -2.1 -4.8 -3.9 -5.6 -3.9 -0.8 0 -2.8 -0.7 -4.4 -1.5 -2.6 -1.4 -2.8 -1.8 -1.8 -3.5 0.7 -1.1 1.8 -2 2.5 -2 2.1 0 1.5 -2.1 -1.3 -4.6 -3.1 -2.9 -4 -3 -4.7 -0.3 -0.5 1.7 -0.9 1.9 -2.4 1 -3.8 -2.2 -6.8 -5.4 -5.5 -5.8 1.6 -0.6 1.5 -3.3 -0.2 -3.3 -0.7 0 -1.9 -0.7 -2.7 -1.6 -0.7 -0.9 -2.2 -1.4 -3.6 -1.1 -2 0.4 -3.7 -1.1 -10.2 -8.7 -4.3 -5 -9 -10.2 -10.5 -11.5 -3.4 -3.2 -2.2 -4.7 1.8 -2.1 1.9 1.1 3.6 2 4 2 1.4 0 -1.1 -3.2 -3.9 -5 -2.2 -1.4 -3.3 -1.6 -5.6 -0.8 -1.6 0.5 -2.9 1.5 -2.9 2 0 0.6 1.6 3.1 3.6 5.5 3.7 4.5 4 7.4 0.4 3.5 -2.2 -2.3 -7.8 -4.2 -12.7 -4.2 -1.8 0 -3.6 -0.6 -4 -1.4 -0.4 -0.8 -2.2 -3 -3.9 -4.9 -3.9 -4.2 -4.7 -5.6 -7.3 -13.7 -1.9 -5.6 -2 -7.8 -1.5 -17 0.8 -11.6 1.4 -14.4 3.5 -14.6 0.8 0 2.2 -0.2 3.2 -0.2 2 -0.2 2.2 -2.3 0.5 -6.7 -1 -3 -0.8 -3.8 2.7 -9.6 11.5 -19.2 29.7 -35.8 48.2 -44 3.8 -1.7 8.2 -3.6 9.8 -4.4 13.4 -5.9 17 -7.2 35 -11.6 20.2 -5 44.3 -7.3 84.5 -8.3 8.5 -0.2 16 -0.5 16.5 -0.7 4 -1.3 33.8 4.9 39.2 8.3 4.6 2.8 7.9 2.1 7.6 -1.5 -0.1 -1.9 0.2 -2.7 1 -2.4 25.2 9.9 35.8 17.1 47.5 31.9 8.2 10.2 16.6 26.5 20 38.7 l2 7.1 -2.6 1.2 c-4.5 2.2 -3.7 7.8 1.1 7.8 1.9 0 2 0.5 1.5 8.3 -0.6 8.8 -1.9 12.7 -4.3 12.7 -2.1 0 -2.6 1.6 -1.4 4.3 0.9 2.1 0.7 3.3 -1.2 7.4 -1.3 2.6 -4 6.9 -6.1 9.4 -2.1 2.6 -3.8 5 -3.8 5.4 0 0.3 -1.1 2.1 -2.5 3.9 -2 2.6 -3.1 3.2 -5 2.8 -1.4 -0.2 -2.5 -1.1 -2.5 -1.8 0 -0.8 -0.3 -1.4 -0.6 -1.4 -0.4 0 -5.7 3.4 -11.9 7.5 -6.2 4.1 -12.1 7.8 -13.1 8.2 -1.1 0.4 -4 1.9 -6.7 3.5 -2.6 1.5 -7.3 3.6 -10.5 4.7 -13.8 4.7 -21.9 7.8 -24.3 9.4 -1.4 0.9 -4.8 2 -7.5 2.3 -4.8 0.7 -4.9 0.7 -3.1 -1.3 3.2 -3.6 1.7 -3.4 -3.8 0.7 -6.6 4.9 -8.3 5 -8.7 0.9 -0.4 -4.1 -3.1 -6 -5.3 -3.8 -1.3 1.2 -1.4 2.1 -0.5 4.4 1.3 3.3 1.2 3.4 -2.9 4 -8.1 1 -13.3 2.4 -12.7 3.4 0.3 0.4 4.5 0.2 9.3 -0.5 4.8 -0.7 8.9 -1.1 9.1 -0.9 0.8 0.7 -0.9 2.5 -2.4 2.5 -0.8 0 -3.1 0.9 -5.1 2 -2.1 1.1 -4.6 2 -5.5 2 -2.7 0 -9.9 4.1 -9.2 5.2 0.4 0.6 0 1.4 -0.7 1.9 -2.2 1.4 -4.9 1 -4.9 -0.6z m-21.4 -14 c0.6 -1.6 -1.2 -4.5 -2.7 -4.5 -1.2 0 -3.1 3.9 -2.4 5 1 1.5 4.5 1.2 5.1 -0.5z m24.8 -3.1 c2.1 -0.8 2 -3 -0.1 -3.8 -1.7 -0.7 -3.3 0.9 -3.3 3.2 0 1.3 1 1.5 3.4 0.6z m-85.3 -1.4 c2.5 -1.4 2.4 -2.7 -0.2 -3.5 -1.9 -0.6 -4.8 1.6 -4.9 3.8 0 1 2.8 0.9 5.1 -0.3z m13.9 -0.3 c0 -0.7 -0.5 -1.8 -1.2 -2.5 -2 -2 -3.8 -1.4 -3.8 1.3 0 2 0.5 2.5 2.5 2.5 1.4 0 2.5 -0.6 2.5 -1.3z m28.8 -3.8 c-0.4 -4.2 -3.1 -6 -5.4 -3.7 -1.1 1.1 -1.5 2.5 -1 4.2 0.5 2.1 1.2 2.6 3.7 2.6 2.8 0 3 -0.2 2.7 -3.1z m53 -0.6 c0.2 -1.4 -0.4 -2.6 -1.8 -3.3 -1.7 -0.9 -2.2 -0.8 -2.9 1.2 -1.2 3.2 -0.3 5 2.3 4.6 1.3 -0.2 2.2 -1.1 2.4 -2.5z m-63.3 -1.7 c1.7 -1.2 1.8 -1.8 0.7 -4 -1.8 -4.1 -6.2 -2.7 -6.2 1.9 0 3.7 2.2 4.5 5.5 2.1z m101.6 0.4 c1 -0.6 1.9 -1.6 1.9 -2.3 0 -0.7 1.9 -2.9 4.2 -4.9 l4.3 -3.8 -3.7 1.5 c-2.1 0.8 -4.5 1.5 -5.5 1.5 -2.3 0 -6.8 4 -6.8 6 0 0.8 0.7 1.8 1.5 2.2 2.1 0.9 1.9 0.9 4.1 -0.2z m-53.3 -2.1 c0.4 -2 -4.1 -4.2 -5.6 -2.7 -0.8 0.8 -0.8 1.7 -0.1 3 1.2 2.3 5.2 2.1 5.7 -0.3z m-87.6 -0.8 c1.3 -1.1 -1.7 -5.6 -3.7 -5.6 -2.2 0 -3.7 4.3 -2.2 6.3 0.9 1.2 4.3 0.8 5.9 -0.7z m28.6 -0.8 c0.2 -1.7 -0.4 -2.6 -2.3 -3.5 -3.3 -1.5 -5 0 -4.1 3.7 0.5 2.1 1.2 2.6 3.4 2.3 1.9 -0.2 2.8 -0.9 3 -2.5z m64.1 -7.2 c1.4 -0.9 0.9 -4.1 -0.6 -4.1 -1.9 0.1 -3.3 1.8 -2.7 3.3 0.7 1.9 1.3 2.1 3.3 0.8z m76.1 -3.1 c1.1 -0.7 1.2 -1.2 0.3 -2.1 -1.5 -1.5 -4.7 -0.7 -5.1 1.4 -0.4 1.9 2.3 2.3 4.8 0.7z m-109 -1.7 c3.6 -0.7 4.6 -1.2 4.8 -3.1 0.2 -1.2 1.5 -2.8 3 -3.6 4.1 -2.1 6.8 -5.4 5.5 -6.7 -1.6 -1.6 -4.3 -0.4 -9.5 4.4 -8 7.4 -17.3 7.7 -26.7 0.9 -4.4 -3.2 -7.5 -4 -8.6 -2.3 -1 1.7 7.1 8.3 13.1 10.6 3.9 1.5 8.9 1.4 18.4 -0.2z m-58.2 -2.9 c0.4 -2.7 -2.6 -4 -4.6 -2 -2.1 2 -0.8 4.8 2 4.4 1.4 -0.2 2.4 -1.1 2.6 -2.4z m124.2 -1.4 c0 -2.4 -2.5 -3.3 -4 -1.4 -1 1.1 -1 1.7 0 2.8 1.5 1.9 4 1 4 -1.4z m7.6 1.5 c1.8 -1.4 1.8 -1.4 -0.8 -1.5 -1.8 0 -2.8 0.5 -2.8 1.5 0 1.9 1.1 1.9 3.6 0z m-155.6 -5.2 c0 -1.7 -0.6 -1.6 -3.5 0.3 -1.4 0.9 -2.3 2 -2 2.4 0.7 1.2 5.5 -1.3 5.5 -2.7z m199.1 2.7 c4 -2.2 0.9 -9 -4.2 -9 -4.1 0 -5.9 3.8 -3.5 7.5 1.7 2.6 4.5 3.2 7.7 1.5z m-163.1 -6.9 c0 -1.1 -0.5 -2.3 -1.1 -2.7 -0.8 -0.5 -0.6 -1 0.5 -1.6 0.9 -0.5 1.6 -1.6 1.6 -2.4 0 -2 -2.7 -2.9 -4.5 -1.4 -0.9 0.7 -3.7 1.1 -7.2 0.8 -7.8 -0.4 -7.9 1.8 -0.3 4.9 3 1.2 5.6 2.6 5.8 3.2 0.2 0.6 1.5 1.1 2.8 1.1 1.7 0 2.4 -0.6 2.4 -1.9z m-38.3 -0.7 c0.8 -2 -0.8 -3.6 -2.6 -2.5 -1.5 1 -0.8 4.1 0.9 4.1 0.6 0 1.3 -0.7 1.7 -1.6z m-13 -2.5 l2.8 -1.1 -2.8 -1.4 c-3.1 -1.7 -4.7 -1.1 -4.7 1.7 0 2.2 0.8 2.3 4.7 0.8z m235.7 -1.5 c2.3 -0.9 2 -5.1 -0.4 -6.4 -2.2 -1.2 -6 0.2 -6 2.1 0 3.7 2.9 5.6 6.4 4.3z m-225.9 -5.4 c0 -1.3 -1.1 -3.1 -2.7 -4.3 -2.2 -1.7 -3 -1.8 -4.3 -0.7 -1.9 1.6 -1.9 4 0 6.7 2.1 2.9 7 1.8 7 -1.7z m242.9 -1.6 c0.9 -0.3 1.6 -1.4 1.6 -2.4 0 -1.1 1.2 -2 3.3 -2.6 2.4 -0.7 3.3 -1.6 3.5 -3.6 0.4 -3.4 -2.5 -5.2 -6.2 -3.8 -2.2 0.8 -2.4 1.3 -1.9 4.5 0.5 3.1 0.3 3.5 -1.5 3.5 -2.4 0 -3.6 1.5 -2.8 3.5 0.6 1.6 1.6 1.8 4 0.9z m-277.9 -6.9 c0 -1 -0.9 -2.3 -2 -2.9 -3 -1.6 -3.6 -2.8 -2.9 -5.8 0.3 -1.7 -0.1 -3.6 -1 -5 -2.4 -3.4 -2.1 -8.9 0.5 -9.5 1.5 -0.4 1.9 -1.2 1.7 -3.2 -0.3 -2.4 -0.6 -2.6 -5.3 -2.4 -2.7 0.1 -5.4 0.2 -5.9 0.2 -0.9 0.1 -0.6 2.5 1.8 15.9 1.8 9.6 3.6 12.9 8 14.1 4 1.2 5.1 0.9 5.1 -1.4z m43.4 -6.1 c1 -0.9 -1.3 -5.7 -2.9 -6.1 -1.1 -0.3 -2 -1.2 -2 -1.9 0 -0.8 -1 -1.4 -2.5 -1.4 -3.1 0 -3.4 2.9 -0.5 3.7 1.4 0.4 2 1.4 2 3.2 0 1.5 0.3 3.1 0.7 3.4 0.6 0.6 4.2 0 5.2 -0.9z m246.1 -2.9 c1 -1.2 1 -1.8 0 -3 -0.7 -0.8 -1.8 -1.5 -2.5 -1.5 -1.9 0 -3.8 2.8 -3.1 4.5 0.7 1.9 4 1.9 5.6 0z m-270.3 -7.2 c0.3 -0.7 -0.7 -2.4 -2.2 -3.9 -2.1 -2.1 -2.9 -2.3 -4 -1.4 -1.6 1.3 -2 5.2 -0.8 6.4 1.1 1.1 6.6 0.2 7 -1.1z m259.4 0.7 c1.5 -0.9 1.7 -1.5 0.9 -3 -1.1 -2.1 -4.5 -2.7 -5.5 -1 -0.8 1.3 0.4 5 1.6 5 0.6 0 1.9 -0.5 3 -1z m-188.1 -2.6 c3.1 -1.3 4.2 -2.3 4.7 -4.4 0.4 -2.2 1.5 -3.2 4.9 -4.5 5.2 -2 5.6 -3.6 1.2 -5.7 -2.8 -1.3 -3.8 -1.3 -6.3 -0.2 -2.1 0.9 -6.2 1.2 -13.6 0.9 -7.6 -0.3 -11 -0.1 -12.3 0.8 -1.6 1.2 -1.6 1.4 -0.2 2.6 0.8 0.7 3.7 1.8 6.3 2.5 3.7 0.9 5.2 1.9 6.3 4.1 3.3 6.4 3 6.3 9 3.9z m164.4 -1.7 c1.6 -1.2 1.6 -1.4 -0.6 -3.4 -3.2 -3 -16.4 -8.7 -18.3 -7.9 -2.3 0.8 -1.1 2.3 4.3 5 2.6 1.4 6.2 3.6 8.1 5 4 3 4.1 3 6.5 1.3z m39.4 -2.5 c0.4 -2.5 -3.7 -5.6 -6.2 -4.6 -2 0.8 -2.1 4.2 0 6.5 2 2.2 5.8 1.1 6.2 -1.9z m-125.4 -21.7 c1.9 -2.1 3.2 -2.5 7.9 -2.5 3.1 0 6.8 -0.5 8.3 -1 2.3 -0.9 2.6 -1.4 2 -4.2 -0.3 -1.8 -1 -3.6 -1.4 -4 -1.9 -1.9 -28.5 -2.5 -34.1 -0.7 -1.8 0.6 -4.9 0.9 -6.7 0.6 -1.9 -0.3 -4.8 -0.1 -6.4 0.5 -2.4 0.8 -3 1.6 -3 3.8 0 3.5 1.3 4 10.5 4 6.8 0 7.6 0.2 10.3 3 4 3.9 9.2 4.1 12.6 0.5z m-168.4 -0.5 c0 -2.4 -2.6 -3.8 -4.2 -2.2 -1.6 1.6 -0.2 4.2 2.2 4.2 1.3 0 2 -0.7 2 -2z m25.2 -2.2 c3.9 -4.2 6.9 -9.2 8.2 -13.5 0.6 -1.7 0.3 -2.3 -0.8 -2.3 -0.9 0 -1.6 -0.9 -1.6 -2.1 0 -3.4 -1.7 -1.2 -2.4 3 -0.4 3 -1.5 4.7 -4.1 6.6 -3.2 2.5 -6.2 6.7 -7.8 10.8 -0.5 1.3 -0.1 1.7 1.9 1.7 1.8 0 3.9 -1.4 6.6 -4.2z m217.6 -8.5 c0 -1.6 0.4 -5.6 0.8 -9 0.7 -6.7 -1 -11.3 -4.1 -11.3 -1.9 0 -1.9 1.3 0.1 5.2 1.6 3.1 1.6 5.4 -0.2 14.6 -0.5 2.7 -0.3 3.2 1.3 3.2 1.5 0 2 -0.7 2.1 -2.7z m43.3 1.7 c1 -0.6 1.9 -1.5 1.9 -2 0 -1 -5.2 -4 -6.8 -4 -1.5 0 -2 2.3 -1.1 4.8 0.9 2.4 2.9 2.8 6 1.2z m-269.2 -7.5 c4.1 -2.5 5.3 -4.5 2.8 -4.5 -0.7 0 -1.9 0.8 -2.8 1.8 -0.8 0.9 -2.8 2.8 -4.4 4 -3.8 3 -1 2.2 4.4 -1.3z m17.7 -6.2 c-1.1 -1.1 -1.7 0.4 -0.9 2.3 0.7 1.8 0.8 1.8 1.1 0.1 0.2 -1 0.1 -2.1 -0.2 -2.4z m219.8 2.9 c0.8 -1.4 -2.5 -11.3 -4 -11.9 -0.8 -0.3 -1.7 -0.3 -2 0 -0.5 0.5 2.1 9.8 3.3 12 0.6 0.9 2.1 0.9 2.7 -0.1z m31 -3.7 c0.7 -1.9 -3.2 -4.1 -4.6 -2.7 -1.5 1.5 -0.2 4.2 2.1 4.2 1 0 2.1 -0.7 2.5 -1.5z m-273.9 -0.9 c2 -1.5 1.5 -4.6 -0.8 -4.6 -2 0 -4 2.7 -3.3 4.5 0.7 1.9 1.7 1.9 4.1 0.1z m181.1 -15.1 c1.4 -1.1 1.5 -1.4 0.2 -0.9 -0.9 0.3 -2.8 -0.2 -4.2 -1.1 -2.7 -1.8 -3.5 -4.4 -1.3 -4.6 0.6 0 -0.6 -0.9 -2.8 -2 -6.5 -3 -9.4 -2.7 -25.5 3.1 -1.9 0.7 -4.1 1.5 -4.9 1.7 -0.8 0.2 -1.1 0.6 -0.8 0.9 0.3 0.3 2.2 0.1 4.4 -0.5 2.1 -0.6 7.4 -1.1 11.9 -1.1 6.9 0 8.8 0.4 13.5 2.9 6.5 3.4 7 3.5 9.5 1.6z m-164.6 -1 c1.7 -2.1 -0.1 -3.9 -2.9 -3 -2.7 0.8 -2.8 4.5 -0.2 4.5 1 0 2.4 -0.7 3.1 -1.5z m37.4 -10.1 c0.9 -0.3 1.6 -1.5 1.6 -2.6 0 -1.5 -0.4 -1.8 -2.2 -1.2 -3 0.9 -3.2 1 -2.5 2.9 0.7 1.7 0.9 1.7 3.1 0.9z m37.6 -6.4 c0 -1.3 -0.7 -2 -1.9 -2 -2.2 0 -3.5 1.5 -2.6 3 1.2 1.9 4.5 1.1 4.5 -1z"/>
  <path d="M14.9 265.3 c-5.9 -10.7 -6 -13.1 -1.2 -35 0.3 -1.2 1.4 -3 2.4 -3.9 1 -0.9 1.9 -2.9 1.9 -4.3 0 -1.5 0.7 -5.4 1.5 -8.6 1.2 -4.5 1.3 -6.5 0.5 -8 -0.9 -1.7 -0.4 -4 2.8 -12.6 2.1 -5.7 4.2 -12.2 4.6 -14.4 1.2 -6.5 7.6 -22.6 11.4 -28.8 2 -3.2 4.7 -6.5 6.1 -7.2 1.9 -1.1 2.2 -1.4 0.9 -1.5 -2.4 0 -2.3 -1.7 0.1 -2.9 1.4 -0.8 2.2 -0.7 3.1 0.4 0.6 0.7 1.7 1.2 2.4 0.9 1.4 -0.5 12.2 6.2 15 9.4 1.9 2.2 1.9 2.3 0 5.8 -3.9 7.2 -6.3 7.1 -4.5 -0.2 1.3 -4.9 0.6 -6.9 -2.1 -5.9 -2 0.8 -5.3 7.5 -5 10.3 0.2 1.4 -0.3 2.2 -1.3 2.2 -0.9 0 -3.8 2.1 -6.5 4.6 -3.6 3.4 -5.1 5.6 -5.5 8.3 -0.7 4.2 -2.7 13.5 -5 23.6 -0.9 3.9 -2.5 10.8 -3.5 15.4 -1.1 4.6 -2.4 9.7 -3.1 11.2 -1.8 4.6 -0.4 7.4 6.1 11.8 3.3 2.3 6.4 4.1 7 4.1 1.2 0 3.4 4 2.6 4.7 -0.3 0.4 -3.6 0.1 -7.3 -0.5 -5.8 -1 -8.1 -1.1 -12.5 -0.3 -0.5 0 -0.8 1.3 -0.8 2.8 0 1.5 -1 4.7 -2.2 7.2 -1.6 3.3 -2.2 6.3 -2.1 11.8 0 4 -0.4 7.3 -0.8 7.3 -0.4 0 -2.7 -3.4 -5 -7.7z"/>
  <path d="M401 259 c-11.4 -2.9 -13.1 -4.7 -8.5 -9 2.4 -2.3 2.6 -2.3 3.9 -0.5 1.8 2.5 4.6 1.3 4.6 -2 0 -3.2 2.2 -4.1 7.1 -2.8 5 1.3 7.1 -0.1 8.8 -5.9 0.7 -2.4 2.1 -5.4 3.1 -6.8 2.1 -3 3.6 -6.5 9.7 -22.5 2.5 -6.6 4.9 -12.4 5.3 -13 0.4 -0.5 2.7 -5.5 5 -10.9 4.8 -11.5 4.8 -15.2 0 -18.8 -4 -2.9 -3.8 -3.9 1 -3.6 6.9 0.4 7.4 -0.9 8.1 -19.3 0.4 -12.4 0.8 -16.2 2 -16.9 0.7 -0.5 1.7 -0.6 2 -0.2 1.7 2 2.9 13.3 2.8 26.5 0 12.3 0.3 15.2 1.8 17.7 1.9 3.4 2.1 2.7 -4.4 21.6 -2.1 6 -4.5 12.1 -5.4 13.5 -0.9 1.3 -2.6 4.7 -3.9 7.4 -4.2 9.4 -7.9 16.4 -11.3 21.2 -1.8 2.6 -5.3 7.6 -7.6 11 -5.6 8.2 -12.9 15.3 -15.5 15.2 -1.2 -0.1 -5 -0.9 -8.6 -1.9z"/>
  <path d="M381.5 251.1 c-0.7 -1.2 7.3 -9.1 9.2 -9.1 0.8 0 0.1 1.9 -1.5 4.8 -2.8 4.6 -6.2 6.6 -7.7 4.3z"/>
  <path d="M373.1 245.6 c-0.9 -1 -0.3 -1.9 3 -4 5.3 -3.6 6.5 -3 3.4 1.7 -2.7 3.9 -4.5 4.6 -6.4 2.3z"/>
  <path d="M334 243.1 c0 -1.1 3.1 -2.4 3.9 -1.6 0.3 0.3 -0.1 1 -0.9 1.5 -1.9 1.2 -3 1.2 -3 0.1z"/>
  <path d="M383.9 241.2 c1.6 -3.1 4 -4.7 5.2 -3.5 0.7 0.7 0.1 1.7 -1.9 3.2 -3.7 2.6 -4.6 2.7 -3.3 0.3z"/>
  <path d="M347.8 240.3 c-2.6 -0.7 -2.2 -1.4 3 -5.4 8.4 -6.4 18.4 -12 20.3 -11.4 2.9 1 2.3 3.2 -1.7 5.9 -2 1.3 -4.2 3.5 -4.8 4.8 -0.8 1.6 -3.2 3 -7.6 4.5 -3.6 1.3 -6.7 2.2 -7 2.2 -0.3 -0.1 -1.3 -0.3 -2.2 -0.6z"/>
  <path d="M116.2 232.8 c-2.1 -2.1 -1.3 -2.7 1.8 -1.7 1.7 0.6 3 1.5 3 2 0 1.3 -3.4 1.1 -4.8 -0.3z"/>
  <path d="M114.8 225.3 c-1.8 -2.1 -3 -6.3 -1.8 -6.3 0.8 0 3.4 3.3 5.4 6.8 1.1 1.9 -1.9 1.5 -3.6 -0.5z"/>
  <path d="M310.5 73.3 c-3.7 -0.6 -5.9 -2.3 -4.6 -3.6 1.4 -1.4 12.1 1.1 12.1 2.9 0 1.4 -1.5 1.5 -7.5 0.7z"/>
  <path d="M211 58 c0.8 -0.5 3.1 -0.9 5 -0.9 l3.5 0.1 -3 0.8 c-1.6 0.4 -3.9 0.8 -5 0.9 -1.6 0.1 -1.7 -0.1 -0.5 -0.9z"/>
  <path d="M221.3 56.3 c0.9 -0.2 2.5 -0.2 3.5 0 0.9 0.3 0.1 0.5 -1.8 0.5 -1.9 0 -2.7 -0.2 -1.7 -0.5z"/>
  <path d="M207.2 54 c-0.6 -1.1 -2.3 -2.2 -3.7 -2.6 -4.5 -1.1 -3 -3.4 2.3 -3.4 2.6 0 10.4 -0.7 17.2 -1.6 6.9 -0.9 13.6 -1.7 15 -1.8 1.4 -0.2 3.5 -0.6 4.7 -1 3.9 -1.3 6.3 0.9 6.3 5.8 0 3.7 -0.4 4.5 -2.2 5 -3.5 0.9 -3.9 0.7 -3.6 -1.1 0.2 -1.4 -0.3 -1.7 -2.2 -1.6 -15.5 1.5 -23.8 2.5 -27.3 3.3 -5.4 1.2 -5 1.3 -6.5 -1z"/>
  <path d="M234.3 55.3 c0.9 -0.2 2.5 -0.2 3.5 0 0.9 0.3 0.1 0.5 -1.8 0.5 -1.9 0 -2.7 -0.2 -1.7 -0.5z"/>
 </g>
 <g fill="#ffffff">
  <path d="M193 421.1 c0 -1.8 16.8 -34.1 19.7 -38 13.7 -18.2 24 -27.5 31.7 -28.6 3.2 -0.5 4.6 -0.4 4.6 0.4 0 2.7 -4.3 9.1 -11.2 16.6 -9.8 10.7 -12.8 14.9 -13.5 18.9 -0.4 2.7 -0.1 3.6 2.2 5.4 1.5 1.2 4.1 2.4 5.9 2.6 16.5 2.4 27.4 5.2 33.7 8.7 2.4 1.3 2.3 1.3 -1.6 2 -2.2 0.5 -8.2 0.8 -13.4 0.8 -5.2 0.1 -10.8 0.5 -12.5 1 -9.7 2.9 -13.5 3.3 -16.7 1.7 -4.3 -2.1 -5.4 -2 -7.6 0.7 -2.7 3.5 -7 6 -11.6 6.7 -2.3 0.4 -5.4 1.1 -6.9 1.5 -1.9 0.5 -2.8 0.3 -2.8 -0.4z"/>
  <path d="M35 362.8 c2.7 -7.9 5.7 -14.2 11 -23.3 2.8 -4.8 5.7 -10.6 7 -14 1.3 -3.5 3.7 -4.1 7.1 -2.1 2.4 1.4 5.4 1.7 17.3 1.7 12.4 -0.1 14.5 0.1 15 1.5 0.5 1.3 1.5 1.5 5 1 6.2 -1 18.7 -0.9 19.6 0.1 0.5 0.4 1.2 3 1.6 5.7 l0.7 4.9 -2.9 -2.1 c-2.8 -2 -3.5 -2.1 -24.9 -1.2 -12.1 0.5 -23.6 0.7 -25.5 0.4 -3.9 -0.6 -3.9 -0.6 -15.7 13.6 -10.5 12.8 -11.8 14.4 -14.3 18.2 -1.4 2.1 -2.8 3.8 -3.2 3.8 -0.4 0 0.6 -3.7 2.2 -8.2z"/>
  <path d="M179.3 65.3 c-2.4 -0.9 -1.3 -2.3 2 -2.3 1.7 0 4.8 -0.5 6.7 -1 1.9 -0.6 6 -1.1 9 -1.1 3 0 8 -0.9 11 -1.9 3 -1.1 10.9 -2.4 17.5 -2.9 15.3 -1.4 14.5 -1.4 14.5 0.8 0 3.1 7 3.4 17.9 0.5 5.2 -1.3 10.7 -3.1 12.3 -3.8 2.4 -1.3 2.8 -1.3 2.8 0 0 4.8 -21.2 9.5 -49 11 -17.1 0.9 -43.3 1.3 -44.7 0.7z"/>
  <path d="M210.8 42.3 c-1.4 -0.4 -1.6 -0.8 -0.8 -2.4 0.8 -1.3 0.7 -2.5 0 -3.9 -0.9 -1.6 -0.8 -2 0.5 -2 1.8 0 2.1 -4.5 0.3 -5.6 -1.5 -0.9 -3.8 2.4 -3.8 5.5 0 2.5 0 2.5 -3 -0.9 -3.3 -4 -3.7 -5.5 -1.4 -6.4 2.5 -0.9 3.4 -0.7 3.4 0.8 0 1.1 0.5 1.2 2.5 0.3 3.1 -1.5 3.2 -3.4 0.3 -4.2 -4.6 -1.3 -6.8 -2.9 -6.8 -5 0 -1.1 -0.5 -2.6 -1.1 -3.2 -0.8 -0.8 1.3 -1.4 7.4 -2.3 19.5 -2.7 39.7 -3.4 41.7 -1.4 0.5 0.5 0.3 2.5 -0.6 4.9 -0.8 2.2 -1.7 7.5 -2.1 11.9 l-0.6 7.8 -3.6 1.6 c-7 2.9 -27.5 5.8 -32.3 4.5z m25.2 -9.9 c0 -0.8 -1 -1.4 -2.5 -1.4 -2.3 0 -3.4 1.8 -1.9 3.2 1 1 4.4 -0.4 4.4 -1.8z m-15.3 -10.9 c-0.4 -1.1 -5.7 -2 -5.7 -1 0 0.3 0.5 1.5 1 2.6 0.9 1.6 1.4 1.7 3 0.6 1.1 -0.6 1.9 -1.6 1.7 -2.2z m18.1 -3.3 c1.5 -1 0.5 -4.2 -1.3 -4.2 -1.8 0 -2.8 1.7 -2.1 3.5 0.6 1.7 1.5 1.8 3.4 0.7z m6.1 -0.1 c1.8 -1.1 0.5 -3.1 -2 -3.1 -1.8 0 -2.6 2 -1.2 3.3 0.8 0.9 1.5 0.9 3.2 -0.2z m-24 -1.7 c0.2 -0.2 0.1 -1 -0.3 -1.9 -0.9 -2.4 -4 -1.4 -4.4 1.4 -0.3 2 -0.1 2.2 2 1.6 1.3 -0.4 2.5 -0.9 2.7 -1.1z"/>
 </g>
</svg>