<?xml version="1.0" encoding="utf-8"?>
<!DOCTYPE svg PUBLIC "-//W3C//DTD SVG 20010904//EN" "http://www.w3.org/TR/2001/REC-SVG-20010904/DTD/svg10.dtd">
<svg version="1.0" xmlns="http://www.w3.org/2000/svg" width="1081px" height="1089px" viewBox="0 0 1081 1089" preserveAspectRatio="xMidYMid meet">
 <g fill="#000000">
  <path d="M170.4 1081.3 c-1.3 -13.7 -0.8 -29.2 1.5 -44.2 1.3 -7.9 2.1 -15.1 1.8 -16 -0.4 -1.5 -0.1 -4 1.8 -16.7 0.2 -1.7 0.9 -4.4 1.5 -5.8 1.6 -4.3 1.2 -7.2 -2.2 -17 -4.5 -13.2 -4 -21.7 2.9 -46.6 1.5 -5.2 3.4 -10.6 4.4 -12 3.2 -4.8 13.9 -27 13.9 -28.9 0 -0.6 0.4 -1.1 0.8 -1.1 0.5 0 1.4 -1.5 1.9 -3.2 0.6 -1.8 2.5 -6.9 4.2 -11.3 2.1 -5.2 3.5 -11.4 4.2 -17.8 1 -8.9 0.9 -12.9 -0.7 -25.7 -1 -8.2 -0.7 -19.6 0.6 -22.1 0.7 -1.3 1.2 -4.9 1.1 -7.9 -0.1 -3.1 0.2 -6.8 0.8 -8.2 0.6 -1.5 0.7 -6.5 0.3 -11.9 -0.4 -5.2 -0.4 -11.9 0 -14.9 0.3 -3 0.9 -8 1.3 -11 0.3 -3 0.8 -6.2 1.1 -7 0.3 -0.8 1.2 -7.5 1.9 -14.8 0.7 -7.3 1.9 -13.9 2.5 -14.7 0.8 -1 1 -3.9 0.7 -8.7 -0.3 -5.3 0 -9.3 1.4 -14.4 1 -3.9 2 -9.5 2.3 -12.5 0.7 -8 1.9 -12.8 4.9 -18.7 1.5 -3 2.7 -6.5 2.7 -7.8 0 -1.4 0.7 -3.9 1.6 -5.5 0.8 -1.7 1.7 -5.4 1.8 -8.2 0.3 -5 1.8 -9.3 5 -14.7 0.8 -1.4 2.5 -4.7 3.8 -7.5 1.3 -2.7 2.9 -5.9 3.5 -7 2.2 -4 5.3 -13.1 5.9 -17.4 0.4 -2.5 1.3 -5.6 2.1 -7 0.7 -1.4 1.3 -4 1.3 -5.6 0 -1.7 1.1 -6.6 2.5 -10.9 1.4 -4.3 2.5 -8.4 2.5 -9.1 0 -0.7 1.3 -4.2 2.9 -7.7 1.6 -3.6 3.2 -8 3.6 -9.9 0.4 -1.9 1.5 -5 2.5 -6.9 3 -5.8 4.8 -10.2 6.6 -16.5 0.9 -3.3 2.7 -7.3 4 -8.8 1.3 -1.6 2.4 -3.6 2.4 -4.6 0 -0.9 0.4 -2.1 0.8 -2.6 1.8 -2.2 10.2 -26 10.2 -28.9 0 -0.8 1.9 -6.9 4.1 -13.7 2.3 -6.8 4.4 -14.9 4.6 -17.9 0.2 -3 0.8 -6.9 1.4 -8.7 0.8 -2.6 0.6 -3.9 -1.1 -7.2 -1.1 -2.2 -3.3 -4.7 -4.8 -5.5 -5.4 -2.8 -6.3 -4.7 -7.3 -16.3 -0.5 -5.9 -1 -12.1 -1.2 -13.8 -0.3 -1.6 0.2 -6.7 1 -11.3 0.7 -4.5 1.1 -8.7 0.8 -9.2 -0.7 -1.2 12.3 -15 14.1 -15 0.8 0 1.4 -0.4 1.4 -0.9 0 -1.1 9.6 -5.8 13.3 -6.6 1.5 -0.3 3 -1.3 3.3 -2.3 0.3 -0.9 1.4 -3.3 2.5 -5.3 1.1 -2.1 1.9 -5.7 1.9 -8.4 0 -3.1 0.6 -5.5 1.9 -7.1 1 -1.3 3.1 -6.3 4.6 -11.1 1.6 -4.9 3.4 -9.5 4.2 -10.4 0.7 -0.8 1.3 -2.1 1.3 -2.7 0 -0.7 0.4 -2 0.9 -3 0.6 -0.9 2.2 -4.4 3.6 -7.7 1.5 -3.3 4 -8.6 5.6 -11.8 1.6 -3.2 2.9 -6.5 2.9 -7.4 0 -0.8 1.3 -4.1 2.9 -7.2 3.6 -7 7.1 -15.2 11.1 -26.1 1.8 -4.7 4.3 -10.7 5.6 -13.3 1.4 -2.6 2.7 -6.9 3.1 -9.5 0.3 -2.6 1.4 -5.9 2.4 -7.4 1.1 -1.4 1.9 -3 1.9 -3.5 0 -0.5 0.9 -2.9 2.1 -5.3 1.1 -2.3 3.7 -9.1 5.6 -14.9 3.7 -11.3 5 -14 8.7 -19.5 1.3 -1.9 2.6 -5.3 3 -7.5 0.4 -2.7 1.9 -5.5 4.1 -8 1.9 -2.1 3.5 -4.2 3.5 -4.7 0 -0.5 2 -4.9 4.4 -9.9 2.5 -4.9 5 -10.5 5.7 -12.3 0.7 -2 2.2 -3.8 3.7 -4.3 1.5 -0.6 2.2 -1.5 1.9 -2.3 -0.3 -0.8 0 -2 0.8 -2.6 0.8 -0.7 1.7 -2.1 2.1 -3.2 0.3 -1.1 1.8 -3.4 3.3 -5 2.5 -2.9 4.5 -6.1 7.5 -12.5 0.9 -1.7 2.6 -3.9 3.9 -5 1.2 -1 3.1 -3.6 4.1 -5.8 3.7 -7.7 13.6 -21 23.1 -30.9 7.5 -7.8 10.5 -11.4 10.5 -12.4 0 -0.5 1.1 -1.4 2.4 -2.1 1.3 -0.8 4.1 -3.3 6.1 -5.7 2.1 -2.4 4.4 -4.4 5.2 -4.4 0.8 0 3.8 -2.2 6.6 -4.9 5.2 -4.9 20.2 -12.8 28.4 -15 4.5 -1.2 19.2 -2.2 33.3 -2.3 14.4 0 21.7 2.2 34.7 10.7 11.3 7.4 23.4 19.6 39.2 39.8 4.1 5.2 14.1 23.8 14.1 26.2 0 0.3 2.4 5.6 5.4 11.8 2.9 6.2 6.1 13 7.1 15.2 2.4 5.4 12.1 24.6 18.9 37.5 3 5.8 6.1 11.6 6.8 13 0.7 1.4 1.5 2.7 1.8 3 0.6 0.6 1.1 1.5 7 12.5 2.3 4.4 5.7 10.7 7.5 14 1.8 3.3 3.6 7.1 4 8.5 0.4 1.4 2.4 5 4.3 8 4.2 6.5 13.3 22.3 17.4 30 1.6 3 4.8 8.7 7.3 12.5 2.4 3.9 5.7 9.3 7.3 12 1.7 2.8 5 7.2 7.5 9.8 4.3 4.7 12.3 18.5 16 27.7 2.2 5.3 5.3 17.7 6.1 24 0.5 4.4 0.9 10.2 2.2 37.5 0.4 7.7 0.9 14.5 1.3 15 0.6 1 0.7 1.7 1 7.6 0 2.4 0.9 4.5 2.5 6 1.8 1.7 2.2 2.8 1.6 4.4 -1.4 3.8 -3.2 19 -2.8 24.5 l0.3 5.5 6.2 -0.3 c5.5 -0.4 6.2 -0.2 6.8 1.8 0.4 1.2 0.2 3.4 -0.4 4.8 -3.3 8.6 -5 33.6 -3.2 48.5 1.7 14.4 2.9 20.8 5.6 31.7 2.7 10.8 4.3 14.9 11.6 30.7 2.9 6.2 9.7 26 13.8 40.3 1.2 4.1 2.6 8.9 3.2 10.5 5.9 17.6 10.4 42.9 11.9 65.5 0.6 9.1 1.5 18.3 2 20.6 0.5 2.2 0.7 5 0.4 6.1 -0.3 1.1 0.6 7.8 2 14.9 1.4 7.1 3 17 3.6 22 1.3 12.1 1.4 33.3 0.1 41.4 -0.6 3.6 -1.1 12.8 -1.2 20.5 -0.1 14.9 -0.4 13.2 7.6 38 0.7 2.2 1.8 7.4 2.5 11.5 0.6 4.1 1.6 9.7 2.1 12.3 0.5 2.6 0.9 7.1 0.9 9.8 0 2.8 0.4 6.9 1 9.2 0.5 2.3 1.6 8.9 2.5 14.7 0.9 5.8 2 11.9 2.6 13.5 1.2 3.5 4.9 27.7 4.9 31.8 0 1.6 0.6 4.3 1.4 6 1.6 3.6 4.7 37.6 5.1 56.7 0.2 6.9 1 15.5 1.8 19.3 0.8 3.7 1.1 7 0.6 7.3 -0.5 0.3 -0.9 2.4 -0.9 4.7 0 2.3 -0.9 6.5 -1.9 9.2 -1 2.8 -2.4 8.4 -3 12.5 -0.7 4.1 -1.6 9.1 -2.1 11 -0.5 1.9 -1.1 7.1 -1.4 11.5 -0.2 4.4 -1.1 10.7 -2 14 -0.9 3.2 -1.6 6.7 -1.6 7.7 0 1.6 -1 1.8 -8.4 1.8 l-8.3 0 -0.7 -12.2 c-0.5 -9.7 -0.3 -14.1 1 -20.8 2.1 -10.2 2.3 -19.4 0.5 -27.5 -1.3 -6.1 -1 -14.8 0.8 -24 1.5 -7.7 1.4 -24.5 -0.3 -26.4 -2.8 -3.3 -3.6 -8.7 -3.7 -26 -0.1 -9.7 -0.5 -18.9 -0.9 -20.6 -0.4 -1.6 -0.8 -2.3 -0.9 -1.4 0 0.9 -1 4.6 -2.1 8.1 -2.3 7.5 -4.2 8.8 -12.3 8.8 -6.2 -0.1 -8.2 -1.5 -12 -8.7 -2 -4 -2.7 -6.7 -2.7 -11.1 0 -6.7 1.8 -9.9 5.7 -10.4 4.1 -0.5 5.7 -8.6 4.8 -25.3 -0.4 -7.1 -0.9 -20.9 -1.1 -30.5 -0.3 -17.1 -1.1 -27.5 -3.9 -51.5 -0.8 -6.6 -1.9 -18.5 -2.5 -26.5 -1.6 -21 -2.6 -25.4 -6.6 -28.9 -4.3 -3.8 -4.6 -6.3 -3.6 -25.7 0.5 -9 0.5 -19.5 0 -24 -1 -8.7 0 -14.5 3.5 -20.2 1.7 -3 1.9 -5 1.8 -20 -0.2 -23.8 -2 -33.2 -9.5 -51.7 -2.3 -5.5 -4.1 -12.1 -4.7 -17 -0.6 -4.4 -1.7 -9.6 -2.5 -11.5 -0.8 -1.9 -2 -6.2 -2.8 -9.5 -0.8 -3.3 -2.2 -8.5 -3 -11.5 -0.9 -3 -1.6 -7.5 -1.6 -9.9 0 -2.5 -0.6 -5.2 -1.5 -6.1 -1.8 -2 -4.8 -13.5 -6.5 -24.5 -0.7 -4.4 -1.6 -8.5 -2.1 -9.1 -1.3 -1.6 -2.7 -27.5 -2.2 -39.4 0.6 -11.4 -0.1 -12.8 -1.7 -3.4 -1.9 10.8 -1.7 10.4 -5.5 10.4 l-3.5 0 0 -5.2 c-0.1 -10.2 -2.6 -25 -4.3 -26 -1.3 -0.7 -1.7 -2.4 -1.7 -7.8 0 -3.9 -0.5 -8.9 -1.1 -11.2 -1.1 -4 -0.5 -16 1.8 -34.6 l0.5 -4.2 -4.7 2 c-2.6 1.1 -6.6 2 -9 2 -4.4 0 -11.5 -2.6 -11.5 -4.2 0 -0.4 -0.6 -0.8 -1.3 -0.8 -2.6 0 -9.7 -8.3 -9.7 -11.2 0 -0.8 -0.9 -3.1 -1.9 -5.1 -1.1 -2.1 -2.2 -6.1 -2.6 -9 -0.4 -2.9 -1.3 -6.5 -2.1 -8.1 -0.9 -1.9 -1.4 -6.3 -1.4 -12.6 0 -8.1 0.3 -10 1.8 -11.3 1 -1 2.4 -1.7 3 -1.7 1.2 0 1.8 -1.9 2.5 -8.8 0.4 -2.8 1.3 -4.9 2.9 -6.1 3 -2.5 10.5 -3.6 15.4 -2.2 l3.9 1.1 -2.9 -2.3 c-2.1 -1.7 -3 -3.5 -3.6 -7.4 -0.8 -4.5 -1.9 -6.4 -8.4 -14.1 -4.2 -4.9 -7.6 -9.5 -7.6 -10.3 0 -0.8 -1.1 -2.4 -2.4 -3.7 -1.4 -1.2 -3.7 -5.5 -5.2 -9.5 -2.6 -6.9 -7.5 -18 -9.7 -22.2 -0.6 -1.1 -1.7 -3.2 -2.5 -4.7 -3.5 -7 -1.1 1.6 2.9 10 4.4 9.5 8.9 23.8 8.9 28.3 0 5.2 -0.8 5.9 -7 5.9 -3.7 0 -5.8 -1.8 -8.2 -7 -0.5 -1.1 -0.7 -0.8 -0.7 0.8 -0.1 1.6 -1 2.7 -3 3.5 -2.9 1.2 -2.9 1.3 -1.5 4.6 1.9 4.5 1.8 11.6 -0.2 13.5 -0.8 0.9 -3.1 1.6 -4.9 1.6 l-3.4 0 3.1 5.2 c7 12 10.2 21.3 9.6 28.8 l-0.3 4.5 -5.1 0.3 c-6 0.3 -6.4 -0.1 -8.8 -8.3 -2.5 -8.9 -8.9 -20.9 -15.5 -29.2 -1.4 -1.8 -4.2 -5.3 -6.1 -7.8 -1.9 -2.5 -6.5 -7.8 -10.2 -11.8 -3.7 -4 -6.8 -7.5 -6.8 -7.9 0 -0.8 -3.3 -4.1 -11.8 -12.1 -2.9 -2.7 -5.2 -5.2 -5.2 -5.6 0 -0.4 -1 -1.3 -2.3 -2 -1.2 -0.6 -3.1 -2.5 -4.2 -4.2 -1.1 -1.6 -3.3 -3.8 -5 -4.8 -1.6 -1 -5.7 -4.2 -9.1 -7.2 -6.9 -6 -9.2 -7.9 -12 -9.5 -1.4 -0.8 -2 -2.4 -2.2 -5.8 l-0.3 -4.6 4.1 0 c4.8 0 11.5 3.2 18.5 8.9 6.3 5.1 6.4 5.2 10 7.5 3.1 2 12.6 10.6 25.3 22.9 l7.2 7.1 -4.1 -8.4 c-2.2 -4.7 -4.6 -9.4 -5.2 -10.5 -0.6 -1.1 -1.7 -3.3 -2.5 -5 -0.9 -1.6 -2.3 -4.1 -3.2 -5.5 -0.9 -1.4 -2.5 -5.2 -3.4 -8.5 -1.7 -5.6 -3 -8.6 -8.3 -18.8 -2.4 -4.7 -3.8 -12.5 -2.8 -15.6 0.5 -1.7 1.5 -2.1 5 -2.1 3.5 0 4.8 0.5 6.4 2.6 1.2 1.5 2.1 3.1 2.1 3.6 0 0.4 3.2 6.3 7 13 3.9 6.7 7 12.7 7 13.4 0 0.7 0.6 1.9 1.3 2.6 2.4 2.6 5.4 7.4 6.2 9.7 0.4 1.2 2 4.2 3.6 6.6 1.6 2.4 2.9 4.7 2.9 5.1 0.1 0.5 1.2 2.3 2.6 3.9 2.4 2.8 2.3 2.6 -0.7 -4 -1.8 -3.8 -3.6 -7.9 -4 -9 -2.4 -6.2 -12 -25.4 -13.3 -26.4 -0.8 -0.7 -1.8 -2.5 -2.1 -4.1 -0.3 -1.6 -1.3 -3.4 -2.1 -4.1 -0.9 -0.7 -2.2 -2.6 -3.1 -4.3 -0.9 -1.7 -4.3 -6.6 -7.7 -10.9 -8.5 -11 -10.6 -14.6 -10.6 -18.9 l0 -3.8 4.4 0 c4 0 4.6 0.4 9.7 6.3 3 3.4 6.2 7.1 7.3 8.2 1 1.1 4.9 6.7 8.7 12.5 3.8 5.8 7.3 11 7.8 11.6 0.8 1 4.4 8.4 11.1 22.9 1 2.2 4.6 10.3 8 18 3.3 7.7 6.5 14.9 7 16 0.8 1.8 0.9 1.7 0.9 -0.7 0.1 -2.7 -4.4 -15.4 -6 -17.2 -0.5 -0.6 -0.9 -1.7 -0.9 -2.5 0 -0.8 -0.9 -3.3 -1.9 -5.5 -1.7 -3.6 -6.8 -15.8 -10.5 -25.1 -2 -5 -3.9 -8.9 -5.1 -10.5 -0.7 -0.8 -1.8 -3.1 -2.6 -5 -0.7 -1.9 -3.8 -7.8 -6.8 -13 -7.5 -13.1 -9.1 -16.2 -9.1 -17.7 0 -0.7 -0.4 -1.3 -0.8 -1.3 -0.4 0 -1.6 -1.5 -2.6 -3.3 -1.1 -1.7 -3.6 -5.1 -5.7 -7.3 -5.1 -5.7 -7.1 -9.8 -6.7 -14.2 0.3 -3.5 0.5 -3.7 4.2 -4 3.1 -0.3 4.4 0.2 6.9 2.5 1.6 1.5 2.8 2.4 2.5 1.8 -2 -3.7 -4.8 -10.6 -4.8 -11.9 0 -0.8 -2.1 -5 -4.6 -9.3 -5.3 -8.9 -10.4 -19.7 -10.4 -22.1 0 -3.4 -4.4 -10.3 -10.8 -16.9 -3.7 -3.9 -8 -8.7 -9.7 -10.8 -1.6 -2.1 -3.4 -4.3 -4 -4.9 -0.5 -0.6 -2.6 -3.4 -4.5 -6.1 -1.9 -2.8 -4.6 -6.2 -5.9 -7.8 -2.9 -3.2 -16.6 -12.7 -18.4 -12.7 -0.7 0 -1.8 -0.5 -2.3 -1 -1.7 -1.7 -11.4 -3.8 -20.4 -4.5 -13.2 -1 -27.3 2.5 -37.4 9.3 -2.3 1.6 -7 4.8 -10.6 7.3 -6.6 4.5 -22.6 19.9 -31.7 30.6 l-5.2 6 2.5 1.1 c2.2 1 2.4 1.8 2.4 7.2 0 5.7 -0.2 6.1 -2.7 7.1 -1.5 0.6 -5.4 0.9 -8.7 0.8 -5.7 -0.3 -6.1 -0.1 -7.7 2.6 -1 1.5 -2.3 3.2 -3.1 3.6 -1 0.7 -1 0.9 0.3 0.9 0.9 0 2.3 0.8 3.2 1.8 2.1 2.2 2.3 11 0.4 13.6 -1.4 1.9 -7.2 3.5 -12.8 3.6 -3.4 0 -3.9 0.5 -8 6.7 -6 9.2 -6.4 10.3 -3.5 10.3 4 0 6 3.4 6.4 10.9 0.6 10.1 -0.2 11.1 -9 11.1 -5.8 0 -7.6 -0.4 -9.3 -2 l-2.1 -2 -3.2 6.2 -3.2 6.3 2.5 0.3 c1.4 0.2 4.3 2.1 6.5 4.2 3.5 3.4 4 4.4 4 8.5 0 7.5 -1 8.5 -8.5 8.5 -6.4 0 -6.5 0 -9.4 -4 -2.8 -3.9 -3 -4 -3.6 -1.8 -1 3.4 -5.4 14.7 -7.5 19.3 -2.5 5.7 -4 11.4 -4 15.8 0 2.1 -0.7 4.9 -1.6 6.2 -1.5 2.3 -1.4 2.6 1.6 6.3 2.8 3.5 3.1 4.5 2.8 9.8 l-0.3 5.9 -7.4 0 c-5.7 0 -7.5 0.3 -7.9 1.5 -0.3 0.8 -3.8 8.6 -7.9 17.3 -4 8.7 -7.3 16.5 -7.3 17.2 0 0.7 -0.6 2 -1.4 2.8 -1.7 1.7 -9.8 18.6 -11.6 24.2 -0.7 2.2 -2.1 6.3 -3.1 9 -3.8 10.1 -7.7 28.1 -8.4 38.5 -1.4 20.4 -6.6 39.6 -16.2 59.3 -4.2 8.6 -4.3 8.8 -3.6 16.2 0.4 4.9 0.1 9.6 -0.7 13.3 -1.9 8 -5.5 22.4 -7.8 30.7 -1.1 3.9 -2.5 12.2 -3.2 18.5 -0.9 9.2 -9.8 48.2 -11.5 51.1 -0.2 0.3 -2 7.7 -3.9 16.4 l-3.5 15.8 2.9 3.4 c2.3 2.6 3 4.3 3 7.6 0 5.4 -1.3 6.7 -6.7 6.7 -3.8 0 -4.3 0.3 -4.9 2.8 -0.3 1.5 -0.9 3.7 -1.4 4.9 -0.7 1.6 -0.1 3.5 2.2 7.8 2.4 4.6 2.9 6.5 2.5 9.7 -0.7 5.2 -1.4 5.9 -7.8 6.6 -6.6 0.9 -7.9 3.2 -1.7 3.2 2.4 0 5.3 0.7 6.5 1.5 1.9 1.3 2.6 1.3 4.3 0.3 1.1 -0.7 2.3 -2.4 2.7 -3.8 0.3 -1.4 0.9 -2.9 1.3 -3.5 0.4 -0.5 1.3 -4.1 1.9 -7.9 2.2 -12.7 9.6 -40.7 13.1 -49.6 1 -2.5 2.1 -6.6 2.4 -9.2 0.4 -2.6 1.1 -5 1.7 -5.3 0.5 -0.4 0.9 -1.7 0.9 -3.1 0 -1.3 1.4 -5.3 3.2 -8.7 2.7 -5.4 3.2 -7.5 3.6 -16.2 0.5 -10.8 1.8 -13.7 6.8 -14.9 1.5 -0.4 2.6 -1.6 3.1 -3.4 1 -4.1 4.9 -11.2 8.8 -15.9 1.9 -2.3 3.5 -4.6 3.5 -5.2 0 -0.5 1.5 -2.9 3.4 -5.4 2 -2.6 3.6 -6 3.8 -8.3 1 -7.8 3 -15.9 4.3 -17.4 0.7 -0.8 2.1 -3.3 3.1 -5.5 1.9 -3.9 2 -4 7.7 -4.3 3.9 -0.2 5.7 -0.7 5.7 -1.6 0 -0.7 1.6 -3 3.5 -5 1.9 -2.1 3.5 -4.1 3.5 -4.6 0 -0.5 1.3 -2.9 3 -5.3 1.6 -2.5 3 -5 3 -5.7 0 -0.6 2.3 -3.5 5 -6.4 2.8 -2.9 5 -6 5 -6.8 0 -0.8 0.8 -3 1.7 -4.8 0.9 -1.9 2 -5 2.4 -6.9 2.4 -11.3 5.7 -15 13.1 -15.1 3.6 0 5 -0.5 6.2 -2.1 0.8 -1.2 6.1 -6.9 11.8 -12.8 10.5 -10.9 10.8 -11.4 13.9 -23.6 0.6 -2.2 2.1 -5.4 3.5 -7.2 2.3 -3.1 2.9 -3.3 8.2 -3.3 3.5 0 6.6 0.6 7.9 1.5 1.7 1.2 2.2 1.2 2.6 0.2 0.3 -0.7 2.5 -1.9 4.8 -2.6 2.4 -0.7 6 -2.6 7.9 -4.1 1.9 -1.5 5.5 -3.1 7.9 -3.5 3.4 -0.6 5.3 -1.7 8.7 -5.3 l4.4 -4.6 25.3 0.1 c22.6 0.1 25.9 -0.1 32 -1.9 7.4 -2.2 13.3 -1.9 17.5 0.8 1.2 0.8 6.6 1.9 12.1 2.4 11.3 1.1 23.4 4.1 30.6 7.7 2.8 1.4 6.7 3.1 8.7 3.8 2 0.8 9.2 5.1 16 9.7 6.8 4.6 12.8 8.5 13.3 8.7 2 0.8 19.1 15.7 26.1 22.8 7.2 7.1 15.3 16.7 22.9 26.7 10.5 14 17 22.4 19.5 25.1 4 4.4 12.7 19.6 16.1 28.1 7.7 19.5 15.9 49.1 15.9 57.5 0 0.5 0.9 0.9 2 0.9 1.4 0 2 0.7 2 2.1 0 1.1 0.7 10.2 1.6 20.2 1.2 13.9 1.3 19.5 0.5 23.7 -1.2 5.8 -1.6 59 -0.6 65 0.9 4.9 3.3 15.1 5.7 24.3 1.7 6.2 2 9.4 1.5 16 -0.6 8.5 -3.3 17.8 -5.9 20.4 -1.3 1.2 -1.5 5 -1 26.1 0.4 22.7 0.3 25 -1.4 28.7 -1.6 3.5 -2.4 4 -5.6 4.3 -2 0.2 -5 -0.1 -6.8 -0.5 -4.2 -1.1 -6.5 -7.2 -5.7 -15.3 0.7 -6.6 -2.1 -20 -6.5 -30.5 -1.6 -3.8 -3.9 -9.7 -5 -13 -1.2 -3.3 -3.2 -7.7 -4.5 -9.7 -1.2 -2.1 -2.3 -4.2 -2.3 -4.8 0 -0.5 -1.3 -3.9 -3 -7.3 -1.6 -3.5 -3 -6.9 -3 -7.6 0 -2.4 -9.6 -19.4 -11.2 -19.8 -0.9 -0.3 -3.1 -3.3 -4.7 -6.7 -1.7 -3.3 -5.3 -8.8 -8 -12.2 -2.7 -3.4 -6.3 -8.7 -8 -11.9 -1.7 -3.2 -3.5 -6.3 -4 -6.9 -0.5 -0.6 -1.4 -2.7 -1.9 -4.6 -2 -6.4 -5.7 -15.5 -8 -19 -1.2 -1.9 -2.2 -4.2 -2.2 -5 -0.1 -1.9 -3.9 -10.4 -6.9 -15.3 -1.6 -2.5 -3.3 -4 -5.2 -4.4 -1.6 -0.3 -4.1 -1.6 -5.5 -3 -2.4 -2.2 -2.6 -2.9 -2.2 -8.6 0.3 -3.4 0 -7.3 -0.6 -8.7 -1 -2.3 -8.2 -12.9 -9.6 -14 -1.1 -1 -15.5 -17.7 -18.3 -21.3 -1.8 -2.4 -3.8 -3.8 -6.1 -4.2 -2.7 -0.6 -3.7 -1.5 -5.1 -4.6 -1 -2.1 -2.1 -3.9 -2.4 -3.9 -0.7 0 -12.7 -8.3 -17.6 -12.2 -3.7 -2.9 -10.1 -5.8 -12.9 -5.8 -2.6 0 -4 -0.9 -5.4 -3.5 -0.6 -1.1 -3.2 -2.8 -5.9 -3.9 -2.6 -1 -8 -3.1 -12 -4.7 -9.2 -3.7 -14.5 -3.8 -16.7 -0.4 -1.5 2.2 -2.3 2.5 -8.2 2.5 -5 0 -7.1 -0.5 -9.3 -2.1 l-2.7 -2 -5.3 2.1 c-7.1 2.8 -14.1 7.7 -14.1 9.9 0 2.6 -3.8 6.1 -6.7 6.1 -3.4 0 -9.8 5.3 -17.2 14.4 -5.6 6.8 -17.1 23 -17.1 24 0 0.3 -2 3.4 -4.5 7 -2.4 3.6 -5.2 8.2 -6 10.3 -0.9 2.1 -3.3 5.6 -5.5 7.8 -2.1 2.2 -4.2 5.2 -4.5 6.8 -0.4 1.5 -1.3 2.7 -2 2.7 -0.7 0 -1.5 0.9 -1.8 2 -0.3 1.1 -1.2 2 -2 2 -2.5 0 -13.4 15 -20.7 28.5 -2.3 4.4 -4.9 9 -5.8 10.3 -2.6 4 -5.2 8.5 -6.8 12.1 -0.8 1.8 -2.3 4.5 -3.3 6 -3.1 4.5 -8.7 14.3 -13.8 24.1 -5.8 11 -11.6 21.8 -14.8 27.5 -1.3 2.2 -3.5 6.9 -5 10.5 -1.5 3.5 -4 9.2 -5.5 12.5 -7.6 16.2 -11.3 25.7 -13.6 34.5 -1.8 6.6 -8.2 20.6 -13.5 29.6 -2.3 3.8 -14.4 10.4 -19.1 10.4 -4.2 -0.1 -12 -3.9 -13.3 -6.5 -0.6 -1.1 -2.2 -3.8 -3.6 -6 -4.5 -7 -5.4 -15.6 -3.4 -32.5 1 -8 1.9 -21.4 2 -29.7 l0.2 -15.3 -3.4 0 c-4.1 0 -10.8 -3.3 -12.3 -6 -0.6 -1.1 -1.4 -2 -1.9 -2 -0.7 0 -4.1 14.9 -4.1 17.9 0 0.6 1.4 1.1 3 1.1 5 0 7 4.5 7 15.8 0 13.1 -0.3 13.5 -10.3 13 l-8.2 -0.3 -1.1 8 c-2.6 18.5 -2.6 17.8 0.9 19.5 1.8 0.8 3.9 2.9 4.7 4.6 0.8 1.7 2.3 3.9 3.3 4.8 1 1.1 1.7 3.3 1.8 5.9 l0 4.2 1.7 -4.2 c1.6 -4.4 3.2 -5.3 9 -5.3 l3.2 0 0 5.4 c0 2.9 -0.7 7 -1.5 8.9 -2.4 5.8 -2 7.4 2.5 9.7 4.7 2.4 7 6.3 7 11.9 0 5.8 -2 7.3 -9.4 7 -6 -0.3 -6.1 -0.2 -6.7 2.7 -1.5 7.2 -5.8 28.3 -6.3 31.7 -0.5 2.8 -0.4 3.7 0.7 3.7 0.8 0 2.2 0.9 3.2 2 1.6 1.7 1.7 3.2 1.2 10.7 -0.7 9.7 -1.7 11.3 -7.3 11.3 -3.6 0 -3.1 -1.8 -6.4 22.9 -2.1 15.6 -2.6 27.1 -1.1 27.1 1.2 0 3.1 5.6 3.1 9.2 0 1.8 -1 3.9 -2.5 5.4 -2.3 2.3 -2.5 3.2 -2.5 11.5 0 7.7 0.4 9.7 2.5 13.7 1.4 2.6 2.5 3.9 2.5 2.9 0 -0.9 0.5 -1.7 1 -1.7 1.9 0 3.2 -5.5 4.1 -17 0.4 -6.3 1.5 -15.7 2.3 -20.8 0.8 -5.1 2.2 -14.8 3 -21.5 0.9 -6.7 2.3 -15.1 3.1 -18.7 3.1 -13.3 5.6 -25.7 6.5 -32 0.9 -5.8 2.6 -12.1 5.1 -18.8 0.5 -1.3 0.9 -3.5 0.9 -5.1 0 -2.8 3.6 -13.8 5.8 -17.9 1.1 -2 2 -2.3 6 -2 l4.7 0.3 0.3 5.3 c0.2 3.5 -0.4 7.1 -1.6 10.5 -2.3 6 -6.4 22.9 -8.2 33.2 -0.6 3.9 -1.4 7.8 -1.7 8.8 -0.4 1.4 0.2 1.7 3.6 1.7 2.2 0 4.3 -0.4 4.6 -1 0.8 -1.3 8.6 -1.3 11.9 -0.1 4.8 1.9 8.6 15.2 5.1 18.1 -0.8 0.7 -4.4 1.5 -8 1.8 -4.6 0.3 -6.2 0.8 -5.6 1.6 1.9 2.3 5.1 12.2 5.1 15.8 0 4.6 -1.9 5.8 -8.9 5.8 -4.6 0 -5.5 -0.4 -9 -3.9 -3.8 -3.8 -3.9 -3.8 -4.7 -1.8 -0.4 1.2 -1 5.1 -1.4 8.7 -0.4 3.6 -1.4 9.2 -2.2 12.5 -2.5 9.5 -4 23.9 -4.2 38.4 -0.2 11.8 -0.4 13.5 -2.1 14.7 -3.8 2.8 -11.2 1.3 -14.3 -2.9 -1.3 -1.8 -1.4 -1.8 -2.8 0 -0.7 1 -1.4 4.2 -1.4 7.3 0 6.4 -1.1 8 -5.6 8 -5.9 0 -6.4 -0.6 -6.4 -7.4 0 -5.6 -0.3 -6.5 -2.9 -9 l-2.9 -2.8 -3 6.4 c-1.6 3.4 -3.5 8.2 -4.1 10.5 -1.6 5.8 -5.5 9.3 -10.3 9.3 -4.3 0 -5.5 -1.5 -6.5 -8.5 -0.3 -2.5 -0.8 -4.3 -1.1 -4.1 -0.8 0.8 -2 34.6 -1.4 40.9 0.4 4.3 0.9 5.7 2.1 5.7 2.8 0.1 5.9 2.4 8.5 6.3 2.1 3 2.6 5 2.6 9.7 0 7.5 -1.5 8.5 -10.7 7.6 -3.4 -0.4 -6.3 -0.5 -6.3 -0.2 0 0.2 -0.6 3.9 -1.4 8.2 -2.4 13.4 -2.8 17.4 -1.7 17.4 0.6 0 1.1 -2.1 1.1 -4.8 0 -4.5 0.2 -4.8 3.3 -6 1.7 -0.7 6.6 -1.5 10.7 -1.9 9.1 -0.7 14 1.1 14 5.1 0 2.3 0.5 2.5 6.7 3.2 4.5 0.4 8.1 1.5 10.7 3.1 l3.9 2.5 -0.6 6.1 c-0.8 8.3 -3.3 10.7 -11.7 10.7 -4 0 -7.1 -0.6 -9.3 -1.9 -1.9 -1.1 -5.2 -2.1 -7.3 -2.3 l-3.9 -0.3 0.3 5.6 c0.3 5.3 0.2 5.7 -3.3 8.7 -3.2 2.8 -4.3 3.2 -9.5 3.2 -4.7 0 -6 0.3 -6 1.5 0 1.3 -2.2 1.5 -13.4 1.5 l-13.4 0 -0.8 -7.7z m66.3 -161.5 c-0.2 -1.3 -0.4 -0.3 -0.4 2.2 0 2.5 0.2 3.5 0.4 2.3 0.2 -1.3 0.2 -3.3 0 -4.5z m5.2 -85 c0.1 -6.1 0.6 -8.6 2.6 -12.5 1.9 -3.5 2.9 -7.6 3.6 -14.4 0.5 -5.1 1.3 -10.7 1.8 -12.4 1 -3.4 5.4 -23.1 7.1 -32 0.7 -3.3 1.4 -6.9 1.6 -8 0.5 -1.9 0 -2 -7.4 -2 l-8 0 -0.5 6.5 c-0.4 3.6 -1.1 10.3 -1.6 15 -0.6 4.7 -0.8 15.7 -0.6 24.5 0.3 8.8 0.1 20.3 -0.5 25.5 -0.5 5.2 -1.1 15.6 -1.4 23 l-0.4 13.5 1.8 -9.5 c1 -5.2 1.9 -12.9 1.9 -17.2z m42.1 21.2 c-1.2 -2.2 -3 -1.8 -3 0.6 0 0.8 0.9 1.4 2 1.4 1.8 0 1.9 -0.3 1 -2z m26.6 -153.5 c0.4 -2.9 1.7 -6.4 3.1 -8.2 1.3 -1.8 3 -5 3.7 -7.1 1.9 -5.3 6.5 -14 9.5 -18.1 l2.6 -3.4 -0.2 -24 c-0.1 -13.2 -0.6 -24.4 -1.1 -24.9 -0.9 -0.9 -5.3 12 -9.6 28.2 -2.9 11 -8.2 41 -9.1 52 -0.3 4.1 -0.8 8.6 -1.1 10 -0.4 1.8 -0.2 2.2 0.5 1.5 0.6 -0.6 1.4 -3.3 1.7 -6z m45.4 -85.2 c1.1 -2.5 2 -5.4 2 -6.3 0 -1 0.4 -2 0.8 -2.2 1.7 -0.7 13.2 -22 13.2 -24.4 0 -1.8 -1.3 -6.3 -3.6 -12.4 -0.7 -1.9 -1.6 -5.7 -1.9 -8.3 -0.9 -6.6 -2.8 -4.8 -5 4.6 -0.9 4 -2.5 10.6 -3.6 14.8 -1 4.1 -1.9 9.1 -1.9 11 0 2 -0.6 5.8 -1.4 8.5 -1.6 5.6 -2.7 20.6 -1.5 19.8 0.5 -0.3 1.8 -2.5 2.9 -5.1z m337 -29.9 c0.6 -7.6 1.5 -16.7 2.1 -20.2 0.9 -4.8 0.8 -6.6 -0.1 -7.7 -0.8 -1 -1.1 -4 -0.8 -9 0.4 -8.2 0.1 -8.6 -4.7 -5.7 -9.4 5.8 -12.8 7.2 -17 7.2 l-4.3 0 4 9.3 c2.2 5 4.8 11.5 5.8 14.2 1 2.8 3.5 8.4 5.6 12.4 2.2 4.1 4.7 8.9 5.7 10.8 1 2 2 3.3 2.3 3 0.2 -0.2 0.9 -6.7 1.4 -14.3z m-292.5 -52.1 c1.5 -2.9 3 -5.3 3.5 -5.3 0.5 0 1.1 -0.8 1.5 -1.7 0.3 -1 2.3 -3.1 4.5 -4.8 2.1 -1.6 5.8 -5.8 8 -9.2 4.1 -6.2 4.1 -6.3 2.3 -9 -0.9 -1.5 -3.6 -4.8 -5.9 -7.2 l-4.2 -4.3 -3.1 6.3 c-3.1 6.4 -6.2 15.6 -8.6 25.9 -0.7 3 -2.3 9.1 -3.4 13.5 -3.2 12.4 -2.9 12.1 5.4 -4.2z m-60.6 -12.5 l0 -5.3 -1.9 4 c-1.6 3.6 -1.6 4.1 -0.2 5.3 0.9 0.6 1.7 1.2 1.9 1.2 0.2 0 0.3 -2.4 0.2 -5.2z m300.4 -34.3 c0 -4.9 -0.5 -12.1 -1.1 -16 -0.6 -3.8 -1.1 -7.6 -1.1 -8.4 -0.1 -1.9 -6.3 5.1 -10.1 11.4 -1.7 2.8 -3.6 5.7 -4.2 6.6 -0.9 1.3 0.3 3.2 6.8 10.8 7.3 8.6 7.9 9 8.8 6.9 0.5 -1.3 0.9 -6.3 0.9 -11.3z m51.1 4.5 c4.9 -3.9 10.6 -10.1 10.6 -11.6 0 -1 -0.5 -3.4 -1.1 -5.3 -0.7 -2 -1.4 -4.3 -1.6 -5.1 -0.4 -1.3 -9.5 16.3 -12.4 23.9 -0.9 2.2 -0.8 2.3 0.8 1 0.9 -0.8 2.6 -2.1 3.7 -2.9z m-304.4 -31.2 c-0.5 -2.7 -1 -7.2 -1 -10.1 l0 -5.2 -2 2.5 c-1.1 1.4 -3.6 5.3 -5.6 8.7 -4 7 -4.4 5.5 4.1 16.3 l5 6.3 0.3 -6.8 c0.2 -3.8 -0.2 -9 -0.8 -11.7z m74.7 -3 c3.6 -3.7 4.2 -5 3.5 -6.5 -0.6 -1 -1.5 -3.8 -2.2 -6.2 -1.8 -6.8 -5.8 -15.3 -6.9 -14.7 -0.5 0.4 -1.9 3.7 -3.1 7.4 -1.1 3.7 -3 9.6 -4.2 13.2 -1.2 3.6 -2.5 8.5 -2.9 11 -0.4 2.5 -1.1 5.7 -1.5 7.2 -0.3 1.5 -0.3 3.5 0 4.4 0.6 1.6 2.9 -0.5 17.3 -15.8z m206.2 4 c1.8 -4.1 5.7 -13.7 6.8 -16.8 0.3 -0.8 -1.5 1.2 -3.9 4.5 -3.5 4.7 -4.7 7.2 -5.2 11.3 -0.4 2.8 -0.4 5.2 -0.1 5.2 0.3 0 1.3 -1.9 2.4 -4.2z m-74.6 -6.8 c0.4 -1.6 0.2 -5.6 -0.4 -8.7 -1.4 -7.9 -1.9 -9.4 -3 -8.8 -1.1 0.7 -6.9 13.2 -6.9 14.9 0 1 7.1 5.3 9.1 5.5 0.4 0.1 0.9 -1.2 1.2 -2.9z m-39 -19.2 c-0.8 -2.4 -2.1 -5 -2.9 -5.9 -0.8 -0.8 -1.4 -2.3 -1.4 -3.2 0 -0.9 -0.4 -1.9 -1 -2.2 -0.5 -0.3 -1 -2.6 -1 -4.9 0 -2.4 -0.6 -5.9 -1.4 -7.7 l-1.5 -3.4 -1.4 3.5 c-0.8 1.9 -2.1 5.5 -2.8 8 -0.7 2.5 -1.6 5 -2 5.5 -0.4 0.6 -1.2 2.7 -1.7 4.8 -1.2 4.3 -0.6 4.8 7.8 6.1 2.5 0.4 5.6 1.3 7 2.1 3.7 2.1 3.9 1.9 2.3 -2.7z m-58.1 -2.9 c-0.5 -4.2 -2.2 -4.6 -2.2 -0.5 0 2.6 0.4 3.6 1.3 3.3 0.6 -0.2 1.1 -1.5 0.9 -2.8z m179.8 -0.9 c0 -0.4 -0.8 -1.8 -1.9 -3.1 -1 -1.3 -2.5 -3.7 -3.3 -5.2 l-1.4 -2.9 -1 6.4 -0.9 6.3 4.2 -0.4 c2.4 -0.1 4.3 -0.6 4.3 -1.1z m-251.8 -12.7 c0 -4.3 0.4 -8.6 0.9 -9.5 1 -1.8 3.2 -15.9 2.5 -16.5 -0.4 -0.4 -4.3 3.4 -9.3 9.1 l-3.2 3.7 2.6 7.2 c1.4 4 3.1 7.9 3.9 8.8 0.8 0.8 1.4 2.6 1.4 3.9 0 1.3 0.3 2.1 0.6 1.8 0.3 -0.3 0.6 -4.1 0.6 -8.5z m206.3 -6.1 c0.7 -3.1 1.6 -6.8 1.9 -8.2 0.4 -1.4 2.1 -3.4 3.8 -4.5 3.4 -2.1 5 -5.5 6.5 -14.1 l0.9 -5.2 -9.6 -9.6 -9.7 -9.7 -1.2 2.8 c-2.3 4.9 -2.3 12.5 -0.3 26.3 1.1 7.4 2.3 16.2 2.7 19.5 0.3 3.3 0.8 7.3 1.2 8.9 0.4 2.5 0.7 2.7 1.5 1.2 0.5 -0.9 1.6 -4.3 2.3 -7.4z m-43.6 -12.5 c0.5 -1.8 2.2 -6.6 3.6 -10.7 4.8 -13.5 10.5 -34.4 10.5 -38.6 0 -2.3 -0.6 -4.6 -1.2 -5.2 -2.3 -1.8 -11.1 -4 -18.7 -4.6 -6.7 -0.6 -7.3 -0.5 -6.7 1.1 0.7 1.7 1.3 5.9 4.1 26.8 1.8 13.8 4.6 32.7 5.1 34.3 0.6 2 2.2 0.5 3.3 -3.1z m-281.9 -1.8 c0 -2.2 0.7 -6.5 1.6 -9.5 2.1 -7.2 1.3 -10.4 -0.9 -3.9 -2.3 6.4 -3.4 17.5 -1.8 17.5 0.6 0 1.1 -1.7 1.1 -4.1z m177.4 -7.8 c0.9 -1.6 1.6 -4.4 1.6 -6.1 0 -1.7 0.6 -4.1 1.4 -5.3 1.6 -2.4 3.3 -24.7 2.2 -29 -0.6 -2.4 -0.7 -2.4 -4.6 -1.1 -4.9 1.7 -14.4 7 -16 8.9 -0.9 1.1 -0.9 2.4 0.3 5.7 2.7 7.8 4.6 14.2 7.2 23.3 1.4 5 3.1 10.3 3.7 12 l1.2 3 0.8 -4.2 c0.3 -2.3 1.4 -5.5 2.2 -7.2z m44.6 -23.7 c0 -2.3 1 -6 2.4 -8.5 1.2 -2.5 3 -7.4 3.9 -10.9 2.3 -8.7 1.5 -9.5 -8.3 -8.5 -7.1 0.7 -7.2 0.8 -6.7 3.4 1.8 9.7 2.8 14.4 4.1 20.6 0.9 3.9 1.6 8.1 1.6 9.4 0 2.4 0 2.4 1.5 0.5 0.8 -1 1.5 -3.7 1.5 -6z m214.9 -5 c0.1 -2.6 -0.5 -4.6 -1.4 -5.4 -0.8 -0.7 -1.5 -2.1 -1.5 -3.1 0 -1.7 -3.7 -8.9 -4.7 -8.9 -1 0 1.1 12 3.5 19.5 2.4 7.3 2.6 7.8 3.3 5 0.3 -1.6 0.7 -4.9 0.8 -7.1z"/>
  <path d="M240 1087.8 c0.1 -3.3 1.9 -4.1 9.6 -4.2 5.4 -0.1 7.9 0.3 8.1 1.2 0.3 0.6 1.1 1.2 1.9 1.2 0.8 0 1.4 0.7 1.4 1.5 0 1.2 -1.8 1.5 -10.5 1.5 -7.7 0 -10.5 -0.3 -10.5 -1.2z"/>
  <path d="M95.5 1065.6 c-5.9 -1.8 -9.1 -4.3 -11.8 -8.9 -3.2 -5.5 -4 -11.5 -2.5 -17.2 1 -3.9 2.1 -5.1 6.4 -8 4.9 -3.3 5.4 -3.4 11.8 -2.8 5.5 0.5 7 1 8.6 3.1 1.1 1.4 2 3.1 2 3.9 0 0.8 1.8 5 4.1 9.3 4.5 8.8 4.4 9.6 -1.4 15.1 -5.7 5.4 -11.6 7.2 -17.2 5.5z m3.6 -18.9 c-1.3 -1.3 -2.6 -0.3 -1.6 1.2 0.3 0.6 1.1 0.8 1.7 0.5 0.6 -0.4 0.6 -1 -0.1 -1.7z"/>
  <path d="M229.5 1028.4 c-3.7 -3.7 -4.3 -6.1 -5 -18.7 -0.6 -11.3 -0.5 -13 1 -14.7 1.6 -1.8 1.6 -2 -1.8 -3.4 -4.6 -1.9 -5.7 -4.1 -5.7 -11.5 0 -4.9 0.4 -6.4 2.2 -8.1 2.4 -2.2 7.9 -2.7 12.2 -1.1 1.8 0.8 2.8 0.6 3.7 -0.6 1.9 -2.2 12.2 -1.2 16 1.6 l2.9 2.2 0 -4.3 c0 -7.1 3.5 -9.8 12.6 -9.8 6.7 0 7.5 0.5 10.9 7.4 1.1 2.1 3.7 5.3 5.9 7 5 4 6.6 7.4 6.6 13.5 0 4.2 -0.5 5.4 -3 7.9 -4.6 4.6 -3.3 6 4.9 5.4 6.1 -0.4 7.2 -0.2 10.5 2.1 4.6 3.1 7.6 8.5 7.6 13.6 0 6.7 -0.4 7.1 -7.9 7.1 -6.4 0 -6.8 -0.2 -11.3 -4.2 -4.6 -4 -4.8 -4.1 -11.5 -3.9 -6 0.2 -7.3 -0.2 -11.1 -2.6 l-4.3 -2.8 0.3 -6.5 c0.3 -6.2 0.4 -6.6 3.5 -8 l3.3 -1.5 -3.5 -2.8 c-1.9 -1.5 -3.8 -4 -4.1 -5.5 -0.8 -3.1 -2.7 -5.6 -6.5 -8.3 l-2.6 -1.8 0.5 5.2 c0.5 7.2 -1.1 9.2 -7.5 9.2 -2.6 0 -5.8 -0.4 -6.9 -0.8 -2.6 -0.9 -4.4 2.2 -2 3.5 0.8 0.4 2.9 3.1 4.6 5.9 2.8 4.7 3.1 5.8 2.6 10.8 -0.9 10.3 -2.2 16.9 -3.5 18.5 -1.9 2.2 -11.4 2.2 -13.6 0z"/>
  <path d="M926.3 1016.1 c-9 -2.4 -13.1 -5.9 -17.4 -15 -10 -20.7 -11.1 -29.6 -4.6 -37.3 6.4 -7.5 7.7 -8.5 11.3 -9.1 2 -0.4 4.5 -1.4 5.6 -2.4 3.5 -3.1 11 -4.2 18.8 -2.7 9.1 1.7 11.8 3.3 15.9 9 l3.5 4.7 0.1 20.1 c0.1 15.7 -0.2 20.8 -1.3 23.1 -1.8 3.7 -3.9 5 -7.4 4.6 -1.4 -0.1 -2.9 0.3 -3.3 0.8 -1 1.7 -7.6 4.8 -11.5 5.3 -1.9 0.3 -6.3 -0.2 -9.7 -1.1z m13.2 -12.2 c4.7 -4.2 5.8 -6.4 4.5 -8.8 -0.5 -1.1 -1.4 -7.4 -1.9 -14.1 -0.7 -9.6 -1.3 -12.8 -2.9 -14.9 -2.7 -3.6 -4.9 -3.8 -6.4 -0.5 -0.8 1.8 -3 3.5 -6.4 5 -3.8 1.7 -5.5 3.1 -6.7 5.7 -2.5 5.1 -2.1 11.4 0.8 17.4 2.9 5.8 10.5 13.3 13.4 13.3 1.1 0 3.6 -1.4 5.6 -3.1z"/>
  <path d="M59.5 999 c-5.3 -1.3 -7.9 -2.7 -10.9 -5.8 -2.6 -2.8 -2.8 -3.5 -2.2 -7.6 0.7 -4.8 7.2 -14.6 12.3 -18.6 5.3 -4.1 12.9 -1.5 18.5 6.5 2.5 3.5 2.8 4.7 2.4 9.4 -0.6 6.5 -2.6 9.6 -8.7 13.3 -5.4 3.3 -7.6 3.8 -11.4 2.8z"/>
  <path d="M290.7 975.9 c-5.4 -4.9 -5.7 -5.4 -5.7 -9.8 0 -5.9 2 -8.8 7.2 -10.2 6.2 -1.6 12.7 -0.3 16.6 3.4 2.8 2.7 3.2 3.7 3.2 8.4 0 7.7 -2 11.8 -6 12.7 -7.3 1.4 -9.3 0.8 -15.3 -4.5z"/>
  <path d="M99.2 956 c-5 -2.2 -10.2 -9.3 -10.2 -13.7 0 -6 7.3 -19 15.2 -27 8.4 -8.4 11.6 -10.1 16.2 -8.5 1.7 0.6 5.1 1.4 7.5 1.7 3.1 0.5 5.6 1.8 8.3 4.4 5.2 4.8 6.3 9.4 4.1 18.1 -2 8.5 -3.2 10.7 -8.5 15.5 -7.2 6.7 -10.5 8.5 -18.1 9.9 -9 1.7 -9.8 1.7 -14.5 -0.4z m19.1 -20.9 c1.4 -1.4 2.2 -9.5 0.9 -8.7 -0.7 0.4 -1.2 1.8 -1.2 3.2 0 2.1 -0.4 2.4 -3.9 2.4 -3.2 0 -4 -0.4 -4.3 -2.1 -0.2 -1.7 -0.6 -1.4 -2.3 1.6 l-1.9 3.7 2.3 1.9 c2.1 1.7 2.5 1.7 5.9 0.3 2.1 -0.8 4.1 -1.9 4.5 -2.3z"/>
  <path d="M952.5 944.4 c-6.7 -3.5 -9.3 -7.3 -10.9 -15.6 -0.4 -2.3 -1.3 -3.8 -2.1 -3.8 -0.8 0 -2.2 -1.6 -3.1 -3.6 -1.4 -3 -1.5 -4.1 -0.4 -7.3 0.7 -2.3 1 -5.8 0.6 -8.8 -0.5 -4.7 -0.4 -5.1 3.2 -8.5 2 -2 5.7 -4.6 8.2 -5.8 2.5 -1.2 5.2 -2.8 6 -3.6 5 -4.4 28.2 0.3 38.1 7.7 5.9 4.4 10.9 11 10.9 14.3 0 3.4 -11.7 20.1 -17.8 25.7 -7 6.2 -18.4 11.9 -23.9 11.9 -2.4 0 -6 -1 -8.8 -2.6z m25.7 -15.6 c2.7 -1.7 5.4 -4 6 -5.3 0.7 -1.2 2.6 -4.3 4.1 -6.8 2.6 -4.3 2.7 -4.8 1.4 -7.4 -3.9 -7.5 -16.8 -13.1 -25.7 -11.2 -5.2 1.1 -6.4 2.7 -9.3 13 -2.6 8.8 0.5 15.8 8.5 19.7 5.2 2.6 8.5 2.1 15 -2z"/>
  <path d="M888.6 942.5 c-3.1 -2.9 -2.6 -1.2 -3.7 -12.5 -2 -21.5 -2.1 -22.5 -0.7 -26.5 1.1 -3.5 1.7 -4 4.7 -4.3 1.9 -0.2 7.1 0.9 11.7 2.3 6.9 2.2 9 3.4 11.8 6.7 3.6 4.1 5.2 9.4 4 13.1 -1.2 3.7 -9.3 15 -14.1 19.5 -5.5 5 -9.5 5.6 -13.7 1.7z m13.8 -15.4 c4.2 -5.7 4.5 -8 1.3 -11.7 -2.8 -3.2 -5.7 -2.7 -5.7 1 0 1.3 -0.6 2.6 -1.4 2.9 -1.1 0.4 -1.3 1.7 -0.9 4.9 0.5 4 1.9 7.8 2.8 7.8 0.2 0 1.9 -2.2 3.9 -4.9z"/>
  <path d="M924.3 879 c-2.8 -1.1 -4 -6.6 -4.6 -20 -0.2 -5.1 0 -5.5 2.1 -5.8 1.3 -0.2 2.9 0.1 3.6 0.7 0.8 0.7 2.4 0.7 4.7 0.1 6 -1.8 10.7 -1.2 13.4 1.5 5.3 5.2 1.2 15 -9 22 -3.9 2.6 -6.5 3 -10.2 1.5z"/>
  <path d="M168.4 876.4 c-6.1 -4 -8.4 -8 -8.4 -14.8 0 -8.7 3.8 -14.8 12 -19.3 5.6 -3.1 7.8 -3.3 12.8 -1.1 6.1 2.7 14.2 9.5 14.2 11.9 0 1 0.5 1.9 1 1.9 0.6 0 1 2 1 4.4 0 11.7 -9 19.6 -22.4 19.6 -5 0 -7 -0.5 -10.2 -2.6z"/>
  <path d="M873.7 873.9 c-4.2 -3.2 -4.9 -6 -4.8 -21.6 l0 -14.3 -2.4 0 c-5.2 0 -3.8 -8.7 1.9 -11.7 4.2 -2.2 17.3 -2.9 23.1 -1.3 8.3 2.3 15.4 9.8 15.5 16.2 0 1.5 -1.6 5.2 -3.5 8.2 -1.9 3 -3.5 5.8 -3.5 6.1 0 2 -7.4 11.7 -11.6 15.2 -6.2 5.2 -10.8 6.2 -14.7 3.2z m12.3 -17.2 c0 -0.5 1.1 -2.4 2.4 -4.1 4.4 -5.9 5.9 -9.6 4.7 -12.2 -1.3 -2.9 -7.2 -5.9 -9.6 -5 -1.3 0.5 -1.6 1.4 -1.1 3.7 0.3 1.8 0.6 6.9 0.6 11.5 0 7 0.2 8.2 1.5 7.8 0.8 -0.4 1.5 -1.1 1.5 -1.7z"/>
  <path d="M155.5 824.6 c-4 -1.8 -9.3 -8.6 -13.4 -16.8 -4.6 -9.3 -5 -13.6 -1.8 -19 2.7 -4.6 9.2 -11.8 10.7 -11.8 0.5 0 1.1 -0.8 1.5 -1.9 0.3 -1 4 -4.4 8.2 -7.5 9.1 -6.8 11.9 -7.1 14.5 -1.5 1.3 2.8 2.6 3.8 6 4.8 5.5 1.7 7.2 3.2 10.4 9.7 1.4 2.9 3.3 5.9 4.3 6.8 1.4 1.3 1.7 3 1.5 9.1 -0.3 6.4 -0.7 8.1 -3.2 11.8 -4.2 6.1 -11.1 12.1 -16.8 14.7 -6.2 2.8 -17.6 3.7 -21.9 1.6z m15.6 -22.3 c5.7 -6.1 7.6 -12.4 4.2 -14.1 -1 -0.5 -3.9 -0.7 -6.5 -0.4 -3.9 0.3 -5.1 1 -7.3 3.7 -1.4 1.9 -2.5 4.1 -2.5 5 0 3.9 4.4 9.4 7.5 9.5 0.6 0 2.7 -1.7 4.6 -3.7z"/>
  <path d="M891.6 809.4 c-4.6 -1.7 -9.4 -4.9 -12.1 -8.1 -2.2 -2.7 -6.5 -13.7 -6.5 -16.9 0 -2.2 3 -11.6 5.4 -16.9 1.6 -3.5 5.9 -15.4 7.6 -20.7 1.5 -5 7.6 -10.1 11 -9.3 1.4 0.4 3.2 1.3 4 2 1.5 1.3 8.4 4.2 12.7 5.2 3.7 0.9 10.2 7.2 13.1 12.7 2.3 4.3 2.7 6.3 2.7 13.6 0 7.7 -0.3 9.1 -3.4 15.2 -6.2 12 -10.2 17 -16.6 21 -6.6 4.1 -11.1 4.6 -17.9 2.2z m15.9 -20.1 c3.1 -3.1 9.5 -15.8 9.5 -18.7 -0.1 -3.1 -3.4 -9.9 -6.4 -12.9 -3.1 -3.1 -8.6 -3.7 -10.6 -1.2 -0.7 0.8 -1.9 4.5 -2.6 8.2 -0.8 3.8 -1.9 9.2 -2.5 12.2 -1.3 6.6 -0.8 9 2.9 12.9 3.3 3.6 5.7 3.4 9.7 -0.5z"/>
  <path d="M865.6 703.1 c-6 -2 -11.7 -6.1 -13.9 -10.1 -1.7 -3.1 -1.7 -3.8 -0.6 -7.5 0.8 -2.2 3.1 -5.7 5.1 -7.9 2.8 -2.8 3.8 -4.7 3.8 -7.1 0 -4.3 2.9 -5.5 11.6 -4.9 9.6 0.7 15.6 4.2 20.6 11.8 2.1 3.3 3.8 6.9 3.8 8.1 0 2.6 -4.7 10.1 -8.6 13.6 -3.5 3.2 -10.8 5.9 -14.8 5.6 -1.6 -0.1 -4.8 -0.8 -7 -1.6z m12.7 -14.3 c0.9 -1.1 1.7 -3 1.7 -4.1 0 -2.2 -3.7 -6.7 -5.4 -6.7 -1.6 0.1 -7.1 5.1 -8.5 7.7 -1 2.1 -0.8 2.5 2.1 4.3 3.8 2.4 7.4 1.9 10.1 -1.2z"/>
  <path d="M332 430.5 c0 -3.4 1.1 -6.5 4.4 -12.7 l4.5 -8.3 -4.7 0 -4.7 0 -0.3 -5.3 c-0.2 -4.2 0.2 -6.3 2.2 -9.9 1.5 -2.5 2.6 -5.1 2.6 -5.8 0 -0.7 1.8 -4.8 4 -9.1 2.2 -4.3 4 -8.6 4 -9.5 0 -0.9 1 -3.1 2.3 -5 1.2 -1.9 3.5 -6.3 5.1 -9.9 2.4 -5.4 7.1 -13 17.9 -29.4 0.6 -1 2 -2.9 3 -4.1 0.9 -1.3 1.7 -2.6 1.7 -2.9 0 -0.4 1.9 -3.4 4.3 -6.7 2.3 -3.3 4.7 -6.8 5.2 -7.7 0.6 -1 1.2 -1.9 1.5 -2.2 0.3 -0.3 3.8 -4.8 7.7 -10 3.9 -5.2 10.3 -12.8 14.1 -16.9 6.5 -6.9 7.3 -7.4 11.9 -7.8 4.6 -0.5 5.1 -0.3 5.6 1.8 2.3 8.4 -0.7 14.4 -15.8 32.4 -4.8 5.7 -4.5 5.6 4.5 -2.8 5.2 -4.9 10.2 -9.5 11 -10.3 1.3 -1.3 8.9 -7.1 22.8 -17.7 2.3 -1.7 6.1 -4.7 8.4 -6.5 3.6 -2.9 4.7 -3.3 9.2 -3 l5.1 0.3 0.3 4.3 c0.2 2.5 -0.2 5 -1 5.9 -1.1 1.3 -0.9 1.8 1 3.1 1.8 1.2 2.2 2.4 2.2 6.7 0 6.8 -2 8.5 -13.9 12.1 -11.6 3.5 -24.5 9.8 -30.9 15 -6.3 5.2 -16.3 16 -22.2 24 -2.4 3.2 -6.6 8.5 -9.3 11.8 -5 6.1 -18.1 25.6 -21.2 31.6 -1 1.9 -3.4 5.9 -5.5 9 -4.5 6.6 -7.8 15.8 -8.9 24.9 -1.1 8.1 -1.9 10.3 -7.2 18.6 l-4.1 6.5 -8.4 0 -8.4 0 0 -4.5z"/>
  <path d="M344.7 343.3 c-1.1 -1 -0.8 -9.2 0.3 -11.3 0.6 -1 2.5 -7.3 4.4 -13.8 1.9 -6.6 4.1 -13.1 4.9 -14.4 0.8 -1.2 1.7 -3.5 2.1 -5 0.3 -1.5 2 -5.6 3.6 -9.1 1.7 -3.6 3 -6.8 3 -7.2 0 -2 12.6 -22.6 14.6 -23.9 3 -2 9.8 -2.1 11.4 -0.1 2.6 3.2 0.7 10.6 -4.9 18.8 -5.9 8.8 -10.5 17 -11.6 20.7 -0.4 1.4 -1.7 4.8 -3 7.5 -1.2 2.8 -4.7 11.7 -7.6 19.8 -3 8.2 -6.2 15.7 -7.2 16.8 -1.7 1.9 -8.5 2.7 -10 1.2z"/>
  <path d="M405 221.3 c-6.2 -4.1 -8 -6.6 -8 -10.8 0 -2.2 0.5 -4.6 1.2 -5.3 0.7 -0.7 3.7 -1.2 6.8 -1.2 11.9 0 17 3.6 17 11.9 0 2.6 -0.5 5.2 -1.2 5.9 -1.8 1.8 -12.9 1.5 -15.8 -0.5z"/>
  <path d="M487 85.3 c-3.5 -2.4 -4 -3.3 -4 -7.5 0 -3.7 0.1 -3.8 3.5 -3.8 1.9 0 3.5 0.3 3.5 0.8 0 0.4 1.4 1.6 3 2.7 2.4 1.6 3 2.7 3 5.8 0 3.5 -0.2 3.7 -3.3 3.7 -1.8 0 -4.4 -0.8 -5.7 -1.7z"/>
 </g>
 <g fill="#ffffff">
  <path d="M194.3 1085.3 c-0.4 -6 0.2 -6.8 3.6 -4.4 4.2 3 8.4 2.7 12.6 -1 4 -3.6 4.2 -4.7 1.5 -8.2 l-2 -2.5 3.5 -3.1 c3.9 -3.4 6.2 -3.9 7.1 -1.6 0.4 0.8 1.9 1.5 3.5 1.5 1.6 0 4.4 0.9 6.4 2 2 1.1 4.9 2 6.5 2 3.7 0 7.7 -3.6 8.5 -7.7 0.6 -2.9 0.3 -3.4 -3.2 -5.6 -2.1 -1.3 -4.5 -2.4 -5.3 -2.5 -10.3 -0.7 -15.3 0.9 -17.7 5.8 -1 2 -1.3 2.2 -1.8 0.8 -0.4 -0.9 -1.9 -2.1 -3.4 -2.7 -3.2 -1.4 -12.6 -0.7 -14.7 1 -0.7 0.6 -2.1 0.8 -3 0.5 -1.5 -0.6 -1.6 -1.8 -1.1 -8.9 0.7 -8.9 2.9 -21.3 4.7 -26.3 l1.1 -3.2 2.5 2.3 c2.9 2.7 7.8 3.9 10.5 2.5 2.7 -1.5 2.4 -6 -0.7 -10.8 -3.5 -5.4 -7.7 -7.2 -11.5 -5 -2.5 1.5 -2.8 1.5 -3.4 0.1 -0.3 -0.9 0.4 -2.6 1.6 -3.9 2 -2.1 2.1 -3.6 2.6 -22.6 0.3 -11.2 0.6 -22.8 0.7 -25.8 0.7 -13.9 3.5 -25.8 3.6 -14.9 0 3.1 0.3 5.9 0.7 6.3 1.1 1.1 3.3 7.8 3.8 12 0.6 4.1 2.1 7.6 3.3 7.6 1.9 0 6.3 -5.5 7.3 -9.3 0.6 -2.3 2.5 -7.1 4.1 -10.6 2.8 -5.7 5.3 -17.1 6.5 -28.6 1.5 -14.9 1.5 -15.7 0.2 -15 -1.6 1 -0.7 -13.1 1.6 -25.3 1.5 -7.6 1.5 -8.5 -0.1 -11.1 -1.4 -2.5 -1.5 -3.5 -0.5 -7.5 1.5 -6 3.1 -37.7 3.5 -68.6 0.2 -13.5 0.6 -25.6 1 -27 0.3 -1.4 1 -6.3 1.6 -10.9 0.5 -4.7 1.3 -8.8 1.7 -9.2 0.5 -0.5 2.3 0.5 4.2 2.1 5.2 4.6 11.1 3.7 11.1 -1.6 0 -1.3 -0.8 -3 -1.7 -4 -1 -0.9 -2.5 -3.1 -3.3 -4.8 -0.8 -1.7 -3 -3.8 -4.7 -4.6 -2.4 -1.1 -3.3 -2.2 -3.3 -4 0 -4.3 3.1 -28.2 4 -30.6 l0.9 -2.3 4.3 1.9 c5.7 2.6 10.4 2.6 11.8 0.1 1.8 -3.5 1.2 -14.2 -1 -17.8 -2 -3.3 -6.1 -4.5 -7.5 -2.3 -1.3 2.1 -2.7 0.9 -2.2 -1.7 0.4 -1.6 2.2 -10.7 4.2 -20.3 1.9 -9.6 4 -19 4.6 -20.9 1.1 -3.1 1.4 -3.3 4.6 -2.8 4.3 0.7 7.9 -0.6 8.5 -3.1 0.4 -1.2 -0.8 -4.5 -2.9 -8.3 -3.4 -6.1 -3.4 -6.3 -2 -10.3 0.8 -2.3 1.8 -5.3 2.1 -6.8 0.6 -2.5 1.1 -2.8 4.9 -2.8 7.5 0 8.5 -3 3.1 -9 l-3.7 -4 2.8 -11.8 c4.2 -17.9 6 -25.1 11.4 -45.7 3.1 -11.8 5.4 -23.4 6.1 -30.5 0.7 -6.3 2.1 -14.6 3.2 -18.5 2.3 -8.3 5.9 -22.7 7.8 -30.6 1 -4.3 1 -7.1 0.2 -11.8 -1.2 -6.8 -1.2 -7 4.5 -18.6 9.2 -18.9 14.6 -38.9 15.8 -59 0.7 -9.9 4.6 -28 8.4 -38 1 -2.7 2.4 -6.8 3.1 -9 1.8 -5.6 9.9 -22.5 11.6 -24.2 0.8 -0.8 1.4 -2.1 1.4 -2.8 0 -0.7 3.3 -8.5 7.3 -17.2 4.1 -8.7 7.9 -17.5 8.6 -19.5 1.1 -3.5 1.4 -3.7 3.4 -2.6 1.2 0.6 2.5 1.5 2.8 2 0.3 0.4 2.3 0.9 4.5 1.1 3.6 0.2 3.9 0 4.2 -2.6 0.4 -3.5 -3.8 -9.4 -7.3 -10.3 -2.6 -0.6 -3.2 -1.8 -1.5 -2.9 2.5 -1.6 6 -8.7 6 -12.2 0 -4.4 1.5 -10.1 4 -15.8 1 -2.2 3 -7.1 4.5 -11 2.5 -6.9 3.5 -9 11.9 -25 3.5 -6.6 13 -23 17.9 -30.9 1.3 -2.1 10.9 -16.9 11.3 -17.4 0.1 -0.2 1.2 0.1 2.3 0.7 2.7 1.5 9.9 0.3 12.3 -2.1 3.5 -3.5 1.1 -9.8 -3.9 -9.8 -1.1 0 -2.2 -0.3 -2.6 -0.6 -0.6 -0.6 1.5 -4.4 4.1 -7.4 0.7 -0.8 2.8 -3.5 4.5 -6 2.1 -3.1 3.2 -4 3.5 -2.9 0.5 2.8 4.8 4.4 9 3.3 3.4 -0.8 3.7 -1.2 3.7 -4.4 0 -3.1 -0.4 -3.6 -4.2 -5 l-4.1 -1.5 7.1 -8.5 c10.6 -12.5 26.4 -27.9 33.7 -32.9 3.6 -2.5 8.3 -5.7 10.6 -7.3 10.5 -7.1 24.5 -10.4 40.5 -9.5 10.5 0.6 21.4 2.8 23.3 4.7 0.5 0.5 1.6 1 2.3 1 1.8 0 15.5 9.5 18.4 12.7 1.3 1.6 4 5 5.9 7.8 1.9 2.7 4 5.5 4.5 6.1 0.6 0.6 2.4 2.8 4 4.9 1.7 2.1 6 6.9 9.7 10.8 6.6 6.8 10.8 13.5 10.8 17.3 0 2.1 8.1 18.5 12.5 25.4 1.6 2.5 2.8 5.1 2.7 5.7 -0.5 2.5 13.4 31.1 15.9 32.6 1.1 0.7 1.9 2.3 1.9 3.8 0 1.5 0.7 3.2 1.5 3.9 0.8 0.7 2.2 3.5 3 6.2 0.8 2.7 3.2 7.1 5.5 9.8 2.2 2.6 4 5.2 4 5.7 0 0.6 1.1 2.6 2.4 4.6 1.4 2 2.8 5.2 3.2 7.1 0.3 2 1.2 4 2 4.7 0.8 0.6 1.4 1.7 1.4 2.5 0 0.7 1.3 3.7 3 6.7 1.7 3 3 6.4 3 7.5 0 1.1 0.7 2.7 1.5 3.6 0.8 0.8 1.5 1.9 1.5 2.4 0 0.5 0.9 1.7 2 2.7 1.1 1 2 2.4 2 3 0 0.7 0.7 1.8 1.5 2.5 0.8 0.7 2.1 2.4 2.8 3.9 0.7 1.4 1.8 3.5 2.4 4.6 2.2 4.2 7.1 15.3 9.7 22.2 1.5 4 3.8 8.3 5.2 9.5 1.3 1.3 2.4 2.9 2.4 3.7 0 0.8 3.4 5.4 7.6 10.3 6.5 7.7 7.6 9.6 8.4 14.1 0.5 3.7 1.5 5.7 3.4 7.2 2.1 1.7 2.6 2.9 2.6 6.8 0 2.6 -0.3 4.7 -0.6 4.7 -0.4 0 -2.2 -1 -4.1 -2.1 -4.2 -2.6 -10.3 -2.7 -13.7 -0.2 -2.9 2.1 -4.3 6.8 -2.6 8.8 0.9 1.1 0.9 1.8 -0.4 3 -0.9 0.9 -1.6 2.1 -1.6 2.6 0 0.5 -0.6 0.9 -1.3 0.9 -0.8 0 -2.1 0.8 -3 1.8 -2.1 2.4 -2.3 13.6 -0.3 17.8 0.8 1.6 1.7 5.2 2.1 8.1 0.4 2.9 1.5 6.9 2.6 9 1 2 1.9 4.3 1.9 5.1 0 2.9 7.1 11.2 9.7 11.2 0.7 0 1.3 0.4 1.3 0.8 0 0.5 1.8 1.7 4.1 2.7 3.5 1.6 4.5 1.7 7.7 0.6 9 -3.2 11.6 -6 13.3 -14.6 0.4 -2.3 0.5 1.7 0.3 9.5 -0.3 7.4 -0.9 15.5 -1.4 18 -1.5 7.6 -2.1 20.7 -1.1 23.3 0.6 1.4 1.1 5.8 1.2 9.9 0.1 5.4 0.6 7.7 1.9 8.9 1.2 1.2 2 5 3 13.5 0.8 6.6 1.3 13.3 1.2 14.9 -0.4 4.9 1.5 0.8 2.3 -5.2 1 -7.7 4 -16.4 5.9 -17.5 1 -0.5 1.9 -0.8 2.1 -0.6 0.5 0.4 0.8 18.1 0.6 32.6 -0.2 13 0.6 24 1.9 25.7 0.5 0.6 1.3 4.6 2 9 1.7 11 4.7 22.5 6.5 24.5 0.9 0.9 1.5 3.6 1.5 6.1 0 2.4 0.7 6.9 1.6 9.9 0.8 3 2.2 8.2 3 11.5 0.8 3.3 2 7.6 2.8 9.5 0.8 1.9 1.9 7.1 2.5 11.5 0.6 5.1 2.4 11.5 4.9 17.7 4.3 10.4 8.6 23.8 7.9 24.4 -0.2 0.3 0 2.6 0.5 5.2 0.5 2.6 1 13.5 1.1 24.3 0.1 17.3 -0.1 19.9 -1.7 22.3 -3 4.7 -4.2 10.6 -3.4 17.6 0.3 3.6 0.3 14 -0.2 23.2 -0.4 9.2 -0.6 17.7 -0.3 18.9 0.4 1.3 2.1 3.5 3.8 5.1 3.9 3.4 4.9 7.9 6.5 28.8 0.6 8 1.7 19.9 2.5 26.5 3 25.3 3.7 34.5 4 49 0.1 8.3 0.6 23.3 1 33.5 0.8 22.6 -0.4 30.3 -4.8 30.8 -3.2 0.4 -5.7 3.6 -5.7 7.4 0 3.4 4.6 12.6 7.5 15 2.4 2 5.4 2.2 9 0.6 2.9 -1.3 5.7 -9.1 7.5 -20.6 1.4 -8.8 3 -14.6 3.8 -13.8 1.3 1.4 2.2 13 2.8 35.1 0.5 22.8 1.3 28.4 4.2 31.7 1.2 1.5 1.4 4.4 0.9 18 -0.3 9 -1.1 18 -1.8 20.1 -1 3 -1 5.1 0.1 11 1.9 10 1.7 24.5 -0.5 35.6 -1.2 6.4 -1.5 10.3 -0.9 12.5 0.5 1.7 0.7 6 0.4 9.6 l-0.5 6.5 -291.4 0.3 c-236.9 0.2 -292.3 0 -296.5 -1.1 -3.6 -0.9 -6.3 -1 -9.1 -0.3 -2.2 0.5 -14.8 1.1 -28 1.3 l-24 0.4 -0.2 -3.8z m27.6 -32.8 c1.7 -2 3.1 -3.8 3.1 -4 0 -0.3 -1.4 -1.2 -3.1 -2.1 -3.3 -1.7 -11.5 -1.2 -15.4 0.9 -1.1 0.6 -2.3 1 -2.7 0.9 -1.1 -0.3 -1 1.6 0.2 3.9 0.7 1.1 2.1 1.9 3.8 1.9 1.5 0 3.4 0.5 4.2 1 3.1 2 6.7 1.1 9.9 -2.5z m18.2 -27.1 c0.7 -0.9 1.7 -3.9 2.1 -6.8 0.4 -2.8 1 -6.5 1.4 -8.2 0.5 -2.6 -0.1 -4.3 -3 -8.8 -3.2 -5 -3.9 -5.6 -6.9 -5.6 -4.8 0 -7.1 2.8 -6.3 7.7 0.4 2.1 0.7 6.4 0.6 9.6 -0.1 5.8 0.9 8.4 4.5 12.1 2.1 2.1 5.9 2.1 7.6 0z m67.5 -6.8 c1.3 -5.2 -7.1 -14.6 -13 -14.6 -3 0 -5.6 2.4 -5.6 5.2 0 1.1 2.2 4.2 5.1 6.9 4.3 4.1 5.7 4.9 9 4.9 3.2 0 4 -0.4 4.5 -2.4z m-23.5 -8.3 c0.8 -2.1 0.6 -3.4 -0.8 -6.1 -2.5 -4.8 -5.5 -6.6 -9.7 -5.8 -4 0.8 -5.2 2.1 -5.4 6.1 -0.2 2.6 0.5 3.5 4 5.8 5.7 3.7 10.5 3.7 11.9 0z m1.4 -17.9 c4.1 -4.4 2.7 -9.5 -4.1 -15 -2.2 -1.7 -4.9 -5.1 -6.2 -7.6 -2.8 -5.6 -3.9 -6.6 -7.7 -6.6 -3.3 0 -5.5 1 -7.9 3.4 -2.8 2.7 -1.9 5.7 2.9 9.7 2.7 2.3 4.5 4.6 4.5 5.9 0 1.3 2 4 4.8 6.6 7.3 6.9 10 7.6 13.7 3.6z m-49.8 -5.2 c1.4 -5.4 -1.3 -11.5 -5.8 -13.1 -4.2 -1.4 -4.2 -1.4 -6.7 0.9 -2.4 2.3 -2.9 6.8 -1.1 10.2 1.1 2.1 7.4 5.2 8.9 4.3 0.5 -0.3 1.1 -0.1 1.5 0.5 1.2 1.9 2.3 1 3.2 -2.8z m16.4 -2.3 c1.1 -2.2 0.2 -6.7 -1.9 -9.2 -0.8 -0.9 -3.3 -2.2 -5.5 -2.8 -3.3 -0.9 -4.2 -0.8 -5.8 0.7 -4 3.6 -1.9 9.6 4.3 12.4 4.5 2 7.4 1.6 8.9 -1.1z m52.7 -7.9 c1.5 0 4.2 -5.9 4.2 -9.3 0 -1.3 -1.4 -3.7 -3.4 -5.6 -2.6 -2.5 -4.2 -3.2 -7.5 -3.3 -4.9 0 -8.8 2.3 -9.7 5.9 -0.6 2.3 0 3.3 5.2 8 4.3 3.9 6.5 5.2 7.9 4.9 1.1 -0.3 2.6 -0.6 3.3 -0.6z m-58.8 -16.5 c0.7 -0.9 1.1 -3.6 0.8 -7 -0.2 -3.7 0.1 -5.6 1 -6 1.9 -0.7 1.4 -7.1 -0.8 -10.7 -1.7 -2.8 -2 -5.1 -2 -15.5 0 -11.7 0.1 -12.3 2.5 -14.7 2.2 -2.2 2.3 -2.9 1.4 -5.3 -0.5 -1.5 -1.5 -3.1 -2.1 -3.4 -2.1 -1.3 -0.8 -20.9 3.3 -48.4 1.4 -9.7 1.5 -9.8 3.8 -8.3 1.5 0.9 2.6 0.9 4.4 0.1 2.1 -1 2.6 -2.1 3.2 -7.3 0.8 -6.6 0 -8.5 -4.2 -10.1 -1.8 -0.6 -2.2 -1.4 -1.8 -3.1 0.2 -1.3 0.9 -5.2 1.5 -8.8 1.1 -6.5 5.7 -28.9 6.6 -32.2 0.6 -2.1 3.2 -2.3 6.8 -0.7 1.3 0.6 3.6 0.9 5 0.5 5.8 -1.4 3.4 -9.3 -4 -12.9 l-4.6 -2.2 0.7 -4.9 c0.3 -2.7 1.3 -6.5 2.1 -8.4 0.8 -1.9 1.4 -4.5 1.4 -5.9 0 -2.1 -0.3 -2.3 -2.2 -1.7 -1.3 0.3 -2.3 0.7 -2.4 0.8 -0.8 1.3 -4.4 11.5 -4.3 12.2 0.1 0.5 0 1.6 -0.4 2.4 -0.9 2.5 -3.1 14 -4.2 22 -0.1 0.8 -0.7 2.8 -1.4 4.3 -0.6 1.6 -0.9 3.3 -0.6 3.7 0.3 0.5 0.1 1.7 -0.4 2.7 -1.7 3.2 -3.1 9.8 -4 19.2 -0.6 5.9 -1.8 10.9 -3.2 13.9 -1.6 3.2 -2.4 6.9 -2.6 11.9 -0.1 4 -0.9 11.1 -1.8 15.7 -0.9 4.5 -1.7 10.7 -1.9 13.7 -0.2 3 -0.7 9.6 -1.1 14.7 -0.7 8.4 -1 9.3 -3 9.8 -2.2 0.5 -4.5 4.1 -4.5 6.9 0 0.8 1.5 3.2 3.4 5.3 3.1 3.4 3.4 4.3 3.6 10.7 0.4 14.3 0.3 15.4 -3.1 18.5 -2.8 2.5 -3.1 3.3 -2.6 6.6 0.4 2.3 1.9 5 3.9 7.1 2.9 3 3.2 3.9 3.1 9.1 -0.1 6.7 1.9 9.1 4.7 5.7z m19.5 -10.9 c1.6 -1.1 1.9 -2.5 1.7 -8.2 -0.2 -6.1 0.8 -20.9 2.4 -34.4 0.2 -2.5 1.2 -7.2 2 -10.5 0.9 -3.3 1.7 -8.7 1.8 -12 0.1 -3.4 0.6 -6.6 1 -7.4 0.4 -0.7 1 -3.8 1.2 -6.9 0.2 -3.1 1.3 -10.2 2.4 -15.7 3 -14.9 5 -25.3 6 -31.5 1.2 -7.3 5.5 -23.8 7.4 -28.5 2.1 -4.9 2 -8.4 -0.1 -9.2 -1.1 -0.4 -2.2 0.1 -3.2 1.7 -2.2 3.3 -5.2 11.9 -5.7 16.4 -0.4 3.9 -1.4 7.5 -4.1 15 -0.8 2.2 -1.6 6.6 -1.9 9.8 -0.2 3.3 -0.8 6.7 -1.3 7.6 -0.5 0.9 -1.6 5.8 -2.5 10.7 -1 5 -2.3 11.5 -3.1 14.5 -1.2 4.9 -4.3 26 -5 35 -0.2 1.9 -1 6.9 -1.8 11 -0.8 4.1 -1.5 10.9 -1.6 15 -0.2 8.5 -1.6 15 -3.6 16.6 -3.6 2.8 -2.2 7.9 3 11.1 2.6 1.5 2.8 1.5 5 -0.1z m30.9 -69.9 c1.8 -1.3 1.7 -1.6 -0.4 -7.4 -2.7 -7.5 -6.6 -11.6 -10.6 -11.1 -2 0.2 -3.3 1.2 -4.2 3.1 -1.8 3.7 -0.2 7.7 5 12.9 4 4 7.1 4.7 10.2 2.5z m10.4 -24.1 c1.1 -1.1 0.9 -2.1 -1 -6.1 -2.6 -5.5 -6.4 -7.6 -10.1 -5.6 -1.2 0.6 -4 1.2 -6.2 1.3 -3.4 0.3 -4 0.7 -4.3 2.8 -0.3 3.4 3.6 8 7.8 9 4.5 1.1 12.1 0.4 13.8 -1.4z m-0.8 -109.3 c4.5 -2.3 7.7 -4.8 8.9 -6.7 5.3 -9 11.7 -23 13.5 -29.6 2.3 -8.8 6 -18.3 13.6 -34.5 1.5 -3.3 4 -9 5.5 -12.5 1.5 -3.6 3.7 -8.3 5 -10.5 3.2 -5.7 9 -16.5 14.8 -27.5 5.1 -9.8 10.7 -19.6 13.8 -24.1 1 -1.5 2.5 -4.2 3.3 -6 1.6 -3.6 4.2 -8.1 6.8 -12.1 0.9 -1.3 3.5 -5.9 5.8 -10.3 7.4 -13.8 17.8 -28 21.1 -28.8 1 -0.3 1.9 -1.2 1.9 -2.1 0 -0.9 0.6 -1.6 1.4 -1.6 0.8 0 1.7 -1.2 2.1 -2.7 0.3 -1.6 2.4 -4.6 4.5 -6.8 2.2 -2.2 4.6 -5.7 5.5 -7.8 0.8 -2.1 3.6 -6.7 6 -10.3 2.5 -3.6 4.5 -6.7 4.5 -7 0 -1 11.5 -17.2 17.1 -24 7.4 -9.1 13.8 -14.4 17.2 -14.4 2.9 0 6.7 -3.5 6.7 -6.1 0 -2.4 7.5 -7.4 15.7 -10.5 6.9 -2.6 10.5 -2.3 13.4 1.2 0.6 0.8 2.9 1.4 5 1.4 3 0 4.2 -0.6 5.9 -3 2 -2.8 2.4 -2.9 8.4 -2.6 3.9 0.3 9.2 1.6 13.7 3.4 4.1 1.6 9.6 3.8 12.2 4.8 2.7 1.1 5.3 2.8 5.9 3.9 1.4 2.6 2.8 3.5 5.4 3.5 2.8 0 9.2 2.9 12.9 5.8 4.9 3.9 16.9 12.2 17.6 12.2 0.3 0 1.4 1.8 2.4 3.9 1.4 3.1 2.4 4 5.1 4.6 2.3 0.4 4.3 1.8 6.1 4.2 2.8 3.6 17.2 20.3 18.3 21.3 1.7 1.4 8.8 11.9 9.9 14.8 0.9 2.2 1.2 5.1 0.7 8.8 -0.6 5 -0.4 5.7 1.9 7.8 1.4 1.3 3.8 2.6 5.4 2.9 1.9 0.4 3.6 1.9 5.2 4.4 3 4.9 6.8 13.4 6.9 15.3 0 0.8 1 3.1 2.2 5 2.3 3.5 6 12.6 8 19 0.5 1.9 1.4 4 1.9 4.6 0.5 0.6 2.3 3.7 4 6.9 1.7 3.2 5.3 8.5 8 11.9 2.7 3.4 6.3 8.9 8 12.2 1.6 3.4 3.8 6.4 4.7 6.7 1.6 0.4 11.2 17.4 11.2 19.8 0 0.7 1.3 4.1 3 7.6 1.7 3.4 3 6.8 3 7.3 0 0.6 1.1 2.7 2.3 4.8 1.3 2 3.3 6.4 4.5 9.7 1.1 3.3 3.4 9.2 5 13.1 4.3 10.3 7.6 25.3 6.9 31.8 -0.7 7.4 1.2 12.8 4.9 13.8 4 1.1 5.1 0.5 7 -3.9 1.4 -3.3 1.5 -6.9 1 -28.2 -0.5 -21.9 -0.4 -24.6 1.1 -26.3 2.3 -2.6 5.1 -11 5.9 -17.7 0.5 -4.3 0.1 -7.4 -1.5 -12.6 -1.1 -3.9 -2.3 -8.8 -2.7 -11 -0.3 -2.2 -0.8 -4.4 -1.1 -4.8 -0.3 -0.5 -1.1 -5 -1.8 -10 -1.3 -10.3 -1 -61 0.5 -68.7 0.5 -2.9 0.3 -10 -0.5 -20 -0.8 -8.5 -1.5 -16.8 -1.5 -18.5 l-0.2 -3 -1.3 3.5 c-0.7 1.9 -1.4 3.1 -1.4 2.6 -0.5 -5 -4.5 -27 -5.6 -30.1 -0.8 -2.2 -2.9 -8.9 -4.8 -15 -2 -6 -4.9 -14.4 -6.5 -18.6 -3.5 -8.7 -12.2 -24 -16.2 -28.4 -2.5 -2.7 -9 -11.1 -19.5 -25.1 -7.6 -10 -15.7 -19.6 -22.9 -26.7 -7 -7.1 -24.1 -22 -26.1 -22.8 -0.5 -0.2 -6.5 -4.1 -13.3 -8.7 -6.8 -4.6 -14 -8.9 -16 -9.7 -2 -0.7 -5.9 -2.4 -8.7 -3.8 -7.2 -3.6 -19.3 -6.6 -30.6 -7.7 -6 -0.6 -10.9 -1.6 -12.4 -2.6 -3.1 -2 -7.7 -2 -13.3 0 -3.3 1.2 -8.5 1.6 -21.6 1.5 -9.5 0 -18 0.3 -18.9 0.7 -0.9 0.3 -1.7 0.2 -1.7 -0.4 0 -0.6 -2.6 -0.8 -6.7 -0.5 -6.4 0.5 -7 0.8 -10.9 4.8 -3.2 3.2 -5.2 4.5 -8.5 5 -2.4 0.4 -6 2 -7.9 3.5 -1.9 1.5 -5.4 3.4 -7.8 4.1 -2.4 0.7 -4.8 2.1 -5.3 3.1 -1.3 2.4 -4.5 2.3 -7.6 -0.2 -5.7 -4.4 -11.8 -0.7 -14.2 8.5 -3.1 12.2 -3.4 12.7 -13.7 23.5 -5.6 5.8 -11.5 12.1 -13.2 14 -2.5 2.8 -3.3 3.3 -4.3 2.3 -1.8 -1.8 -5 -1.6 -7.8 0.6 -2.4 1.8 -4.7 6.8 -6 13.2 -0.4 1.9 -1.5 5 -2.4 6.9 -0.9 1.8 -1.7 4 -1.7 4.8 0 0.8 -2.2 3.9 -5 6.8 -2.7 2.9 -5 5.8 -5 6.4 0 0.7 -1.3 3.2 -3 5.7 -1.6 2.4 -3 4.8 -3 5.4 0 0.5 -1.1 2 -2.5 3.3 -1.3 1.3 -3.1 3.6 -4 5.2 -1.4 2.6 -2 2.9 -6.7 2.9 -5.1 0 -5.3 0.1 -7.1 4 -1.1 2.2 -2.5 4.7 -3.2 5.5 -1.3 1.5 -3.3 9.6 -4.3 17.4 -0.2 2.3 -1.8 5.7 -3.8 8.3 -1.9 2.5 -3.4 4.9 -3.4 5.4 0 0.6 -1.6 2.9 -3.5 5.2 -3.9 4.7 -7.8 11.8 -8.8 15.9 -0.5 1.8 -1.6 3 -3.1 3.4 -5 1.2 -6.3 4.1 -6.8 14.9 -0.4 8.7 -0.9 10.8 -3.6 16.2 -1.8 3.4 -3.2 7.4 -3.2 8.7 0 1.4 -0.4 2.7 -0.9 3.1 -0.6 0.3 -1.3 2.7 -1.7 5.3 -0.3 2.6 -1.4 6.7 -2.4 9.2 -3.7 9.2 -12.1 41.7 -13.5 52 -0.4 2.7 -1.1 5.2 -1.6 5.6 -0.5 0.3 -0.9 1.4 -0.9 2.5 0 1 -1.1 2.9 -2.5 4.1 -1.4 1.2 -2.5 2.7 -2.5 3.4 0 2.8 -2.3 2.4 -6 -1 -6 -5.4 -11 -4.3 -11 2.4 0 3.2 4.5 8.5 9 10.5 3.7 1.6 4.1 1.7 6.4 0.1 2.5 -1.6 2.5 -1.6 3.1 1.8 0.4 1.8 0.4 11.6 0.1 21.7 -0.7 19 -0.8 20.3 -2.5 33 -0.6 5 -0.6 8.9 0 11.5 0.6 2.1 1.1 4.6 1.1 5.4 0.1 0.8 1.3 3.3 2.7 5.5 1.4 2.2 3 4.9 3.6 6 0.8 1.5 8.1 6.1 10.3 6.5 0.1 0 3.4 -1.6 7.2 -3.7z m36.7 -322.8 c4.4 -7.8 7 -10.9 5.7 -6.7 -1.1 3.3 -4.9 10.2 -5.6 10.2 -0.5 0 -0.8 1.1 -0.8 2.5 0 4.8 3.5 3 7.9 -4 5.3 -8.3 6.1 -10.5 7.2 -18.6 1.1 -9.1 4.4 -18.3 8.9 -24.9 2.1 -3.1 4.5 -7.1 5.5 -9 3.1 -6 16.2 -25.5 21.2 -31.6 2.7 -3.3 6.9 -8.6 9.3 -11.8 5.9 -8 15.9 -18.8 22.2 -24 6.4 -5.2 19.3 -11.5 30.9 -15 9.8 -2.9 13.9 -5.6 13.9 -9.1 0 -3.3 -3.3 -4.9 -8.8 -4.1 l-4.5 0.6 4.2 -3.3 c5 -4 7.5 -7.3 6.7 -9.2 -0.9 -2.4 -4.1 -1.7 -8.5 1.8 -6.8 5.3 -11.4 8.9 -20.4 15.7 -8.6 6.5 -29.4 26.3 -37.5 35.6 -2.3 2.7 -5.8 7.6 -7.8 10.9 -2 3.3 -5 7.6 -6.8 9.5 -5.9 6.3 -21.6 31.1 -21.6 34 0 0.9 -0.4 2 -0.9 2.6 -0.6 0.5 -5.8 10.4 -11.7 21.9 -5.8 11.6 -11.9 23.3 -13.5 26.2 -3.2 5.7 -3.6 8.3 -1.5 8.3 0.8 0 3.6 -3.8 6.3 -8.5z m-4.4 -18.2 c0.8 -1 6.9 -12.4 13.4 -25.3 13.4 -26.5 16.4 -31.6 19.2 -32.5 1.2 -0.4 1.7 -1.2 1.4 -2.4 -0.3 -1 1.1 -3.7 3.5 -6.7 3.8 -4.9 7.8 -10.6 11.7 -16.9 1.1 -1.7 4 -5.6 6.5 -8.5 2.5 -2.9 5.4 -6.6 6.5 -8.1 1.1 -1.5 5.4 -6.9 9.6 -12.1 8.1 -9.9 12.1 -17.4 11.2 -20.8 -0.4 -1.5 -1.1 -1.9 -2.7 -1.4 -2.9 0.8 -14.3 13 -22.9 24.4 -3.9 5.2 -7.4 9.7 -7.7 10 -0.3 0.3 -0.9 1.2 -1.5 2.2 -0.5 0.9 -2.9 4.4 -5.2 7.7 -2.4 3.3 -4.3 6.3 -4.3 6.7 0 0.3 -0.8 1.6 -1.7 2.9 -1 1.2 -2.4 3.1 -3 4.1 -10.8 16.4 -15.5 24 -17.9 29.4 -1.6 3.6 -3.9 8 -5.1 9.9 -1.3 1.9 -2.3 4.1 -2.3 5 0 0.9 -1.8 5.2 -4 9.5 -2.2 4.3 -4 8.5 -4 9.1 0 0.7 -1.1 3.3 -2.5 5.6 -2.4 4.3 -3.2 7.9 -1.8 9.2 1 1.1 1.9 0.8 3.6 -1z m13.4 -66.2 c1 -1.1 4.2 -8.6 7.2 -16.8 2.9 -8.1 6.4 -17 7.6 -19.8 1.3 -2.7 2.6 -6.1 3 -7.5 1.1 -3.7 5.7 -11.9 11.5 -20.5 5.4 -8 6.5 -12 3.9 -13.7 -2.8 -1.9 -6.5 1.9 -12.8 13.2 -3.4 6 -6.1 11.2 -6.1 11.5 0 0.4 -1.3 3.6 -3 7.2 -1.6 3.5 -3.3 7.6 -3.6 9.1 -0.4 1.5 -1.4 4.1 -2.4 5.7 -1 1.7 -2.7 6.8 -4 11.5 -1.2 4.7 -3.1 10.9 -4.2 13.8 -2.7 7.3 -1.2 10.7 2.9 6.3z m337.9 -1.6 c1.4 -3.5 -2.7 -14.5 -9.9 -27 -12.1 -21.3 -24.1 -35.7 -47.8 -57.5 -9.5 -8.9 -12.3 -11.2 -17.9 -15 -1.2 -0.8 -4.7 -3.5 -7.9 -6 -5.9 -4.7 -13.7 -8.8 -14.7 -7.7 -1 1 0.4 3.7 2.3 4.4 2 0.8 3.5 1.9 11.7 9.2 3.4 3 7.5 6.2 9.1 7.2 1.7 1 3.9 3.2 5 4.8 1.1 1.7 3 3.6 4.2 4.2 1.3 0.7 2.3 1.6 2.3 2 0 0.4 2.3 2.9 5.2 5.6 8.5 8 11.8 11.3 11.8 12.1 0 0.4 3.1 3.9 6.8 7.9 3.7 4 8.3 9.3 10.2 11.8 1.9 2.5 4.7 6 6.1 7.8 6.6 8.3 13 20.3 15.5 29.2 1 3.3 2.2 6.6 2.7 7.3 1.3 1.7 4.6 1.5 5.3 -0.3z m-4.2 -39.1 c0.9 -0.8 1.6 -2.1 1.6 -2.9 0 -3.4 -7.4 -17 -16.6 -30.4 -3.8 -5.6 -7.3 -11 -7.9 -11.9 -0.5 -0.9 -2.2 -3.6 -3.7 -5.9 -1.4 -2.2 -2.9 -5.2 -3.3 -6.4 -0.8 -2.3 -3.8 -7.1 -6.2 -9.7 -0.7 -0.7 -1.3 -1.9 -1.3 -2.6 0 -0.7 -3 -6.6 -6.7 -13.2 -3.8 -6.6 -7.5 -13.2 -8.3 -14.8 -0.8 -1.6 -2.3 -3.4 -3.3 -4 -3.9 -2.5 -4 4 -0.1 11.6 5.1 9.9 6.3 12.7 8 18.3 0.9 3.3 2.5 7.1 3.4 8.5 0.9 1.4 2.3 3.9 3.2 5.5 0.8 1.7 1.9 3.9 2.6 5 0.6 1.1 2.7 5.4 4.6 9.5 2 4.2 5.4 10.3 7.6 13.7 2.2 3.4 4 6.5 4 6.8 0 0.3 1.7 3.1 3.8 6.3 5.6 8.3 9.2 14.9 8.6 15.5 -0.3 0.3 -0.3 1 0.1 1.6 1 1.7 8.1 1.3 9.9 -0.5z m19 -16 c0.9 -0.3 1.6 -1.4 1.6 -2.3 0 -2.1 -6 -18.9 -9.4 -26.3 -1.4 -3.1 -2.6 -6 -2.6 -6.3 0 -0.7 -9.5 -23.2 -13.1 -31.2 -1 -2.3 -1.9 -4.5 -1.9 -4.8 0 -1.2 -6.1 -14.8 -11.2 -25 -7.6 -15 -15.3 -27.8 -21.8 -35.8 -7.8 -9.7 -10.7 -12.4 -12.1 -11 -1.4 1.4 1.1 6.2 6 11.7 2.1 2.2 4.6 5.6 5.7 7.3 1 1.8 2.2 3.3 2.6 3.3 0.4 0 0.8 0.6 0.8 1.3 0 1.5 1.6 4.6 9.1 17.7 3 5.2 6.1 11.1 6.8 13 0.8 1.9 1.9 4.2 2.6 5 1.2 1.6 3.1 5.5 5.1 10.5 3.7 9.5 8.8 21.6 10.5 25.2 1.2 2.4 2.2 4.9 2.3 5.5 0.2 0.7 0.9 2.7 1.6 4.3 4.9 11.9 6.1 15.9 5.5 19.9 -0.5 3.4 -0.2 4.8 1.9 7.9 1.4 2.1 2.6 4 2.6 4.3 0 0.9 4.4 6.4 5.1 6.4 0.4 0 1.4 -0.3 2.3 -0.6z m-16.3 -2.4 c2.5 -1.4 2.5 -1.7 -1.5 -10.2 -1.9 -4 -5.7 -12.7 -8.6 -19.3 -9.4 -21.5 -17.6 -39.1 -19.2 -41 -0.4 -0.5 -3.9 -5.7 -7.7 -11.5 -3.8 -5.8 -7.7 -11.4 -8.7 -12.5 -1.1 -1.1 -4.3 -4.8 -7.3 -8.2 -4.7 -5.5 -8.1 -7.9 -8.1 -5.5 0 1.3 4.5 8 10.6 15.9 3.4 4.3 6.8 9.2 7.7 10.9 0.9 1.7 2.2 3.6 3.1 4.3 0.8 0.7 1.8 2.5 2.1 4.1 0.3 1.6 1.3 3.4 2.1 4.1 1.2 1 10.8 19.9 13.3 26.4 0.5 1.1 1.6 3.8 2.6 6 6.8 15.3 10 22.9 12.2 29 2.2 6 3.6 8.4 5.1 8.5 0.2 0 1.2 -0.5 2.3 -1z m-270.1 -61.6 c1.8 -2 0.3 -6.1 -3 -8.6 -3.7 -2.7 -12.2 -3.5 -14 -1.3 -1.8 2.1 -0.7 3.9 4.9 8.3 4.7 3.5 10 4.3 12.1 1.6z m-4 -26.3 c1.7 -3.3 1.1 -5.1 -3.1 -9.2 -3.2 -3 -4.6 -3.8 -6.3 -3.3 -4.4 1.4 -4.8 6.1 -1 11.1 2 2.6 3.2 3.3 5.9 3.3 2.4 0 3.8 -0.6 4.5 -1.9z m13.9 -29.9 c1.5 -2.7 0.6 -10 -1.4 -12.2 -2.4 -2.7 -9 -2.8 -10.4 -0.2 -1.8 3.4 -1.6 10 0.4 12.2 2.4 2.7 10 2.8 11.4 0.2z m63.3 -80.7 c-1.1 -0.9 -2.8 -2.2 -3.7 -3.1 -1.5 -1.6 -2.1 -0.8 -0.7 1.2 1.1 1.6 5.5 4.4 6.1 3.9 0.3 -0.3 -0.5 -1.2 -1.7 -2z"/>
  <path d="M302.3 723.8 c0.3 -2.4 1 -6.8 1.6 -9.8 0.6 -3 1.6 -10.4 2.2 -16.5 1.4 -15 6.4 -43.9 9.5 -55.5 5.7 -21.4 11.6 -37 13.9 -37 1.8 0 2.8 14.3 2.9 41.6 l0.1 22 -2.6 3.5 c-3 4.1 -7.6 12.8 -9.5 18.1 -0.7 2.1 -2.4 5.3 -3.7 7.1 -1.4 1.8 -2.7 5.3 -3 7.9 -0.7 4.8 -1.9 7.7 -4.8 11.3 -0.9 1.1 -2 3 -2.4 4.3 -0.3 1.2 -1.1 2.2 -1.6 2.2 -0.5 0 -0.9 1.1 -0.9 2.5 0 1.4 -0.5 2.5 -1.1 2.5 -0.7 0 -0.9 -1.5 -0.6 -4.2z"/>
  <path d="M294 724.8 c0 -0.9 0.4 -2.8 1 -4.2 0.7 -1.8 0.6 -2.6 -0.1 -2.6 -0.7 0 -0.9 -1.3 -0.5 -3.7 0.3 -2.1 0.8 -5.1 1 -6.8 0.6 -3.6 1.8 -20.1 2 -26.5 0.1 -4.2 0.3 -4.6 3.6 -5.6 1.9 -0.7 3.7 -1 3.9 -0.8 0.3 0.3 -0.9 9.2 -4.4 32.4 -0.9 5.6 -2.5 11.6 -3.9 14.5 -1.4 2.8 -2.6 4.2 -2.6 3.3z"/>
  <path d="M730.5 678.5 c-0.4 -1.1 -1.3 -3.5 -2.1 -5.3 -1.8 -4.2 -1.8 -4.2 0.6 -4.2 3.3 0 5.3 6.4 3 10 -0.7 1.2 -1 1.1 -1.5 -0.5z"/>
  <path d="M296.1 671 c-0.1 -2.5 0.8 -6.7 1.9 -9.5 l2.1 -5 -0.5 5.6 c-0.3 3 -1.2 7.3 -2 9.5 l-1.5 3.9 0 -4.5z"/>
  <path d="M302.3 665.3 c-1 -2 -0.9 -2.8 0.2 -4 0.8 -0.8 1.5 -2 1.5 -2.6 0 -0.7 -0.4 -0.6 -1 0.3 -0.8 1.2 -1 1.1 -1 -0.7 0 -1.5 0.6 -2.3 1.6 -2.3 1.3 0 1.5 -0.7 1.2 -3.1 -0.3 -2 0.6 -6.3 2.3 -11.3 1.6 -4.5 2.8 -9.1 2.9 -10.3 0 -1.2 0.5 -2.5 1.1 -2.9 0.7 -0.4 1 0.4 0.8 2.2 -0.2 1.6 0 3.5 0.5 4.2 0.9 1.4 -0.2 7.2 -1.3 7.2 -0.5 0 -1.1 2.4 -1.4 5.3 -0.9 8.2 -3.8 19.5 -5.1 20 -0.6 0.3 -1.7 -0.7 -2.3 -2z"/>
  <path d="M720.3 656.9 c-0.6 -1.3 -1.7 -4.2 -2.3 -6.4 -0.7 -2.2 -2.5 -6.1 -4.1 -8.7 -1.6 -2.6 -3.1 -5.9 -3.5 -7.3 -0.3 -1.4 -1 -2.8 -1.5 -3.1 -1.4 -0.8 -1.1 -2.4 0.5 -2.4 0.8 0 2.2 -0.7 3.1 -1.6 1.5 -1.5 1.7 -1.5 3 0.2 0.8 1.1 2.3 5.2 3.4 9.1 1.5 5.7 1.7 8.1 1 10.9 -0.8 2.8 -0.7 4.1 0.6 6 0.9 1.4 1.5 3.2 1.3 4.1 -0.2 1.2 -0.6 1 -1.5 -0.8z"/>
  <path d="M347.6 634.8 c0.2 -2.4 0.6 -7.2 0.9 -10.8 0.3 -3.6 0.8 -9.3 1 -12.8 0.2 -3.4 1.1 -8.6 2 -11.4 0.8 -2.8 1.5 -6.8 1.5 -8.7 0 -2 0.7 -6.1 1.5 -9.1 0.8 -3 2.2 -8.9 3.1 -13 0.8 -4.1 2.4 -9.3 3.4 -11.5 1 -2.2 2.3 -5.3 2.9 -6.9 0.7 -1.6 1.6 -2.5 2 -2 1.1 1.2 4.3 12.2 4.6 15.5 0.1 1.5 0.6 4 1.2 5.5 1.4 3.9 3.1 10.2 3.7 14.2 0.5 2.7 -0.3 5 -3.8 11.5 -5.8 11 -8.8 16.1 -10 16.9 -0.6 0.4 -0.8 1 -0.4 1.3 0.9 0.9 -3.6 10.3 -6.1 12.6 -1.2 1.1 -2.1 2.7 -2.1 3.7 0 0.9 -0.9 2.8 -2 4.2 -1.1 1.4 -2 3.1 -2 3.8 0 0.6 -0.4 1.2 -0.8 1.2 -0.5 0 -0.7 -1.9 -0.6 -4.2z"/>
  <path d="M723 625 c-0.9 -1.8 -0.9 -2.8 0.1 -4.6 1.6 -3.1 2.5 -3 3.3 0.1 0.4 1.6 0.1 3.4 -0.8 4.6 l-1.4 2.1 -1.2 -2.2z"/>
  <path d="M315 624 c0 -2.5 1.2 -6.7 4.8 -16.8 2.2 -6.1 3.7 -8 2.9 -3.7 -0.9 5.2 -7.7 23.1 -7.7 20.5z"/>
  <path d="M707 613.9 c0 -1.6 0.4 -2.8 0.9 -2.5 0.8 0.5 0.3 5.6 -0.5 5.6 -0.2 0 -0.4 -1.4 -0.4 -3.1z"/>
  <path d="M687.8 604.3 c-7.6 -13.8 -11.1 -20.9 -12.8 -25.8 -1 -2.7 -4.1 -10.3 -6.9 -16.9 -2.9 -6.5 -5 -12.1 -4.6 -12.4 0.3 -0.3 2.7 -0.5 5.4 -0.3 4.7 0.2 6.6 -0.5 15.6 -5.9 1.7 -1 5.6 -2.7 8.8 -3.9 5.3 -1.8 5.9 -1.8 6.4 -0.4 0.4 0.9 -0.1 3.8 -1 6.4 -2 5.6 -2.2 10.3 -0.4 11.7 1 0.8 1.1 2.6 0.6 6.9 -1.1 9 -2.9 26.8 -3.7 37.3 -0.9 12.1 -2.3 12.7 -7.4 3.3z"/>
  <path d="M388.1 561.8 c-0.1 -1.5 0.4 -3 0.9 -3.3 0.6 -0.3 1 -3.6 1 -7.3 0 -3.7 1 -10.3 2.1 -14.7 1.1 -4.4 2.7 -10.5 3.4 -13.5 3.4 -14.5 10.6 -32.7 13.6 -34.6 1.9 -1.1 15 13.2 17.1 18.7 0.8 2.1 -7.5 14.5 -12.7 19 -2.2 1.9 -4.2 3.7 -4.3 4.2 -0.2 0.4 -1.1 1.4 -1.9 2.3 -1.5 1.4 -3.5 4.9 -9.7 16.9 -1.4 2.8 -3.6 6.4 -4.9 8.1 -1.2 1.8 -2.7 4 -3.4 5 -1.1 1.7 -1.2 1.7 -1.2 -0.8z"/>
  <path d="M325.6 548.8 c-0.8 -1.8 0.9 -5.8 2.6 -5.8 0.7 0 0.7 0.4 0 1.3 -0.5 0.6 -1.2 2.3 -1.4 3.7 -0.4 2 -0.6 2.2 -1.2 0.8z"/>
  <path d="M337.1 530.9 c-3 -1.7 -5.6 -3.1 -5.8 -3.3 -0.3 -0.3 4.4 -10.3 8.3 -17.5 1.4 -2.7 2.5 -3.8 2.8 -3 0.8 2.4 1.3 19.2 0.7 23 l-0.6 3.7 -5.4 -2.9z"/>
  <path d="M658.4 530.6 c-0.7 -2.9 0.1 -4.6 2.2 -4.6 1.4 0 1.9 2.6 0.8 5.4 -0.9 2.3 -2.3 1.9 -3 -0.8z"/>
  <path d="M685 521.2 c0 -0.5 1.4 -3 3.1 -5.6 2.5 -3.7 3.4 -4.4 4.5 -3.5 2 1.6 1.8 2.2 -1.9 6.3 -3.1 3.4 -5.7 4.6 -5.7 2.8z"/>
  <path d="M637 506.3 c-9.1 -9.6 -19 -21.1 -19 -22.2 0 -1.8 8.3 -14 14.9 -21.9 3.6 -4.3 6.6 -7.9 6.8 -8.1 0.9 -1.2 1.4 1.6 1.9 10 0.2 5.2 1 10.6 1.6 12.2 1.1 2.8 0.6 18.6 -1 29.5 l-0.7 5.3 -4.5 -4.8z"/>
  <path d="M679 507.8 c0 -6.3 17 -44 20.1 -44.6 1.1 -0.2 2 1 2.8 4 0.8 2.4 1.7 5.4 2.2 6.8 0.4 1.4 1.1 4.4 1.4 6.8 0.7 4.1 0.5 4.4 -4.2 9 -2.8 2.6 -6.7 6.1 -8.9 7.7 -2.1 1.7 -5.6 4.9 -7.8 7.3 -4 4.3 -5.6 5.2 -5.6 3z"/>
  <path d="M385.9 484.3 c-2 -2.1 -6.4 -7.3 -9.9 -11.6 l-6.2 -7.8 2.7 -5.2 c2.2 -4.1 13.4 -21.6 15.2 -23.7 0.2 -0.2 0.9 0.2 1.4 1 0.6 0.9 0.7 4.5 0.4 8.6 -0.4 4 -0.2 9.8 0.4 13 0.5 3.3 1.2 11.2 1.5 17.7 0.6 13.3 0.2 14 -5.5 8z"/>
  <path d="M441.4 477 c0.4 -12.4 1.5 -19.9 4.2 -27 0.9 -2.5 2.3 -7 3 -10 1.5 -5.4 4.8 -13.3 6.7 -15.8 1.4 -1.8 6.8 7.1 9.7 16 1.2 4 2.9 8.5 3.6 10 0.8 1.4 1.4 3.4 1.4 4.5 0 1 -4.2 6.1 -9.2 11.4 -12.4 12.6 -17.2 18 -18.6 20.4 -0.9 1.6 -1 -0.5 -0.8 -9.5z"/>
  <path d="M359 481.5 c0 -1.9 3.6 -3.9 4.5 -2.5 0.8 1.3 -1.3 4 -3.1 4 -0.8 0 -1.4 -0.7 -1.4 -1.5z"/>
  <path d="M662.5 476 c-0.5 -0.8 -0.6 -9.6 -0.1 -18.6 0.1 -2.7 5.8 -11.6 10.3 -16.2 0.7 -0.7 1.3 -2 1.3 -2.8 0 -2.5 -3.1 -1.5 -6.8 2.2 l-3.5 3.5 0.7 -8.8 c1.7 -22.3 2.2 -25.4 4.1 -24.6 0.8 0.3 1.5 1.2 1.5 1.9 0 0.8 1.5 4.2 3.3 7.5 1.7 3.3 4.2 7.9 5.4 10.2 2.3 4.4 2.9 8.7 1.4 10.3 -0.5 0.5 -1.2 2.4 -1.4 4.2 -0.5 3 -3.2 10.4 -7.4 20 -1.5 3.4 -7.1 12.2 -7.8 12.2 -0.2 0 -0.7 -0.4 -1 -1z"/>
  <path d="M593 464.5 c-0.7 -0.8 -3.9 -2.7 -7.1 -4.1 -8.4 -3.8 -8.5 -4.1 -5.3 -12.1 1.5 -3.7 3.5 -8.1 4.5 -9.8 1 -1.6 3.3 -5.8 5 -9.2 1.8 -3.4 3.6 -6 4 -5.7 0.4 0.2 0.7 3.6 0.7 7.6 -0.1 4 0.5 10.2 1.1 13.7 1.3 6.5 0.6 21.1 -0.9 21.1 -0.4 0 -1.3 -0.7 -2 -1.5z"/>
  <path d="M552.5 443.8 c-5.8 -2.3 -9.6 -3.4 -14.5 -4.2 -5.9 -1 -6.1 -1.4 -4.5 -8.4 0.8 -3.4 1.9 -7 2.4 -7.9 0.6 -1 2.6 -6.6 4.5 -12.5 1.9 -5.9 4.3 -12.2 5.3 -14 l1.8 -3.3 0.5 7.5 c0.4 4.1 1.2 8.5 1.9 9.8 0.6 1.2 1.3 4.2 1.5 6.5 0.3 4.3 1 7 2.7 9.7 0.9 1.5 1.8 3.5 4.5 9.8 1.8 4.1 1.8 9.2 0.2 9.1 -0.7 0 -3.5 -1 -6.3 -2.1z"/>
  <path d="M489.4 440.5 c0.3 -0.8 0.8 -3.8 1.2 -6.7 0.3 -2.9 1 -6.8 1.6 -8.6 l1 -3.4 2.4 2.3 c1.3 1.2 3.2 4.7 4.1 7.6 1.9 6.1 1.4 7.2 -4.6 9.2 -4.7 1.5 -6.4 1.4 -5.7 -0.4z"/>
  <path d="M422.6 435.6 c-1.4 -2.4 -2.6 -5.2 -2.6 -6.2 0 -1 -0.6 -2.5 -1.4 -3.3 -1.2 -1.4 -7.6 -18.1 -7.6 -20 0 -1.7 17.6 -20.1 19.2 -20.1 1 0 1.8 5.2 1.3 9.5 -0.7 6.4 -2.5 16.6 -3 17.6 -0.4 0.5 -0.8 6.4 -1.1 13.1 -0.3 6.8 -0.9 12.7 -1.4 13.1 -0.4 0.5 -1.9 -1.2 -3.4 -3.7z"/>
  <path d="M571.7 439.3 c-1.9 -1.9 0.9 -6.2 4 -6.3 0.9 0 0.8 1 -0.4 3.5 -1.7 3.5 -2.4 4.1 -3.6 2.8z"/>
  <path d="M624.1 424.8 c-0.5 -1.8 -1.3 -6.2 -1.6 -9.8 -0.4 -3.6 -1.5 -12.3 -2.6 -19.4 -2.3 -15.3 -2.4 -25 -0.5 -30.8 0.8 -2.4 1.6 -5.6 1.8 -7.3 0.3 -2.9 0.6 -2.7 13.7 10.2 l13.4 13.2 -1.6 5.1 c-0.9 2.9 -1.7 6.3 -1.7 7.6 0 4.2 -2.8 9.4 -6 11.2 -1.7 0.9 -3.3 2.8 -3.6 4.2 -3.3 15 -5 19 -8.3 19 -1.3 0 -2.3 -1.1 -3 -3.2z"/>
  <path d="M438.1 423.5 c0 -3.5 0.2 -3.7 1.1 -1.9 0.7 1.5 0.7 2.8 -0.1 4 -0.9 1.6 -1 1.2 -1 -2.1z"/>
  <path d="M581.9 413.4 c-1 -2.9 -4.1 -22.1 -6.4 -40.3 -0.8 -6.3 -1.7 -12.1 -1.9 -13 -0.3 -0.9 -0.7 -4 -1 -6.9 -0.3 -2.8 -1.3 -6.8 -2.1 -8.8 -2.4 -5.9 -2.2 -6.4 3.8 -5.9 17.2 1.3 26.8 3.5 29.4 6.7 3 3.7 -2.1 26.6 -12.6 55.8 -1.9 5.4 -6.9 15 -7.7 15 -0.3 0 -0.9 -1.2 -1.5 -2.6z"/>
  <path d="M476.4 408.3 c-0.4 -1.6 -1.7 -6.4 -3.1 -10.8 -1.3 -4.4 -3.5 -11.8 -4.9 -16.5 -1.4 -4.7 -3.4 -10.9 -4.5 -13.8 -2.4 -6.7 -2.4 -9.1 -0.1 -10.8 3.1 -2.5 14.2 -8.5 16.2 -8.9 1.1 -0.2 3 -1.1 4.2 -1.9 3.2 -2.3 4.4 -2 5.6 1.2 2.4 5.8 1.2 32.7 -1.5 37.1 -0.8 1.3 -1.3 3.4 -1 4.7 0.2 1.4 -0.6 4.4 -1.9 7.1 -1.3 2.5 -2.4 5.7 -2.4 7 0 3.3 -2.7 8.3 -4.5 8.3 -0.8 0 -1.7 -1.2 -2.1 -2.7z"/>
  <path d="M600 397.2 c0 -1.4 2.5 -6.2 3.2 -6.2 0.3 0 0.1 1.6 -0.5 3.5 -0.9 3.1 -2.7 4.9 -2.7 2.7z"/>
  <path d="M443.1 391 c0 -0.8 0.4 -2.4 0.9 -3.5 l0.9 -2 0 2 c0 1.1 -0.4 2.7 -0.9 3.5 -0.9 1.3 -1 1.3 -0.9 0z"/>
  <path d="M522.6 385.8 c-0.6 -1.8 -1.6 -7.4 -2.1 -12.3 -0.5 -4.1 -2.9 -16 -4.6 -22.6 -0.5 -2 -0.9 -5.7 -0.9 -8.2 0 -5.3 0.3 -5.4 12.3 -5.7 8.9 -0.1 10.7 0.8 10.7 5.3 0 4.7 -3 15.6 -5.6 20.5 -1.5 2.7 -2.4 6.2 -2.4 8.8 0 2.4 -0.4 4.6 -1 4.9 -0.5 0.3 -1.6 2.7 -2.3 5.2 -1.4 4.7 -3.3 6.6 -4.1 4.1z"/>
  <path d="M194.2 1066.1 l0.3 -5.2 2 2.5 c1.1 1.4 3.5 3.1 5.3 3.7 4.2 1.4 3.1 2.7 -3.1 3.5 l-4.8 0.7 0.3 -5.2z"/>
  <path d="M94.2 1050.5 c-2.4 -5.2 -0.9 -8.5 3.9 -8.5 2.9 0 4.3 1.2 5.4 4.8 1.6 5.4 -7 8.8 -9.3 3.7z"/>
  <path d="M929.5 1009.6 c-4 -1.7 -10.3 -8.8 -12.7 -14.3 -2.5 -5.7 -2.6 -16.8 -0.2 -21.9 1.3 -2.8 2.9 -4.1 6.6 -5.7 3.7 -1.5 5.4 -2.9 6.9 -5.9 2.2 -4.3 2.3 -4.4 7.3 -2.3 5.6 2.4 6.7 5 7.7 18.4 0.5 6.5 1.6 13.5 2.4 15.4 1.8 4.3 0.8 7.7 -3.3 12 -5.2 5.5 -9.3 6.7 -14.7 4.3z"/>
  <path d="M182.1 965 c-0.3 -8.5 5.6 -33 8 -33 0.4 0 0.3 1.5 -0.2 3.3 -0.6 1.7 -1.4 5.7 -1.9 8.7 -0.4 3 -1.5 8.2 -2.5 11.5 -0.9 3.3 -2 7.4 -2.5 9 -0.7 2.8 -0.8 2.8 -0.9 0.5z"/>
  <path d="M104.6 939.9 c-1.7 -1.3 -2.6 -3 -2.6 -4.7 0.1 -4 6.2 -13.6 8.8 -14 2 -0.3 2.2 0.1 2.2 3.7 0 2.3 0.5 4.1 1.1 4.1 0.6 0 0.8 -0.8 0.4 -1.9 -0.8 -2.7 4 -6.4 6.6 -5 1 0.5 1.9 1.6 1.9 2.4 0 0.9 0.5 2.4 1.2 3.4 1.9 3.1 -2.3 10.5 -7.3 12.5 -5.3 2.2 -9.1 2 -12.3 -0.5z"/>
  <path d="M894.6 934.2 c-0.8 -1.5 -1.8 -6 -2.1 -10 -0.7 -6.1 -0.5 -7.3 0.9 -7.8 0.9 -0.3 1.6 -1.6 1.6 -2.9 0 -1.2 0.9 -3 2 -4 1.7 -1.5 2.4 -1.6 5 -0.5 4.8 2 7 5.5 7 11.4 0 4.5 -0.5 5.7 -4.5 10.9 -5.1 6.4 -7.7 7.2 -9.9 2.9z"/>
  <path d="M960.2 933.9 c-10.7 -5.3 -12.7 -16.8 -6 -33.1 1.9 -4.5 2.2 -4.7 7.6 -5.9 7.4 -1.5 13.3 -0.6 21.2 3.4 11.5 5.7 13.9 13.1 7.5 22.7 -1.9 2.9 -3.5 5.6 -3.5 6.1 0 0.5 -2.4 2.5 -5.4 4.5 -7.1 4.7 -14.9 5.5 -21.4 2.3z"/>
  <path d="M929 870 c-1.1 -1.1 -2 -3.3 -2 -4.9 0 -2.3 0.7 -3.2 3.5 -4.6 4.7 -2.2 6.9 -1.6 7.3 1.7 0.4 3.5 -3.4 9.7 -6 9.8 -0.5 0 -1.7 -0.9 -2.8 -2z"/>
  <path d="M881 862.5 c-1.7 -2 -2.4 -29.2 -0.8 -30.1 1.9 -1.2 8.7 -0.5 11.8 1.1 7 3.6 6.8 12.3 -0.6 22.1 -1.3 1.7 -2.4 3.5 -2.4 4.1 0 0.8 -2.2 2.2 -6.1 4 -0.4 0.1 -1.2 -0.4 -1.9 -1.2z"/>
  <path d="M160.3 807.3 c-3.4 -3.2 -5.8 -10.1 -4.7 -13.6 1.6 -5.2 10.4 -13.5 10.4 -9.7 0 0.5 2 0.7 4.8 0.3 7.2 -0.8 9.2 0.6 9.2 6.6 0 2.7 -0.6 6.4 -1.4 8.2 -2.1 4.9 -7.6 9.9 -11.7 10.5 -2.9 0.5 -4 0.1 -6.6 -2.3z"/>
  <path d="M896.8 795 c-5.1 -3 -7.1 -11.4 -5 -21 0.6 -2.5 1.7 -7.7 2.5 -11.6 0.8 -3.9 1.7 -7.7 2.2 -8.3 2.4 -4 12.9 -3.6 17.1 0.6 7.2 7.2 8.3 17.3 3 27.9 -3.9 7.8 -6.6 11.1 -10.3 12.5 -3.1 1.2 -7.3 1.1 -9.5 -0.1z"/>
  <path d="M868.7 694.6 c-4.6 -1.7 -7.7 -4.3 -7.7 -6.5 0.1 -2.7 3.3 -7.6 7.3 -11.1 3.1 -2.7 4.2 -3.1 7 -2.6 3.4 0.6 6.5 3.3 8.6 7.3 1.8 3.6 -1.8 10.8 -6.5 12.8 -4.3 1.8 -3.9 1.8 -8.7 0.1z"/>
  <path d="M301.4 410.8 c-0.4 -0.7 -1 -4.6 -1.2 -8.8 -0.5 -8.4 1.3 -17.2 5.1 -24.9 2.1 -4.1 2.7 -4.6 6 -4.9 2 -0.2 3.7 -0.1 3.7 0.2 0 0.3 -0.8 3.4 -1.9 6.8 -2.8 9.5 -5.1 19.9 -5.2 23.8 -0.2 5.6 -1.3 8.3 -3.6 8.6 -1.2 0.2 -2.5 -0.2 -2.9 -0.8z"/>
  <path d="M739.3 376.8 c-3.7 -1.8 -7.6 -15.9 -8.9 -31.7 -0.4 -5.6 -0.3 -6.3 1.1 -5.7 0.9 0.3 2.3 0.6 3 0.6 1.6 0 7.5 9.3 7.5 11.9 0 1 0.9 2.6 1.9 3.5 1.4 1.3 1.8 2.7 1.5 5.4 -0.2 2 -0.4 5.9 -0.5 8.5 -0.3 6.1 -2.4 9 -5.6 7.5z"/>
  <path d="M725 327 c0 -0.7 2.4 -2 3.6 -2 1.3 0 0.1 1.9 -1.6 2.3 -1.1 0.3 -2 0.2 -2 -0.3z"/>
 </g>
</svg>