<?xml version="1.0" encoding="utf-8"?>
<!DOCTYPE svg PUBLIC "-//W3C//DTD SVG 20010904//EN" "http://www.w3.org/TR/2001/REC-SVG-20010904/DTD/svg10.dtd">
<svg version="1.0" xmlns="http://www.w3.org/2000/svg" width="773px" height="740px" viewBox="0 0 773 740" preserveAspectRatio="xMidYMid meet">
 <g fill="#000000">
  <path d="M326 685.7 c-0.3 -0.3 -5.2 -1 -11 -1.6 -22 -2.4 -34 -6.6 -45 -15.6 -7.3 -6.1 -7.9 -6.9 -9 -11.9 -1.4 -6.8 -0.7 -8.6 3.5 -8.6 1.9 0 3.7 -0.5 4 -1 0.3 -0.6 3.2 -2.7 6.3 -4.9 3.1 -2.1 8 -5.9 10.9 -8.5 4.7 -4.2 5.3 -4.5 7.7 -3.5 1.9 0.9 3.9 0.9 8.3 0 7.6 -1.6 19.3 -0.7 26.8 2 4.8 1.7 8.8 2.2 20 2.5 7.7 0.2 14.5 0.6 15.2 0.8 0.6 0.3 3.5 -0.2 6.5 -1 2.9 -0.7 7.2 -1.4 9.6 -1.4 2.3 0 6.8 -0.9 9.9 -2 3.2 -1.1 6.7 -2 8 -2 1.2 0 6.7 -1.9 12 -4.3 5.4 -2.4 11.2 -4.7 12.8 -5.1 1.7 -0.4 6 -2.7 9.6 -5.1 4.3 -2.9 7.3 -4.2 8.6 -3.9 1.4 0.4 3.2 -0.5 5.6 -2.5 1.9 -1.7 4 -3.1 4.6 -3.1 0.6 0 1.8 1.7 2.7 3.9 1.7 4.4 13 15.5 16.7 16.5 6.2 1.5 2.5 6.8 -11.7 16.8 -6.2 4.3 -50.1 26.8 -52.4 26.8 -0.7 0 -5 1.5 -9.5 3.4 -11.1 4.7 -27.5 9.6 -31.8 9.6 -1.9 0 -5.8 0.6 -8.5 1.4 -4.8 1.4 -29.4 3.3 -30.4 2.3z m47 -21.3 c9.4 -1.6 19 -4.2 20.5 -5.5 0.5 -0.5 1.7 -0.9 2.8 -0.9 2.6 0 16.7 -4.9 19.6 -6.9 1.4 -0.9 7.2 -3.7 13 -6.3 5.8 -2.6 9.6 -4.8 8.4 -4.8 -2.6 0 -3.8 -1.9 -4.8 -7.7 -0.4 -2.4 -1.2 -4.3 -1.8 -4.3 -0.7 0 -6.6 2.5 -13.1 5.5 -36.5 16.8 -67.8 20.4 -101 11.6 l-7.9 -2.1 -2.2 2 c-1.2 1.1 -3.1 2 -4.3 2 -3.6 0 -2.6 2.8 1.1 3.2 3.1 0.3 3.2 0.4 3.2 5.3 l0 5 4.5 1.2 c6.6 1.8 7.7 1.7 5.7 -0.5 -1.8 -2 -2.2 -6.8 -0.8 -9 0.5 -0.9 2.5 -1.2 5.7 -1 l4.9 0.3 -0.1 4 c0 2.2 -0.2 4.9 -0.5 5.9 -0.5 2.6 3 3.5 17.4 4.5 12.3 0.9 17 0.7 29.7 -1.5z"/>
  <path d="M201.2 674.8 c-2.3 -1 -4.9 -3 -5.8 -4.4 -2 -3 -3.1 -14.8 -1.5 -15.8 0.6 -0.4 1.1 -1.9 1.1 -3.3 0 -1.4 0.7 -6.2 1.6 -10.6 0.9 -4.5 1.4 -10.3 1.1 -13.6 -0.4 -4.7 0 -6.5 2.4 -11.3 1.6 -3.1 3.3 -7.8 3.9 -10.5 2.6 -11.4 4.3 -22.3 4.5 -28.5 0.1 -4.1 0.8 -7.7 1.8 -9.1 0.8 -1.3 1.7 -4.4 2 -6.8 0.4 -4 2.3 -12.9 4.7 -21.9 0.5 -1.9 1.4 -6 2.1 -9 0.7 -3 2.2 -6.7 3.4 -8.2 1.7 -1.9 2.6 -5 3.4 -11 2.3 -17.4 2.8 -24.3 2 -26 -1.4 -2.6 -1 -11 0.6 -13.8 1.9 -3.3 1.9 -8 0 -8 -0.8 0 -1.9 -0.9 -2.5 -2.1 -0.9 -1.6 -0.8 -2.6 0.5 -4.5 1.4 -2.2 2.1 -2.4 4.8 -1.8 1.8 0.4 6.1 0.7 9.7 0.6 4.1 0 7.8 0.5 9.9 1.6 3.8 1.7 7.6 1.8 13.1 0 5.5 -1.7 8 -3 8 -4.3 0 -0.6 1.4 -1.9 3.1 -2.9 3.6 -2.1 7.2 -1.5 10.9 1.8 1.4 1.3 5 3.2 8 4.1 6.2 2 35.3 13.7 43.5 17.4 3.9 1.8 14 5.4 17.5 6.2 9.5 2.2 12.6 3.1 14.1 4.5 1.5 1.4 2.5 1.4 8.8 0.1 4.4 -0.9 8.2 -2.4 9.9 -3.9 1.6 -1.3 6.3 -3.4 10.5 -4.7 4.1 -1.2 8.1 -2.9 8.7 -3.7 0.7 -0.8 1.9 -1.4 2.8 -1.4 0.8 0 2.9 -0.9 4.7 -2 1.8 -1.1 5.1 -2.7 7.4 -3.5 2.3 -0.8 5.6 -2.1 7.4 -2.9 8.7 -3.9 13.1 -5.6 14.7 -5.6 0.9 0 3.7 -1.1 6.2 -2.4 2.4 -1.3 5.3 -2.3 6.4 -2.2 2.6 0.1 8.4 3.7 8.4 5.2 0 0.6 2.4 1.4 5.8 1.7 3.1 0.3 9.6 1.1 14.4 1.7 6.2 0.8 9.3 0.8 10.7 0.1 1.1 -0.6 4.5 -1.1 7.5 -1.1 3.1 0 7.6 -0.5 10.1 -1.2 4.1 -1.1 4.6 -1 5.9 0.7 0.9 1.3 1.1 2.4 0.5 3 -1.7 1.7 -0.9 7.7 2.5 17.8 1.9 5.6 4.8 14.9 6.6 20.7 1.8 5.8 5.4 16.1 8.1 22.9 3.2 8.1 5.2 15.1 5.9 20.5 0.6 4.4 2.3 12.6 3.7 18.1 1.4 5.5 3.1 13.8 3.8 18.5 2 12.8 2.4 14.6 4.5 20 3.1 7.9 10.6 37.8 10.2 40.6 -0.2 0.9 1.5 8.8 5.4 24.7 0.9 3.7 1.3 7.1 0.9 7.5 -1.4 1.5 -9.6 0.5 -12.3 -1.5 -1.5 -1.1 -3.9 -2.3 -5.3 -2.6 -1.4 -0.4 -4.1 -1.7 -6 -3 -1.9 -1.2 -5.2 -3.1 -7.4 -4.1 -7.5 -3.5 -33.3 -21.2 -42 -28.9 -10.4 -9.1 -17.2 -14.7 -17.9 -14.7 -1 0 -20.8 -14.3 -29.9 -21.6 -4.3 -3.5 -11.3 -8.4 -15.5 -11 -15.9 -9.6 -24 -15.6 -33.3 -24.6 -11.7 -11.4 -13.4 -12.8 -15.8 -12.8 -1.1 0 -6.3 2.9 -11.7 6.5 -5.4 3.6 -10.4 6.5 -11.1 6.5 -0.6 0 -2.6 2 -4.2 4.4 -2.6 3.8 -16.8 15.9 -29.6 25.2 -2.2 1.6 -6 4.5 -8.5 6.5 -2.5 2 -8.3 6.3 -13 9.5 -4.7 3.2 -9.3 6.6 -10.3 7.5 -1 0.9 -5 3.6 -8.9 6 -3.9 2.4 -12.1 7.7 -18 11.7 -6 3.9 -11.4 7.2 -11.9 7.2 -1.9 0 -18.3 12.3 -26.4 19.9 -8.4 7.7 -18.9 15.1 -24 16.8 -2.3 0.8 -3.9 0.6 -7.3 -0.9z m6.9 -11.4 c0.7 -0.9 3.6 -2.6 6.4 -3.9 2.7 -1.2 5.9 -3.3 7 -4.6 6.5 -7.7 8.5 -10.6 8.5 -12.6 0 -1.5 1.1 -2.8 3.3 -3.9 1.7 -0.9 5.6 -3.4 8.6 -5.5 3 -2.2 6.2 -3.9 7.1 -3.9 2.4 0 7.7 -2.8 9.2 -4.8 2 -2.6 5.6 -5.2 30 -21.9 1.8 -1.3 4.8 -3.5 6.7 -5 1.8 -1.6 6 -4.3 9.3 -6.1 3.3 -1.8 8.3 -5.6 11.2 -8.5 5.8 -5.8 13.9 -12.7 16.4 -14.1 0.9 -0.5 2 -1.4 2.3 -1.9 2.2 -3.3 8 -9.9 12.3 -14 4.7 -4.4 5.5 -4.8 9.6 -4.6 4.7 0.2 8 -1.1 15.9 -6.4 2.2 -1.5 4.1 -3.2 4.1 -3.7 0 -0.5 1.5 -1.7 3.3 -2.6 1.7 -0.9 4.1 -2.4 5.2 -3.4 1.1 -1 4.7 -3.3 8 -5 3.3 -1.8 9.1 -5.3 12.8 -7.9 3.8 -2.5 9.7 -6.2 13.2 -8.1 3.5 -1.9 7.2 -4.2 8.2 -5.2 3.1 -2.8 11.6 -8.7 15.8 -10.9 5.6 -3 25.4 -16.2 28.8 -19.2 1.6 -1.4 3.8 -3.2 5 -4 2 -1.3 1.6 -1.5 -5.7 -2.6 -5.4 -0.8 -8.8 -0.8 -11 -0.1 -1.7 0.5 -6.8 2.1 -11.4 3.5 -4.6 1.4 -10.4 3.5 -13 4.6 -2.6 1.2 -7.2 3.2 -10.2 4.6 -23.8 10.7 -27.3 12.8 -38.5 23.3 -3.3 3.1 -8.5 7.5 -11.5 9.7 -3 2.2 -6.6 5.3 -8 6.7 -1.3 1.5 -4.7 4 -7.5 5.6 -7.1 4.1 -27.9 20 -35 26.9 -3.3 3.1 -8.7 7.7 -12 10 -3.3 2.4 -9.6 7.8 -14 12.1 -4.4 4.2 -9.6 8.9 -11.5 10.5 -1.9 1.5 -8.2 7.1 -13.9 12.4 -9.6 8.9 -13.1 12.4 -26.8 26.8 -5 5.3 -5.3 5.4 -9.9 5.1 -5.2 -0.3 -5.1 -0.2 -7.1 -10 -0.3 -1.4 0.7 -8.6 2.1 -16 2.9 -15.1 4.5 -29.4 5.3 -48.3 0.3 -7.1 0.9 -13.5 1.4 -14 0.4 -0.6 1.3 -3.3 1.9 -6 0.6 -2.7 2.4 -7.7 4.1 -11.1 1.6 -3.4 2.9 -6.5 2.9 -6.8 0 -0.3 -1.1 -0.6 -2.5 -0.6 -1.4 0 -2.5 -0.6 -2.5 -1.3 0 -0.9 -1.2 -1.1 -4 -0.9 -3 0.3 -4 0.8 -4 2.2 0 4.7 -2.3 23 -3.5 28.3 -0.7 3.2 -2 6.6 -2.9 7.6 -0.8 0.9 -2 3.9 -2.6 6.6 -0.6 2.8 -1.7 6.4 -2.5 8.1 -0.8 1.8 -2.2 8.4 -3 14.8 -1.9 14.6 -3.8 23.6 -7 33.4 -1.4 4.2 -2.5 9 -2.6 10.7 0 1.6 -1.3 10.4 -2.8 19.5 -1.6 9.1 -2.6 16.8 -2.4 17.3 0.7 1.1 2 0.8 3.4 -0.9z m348.6 -10.6 c-0.3 -1.3 -1.3 -4.8 -2.1 -7.8 -0.9 -3 -1.6 -7.5 -1.6 -10.1 0 -2.5 -0.9 -7.4 -2 -10.8 -1.2 -3.4 -2.5 -8.1 -2.9 -10.4 -0.5 -2.3 -2 -8.9 -3.4 -14.7 -1.5 -5.8 -3.1 -13.4 -3.8 -17 -6.9 -37.6 -9.1 -47.8 -11.8 -54.9 -3.1 -8.2 -5 -13.6 -12.1 -35.1 -1.8 -5.2 -3.4 -10.7 -3.7 -12.2 -0.4 -2.4 -1 -2.8 -3.8 -2.8 -5.5 0 -6.5 -0.8 -6.5 -5.1 l0 -3.9 -4.7 0.1 c-4.5 0.1 -4.7 0.2 -2 1.2 2 0.8 3 2.2 3.8 5.1 0.6 2.3 3.5 11.8 6.4 21.1 6.8 21.5 14.1 45.8 16.7 55.4 1.1 4.1 2.5 8.6 3.2 10 0.7 1.4 1.9 5.1 2.6 8.1 0.7 3 3 9.4 5.1 14.1 2.2 4.8 3.9 9.3 3.9 10.1 0 0.9 1.1 3.2 2.5 5.2 3.4 5 3.5 12.3 0.2 15.4 -4.3 4.1 -13.1 5.4 -17.7 2.7 -1.4 -0.8 -3.2 -1.7 -4 -2.1 -2.6 -1.4 -5.8 -5.8 -9.3 -12.9 -2.3 -4.7 -5 -8.3 -7.9 -10.7 -2.3 -1.9 -9 -8.3 -14.7 -14.1 -6.3 -6.4 -11.9 -11.2 -14.5 -12.3 -3.6 -1.6 -18.5 -11 -27 -17.1 -4.1 -2.9 -4.6 -2.8 -4.6 0.6 0 4.5 -1 6.1 -3.8 6.1 l-2.5 0 2.2 2.4 c2.3 2.4 2.6 6.3 0.8 10.6 -0.5 1.1 1.4 2.9 6.6 6.3 4 2.7 13.1 9 20.2 14.2 25.6 18.4 35.2 25.8 45.6 35 12.2 10.8 29.6 23.6 37.9 27.9 3 1.5 5.9 3.2 6.5 3.7 1.7 1.6 2.7 0.9 2.2 -1.3z m-305.2 -46.6 c4.4 -4.2 9.3 -9.7 11 -12.2 1.6 -2.5 4.3 -6.3 6 -8.5 1.8 -2.2 3.4 -4.5 3.6 -5.2 0.2 -0.6 4.1 -5 8.7 -9.7 4.6 -4.7 9 -10.2 9.8 -12.2 1.6 -3.9 5 -7.3 7.2 -7.4 0.7 0 5.3 -4 10.1 -9 4.9 -4.9 9.2 -9 9.5 -9 0.4 0 2.1 -1.6 3.8 -3.6 1.7 -1.9 4.5 -4.2 6.2 -5.1 3.1 -1.6 4.6 -3.1 4.6 -4.6 0 -1.6 -11.9 -12.6 -16.6 -15.2 -2.6 -1.5 -6.6 -3.9 -8.9 -5.4 -6.8 -4.6 -12.3 -7 -15.7 -7 -5.3 0.2 -16.8 -2.9 -22.7 -6.1 -3 -1.7 -6 -3 -6.6 -3 -0.9 0 -1.4 5.5 -1.8 19.8 -0.6 20.7 -0.9 23.5 -3.3 31.9 -1.5 5.3 -2.8 7.1 -3.9 5.3 -2.4 -4 -5.6 2.4 -6.1 12.4 -1.5 31 -2.5 46 -3.4 51.1 -1.2 7.2 -1.3 10.5 -0.2 10.5 0.4 0 4.3 -3.5 8.7 -7.8z m266.1 -23.9 c-0.3 -1 -1.7 -7 -3.1 -13.3 -1.4 -6.3 -3 -13 -3.6 -14.7 -0.5 -1.8 -1.3 -6.5 -1.6 -10.5 -0.4 -4.8 -1.5 -9.4 -3.3 -13.4 -1.5 -3.3 -3 -8.3 -3.4 -11 -0.4 -2.7 -1.4 -5.9 -2.2 -7.1 -0.8 -1.2 -1.4 -3 -1.4 -3.9 0 -0.9 -1.1 -4.2 -2.4 -7.3 -1.3 -3.1 -2.9 -7.1 -3.6 -8.8 -1.4 -3.8 -4.2 -7.3 -5.8 -7.3 -0.6 0 -3.1 1.3 -5.4 2.9 -4.1 2.7 -17.5 10.7 -33.8 20.1 -7.3 4.2 -17 10 -17.9 10.7 -1.1 0.8 11.6 12.4 16.3 14.9 2.8 1.5 7.1 4.2 9.6 5.9 4.9 3.6 19.4 12.6 25.1 15.7 1.9 1.1 7.3 5.6 12 10 4.6 4.5 10.6 9.8 13.4 11.8 2.7 2 5.6 4.4 6.4 5.3 1.9 2.3 5.4 2.3 4.7 0z m-90.5 -29.8 c0 -0.6 -1 -1.2 -2.3 -1.3 -1.9 -0.4 -2 -0.2 -0.9 1.2 1.5 1.7 3.3 1.8 3.2 0.1z m-97.3 -62.9 c-0.2 0 -1.3 -1 -2.5 -2 -2.3 -1.9 -2.3 -1.9 -2.3 0.2 0 1.9 2.5 3.4 4.3 2.4 0.5 -0.2 0.7 -0.5 0.5 -0.6z m-23.8 -8.1 c0 -4.8 -0.3 -5.5 -1.9 -5.5 -1.1 0 -2.2 -0.4 -2.5 -0.9 -0.4 -0.5 -3.7 -2.1 -7.4 -3.5 -5.6 -2.2 -7.8 -2.5 -12.7 -2 -5.4 0.5 -6.4 0.3 -9.8 -2 -3.8 -2.6 -6.6 -3.1 -10 -1.7 -2.5 1 -1.3 1.9 9.3 7.2 6.2 3.1 9.6 4.2 12.4 4 2.8 -0.1 6 0.9 12 3.9 4.4 2.3 8.5 4.6 9.1 5.1 1.4 1.4 1.5 1.2 1.5 -4.6z"/>
  <path d="M181.8 621.4 c-0.3 -0.3 -2.1 -0.6 -3.9 -0.6 -1.9 -0.1 -4.6 -0.8 -6 -1.7 -5.5 -3.4 -19.8 -15.7 -20.9 -18.1 -0.6 -1.4 -3.8 -5.2 -7.1 -8.5 -18.2 -18.5 -27.5 -28.9 -28 -31.4 -0.3 -1.5 -3.5 -6.3 -7.1 -10.7 -3.5 -4.3 -8.2 -10.8 -10.3 -14.4 -2.1 -3.6 -4.6 -7.7 -5.7 -9.2 -1 -1.5 -1.8 -3.3 -1.8 -4.1 0 -0.8 -1.1 -4.5 -2.5 -8.3 -1.4 -3.8 -2.5 -7 -2.5 -7.1 0 -0.2 -0.7 -0.3 -1.6 -0.3 -0.8 0 -1.2 -0.4 -0.9 -1 0.3 -0.5 -1.7 -5.3 -4.4 -10.6 -2.8 -5.3 -5.1 -10.7 -5.1 -12 0 -1.2 -0.4 -2.5 -0.9 -2.9 -0.5 -0.3 -1.5 -2.2 -2.1 -4.3 -0.7 -2 -1.9 -5.3 -2.7 -7.2 -0.8 -1.9 -1.9 -4.4 -2.3 -5.5 -0.5 -1.1 -1.8 -4 -2.8 -6.5 -1.1 -2.5 -2.7 -7 -3.7 -10 -1 -3 -3.3 -9.2 -5.1 -13.8 -1.9 -4.5 -3.4 -9.6 -3.4 -11.2 0 -1.7 -0.4 -3 -0.9 -3 -1.6 0 -3.4 -14 -2.7 -20.9 0.8 -7.5 2.9 -10.9 5.3 -8.6 0.8 0.8 2.5 1.5 3.8 1.5 1.4 0 4.6 2 7.9 4.8 3 2.6 8 6 11 7.6 5.3 2.7 5.8 2.8 7.5 1.2 2.5 -2.3 3.5 -2 5 1.7 2.9 6.7 3.1 8 1.4 9.2 -1.5 1.1 -1.4 2 0.2 11.1 0.9 5.4 2.8 12.6 4.1 16 1.3 3.3 4 11.2 6 17.5 3.6 11.3 12.4 31.2 16.8 37.9 1.3 1.9 4.3 6.7 6.7 10.5 6.6 10.5 16.8 24.9 22.6 32 2.9 3.6 7.9 9.9 11.2 14.2 3.2 4.3 7.6 9.5 9.7 11.5 4.3 4.1 9.7 9.6 16.2 16.3 2.3 2.5 5.1 4.5 6.1 4.5 2.5 0 3.7 1.8 4.5 6.6 0.4 3 0.2 4.5 -0.8 5.3 -1.7 1.4 -3.6 9.5 -3.6 14.9 0 2.1 -0.7 4.8 -1.6 6 -1.4 2.1 -4.4 2.9 -5.6 1.6z m-24.4 -43.9 c0.3 -0.8 1.2 -1.5 2.1 -1.5 1.5 0 -11.8 -17.5 -15.8 -20.9 -1 -0.7 -1.7 -1.8 -1.7 -2.3 0 -0.5 -2.4 -3.9 -5.3 -7.6 -2.9 -3.7 -6.4 -8.5 -7.7 -10.7 -1.3 -2.2 -3.6 -5.4 -5.1 -7.1 -6.4 -7.5 -22.9 -35.5 -22.9 -38.9 0 -0.8 -1.1 -3.2 -2.4 -5.3 -1.4 -2 -3.2 -6.2 -4.1 -9.2 -0.9 -3 -2.2 -7.3 -3 -9.5 -0.7 -2.2 -1.9 -5.6 -2.5 -7.5 -2.4 -6.9 -3.5 -8.5 -6.3 -8.8 -2.4 -0.3 -2.7 -0.7 -2.7 -4.3 0 -2.1 -0.4 -3.9 -1 -3.9 -0.5 0 -1 0.5 -1 1 0 0.6 -1.5 1 -3.4 1 l-3.4 0 1.9 6.1 c1 3.3 3.2 8.8 4.7 12.2 1.6 3.4 4.1 9.6 5.7 13.7 5 13.6 6.6 17.1 10 22.5 3.6 5.5 7 12.6 10 20.9 1 2.6 3.9 7.1 6.5 10 2.6 2.8 6 7.2 7.7 9.7 1.7 2.5 5.9 7.8 9.3 11.8 3.3 4.1 6.6 8.3 7.2 9.5 0.5 1.1 3.1 4.1 5.7 6.5 16.7 15.7 16.3 15.5 17.5 12.6z"/>
  <path d="M552.3 544.1 c-2.4 -1.5 -3.2 -2.7 -3.1 -4.8 0.1 -1.6 -0.4 -3.8 -1.1 -5 -0.6 -1.2 -1 -4.3 -0.9 -7 0.3 -8.1 -1.4 -20.6 -3.4 -24.1 -3.1 -5.6 -2.4 -8.9 2.9 -13.6 14.8 -12.8 21.9 -24.9 23.8 -40.5 0.8 -6.1 4.4 -10.6 7.6 -9.6 2 0.7 13.2 -2.1 16.4 -4.1 1.1 -0.6 3.2 -1.4 4.7 -1.8 1.4 -0.3 4.1 -1.8 5.8 -3.2 2 -1.8 4.4 -2.7 6.8 -2.8 l3.7 -0.1 -0.2 6.5 c-0.1 6.3 -1.6 13 -6.6 29.5 -1.3 4.4 -3.6 12 -5.1 17 -1.5 4.9 -4.3 11.5 -6.2 14.5 -2 3 -5.4 8.7 -7.6 12.5 -2.3 3.9 -7.2 10.4 -10.9 14.4 -3.7 4.1 -7 8.5 -7.3 9.8 -0.4 1.2 -1.6 3.3 -2.9 4.6 -3.2 3.4 -11.3 9.7 -12.3 9.7 -0.5 0 -2.3 -0.9 -4.1 -1.9z m27.7 -51.3 c3.1 -5.9 5.8 -10.3 9.6 -15.5 0.9 -1.2 1.9 -3.7 2.4 -5.5 0.4 -1.8 1.1 -4 1.4 -4.9 0.5 -1.1 0.1 -1.8 -1.3 -2.2 -1.5 -0.4 -2.1 0.1 -2.3 1.7 -0.3 1.9 -0.9 2.1 -5.8 2.1 l-5.5 0 -3.2 7.3 c-1.7 4 -5 9.3 -7.2 11.9 -2.3 2.5 -4.1 5.1 -4.1 5.8 0 0.8 2 1.4 5.1 1.7 3.4 0.4 5.5 1.1 6.1 2.2 0.5 0.9 1.1 1.6 1.2 1.6 0.2 0 1.9 -2.8 3.6 -6.2z"/>
  <path d="M279.8 445.2 c-0.9 -0.2 -2 -1.2 -2.4 -2.4 -0.6 -1.9 -1.1 -2 -8.3 -1.3 -4.2 0.4 -15.2 0.7 -24.6 0.6 -9.5 0 -19.3 0.4 -22.2 1.1 -4.2 0.9 -5.6 0.8 -6.8 -0.2 -1.3 -1 -5.5 -1.1 -21.3 -0.4 -28.2 1.3 -49.6 1.2 -51.3 -0.3 -1.1 -0.9 -1.4 -3.7 -1.4 -12 0.1 -5.9 -0.2 -11.5 -0.6 -12.3 -0.4 -0.8 -1.8 -4 -3.2 -7 -4.1 -8.7 -4.3 -13 -1.2 -26.5 0.3 -1.1 0.9 -4.7 1.3 -8 0.6 -3.6 2.6 -9.5 5.3 -15 3.6 -7.3 4.4 -10.2 4.7 -15.8 0.4 -5.8 0.1 -7.3 -1.6 -9.6 -3.9 -5.3 -6.2 -20.5 -6.1 -41.1 0 -6.9 -0.4 -14.7 -1 -17.5 -1.8 -9 -2.2 -20.9 -0.8 -22.5 1.8 -2.3 13.5 -7.6 19.2 -8.8 2.8 -0.6 9 -2.5 14 -4.2 6.9 -2.5 10.3 -3.2 15 -3 3.3 0.2 8.7 0.1 12 -0.1 8.7 -0.5 24.4 -0.3 37 0.5 6.1 0.3 19.7 0.8 30.2 1 17.4 0.4 19.5 0.6 22.1 2.5 2.4 1.7 3 3 3.6 7.5 0.3 3 0.2 6.7 -0.4 8.1 -1.5 3.9 -1.1 17.5 0.8 30 1.5 9.6 2 11 3.7 11.2 13.9 1.4 13.5 1.2 15.3 5.1 0.9 2 2 3.8 2.3 4 0.4 0.2 0.5 1.1 0.3 2 -0.8 3.4 0.4 4.1 16.1 9.9 2.2 0.8 4.8 2.2 5.8 3.1 1.3 1.2 4.2 1.8 9.5 2 9.1 0.4 15.1 2.8 18.4 7.3 4.1 5.6 17.3 9.5 23.8 7.1 1.8 -0.7 4.3 -0.1 10.1 2.5 4.2 1.8 9 3.3 10.6 3.3 5.4 0 9.4 6.5 6.1 9.8 -3.1 3.1 12.6 11.7 25.3 14.1 6.6 1.3 6.7 1.2 13 -1.9 3.5 -1.7 8.9 -3.7 12 -4.4 3.1 -0.8 8.3 -2.5 11.5 -3.9 11.5 -5 26.4 -9.3 33.7 -9.8 2.3 -0.2 8.7 0 14.2 0.5 5.5 0.4 12 0.3 14.5 -0.2 6.7 -1.3 16.1 0.8 20.8 4.5 5.1 4.1 6.6 7.6 6.7 15.3 0 6 0.3 6.9 3.3 10 4.2 4.5 6 10.5 3.8 12.9 -1.3 1.4 -1.4 3 -0.6 9.7 0.5 4.3 1.4 9.5 1.8 11.4 2.1 8.6 0.2 10.4 -15.8 14.7 -15.2 4.2 -15.3 4.2 -32 4.8 -8 0.3 -20.6 1 -28 1.6 -7.4 0.6 -21.9 1 -32.2 1 -17.1 0 -18.8 0.2 -20.9 2 -2 1.7 -2.4 1.8 -3.1 0.4 -0.8 -1.3 -3.1 -1.4 -16.1 -0.9 -11.9 0.5 -17.8 0.2 -27.2 -1.2 -10 -1.5 -17.9 -1.7 -48 -1.5 -38.9 0.2 -45.1 0.5 -56.4 2.7 -8.5 1.7 -9.4 2.1 -8.7 3.9 0.6 1.7 -3.3 4.2 -5.6 3.7z m-120.5 -17.9 c-0.6 -8.8 -0.9 -9.5 -3.5 -9.1 -2.7 0.4 -3.2 2.3 -2.3 9.4 0.6 5.1 1.2 5.9 5.1 6.3 0.8 0.1 1 -2 0.7 -6.6z m21.1 5 c-0.4 -1 -1 -4.6 -1.2 -8 -0.4 -6.3 -0.4 -6.3 -3.4 -6.3 -3 0 -3 0.1 -2.4 3.8 0.4 2 1 5.6 1.3 8 0.5 3.9 0.8 4.2 3.5 4.2 2.5 0 2.9 -0.3 2.2 -1.7z m24.9 0.1 c1.2 -0.4 1.3 -1.2 0.4 -4.2 -0.6 -2 -1.7 -4.5 -2.5 -5.4 -1.5 -1.8 -7.8 -3.5 -8.8 -2.5 -0.3 0.3 0.9 3.3 2.8 6.6 3.2 5.9 4.6 6.9 8.1 5.5z m22.7 -1 c0 -0.4 -0.5 -2.4 -1.2 -4.5 -0.9 -3.3 -1.5 -3.9 -3.9 -3.9 l-2.9 0 2.1 3.8 c1.2 2 2.3 4 2.6 4.5 0.5 0.9 3.3 1 3.3 0.1z m63 -2.5 c4.8 -1 5 -1.2 5 -4.5 0 -4.3 -2.2 -5 -12.5 -3.8 l-7.4 0.9 3.5 4.3 c3.9 4.6 4.1 4.7 11.4 3.1z m32.5 -4.2 c0.8 -1.2 1.5 -3.9 1.5 -6 l0 -3.9 -5.7 0.7 c-3.2 0.4 -6.1 1 -6.6 1.4 -0.4 0.4 -1 3 -1.3 5.7 l-0.6 4.9 5.6 -0.3 c4.4 -0.3 6 -0.9 7.1 -2.5z m107.2 1.9 c0.1 -0.1 -0.1 -4.5 -0.4 -9.7 l-0.6 -9.6 -6 -0.6 c-3.3 -0.3 -6.5 -0.3 -7.1 -0.1 -0.8 0.3 -0.8 3.4 -0.2 11 l1 10.6 6.5 -0.7 c3.6 -0.4 6.7 -0.8 6.8 -0.9z m-165.7 -1.6 c0 -1.1 -0.7 -2 -1.5 -2 -1.8 0 -1.9 1.2 -0.3 2.8 1.6 1.6 1.8 1.5 1.8 -0.8z m80.5 -3.2 l0 -4.3 5.3 0 c4.8 0.1 5.2 -0.1 5.2 -2.2 0 -1.9 -0.5 -2.3 -2.9 -2.3 -4.6 0 -8.9 1.1 -9.5 2.5 -0.2 0.7 -0.8 3.3 -1.1 5.9 -0.6 4.1 -0.5 4.6 1.1 4.6 1.6 0 1.9 -0.8 1.9 -4.2z m50 1.3 c4 -0.7 4 -0.7 5.8 -7.5 1 -3.7 1.6 -7 1.3 -7.3 -0.2 -0.3 -3.9 -0.2 -8.2 0.2 -7.4 0.7 -7.6 0.8 -5.1 2.2 2.2 1.1 2.7 2.1 2.7 5.2 0 4.6 -0.9 5.1 -9.1 5.1 -5.3 0 -5.9 0.2 -5.9 2.1 0 1.9 0.4 2 7.3 1.3 3.9 -0.3 9 -0.9 11.2 -1.3z m62.3 -6.8 c-0.3 -4.9 -0.7 -10.3 -0.7 -12 l-0.1 -3.3 -5.5 0 c-6.5 0 -6.4 -0.1 -3.6 11.1 1 4.1 2.1 8.6 2.5 10.2 0.6 2.3 1.1 2.7 4.4 2.7 l3.7 0 -0.7 -8.7z m32.8 3.1 c-0.3 -2.6 -0.6 -8.1 -0.6 -12.2 l0 -7.5 -6.1 0.6 c-3.3 0.3 -6.3 0.8 -6.6 1 -0.5 0.6 1.3 16 2.4 20.5 0.5 1.9 1.1 2.2 6 2.2 l5.6 0 -0.7 -4.6z m30.9 -4 c0.4 -3.7 1.3 -8.5 2.1 -10.7 0.8 -2.2 1.1 -4.4 0.7 -4.8 -0.5 -0.3 -4.4 -0.9 -8.9 -1.2 l-8.1 -0.5 1.9 8.2 c3.9 16.6 3.4 15.6 7.7 15.6 l3.9 0 0.7 -6.6z m28 3.5 c0.5 -0.5 1.7 -0.9 2.7 -0.9 1.1 0 3.7 -0.9 5.8 -2 3.6 -1.9 4 -2.4 4 -6 0 -2.1 -0.5 -5.1 -1.2 -6.5 -1.1 -2.4 -1.4 -2.5 -11 -2.5 l-9.8 0 0 5.6 c0 3 0.5 7.5 1.1 10 1.1 4.4 1.3 4.5 4.3 3.8 1.7 -0.3 3.5 -1 4.1 -1.5z m-168.9 -8.7 c-0.7 -0.6 -5.6 1.8 -5.6 2.7 0 0.6 1.3 0.2 2.9 -0.7 1.6 -0.9 2.8 -1.8 2.7 -2z m-131.1 -3 c7.6 -0.4 8.2 -0.5 9.3 -3.1 1.6 -3.7 6.2 -6.1 11.6 -6.1 4.6 0 4.6 0 4.6 3.5 0 2.8 -0.5 3.7 -2.4 4.5 -5.9 2.2 -3.1 3.8 4.3 2.4 2.7 -0.6 3.1 -1.1 3.1 -3.9 0 -4.9 3.8 -7.9 10.3 -8 l5.2 0 0.3 4.3 c0.3 3.9 0.5 4.1 2.3 3.1 1.1 -0.6 2.9 -1.9 4 -3 1 -1 2.9 -1.9 4 -1.9 1.2 0 3.7 -1.4 5.6 -3 3.1 -2.7 4.1 -3.1 8.6 -2.8 5.1 0.3 5.2 0.4 5.8 3.8 0.5 2.8 0.7 2.2 0.8 -2.7 l0.1 -6.3 4 0 c3.7 0 3.9 -0.2 2.8 -1.9 -0.9 -1.5 -2.7 -1.9 -9.2 -2.4 -6.6 -0.4 -9.5 -1.2 -15.6 -4.1 -7.8 -3.7 -10 -6.4 -10 -12.4 0 -1.9 -0.6 -2.2 -4.2 -2.2 -6.6 -0.1 -12.3 -1.7 -18 -5.2 -8.8 -5.2 -9.8 -6.5 -9.8 -12.2 0 -4.8 -0.3 -5.3 -4 -7.9 -4.9 -3.5 -7.2 -7.6 -8 -14.2 -0.4 -4.2 -0.9 -5 -3 -5.5 -2 -0.5 -2.6 -1.3 -2.8 -4.1 -0.2 -1.9 0.2 -4.7 0.7 -6.2 0.8 -2.2 1.7 -2.7 4.3 -2.7 2.3 -0.1 3.8 -0.8 5 -2.5 1.7 -2.2 1.7 -2.5 0 -6.2 -1.7 -3.7 -1.8 -3.8 -6.5 -3.5 l-4.8 0.3 0.3 -3.8 c0.2 -2.9 1 -4.2 3.5 -5.9 2.2 -1.5 2.9 -2.5 2.2 -3.5 -0.5 -0.8 -0.9 -4.7 -0.9 -8.8 0 -6.9 0.2 -7.6 3.6 -12.2 l3.6 -4.9 -10.9 -0.1 c-5.9 0 -13 -0.4 -15.8 -1 -2.7 -0.5 -15.1 -1.2 -27.5 -1.4 -20.8 -0.5 -22.9 -0.4 -28.4 1.5 -7.2 2.4 -13.3 2.6 -15.8 0.4 -2.5 -2.3 -8.2 -0.8 -8.6 2.4 -0.3 1.9 0.1 2.2 3.2 2.2 3.5 0 3.6 0.1 3.6 4 0 2.4 -0.5 4 -1.2 4 -0.6 0 -0.4 0.6 0.7 1.3 1.5 1.2 1.7 2.2 1.1 6.6 -0.5 3.6 -0.4 5.1 0.4 4.6 0.5 -0.3 1 -2.2 1 -4 0 -3.8 0.1 -3.9 9.5 -4.9 3.7 -0.5 5.7 -1.4 8.1 -3.7 3 -2.9 4 -3.2 13 -4.1 19.1 -1.7 30.4 2.9 36 14.7 2.1 4.4 2.4 6.5 2.4 17.3 0 13.6 -0.1 14 -7.5 24.6 -5.7 8.1 -12.5 14.3 -19.8 17.9 -5.2 2.7 -6.3 2.9 -15 2.5 -8.3 -0.3 -10.1 -0.7 -16.5 -3.9 l-7.2 -3.5 -0.1 2.5 c-0.5 12.4 -0.3 16.1 0.9 16.1 0.6 0 1.2 -1.1 1.2 -2.4 0 -2.8 1.6 -3.6 7.1 -3.6 3.9 0 3.9 0 3.9 4 0 3.4 -0.4 4.1 -2.5 4.6 -1.4 0.3 -3.8 0.4 -5.4 0.2 -2.8 -0.4 -2.9 -0.3 -3.6 4.9 -0.4 3.6 -1.1 5.3 -2.1 5.3 -2.1 0 -1.7 2.1 0.6 2.7 1.4 0.4 2 1.4 2 3.4 0 2.4 0.4 2.9 2.4 2.9 4.2 0 5.2 9.3 1.2 11.2 -1.7 0.7 -2.6 2 -2.8 4.2 -0.3 2.7 -0.7 3.2 -3.8 3.6 -3.9 0.6 -5.8 4 -2.2 4 1.1 0 2.2 0.7 2.6 1.5 0.3 0.9 1.8 1.5 3.5 1.5 2.9 0 3 -0.2 3.3 -4.7 0.3 -4.6 0.4 -4.8 3.6 -5.1 2.6 -0.3 3.2 -0.8 3.2 -2.6 0 -3.4 1.9 -4.6 7.6 -4.6 2.9 0 5.6 -0.4 5.9 -1 0.3 -0.5 2.3 -1 4.5 -1 4.8 0 5.3 1.2 4.4 11.1 -0.7 8.4 -1 8.7 -7.9 9 -1.6 0.1 0.4 0.7 4.5 1.5 11.2 1.9 11 2 10.3 -2 -0.3 -1.9 -0.2 -5.1 0.1 -7 0.6 -3.4 0.9 -3.6 4.4 -3.6 2.1 0 4.2 0.4 4.7 1 0.7 0.6 1 -0.6 1 -3.3 0 -4 0.2 -4.2 3.2 -4.5 1.8 -0.2 4.1 0.2 5.3 0.8 1.6 0.9 2 0.8 2 -0.5 0 -1.2 1.3 -1.5 6.5 -1.5 l6.5 0 0 2.9 c0 5.2 -0.9 6.1 -5.5 6.1 -4 0 -4.4 0.2 -4.7 2.8 -0.3 2.4 -0.8 2.8 -4.8 3.2 -2.9 0.3 -3.9 0.7 -2.8 1.2 0.9 0.4 4.1 0.4 7.2 0.1 l5.6 -0.6 0 5.1 c0 5.1 1.1 6.6 4 5.4 0.8 -0.3 5.1 -0.7 9.5 -1z m104.5 -9.5 c2.5 -1.2 4.6 -3 4.8 -3.9 0.3 -1.4 -1 -1.7 -9 -2 -5.1 -0.2 -9.4 -0.3 -9.5 -0.3 -0.2 0.1 0.5 2 1.4 4.3 1.4 3.7 2 4.2 4.7 4.2 1.7 0 5.1 -1 7.6 -2.3z m30.7 -0.8 c4.9 -0.8 9.5 -2.1 12.3 -3.8 l4.5 -2.6 -9.7 -0.6 c-5.4 -0.4 -11.3 -1 -13.3 -1.3 l-3.5 -0.7 0 5.1 c0 2.7 0.4 5 1 5 0.5 0 4.4 -0.5 8.7 -1.1z m25.5 -7 c-1.6 -0.6 -2.2 -1.7 -2.2 -4.1 l-0.1 -3.3 -1.4 3.2 c-0.7 1.7 -2.2 3.3 -3.2 3.6 -1.1 0.3 -0.7 0.5 1.2 0.6 1.7 0.1 3.7 0.5 4.5 1 0.8 0.6 1.8 0.7 2.4 0.4 0.5 -0.4 0 -1 -1.2 -1.4z m86.8 -5.7 c5.2 -0.6 18.4 -1.2 29.2 -1.2 19.3 0 25.4 -0.8 24.6 -3.2 -0.3 -0.7 -3.6 -2.9 -7.4 -5 -5.8 -3.1 -9 -4 -20.3 -5.7 -7.4 -1.2 -15.7 -2.1 -18.5 -2.1 -14.4 0 -57.7 13.7 -54.7 17.4 1.3 1.5 33.7 1.4 47.1 -0.2z m-336 -3.7 c0 -1.4 -0.4 -2.5 -1 -2.5 -0.5 0 -1 1.1 -1 2.5 0 1.4 0.5 2.5 1 2.5 0.6 0 1 -1.1 1 -2.5z m252.5 -2.5 c2.2 -1.1 4.6 -2 5.5 -2 0.8 0 -0.3 -1.1 -2.5 -2.4 -4.5 -2.8 -4.8 -2.6 -7 2.7 -1.8 4.3 -1.4 4.4 4 1.7z m-17.2 -13.3 c3 -6.2 3 -8.7 -0.2 -8.7 -1.4 0 -2.9 2 -5.5 6.9 -2 3.9 -3.6 7.3 -3.6 7.6 0 0.3 1.5 0.5 3.3 0.3 2.8 -0.3 3.5 -1 6 -6.1z m-29.5 -2.4 c1.9 -2.8 5.2 -9.8 5.2 -11.3 0 -0.4 -1.9 -1.2 -4.2 -1.9 -3.7 -0.9 -4.5 -0.8 -5.5 0.6 -0.7 0.9 -1.3 2.3 -1.3 3 0 1.2 -3.2 9 -4.7 11.6 -0.2 0.4 1.6 0.7 4.1 0.7 3.7 0 4.8 -0.4 6.4 -2.7z m-27.1 -9.8 c3.4 -6.4 6.9 -16.3 6 -17.1 -0.3 -0.3 -2.4 -0.8 -4.6 -1.1 l-4 -0.6 -3.1 6.9 c-1.7 3.8 -4.3 9 -5.6 11.7 -2.7 5 -2.6 5.1 2.6 6 4.6 0.8 5.5 0.2 8.7 -5.8z m-26.5 -20.3 c2.8 -2.8 4.8 -5.5 4.5 -5.9 -0.4 -0.3 -3.1 -0.8 -6.1 -1.1 l-5.3 -0.4 -3.7 4.8 -3.7 4.8 3.3 3.3 c3 3.2 3.4 3.3 4.6 1.6 0.7 -1 3.6 -4.2 6.4 -7.1z m-117.7 -9.6 c1.9 -0.8 3.5 -1.7 3.5 -1.9 0 -0.4 -5.3 0.1 -9 1 -2.3 0.5 -2.4 0.6 -0.5 1.3 1.1 0.5 2.1 0.9 2.3 0.9 0.1 0.1 1.8 -0.6 3.7 -1.3z m99.3 -11.7 c1.8 -1.6 3.8 -2.9 4.5 -3 0.7 0 -0.1 -0.5 -1.8 -1 -2.1 -0.6 -3.5 -0.4 -5.1 0.6 -1.1 0.7 -3.4 1.5 -5.1 1.7 -2.9 0.3 -3 0.3 -1.6 3.6 1.2 3 1.5 3.1 3.6 2.1 1.2 -0.7 3.7 -2.5 5.5 -4z m-99.4 -2.9 c3 -1.3 4.6 -2.7 5 -4.5 1 -3.8 4.7 -5.8 10.6 -5.3 l5 0.3 -0.1 -6 c-0.1 -5.1 -0.2 -5.5 -0.9 -2.7 -1.4 5.9 -3.5 7.2 -11.1 7.2 -6.5 0 -6.9 -0.1 -7.5 -2.6 -0.6 -2.4 -0.1 -8.7 1.2 -14.7 0.6 -2.6 0.5 -2.8 -2.1 -2.1 -1.5 0.4 -4.8 1.9 -7.4 3.3 l-4.6 2.6 3.5 0.5 c3.8 0.6 4.7 2.4 4.9 9.6 0.2 6.6 -2.2 8.7 -10.4 9.2 -7.3 0.5 -8.4 -0.2 -8.5 -4.8 0 -2 -0.2 -2.2 -1 -1 -0.5 0.8 -1 3 -1 4.8 0 3.1 0.1 3.2 4.5 3.2 2.5 0 4.5 0.5 4.5 1 0 0.6 1 1 2.3 1 1.2 0.1 3.6 0.7 5.2 1.5 1.7 0.7 3.1 1.4 3.3 1.4 0.2 0.1 2.3 -0.8 4.6 -1.9z"/>
  <path d="M204.7 388.3 c-0.4 -0.3 -0.7 -2.4 -0.7 -4.5 l0 -3.8 5.5 0 5.5 0 0 3.9 c0 2.6 -0.5 4.1 -1.6 4.5 -2.1 0.8 -7.9 0.8 -8.7 -0.1z"/>
  <path d="M189.4 374.6 c-0.3 -0.8 -0.4 -2.7 -0.2 -4.3 0.3 -2.6 0.7 -2.8 5.1 -3.1 l4.8 -0.3 -0.3 4.3 c-0.3 4.3 -0.3 4.3 -4.6 4.6 -3 0.2 -4.4 -0.1 -4.8 -1.2z"/>
  <path d="M241 364.1 l0 -4.1 5.1 0 5 0 -0.3 3.8 c-0.3 3.7 -0.3 3.7 -5 4 l-4.8 0.3 0 -4z"/>
  <path d="M599.5 405 c-0.4 -1.2 -0.3 -2.6 0.3 -3.3 1 -1.4 3.8 -10.6 4.7 -15.7 0.3 -1.9 1.3 -6.3 2.2 -9.7 1.3 -5.1 1.4 -6.5 0.3 -7.8 -1.1 -1.3 -0.9 -2 1.5 -4.5 1.6 -1.7 3.2 -3 3.6 -3 1 0 10.6 -6.2 15.4 -9.9 8.8 -6.9 10.2 -7.9 14.6 -10.4 2.5 -1.5 5.5 -2.7 6.6 -2.7 1.7 0 3.7 -1.3 10.8 -6.8 0.6 -0.4 3.9 -2.2 7.5 -4 3.6 -1.8 7.2 -3.7 8 -4.2 2.1 -1.3 12.6 -6 13.3 -6 1.1 0 4.7 -3.9 4.7 -5.1 0 -1.2 -37 -0.3 -41 1.1 -2.4 0.8 -11.3 2.1 -17.6 2.5 -1.6 0.1 -3.7 0.6 -4.5 1.1 -0.8 0.4 -3.9 0.7 -6.9 0.6 -3 -0.2 -8.4 0.3 -12 1.1 -3.6 0.8 -9.1 1.6 -12.2 1.6 -3.2 0.1 -7.9 0.6 -10.5 1 -2.7 0.5 -9.5 1.1 -15.3 1.2 -5.8 0.1 -12.2 0.6 -14.3 1.1 -2.1 0.4 -17.4 0.9 -34 0.9 -31.3 0.1 -34.7 0.3 -34.7 2.3 0 1.3 4.3 6.2 6.2 6.9 0.9 0.4 0.6 1.1 -1.2 2.5 -2.5 2.1 -8.7 3.9 -22.5 6.6 -4.4 0.9 -8.4 1.8 -9 2 -2.3 0.7 -7.2 2.7 -9.1 3.7 -3.4 1.8 -5.9 -0.3 -10 -8.7 -2 -4.1 -4.9 -8.3 -6.3 -9.2 -2 -1.4 -6.1 -1.8 -21.1 -2.3 -19.4 -0.5 -23.4 -1.4 -28.2 -5.9 -1.2 -1.1 -3.3 -2.3 -4.5 -2.6 -1.3 -0.4 -2 -1.1 -1.7 -1.9 0.7 -1.8 -9.9 -10.1 -15.3 -11.9 -2.3 -0.8 -7.6 -2 -11.8 -2.7 -8.4 -1.4 -10.1 -3.2 -6.6 -7 1.8 -1.9 2.6 -2.1 8.8 -1.4 6.4 0.6 7 0.5 9.5 -1.8 2.2 -2 4.1 -2.6 11 -3.2 4.6 -0.4 9.9 -1.4 11.8 -2.2 6.2 -2.7 13.4 -4.3 19 -4.3 3.7 0 6.6 -0.7 8.8 -2 3.3 -2 3.4 -2.2 2.7 -7.3 -0.4 -2.9 -1.4 -6.4 -2.1 -7.9 -0.8 -1.5 -1.4 -3.4 -1.4 -4.2 0 -0.8 -0.6 -2.7 -1.4 -4.3 -3.2 -6.4 -11.6 -27.2 -11.6 -28.8 0 -0.3 -1.8 -4.3 -4 -8.7 -2.2 -4.5 -4 -8.8 -4 -9.6 0 -0.7 -0.6 -2.8 -1.4 -4.5 -3.6 -7.9 -5.6 -13 -5.6 -14.1 0 -0.6 -1.4 -3.8 -3 -7.1 -1.6 -3.3 -3 -6.5 -3 -7.2 0 -0.7 -1.5 -4.5 -3.3 -8.5 -1.9 -4 -3.7 -8.6 -4.1 -10.3 -0.4 -1.6 -2.2 -6.1 -4.1 -10 -4.3 -8.9 -10.6 -22.5 -13.5 -29.2 -2.5 -5.6 -5.3 -8.9 -6.8 -7.9 -0.8 0.5 -8.1 12 -10.2 16.1 -2.6 5 -5.5 8.5 -7 8.5 -2.4 0 -3.2 1.2 -7.5 12 -3.8 9.7 -9.1 20.2 -14.8 30 -1.8 3 -4.4 7.5 -5.7 10 -1.3 2.5 -3 5.2 -3.8 6.1 -1.9 2.4 -9.6 18.7 -11.2 23.7 -1.2 3.7 -1.2 4.5 0.1 5.3 0.8 0.5 1.9 0.7 2.6 0.4 2.1 -0.7 2.3 1.2 0.3 3 -1.7 1.6 -3.3 1.7 -15.7 1 -13.6 -0.7 -18.3 -2 -18.3 -4.9 0 -0.7 -2 -2.2 -4.5 -3.4 -2.5 -1.2 -4.5 -2.9 -4.5 -3.7 0 -0.8 0.4 -1.5 0.9 -1.5 0.5 0 2.5 -3 4.4 -6.7 2 -3.8 4.5 -8.1 5.7 -9.8 1.1 -1.6 2 -4 2 -5.3 0 -1.2 0.9 -4.1 2 -6.3 1.2 -2.2 3.2 -8.8 4.5 -14.8 1.5 -6.9 4 -14.2 7 -20.6 2.6 -5.4 5.6 -13.7 6.7 -18.4 1.2 -4.7 2.8 -9.5 3.8 -10.6 0.9 -1.1 2 -2.7 2.4 -3.5 1 -2.2 3 -5.6 4.3 -7.1 2.3 -3 4.8 -14.8 5.2 -24.6 0.1 -1.2 1.3 -3.5 2.7 -5 3.9 -4.1 9.5 -12.6 14.5 -21.8 3.7 -6.8 6 -9.6 7.7 -9.3 1.1 0.2 2.5 -1.2 4 -4.2 1.2 -2.5 3 -5.7 4 -7.2 0.9 -1.5 4 -6.4 6.7 -10.9 2.8 -4.4 6 -9.8 7.3 -11.8 1.2 -2 2.5 -4.2 2.8 -4.9 1.3 -2.8 9.4 -10.2 11.2 -10.2 1 0 3.7 1.4 6 3.1 4.4 3.2 9.7 12.5 10.8 19.1 0.3 1.8 2.3 7.8 4.5 13.3 7.7 19.9 11.1 29.3 17.1 47.5 3.3 10.2 9.8 27.7 14.5 39 11.2 27.2 17.3 42.4 21.7 54.5 2.1 5.5 4.6 12.3 5.7 15 1.2 2.8 3.1 7.7 4.4 11 4.7 12.3 11.6 28.5 19.4 46 8.1 18.1 9 20.8 7 22 -3.3 2.1 5.8 5.9 10.2 4.3 3.2 -1.2 22.5 -1.1 26.7 0.1 2.2 0.7 4.3 0.6 6.3 -0.1 1.7 -0.6 4.8 -0.8 6.9 -0.4 2.1 0.3 7.2 0.1 11.3 -0.5 6 -0.9 9.1 -0.8 16.9 0.5 5.2 0.9 10.1 1.4 10.9 1.1 3 -1 20.9 -1.7 52.9 -2 34.8 -0.3 61.4 -1.1 66.4 -2.1 2.7 -0.6 13 0.4 29.1 2.7 13.3 2 16 2.5 18 3.6 1.1 0.6 4.1 1.1 6.5 1.2 2.5 0 6.5 0.7 8.9 1.5 2.4 0.9 5.2 1.6 6.2 1.6 3.4 0 19.2 6 21.1 8 2.2 2.4 2.3 3.4 0.2 5.1 -0.9 0.7 -2.9 3.8 -4.4 6.8 -3.5 6.7 -7.1 10.9 -12.5 14.3 -3.8 2.4 -13.4 8.7 -28.9 19 -3.9 2.7 -7.9 5.1 -8.8 5.4 -1 0.4 -1.8 0.9 -1.8 1.3 0 0.4 -1.5 1.5 -3.2 2.6 -5.1 2.9 -29.9 19.4 -33.8 22.5 -1.9 1.4 -5.4 3.7 -7.7 5 -2.4 1.3 -4.3 2.7 -4.3 3.2 0 0.4 -0.7 0.8 -1.5 0.8 -2.8 0 -10.8 4.6 -22.4 12.9 -6.2 4.4 -12.1 8.3 -13.2 8.6 -1 0.4 -1.9 1 -1.9 1.4 0 1.5 -9 5.2 -14.7 6.1 -8.9 1.5 -11.1 1.3 -11.8 -1z m19.4 -28.7 c0 -0.5 -0.4 -1.7 -0.9 -2.8 -0.8 -1.8 -0.9 -1.7 -0.9 0.8 -0.1 1.5 0.4 2.7 0.9 2.7 0.6 0 1 -0.3 0.9 -0.7z m25.1 -10.4 c0 -1.1 1 -2.3 2.4 -2.8 1.3 -0.5 2.6 -1.7 2.9 -2.5 0.4 -1.1 1.9 -1.6 4.7 -1.6 3.5 0 4.6 -0.6 9.3 -5.4 3.2 -3.3 6.4 -5.6 8.4 -6 1.7 -0.4 3.8 -1.8 4.6 -3 0.9 -1.3 2.9 -2.9 4.6 -3.6 1.7 -0.7 3.1 -1.6 3.1 -2 0 -0.5 2 -1.6 4.6 -2.6 2.5 -0.9 5 -2.5 5.7 -3.4 1.9 -2.7 11.1 -8 13.9 -8 1.3 0 3.5 -1.1 4.8 -2.5 1.3 -1.4 2.7 -2.5 3.2 -2.5 0.5 0 3.1 -1.5 5.8 -3.4 2.7 -1.8 6.4 -3.6 8.3 -4 1.9 -0.3 4.2 -1.5 5.2 -2.6 1 -1.1 2.3 -2 2.9 -2 2.2 0 11.8 -7.4 13.2 -10.3 0.9 -1.6 1.4 -3 1.2 -3.1 -1.1 -0.9 -22.9 -5.8 -31.2 -7.1 -5.5 -0.8 -11.4 -1.9 -13.2 -2.5 -4 -1.3 -37 -1.8 -55.4 -0.7 -7.4 0.4 -26.8 1.1 -43 1.5 -16.2 0.4 -30.1 1.2 -30.9 1.6 -2.3 1.5 -44.3 3 -73.1 2.7 -31.2 -0.3 -67.5 1.3 -78.6 3.5 -4.3 0.8 -13 1.9 -19.2 2.3 -11.6 0.9 -12.9 1.2 -11.8 3 0.5 0.7 1.4 0.7 3.1 -0.1 1.4 -0.6 4.2 -0.8 6.9 -0.4 l4.6 0.7 0 4.4 c0 5.1 2.1 7.1 5.5 5.2 1.1 -0.7 6.5 -1.2 12.5 -1.3 5.8 0 15.7 -0.9 22 -1.9 10.4 -1.6 12.7 -1.7 24.5 -0.5 7.2 0.7 18.2 1.5 24.5 1.6 16.1 0.4 32.9 1.9 36.5 3.3 3.3 1.2 41.2 3 42.3 1.9 0.4 -0.3 3.2 -0.8 6.2 -1.1 26.1 -2.3 36.4 -3.8 40 -5.7 1.1 -0.6 3.7 -1 5.8 -1 4.3 0.2 28 -1.8 30.2 -2.5 0.9 -0.3 12 -0.6 24.8 -0.7 17.5 -0.1 23.5 0.2 24.7 1.2 1.5 1.3 2.2 10 0.8 10 -0.5 0 -2 1 -3.5 2.3 -8.3 6.8 -10.9 8.7 -17.5 12.5 -3.9 2.3 -7.4 4.2 -7.6 4.2 -0.8 0 -17.2 9.2 -22.2 12.5 -2.7 1.8 -7 4.4 -9.5 5.7 -2.5 1.4 -7.2 4 -10.4 5.8 -3.3 1.8 -6.9 4.1 -8 5.1 -2 1.9 -1.9 1.9 2.5 1.9 5 0 6.9 1.3 6.9 4.8 0 1.3 0.4 2 1 1.7 0.6 -0.3 1 -1.5 1 -2.6z m-14.7 -2 c0.5 -2 0.5 -2 -1.6 -0.3 -1.2 1.1 -2.4 2 -2.6 2.1 -0.2 0.2 0.5 0.3 1.6 0.3 1.3 0 2.3 -0.8 2.6 -2.1z m-151.3 -31.6 c1.2 -0.4 1.2 -0.7 -0.4 -1.9 -1.1 -0.8 -3 -1.4 -4.3 -1.4 -1.8 0 -2.3 0.6 -2.3 2.4 0 2 0.4 2.3 2.8 1.9 1.5 -0.3 3.4 -0.7 4.2 -1z m-92 -31.4 c0 -1.8 -0.2 -2 -1.5 -0.9 -1.3 1.1 -1.3 1.5 -0.3 2.1 1.8 1.2 1.8 1.2 1.8 -1.2z m73 -29.9 c0 -0.5 -1.3 -1 -3 -1 -1.6 0 -3 0.5 -3 1 0 0.6 1.4 1 3 1 1.7 0 3 -0.4 3 -1z m-9.7 -12.3 c2 -0.5 3.7 -1.3 3.7 -1.8 0 -0.5 -2.9 -8.2 -6.3 -17.1 -3.5 -9 -7.4 -19.4 -8.6 -23.3 -1.3 -3.8 -3.3 -9.5 -4.6 -12.5 -1.2 -3 -3.6 -9.5 -5.3 -14.5 -5 -14.9 -10.5 -28.9 -19.7 -50 -4.7 -11 -9.3 -22 -10.2 -24.5 -0.9 -2.5 -2.7 -7 -3.9 -10.1 -1.3 -3.1 -2.4 -6.1 -2.4 -6.7 0 -0.6 -3.1 -10.3 -6.9 -21.4 -6.5 -19.3 -10.4 -29.3 -15.1 -38.3 -1.1 -2.1 -2 -4.7 -2 -5.7 0 -1 -0.4 -1.8 -1 -1.8 -1.3 0 -4 -5.4 -4 -8.3 0 -1.3 -0.6 -3.1 -1.3 -4.1 -1.3 -1.7 -1.5 -1.6 -3.8 1.1 -1.3 1.7 -3.1 4 -3.9 5.3 -1.3 2 -4.9 7.1 -10.7 15 -4 5.6 -9.7 15.6 -12.3 21.9 -3.4 8.2 -9.4 20.9 -17.5 37.1 -3.4 6.9 -6.6 13.7 -7 15 -0.4 1.4 -1.5 4.3 -2.5 6.5 -7 15.4 -20.5 57.1 -19.4 59.9 0.3 0.9 2.5 1.6 5.4 1.8 l4.9 0.3 2.3 -4.9 c1.3 -2.7 3.1 -6 4.1 -7.3 2.1 -2.6 9.7 -17.3 9.7 -18.7 0 -3.1 11.5 -23.5 17.6 -31.1 5.1 -6.4 9.9 -15.4 12.9 -24 1.5 -4.4 3.1 -8.5 3.6 -9.1 0.5 -0.6 0.8 -5.3 0.7 -10.3 -0.3 -9 -0.2 -9.3 2.5 -11.7 3.1 -2.6 8 -3.1 15.1 -1.4 6.8 1.5 7 2.1 7.2 19.7 0.2 23.9 2.2 32.6 12.7 55.3 1.4 3 4.2 9.8 6.3 15.2 3.7 9.2 3.9 9.5 5.8 8.2 1.1 -0.8 3.7 -1.4 5.7 -1.4 4.1 0 4.9 1.1 4.9 6.6 0 3.5 -0.5 3.8 -6.6 4.6 l-2.2 0.3 2.1 4.8 c1.9 4.2 2.4 4.7 5.3 4.7 2.7 0 3.4 0.5 4.3 3.1 1.7 5.1 1.4 8.5 -1.1 10.2 l-2.3 1.5 3.8 3.7 c3.5 3.4 3.8 4.2 3.5 8.1 -0.3 3.7 0 4.4 1.4 4.4 1 0 1.8 -0.4 1.8 -1 0 -0.6 3.2 -1 7.6 -1 l7.6 0 -0.4 5.5 c-0.5 5.5 -0.5 5.5 2.4 5.5 2.9 0 2.9 0 2.6 5.8 l-0.3 5.7 -3.5 0.3 -3.5 0.3 0.3 4.9 c0.3 4 0.8 5 2.1 5 3.7 0 8.2 3.1 8.8 6.2 0.3 1.6 1.2 3.2 1.9 3.5 0.8 0.3 1.4 2 1.4 3.8 0 1.8 0.3 4.2 0.7 5.2 0.6 1.6 0.8 1.5 1.3 -0.7 0.4 -1.8 1.5 -2.7 4.3 -3.3z m-25.1 -28.5 c-0.3 -3.4 -0.7 -3.8 -2.7 -3.5 -2.1 0.5 -2.2 0.8 -1.2 3.9 1.5 5 4.4 4.6 3.9 -0.4z"/>
  <path d="M111.9 404.4 c-0.7 -0.8 -1.8 -1.3 -2.5 -1 -0.7 0.3 -2.3 -0.3 -3.6 -1.3 -2.9 -2.2 -9.7 -6 -21.3 -11.9 -4.9 -2.5 -9.9 -5.5 -11.1 -6.7 -3.2 -3.2 -11.2 -8.8 -17.9 -12.5 -3.3 -1.8 -7.5 -4.5 -9.2 -6.1 -1.8 -1.5 -6.5 -4.4 -10.5 -6.3 -4 -2 -9.5 -5.1 -12.2 -7.1 -2.7 -1.9 -5.5 -3.5 -6.1 -3.5 -0.7 0 -3.3 -1.8 -5.9 -4.1 -4.9 -4.3 -6.2 -8.5 -2.8 -9.5 0.9 -0.3 4.9 -1.8 8.7 -3.4 5.7 -2.2 8 -2.7 12.7 -2.3 3.5 0.3 8.8 -0.1 13.5 -1.1 18.4 -4 37.9 -7.7 42.8 -8.1 1.7 -0.2 4.3 -0.8 6 -1.5 1.6 -0.6 5.7 -1.8 9 -2.6 9.4 -2.4 21.9 -5.3 22.6 -5.4 0.3 0 2 2.2 3.7 4.9 2.2 3.3 3.2 6.2 3.2 8.7 0.1 2.2 0.5 5.8 0.9 8.2 0.8 4 0.6 4.5 -2.2 7.1 -2.4 2.3 -4.3 3 -9.5 3.5 -3.5 0.4 -9.2 1.3 -12.6 2.1 -3.3 0.8 -9.9 1.5 -14.6 1.5 -9.8 0 -16 0.9 -16 2.2 0 0.5 1.9 1.7 4.3 2.8 5.3 2.4 11.8 6.1 13.5 7.8 0.7 0.6 1.7 1.2 2.2 1.2 2 0 16.3 10.5 20 14.8 3.6 4 4 5 3.9 9.6 -0.1 12.3 -5.5 24.2 -9 20z m-15.9 -21.6 c0 -1.3 -0.6 -3.4 -1.3 -4.6 -1.4 -2.7 -12.9 -9.6 -29.4 -17.8 l-11.3 -5.6 0 -4.9 c0 -4.1 0.4 -5.1 2.6 -6.6 3.3 -2.1 18.1 -4.2 34.4 -4.7 6.9 -0.3 13.3 -0.8 14.3 -1.1 1.2 -0.5 1.7 -1.8 1.7 -4.6 0 -2.1 0.5 -3.9 1 -3.9 0.6 0 1 -0.8 1 -1.9 0 -1.8 -0.3 -1.8 -7.2 -0.5 -4 0.8 -14.2 2.6 -22.6 3.9 -8.4 1.4 -23 4.1 -32.5 6 -9.4 1.9 -18.3 3.5 -19.6 3.5 -2.1 0 -1.8 0.4 2.3 3.4 2.6 1.8 8.1 5.1 12.2 7.2 4.1 2.1 9.4 5.4 11.8 7.4 2.4 2 6.9 4.9 9.9 6.4 3 1.6 7.7 4.8 10.5 7.2 2.8 2.4 5.5 4.4 6 4.4 0.5 0 1.5 0.7 2.3 1.6 1.2 1.5 11.5 7.2 13.2 7.4 0.4 0 0.7 -1 0.7 -2.2z"/>
  <path d="M38.6 310.9 c-3 -3.5 -3.5 -9 -1.2 -13.4 0.8 -1.5 1.7 -5.1 2.1 -7.9 0.4 -2.8 1.9 -8.9 3.5 -13.6 1.5 -4.7 4 -12.5 5.5 -17.5 1.4 -4.9 3.1 -9.8 3.7 -10.9 0.5 -1 1.7 -4.2 2.5 -7 2.5 -8.5 12.2 -32.5 17.5 -43.1 12.8 -25.9 19.8 -37.5 27.8 -46 2.1 -2.2 5 -6 6.5 -8.5 1.6 -2.5 4.7 -6.7 6.9 -9.5 2.3 -2.7 4.6 -5.6 5.1 -6.3 0.6 -0.8 2.1 -2.5 3.5 -3.9 1.3 -1.3 3.1 -3.5 4 -4.7 5.1 -7.8 31.1 -32.9 37.8 -36.6 1.5 -0.8 4.1 -2.5 5.6 -3.8 1.6 -1.2 3.4 -2.2 4.2 -2.2 0.7 0 1.4 -0.4 1.6 -0.9 0.4 -1.1 20.6 -14.5 23.8 -15.7 0.8 -0.4 3.3 -1.4 5.5 -2.4 2.2 -1 7.2 -3.1 11 -4.5 3.9 -1.5 7.7 -3.3 8.5 -4 2.6 -2.1 7.2 -3.4 16.5 -4.9 5 -0.8 12.3 -2.6 16.4 -4 5.4 -1.9 10.2 -2.8 18 -3.2 5.8 -0.3 14 -0.8 18.1 -1.1 5.6 -0.4 8.6 -0.1 11.4 1.1 2.1 0.9 4.7 1.6 5.7 1.6 1.1 0 1.9 0.6 1.9 1.3 -0.1 2.8 -4.4 10.4 -8.4 14.7 -2.5 2.6 -5.6 7.1 -7.1 10 l-2.7 5.3 2.3 1.9 2.4 1.8 -2.5 2.1 c-2.2 1.9 -3.3 2 -9.5 1.4 -11.4 -1 -29.8 4.4 -47 13.7 -23.9 13 -65.3 46.7 -82.8 67.4 -7 8.3 -19.3 24.8 -21.3 28.7 -0.8 1.5 -3.7 6 -6.3 10 -11 16.3 -25.4 45.6 -31.4 63.7 -5.1 15.2 -6.7 22.4 -6.8 29.6 -0.1 5.3 -2.5 10.3 -6.2 12.6 -5 3.3 -26 8.8 -33.3 8.8 -2.7 0 -5.2 0.6 -6 1.5 -2.3 2.2 -3.9 1.8 -6.8 -1.6z m39.6 -36.1 c0.2 -2.2 1 -3.6 2.4 -4.2 1.2 -0.6 2.5 -2.5 3.1 -4.8 0.9 -3.5 0.2 -5.1 -1.2 -2.8 -0.3 0.6 -1.7 1 -3.1 1 -1.9 0 -2.4 0.5 -2.4 2.6 0 2.3 -0.3 2.5 -4.2 2.2 l-4.3 -0.3 -0.3 -5.2 -0.3 -5.3 3.5 0 c2.6 0 3.6 -0.4 3.6 -1.5 0 -0.9 1 -2.9 2.2 -4.5 1.8 -2.5 2.9 -3 6.5 -3 3.4 0 4.3 0.4 4.4 1.8 0.1 2.5 1.4 -0.9 2.9 -7.8 0.7 -3 1.9 -6.5 2.7 -7.8 0.8 -1.3 3.4 -6 5.7 -10.5 2.4 -4.5 5 -9.5 5.9 -11.2 0.9 -1.6 3 -5.9 4.7 -9.4 4.8 -9.7 7 -13.4 9.5 -16.1 1.3 -1.4 3 -4.2 3.9 -6.4 0.9 -2.1 4 -7 6.9 -11 2.9 -3.9 6.9 -9.3 8.8 -12.1 4.8 -7 14.7 -18.6 17.8 -20.9 1.4 -1 3.8 -3.5 5.2 -5.6 1.5 -2 7.8 -7.8 14 -12.9 6.3 -5 12.8 -10.4 14.4 -11.9 5.9 -5.5 19.4 -15.2 21.1 -15.2 0.6 0 1.7 -0.6 2.3 -1.4 0.9 -1.1 0.6 -1.5 -1.4 -2 -2.1 -0.5 -2.5 -1.2 -2.5 -4.4 0 -5 1.4 -6.2 7.2 -6.2 4.7 0 4.8 0.1 4.8 3.1 l0 3 2.6 -2 c1.5 -1.2 3.1 -2.1 3.6 -2.1 0.5 0 3.9 -1.5 7.6 -3.3 l6.7 -3.2 -1.4 -3 c-1.8 -3.8 -3.3 -4.8 -4.4 -3 -0.5 1 -2.5 1.5 -6.2 1.5 -4.8 0 -5.5 -0.2 -5.5 -2 0 -2.2 -0.8 -1.9 -16.5 6.2 -7.8 4 -30.5 18.9 -34.4 22.5 -1.7 1.5 -4.7 3.9 -6.7 5.3 -9.7 6.8 -19.3 15.8 -28.1 26.5 -2.2 2.8 -6.3 7.3 -8.9 10 -5.3 5.4 -9.8 11.1 -12.8 15.9 -1 1.7 -3.7 5.3 -6 8 -4.2 5 -5.4 6.7 -14 19.7 -10.7 16.1 -29.4 59.4 -35.1 81.1 l-1.2 4.7 3.1 0.3 c2.5 0.2 3.2 0.8 3.4 3 0.3 2.3 0.8 2.7 4 3 3 0.2 3.8 0.8 4 2.6 0.5 3.3 2 2.7 2.4 -1z"/>
  <path d="M565.4 262 c-1.5 -0.6 -2.3 -2 -2.7 -5.1 -0.4 -3.2 -1.3 -4.8 -3.6 -6.7 -3.9 -2.9 -5.6 -6.4 -6.4 -12.2 -0.3 -2.5 -1.5 -6.4 -2.7 -8.7 -1.1 -2.3 -2 -5.3 -2 -6.6 0 -1.3 -1.1 -3.4 -2.5 -4.7 -1.4 -1.3 -3 -4 -3.5 -6.1 -0.6 -2.1 -1.8 -3.9 -2.8 -4.1 -1.5 -0.4 -4.1 -4.7 -7.5 -12.4 -0.5 -1.2 -1.9 -3.2 -3 -4.5 -1.2 -1.3 -3.5 -4.4 -5.2 -6.8 -1.6 -2.4 -4.2 -5.5 -5.7 -7 -1.6 -1.4 -2.8 -3.1 -2.8 -3.7 0 -0.6 -3.5 -4.7 -7.7 -9.2 -19.2 -20.1 -29.3 -32.5 -29.3 -35.9 0 -0.6 -1.6 -2.1 -3.5 -3.3 -1.9 -1.2 -4.6 -4.3 -6.1 -7.1 -1.5 -2.7 -3.1 -4.9 -3.5 -4.9 -0.4 0 -2.4 -1.6 -4.5 -3.5 -2 -1.9 -4.1 -3.5 -4.7 -3.5 -0.5 0 -4 -2.4 -7.6 -5.4 -3.6 -2.9 -8.4 -6.2 -10.6 -7.2 -2.2 -1 -6.7 -3.8 -10 -6.2 -4.6 -3.3 -6.6 -4.2 -8.7 -3.8 -2.1 0.4 -3.1 -0.1 -5.2 -2.9 -1.4 -1.8 -3.6 -3.5 -4.8 -3.7 -3.3 -0.4 -3.5 -3.6 -0.4 -4.8 2.9 -1.1 3 -1.6 1.7 -8.7 -0.9 -4.5 -4.8 -11.8 -9.9 -18.3 -3.2 -4.1 -3.6 -6.6 -1.2 -8.3 2.4 -1.6 2.1 -1.7 23 7 17.2 7.2 26.2 12 43.1 22.9 14.8 9.6 21.8 14 28.5 18.1 3.8 2.4 8.4 5.6 10.3 7.3 4.3 4 16.5 13.9 20.2 16.5 1.5 1.1 11.6 10.8 22.2 21.5 l19.5 19.5 5.7 11.8 c3.1 6.5 8 15.3 10.8 19.5 8 11.8 20.6 43.4 22.7 56.7 1.8 11.5 2 14.7 0.8 19.3 -1.2 4.9 -3.8 6.5 -7.8 5 -2.2 -0.9 -23.1 -0.4 -28.5 0.7 -1.1 0.2 -2.9 0 -4.1 -0.5z m21.6 -30.2 c-1 -3.5 -2.1 -7.3 -2.5 -8.6 l-0.8 -2.3 -1.1 2.3 c-1 1.9 -2 2.3 -5.9 2.2 -3.9 0 -4.7 0.3 -4.7 1.8 0 1.4 0.8 1.8 4.1 1.8 5.5 0 7.7 1.4 8.5 5.5 0.4 2.4 1.2 3.5 2.4 3.5 1.7 0 1.7 -0.3 0 -6.2z m-11.9 -19.3 c5 0 5 -0.1 2.2 -5.5 -0.7 -1.4 -1.3 -3.7 -1.3 -5.2 0 -1.5 -0.4 -3 -1 -3.3 -0.5 -0.3 -2.2 -3.2 -3.7 -6.3 -1.5 -3.1 -3.1 -6.1 -3.5 -6.7 -2.7 -3.2 -7.8 -12.1 -11.1 -19.5 -2.1 -4.7 -4.3 -9.5 -5 -10.6 -3.1 -5.6 -31.8 -35.5 -39.7 -41.4 -4.9 -3.7 -5.1 -3.9 -15.5 -13 -3.8 -3.3 -8.8 -7.1 -11 -8.3 l-4 -2.3 0.3 4.8 c0.4 4.3 0.2 4.8 -2.1 5.3 -1.3 0.4 -4.1 0.5 -6.3 0.3 l-3.9 -0.3 -0.3 -5.2 c-0.3 -5.6 -0.3 -5.6 6.8 -6.6 2.2 -0.2 1.7 -0.8 -3.8 -4.2 -3.5 -2.2 -9 -5.7 -12.2 -7.7 -6.9 -4.4 -8 -4.6 -8 -1.5 0 1.3 -0.5 2.8 -1.2 3.5 -0.9 0.9 -0.5 1.2 1.9 1.2 4.4 0 6.3 0.9 6.3 3.1 0 1.4 0.7 1.9 2.8 1.9 3.9 0 5.2 1.7 5.2 6.7 0 3.7 -0.4 4.5 -2.5 5.5 l-2.5 1.1 3.8 2.5 c12.2 8.2 28 24.1 36.7 36.9 1.8 2.6 6.4 8.2 10.2 12.3 12.2 13.4 21.8 25.8 33.4 43.1 2.3 3.4 2.8 3.7 3.9 2.4 1.8 -2.1 7.7 -1.9 10.6 0.4 5.8 4.6 9.7 14.6 6.4 16.6 -0.6 0.4 -0.3 1.5 0.7 3 l1.8 2.3 0.5 -2.6 c0.5 -2.5 1 -2.7 5.1 -2.7z"/>
 </g>
 <g fill="#ffffff">
  <path d="M340.6 669 c-6 -0.5 -12 -1.1 -13.5 -1.5 -1.4 -0.4 -5.3 -0.9 -8.6 -1.1 -3.3 -0.3 -7.3 -0.9 -9 -1.4 -1.6 -0.5 -5 -1.1 -7.5 -1.5 -2.5 -0.3 -7.4 -1.6 -11 -2.9 -7.6 -2.8 -7.9 -4.2 -2.3 -9.3 4.6 -4.2 3.9 -5.8 -2.3 -5.8 l-4.9 0 0 3.7 c0 2.8 -0.6 4.2 -2.3 5.4 -2.8 1.9 -2.8 1.9 -3.5 -2.8 -0.4 -2.9 -0.2 -3.8 0.8 -3.8 0.8 0 2 -0.8 2.7 -1.8 0.7 -1 3.2 -3.1 5.5 -4.6 l4.2 -2.8 2.5 2.8 2.4 2.9 1.3 -2.8 c1.1 -2.4 1 -2.9 -0.7 -4.1 -1.7 -1.3 -1.3 -1.4 3.4 -1.4 2.8 -0.1 5.2 0.2 5.2 0.4 0 0.3 -0.9 1.7 -2 3.2 -2.8 3.4 -1 5.4 2.2 2.5 3.8 -3.4 4.3 -3.4 14.5 -0.7 14.9 3.9 18.7 4.4 33.3 4.6 14.6 0.1 24.9 -1.6 41.2 -6.8 8.4 -2.7 31.4 -12.4 40.1 -17 2.7 -1.4 5.1 -2.3 5.4 -2 0.3 0.3 1.5 0 2.7 -0.6 2.1 -1.2 8.6 -1.9 8.6 -1 0 0.3 -0.7 1 -1.7 1.7 -0.9 0.7 -1.3 1.7 -0.9 2.3 1.1 1.8 3.7 1.4 4.3 -0.7 0.3 -1.2 1.4 -1.8 2.9 -1.8 3.4 0 3 1.5 -1 3.4 -3.8 1.8 -4.7 3.7 -3.4 7.2 0.7 2.1 1.2 2.3 5 1.7 2.4 -0.4 5 -1.4 6 -2.3 2.2 -2 3.6 -1 1.8 1.2 -2.2 2.7 -14.1 9.2 -27.7 15.2 -7 3.1 -13.9 6.4 -15.3 7.3 -2.9 2 -17 7 -19.7 7 -1.1 0 -2.3 0.4 -2.9 0.9 -1.4 1.3 -10.1 3.7 -17.9 5.1 -3.8 0.6 -7.7 1.4 -8.5 1.7 -2.8 0.9 -18.5 1.1 -29.4 0.3z m-17.4 -12.5 c0.2 -1.2 -0.4 -2.1 -1.6 -2.3 -2.7 -0.6 -3.8 1.9 -1.9 4.1 1.8 1.9 2.9 1.3 3.5 -1.8z m-19.7 -1 c0 -1.1 -0.8 -2.1 -1.9 -2.3 -1.1 -0.3 -1.6 0 -1.2 0.7 0.5 0.7 0.1 0.9 -0.8 0.5 -1.9 -0.7 -2.1 0.7 -0.4 2.4 1.8 1.8 4.3 1 4.3 -1.3z m-6.9 -5.2 c0.1 -3.8 -1.2 -3.4 -4.8 1.4 -3.4 4.4 -2.7 6 1.5 3.5 2.5 -1.4 3.2 -2.5 3.3 -4.9z m145.5 -15.5 c1 -1.8 0.8 -2.4 -0.7 -3.5 -3.7 -2.7 -6.6 -0.4 -4.4 3.6 1.4 2.7 3.6 2.7 5.1 -0.1z m-2.6 -8.8 c1.9 -3.7 1.9 -4 -0.3 -4 -2.5 0 -4.2 1.9 -4.2 4.7 0 3.3 2.6 2.9 4.5 -0.7z"/>
  <path d="M203.1 667.9 c-2 -0.8 -2.2 -1.4 -1.9 -5.2 1.1 -10.9 6.2 -40.9 8 -47.2 3.4 -11.5 5.6 -22.4 7.3 -34.9 0.8 -6.5 2.2 -13.2 3 -15 0.8 -1.7 1.9 -5.3 2.5 -8.1 0.6 -2.7 1.8 -5.7 2.6 -6.6 2.4 -2.6 4.3 -12.9 5.9 -30.8 2.1 -23.7 2.4 -25.2 5.5 -28.1 1.5 -1.4 3 -3.5 3.4 -4.8 0.7 -1.9 0.4 -2.2 -2.3 -2.2 -3.1 0 -3.1 0 -2.5 -4.2 0.9 -5.6 2.4 -7.3 2.4 -2.6 0 2 0.4 3.9 0.9 4.2 1.5 1 4.1 -0.5 4.1 -2.3 0 -1 0.6 -2.6 1.4 -3.7 1.2 -1.5 1.7 -1.6 2.7 -0.7 1 1 0.8 2.1 -0.7 5.4 -1 2.3 -2.4 4.8 -3.1 5.5 -0.7 0.7 -1.4 2.3 -1.5 3.6 -0.4 3.3 3.7 3.9 4.5 0.6 0.6 -2.2 0.7 -2.2 2.1 -0.3 1.1 1.6 1.7 1.7 2.9 0.7 2.4 -2.1 2.8 -6.4 0.6 -6.9 -2.4 -0.7 -2.4 -1.2 -0.1 -2.9 2.9 -2.2 3.2 -1.7 3.2 5.5 0 5.2 -0.4 7 -1.5 7.5 -2 0.7 -1.9 4.2 0.1 5 1.4 0.6 1.6 1.9 1.1 8.9 -0.4 7.1 -1 9.2 -4.7 16.2 -2.3 4.4 -4.9 10.7 -5.7 14 -0.8 3.3 -1.9 6.5 -2.3 7 -0.4 0.6 -0.9 5.7 -0.9 11.4 -0.1 5.7 -0.3 10.7 -0.5 11 -0.2 0.3 -0.9 6.5 -1.5 13.6 -0.6 7.2 -1.6 15.3 -2.1 18 -0.5 2.8 -1.1 6.6 -1.4 8.5 -0.3 1.9 -1 5.1 -1.6 7 -0.7 2.4 -0.6 4.5 0.2 7 0.6 1.9 1.2 4.1 1.4 4.8 0.7 2.5 3.9 1 8.8 -4.2 13.5 -14.2 17.1 -17.8 26.7 -26.7 5.7 -5.3 12 -10.9 13.9 -12.4 1.9 -1.6 7.1 -6.3 11.5 -10.5 4.4 -4.3 10.7 -9.7 14 -12.1 3.3 -2.3 8.7 -6.9 12 -10 7.1 -6.9 27.9 -22.8 35 -26.9 2.8 -1.6 6.2 -4.1 7.5 -5.6 1.4 -1.4 5 -4.5 8 -6.7 3 -2.2 8.2 -6.6 11.5 -9.7 11.2 -10.5 14.7 -12.6 38.5 -23.3 13.8 -6.2 17 -7.5 24.5 -9.6 4.4 -1.3 9.7 -3 11.8 -3.9 3.3 -1.3 4.4 -1.3 9.5 -0.1 6 1.4 14.8 1.6 29.6 0.4 11.9 -1 15.6 0.6 17.5 7.3 0.7 2.6 2.1 7 3.1 9.7 1.1 2.8 2.6 7.5 3.5 10.5 0.9 3 2 6.9 2.6 8.5 0.6 1.7 2 5.7 3.1 9 1.1 3.3 3.3 9.4 4.9 13.6 1.6 4.2 4.3 15 6 24 3.1 16.3 3.5 18.6 5.8 30.9 2.2 11.9 6.3 28.7 9.8 40.7 1.3 4.5 2.6 11.4 2.9 15.3 0.2 3.9 1.1 8.6 1.8 10.5 1.6 3.8 2.3 11.5 1.3 13.2 -1 1.6 -4.9 0.3 -11.5 -3.6 -2.9 -1.7 -5.6 -3.1 -6 -3.1 -1.7 0 -25.5 -18 -35.1 -26.5 -9.5 -8.5 -26 -21.2 -38.1 -29.4 -3.6 -2.5 -11.4 -8.1 -17.5 -12.6 -6 -4.5 -13.2 -9.5 -16 -11 -7.4 -4.1 -17.5 -10.9 -17.5 -11.7 0 -0.5 0.6 -0.8 1.4 -0.8 2.7 0 2.8 -3.3 0.1 -5.9 -2.2 -2.3 -2.8 -2.4 -4.6 -1.3 -2.8 1.8 -4.9 0 -3.3 -2.6 0.6 -0.9 1.6 -1.7 2.2 -1.7 1.7 0 4 -3.6 3.5 -5.6 -0.3 -0.9 0 -2 0.6 -2.3 0.6 -0.4 1.1 -1.6 1.1 -2.7 0 -1.2 0.7 -1.9 2 -1.9 1.2 0 2.5 -1 3.1 -2.3 0.6 -1.3 2 -2.9 3.1 -3.6 1.7 -1.1 2.3 -1 3.6 0.3 1.4 1.4 1.4 1.8 -0.8 4.1 -1.4 1.5 -3 2.3 -4 2 -2.5 -0.8 -5.9 2.6 -6 6 -0.3 5 -0.1 5.5 2.5 5.5 1.9 0 2.6 -0.7 3.1 -2.7 1 -4.9 1.3 -5.3 3.8 -5.3 1.4 0 3.6 -0.4 4.9 -0.9 2 -0.8 3.8 -0.3 9.4 2.6 3.7 1.9 7.7 4.3 8.8 5.3 3.1 2.8 18.5 12.4 23.1 14.4 2.6 1.1 8.2 5.9 14.5 12.3 5.7 5.8 12.4 12.2 14.7 14.1 2.9 2.4 5.6 6 7.9 10.7 7.5 15.3 16.9 19.9 25 12.3 2.9 -2.8 2.9 -4.8 -0.2 -9.4 -1.4 -2 -2.5 -4.3 -2.5 -5.2 0 -0.8 -1.7 -5.3 -3.9 -10.1 -2.1 -4.7 -4.4 -11.1 -5.1 -14.1 -0.7 -3 -1.9 -6.7 -2.6 -8.1 -0.7 -1.4 -2.1 -5.9 -3.2 -10 -2.6 -9.6 -9.9 -33.9 -16.7 -55.4 -2.9 -9.3 -5.9 -18.9 -6.5 -21.2 -0.6 -2.4 -1.6 -4.3 -2.3 -4.3 -0.7 0 -2.5 -0.7 -4.1 -1.5 -2.6 -1.4 -3.1 -1.3 -7.5 1.1 -2.6 1.4 -6.3 3.9 -8.2 5.5 -3.9 3.5 -23.5 16.6 -29.4 19.8 -4.2 2.2 -12.7 8.1 -15.8 10.9 -1 1 -4.7 3.3 -8.2 5.2 -3.5 1.9 -9.4 5.6 -13.2 8.1 -3.7 2.6 -9.5 6.1 -12.8 7.9 -3.3 1.7 -6.9 4 -8 5 -1.1 1 -3.5 2.5 -5.2 3.4 -1.8 0.9 -3.3 2.1 -3.3 2.6 0 1 -5.4 4.8 -13.1 9.2 -4.1 2.3 -5.2 2.6 -7.9 1.7 -2.7 -1 -3.4 -0.8 -8 3.1 -2.7 2.3 -5 4.5 -5 4.8 0 0.4 -1.8 2.7 -4 5.2 -2.2 2.4 -4 4.7 -4 5.1 0 0.3 -0.9 1 -1.9 1.5 -2.6 1.2 -10.2 7.6 -16.7 14.1 -2.9 2.9 -7.9 6.7 -11.2 8.5 -3.3 1.8 -7.5 4.5 -9.3 6.1 -1.9 1.5 -4.9 3.7 -6.7 5 -24.4 16.7 -28 19.3 -30 21.9 -1.5 2 -6.8 4.8 -9.2 4.8 -0.9 0 -4.1 1.7 -7.1 3.9 -3 2.1 -6.9 4.6 -8.6 5.5 -2.2 1.1 -3.3 2.4 -3.3 3.9 0 2 -2.7 6 -8.9 12.9 -1.3 1.5 -4.2 3.4 -6.5 4.3 -2.2 0.9 -5 2.5 -6.1 3.5 -2.7 2.4 -5.5 3 -8.4 1.9z m231.8 -104.8 c0.8 -1.4 0.5 -2.3 -1.7 -4.4 -4 -3.9 -5.1 -2.4 -4.3 5.6 0.2 1.5 5.1 0.6 6 -1.2z m2.7 -14.3 c1.2 -3.8 -4.9 -6.5 -7.6 -3.3 -1 1.3 -1 1.9 0.5 3.5 2.4 2.7 6.2 2.6 7.1 -0.2z m-188.7 -35.5 c2.6 -2.2 3.2 -6.6 1.1 -7 -1 -0.3 -2.1 1 -3 3.4 -0.8 2.1 -1.6 4.1 -1.8 4.6 -0.6 1.3 1.5 0.7 3.7 -1z m-9.9 -2.8 c0 -0.7 0.4 -1.5 1 -1.7 0.5 -0.1 1.3 -1.8 1.6 -3.6 0.6 -3.1 0.5 -3.4 -1.7 -3 -1.6 0.2 -2.4 1 -2.4 2.3 0 1.1 -0.4 3 -0.8 4.2 -0.9 2.5 -0.1 4.7 1.4 3.8 0.5 -0.4 0.9 -1.2 0.9 -2z m0 -12.7 c0 -1.3 -0.6 -1.8 -1.7 -1.6 -1.3 0.2 -1.9 1.4 -2.1 4.3 l-0.2 4 2 -2.4 c1.1 -1.3 2 -3.2 2 -4.3z m7.3 2.3 c2.6 -1 4.3 -3.9 3 -5.2 -1.5 -1.5 -8.3 1 -8.3 3 0 3.2 1.3 3.7 5.3 2.2z m264.1 -30.4 c-1 -2.7 -4.4 -2.1 -4.4 0.7 0 1.3 0.6 2.6 1.3 2.9 1.8 0.7 3.9 -1.7 3.1 -3.6z"/>
  <path d="M167.4 597.7 c-4.4 -4.5 -9.1 -9.5 -10.4 -11.2 -1.4 -1.6 -4.1 -4.2 -6 -5.7 -5.7 -4.5 -18.7 -17.1 -19.8 -19.4 -0.6 -1.2 -3.9 -5.4 -7.2 -9.5 -3.4 -4 -7.6 -9.3 -9.3 -11.8 -1.7 -2.5 -5.1 -6.9 -7.7 -9.7 -2.6 -2.9 -5.5 -7.4 -6.5 -10 -3 -8.3 -6.4 -15.4 -10 -20.9 -3.4 -5.4 -5 -8.9 -10 -22.5 -1.6 -4.1 -4.1 -10.3 -5.7 -13.6 -1.5 -3.4 -4.6 -12 -6.7 -19 -2.2 -7.1 -5.5 -16.3 -7.5 -20.4 -1.9 -4.1 -3.3 -7.8 -3 -8.1 0.2 -0.4 2.1 -0.9 4.3 -1.3 2.1 -0.3 4.1 -1.3 4.5 -2.1 0.4 -1.2 1 -1.3 3 -0.4 2.1 1 2.3 1.5 1.5 3.1 -0.9 1.6 -1.7 1.8 -5 1.3 -4.4 -0.8 -4.8 -0.1 -2.3 4.7 0.9 1.7 1.3 3.9 1.1 5 -0.7 2.5 1.2 6.8 2.9 6.8 1.8 0 2.8 -3.8 1.4 -5.5 -1.7 -2.1 2.2 -7.5 5 -6.8 1.1 0.3 2 0.6 2 0.7 0 0.8 -3.4 10.5 -4.3 12.4 -0.9 1.8 -0.7 2.6 0.7 4 1.4 1.2 2 1.4 2.3 0.5 0.3 -0.7 1.5 -1.3 2.8 -1.3 1.6 0 2.5 -0.7 2.9 -2.4 0.3 -1.3 1.5 -2.6 2.6 -2.9 1.6 -0.4 2.1 0.1 2.5 2.7 0.8 4.2 0.7 5.1 -0.7 5.1 -0.7 0 -1.4 1.2 -1.6 2.8 -0.3 2.8 1.9 3.9 3.4 1.6 0.6 -1.1 3 3.4 5.3 10.1 0.7 1.9 1.9 5.3 2.6 7.5 0.8 2.2 2.1 6.5 3 9.5 0.9 3 2.7 7.2 4.1 9.2 1.3 2.1 2.4 4.5 2.4 5.3 0 3.4 16.5 31.4 22.9 38.9 1.5 1.7 3.8 4.9 5.1 7.1 1.3 2.2 4.8 7 7.7 10.7 2.9 3.7 5.3 7.1 5.3 7.6 0 0.5 0.7 1.5 1.6 2.3 0.9 0.7 5.3 5.9 9.9 11.5 8.7 10.7 10 13.9 5.9 15.4 -1.7 0.7 -3.4 2.9 -3.4 4.5 0 1 3.5 1.4 4.5 0.5 0.9 -0.7 1.6 -0.6 2.4 0.4 1 1.2 0.8 1.6 -0.8 2.1 -2.6 0.8 -2.7 3.1 -0.3 4.3 3.8 2.1 8.3 -2.1 6 -5.7 -0.7 -1.2 -0.8 -2.3 -0.1 -3.5 0.9 -1.6 1.3 -1.5 4.1 1.5 2.4 2.5 2.9 3.9 2.5 6 -0.4 2 0.1 3 1.8 4.2 2.1 1.5 2.1 1.9 0.9 4.4 l-1.3 2.8 -1.1 -2.8 c-1.4 -3.8 -4 -3.1 -4.4 1.1 -0.2 2.4 0.2 3.8 1.5 4.7 1 0.7 1.5 1.6 1.2 1.9 -0.3 0.3 -4.1 -3.1 -8.5 -7.7z"/>
  <path d="M405 544 c0 -1.1 -0.9 -2.5 -2 -3.2 -2.2 -1.4 -2.7 -3.8 -0.7 -3.7 1.9 0 6 5.8 5.3 7.4 -0.8 2.2 -2.6 1.8 -2.6 -0.5z"/>
  <path d="M410 533.1 c0 -0.6 1 -1.7 2.2 -2.5 1.9 -1.4 2.4 -1.4 3.6 -0.2 0.8 0.8 1.1 1.9 0.8 2.5 -0.9 1.3 -6.6 1.5 -6.6 0.2z"/>
  <path d="M559.4 520.9 c-0.3 -0.5 -0.1 -1.6 0.5 -2.3 0.8 -1 0.8 -2.2 0.1 -4 -1.6 -4.2 -1.2 -4.8 2 -3.1 4.1 2.1 5 1.9 6.1 -1.5 0.7 -1.9 1.8 -3 2.9 -3 2.7 0 3.4 -1.7 2 -5 -1.6 -3.9 -4.5 -4.4 -7 -1.3 -1.1 1.4 -2 3 -2 3.4 0 0.5 -1.1 0.9 -2.4 0.9 -1.4 0 -3.7 0.5 -5.2 1 -1.9 0.8 -3 0.8 -3.8 0 -0.7 -0.7 -0.3 -1 1.2 -1 1.3 0 2.5 -0.6 2.8 -1.3 0.3 -0.8 1.6 -1.2 3.2 -0.9 1.7 0.2 3.3 -0.2 4.1 -1.2 1.1 -1.3 0.8 -1.8 -1.9 -3.5 -1.8 -1.1 -3.9 -1.7 -4.6 -1.4 -0.8 0.3 -1.4 0.2 -1.4 -0.2 0 -0.7 4.3 -6.1 9.8 -12.5 4.7 -5.5 10.1 -18.5 11.2 -27.2 0.6 -5 1.4 -7.6 2.6 -8.5 2.2 -1.6 5 -1.7 6 -0.2 0.3 0.6 1.5 0.9 2.5 0.6 2.9 -0.8 2.4 2.7 -0.6 4.3 -1.9 1 -3.1 1.1 -4.9 0.2 -1.9 -0.9 -2.7 -0.8 -3.7 0.4 -2.4 2.9 2.4 5.9 11.1 7 7.3 1 9.2 1.7 8.7 3.3 -2.9 9.7 -5.8 16.3 -9.6 21.6 -1.6 2.2 -4.2 6.7 -6 10 -3.3 6.5 -8.3 12.5 -11.8 14.4 -1.2 0.6 -3.6 3.3 -5.4 6 -3.3 5.1 -5.4 6.8 -6.5 5z m27.1 -57.3 c0 -2.6 -1.9 -3.1 -3.9 -1.1 -2 2.1 -1.1 3.7 1.7 3.3 1.4 -0.2 2.2 -1 2.2 -2.2z"/>
  <path d="M341.8 511.3 c-4 -0.6 -3.5 -2.4 0.5 -1.9 1.7 0.3 3.6 0.5 4 0.5 0.5 0.1 0.5 0.6 0.2 1.1 -0.3 0.6 -0.9 0.9 -1.3 0.9 -0.4 -0.1 -1.9 -0.4 -3.4 -0.6z"/>
  <path d="M351.2 505 c0.7 -1.1 1.6 -2 2.1 -2 0.4 0 0.3 0.9 -0.3 2 -0.6 1.1 -1.5 2 -2 2 -0.6 0 -0.5 -0.9 0.2 -2z"/>
  <path d="M321.3 500.9 c-5.3 -3.7 -29.7 -17.6 -33.9 -19.4 -2.9 -1.2 -3.2 -1.2 -2.7 0.1 0.4 1.2 0 1.4 -2.3 0.8 -3.5 -0.8 -22.3 -10 -24.4 -11.9 -0.8 -0.7 -3.2 -2 -5.3 -2.9 -5.5 -2.2 -4.2 -4 3.4 -4.8 11.1 -1.2 14.9 -1.1 16.7 0.4 3.5 3.1 5.7 3.7 10 2.7 3.5 -0.8 5.4 -0.5 11.4 1.6 3.9 1.4 8.2 3.2 9.4 4 1.3 0.8 3 1.5 3.9 1.5 1.8 0 19.7 9.3 23.4 12.2 3.1 2.4 3.4 5.7 0.8 8.5 -1.9 2.1 -2.1 2.1 -4.9 0.7 -3.5 -1.8 -5.1 -0.8 -4.6 2.7 0.4 3 5.4 4 6.4 1.4 0.6 -1.4 0.9 -1.3 3 0.6 5.4 5.1 -3.3 6.6 -10.3 1.8z m-0.7 -11.6 c0.3 -1 0.6 -2.2 0.7 -2.8 0.1 -0.5 -1.8 -1.2 -4.3 -1.5 -3.4 -0.4 -4.4 -0.9 -4.1 -2 1.3 -5.1 1.3 -6 -0.2 -6 -0.8 0 -2 0.7 -2.8 1.6 -1 1.3 -1 2 0 3.6 0.9 1.5 0.9 2.3 0.1 3.3 -0.9 1.1 -0.5 1.8 2.2 3.5 4.1 2.5 7.8 2.6 8.4 0.3z"/>
  <path d="M342.7 494 c-3.1 -2.5 -1.7 -3.3 2.6 -1.5 4.3 1.8 4.4 2.1 1.7 2.8 -1.1 0.3 -3 -0.3 -4.3 -1.3z"/>
  <path d="M594.6 454.1 c-0.4 -0.6 0.5 -3.4 2 -6.3 2.3 -4.6 2.8 -5 3.9 -3.5 0.7 0.9 2 1.7 2.9 1.7 2 0 2 0.5 -0.1 4.3 -1 1.8 -1.8 3.3 -1.8 3.3 0 0.8 -6.5 1.3 -6.9 0.5z"/>
  <path d="M601 439.5 c0.7 -0.8 1.7 -1.5 2.2 -1.5 0.6 0 0.5 0.7 -0.2 1.5 -0.7 0.8 -1.7 1.5 -2.2 1.5 -0.6 0 -0.5 -0.7 0.2 -1.5z"/>
  <path d="M160 437.5 c-0.8 -0.2 -3.1 -0.6 -5.1 -0.9 -3.4 -0.6 -3.6 -0.9 -4.5 -6 -0.6 -3 -0.8 -7.6 -0.5 -10.2 l0.6 -4.9 4.9 -0.3 c2.7 -0.2 5.2 0 5.6 0.5 1.1 1.1 2.4 22.3 1.3 22.2 -0.4 -0.1 -1.5 -0.3 -2.3 -0.4z"/>
  <path d="M172.6 436.7 c-1.5 -5.5 -3.7 -19.7 -3.2 -20.6 0.4 -0.6 3.4 -1.1 6.7 -1.1 l5.9 0 0 5.3 c0 2.8 0.9 7.6 2.1 10.6 1.5 4.1 1.7 5.6 0.8 6.2 -2 1.2 -12 0.9 -12.3 -0.4z"/>
  <path d="M605.7 437.4 c-0.8 -0.8 0.1 -2.4 1.4 -2.4 0.5 0 0.9 0.7 0.9 1.5 0 1.5 -1.2 2 -2.3 0.9z"/>
  <path d="M247.8 435.6 c-3.6 -1.1 -6.7 -4.5 -10.2 -11.5 -1.8 -3.3 -1.3 -4.1 2.4 -4.1 3.5 0 8.8 4.9 12.2 11.2 3.4 6.1 2.8 6.7 -4.4 4.4z"/>
  <path d="M263.1 433.2 c-2.2 -4.3 -6.3 -8.3 -10.8 -10.6 -1.8 -0.9 -3.3 -1.8 -3.3 -2.1 0 -0.2 2.8 -0.4 6.3 -0.3 3.4 0 12.6 -0.9 20.4 -2 20.4 -2.8 23.3 -2.3 23.3 4.2 0 2.3 0.6 5.1 1.4 6.1 1.4 1.9 1 2.1 -7.7 3.7 -5.1 1 -9.9 1.5 -10.9 1.2 -0.9 -0.2 -3.7 -2.9 -6.3 -5.9 -4.3 -5 -7.5 -7 -7.5 -4.5 0 0.5 1.1 3.5 2.5 6.5 2.6 5.9 2.5 6 -2.8 6.9 -2.3 0.4 -3 0 -4.6 -3.2z"/>
  <path d="M193.1 427.8 c-4.5 -8.9 -5 -12.5 -1.6 -12 1.1 0.2 4.4 0.7 7.4 1.2 3 0.5 6.2 1.7 7.1 2.7 1.9 2 5.5 14.1 4.5 15.1 -0.3 0.3 -3.4 0.8 -6.8 1 l-6.2 0.4 -4.4 -8.4z"/>
  <path d="M221.7 434.3 c-0.3 -0.5 -1.9 -3.3 -3.6 -6.4 -2.6 -4.7 -2.8 -5.9 -1.8 -7.3 1.1 -1.5 2.2 -1.7 6.8 -1.1 l5.5 0.7 2 5.6 c1.2 3.2 2.4 6.5 2.9 7.5 0.6 1.5 0 1.7 -5.3 1.7 -3.4 0 -6.3 -0.3 -6.5 -0.7z"/>
  <path d="M306 430.2 c0 -0.6 0.4 -1.3 0.9 -1.6 0.4 -0.3 1.1 -3.5 1.4 -7.2 0.2 -3.6 0.9 -7 1.5 -7.6 0.6 -0.6 5.2 -1.1 10.4 -1.2 7.8 -0.1 9.2 0.1 8.9 1.4 -0.2 0.8 -0.7 4.1 -1.1 7.3 -0.3 3.1 -1.2 6.3 -2 7.1 -1.9 1.8 -20 3.4 -20 1.8z"/>
  <path d="M413.6 421.9 c-0.4 -5.2 -1.1 -11.2 -1.6 -13.4 -0.5 -2.2 -0.7 -4.2 -0.4 -4.5 0.3 -0.3 5.4 -0.5 11.4 -0.5 l10.8 0 -0.5 5 c-0.3 2.8 0 8.3 0.6 12.4 0.7 4.1 0.8 7.8 0.3 8.3 -0.4 0.4 -5.1 1.1 -10.4 1.5 l-9.5 0.6 -0.7 -9.4z"/>
  <path d="M341.8 429.2 c-3.1 -0.3 -3.8 -0.7 -3.8 -2.5 0.1 -3 2.6 -14.7 3.4 -15.4 1 -1 17.6 -1.6 17.6 -0.7 0.3 5.4 1.1 10.5 1.9 12.6 0.8 2.1 0.6 2.9 -0.7 4.1 -1.8 1.5 -11.9 2.6 -18.4 1.9z m11.7 -5.1 c1.8 -0.7 1.8 -0.9 -0.7 -2.5 -3.3 -2.2 -5.3 -1.3 -3.5 1.4 1.3 2.2 1.3 2.2 4.2 1.1z"/>
  <path d="M445.7 418.3 c-1.4 -5.9 -2.8 -12.9 -3.1 -15.5 -0.6 -5.4 -1.6 -5 10.7 -5.1 5.9 0 8.2 1.3 7.2 4 -0.2 0.7 0 6.7 0.6 13.4 0.5 6.7 0.8 12.3 0.6 12.5 -0.2 0.2 -3.3 0.7 -6.9 1 l-6.5 0.5 -2.6 -10.8z"/>
  <path d="M373.3 422.8 c-1.6 -6.6 -1.7 -13.5 -0.2 -14.3 1.3 -0.9 19.6 -3.3 27.4 -3.6 7.3 -0.4 7.4 -0.1 4.2 12.1 l-2.2 8.5 -4 0.7 c-2.2 0.3 -8.5 0.9 -14 1.3 l-10 0.7 -1.2 -5.4z m15 -5.7 c1.4 -0.2 0.7 -2 -1.3 -3.1 -1.5 -0.8 -2.7 -0.7 -4.9 0.5 -1.6 0.8 -3.2 1.9 -3.5 2.4 -0.4 0.7 4.5 0.8 9.7 0.2z"/>
  <path d="M481.3 427.3 c-3.6 -0.4 -4.2 -0.8 -4.7 -3.1 -0.8 -3.7 -3.6 -23.3 -3.6 -24.8 0 -1.2 2.3 -1.6 15.3 -2.7 l4.7 -0.5 0 8 c0 4.3 0.5 11 1.1 14.9 0.7 3.8 1 7.1 0.8 7.3 -0.8 0.8 -9.4 1.3 -13.6 0.9z"/>
  <path d="M506.7 411.4 c-2 -8.1 -3.3 -15.2 -3 -15.7 0.8 -1.3 22.5 0.3 24.2 1.8 1.1 1.1 1 2.4 -0.9 8.6 -1.2 4 -2.2 9.7 -2.2 12.6 0 2.9 -0.3 5.5 -0.7 5.7 -0.3 0.2 -3.6 0.7 -7.2 1 l-6.6 0.7 -3.6 -14.7z"/>
  <path d="M542.4 424.3 c-2.8 -0.4 -3.3 -0.9 -4.3 -4.8 -0.6 -2.4 -1.1 -7.3 -1.1 -10.8 0 -4.5 -0.5 -6.8 -1.5 -7.7 -3.6 -3 -1.6 -3.5 12.7 -3.4 16.6 0.2 16.3 0 16.9 11.9 l0.4 7 -5 2.7 c-2.7 1.4 -5.3 2.4 -5.7 2.2 -0.4 -0.3 -1.6 0 -2.8 0.6 -1.1 0.5 -2.9 1.5 -4 2 -1.1 0.6 -2.1 0.9 -2.2 0.8 -0.2 0 -1.7 -0.3 -3.4 -0.5z"/>
  <path d="M77.2 418.3 c0.2 -1.2 1.1 -1.7 2.3 -1.5 3.6 0.7 3.5 1.5 -0.3 2.7 -2 0.6 -2.3 0.4 -2 -1.2z"/>
  <path d="M57.2 408.8 c-0.7 -0.7 -1.2 -2.1 -1.2 -3.2 0 -1.8 0.1 -1.9 2 -0.1 2 1.8 2.7 4.5 1.2 4.5 -0.4 0 -1.3 -0.5 -2 -1.2z"/>
  <path d="M315.1 403.1 c1.4 -0.5 3.5 -1.4 4.7 -2 1.8 -1 2.2 -0.9 2.2 0.3 0 1.7 -2.2 2.6 -6.3 2.5 -3.1 -0.1 -3.1 -0.1 -0.6 -0.8z"/>
  <path d="M284.1 401.5 c0.3 -1.4 1.3 -2.1 3.4 -2.2 1.7 -0.1 2.3 0 1.5 0.4 -0.8 0.3 -2.3 1.3 -3.4 2.2 -1.7 1.5 -1.8 1.5 -1.5 -0.4z"/>
  <path d="M609 399 c0 -1.9 0.3 -2.1 1.2 -1.2 0.9 0.9 0.9 1.5 0 2.4 -0.9 0.9 -1.2 0.7 -1.2 -1.2z"/>
  <path d="M313 398.9 c0 -2.5 2.2 -3.9 6 -3.8 l3.5 0.1 -2.9 0.8 c-1.5 0.5 -3.7 1.7 -4.7 2.6 -1.5 1.4 -1.9 1.4 -1.9 0.3z"/>
  <path d="M104.5 394.8 c-2.2 -1.2 -5.1 -2.8 -6.5 -3.5 -1.4 -0.7 -5.9 -3.1 -10.1 -5.2 -4.1 -2.2 -8.1 -4.6 -8.8 -5.5 -0.8 -0.9 -1.8 -1.6 -2.3 -1.6 -0.5 0 -3.2 -2 -6 -4.4 -2.8 -2.4 -7.5 -5.6 -10.5 -7.2 -3 -1.5 -7.4 -4.3 -9.8 -6.3 -2.4 -2 -7 -4.9 -10.2 -6.6 -3.2 -1.6 -8.7 -4.8 -12.3 -7 -3.6 -2.3 -7.8 -5 -9.3 -5.9 -3.6 -2.2 -2.8 -3.2 3 -4 2.7 -0.4 12.6 -2.3 22.2 -4.2 9.6 -1.9 23.1 -4.4 30 -5.5 6.9 -1.1 17.3 -2.9 23.1 -4.1 5.8 -1.1 11.6 -2 13 -1.9 1.4 0 4.2 0.1 6.3 0.1 2.7 0 3.7 0.4 3.7 1.5 0 1.2 -0.6 1.5 -2.1 1 -3 -1 -6.2 2.1 -4.8 4.7 0.9 1.6 0.7 2 -1 2.5 -2.3 0.6 -3 5 -1.1 6.9 0.7 0.7 0.7 1.1 -0.2 1.2 -0.7 0 -3.2 0.5 -5.5 1.1 -2.2 0.6 -7.6 1 -12 0.9 -11.5 -0.2 -29.8 2.2 -33.3 4.4 -5.4 3.3 -4.1 5.1 8.3 11.2 18 8.9 28.7 15.5 29.8 18.3 0.8 2.1 1.4 2.4 3.5 1.9 2 -0.5 3.1 0 5.5 2.5 3.4 3.6 3.1 5.3 -0.4 2.1 -2.4 -2.3 -6.1 -2.9 -7.2 -1.2 -0.8 1.3 1.2 7.5 2.9 8.9 1.7 1.4 7.6 -1.4 7.6 -3.6 0 -2.1 1.3 -0.8 1.5 1.5 0.1 0.9 0.5 2.7 0.9 3.8 0.4 1.4 0.1 2.7 -0.9 3.8 -2 2 -2.1 2 -7 -0.6z"/>
  <path d="M615 393.6 c0 -0.8 -0.3 -2.1 -0.6 -3 -0.8 -2.2 1.6 -2 3.2 0.1 0.9 1.3 0.9 2.2 0.2 3 -1.4 1.7 -2.8 1.6 -2.8 -0.1z"/>
  <path d="M428.5 392 c-0.8 -1.3 3.9 -3.4 5.9 -2.7 0.9 0.4 1.6 1.3 1.6 2.2 0 1.7 -6.5 2.2 -7.5 0.5z"/>
  <path d="M446 386.4 c-1.7 -2 -2.8 -4 -2.3 -4.4 2.6 -2.5 13.7 -7.4 24.9 -10.9 24.7 -7.7 34.4 -8.6 57.3 -5.1 13.5 2.1 19.8 4.3 26.9 9.7 3.6 2.7 4.1 5.2 1.5 7.5 -3 2.6 -5.2 2.8 -31.9 3.2 -14.2 0.2 -28 0.9 -30.6 1.5 -2.6 0.6 -12.4 1 -22.6 0.9 -9.9 0 -18.4 0.2 -19 0.6 -0.5 0.3 -2.4 -1 -4.2 -3z"/>
  <path d="M623 389.3 c0 -0.7 1.1 -2.4 2.6 -3.8 1.4 -1.4 2.2 -3 1.9 -3.5 -0.3 -0.6 0.1 -1 0.9 -1 2 0 2 -0.5 -0.1 -3.6 -1.3 -2 -1.4 -2.7 -0.4 -3.4 1 -0.6 1 -1.2 0.2 -2.9 -1.3 -2.4 -4.3 -2.8 -6 -0.7 -1 1.2 -0.8 1.9 0.6 3.3 1.4 1.4 1.8 3 1.5 6.1 -0.5 4.7 -1.5 5.2 -4.8 2.1 -2.6 -2.4 -6 -1.9 -5 0.8 0.4 0.9 -0.1 2.4 -1 3.4 -3.8 4.2 -4.5 0.7 -1.4 -6.6 1.1 -2.6 2 -5.8 2 -7.3 0 -2.7 1.1 -3.9 11 -11.5 3 -2.3 5.7 -4.5 6 -4.8 0.3 -0.3 3.2 -2.1 6.5 -3.9 3.3 -1.8 8 -4.4 10.5 -5.8 2.5 -1.3 6.8 -3.9 9.5 -5.7 5 -3.3 21.4 -12.5 22.2 -12.5 1.1 0 15.1 -8.6 17.9 -10.9 3.2 -2.7 8.8 -7.1 10.8 -8.3 1.7 -1.1 -0.6 -4.1 -3.5 -4.4 -8.8 -1 -39.6 -0.1 -55.9 1.6 -6.3 0.7 -13.3 1.4 -15.6 1.5 -2.2 0.1 -5.6 0.7 -7.5 1.3 -4.7 1.5 -16.8 3.2 -22.6 3.2 -2.6 0 -6.4 0.5 -8.3 1 -1.9 0.6 -5.6 1.1 -8.2 1.1 -2.8 0 -5.1 0.6 -5.8 1.5 -1.4 1.6 -7 1.9 -7 0.4 0 -0.6 -4.1 -0.9 -10.2 -0.9 -13.5 0.1 -26.2 -0.9 -31.8 -2.7 -2.5 -0.7 -7.9 -1.3 -12.1 -1.2 -4.2 0 -8.2 -0.3 -8.9 -0.7 -0.6 -0.4 -6.1 -0.7 -12.1 -0.6 -6 0.1 -12.6 -0.2 -14.6 -0.8 -7.8 -1.9 -21.5 -2.1 -31.8 -0.4 -5.5 0.9 -14.7 1.7 -20.5 1.8 -5.8 0.1 -11.5 0.7 -12.7 1.3 -3.1 1.7 -5.8 1.5 -12.4 -0.9 -4.5 -1.5 -6.3 -1.8 -7.8 -0.9 -1.6 0.8 -2.2 0.7 -3.1 -1 -0.6 -1.1 -0.9 -2.4 -0.6 -2.9 0.7 -1.1 -2.3 -5.1 -3.9 -5.1 -2.3 0 -2.6 1.7 -0.8 5.4 0.9 2 1.4 3.8 1.1 4.1 -0.2 0.3 -4.5 -1.7 -9.4 -4.5 -4.9 -2.7 -9.3 -5.2 -9.9 -5.4 -1.8 -0.6 0 -1.5 3.6 -1.7 1.8 -0.2 4 -0.7 4.8 -1.3 2.2 -1.7 17.9 -4.6 27.1 -5.1 4.7 -0.2 12.2 -1.1 16.8 -2 4.9 -0.9 20.4 -2.1 38.5 -2.9 31.4 -1.3 34.3 -1.3 51.7 -0.1 7.1 0.4 12.6 0.3 17 -0.6 3.6 -0.6 12.6 -1.1 20.1 -1 8.4 0.1 17.5 -0.4 23.5 -1.4 6 -0.9 19.8 -1.7 34.9 -2 30.4 -0.7 41.4 -1.1 61.4 -2.4 8.5 -0.6 15.7 -0.8 16 -0.6 0.3 0.2 5.2 0.6 10.8 0.9 5.6 0.3 11.3 1 12.8 1.6 1.4 0.5 7 1.6 12.6 2.5 9.2 1.3 33.7 6.9 34.6 7.9 0.2 0.2 -1 2.9 -2.7 5.9 -2.9 5.2 -11.6 12.7 -14.6 12.7 -0.6 0 -1.9 0.9 -2.9 2 -1 1.1 -3.3 2.3 -5.2 2.6 -1.9 0.4 -5.6 2.2 -8.3 4 -2.7 1.9 -5.3 3.4 -5.8 3.4 -0.5 0 -1.9 1.1 -3.2 2.5 -1.3 1.4 -3.5 2.5 -4.8 2.5 -2.8 0 -12 5.3 -13.9 8 -0.7 0.9 -3.2 2.5 -5.7 3.4 -2.6 1 -4.6 2.1 -4.6 2.6 0 0.4 -1.4 1.3 -3.1 2 -1.7 0.7 -3.7 2.3 -4.5 3.5 -0.8 1.2 -3.1 2.7 -5.2 3.3 -2.6 0.8 -5.8 3.3 -10.2 8.2 -6.5 6.9 -10.4 9.1 -9.3 5 0.6 -2.4 -1.5 -2.7 -2.4 -0.4 -0.3 0.8 -1.6 1.9 -2.9 2.4 -1.2 0.5 -2.4 1.9 -2.6 3.1 -0.4 2.5 -8.2 5.9 -12.1 5.2 -2.2 -0.4 -2.5 -0.1 -3 3.5 -0.5 2.6 -2 5.4 -4.6 8.3 -2.2 2.4 -4 3.9 -4.1 3.2z m15 -19.8 c1.6 -1.9 -0.3 -4.5 -3.2 -4.5 -2.4 0 -3.4 2.6 -1.8 4.5 1.6 1.9 3.4 1.9 5 0z m-230.2 -65.7 c0.2 -1.1 -0.5 -1.8 -2 -2 -3 -0.5 -6.8 1.1 -6.8 2.9 0 2.2 8.4 1.3 8.8 -0.9z"/>
  <path d="M342.6 380.9 c-3 -3.5 -3.4 -5.4 -0.8 -4.4 0.9 0.4 5.1 1.2 9.2 1.7 4.1 0.6 7.9 1.4 8.4 1.8 1.3 1.3 -2.7 2.9 -8.7 3.4 -5.3 0.5 -5.7 0.4 -8.1 -2.5z"/>
  <path d="M323.5 375.3 c-4.1 -0.9 -12.5 -5.5 -13.5 -7.4 -1.3 -2.3 -0.8 -2.3 2.8 -0.6 1.5 0.8 6.2 2.2 10.5 3.2 4.2 0.9 7.7 2.1 7.7 2.6 0 0.8 -4.7 3.2 -5.3 2.8 -0.1 -0.1 -1.1 -0.3 -2.2 -0.6z"/>
  <path d="M384.3 374.3 c-1.8 -0.2 -3.3 -0.7 -3.3 -1.1 0.1 -2.3 10.8 -20.7 12.2 -21 0.9 -0.2 3.5 0.2 5.8 0.8 4.2 1.1 4.2 1.1 3.6 5.1 -0.7 4.2 -4.8 14.3 -6.2 15.2 -1.5 0.8 -8.7 1.4 -12.1 1z"/>
  <path d="M354.3 368.2 c-1.8 -0.2 -3.3 -0.7 -3.3 -1.2 0 -0.6 1.3 -3.7 2.9 -6.9 1.6 -3.3 3.7 -8.5 4.6 -11.6 1 -3 2.1 -5.5 2.4 -5.5 0.4 0 3.2 0.9 6.4 2 3.1 1.1 6.3 2 7.1 2 2.6 0 2.7 1.8 0.1 8.5 -3.9 10.5 -5.5 12.3 -11.8 12.7 -2.8 0.1 -6.7 0.2 -8.4 0z"/>
  <path d="M328.6 361.4 c-3.8 -0.8 -7.1 -1.6 -7.4 -1.8 -0.2 -0.3 1.2 -3.8 3.1 -7.8 1.9 -4 4.8 -10.3 6.5 -14 3.5 -7.6 4.3 -7.9 15 -6.4 5.2 0.8 6.2 1.2 5.6 2.5 -0.4 0.9 -1.9 5 -3.4 9.1 -4.5 12.5 -8.9 20.2 -11.4 19.9 -0.6 -0.1 -4.2 -0.8 -8 -1.5z"/>
  <path d="M291.6 354.9 c-3.8 -3 -11.8 -13.7 -11.3 -15.2 0.2 -0.6 1.1 0.2 2 1.8 1.4 2.7 5.5 7 11.4 11.9 1.2 1 3.7 2.2 5.5 2.6 l3.3 0.8 -4.1 0.1 c-2.8 0.1 -5 -0.6 -6.8 -2z"/>
  <path d="M308.5 353.3 c0.6 -2.6 10.4 -13.7 11.3 -12.8 1.1 1 -6.9 13.2 -9.4 14.3 -2.6 1.2 -2.6 1.2 -1.9 -1.5z"/>
  <path d="M298.8 340.5 c-2.7 -2.4 -4.8 -4.9 -4.8 -5.7 0.1 -0.7 2.3 -4.1 5.1 -7.6 l5.1 -6.3 6.6 0.6 c7.7 0.8 13.2 2.8 13.2 4.7 0 0.8 -2.5 3.8 -5.6 6.8 -3.1 3 -6.8 7 -8.2 8.8 -3.3 4.3 -5.7 4 -11.4 -1.3z"/>
  <path d="M458.3 339.7 c0.7 -1.8 -1.6 -4.1 -5.6 -5.6 -2.3 -0.9 -2.8 -1.6 -2.5 -3.9 0.4 -3.3 3.2 -3.7 3.6 -0.5 0.2 1.2 1 2.7 1.9 3.5 1.3 1.1 2.1 0.7 5.2 -3 3.6 -4.2 3.7 -4.2 10.7 -4.2 7.5 0 10.7 1.4 11.7 5 0.7 2.6 -1.7 5 -4.9 5 -1.3 0 -3.2 0.4 -4.2 0.9 -0.9 0.5 -3.9 1.4 -6.7 2.1 -9.6 2.4 -9.9 2.4 -9.2 0.7z m9.7 -6.2 c0 -2.4 -3.4 -3.6 -5.6 -2.1 -1.8 1.4 -1.8 1.5 0 3.5 1.4 1.6 2.3 1.8 3.7 1 1.1 -0.5 1.9 -1.6 1.9 -2.4z"/>
  <path d="M114.2 337.1 c1.4 -2.3 3.3 -2.3 3.3 0 0 0.8 -1 1.5 -2.3 1.7 -2.1 0.3 -2.2 0.2 -1 -1.7z"/>
  <path d="M120.3 337.3 c0.9 -0.9 2 -1.3 2.4 -0.9 0.4 0.4 0.1 1.1 -0.7 1.6 -2.5 1.6 -3.5 1.1 -1.7 -0.7z"/>
  <path d="M271.8 333.2 c-3.5 -2.2 -8.1 -7.9 -7 -8.6 0.5 -0.3 0.8 -1.6 0.5 -2.8 -0.4 -2.7 3.3 -9.2 4.7 -8.3 1.5 1 1.2 5.5 -0.4 5.5 -2 0 -2.7 2.6 -1.2 3.9 0.8 0.6 2 0.9 2.7 0.6 0.8 -0.3 2.1 0.7 3.1 2.5 1.9 3.4 4.1 3.7 9.5 1.5 5.8 -2.4 5.1 -0.8 -0.8 2 -3 1.4 -5 2.5 -4.5 2.5 0.5 0 0.3 0.7 -0.4 1.5 -1.6 1.9 -2.8 1.8 -6.2 -0.3z"/>
  <path d="M119.7 331.3 c-0.4 -0.3 -0.7 -1.8 -0.7 -3.2 0.1 -2.5 0.1 -2.5 1.5 -0.7 2.3 3 1.5 6.3 -0.8 3.9z"/>
  <path d="M182.5 324 c-7.8 -4.2 -9.2 -5.5 -12.3 -11.5 -5.3 -10.4 -2.2 -22.8 7.5 -29.7 11.1 -7.8 17.6 -10.1 25.3 -8.9 6.2 1 13.2 5 14.9 8.6 2.2 4.5 1.7 17 -0.8 22.5 -5.7 12.4 -15.1 20.9 -23.9 21.7 -3.9 0.4 -5.8 -0.1 -10.7 -2.7z m11.6 -6.5 c8 -1.3 21.1 -12.7 18 -15.8 -1.8 -1.8 -6.4 0.5 -8.3 4.2 -2.2 4.4 -8.5 7.5 -13.7 6.8 -5.6 -0.9 -13.1 -3.1 -13.1 -3.9 0 -0.5 -1.1 -0.8 -2.5 -0.8 -2.8 0 -3.4 2.4 -1.2 5.4 1.7 2.3 11.4 5.6 14.9 5 1.6 -0.2 4.2 -0.6 5.9 -0.9z m-9.7 -18.5 c1.4 -0.5 3 -1.8 3.5 -2.9 1.4 -2.5 0.3 -8.1 -1.7 -8.8 -2.3 -0.9 -7.9 2.6 -9.2 5.7 -2.4 5.8 0.9 8.5 7.4 6z m25.5 -7.6 c1.1 -1.5 1.8 -3.1 1.4 -3.8 -2.1 -3.4 -7.4 -8.6 -8.8 -8.6 -1.4 0 -3.8 11.2 -2.9 13.4 0.4 1.1 1.8 1.6 4.4 1.6 3 0 4.3 -0.6 5.9 -2.6z"/>
  <path d="M283 316.5 c-1.1 -2.5 -2.1 -5.7 -2.2 -7.2 -0.3 -2.5 0 -2.8 3.1 -3.1 1.9 -0.2 4.4 -1 5.5 -1.8 2.4 -1.7 6.7 -1.8 11.8 -0.4 6.2 1.8 7.4 6.9 1.6 7 -1 0 -3.2 1.3 -5 2.9 -3 2.5 -10.8 7.1 -12.3 7.1 -0.3 0 -1.4 -2 -2.5 -4.5z"/>
  <path d="M62.3 301.8 c-2 -1.9 -2.2 -1.9 -5.3 -0.3 -3 1.6 -3.4 1.6 -4.2 0.1 -0.5 -0.9 -1.6 -1.6 -2.5 -1.6 -1.3 0 -1.5 -0.8 -1 -4.2 0.3 -2.3 1.2 -4.7 2 -5.3 2.6 -1.9 4 -5.5 2.6 -7.1 -1.8 -2.2 -0.2 -3 2.1 -0.9 1.8 1.6 1.9 2 0.5 3.5 -0.8 0.9 -1.5 2.4 -1.5 3.2 0 0.9 -0.9 1.8 -2.1 2.1 -2.7 0.7 -2.2 4.4 0.8 6.4 2.1 1.4 2.3 1.4 3.2 -1 0.5 -1.3 1.9 -2.7 3 -3 1.5 -0.3 2.1 -1.3 2.1 -3.1 0 -1.5 0.8 -5 1.9 -7.9 1.8 -5.2 1.8 -11.2 -0.1 -12.3 -1 -0.7 -3.4 1.9 -4.8 5.3 -0.9 2.2 -4 2.3 -4 0.1 0 -1 3.1 -12 6.7 -23.8 6.4 -21.1 23.8 -60.2 32.9 -73.9 8.6 -13 9.8 -14.7 14 -19.7 2.3 -2.7 5 -6.3 6 -8 3 -4.8 7.5 -10.5 12.8 -15.9 2.6 -2.7 6.7 -7.2 8.9 -10 8.8 -10.7 18.4 -19.7 28.1 -26.5 2 -1.4 5 -3.7 6.6 -5.2 6.1 -5.7 36.2 -24.6 41.8 -26.3 1.3 -0.4 5.3 -2.4 9 -4.4 8.3 -4.6 15.6 -7.5 24.7 -9.7 3.9 -0.9 9.4 -2.5 12.3 -3.6 l5.2 -1.9 2.7 2 c2.4 2 2.8 2 4.3 0.6 1.1 -1 1.6 -2.4 1.2 -3.7 -0.3 -1.4 -0.1 -1.9 0.6 -1.4 1.8 1.1 1.4 4 -0.8 6.6 -2.2 2.5 -1.8 4 1.1 4 1 0 1.9 0.5 1.9 1 0 1.9 -5.1 1 -8.4 -1.5 -4.4 -3.4 -7.2 -3.2 -9.1 0.5 l-1.5 2.9 -4.8 -1.4 c-6.1 -1.9 -5.7 -1.9 -8.7 1.2 -2.8 3.1 -3.2 5.1 -1.1 5.9 0.8 0.3 1.9 1.9 2.5 3.5 1.2 3.5 3.6 3.8 5.2 0.7 0.6 -1.3 2.5 -3.8 4.2 -5.5 2.3 -2.5 3.4 -3 4.4 -2.2 0.7 0.7 2.6 0.9 4.2 0.6 4.8 -1 6.9 3.6 3.5 7.5 -1.6 1.7 -1.8 1.7 -4 -0.7 -1.3 -1.4 -3.2 -2.5 -4.2 -2.5 -1.9 0 -7.7 6.4 -7.7 8.5 0 1 -9.5 6.1 -16.8 9 -2.1 0.9 -7 4 -10.7 7 -3.8 3 -7.3 5.5 -7.7 5.5 -1.4 0 -15.6 10.3 -20.8 15.2 -1.6 1.5 -8.1 6.9 -14.4 11.9 -6.2 5.1 -12.5 10.9 -14 12.9 -1.4 2.1 -3.8 4.6 -5.2 5.6 -3.1 2.3 -13 13.9 -17.8 20.9 -1.9 2.8 -5.9 8.2 -8.8 12.1 -2.9 4 -6 8.9 -6.9 11 -0.9 2.2 -2.6 5 -3.9 6.4 -2.5 2.7 -4.7 6.4 -9.5 16.1 -1.7 3.5 -3.8 7.8 -4.7 9.4 -0.9 1.7 -3.5 6.7 -5.9 11.2 -2.3 4.5 -4.9 9.2 -5.7 10.5 -0.8 1.3 -2 4.8 -2.7 7.8 -0.7 3 -2.3 8 -3.5 11 -1.3 3 -2.9 7.9 -3.6 10.8 -0.7 2.8 -1.8 5.2 -2.5 5.2 -0.6 0 -1.7 0.7 -2.4 1.5 -1 1.3 -1 1.9 0.5 3.5 2.3 2.6 1.3 5.5 -1.4 4.1 -1.5 -0.8 -2.5 -0.6 -4.3 0.8 -2.2 1.9 -2.2 2 -0.3 2.6 3.9 1.3 5 2.3 4.7 4.6 -0.5 4.5 -1.5 5.6 -2.1 2.4 -0.4 -2.2 -1.3 -3.1 -3 -3.3 -3.6 -0.6 -4.6 1.2 -2 3.6 2.1 2 2.1 2.2 0.5 4.7 -1.8 2.7 -4.6 3.4 -4.6 1 0 -0.8 -0.7 -1.5 -1.5 -1.5 -1 0 -1.5 1 -1.5 2.9 0 3.7 -2.1 4.5 -4.7 1.9z m4.3 -6.3 c1.6 -2.4 1.4 -5.5 -0.4 -5.5 -1 0 -3.2 4.4 -3.2 6.5 0 2.3 1.8 1.8 3.6 -1z m5.8 -13.1 c1.7 -4.4 -0.6 -8.2 -3 -5 -1 1.4 -1 2.4 -0.2 4.2 1.3 2.8 2.3 3.1 3.2 0.8z m1.6 -18.9 c0 -1.6 -0.6 -2.5 -1.5 -2.5 -1.5 0 -2.1 3.1 -0.8 4.3 1.3 1.4 2.3 0.6 2.3 -1.8z m10.8 -9.4 c0.2 -1.3 -0.2 -2.1 -1 -2.1 -1.8 0 -5.8 5.3 -5.8 7.6 0 2.5 6.4 -2.7 6.8 -5.5z m134.2 -171.8 c0 -1.8 -3.5 -1.6 -5.1 0.3 -1 1.3 -1 1.7 0.1 2.4 1.6 1 5 -0.9 5 -2.7z m14.6 -17.4 c0.9 -1.6 -2 -4.1 -3.9 -3.3 -2.7 1 -2.1 4.4 0.7 4.4 1.4 0 2.8 -0.5 3.2 -1.1z"/>
  <path d="M272.5 291.1 c-3.6 -5.3 -5.4 -10.6 -5.5 -16.2 0 -3.7 0.5 -5.2 2.7 -7.3 1.6 -1.6 3 -2.3 3.6 -1.7 0.5 0.5 0.9 5.3 0.8 10.7 0 5.5 0.4 11.7 0.9 13.9 0.5 2.2 0.8 4.1 0.6 4.2 -0.2 0.2 -1.5 -1.4 -3.1 -3.6z"/>
  <path d="M437 275.3 c-2.8 -1 -4.9 -3.5 -5.6 -6.7 -0.3 -1.7 -1.7 -5.5 -3 -8.5 -1.3 -2.9 -2.4 -5.5 -2.4 -5.7 0 -0.9 5.4 2.7 6.6 4.5 1.9 2.7 7.4 3 7.4 0.3 0 -0.9 -0.9 -2.3 -2 -3 -1.2 -0.7 -1.8 -1.7 -1.5 -2.1 1 -1.6 -0.7 -4 -3.8 -5.6 -4.1 -2 -5.4 -1.9 -6.8 0.6 -0.9 1.7 -1.3 1.9 -2 0.8 -0.5 -0.8 -0.3 -2 0.5 -2.9 1.9 -2.3 2 -8.9 0.1 -9.7 -0.9 -0.3 -2.1 -0.1 -2.8 0.6 -1.8 1.8 -2.5 1.3 -3.8 -2.6 -0.7 -2.1 -3.2 -8.3 -5.7 -13.7 -3.7 -8.2 -4.3 -10.3 -3.3 -11.8 0.9 -1.4 0.8 -2.3 -0.4 -4.2 -0.9 -1.3 -2.3 -2.7 -3 -3 -1.5 -0.5 -3.6 -5 -4.9 -10.1 -0.7 -2.8 -0.7 -2.9 1.1 -1.3 1.3 1.2 2.3 1.4 3.5 0.7 1.4 -0.8 1.5 -1.5 0.6 -3.9 -1.1 -3.2 -3.5 -4 -4.4 -1.5 -0.7 1.7 -2.4 2.1 -2.4 0.5 0 -0.5 -1.1 -3.3 -2.4 -6.2 -3.4 -7.5 -8.3 -19.2 -11.3 -26.8 -1.3 -3.6 -3.6 -9 -5 -12 -10.3 -22.3 -12.3 -31 -12.9 -55.5 -0.4 -18.1 -0.7 -18.6 -8.5 -19.9 -7.7 -1.2 -11.2 3 -9.7 11.8 0.8 5.1 0.3 10.2 -1.2 12.1 -0.4 0.6 -2 4.6 -3.5 9 -3 8.6 -7.8 17.6 -12.9 24 -6.1 7.6 -17.6 28 -17.6 31.1 0 1.4 -7.9 16.6 -9.4 18.4 -0.8 0.8 -3.5 5.8 -6 11.1 -2.6 5.2 -5.4 10.4 -6.4 11.5 -2 2.3 -6.2 10.6 -6.2 12.5 -0.1 3.3 -2.9 6.4 -5.7 6.4 -3.7 0 -4.5 3.2 -0.9 4.1 3.3 0.8 2.4 2.4 -1.4 2.4 -4.5 0 -6 -1 -6 -4 0 -1.9 0.9 -3.5 2.7 -4.8 l2.8 -2 -2.2 -3 c-1.9 -2.5 -2 -3.5 -1.2 -7.3 1.8 -8 3 -10.9 4.7 -10.9 0.9 0 2.4 -0.5 3.2 -1 1.3 -0.8 1.3 -1.3 -0.3 -4.2 -1.6 -3.2 -1.6 -3.6 0.8 -12.3 4.7 -17.1 13.7 -43.4 18.5 -54 1 -2.2 2.1 -5.1 2.5 -6.5 0.4 -1.3 3.6 -8.1 7 -15 8.1 -16.2 14.1 -28.9 17.5 -37.1 2.6 -6.3 8.3 -16.3 12.3 -21.9 6.1 -8.4 9.4 -13 10.7 -15 2.6 -4 9.2 -11 10.4 -11 1.4 0.1 4.6 6.4 4.6 9.1 0 2.5 2.7 7.9 4 7.9 0.6 0 1 0.8 1 1.8 0 1 0.9 3.6 2 5.7 4.7 9 8.6 19 15.1 38.3 3.8 11.1 6.9 20.8 6.9 21.4 0 0.6 1.1 3.6 2.4 6.7 1.2 3.1 3 7.6 3.9 10.1 0.9 2.5 5.5 13.5 10.2 24.5 9.2 21.1 14.7 35.1 19.7 50 1.7 5 4.1 11.5 5.3 14.5 1.3 3 3.3 8.7 4.6 12.5 6 18.6 21.3 56.1 24.2 59.3 l2 2.2 -4.4 0.1 c-2.4 0 -6.5 0.3 -9.1 0.5 -4.3 0.5 -4.6 0.4 -4.1 -1.5 0.4 -1.7 0.1 -2.1 -1.8 -2.1 -1.3 0 -3.9 0.9 -5.7 2 -1.8 1.1 -3.3 2 -3.5 1.9 -0.1 0 -0.9 -0.3 -1.7 -0.6z m3.9 -5.7 c1.6 -1.9 -0.6 -6.6 -3 -6.6 -2.6 0 -3.4 3.8 -1.3 6.1 2 2.3 2.8 2.4 4.3 0.5z m15.5 -3.2 c2.1 -0.8 2 -3.1 -0.2 -4.3 -1.9 -1 -6.9 -0.4 -7.8 1.1 -1.6 2.5 3.9 4.8 8 3.2z m-23.6 -38.6 c0.3 -2.2 -0.1 -2.8 -1.6 -2.8 -2.5 0 -4.6 2.5 -3.8 4.6 1 2.7 5.1 1.3 5.4 -1.8z m-12.3 -4.9 c0.4 -0.5 1.8 -1.4 3.1 -1.9 2.5 -1 5.2 -5.5 4.1 -6.6 -0.4 -0.4 -1.3 -0.1 -2.1 0.5 -1.1 1 -1.9 0.9 -3.6 -0.1 -1.5 -0.9 -2.3 -1 -2.8 -0.2 -0.4 0.6 -1.7 1.4 -2.9 1.8 -4 1.3 -2.4 7.6 1.8 7.6 1 0 2.1 -0.5 2.4 -1.1z m-138.1 -18.8 c4.3 -2.5 5.3 -4.5 3.7 -7.5 -1.3 -2.4 -3.9 -4.1 -4.8 -3.2 -0.3 0.2 -0.5 1.9 -0.6 3.8 -0.2 2.4 -0.7 3.3 -1.9 3.3 -2.4 0 -4 1.9 -3.2 3.8 0.8 2.1 3 2.1 6.8 -0.2z m9.2 -18 c-1 -1.5 -3.1 -1.4 -4.5 0.3 -1 1.1 -0.8 1.7 0.6 2.5 2.1 1.1 5 -1 3.9 -2.8z m110.2 -17.9 c1.1 -0.8 0.7 -4.2 -0.5 -4.2 -1.7 0 -4.1 2.3 -3.7 3.5 0.7 1.7 2.2 1.9 4.2 0.7z"/>
  <path d="M567.5 253.9 c-0.4 -0.5 0.2 -0.9 1.1 -0.9 1 0 3.3 -0.5 5.1 -1.2 2.5 -0.9 3.6 -0.9 4.5 0 0.6 0.6 1 1.3 0.7 1.5 -1 1 -10.9 1.5 -11.4 0.6z"/>
  <path d="M589 254.2 c-2.7 -0.4 -4 -1.8 -4 -4.4 0 -1.1 0.7 -1.8 1.8 -1.8 1.1 0 2.7 -0.8 3.6 -1.9 1.6 -1.7 1.6 -2 0.1 -3.5 -2.4 -2.4 -6.1 -2 -8.4 1 -1.3 1.6 -2.7 2.4 -3.6 2 -0.8 -0.3 -2.6 -0.1 -4 0.4 -2.8 1.1 -3.3 -0.1 -1 -2 0.8 -0.7 1.5 -2.2 1.5 -3.4 0.1 -2.1 0.1 -2.1 2 0.3 1.2 1.3 2.6 2.1 3.5 1.7 3 -1.1 1.1 -9 -2.4 -10.1 -2.7 -0.8 -6.1 0.3 -6.1 2 0 0.8 -1.6 1.4 -4.6 1.7 -4.2 0.3 -4.7 0.1 -6 -2.4 -0.8 -1.5 -1.4 -4 -1.4 -5.5 0 -1.5 -1.1 -4.6 -2.5 -6.8 -1.3 -2.2 -2.5 -4.8 -2.5 -5.9 0 -1 -1.4 -3.4 -3 -5.3 -1.7 -1.8 -4.2 -5.7 -5.6 -8.6 -4.6 -9 -22.9 -33.5 -34.9 -46.7 -4.8 -5.2 -10.2 -11.7 -12 -14.3 -5.9 -8.7 -17.7 -21.7 -25.4 -28 -9.5 -7.9 -23.1 -17.5 -29.4 -20.7 l-4.7 -2.5 3.1 -0.7 c3.5 -0.7 5 -2.3 4.2 -4.7 -1.1 -2.9 -2.5 -4.1 -4.8 -4.1 -2.8 0 -5.3 -2.6 -3.8 -4.1 0.8 -0.8 1.3 -0.7 1.7 0 1 1.5 5.9 1.4 7.4 -0.1 1 -1 0.8 -1.6 -0.9 -2.9 -1.5 -1.1 -2 -2.2 -1.5 -3.4 0.5 -1.3 0.9 -1.5 2 -0.6 1 0.9 2 0.9 3.9 0 2.2 -1 3.2 -0.6 9.3 3.3 7.4 4.8 15.8 10 25.7 16.1 3.4 2 9.4 6.4 13.2 9.8 3.9 3.3 7.9 6.8 9 7.7 1.1 1 4 3.3 6.5 5.2 7.9 5.9 36.6 35.8 39.7 41.4 0.7 1.1 2.9 5.9 5 10.6 3.3 7.4 8.4 16.3 11.1 19.5 0.4 0.6 2 3.6 3.5 6.7 1.5 3.1 3.2 6 3.7 6.3 0.6 0.3 1 1.8 1 3.3 0.1 1.5 0.9 4.5 2 6.7 1.1 2.2 1.9 4.3 2 4.7 0 0.4 1.3 3.5 2.9 7 3.7 8 7.1 20.5 7.1 25.7 0 3 -0.5 4.3 -2 5.1 -1.1 0.6 -2 1.8 -2 2.6 0 1.3 0.8 1.5 3.5 1.2 2.1 -0.2 3.6 0.1 3.9 0.8 0.5 1.3 -3.4 2.1 -7.4 1.6z m-20.2 -23.7 c0.3 -4.2 -1.2 -6.3 -3.5 -4.9 -1.7 1.1 -2 5.4 -0.6 7.7 1.1 1.9 3.8 0 4.1 -2.8z m-2.8 -7.5 c0.9 -1.6 0.5 -2.6 -2.4 -5.7 -2.8 -3.1 -3.7 -3.6 -4.7 -2.6 -1.1 1.1 -0.9 2.2 0.9 5.8 2.3 4.8 4.5 5.7 6.2 2.5z m14 -3.6 c0 -0.7 -1.1 -2.1 -2.5 -3 -4.3 -2.8 -6.3 0.8 -2.4 4.7 1.6 1.6 2.3 1.8 3.5 0.8 0.8 -0.6 1.4 -1.8 1.4 -2.5z m-16.1 -9.8 c2.3 -2.7 -7.7 -14.2 -10.2 -11.7 -1.3 1.3 -1 9 0.5 10.8 0.8 1 2.4 1.5 7.4 2.2 0.6 0 1.7 -0.5 2.3 -1.3z m-86.5 -112.2 c2.2 -0.8 2 -3.1 -0.3 -4.4 -2.5 -1.3 -5.1 -0.3 -5.1 1.9 0 3 1.9 3.8 5.4 2.5z m-13.4 -5.8 c0 -2.7 -2.5 -3.7 -4.9 -2 -2.1 1.5 -2.1 1.7 -0.5 3.5 1.3 1.4 2.1 1.6 3.5 0.8 1.1 -0.5 1.9 -1.6 1.9 -2.3z m-8.2 -5.8 c0.2 -1.2 -0.5 -1.9 -2.3 -2.4 -3.4 -0.8 -5.3 0.9 -3.5 3.1 1.7 2 5.4 1.6 5.8 -0.7z"/>
  <path d="M305.6 90.8 c0.3 -1.8 2.1 -5.8 3.9 -8.8 1.8 -3 4 -7 4.9 -8.8 1 -1.9 1.9 -3.2 2.2 -2.9 0.8 0.8 -8.9 22.1 -10.6 23.2 -0.6 0.4 -0.7 -0.7 -0.4 -2.7z"/>
  <path d="M443 63.5 c-0.7 -0.9 -1 -1.8 -0.7 -2.2 0.8 -0.7 3.7 1.5 3.7 2.8 0 1.4 -1.6 1.1 -3 -0.6z"/>
  <path d="M417 62.8 c0 -0.2 -0.4 -1.8 -1 -3.6 -0.8 -2.9 -0.7 -3.3 0.6 -2.8 2.5 1 5.6 -1.2 4.9 -3.5 -0.4 -1 -0.2 -1.9 0.4 -1.9 1.8 0 2.2 1.9 1 4.2 -1.1 2.2 -5.9 8.3 -5.9 7.6z"/>
  <path d="M279.8 54.4 c2.4 -1.7 3.9 -1.4 2.7 0.5 -0.3 0.6 -1.6 1.1 -2.8 1.1 l-2.1 0 2.2 -1.6z"/>
  <path d="M287 45.6 c0 -1.6 2.1 -2.6 5.3 -2.6 2.1 0 2.1 0.1 -0.3 2 -2.9 2.3 -5 2.6 -5 0.6z"/>
 </g>
 <g fill="#ff3600">
  <path d="M234 411.1 c-0.8 -0.6 -4.2 -1.1 -7.6 -1.1 -3.3 0 -6.4 -0.3 -6.7 -0.6 -0.4 -0.4 0.2 -1.9 1.3 -3.4 1.1 -1.6 2 -3 2 -3.3 0 -0.2 -1.4 -1.1 -3.2 -1.8 -2.5 -1 -3.3 -1 -3.6 0 -0.2 0.7 -1.5 1.6 -2.8 2.1 -1.4 0.6 -2.4 1.8 -2.4 2.8 0 1.4 -0.6 1.8 -2.2 1.6 -1.3 -0.2 -6.6 -0.8 -11.8 -1.5 -9.9 -1.1 -13.7 -2.7 -12.7 -5.3 0.6 -1.5 1.8 -1.9 9 -3.1 2.9 -0.5 3.7 -1 3.5 -2.3 -0.2 -1.3 -1.6 -1.8 -5.1 -2 -2.6 -0.2 -4.7 -0.4 -4.7 -0.5 0 -0.1 0.4 -1.7 0.9 -3.5 0.9 -3.1 0.8 -3.2 -1.8 -3.2 -1.6 0 -3.5 0.7 -4.2 1.6 -1.1 1.4 -1 1.9 0.9 3.4 3.3 2.7 2.8 3.2 -3 2.9 -5.6 -0.3 -7.6 1.3 -4.3 3.7 2.9 2.2 1 5.4 -3.3 5.6 -6.3 0.3 -9.7 -0.2 -10.7 -1.6 -0.5 -0.7 -2.2 -1.6 -3.7 -1.9 -2.1 -0.6 -3.2 -0.2 -4.8 1.5 -1.1 1.2 -2.1 2 -2.1 1.7 -1.1 -4.2 -0.6 -6 2.1 -7.4 1.6 -0.8 3.4 -2.4 4 -3.4 0.6 -1.2 2.3 -2.1 4.2 -2.3 2.2 -0.2 3.4 -0.9 3.6 -2.1 0.3 -1.6 -0.2 -1.8 -4.5 -1.3 -2.6 0.2 -4.9 0.5 -5 0.5 -0.2 0.1 -0.3 0.8 -0.3 1.6 0 1.7 -2.4 3 -3.8 2.1 -1.7 -1 -0.1 -5.3 2.4 -6.5 2.6 -1.2 3.2 -3.1 1 -3.1 -2.6 0 -3.7 -2.5 -2.5 -5.9 1.2 -3.5 1.6 -3.7 3.9 -1.6 1.3 1.2 2.2 1.3 4.8 0.3 1.8 -0.7 3.2 -1.5 3.2 -1.8 0 -0.3 -1.8 -1.4 -4.1 -2.4 -2.2 -1.1 -4.2 -2.3 -4.4 -2.6 -0.9 -1.4 0.8 -4.9 2.4 -4.8 4.5 0.3 5.3 -0.2 4.7 -2.7 -0.4 -1.4 -0.2 -2.5 0.4 -2.5 0.5 0 1 -0.4 1 -1 0 -0.5 -0.9 -1 -2 -1 -2.3 0 -2.7 -3.4 -0.8 -7.5 0.9 -2.1 0.9 -2.8 -0.2 -3.5 -0.9 -0.6 -1.1 -1.9 -0.6 -4.6 0.5 -2.2 0.9 -5.6 1.1 -7.6 0.3 -3.4 0 -3.8 -2 -3.8 -1.4 0 -2.6 -0.7 -2.9 -1.7 -0.6 -2.1 -2.6 -14.2 -2.6 -16.1 0 -2.1 2.3 -0.8 2.6 1.5 2 12.7 17.3 25.2 32.2 26.1 5.3 0.4 7 0 11.9 -2.4 7.3 -3.7 14.1 -9.9 19.8 -18 7.1 -10.3 7.5 -11.3 7.5 -21.6 0 -7.6 -0.4 -10.2 -2.4 -14.3 -4.7 -10.2 -14.2 -15 -28.8 -14.6 -9 0.2 -11.4 0.9 -14.7 4.5 -1.4 1.4 -3.1 2.6 -3.8 2.6 -0.8 0 -2.5 0.8 -3.9 1.7 -2.1 1.3 -2.7 1.4 -3.4 0.3 -0.5 -0.8 -1.7 -1 -3.4 -0.6 -2.8 0.7 -3.6 2.6 -1.1 2.6 2.3 0 1.8 1.3 -2 5 -1.9 1.9 -3.5 4 -3.5 4.6 0 0.7 -0.9 2.8 -1.9 4.6 -1.1 1.8 -2.4 5.2 -3.1 7.6 -1.7 6.4 -2.9 5 -2.8 -3.3 0.1 -7.3 0.2 -7.6 2.9 -9.1 3.6 -1.8 3.9 -3.9 0.5 -3 -3.3 0.8 -4.1 -0.8 -1.6 -3.2 l2.1 -1.9 -2.1 -0.6 c-2.6 -0.7 -2.7 -3.7 -0.1 -3.7 2.3 0 3.6 -1.6 2.1 -2.5 -0.6 -0.4 -1.8 -0.1 -2.6 0.6 -1.8 1.5 -2 1.3 -2.8 -3.2 -0.6 -3.4 -0.5 -3.7 2.4 -4.2 1.6 -0.4 3 -1.1 3 -1.8 0 -0.7 -1.1 -0.8 -2.9 -0.4 -3.4 0.7 -3.6 0.5 -4.5 -5.7 l-0.7 -4.7 6.7 -2 6.6 -2 2.3 2.7 2.3 2.7 7.3 -2.4 c6.6 -2.2 8.9 -2.4 21.4 -2.1 7.7 0.2 18.7 0.4 24.5 0.5 5.8 0 13.2 0.7 16.5 1.3 3.3 0.7 10.1 1.2 15 1.2 15.6 0 20.4 1.9 13.7 5.4 -1.5 0.8 -4.2 3.4 -6 5.9 -3.6 5.1 -4.3 11.2 -1.7 15.7 1.9 3.3 1.9 7 0.1 7 -1.9 0 -7.6 4.9 -5.8 5 0.8 0 2.7 -0.8 4.3 -1.7 1.5 -0.9 3 -1.5 3.2 -1.2 0.1 0.2 1.8 3.4 3.7 7.2 l3.3 6.8 -2.5 2.7 c-1.4 1.5 -3.3 3.9 -4.3 5.5 -2.1 3.3 -3.3 3.4 -4.4 0.5 -0.9 -2.3 -0.9 -2.3 -2 0.5 -1.3 3.4 -0.6 5 1.9 4.2 1.4 -0.4 2.1 0.2 2.9 2.7 0.6 1.8 0.9 4.2 0.7 5.3 -0.5 3.2 3 9.1 7.4 12.2 3.7 2.6 4 3.1 4 7.9 0 5.7 1 7 9.8 12.2 5.7 3.5 11.4 5.1 18 5.2 3.6 0 4.2 0.3 4.2 2.2 0 6 2.2 8.7 10 12.5 6.4 3.1 8.6 3.6 15.2 3.8 7.3 0.2 7.8 0.3 10.3 3.3 3.4 4 8.3 5.4 17.8 4.8 l7.5 -0.4 -0.5 4.2 c-0.3 2.2 -0.6 4.6 -0.8 5.3 -0.6 1.9 -8.5 5 -14.6 5.8 l-5.7 0.7 -3.2 -6.6 c-2.6 -5.6 -3.5 -6.6 -5.7 -6.6 -2.5 0 -2.6 0.1 -2 5.4 0.4 4.3 0.2 5.8 -1.1 7 -2.2 1.9 -17.2 3.4 -17.2 1.7 0 -0.6 0.8 -1.4 1.8 -1.7 5.9 -1.9 9.3 -3.9 9 -5.3 -0.6 -3 -4.7 -2.4 -8.3 1.2 -2.3 2.3 -4.2 3.3 -5.4 3 -1.1 -0.3 -2.9 0.6 -4.6 2.1 -1.5 1.4 -3.5 2.7 -4.4 3 -14.4 4 -17.6 4.2 -47.6 3.5 -3.8 -0.1 -9.2 0.1 -12 0.5 -3 0.4 -5.6 0.3 -6.5 -0.3z m30.6 -1.9 c0.7 -0.4 1.3 -1.6 1.5 -2.7 0.3 -1.1 1.8 -2.6 3.4 -3.4 1.9 -0.9 2.5 -1.6 1.6 -1.9 -1.9 -0.6 -7.4 2.4 -8.9 4.9 -1.8 2.9 -0.3 4.9 2.4 3.1z m-33.8 -2.8 c1.9 -1.3 3.2 -5.4 1.7 -5.4 -0.6 0 -6.7 3 -7.4 3.6 -0.5 0.4 1.9 3.4 2.8 3.4 0.4 0 1.7 -0.7 2.9 -1.6z m61.5 -0.8 c0.4 -0.6 0.6 -2.2 0.5 -3.6 -0.3 -2 -0.8 -2.4 -2.8 -2.2 -2.6 0.3 -8.4 5.2 -6.2 5.2 0.6 0 1.2 0.7 1.2 1.5 0 1.1 0.8 1.3 3.3 0.8 1.7 -0.3 3.5 -1.1 4 -1.7z m-74.4 -8.1 c1.3 -1.2 1.2 -1.5 -0.5 -2 -1 -0.4 -2.7 -1.1 -3.6 -1.6 -1 -0.5 -2 -0.9 -2.2 -0.9 -0.8 0 -1.6 5.1 -1 6.1 0.8 1.3 5.4 0.3 7.3 -1.6z m9.6 -4.6 c0.7 -1.1 -1.9 -4.5 -4.7 -6 -2.4 -1.3 -2.8 0.1 -1.3 3.9 1.4 3.2 4.6 4.4 6 2.1z m-31.7 -4.5 c2.4 -0.7 2.6 -1.2 1.3 -3.2 -0.7 -1.2 -1.2 -1.2 -3 -0.1 -1.1 0.8 -2.1 1.9 -2.1 2.6 0 1.5 0.5 1.5 3.8 0.7z m41.6 -1.9 c0.4 -1.2 -0.3 -1.5 -2.9 -1.5 -3.4 0 -4.7 1.3 -2.2 2.3 2.4 1 4.5 0.7 5.1 -0.8z m-27 -1.1 c2.5 -0.9 1.9 -2.4 -0.9 -2.4 -2.4 0 -3.2 1 -1.8 2.3 0.8 0.8 0.8 0.8 2.7 0.1z m-42.4 -3.4 c1.2 -0.6 1.6 -1.7 1.3 -3 -0.7 -2.5 -2.8 -2.6 -3.7 -0.2 -0.3 0.9 -0.9 2.3 -1.2 3 -0.7 1.4 1 1.6 3.6 0.2z m27.5 -10.1 c1 -1.5 -0.1 -2.3 -2 -1.5 -0.9 0.3 -1.3 1 -1 1.6 0.8 1.3 2.2 1.3 3 -0.1z m52 -7.9 c0.3 -0.5 -0.3 -1 -1.4 -1 -1.2 0 -2.1 0.5 -2.1 1 0 0.6 0.6 1 1.4 1 0.8 0 1.8 -0.4 2.1 -1z m-73.5 -13 c0.8 -0.5 1.2 -1.2 0.8 -1.5 -1 -1 -4.9 0.5 -4.3 1.6 0.8 1.1 1.6 1.1 3.5 -0.1z"/>
  <path d="M373.3 401.3 c-0.8 -0.3 -1.3 -2.4 -1.3 -5.7 0 -5.6 -1.9 -8.6 -5.3 -8.6 -2.1 0 -2.2 -1.8 -0.1 -4.1 1.4 -1.6 2 -1.7 4.3 -0.5 6.5 3.2 24.6 5.6 29.3 3.7 2.2 -0.8 3.1 -2.2 4.4 -6.8 2 -7 5.5 -14.3 6.7 -14.3 0.5 0 2.3 1.1 3.9 2.6 1.7 1.4 5.3 3.6 7.9 5 2.7 1.3 4.9 2.8 4.9 3.3 0 0.5 -1.4 1.4 -3.1 2 -4.2 1.4 -2.7 3.3 2.4 2.9 3.3 -0.2 4.2 0.1 4.5 1.5 0.2 1 -0.4 2 -1.5 2.4 -3 1.1 -15.1 8.4 -16.4 9.9 -1.5 1.8 -4.8 1.8 -7.2 -0.1 -1.7 -1.2 -2.4 -1 -6.5 1.5 -3.5 2.1 -7 3.1 -13.7 4 -4.9 0.6 -9.7 1.3 -10.5 1.5 -0.8 0.2 -2.1 0.1 -2.7 -0.2z m44.6 -17.1 c4.9 -4 3.8 -5.8 -1.9 -3 -5.6 2.7 -5.4 2.4 -4.7 4.3 0.9 2.2 2.9 1.9 6.6 -1.3z"/>
  <path d="M429 391.4 c0 -1.1 0.5 -1.4 1.6 -1 0.9 0.3 2.4 0.6 3.5 0.6 1 0 1.9 0.5 1.9 1 0 0.6 -1.6 1 -3.5 1 -2.5 0 -3.5 -0.4 -3.5 -1.6z"/>
 </g>
</svg>